G04 #@! TF.GenerationSoftware,KiCad,Pcbnew,5.1.5-52549c5~84~ubuntu18.04.1*
G04 #@! TF.CreationDate,2020-03-18T13:31:03+01:00*
G04 #@! TF.ProjectId,pcb_loadcell-dev,7063625f-6c6f-4616-9463-656c6c2d6465,rev?*
G04 #@! TF.SameCoordinates,Original*
G04 #@! TF.FileFunction,Legend,Top*
G04 #@! TF.FilePolarity,Positive*
%FSLAX46Y46*%
G04 Gerber Fmt 4.6, Leading zero omitted, Abs format (unit mm)*
G04 Created by KiCad (PCBNEW 5.1.5-52549c5~84~ubuntu18.04.1) date 2020-03-18 13:31:03*
%MOMM*%
%LPD*%
G04 APERTURE LIST*
%ADD10C,0.300000*%
%ADD11C,0.120000*%
%ADD12C,0.150000*%
G04 APERTURE END LIST*
D10*
X125337142Y-135933571D02*
X125337142Y-134433571D01*
X125694285Y-134433571D01*
X125908571Y-134505000D01*
X126051428Y-134647857D01*
X126122857Y-134790714D01*
X126194285Y-135076428D01*
X126194285Y-135290714D01*
X126122857Y-135576428D01*
X126051428Y-135719285D01*
X125908571Y-135862142D01*
X125694285Y-135933571D01*
X125337142Y-135933571D01*
X120328571Y-135147857D02*
X120828571Y-135147857D01*
X121042857Y-135933571D02*
X120328571Y-135933571D01*
X120328571Y-134433571D01*
X121042857Y-134433571D01*
X118630000Y-107822857D02*
X118558571Y-107965714D01*
X118558571Y-108180000D01*
X118630000Y-108394285D01*
X118772857Y-108537142D01*
X118915714Y-108608571D01*
X119201428Y-108680000D01*
X119415714Y-108680000D01*
X119701428Y-108608571D01*
X119844285Y-108537142D01*
X119987142Y-108394285D01*
X120058571Y-108180000D01*
X120058571Y-108037142D01*
X119987142Y-107822857D01*
X119915714Y-107751428D01*
X119415714Y-107751428D01*
X119415714Y-108037142D01*
X120058571Y-107108571D02*
X118558571Y-107108571D01*
X120058571Y-106251428D01*
X118558571Y-106251428D01*
X120058571Y-105537142D02*
X118558571Y-105537142D01*
X118558571Y-105180000D01*
X118630000Y-104965714D01*
X118772857Y-104822857D01*
X118915714Y-104751428D01*
X119201428Y-104680000D01*
X119415714Y-104680000D01*
X119701428Y-104751428D01*
X119844285Y-104822857D01*
X119987142Y-104965714D01*
X120058571Y-105180000D01*
X120058571Y-105537142D01*
X116018571Y-108537142D02*
X116018571Y-107608571D01*
X116590000Y-108108571D01*
X116590000Y-107894285D01*
X116661428Y-107751428D01*
X116732857Y-107680000D01*
X116875714Y-107608571D01*
X117232857Y-107608571D01*
X117375714Y-107680000D01*
X117447142Y-107751428D01*
X117518571Y-107894285D01*
X117518571Y-108322857D01*
X117447142Y-108465714D01*
X117375714Y-108537142D01*
X116018571Y-107180000D02*
X117518571Y-106680000D01*
X116018571Y-106180000D01*
X116018571Y-105822857D02*
X116018571Y-104894285D01*
X116590000Y-105394285D01*
X116590000Y-105180000D01*
X116661428Y-105037142D01*
X116732857Y-104965714D01*
X116875714Y-104894285D01*
X117232857Y-104894285D01*
X117375714Y-104965714D01*
X117447142Y-105037142D01*
X117518571Y-105180000D01*
X117518571Y-105608571D01*
X117447142Y-105751428D01*
X117375714Y-105822857D01*
X113478571Y-107930000D02*
X114978571Y-107430000D01*
X113478571Y-106930000D01*
X114192857Y-105930000D02*
X114264285Y-105715714D01*
X114335714Y-105644285D01*
X114478571Y-105572857D01*
X114692857Y-105572857D01*
X114835714Y-105644285D01*
X114907142Y-105715714D01*
X114978571Y-105858571D01*
X114978571Y-106430000D01*
X113478571Y-106430000D01*
X113478571Y-105930000D01*
X113550000Y-105787142D01*
X113621428Y-105715714D01*
X113764285Y-105644285D01*
X113907142Y-105644285D01*
X114050000Y-105715714D01*
X114121428Y-105787142D01*
X114192857Y-105930000D01*
X114192857Y-106430000D01*
X111867142Y-109251428D02*
X111867142Y-108108571D01*
X112438571Y-108680000D02*
X111295714Y-108680000D01*
X110938571Y-106680000D02*
X110938571Y-107394285D01*
X111652857Y-107465714D01*
X111581428Y-107394285D01*
X111510000Y-107251428D01*
X111510000Y-106894285D01*
X111581428Y-106751428D01*
X111652857Y-106680000D01*
X111795714Y-106608571D01*
X112152857Y-106608571D01*
X112295714Y-106680000D01*
X112367142Y-106751428D01*
X112438571Y-106894285D01*
X112438571Y-107251428D01*
X112367142Y-107394285D01*
X112295714Y-107465714D01*
X110938571Y-106180000D02*
X112438571Y-105680000D01*
X110938571Y-105180000D01*
X112010000Y-104751428D02*
X112010000Y-104037142D01*
X112438571Y-104894285D02*
X110938571Y-104394285D01*
X112438571Y-103894285D01*
X109898571Y-108108571D02*
X108398571Y-108108571D01*
X108398571Y-107537142D02*
X108398571Y-106608571D01*
X108970000Y-107108571D01*
X108970000Y-106894285D01*
X109041428Y-106751428D01*
X109112857Y-106680000D01*
X109255714Y-106608571D01*
X109612857Y-106608571D01*
X109755714Y-106680000D01*
X109827142Y-106751428D01*
X109898571Y-106894285D01*
X109898571Y-107322857D01*
X109827142Y-107465714D01*
X109755714Y-107537142D01*
X108398571Y-105251428D02*
X108398571Y-105965714D01*
X109112857Y-106037142D01*
X109041428Y-105965714D01*
X108970000Y-105822857D01*
X108970000Y-105465714D01*
X109041428Y-105322857D01*
X109112857Y-105251428D01*
X109255714Y-105180000D01*
X109612857Y-105180000D01*
X109755714Y-105251428D01*
X109827142Y-105322857D01*
X109898571Y-105465714D01*
X109898571Y-105822857D01*
X109827142Y-105965714D01*
X109755714Y-106037142D01*
X107358571Y-107858571D02*
X105858571Y-107858571D01*
X105858571Y-107501428D01*
X105930000Y-107287142D01*
X106072857Y-107144285D01*
X106215714Y-107072857D01*
X106501428Y-107001428D01*
X106715714Y-107001428D01*
X107001428Y-107072857D01*
X107144285Y-107144285D01*
X107287142Y-107287142D01*
X107358571Y-107501428D01*
X107358571Y-107858571D01*
X107501428Y-105358571D02*
X107430000Y-105501428D01*
X107287142Y-105644285D01*
X107072857Y-105858571D01*
X107001428Y-106001428D01*
X107001428Y-106144285D01*
X107358571Y-106072857D02*
X107287142Y-106215714D01*
X107144285Y-106358571D01*
X106858571Y-106430000D01*
X106358571Y-106430000D01*
X106072857Y-106358571D01*
X105930000Y-106215714D01*
X105858571Y-106072857D01*
X105858571Y-105787142D01*
X105930000Y-105644285D01*
X106072857Y-105501428D01*
X106358571Y-105430000D01*
X106858571Y-105430000D01*
X107144285Y-105501428D01*
X107287142Y-105644285D01*
X107358571Y-105787142D01*
X107358571Y-106072857D01*
X104818571Y-108894285D02*
X103318571Y-108894285D01*
X103318571Y-107894285D02*
X103318571Y-107608571D01*
X103390000Y-107465714D01*
X103532857Y-107322857D01*
X103818571Y-107251428D01*
X104318571Y-107251428D01*
X104604285Y-107322857D01*
X104747142Y-107465714D01*
X104818571Y-107608571D01*
X104818571Y-107894285D01*
X104747142Y-108037142D01*
X104604285Y-108180000D01*
X104318571Y-108251428D01*
X103818571Y-108251428D01*
X103532857Y-108180000D01*
X103390000Y-108037142D01*
X103318571Y-107894285D01*
X104818571Y-105822857D02*
X104818571Y-106680000D01*
X104818571Y-106251428D02*
X103318571Y-106251428D01*
X103532857Y-106394285D01*
X103675714Y-106537142D01*
X103747142Y-106680000D01*
X103318571Y-104537142D02*
X103318571Y-104822857D01*
X103390000Y-104965714D01*
X103461428Y-105037142D01*
X103675714Y-105180000D01*
X103961428Y-105251428D01*
X104532857Y-105251428D01*
X104675714Y-105180000D01*
X104747142Y-105108571D01*
X104818571Y-104965714D01*
X104818571Y-104680000D01*
X104747142Y-104537142D01*
X104675714Y-104465714D01*
X104532857Y-104394285D01*
X104175714Y-104394285D01*
X104032857Y-104465714D01*
X103961428Y-104537142D01*
X103890000Y-104680000D01*
X103890000Y-104965714D01*
X103961428Y-105108571D01*
X104032857Y-105180000D01*
X104175714Y-105251428D01*
X102278571Y-108894285D02*
X100778571Y-108894285D01*
X100778571Y-107894285D02*
X100778571Y-107608571D01*
X100850000Y-107465714D01*
X100992857Y-107322857D01*
X101278571Y-107251428D01*
X101778571Y-107251428D01*
X102064285Y-107322857D01*
X102207142Y-107465714D01*
X102278571Y-107608571D01*
X102278571Y-107894285D01*
X102207142Y-108037142D01*
X102064285Y-108180000D01*
X101778571Y-108251428D01*
X101278571Y-108251428D01*
X100992857Y-108180000D01*
X100850000Y-108037142D01*
X100778571Y-107894285D01*
X102278571Y-105822857D02*
X102278571Y-106680000D01*
X102278571Y-106251428D02*
X100778571Y-106251428D01*
X100992857Y-106394285D01*
X101135714Y-106537142D01*
X101207142Y-106680000D01*
X100778571Y-105322857D02*
X100778571Y-104322857D01*
X102278571Y-104965714D01*
X99738571Y-108894285D02*
X98238571Y-108894285D01*
X98238571Y-107894285D02*
X98238571Y-107608571D01*
X98310000Y-107465714D01*
X98452857Y-107322857D01*
X98738571Y-107251428D01*
X99238571Y-107251428D01*
X99524285Y-107322857D01*
X99667142Y-107465714D01*
X99738571Y-107608571D01*
X99738571Y-107894285D01*
X99667142Y-108037142D01*
X99524285Y-108180000D01*
X99238571Y-108251428D01*
X98738571Y-108251428D01*
X98452857Y-108180000D01*
X98310000Y-108037142D01*
X98238571Y-107894285D01*
X98381428Y-106680000D02*
X98310000Y-106608571D01*
X98238571Y-106465714D01*
X98238571Y-106108571D01*
X98310000Y-105965714D01*
X98381428Y-105894285D01*
X98524285Y-105822857D01*
X98667142Y-105822857D01*
X98881428Y-105894285D01*
X99738571Y-106751428D01*
X99738571Y-105822857D01*
X99738571Y-104394285D02*
X99738571Y-105251428D01*
X99738571Y-104822857D02*
X98238571Y-104822857D01*
X98452857Y-104965714D01*
X98595714Y-105108571D01*
X98667142Y-105251428D01*
X97198571Y-108894285D02*
X95698571Y-108894285D01*
X95698571Y-107894285D02*
X95698571Y-107608571D01*
X95770000Y-107465714D01*
X95912857Y-107322857D01*
X96198571Y-107251428D01*
X96698571Y-107251428D01*
X96984285Y-107322857D01*
X97127142Y-107465714D01*
X97198571Y-107608571D01*
X97198571Y-107894285D01*
X97127142Y-108037142D01*
X96984285Y-108180000D01*
X96698571Y-108251428D01*
X96198571Y-108251428D01*
X95912857Y-108180000D01*
X95770000Y-108037142D01*
X95698571Y-107894285D01*
X95841428Y-106680000D02*
X95770000Y-106608571D01*
X95698571Y-106465714D01*
X95698571Y-106108571D01*
X95770000Y-105965714D01*
X95841428Y-105894285D01*
X95984285Y-105822857D01*
X96127142Y-105822857D01*
X96341428Y-105894285D01*
X97198571Y-106751428D01*
X97198571Y-105822857D01*
X95841428Y-105251428D02*
X95770000Y-105180000D01*
X95698571Y-105037142D01*
X95698571Y-104680000D01*
X95770000Y-104537142D01*
X95841428Y-104465714D01*
X95984285Y-104394285D01*
X96127142Y-104394285D01*
X96341428Y-104465714D01*
X97198571Y-105322857D01*
X97198571Y-104394285D01*
X94658571Y-108180000D02*
X93158571Y-108180000D01*
X93158571Y-107180000D02*
X93158571Y-106894285D01*
X93230000Y-106751428D01*
X93372857Y-106608571D01*
X93658571Y-106537142D01*
X94158571Y-106537142D01*
X94444285Y-106608571D01*
X94587142Y-106751428D01*
X94658571Y-106894285D01*
X94658571Y-107180000D01*
X94587142Y-107322857D01*
X94444285Y-107465714D01*
X94158571Y-107537142D01*
X93658571Y-107537142D01*
X93372857Y-107465714D01*
X93230000Y-107322857D01*
X93158571Y-107180000D01*
X93158571Y-105180000D02*
X93158571Y-105894285D01*
X93872857Y-105965714D01*
X93801428Y-105894285D01*
X93730000Y-105751428D01*
X93730000Y-105394285D01*
X93801428Y-105251428D01*
X93872857Y-105180000D01*
X94015714Y-105108571D01*
X94372857Y-105108571D01*
X94515714Y-105180000D01*
X94587142Y-105251428D01*
X94658571Y-105394285D01*
X94658571Y-105751428D01*
X94587142Y-105894285D01*
X94515714Y-105965714D01*
X92118571Y-108894285D02*
X90618571Y-108894285D01*
X90618571Y-107894285D02*
X90618571Y-107608571D01*
X90690000Y-107465714D01*
X90832857Y-107322857D01*
X91118571Y-107251428D01*
X91618571Y-107251428D01*
X91904285Y-107322857D01*
X92047142Y-107465714D01*
X92118571Y-107608571D01*
X92118571Y-107894285D01*
X92047142Y-108037142D01*
X91904285Y-108180000D01*
X91618571Y-108251428D01*
X91118571Y-108251428D01*
X90832857Y-108180000D01*
X90690000Y-108037142D01*
X90618571Y-107894285D01*
X92118571Y-105822857D02*
X92118571Y-106680000D01*
X92118571Y-106251428D02*
X90618571Y-106251428D01*
X90832857Y-106394285D01*
X90975714Y-106537142D01*
X91047142Y-106680000D01*
X91261428Y-104965714D02*
X91190000Y-105108571D01*
X91118571Y-105180000D01*
X90975714Y-105251428D01*
X90904285Y-105251428D01*
X90761428Y-105180000D01*
X90690000Y-105108571D01*
X90618571Y-104965714D01*
X90618571Y-104680000D01*
X90690000Y-104537142D01*
X90761428Y-104465714D01*
X90904285Y-104394285D01*
X90975714Y-104394285D01*
X91118571Y-104465714D01*
X91190000Y-104537142D01*
X91261428Y-104680000D01*
X91261428Y-104965714D01*
X91332857Y-105108571D01*
X91404285Y-105180000D01*
X91547142Y-105251428D01*
X91832857Y-105251428D01*
X91975714Y-105180000D01*
X92047142Y-105108571D01*
X92118571Y-104965714D01*
X92118571Y-104680000D01*
X92047142Y-104537142D01*
X91975714Y-104465714D01*
X91832857Y-104394285D01*
X91547142Y-104394285D01*
X91404285Y-104465714D01*
X91332857Y-104537142D01*
X91261428Y-104680000D01*
X89578571Y-108894285D02*
X88078571Y-108894285D01*
X88078571Y-107894285D02*
X88078571Y-107608571D01*
X88150000Y-107465714D01*
X88292857Y-107322857D01*
X88578571Y-107251428D01*
X89078571Y-107251428D01*
X89364285Y-107322857D01*
X89507142Y-107465714D01*
X89578571Y-107608571D01*
X89578571Y-107894285D01*
X89507142Y-108037142D01*
X89364285Y-108180000D01*
X89078571Y-108251428D01*
X88578571Y-108251428D01*
X88292857Y-108180000D01*
X88150000Y-108037142D01*
X88078571Y-107894285D01*
X89578571Y-105822857D02*
X89578571Y-106680000D01*
X89578571Y-106251428D02*
X88078571Y-106251428D01*
X88292857Y-106394285D01*
X88435714Y-106537142D01*
X88507142Y-106680000D01*
X89578571Y-105108571D02*
X89578571Y-104822857D01*
X89507142Y-104680000D01*
X89435714Y-104608571D01*
X89221428Y-104465714D01*
X88935714Y-104394285D01*
X88364285Y-104394285D01*
X88221428Y-104465714D01*
X88150000Y-104537142D01*
X88078571Y-104680000D01*
X88078571Y-104965714D01*
X88150000Y-105108571D01*
X88221428Y-105180000D01*
X88364285Y-105251428D01*
X88721428Y-105251428D01*
X88864285Y-105180000D01*
X88935714Y-105108571D01*
X89007142Y-104965714D01*
X89007142Y-104680000D01*
X88935714Y-104537142D01*
X88864285Y-104465714D01*
X88721428Y-104394285D01*
X87038571Y-108894285D02*
X85538571Y-108894285D01*
X85538571Y-107894285D02*
X85538571Y-107608571D01*
X85610000Y-107465714D01*
X85752857Y-107322857D01*
X86038571Y-107251428D01*
X86538571Y-107251428D01*
X86824285Y-107322857D01*
X86967142Y-107465714D01*
X87038571Y-107608571D01*
X87038571Y-107894285D01*
X86967142Y-108037142D01*
X86824285Y-108180000D01*
X86538571Y-108251428D01*
X86038571Y-108251428D01*
X85752857Y-108180000D01*
X85610000Y-108037142D01*
X85538571Y-107894285D01*
X85681428Y-106680000D02*
X85610000Y-106608571D01*
X85538571Y-106465714D01*
X85538571Y-106108571D01*
X85610000Y-105965714D01*
X85681428Y-105894285D01*
X85824285Y-105822857D01*
X85967142Y-105822857D01*
X86181428Y-105894285D01*
X87038571Y-106751428D01*
X87038571Y-105822857D01*
X85538571Y-105322857D02*
X85538571Y-104394285D01*
X86110000Y-104894285D01*
X86110000Y-104680000D01*
X86181428Y-104537142D01*
X86252857Y-104465714D01*
X86395714Y-104394285D01*
X86752857Y-104394285D01*
X86895714Y-104465714D01*
X86967142Y-104537142D01*
X87038571Y-104680000D01*
X87038571Y-105108571D01*
X86967142Y-105251428D01*
X86895714Y-105322857D01*
X67080000Y-136338571D02*
X67365714Y-136338571D01*
X67508571Y-136410000D01*
X67651428Y-136552857D01*
X67722857Y-136838571D01*
X67722857Y-137338571D01*
X67651428Y-137624285D01*
X67508571Y-137767142D01*
X67365714Y-137838571D01*
X67080000Y-137838571D01*
X66937142Y-137767142D01*
X66794285Y-137624285D01*
X66722857Y-137338571D01*
X66722857Y-136838571D01*
X66794285Y-136552857D01*
X66937142Y-136410000D01*
X67080000Y-136338571D01*
X68365714Y-136338571D02*
X68365714Y-137552857D01*
X68437142Y-137695714D01*
X68508571Y-137767142D01*
X68651428Y-137838571D01*
X68937142Y-137838571D01*
X69080000Y-137767142D01*
X69151428Y-137695714D01*
X69222857Y-137552857D01*
X69222857Y-136338571D01*
X69722857Y-136338571D02*
X70580000Y-136338571D01*
X70151428Y-137838571D02*
X70151428Y-136338571D01*
X67794285Y-122598571D02*
X67794285Y-121098571D01*
X68508571Y-122598571D02*
X68508571Y-121098571D01*
X69365714Y-122598571D01*
X69365714Y-121098571D01*
X44112857Y-144492857D02*
X44612857Y-144492857D01*
X44827142Y-145278571D02*
X44112857Y-145278571D01*
X44112857Y-143778571D01*
X44827142Y-143778571D01*
X45327142Y-143778571D02*
X46327142Y-145278571D01*
X46327142Y-143778571D02*
X45327142Y-145278571D01*
X46684285Y-143778571D02*
X47541428Y-143778571D01*
X47112857Y-145278571D02*
X47112857Y-143778571D01*
X49442857Y-145278571D02*
X49442857Y-143778571D01*
X50157142Y-145278571D02*
X50157142Y-143778571D01*
X51014285Y-145278571D01*
X51014285Y-143778571D01*
X51514285Y-143778571D02*
X52371428Y-143778571D01*
X51942857Y-145278571D02*
X51942857Y-143778571D01*
X52133571Y-156952142D02*
X53276428Y-156952142D01*
X52133571Y-151872142D02*
X53276428Y-151872142D01*
X52705000Y-152443571D02*
X52705000Y-151300714D01*
X129111428Y-139108571D02*
X129111428Y-137608571D01*
X129111428Y-138322857D02*
X129968571Y-138322857D01*
X129968571Y-139108571D02*
X129968571Y-137608571D01*
X129932857Y-140220000D02*
X129790000Y-140148571D01*
X129575714Y-140148571D01*
X129361428Y-140220000D01*
X129218571Y-140362857D01*
X129147142Y-140505714D01*
X129075714Y-140791428D01*
X129075714Y-141005714D01*
X129147142Y-141291428D01*
X129218571Y-141434285D01*
X129361428Y-141577142D01*
X129575714Y-141648571D01*
X129718571Y-141648571D01*
X129932857Y-141577142D01*
X130004285Y-141505714D01*
X130004285Y-141005714D01*
X129718571Y-141005714D01*
X129754285Y-143402857D02*
X129254285Y-143402857D01*
X129254285Y-144188571D02*
X129254285Y-142688571D01*
X129968571Y-142688571D01*
X129218571Y-145942857D02*
X129718571Y-145942857D01*
X129932857Y-146728571D02*
X129218571Y-146728571D01*
X129218571Y-145228571D01*
X129932857Y-145228571D01*
X129147142Y-149268571D02*
X129147142Y-147768571D01*
X129504285Y-147768571D01*
X129718571Y-147840000D01*
X129861428Y-147982857D01*
X129932857Y-148125714D01*
X130004285Y-148411428D01*
X130004285Y-148625714D01*
X129932857Y-148911428D01*
X129861428Y-149054285D01*
X129718571Y-149197142D01*
X129504285Y-149268571D01*
X129147142Y-149268571D01*
X130004285Y-151665714D02*
X129932857Y-151737142D01*
X129718571Y-151808571D01*
X129575714Y-151808571D01*
X129361428Y-151737142D01*
X129218571Y-151594285D01*
X129147142Y-151451428D01*
X129075714Y-151165714D01*
X129075714Y-150951428D01*
X129147142Y-150665714D01*
X129218571Y-150522857D01*
X129361428Y-150380000D01*
X129575714Y-150308571D01*
X129718571Y-150308571D01*
X129932857Y-150380000D01*
X130004285Y-150451428D01*
X129647142Y-153562857D02*
X129861428Y-153634285D01*
X129932857Y-153705714D01*
X130004285Y-153848571D01*
X130004285Y-154062857D01*
X129932857Y-154205714D01*
X129861428Y-154277142D01*
X129718571Y-154348571D01*
X129147142Y-154348571D01*
X129147142Y-152848571D01*
X129647142Y-152848571D01*
X129790000Y-152920000D01*
X129861428Y-152991428D01*
X129932857Y-153134285D01*
X129932857Y-153277142D01*
X129861428Y-153420000D01*
X129790000Y-153491428D01*
X129647142Y-153562857D01*
X129147142Y-153562857D01*
X129182857Y-156460000D02*
X129897142Y-156460000D01*
X129040000Y-156888571D02*
X129540000Y-155388571D01*
X130040000Y-156888571D01*
X131508571Y-158857142D02*
X132651428Y-158857142D01*
X136588571Y-158857142D02*
X137731428Y-158857142D01*
X137160000Y-159428571D02*
X137160000Y-158285714D01*
X106108571Y-159492142D02*
X107251428Y-159492142D01*
X106108571Y-154412142D02*
X107251428Y-154412142D01*
X106680000Y-154983571D02*
X106680000Y-153840714D01*
X120078571Y-160127142D02*
X121221428Y-160127142D01*
X114998571Y-160127142D02*
X116141428Y-160127142D01*
X115570000Y-160698571D02*
X115570000Y-159555714D01*
X104604285Y-160698571D02*
X104104285Y-159984285D01*
X103747142Y-160698571D02*
X103747142Y-159198571D01*
X104318571Y-159198571D01*
X104461428Y-159270000D01*
X104532857Y-159341428D01*
X104604285Y-159484285D01*
X104604285Y-159698571D01*
X104532857Y-159841428D01*
X104461428Y-159912857D01*
X104318571Y-159984285D01*
X103747142Y-159984285D01*
X99452857Y-159270000D02*
X99310000Y-159198571D01*
X99095714Y-159198571D01*
X98881428Y-159270000D01*
X98738571Y-159412857D01*
X98667142Y-159555714D01*
X98595714Y-159841428D01*
X98595714Y-160055714D01*
X98667142Y-160341428D01*
X98738571Y-160484285D01*
X98881428Y-160627142D01*
X99095714Y-160698571D01*
X99238571Y-160698571D01*
X99452857Y-160627142D01*
X99524285Y-160555714D01*
X99524285Y-160055714D01*
X99238571Y-160055714D01*
X94087142Y-159912857D02*
X94301428Y-159984285D01*
X94372857Y-160055714D01*
X94444285Y-160198571D01*
X94444285Y-160412857D01*
X94372857Y-160555714D01*
X94301428Y-160627142D01*
X94158571Y-160698571D01*
X93587142Y-160698571D01*
X93587142Y-159198571D01*
X94087142Y-159198571D01*
X94230000Y-159270000D01*
X94301428Y-159341428D01*
X94372857Y-159484285D01*
X94372857Y-159627142D01*
X94301428Y-159770000D01*
X94230000Y-159841428D01*
X94087142Y-159912857D01*
X93587142Y-159912857D01*
X50570000Y-105858571D02*
X50855714Y-105858571D01*
X50998571Y-105930000D01*
X51141428Y-106072857D01*
X51212857Y-106358571D01*
X51212857Y-106858571D01*
X51141428Y-107144285D01*
X50998571Y-107287142D01*
X50855714Y-107358571D01*
X50570000Y-107358571D01*
X50427142Y-107287142D01*
X50284285Y-107144285D01*
X50212857Y-106858571D01*
X50212857Y-106358571D01*
X50284285Y-106072857D01*
X50427142Y-105930000D01*
X50570000Y-105858571D01*
X51855714Y-105858571D02*
X51855714Y-107072857D01*
X51927142Y-107215714D01*
X51998571Y-107287142D01*
X52141428Y-107358571D01*
X52427142Y-107358571D01*
X52570000Y-107287142D01*
X52641428Y-107215714D01*
X52712857Y-107072857D01*
X52712857Y-105858571D01*
X53212857Y-105858571D02*
X54070000Y-105858571D01*
X53641428Y-107358571D02*
X53641428Y-105858571D01*
X51284285Y-141648571D02*
X51284285Y-140148571D01*
X51998571Y-141648571D02*
X51998571Y-140148571D01*
X52855714Y-141648571D01*
X52855714Y-140148571D01*
X45522857Y-95785714D02*
X45451428Y-95857142D01*
X45237142Y-95928571D01*
X45094285Y-95928571D01*
X44880000Y-95857142D01*
X44737142Y-95714285D01*
X44665714Y-95571428D01*
X44594285Y-95285714D01*
X44594285Y-95071428D01*
X44665714Y-94785714D01*
X44737142Y-94642857D01*
X44880000Y-94500000D01*
X45094285Y-94428571D01*
X45237142Y-94428571D01*
X45451428Y-94500000D01*
X45522857Y-94571428D01*
X47022857Y-95785714D02*
X46951428Y-95857142D01*
X46737142Y-95928571D01*
X46594285Y-95928571D01*
X46380000Y-95857142D01*
X46237142Y-95714285D01*
X46165714Y-95571428D01*
X46094285Y-95285714D01*
X46094285Y-95071428D01*
X46165714Y-94785714D01*
X46237142Y-94642857D01*
X46380000Y-94500000D01*
X46594285Y-94428571D01*
X46737142Y-94428571D01*
X46951428Y-94500000D01*
X47022857Y-94571428D01*
X47665714Y-95785714D02*
X47737142Y-95857142D01*
X47665714Y-95928571D01*
X47594285Y-95857142D01*
X47665714Y-95785714D01*
X47665714Y-95928571D01*
X47665714Y-95000000D02*
X47737142Y-95071428D01*
X47665714Y-95142857D01*
X47594285Y-95071428D01*
X47665714Y-95000000D01*
X47665714Y-95142857D01*
X48880000Y-95142857D02*
X49094285Y-95214285D01*
X49165714Y-95285714D01*
X49237142Y-95428571D01*
X49237142Y-95642857D01*
X49165714Y-95785714D01*
X49094285Y-95857142D01*
X48951428Y-95928571D01*
X48380000Y-95928571D01*
X48380000Y-94428571D01*
X48880000Y-94428571D01*
X49022857Y-94500000D01*
X49094285Y-94571428D01*
X49165714Y-94714285D01*
X49165714Y-94857142D01*
X49094285Y-95000000D01*
X49022857Y-95071428D01*
X48880000Y-95142857D01*
X48380000Y-95142857D01*
X50165714Y-95214285D02*
X50165714Y-95928571D01*
X49665714Y-94428571D02*
X50165714Y-95214285D01*
X50665714Y-94428571D01*
X51165714Y-95357142D02*
X52308571Y-95357142D01*
X52951428Y-95857142D02*
X53165714Y-95928571D01*
X53522857Y-95928571D01*
X53665714Y-95857142D01*
X53737142Y-95785714D01*
X53808571Y-95642857D01*
X53808571Y-95500000D01*
X53737142Y-95357142D01*
X53665714Y-95285714D01*
X53522857Y-95214285D01*
X53237142Y-95142857D01*
X53094285Y-95071428D01*
X53022857Y-95000000D01*
X52951428Y-94857142D01*
X52951428Y-94714285D01*
X53022857Y-94571428D01*
X53094285Y-94500000D01*
X53237142Y-94428571D01*
X53594285Y-94428571D01*
X53808571Y-94500000D01*
X54380000Y-95500000D02*
X55094285Y-95500000D01*
X54237142Y-95928571D02*
X54737142Y-94428571D01*
X55237142Y-95928571D01*
X56880000Y-95928571D02*
X56880000Y-94428571D01*
X57737142Y-95928571D02*
X57094285Y-95071428D01*
X57737142Y-94428571D02*
X56880000Y-95285714D01*
X58380000Y-95928571D02*
X58380000Y-94428571D01*
X58951428Y-94428571D01*
X59094285Y-94500000D01*
X59165714Y-94571428D01*
X59237142Y-94714285D01*
X59237142Y-94928571D01*
X59165714Y-95071428D01*
X59094285Y-95142857D01*
X58951428Y-95214285D01*
X58380000Y-95214285D01*
X59880000Y-95928571D02*
X59880000Y-94428571D01*
X60737142Y-95928571D01*
X60737142Y-94428571D01*
X61951428Y-95142857D02*
X62165714Y-95214285D01*
X62237142Y-95285714D01*
X62308571Y-95428571D01*
X62308571Y-95642857D01*
X62237142Y-95785714D01*
X62165714Y-95857142D01*
X62022857Y-95928571D01*
X61451428Y-95928571D01*
X61451428Y-94428571D01*
X61951428Y-94428571D01*
X62094285Y-94500000D01*
X62165714Y-94571428D01*
X62237142Y-94714285D01*
X62237142Y-94857142D01*
X62165714Y-95000000D01*
X62094285Y-95071428D01*
X61951428Y-95142857D01*
X61451428Y-95142857D01*
X63737142Y-94500000D02*
X63594285Y-94428571D01*
X63380000Y-94428571D01*
X63165714Y-94500000D01*
X63022857Y-94642857D01*
X62951428Y-94785714D01*
X62880000Y-95071428D01*
X62880000Y-95285714D01*
X62951428Y-95571428D01*
X63022857Y-95714285D01*
X63165714Y-95857142D01*
X63380000Y-95928571D01*
X63522857Y-95928571D01*
X63737142Y-95857142D01*
X63808571Y-95785714D01*
X63808571Y-95285714D01*
X63522857Y-95285714D01*
X64451428Y-95785714D02*
X64522857Y-95857142D01*
X64451428Y-95928571D01*
X64380000Y-95857142D01*
X64451428Y-95785714D01*
X64451428Y-95928571D01*
X65808571Y-95928571D02*
X65808571Y-94428571D01*
X65808571Y-95857142D02*
X65665714Y-95928571D01*
X65380000Y-95928571D01*
X65237142Y-95857142D01*
X65165714Y-95785714D01*
X65094285Y-95642857D01*
X65094285Y-95214285D01*
X65165714Y-95071428D01*
X65237142Y-95000000D01*
X65380000Y-94928571D01*
X65665714Y-94928571D01*
X65808571Y-95000000D01*
X67094285Y-95857142D02*
X66951428Y-95928571D01*
X66665714Y-95928571D01*
X66522857Y-95857142D01*
X66451428Y-95714285D01*
X66451428Y-95142857D01*
X66522857Y-95000000D01*
X66665714Y-94928571D01*
X66951428Y-94928571D01*
X67094285Y-95000000D01*
X67165714Y-95142857D01*
X67165714Y-95285714D01*
X66451428Y-95428571D01*
X47701428Y-88787857D02*
X47201428Y-88787857D01*
X47201428Y-89573571D02*
X47201428Y-88073571D01*
X47915714Y-88073571D01*
X48772857Y-88073571D02*
X49058571Y-88073571D01*
X49201428Y-88145000D01*
X49344285Y-88287857D01*
X49415714Y-88573571D01*
X49415714Y-89073571D01*
X49344285Y-89359285D01*
X49201428Y-89502142D01*
X49058571Y-89573571D01*
X48772857Y-89573571D01*
X48630000Y-89502142D01*
X48487142Y-89359285D01*
X48415714Y-89073571D01*
X48415714Y-88573571D01*
X48487142Y-88287857D01*
X48630000Y-88145000D01*
X48772857Y-88073571D01*
X50915714Y-89573571D02*
X50415714Y-88859285D01*
X50058571Y-89573571D02*
X50058571Y-88073571D01*
X50630000Y-88073571D01*
X50772857Y-88145000D01*
X50844285Y-88216428D01*
X50915714Y-88359285D01*
X50915714Y-88573571D01*
X50844285Y-88716428D01*
X50772857Y-88787857D01*
X50630000Y-88859285D01*
X50058571Y-88859285D01*
X52415714Y-89430714D02*
X52344285Y-89502142D01*
X52130000Y-89573571D01*
X51987142Y-89573571D01*
X51772857Y-89502142D01*
X51630000Y-89359285D01*
X51558571Y-89216428D01*
X51487142Y-88930714D01*
X51487142Y-88716428D01*
X51558571Y-88430714D01*
X51630000Y-88287857D01*
X51772857Y-88145000D01*
X51987142Y-88073571D01*
X52130000Y-88073571D01*
X52344285Y-88145000D01*
X52415714Y-88216428D01*
X53058571Y-88787857D02*
X53558571Y-88787857D01*
X53772857Y-89573571D02*
X53058571Y-89573571D01*
X53058571Y-88073571D01*
X53772857Y-88073571D01*
X55130000Y-89573571D02*
X54415714Y-89573571D01*
X54415714Y-88073571D01*
X55915714Y-88073571D02*
X56201428Y-88073571D01*
X56344285Y-88145000D01*
X56487142Y-88287857D01*
X56558571Y-88573571D01*
X56558571Y-89073571D01*
X56487142Y-89359285D01*
X56344285Y-89502142D01*
X56201428Y-89573571D01*
X55915714Y-89573571D01*
X55772857Y-89502142D01*
X55630000Y-89359285D01*
X55558571Y-89073571D01*
X55558571Y-88573571D01*
X55630000Y-88287857D01*
X55772857Y-88145000D01*
X55915714Y-88073571D01*
X57987142Y-88145000D02*
X57844285Y-88073571D01*
X57630000Y-88073571D01*
X57415714Y-88145000D01*
X57272857Y-88287857D01*
X57201428Y-88430714D01*
X57130000Y-88716428D01*
X57130000Y-88930714D01*
X57201428Y-89216428D01*
X57272857Y-89359285D01*
X57415714Y-89502142D01*
X57630000Y-89573571D01*
X57772857Y-89573571D01*
X57987142Y-89502142D01*
X58058571Y-89430714D01*
X58058571Y-88930714D01*
X57772857Y-88930714D01*
X60915714Y-89145000D02*
X61630000Y-89145000D01*
X60772857Y-89573571D02*
X61272857Y-88073571D01*
X61772857Y-89573571D01*
X62272857Y-89573571D02*
X62272857Y-88073571D01*
X62630000Y-88073571D01*
X62844285Y-88145000D01*
X62987142Y-88287857D01*
X63058571Y-88430714D01*
X63130000Y-88716428D01*
X63130000Y-88930714D01*
X63058571Y-89216428D01*
X62987142Y-89359285D01*
X62844285Y-89502142D01*
X62630000Y-89573571D01*
X62272857Y-89573571D01*
X64630000Y-89430714D02*
X64558571Y-89502142D01*
X64344285Y-89573571D01*
X64201428Y-89573571D01*
X63987142Y-89502142D01*
X63844285Y-89359285D01*
X63772857Y-89216428D01*
X63701428Y-88930714D01*
X63701428Y-88716428D01*
X63772857Y-88430714D01*
X63844285Y-88287857D01*
X63987142Y-88145000D01*
X64201428Y-88073571D01*
X64344285Y-88073571D01*
X64558571Y-88145000D01*
X64630000Y-88216428D01*
X50522857Y-92123571D02*
X50522857Y-90623571D01*
X50880000Y-90623571D01*
X51094285Y-90695000D01*
X51237142Y-90837857D01*
X51308571Y-90980714D01*
X51380000Y-91266428D01*
X51380000Y-91480714D01*
X51308571Y-91766428D01*
X51237142Y-91909285D01*
X51094285Y-92052142D01*
X50880000Y-92123571D01*
X50522857Y-92123571D01*
X52022857Y-91337857D02*
X52522857Y-91337857D01*
X52737142Y-92123571D02*
X52022857Y-92123571D01*
X52022857Y-90623571D01*
X52737142Y-90623571D01*
X53165714Y-90623571D02*
X53665714Y-92123571D01*
X54165714Y-90623571D01*
X56665714Y-92123571D02*
X56165714Y-91409285D01*
X55808571Y-92123571D02*
X55808571Y-90623571D01*
X56380000Y-90623571D01*
X56522857Y-90695000D01*
X56594285Y-90766428D01*
X56665714Y-90909285D01*
X56665714Y-91123571D01*
X56594285Y-91266428D01*
X56522857Y-91337857D01*
X56380000Y-91409285D01*
X55808571Y-91409285D01*
X57308571Y-91337857D02*
X57808571Y-91337857D01*
X58022857Y-92123571D02*
X57308571Y-92123571D01*
X57308571Y-90623571D01*
X58022857Y-90623571D01*
X58451428Y-90623571D02*
X58951428Y-92123571D01*
X59451428Y-90623571D01*
X59951428Y-91980714D02*
X60022857Y-92052142D01*
X59951428Y-92123571D01*
X59880000Y-92052142D01*
X59951428Y-91980714D01*
X59951428Y-92123571D01*
X60594285Y-91695000D02*
X61308571Y-91695000D01*
X60451428Y-92123571D02*
X60951428Y-90623571D01*
X61451428Y-92123571D01*
D11*
X75705000Y-143985000D02*
X72705000Y-143985000D01*
X75705000Y-143985000D02*
X75705000Y-146985000D01*
X55105000Y-143985000D02*
X58105000Y-143985000D01*
X55105000Y-143985000D02*
X55105000Y-146985000D01*
X55105000Y-180785000D02*
X55105000Y-177785000D01*
X55105000Y-180785000D02*
X58105000Y-180785000D01*
X75705000Y-180785000D02*
X72705000Y-180785000D01*
X75705000Y-180785000D02*
X75705000Y-177785000D01*
X60105000Y-180785000D02*
X70705000Y-180785000D01*
X60105000Y-173185000D02*
X60105000Y-180785000D01*
X70705000Y-173185000D02*
X60105000Y-173185000D01*
X70705000Y-180785000D02*
X70705000Y-173185000D01*
X130235000Y-104715000D02*
X130235000Y-106045000D01*
X128905000Y-104715000D02*
X130235000Y-104715000D01*
X127635000Y-104715000D02*
X127635000Y-107375000D01*
X127635000Y-107375000D02*
X127575000Y-107375000D01*
X127635000Y-104715000D02*
X127575000Y-104715000D01*
X127575000Y-104715000D02*
X127575000Y-107375000D01*
X130235000Y-100270000D02*
X130235000Y-101600000D01*
X128905000Y-100270000D02*
X130235000Y-100270000D01*
X127635000Y-100270000D02*
X127635000Y-102930000D01*
X127635000Y-102930000D02*
X127575000Y-102930000D01*
X127635000Y-100270000D02*
X127575000Y-100270000D01*
X127575000Y-100270000D02*
X127575000Y-102930000D01*
X119380000Y-74870000D02*
X120710000Y-74870000D01*
X120710000Y-74870000D02*
X120710000Y-76200000D01*
X120710000Y-77470000D02*
X120710000Y-87690000D01*
X118050000Y-87690000D02*
X120710000Y-87690000D01*
X118050000Y-77470000D02*
X118050000Y-87690000D01*
X118050000Y-77470000D02*
X120710000Y-77470000D01*
X140790000Y-109480000D02*
X140790000Y-108980000D01*
X140050000Y-109480000D02*
X140790000Y-109480000D01*
X136913000Y-87907000D02*
X136959000Y-87954000D01*
X134615000Y-85610000D02*
X134651000Y-85645000D01*
X137129000Y-87714000D02*
X137164000Y-87749000D01*
X134821000Y-85405000D02*
X134867000Y-85452000D01*
X136913000Y-92907000D02*
X136959000Y-92954000D01*
X134615000Y-90610000D02*
X134651000Y-90645000D01*
X137129000Y-92714000D02*
X137164000Y-92749000D01*
X134821000Y-90405000D02*
X134867000Y-90452000D01*
X136913000Y-97907000D02*
X136959000Y-97954000D01*
X134615000Y-95610000D02*
X134651000Y-95645000D01*
X137129000Y-97714000D02*
X137164000Y-97749000D01*
X134821000Y-95405000D02*
X134867000Y-95452000D01*
X136913000Y-102907000D02*
X136959000Y-102954000D01*
X134615000Y-100610000D02*
X134651000Y-100645000D01*
X137129000Y-102714000D02*
X137164000Y-102749000D01*
X134821000Y-100405000D02*
X134867000Y-100452000D01*
X130629000Y-84120000D02*
X140550000Y-84120000D01*
X130629000Y-109240000D02*
X140550000Y-109240000D01*
X140550000Y-109240000D02*
X140550000Y-84120000D01*
X130629000Y-109240000D02*
X130629000Y-84120000D01*
X133589000Y-109240000D02*
X133589000Y-84120000D01*
X138490000Y-109240000D02*
X138490000Y-84120000D01*
X139990000Y-109240000D02*
X139990000Y-84120000D01*
X137570000Y-86680000D02*
G75*
G03X137570000Y-86680000I-1680000J0D01*
G01*
X137570000Y-91680000D02*
G75*
G03X137570000Y-91680000I-1680000J0D01*
G01*
X137570000Y-96680000D02*
G75*
G03X137570000Y-96680000I-1680000J0D01*
G01*
X137570000Y-101680000D02*
G75*
G03X137570000Y-101680000I-1680000J0D01*
G01*
X137570253Y-106651195D02*
G75*
G02X137425000Y-107364000I-1680253J-28805D01*
G01*
X136573042Y-108215426D02*
G75*
G02X135206000Y-108215000I-683042J1535426D01*
G01*
X134354574Y-107363042D02*
G75*
G02X134355000Y-105996000I1535426J683042D01*
G01*
X135206958Y-105144574D02*
G75*
G02X136574000Y-105145000I683042J-1535426D01*
G01*
X137424756Y-105996682D02*
G75*
G02X137570000Y-106680000I-1534756J-683318D01*
G01*
X130235000Y-95190000D02*
X130235000Y-96520000D01*
X128905000Y-95190000D02*
X130235000Y-95190000D01*
X127635000Y-95190000D02*
X127635000Y-97850000D01*
X127635000Y-97850000D02*
X127575000Y-97850000D01*
X127635000Y-95190000D02*
X127575000Y-95190000D01*
X127575000Y-95190000D02*
X127575000Y-97850000D01*
X130235000Y-90110000D02*
X130235000Y-91440000D01*
X128905000Y-90110000D02*
X130235000Y-90110000D01*
X127635000Y-90110000D02*
X127635000Y-92770000D01*
X127635000Y-92770000D02*
X127575000Y-92770000D01*
X127635000Y-90110000D02*
X127575000Y-90110000D01*
X127575000Y-90110000D02*
X127575000Y-92770000D01*
X120020000Y-155995000D02*
X123170000Y-155995000D01*
X120020000Y-157695000D02*
X123170000Y-157695000D01*
X120020000Y-155995000D02*
X120020000Y-157695000D01*
X65345000Y-142300000D02*
X65345000Y-140970000D01*
X66675000Y-142300000D02*
X65345000Y-142300000D01*
X67945000Y-142300000D02*
X67945000Y-139640000D01*
X67945000Y-139640000D02*
X70545000Y-139640000D01*
X67945000Y-142300000D02*
X70545000Y-142300000D01*
X70545000Y-142300000D02*
X70545000Y-139640000D01*
X62170000Y-107890000D02*
X63500000Y-107890000D01*
X62170000Y-109220000D02*
X62170000Y-107890000D01*
X62170000Y-110490000D02*
X64830000Y-110490000D01*
X64830000Y-110490000D02*
X64830000Y-113090000D01*
X62170000Y-110490000D02*
X62170000Y-113090000D01*
X62170000Y-113090000D02*
X64830000Y-113090000D01*
X74427000Y-117151000D02*
X74427000Y-118251000D01*
X74697000Y-117151000D02*
X74427000Y-117151000D01*
X74697000Y-115651000D02*
X74697000Y-117151000D01*
X68067000Y-117151000D02*
X68067000Y-119981000D01*
X67797000Y-117151000D02*
X68067000Y-117151000D01*
X67797000Y-115651000D02*
X67797000Y-117151000D01*
D12*
X43145000Y-105240000D02*
X61145000Y-105240000D01*
X61145000Y-142240000D02*
X61145000Y-105240000D01*
X43145000Y-142240000D02*
X61145000Y-142240000D01*
X43145000Y-142240000D02*
X43145000Y-105240000D01*
D11*
X121317936Y-155215000D02*
X122522064Y-155215000D01*
X121317936Y-153395000D02*
X122522064Y-153395000D01*
X126640000Y-159352064D02*
X126640000Y-158147936D01*
X124820000Y-159352064D02*
X124820000Y-158147936D01*
X120710000Y-101600000D02*
X120710000Y-102930000D01*
X120710000Y-102930000D02*
X119380000Y-102930000D01*
X118110000Y-102930000D02*
X85030000Y-102930000D01*
X85030000Y-100270000D02*
X85030000Y-102930000D01*
X118110000Y-100270000D02*
X85030000Y-100270000D01*
X118110000Y-100270000D02*
X118110000Y-102930000D01*
X124820000Y-153067936D02*
X124820000Y-154272064D01*
X126640000Y-153067936D02*
X126640000Y-154272064D01*
X77237000Y-117823064D02*
X77237000Y-116618936D01*
X75417000Y-117823064D02*
X75417000Y-116618936D01*
X67204000Y-117950064D02*
X67204000Y-116745936D01*
X65384000Y-117950064D02*
X65384000Y-116745936D01*
X135950000Y-157540000D02*
X134620000Y-157540000D01*
X135950000Y-156210000D02*
X135950000Y-157540000D01*
X135950000Y-154940000D02*
X133290000Y-154940000D01*
X133290000Y-154940000D02*
X133290000Y-137100000D01*
X135950000Y-154940000D02*
X135950000Y-137100000D01*
X135950000Y-137100000D02*
X133290000Y-137100000D01*
X133410000Y-157540000D02*
X132080000Y-157540000D01*
X133410000Y-156210000D02*
X133410000Y-157540000D01*
X133410000Y-154940000D02*
X130750000Y-154940000D01*
X130750000Y-154940000D02*
X130750000Y-137100000D01*
X133410000Y-154940000D02*
X133410000Y-137100000D01*
X133410000Y-137100000D02*
X130750000Y-137100000D01*
X138490000Y-157540000D02*
X137160000Y-157540000D01*
X138490000Y-156210000D02*
X138490000Y-157540000D01*
X138490000Y-154940000D02*
X135830000Y-154940000D01*
X135830000Y-154940000D02*
X135830000Y-137100000D01*
X138490000Y-154940000D02*
X138490000Y-137100000D01*
X138490000Y-137100000D02*
X135830000Y-137100000D01*
X42090000Y-148965000D02*
X42090000Y-149465000D01*
X42830000Y-148965000D02*
X42090000Y-148965000D01*
X45967000Y-155538000D02*
X45921000Y-155491000D01*
X48265000Y-157835000D02*
X48229000Y-157800000D01*
X45751000Y-155731000D02*
X45716000Y-155696000D01*
X48059000Y-158040000D02*
X48013000Y-157993000D01*
X52251000Y-159325000D02*
X42330000Y-159325000D01*
X52251000Y-149205000D02*
X42330000Y-149205000D01*
X42330000Y-149205000D02*
X42330000Y-159325000D01*
X52251000Y-149205000D02*
X52251000Y-159325000D01*
X49291000Y-149205000D02*
X49291000Y-159325000D01*
X44390000Y-149205000D02*
X44390000Y-159325000D01*
X42890000Y-149205000D02*
X42890000Y-159325000D01*
X48670000Y-156765000D02*
G75*
G03X48670000Y-156765000I-1680000J0D01*
G01*
X45309747Y-151793805D02*
G75*
G02X45455000Y-151081000I1680253J28805D01*
G01*
X46306958Y-150229574D02*
G75*
G02X47674000Y-150230000I683042J-1535426D01*
G01*
X48525426Y-151081958D02*
G75*
G02X48525000Y-152449000I-1535426J-683042D01*
G01*
X47673042Y-153300426D02*
G75*
G02X46306000Y-153300000I-683042J1535426D01*
G01*
X45455244Y-152448318D02*
G75*
G02X45310000Y-151765000I1534756J683318D01*
G01*
X107890000Y-152975000D02*
X109220000Y-152975000D01*
X107890000Y-154305000D02*
X107890000Y-152975000D01*
X107890000Y-155575000D02*
X110550000Y-155575000D01*
X110550000Y-155575000D02*
X110550000Y-160715000D01*
X107890000Y-155575000D02*
X107890000Y-160715000D01*
X107890000Y-160715000D02*
X110550000Y-160715000D01*
X119320000Y-139760000D02*
X119320000Y-138430000D01*
X120650000Y-139760000D02*
X119320000Y-139760000D01*
X121920000Y-139760000D02*
X121920000Y-137100000D01*
X121920000Y-137100000D02*
X127060000Y-137100000D01*
X121920000Y-139760000D02*
X127060000Y-139760000D01*
X127060000Y-139760000D02*
X127060000Y-137100000D01*
X52130000Y-145810000D02*
X52130000Y-147140000D01*
X50800000Y-145810000D02*
X52130000Y-145810000D01*
X49530000Y-145810000D02*
X49530000Y-148470000D01*
X49530000Y-148470000D02*
X44390000Y-148470000D01*
X49530000Y-145810000D02*
X44390000Y-145810000D01*
X44390000Y-145810000D02*
X44390000Y-148470000D01*
X91180000Y-171905000D02*
X91680000Y-171905000D01*
X91180000Y-171165000D02*
X91180000Y-171905000D01*
X107753000Y-168028000D02*
X107706000Y-168074000D01*
X110050000Y-165730000D02*
X110015000Y-165766000D01*
X107946000Y-168244000D02*
X107911000Y-168279000D01*
X110255000Y-165936000D02*
X110208000Y-165982000D01*
X102753000Y-168028000D02*
X102706000Y-168074000D01*
X105050000Y-165730000D02*
X105015000Y-165766000D01*
X102946000Y-168244000D02*
X102911000Y-168279000D01*
X105255000Y-165936000D02*
X105208000Y-165982000D01*
X97753000Y-168028000D02*
X97706000Y-168074000D01*
X100050000Y-165730000D02*
X100015000Y-165766000D01*
X97946000Y-168244000D02*
X97911000Y-168279000D01*
X100255000Y-165936000D02*
X100208000Y-165982000D01*
X111541000Y-161744000D02*
X111541000Y-171665000D01*
X91420000Y-161744000D02*
X91420000Y-171665000D01*
X91420000Y-171665000D02*
X111541000Y-171665000D01*
X91420000Y-161744000D02*
X111541000Y-161744000D01*
X91420000Y-164704000D02*
X111541000Y-164704000D01*
X91420000Y-169605000D02*
X111541000Y-169605000D01*
X91420000Y-171105000D02*
X111541000Y-171105000D01*
X110660000Y-167005000D02*
G75*
G03X110660000Y-167005000I-1680000J0D01*
G01*
X105660000Y-167005000D02*
G75*
G03X105660000Y-167005000I-1680000J0D01*
G01*
X100660000Y-167005000D02*
G75*
G03X100660000Y-167005000I-1680000J0D01*
G01*
X94008805Y-168685253D02*
G75*
G02X93296000Y-168540000I-28805J1680253D01*
G01*
X92444574Y-167688042D02*
G75*
G02X92445000Y-166321000I1535426J683042D01*
G01*
X93296958Y-165469574D02*
G75*
G02X94664000Y-165470000I683042J-1535426D01*
G01*
X95515426Y-166321958D02*
G75*
G02X95515000Y-167689000I-1535426J-683042D01*
G01*
X94663318Y-168539756D02*
G75*
G02X93980000Y-168685000I-683318J1534756D01*
G01*
X112770000Y-171905000D02*
X113270000Y-171905000D01*
X112770000Y-171165000D02*
X112770000Y-171905000D01*
X119343000Y-168028000D02*
X119296000Y-168074000D01*
X121640000Y-165730000D02*
X121605000Y-165766000D01*
X119536000Y-168244000D02*
X119501000Y-168279000D01*
X121845000Y-165936000D02*
X121798000Y-165982000D01*
X123130000Y-161744000D02*
X123130000Y-171665000D01*
X113010000Y-161744000D02*
X113010000Y-171665000D01*
X113010000Y-171665000D02*
X123130000Y-171665000D01*
X113010000Y-161744000D02*
X123130000Y-161744000D01*
X113010000Y-164704000D02*
X123130000Y-164704000D01*
X113010000Y-169605000D02*
X123130000Y-169605000D01*
X113010000Y-171105000D02*
X123130000Y-171105000D01*
X122250000Y-167005000D02*
G75*
G03X122250000Y-167005000I-1680000J0D01*
G01*
X115598805Y-168685253D02*
G75*
G02X114886000Y-168540000I-28805J1680253D01*
G01*
X114034574Y-167688042D02*
G75*
G02X114035000Y-166321000I1535426J683042D01*
G01*
X114886958Y-165469574D02*
G75*
G02X116254000Y-165470000I683042J-1535426D01*
G01*
X117105426Y-166321958D02*
G75*
G02X117105000Y-167689000I-1535426J-683042D01*
G01*
X116253318Y-168539756D02*
G75*
G02X115570000Y-168685000I-683318J1534756D01*
G01*
X87620000Y-164905000D02*
X82550000Y-164905000D01*
X87620000Y-155135000D02*
X82550000Y-155135000D01*
X82550000Y-155135000D02*
X82550000Y-164905000D01*
X87620000Y-155135000D02*
X87620000Y-164905000D01*
X90865000Y-158690000D02*
X90865000Y-160020000D01*
X89535000Y-158690000D02*
X90865000Y-158690000D01*
X88265000Y-158690000D02*
X88265000Y-161350000D01*
X88265000Y-161350000D02*
X88205000Y-161350000D01*
X88265000Y-158690000D02*
X88205000Y-158690000D01*
X88205000Y-158690000D02*
X88205000Y-161350000D01*
X126541684Y-112110555D02*
G75*
G03X122264000Y-113139000I-1827684J-1808445D01*
G01*
X126555741Y-115730875D02*
G75*
G02X122264000Y-114739000I-1841741J1811875D01*
G01*
X126564000Y-115719000D02*
X126564000Y-112119000D01*
D12*
X74405000Y-120540000D02*
X62755000Y-120540000D01*
X74405000Y-138540000D02*
X74405000Y-120540000D01*
X62755000Y-138540000D02*
X74405000Y-138540000D01*
X62755000Y-138540000D02*
X62755000Y-120540000D01*
D11*
X126979000Y-113316936D02*
X126979000Y-114521064D01*
X128799000Y-113316936D02*
X128799000Y-114521064D01*
X82610000Y-168335000D02*
X82610000Y-165675000D01*
X80010000Y-168335000D02*
X82610000Y-168335000D01*
X80010000Y-165675000D02*
X82610000Y-165675000D01*
X80010000Y-168335000D02*
X80010000Y-165675000D01*
X78740000Y-168335000D02*
X77410000Y-168335000D01*
X77410000Y-168335000D02*
X77410000Y-167005000D01*
X86327064Y-167915000D02*
X85122936Y-167915000D01*
X86327064Y-166095000D02*
X85122936Y-166095000D01*
X114660000Y-156812064D02*
X114660000Y-155607936D01*
X116480000Y-156812064D02*
X116480000Y-155607936D01*
X105050000Y-154972936D02*
X105050000Y-156177064D01*
X103230000Y-154972936D02*
X103230000Y-156177064D01*
X98150000Y-154972936D02*
X98150000Y-156177064D01*
X99970000Y-154972936D02*
X99970000Y-156177064D01*
X93070000Y-154972936D02*
X93070000Y-156177064D01*
X94890000Y-154972936D02*
X94890000Y-156177064D01*
X123190000Y-140355000D02*
X121240000Y-140355000D01*
X123190000Y-140355000D02*
X125140000Y-140355000D01*
X123190000Y-150475000D02*
X121240000Y-150475000D01*
X123190000Y-150475000D02*
X126640000Y-150475000D01*
X133865000Y-132595000D02*
X131865000Y-132595000D01*
X133865000Y-132595000D02*
X133865000Y-130595000D01*
X118865000Y-132595000D02*
X118865000Y-130595000D01*
X118865000Y-132595000D02*
X120865000Y-132595000D01*
X118865000Y-119595000D02*
X118865000Y-117595000D01*
X118865000Y-117595000D02*
X120865000Y-117595000D01*
X133865000Y-117595000D02*
X133865000Y-119595000D01*
X133865000Y-117595000D02*
X131865000Y-117595000D01*
D12*
X52792380Y-166496904D02*
X53601904Y-166496904D01*
X53697142Y-166449285D01*
X53744761Y-166401666D01*
X53792380Y-166306428D01*
X53792380Y-166115952D01*
X53744761Y-166020714D01*
X53697142Y-165973095D01*
X53601904Y-165925476D01*
X52792380Y-165925476D01*
X53792380Y-164925476D02*
X53792380Y-165496904D01*
X53792380Y-165211190D02*
X52792380Y-165211190D01*
X52935238Y-165306428D01*
X53030476Y-165401666D01*
X53078095Y-165496904D01*
X124420476Y-105973571D02*
X124753809Y-105973571D01*
X124896666Y-106497380D02*
X124420476Y-106497380D01*
X124420476Y-105497380D01*
X124896666Y-105497380D01*
X125230000Y-105497380D02*
X125896666Y-106497380D01*
X125896666Y-105497380D02*
X125230000Y-106497380D01*
X126277619Y-106116428D02*
X127039523Y-106116428D01*
X126658571Y-106497380D02*
X126658571Y-105735476D01*
X124420476Y-101528571D02*
X124753809Y-101528571D01*
X124896666Y-102052380D02*
X124420476Y-102052380D01*
X124420476Y-101052380D01*
X124896666Y-101052380D01*
X125230000Y-101052380D02*
X125896666Y-102052380D01*
X125896666Y-101052380D02*
X125230000Y-102052380D01*
X126277619Y-101671428D02*
X127039523Y-101671428D01*
X135882142Y-83542142D02*
X135834523Y-83589761D01*
X135691666Y-83637380D01*
X135596428Y-83637380D01*
X135453571Y-83589761D01*
X135358333Y-83494523D01*
X135310714Y-83399285D01*
X135263095Y-83208809D01*
X135263095Y-83065952D01*
X135310714Y-82875476D01*
X135358333Y-82780238D01*
X135453571Y-82685000D01*
X135596428Y-82637380D01*
X135691666Y-82637380D01*
X135834523Y-82685000D01*
X135882142Y-82732619D01*
X136691666Y-83589761D02*
X136596428Y-83637380D01*
X136405952Y-83637380D01*
X136310714Y-83589761D01*
X136263095Y-83494523D01*
X136263095Y-83113571D01*
X136310714Y-83018333D01*
X136405952Y-82970714D01*
X136596428Y-82970714D01*
X136691666Y-83018333D01*
X136739285Y-83113571D01*
X136739285Y-83208809D01*
X136263095Y-83304047D01*
X137310714Y-83637380D02*
X137215476Y-83589761D01*
X137167857Y-83494523D01*
X137167857Y-82637380D01*
X137834523Y-83637380D02*
X137739285Y-83589761D01*
X137691666Y-83494523D01*
X137691666Y-82637380D01*
X124872857Y-96686666D02*
X125349047Y-96686666D01*
X124777619Y-96972380D02*
X125110952Y-95972380D01*
X125444285Y-96972380D01*
X125777619Y-96591428D02*
X126539523Y-96591428D01*
X126158571Y-96972380D02*
X126158571Y-96210476D01*
X124872857Y-91606666D02*
X125349047Y-91606666D01*
X124777619Y-91892380D02*
X125110952Y-90892380D01*
X125444285Y-91892380D01*
X125777619Y-91511428D02*
X126539523Y-91511428D01*
X118006904Y-157297380D02*
X118006904Y-156297380D01*
X118245000Y-156297380D01*
X118387857Y-156345000D01*
X118483095Y-156440238D01*
X118530714Y-156535476D01*
X118578333Y-156725952D01*
X118578333Y-156868809D01*
X118530714Y-157059285D01*
X118483095Y-157154523D01*
X118387857Y-157249761D01*
X118245000Y-157297380D01*
X118006904Y-157297380D01*
X119530714Y-157297380D02*
X118959285Y-157297380D01*
X119245000Y-157297380D02*
X119245000Y-156297380D01*
X119149761Y-156440238D01*
X119054523Y-156535476D01*
X118959285Y-156583095D01*
X71540952Y-140422380D02*
X71540952Y-141136666D01*
X71493333Y-141279523D01*
X71398095Y-141374761D01*
X71255238Y-141422380D01*
X71160000Y-141422380D01*
X72017142Y-141422380D02*
X72017142Y-140422380D01*
X72398095Y-140422380D01*
X72493333Y-140470000D01*
X72540952Y-140517619D01*
X72588571Y-140612857D01*
X72588571Y-140755714D01*
X72540952Y-140850952D01*
X72493333Y-140898571D01*
X72398095Y-140946190D01*
X72017142Y-140946190D01*
X72779047Y-141517619D02*
X73540952Y-141517619D01*
X73683809Y-140422380D02*
X74302857Y-140422380D01*
X73969523Y-140803333D01*
X74112380Y-140803333D01*
X74207619Y-140850952D01*
X74255238Y-140898571D01*
X74302857Y-140993809D01*
X74302857Y-141231904D01*
X74255238Y-141327142D01*
X74207619Y-141374761D01*
X74112380Y-141422380D01*
X73826666Y-141422380D01*
X73731428Y-141374761D01*
X73683809Y-141327142D01*
X74588571Y-140422380D02*
X74921904Y-141422380D01*
X75255238Y-140422380D01*
X75493333Y-140422380D02*
X76112380Y-140422380D01*
X75779047Y-140803333D01*
X75921904Y-140803333D01*
X76017142Y-140850952D01*
X76064761Y-140898571D01*
X76112380Y-140993809D01*
X76112380Y-141231904D01*
X76064761Y-141327142D01*
X76017142Y-141374761D01*
X75921904Y-141422380D01*
X75636190Y-141422380D01*
X75540952Y-141374761D01*
X75493333Y-141327142D01*
X62952380Y-107076666D02*
X63666666Y-107076666D01*
X63809523Y-107124285D01*
X63904761Y-107219523D01*
X63952380Y-107362380D01*
X63952380Y-107457619D01*
X63952380Y-106600476D02*
X62952380Y-106600476D01*
X62952380Y-106219523D01*
X63000000Y-106124285D01*
X63047619Y-106076666D01*
X63142857Y-106029047D01*
X63285714Y-106029047D01*
X63380952Y-106076666D01*
X63428571Y-106124285D01*
X63476190Y-106219523D01*
X63476190Y-106600476D01*
X64047619Y-105838571D02*
X64047619Y-105076666D01*
X62952380Y-104981428D02*
X63952380Y-104648095D01*
X62952380Y-104314761D01*
X63428571Y-103648095D02*
X63476190Y-103505238D01*
X63523809Y-103457619D01*
X63619047Y-103410000D01*
X63761904Y-103410000D01*
X63857142Y-103457619D01*
X63904761Y-103505238D01*
X63952380Y-103600476D01*
X63952380Y-103981428D01*
X62952380Y-103981428D01*
X62952380Y-103648095D01*
X63000000Y-103552857D01*
X63047619Y-103505238D01*
X63142857Y-103457619D01*
X63238095Y-103457619D01*
X63333333Y-103505238D01*
X63380952Y-103552857D01*
X63428571Y-103648095D01*
X63428571Y-103981428D01*
X114387380Y-115061904D02*
X115196904Y-115061904D01*
X115292142Y-115014285D01*
X115339761Y-114966666D01*
X115387380Y-114871428D01*
X115387380Y-114680952D01*
X115339761Y-114585714D01*
X115292142Y-114538095D01*
X115196904Y-114490476D01*
X114387380Y-114490476D01*
X114387380Y-113585714D02*
X114387380Y-113776190D01*
X114435000Y-113871428D01*
X114482619Y-113919047D01*
X114625476Y-114014285D01*
X114815952Y-114061904D01*
X115196904Y-114061904D01*
X115292142Y-114014285D01*
X115339761Y-113966666D01*
X115387380Y-113871428D01*
X115387380Y-113680952D01*
X115339761Y-113585714D01*
X115292142Y-113538095D01*
X115196904Y-113490476D01*
X114958809Y-113490476D01*
X114863571Y-113538095D01*
X114815952Y-113585714D01*
X114768333Y-113680952D01*
X114768333Y-113871428D01*
X114815952Y-113966666D01*
X114863571Y-114014285D01*
X114958809Y-114061904D01*
X70358095Y-107402380D02*
X70358095Y-108211904D01*
X70405714Y-108307142D01*
X70453333Y-108354761D01*
X70548571Y-108402380D01*
X70739047Y-108402380D01*
X70834285Y-108354761D01*
X70881904Y-108307142D01*
X70929523Y-108211904D01*
X70929523Y-107402380D01*
X71834285Y-107735714D02*
X71834285Y-108402380D01*
X71596190Y-107354761D02*
X71358095Y-108069047D01*
X71977142Y-108069047D01*
X43688095Y-103592380D02*
X43688095Y-104401904D01*
X43735714Y-104497142D01*
X43783333Y-104544761D01*
X43878571Y-104592380D01*
X44069047Y-104592380D01*
X44164285Y-104544761D01*
X44211904Y-104497142D01*
X44259523Y-104401904D01*
X44259523Y-103592380D01*
X44688095Y-103687619D02*
X44735714Y-103640000D01*
X44830952Y-103592380D01*
X45069047Y-103592380D01*
X45164285Y-103640000D01*
X45211904Y-103687619D01*
X45259523Y-103782857D01*
X45259523Y-103878095D01*
X45211904Y-104020952D01*
X44640476Y-104592380D01*
X45259523Y-104592380D01*
X117467142Y-154757380D02*
X117133809Y-154281190D01*
X116895714Y-154757380D02*
X116895714Y-153757380D01*
X117276666Y-153757380D01*
X117371904Y-153805000D01*
X117419523Y-153852619D01*
X117467142Y-153947857D01*
X117467142Y-154090714D01*
X117419523Y-154185952D01*
X117371904Y-154233571D01*
X117276666Y-154281190D01*
X116895714Y-154281190D01*
X118419523Y-154757380D02*
X117848095Y-154757380D01*
X118133809Y-154757380D02*
X118133809Y-153757380D01*
X118038571Y-153900238D01*
X117943333Y-153995476D01*
X117848095Y-154043095D01*
X119038571Y-153757380D02*
X119133809Y-153757380D01*
X119229047Y-153805000D01*
X119276666Y-153852619D01*
X119324285Y-153947857D01*
X119371904Y-154138333D01*
X119371904Y-154376428D01*
X119324285Y-154566904D01*
X119276666Y-154662142D01*
X119229047Y-154709761D01*
X119133809Y-154757380D01*
X119038571Y-154757380D01*
X118943333Y-154709761D01*
X118895714Y-154662142D01*
X118848095Y-154566904D01*
X118800476Y-154376428D01*
X118800476Y-154138333D01*
X118848095Y-153947857D01*
X118895714Y-153852619D01*
X118943333Y-153805000D01*
X119038571Y-153757380D01*
X124362380Y-158916666D02*
X123886190Y-159250000D01*
X124362380Y-159488095D02*
X123362380Y-159488095D01*
X123362380Y-159107142D01*
X123410000Y-159011904D01*
X123457619Y-158964285D01*
X123552857Y-158916666D01*
X123695714Y-158916666D01*
X123790952Y-158964285D01*
X123838571Y-159011904D01*
X123886190Y-159107142D01*
X123886190Y-159488095D01*
X124362380Y-157964285D02*
X124362380Y-158535714D01*
X124362380Y-158250000D02*
X123362380Y-158250000D01*
X123505238Y-158345238D01*
X123600476Y-158440476D01*
X123648095Y-158535714D01*
X127907142Y-153836666D02*
X127954761Y-153884285D01*
X128002380Y-154027142D01*
X128002380Y-154122380D01*
X127954761Y-154265238D01*
X127859523Y-154360476D01*
X127764285Y-154408095D01*
X127573809Y-154455714D01*
X127430952Y-154455714D01*
X127240476Y-154408095D01*
X127145238Y-154360476D01*
X127050000Y-154265238D01*
X127002380Y-154122380D01*
X127002380Y-154027142D01*
X127050000Y-153884285D01*
X127097619Y-153836666D01*
X127002380Y-152931904D02*
X127002380Y-153408095D01*
X127478571Y-153455714D01*
X127430952Y-153408095D01*
X127383333Y-153312857D01*
X127383333Y-153074761D01*
X127430952Y-152979523D01*
X127478571Y-152931904D01*
X127573809Y-152884285D01*
X127811904Y-152884285D01*
X127907142Y-152931904D01*
X127954761Y-152979523D01*
X128002380Y-153074761D01*
X128002380Y-153312857D01*
X127954761Y-153408095D01*
X127907142Y-153455714D01*
X79224142Y-117387666D02*
X79271761Y-117435285D01*
X79319380Y-117578142D01*
X79319380Y-117673380D01*
X79271761Y-117816238D01*
X79176523Y-117911476D01*
X79081285Y-117959095D01*
X78890809Y-118006714D01*
X78747952Y-118006714D01*
X78557476Y-117959095D01*
X78462238Y-117911476D01*
X78367000Y-117816238D01*
X78319380Y-117673380D01*
X78319380Y-117578142D01*
X78367000Y-117435285D01*
X78414619Y-117387666D01*
X78652714Y-116530523D02*
X79319380Y-116530523D01*
X78271761Y-116768619D02*
X78986047Y-117006714D01*
X78986047Y-116387666D01*
X64831142Y-117514666D02*
X64878761Y-117562285D01*
X64926380Y-117705142D01*
X64926380Y-117800380D01*
X64878761Y-117943238D01*
X64783523Y-118038476D01*
X64688285Y-118086095D01*
X64497809Y-118133714D01*
X64354952Y-118133714D01*
X64164476Y-118086095D01*
X64069238Y-118038476D01*
X63974000Y-117943238D01*
X63926380Y-117800380D01*
X63926380Y-117705142D01*
X63974000Y-117562285D01*
X64021619Y-117514666D01*
X63926380Y-117181333D02*
X63926380Y-116562285D01*
X64307333Y-116895619D01*
X64307333Y-116752761D01*
X64354952Y-116657523D01*
X64402571Y-116609904D01*
X64497809Y-116562285D01*
X64735904Y-116562285D01*
X64831142Y-116609904D01*
X64878761Y-116657523D01*
X64926380Y-116752761D01*
X64926380Y-117038476D01*
X64878761Y-117133714D01*
X64831142Y-117181333D01*
X46291666Y-147407380D02*
X46625000Y-148407380D01*
X46958333Y-147407380D01*
X47863095Y-148312142D02*
X47815476Y-148359761D01*
X47672619Y-148407380D01*
X47577380Y-148407380D01*
X47434523Y-148359761D01*
X47339285Y-148264523D01*
X47291666Y-148169285D01*
X47244047Y-147978809D01*
X47244047Y-147835952D01*
X47291666Y-147645476D01*
X47339285Y-147550238D01*
X47434523Y-147455000D01*
X47577380Y-147407380D01*
X47672619Y-147407380D01*
X47815476Y-147455000D01*
X47863095Y-147502619D01*
X48863095Y-148312142D02*
X48815476Y-148359761D01*
X48672619Y-148407380D01*
X48577380Y-148407380D01*
X48434523Y-148359761D01*
X48339285Y-148264523D01*
X48291666Y-148169285D01*
X48244047Y-147978809D01*
X48244047Y-147835952D01*
X48291666Y-147645476D01*
X48339285Y-147550238D01*
X48434523Y-147455000D01*
X48577380Y-147407380D01*
X48672619Y-147407380D01*
X48815476Y-147455000D01*
X48863095Y-147502619D01*
X111212380Y-159083095D02*
X111926666Y-159083095D01*
X112069523Y-159130714D01*
X112164761Y-159225952D01*
X112212380Y-159368809D01*
X112212380Y-159464047D01*
X112212380Y-158606904D02*
X111212380Y-158606904D01*
X111212380Y-158225952D01*
X111260000Y-158130714D01*
X111307619Y-158083095D01*
X111402857Y-158035476D01*
X111545714Y-158035476D01*
X111640952Y-158083095D01*
X111688571Y-158130714D01*
X111736190Y-158225952D01*
X111736190Y-158606904D01*
X112307619Y-157845000D02*
X112307619Y-157083095D01*
X112212380Y-156273571D02*
X111736190Y-156606904D01*
X112212380Y-156845000D02*
X111212380Y-156845000D01*
X111212380Y-156464047D01*
X111260000Y-156368809D01*
X111307619Y-156321190D01*
X111402857Y-156273571D01*
X111545714Y-156273571D01*
X111640952Y-156321190D01*
X111688571Y-156368809D01*
X111736190Y-156464047D01*
X111736190Y-156845000D01*
X111260000Y-155321190D02*
X111212380Y-155416428D01*
X111212380Y-155559285D01*
X111260000Y-155702142D01*
X111355238Y-155797380D01*
X111450476Y-155845000D01*
X111640952Y-155892619D01*
X111783809Y-155892619D01*
X111974285Y-155845000D01*
X112069523Y-155797380D01*
X112164761Y-155702142D01*
X112212380Y-155559285D01*
X112212380Y-155464047D01*
X112164761Y-155321190D01*
X112117142Y-155273571D01*
X111783809Y-155273571D01*
X111783809Y-155464047D01*
X111688571Y-154511666D02*
X111736190Y-154368809D01*
X111783809Y-154321190D01*
X111879047Y-154273571D01*
X112021904Y-154273571D01*
X112117142Y-154321190D01*
X112164761Y-154368809D01*
X112212380Y-154464047D01*
X112212380Y-154845000D01*
X111212380Y-154845000D01*
X111212380Y-154511666D01*
X111260000Y-154416428D01*
X111307619Y-154368809D01*
X111402857Y-154321190D01*
X111498095Y-154321190D01*
X111593333Y-154368809D01*
X111640952Y-154416428D01*
X111688571Y-154511666D01*
X111688571Y-154845000D01*
X115363809Y-137882380D02*
X115363809Y-138596666D01*
X115316190Y-138739523D01*
X115220952Y-138834761D01*
X115078095Y-138882380D01*
X114982857Y-138882380D01*
X115840000Y-138882380D02*
X115840000Y-137882380D01*
X116220952Y-137882380D01*
X116316190Y-137930000D01*
X116363809Y-137977619D01*
X116411428Y-138072857D01*
X116411428Y-138215714D01*
X116363809Y-138310952D01*
X116316190Y-138358571D01*
X116220952Y-138406190D01*
X115840000Y-138406190D01*
X116601904Y-138977619D02*
X117363809Y-138977619D01*
X117601904Y-138882380D02*
X117601904Y-137882380D01*
X118078095Y-138882380D02*
X118078095Y-137882380D01*
X118316190Y-137882380D01*
X118459047Y-137930000D01*
X118554285Y-138025238D01*
X118601904Y-138120476D01*
X118649523Y-138310952D01*
X118649523Y-138453809D01*
X118601904Y-138644285D01*
X118554285Y-138739523D01*
X118459047Y-138834761D01*
X118316190Y-138882380D01*
X118078095Y-138882380D01*
X90622380Y-169528809D02*
X90622380Y-170005000D01*
X89622380Y-170005000D01*
X90098571Y-169195476D02*
X90098571Y-168862142D01*
X90622380Y-168719285D02*
X90622380Y-169195476D01*
X89622380Y-169195476D01*
X89622380Y-168719285D01*
X90622380Y-168290714D02*
X89622380Y-168290714D01*
X89622380Y-168052619D01*
X89670000Y-167909761D01*
X89765238Y-167814523D01*
X89860476Y-167766904D01*
X90050952Y-167719285D01*
X90193809Y-167719285D01*
X90384285Y-167766904D01*
X90479523Y-167814523D01*
X90574761Y-167909761D01*
X90622380Y-168052619D01*
X90622380Y-168290714D01*
X90717619Y-167528809D02*
X90717619Y-166766904D01*
X90622380Y-165957380D02*
X90146190Y-166290714D01*
X90622380Y-166528809D02*
X89622380Y-166528809D01*
X89622380Y-166147857D01*
X89670000Y-166052619D01*
X89717619Y-166005000D01*
X89812857Y-165957380D01*
X89955714Y-165957380D01*
X90050952Y-166005000D01*
X90098571Y-166052619D01*
X90146190Y-166147857D01*
X90146190Y-166528809D01*
X89670000Y-165005000D02*
X89622380Y-165100238D01*
X89622380Y-165243095D01*
X89670000Y-165385952D01*
X89765238Y-165481190D01*
X89860476Y-165528809D01*
X90050952Y-165576428D01*
X90193809Y-165576428D01*
X90384285Y-165528809D01*
X90479523Y-165481190D01*
X90574761Y-165385952D01*
X90622380Y-165243095D01*
X90622380Y-165147857D01*
X90574761Y-165005000D01*
X90527142Y-164957380D01*
X90193809Y-164957380D01*
X90193809Y-165147857D01*
X90098571Y-164195476D02*
X90146190Y-164052619D01*
X90193809Y-164005000D01*
X90289047Y-163957380D01*
X90431904Y-163957380D01*
X90527142Y-164005000D01*
X90574761Y-164052619D01*
X90622380Y-164147857D01*
X90622380Y-164528809D01*
X89622380Y-164528809D01*
X89622380Y-164195476D01*
X89670000Y-164100238D01*
X89717619Y-164052619D01*
X89812857Y-164005000D01*
X89908095Y-164005000D01*
X90003333Y-164052619D01*
X90050952Y-164100238D01*
X90098571Y-164195476D01*
X90098571Y-164528809D01*
X124912380Y-169790714D02*
X124912380Y-170266904D01*
X123912380Y-170266904D01*
X124388571Y-169457380D02*
X124388571Y-169124047D01*
X124912380Y-168981190D02*
X124912380Y-169457380D01*
X123912380Y-169457380D01*
X123912380Y-168981190D01*
X124912380Y-168552619D02*
X123912380Y-168552619D01*
X123912380Y-168314523D01*
X123960000Y-168171666D01*
X124055238Y-168076428D01*
X124150476Y-168028809D01*
X124340952Y-167981190D01*
X124483809Y-167981190D01*
X124674285Y-168028809D01*
X124769523Y-168076428D01*
X124864761Y-168171666D01*
X124912380Y-168314523D01*
X124912380Y-168552619D01*
X125007619Y-167790714D02*
X125007619Y-167028809D01*
X124912380Y-166790714D02*
X123912380Y-166790714D01*
X123912380Y-166409761D01*
X123960000Y-166314523D01*
X124007619Y-166266904D01*
X124102857Y-166219285D01*
X124245714Y-166219285D01*
X124340952Y-166266904D01*
X124388571Y-166314523D01*
X124436190Y-166409761D01*
X124436190Y-166790714D01*
X124912380Y-165790714D02*
X123912380Y-165790714D01*
X124912380Y-165314523D02*
X123912380Y-165314523D01*
X124912380Y-164743095D01*
X123912380Y-164743095D01*
X123960000Y-163743095D02*
X123912380Y-163838333D01*
X123912380Y-163981190D01*
X123960000Y-164124047D01*
X124055238Y-164219285D01*
X124150476Y-164266904D01*
X124340952Y-164314523D01*
X124483809Y-164314523D01*
X124674285Y-164266904D01*
X124769523Y-164219285D01*
X124864761Y-164124047D01*
X124912380Y-163981190D01*
X124912380Y-163885952D01*
X124864761Y-163743095D01*
X124817142Y-163695476D01*
X124483809Y-163695476D01*
X124483809Y-163885952D01*
X84494761Y-154757380D02*
X84161428Y-154281190D01*
X83923333Y-154757380D02*
X83923333Y-153757380D01*
X84304285Y-153757380D01*
X84399523Y-153805000D01*
X84447142Y-153852619D01*
X84494761Y-153947857D01*
X84494761Y-154090714D01*
X84447142Y-154185952D01*
X84399523Y-154233571D01*
X84304285Y-154281190D01*
X83923333Y-154281190D01*
X84780476Y-153757380D02*
X85113809Y-154757380D01*
X85447142Y-153757380D01*
X86304285Y-154757380D02*
X85732857Y-154757380D01*
X86018571Y-154757380D02*
X86018571Y-153757380D01*
X85923333Y-153900238D01*
X85828095Y-153995476D01*
X85732857Y-154043095D01*
X88987380Y-158170238D02*
X88987380Y-157598809D01*
X89987380Y-157884523D02*
X88987380Y-157884523D01*
X89987380Y-157265476D02*
X88987380Y-157265476D01*
X88987380Y-156884523D01*
X89035000Y-156789285D01*
X89082619Y-156741666D01*
X89177857Y-156694047D01*
X89320714Y-156694047D01*
X89415952Y-156741666D01*
X89463571Y-156789285D01*
X89511190Y-156884523D01*
X89511190Y-157265476D01*
X90082619Y-156503571D02*
X90082619Y-155741666D01*
X89701666Y-155551190D02*
X89701666Y-155075000D01*
X89987380Y-155646428D02*
X88987380Y-155313095D01*
X89987380Y-154979761D01*
X89987380Y-154646428D02*
X88987380Y-154646428D01*
X88987380Y-154408333D01*
X89035000Y-154265476D01*
X89130238Y-154170238D01*
X89225476Y-154122619D01*
X89415952Y-154075000D01*
X89558809Y-154075000D01*
X89749285Y-154122619D01*
X89844523Y-154170238D01*
X89939761Y-154265476D01*
X89987380Y-154408333D01*
X89987380Y-154646428D01*
X89892142Y-153075000D02*
X89939761Y-153122619D01*
X89987380Y-153265476D01*
X89987380Y-153360714D01*
X89939761Y-153503571D01*
X89844523Y-153598809D01*
X89749285Y-153646428D01*
X89558809Y-153694047D01*
X89415952Y-153694047D01*
X89225476Y-153646428D01*
X89130238Y-153598809D01*
X89035000Y-153503571D01*
X88987380Y-153360714D01*
X88987380Y-153265476D01*
X89035000Y-153122619D01*
X89082619Y-153075000D01*
X120991380Y-116585904D02*
X121800904Y-116585904D01*
X121896142Y-116538285D01*
X121943761Y-116490666D01*
X121991380Y-116395428D01*
X121991380Y-116204952D01*
X121943761Y-116109714D01*
X121896142Y-116062095D01*
X121800904Y-116014476D01*
X120991380Y-116014476D01*
X121419952Y-115395428D02*
X121372333Y-115490666D01*
X121324714Y-115538285D01*
X121229476Y-115585904D01*
X121181857Y-115585904D01*
X121086619Y-115538285D01*
X121039000Y-115490666D01*
X120991380Y-115395428D01*
X120991380Y-115204952D01*
X121039000Y-115109714D01*
X121086619Y-115062095D01*
X121181857Y-115014476D01*
X121229476Y-115014476D01*
X121324714Y-115062095D01*
X121372333Y-115109714D01*
X121419952Y-115204952D01*
X121419952Y-115395428D01*
X121467571Y-115490666D01*
X121515190Y-115538285D01*
X121610428Y-115585904D01*
X121800904Y-115585904D01*
X121896142Y-115538285D01*
X121943761Y-115490666D01*
X121991380Y-115395428D01*
X121991380Y-115204952D01*
X121943761Y-115109714D01*
X121896142Y-115062095D01*
X121800904Y-115014476D01*
X121610428Y-115014476D01*
X121515190Y-115062095D01*
X121467571Y-115109714D01*
X121419952Y-115204952D01*
X75017380Y-122681904D02*
X75826904Y-122681904D01*
X75922142Y-122634285D01*
X75969761Y-122586666D01*
X76017380Y-122491428D01*
X76017380Y-122300952D01*
X75969761Y-122205714D01*
X75922142Y-122158095D01*
X75826904Y-122110476D01*
X75017380Y-122110476D01*
X75017380Y-121729523D02*
X75017380Y-121110476D01*
X75398333Y-121443809D01*
X75398333Y-121300952D01*
X75445952Y-121205714D01*
X75493571Y-121158095D01*
X75588809Y-121110476D01*
X75826904Y-121110476D01*
X75922142Y-121158095D01*
X75969761Y-121205714D01*
X76017380Y-121300952D01*
X76017380Y-121586666D01*
X75969761Y-121681904D01*
X75922142Y-121729523D01*
X128291142Y-110370666D02*
X128338761Y-110418285D01*
X128386380Y-110561142D01*
X128386380Y-110656380D01*
X128338761Y-110799238D01*
X128243523Y-110894476D01*
X128148285Y-110942095D01*
X127957809Y-110989714D01*
X127814952Y-110989714D01*
X127624476Y-110942095D01*
X127529238Y-110894476D01*
X127434000Y-110799238D01*
X127386380Y-110656380D01*
X127386380Y-110561142D01*
X127434000Y-110418285D01*
X127481619Y-110370666D01*
X127814952Y-109799238D02*
X127767333Y-109894476D01*
X127719714Y-109942095D01*
X127624476Y-109989714D01*
X127576857Y-109989714D01*
X127481619Y-109942095D01*
X127434000Y-109894476D01*
X127386380Y-109799238D01*
X127386380Y-109608761D01*
X127434000Y-109513523D01*
X127481619Y-109465904D01*
X127576857Y-109418285D01*
X127624476Y-109418285D01*
X127719714Y-109465904D01*
X127767333Y-109513523D01*
X127814952Y-109608761D01*
X127814952Y-109799238D01*
X127862571Y-109894476D01*
X127910190Y-109942095D01*
X128005428Y-109989714D01*
X128195904Y-109989714D01*
X128291142Y-109942095D01*
X128338761Y-109894476D01*
X128386380Y-109799238D01*
X128386380Y-109608761D01*
X128338761Y-109513523D01*
X128291142Y-109465904D01*
X128195904Y-109418285D01*
X128005428Y-109418285D01*
X127910190Y-109465904D01*
X127862571Y-109513523D01*
X127814952Y-109608761D01*
X77843333Y-168997380D02*
X77843333Y-169711666D01*
X77795714Y-169854523D01*
X77700476Y-169949761D01*
X77557619Y-169997380D01*
X77462380Y-169997380D01*
X78319523Y-169997380D02*
X78319523Y-168997380D01*
X78700476Y-168997380D01*
X78795714Y-169045000D01*
X78843333Y-169092619D01*
X78890952Y-169187857D01*
X78890952Y-169330714D01*
X78843333Y-169425952D01*
X78795714Y-169473571D01*
X78700476Y-169521190D01*
X78319523Y-169521190D01*
X79081428Y-170092619D02*
X79843333Y-170092619D01*
X80033809Y-169711666D02*
X80510000Y-169711666D01*
X79938571Y-169997380D02*
X80271904Y-168997380D01*
X80605238Y-169997380D01*
X80938571Y-169997380D02*
X80938571Y-168997380D01*
X81176666Y-168997380D01*
X81319523Y-169045000D01*
X81414761Y-169140238D01*
X81462380Y-169235476D01*
X81510000Y-169425952D01*
X81510000Y-169568809D01*
X81462380Y-169759285D01*
X81414761Y-169854523D01*
X81319523Y-169949761D01*
X81176666Y-169997380D01*
X80938571Y-169997380D01*
X82510000Y-169902142D02*
X82462380Y-169949761D01*
X82319523Y-169997380D01*
X82224285Y-169997380D01*
X82081428Y-169949761D01*
X81986190Y-169854523D01*
X81938571Y-169759285D01*
X81890952Y-169568809D01*
X81890952Y-169425952D01*
X81938571Y-169235476D01*
X81986190Y-169140238D01*
X82081428Y-169045000D01*
X82224285Y-168997380D01*
X82319523Y-168997380D01*
X82462380Y-169045000D01*
X82510000Y-169092619D01*
X85573333Y-169207380D02*
X85240000Y-168731190D01*
X85001904Y-169207380D02*
X85001904Y-168207380D01*
X85382857Y-168207380D01*
X85478095Y-168255000D01*
X85525714Y-168302619D01*
X85573333Y-168397857D01*
X85573333Y-168540714D01*
X85525714Y-168635952D01*
X85478095Y-168683571D01*
X85382857Y-168731190D01*
X85001904Y-168731190D01*
X86430476Y-168207380D02*
X86240000Y-168207380D01*
X86144761Y-168255000D01*
X86097142Y-168302619D01*
X86001904Y-168445476D01*
X85954285Y-168635952D01*
X85954285Y-169016904D01*
X86001904Y-169112142D01*
X86049523Y-169159761D01*
X86144761Y-169207380D01*
X86335238Y-169207380D01*
X86430476Y-169159761D01*
X86478095Y-169112142D01*
X86525714Y-169016904D01*
X86525714Y-168778809D01*
X86478095Y-168683571D01*
X86430476Y-168635952D01*
X86335238Y-168588333D01*
X86144761Y-168588333D01*
X86049523Y-168635952D01*
X86001904Y-168683571D01*
X85954285Y-168778809D01*
X116022380Y-153042857D02*
X115546190Y-153376190D01*
X116022380Y-153614285D02*
X115022380Y-153614285D01*
X115022380Y-153233333D01*
X115070000Y-153138095D01*
X115117619Y-153090476D01*
X115212857Y-153042857D01*
X115355714Y-153042857D01*
X115450952Y-153090476D01*
X115498571Y-153138095D01*
X115546190Y-153233333D01*
X115546190Y-153614285D01*
X116022380Y-152090476D02*
X116022380Y-152661904D01*
X116022380Y-152376190D02*
X115022380Y-152376190D01*
X115165238Y-152471428D01*
X115260476Y-152566666D01*
X115308095Y-152661904D01*
X115355714Y-151233333D02*
X116022380Y-151233333D01*
X114974761Y-151471428D02*
X115689047Y-151709523D01*
X115689047Y-151090476D01*
X102687380Y-156217857D02*
X102211190Y-156551190D01*
X102687380Y-156789285D02*
X101687380Y-156789285D01*
X101687380Y-156408333D01*
X101735000Y-156313095D01*
X101782619Y-156265476D01*
X101877857Y-156217857D01*
X102020714Y-156217857D01*
X102115952Y-156265476D01*
X102163571Y-156313095D01*
X102211190Y-156408333D01*
X102211190Y-156789285D01*
X102687380Y-155265476D02*
X102687380Y-155836904D01*
X102687380Y-155551190D02*
X101687380Y-155551190D01*
X101830238Y-155646428D01*
X101925476Y-155741666D01*
X101973095Y-155836904D01*
X101687380Y-154360714D02*
X101687380Y-154836904D01*
X102163571Y-154884523D01*
X102115952Y-154836904D01*
X102068333Y-154741666D01*
X102068333Y-154503571D01*
X102115952Y-154408333D01*
X102163571Y-154360714D01*
X102258809Y-154313095D01*
X102496904Y-154313095D01*
X102592142Y-154360714D01*
X102639761Y-154408333D01*
X102687380Y-154503571D01*
X102687380Y-154741666D01*
X102639761Y-154836904D01*
X102592142Y-154884523D01*
X97607380Y-156217857D02*
X97131190Y-156551190D01*
X97607380Y-156789285D02*
X96607380Y-156789285D01*
X96607380Y-156408333D01*
X96655000Y-156313095D01*
X96702619Y-156265476D01*
X96797857Y-156217857D01*
X96940714Y-156217857D01*
X97035952Y-156265476D01*
X97083571Y-156313095D01*
X97131190Y-156408333D01*
X97131190Y-156789285D01*
X97607380Y-155265476D02*
X97607380Y-155836904D01*
X97607380Y-155551190D02*
X96607380Y-155551190D01*
X96750238Y-155646428D01*
X96845476Y-155741666D01*
X96893095Y-155836904D01*
X96607380Y-154408333D02*
X96607380Y-154598809D01*
X96655000Y-154694047D01*
X96702619Y-154741666D01*
X96845476Y-154836904D01*
X97035952Y-154884523D01*
X97416904Y-154884523D01*
X97512142Y-154836904D01*
X97559761Y-154789285D01*
X97607380Y-154694047D01*
X97607380Y-154503571D01*
X97559761Y-154408333D01*
X97512142Y-154360714D01*
X97416904Y-154313095D01*
X97178809Y-154313095D01*
X97083571Y-154360714D01*
X97035952Y-154408333D01*
X96988333Y-154503571D01*
X96988333Y-154694047D01*
X97035952Y-154789285D01*
X97083571Y-154836904D01*
X97178809Y-154884523D01*
X92527380Y-156217857D02*
X92051190Y-156551190D01*
X92527380Y-156789285D02*
X91527380Y-156789285D01*
X91527380Y-156408333D01*
X91575000Y-156313095D01*
X91622619Y-156265476D01*
X91717857Y-156217857D01*
X91860714Y-156217857D01*
X91955952Y-156265476D01*
X92003571Y-156313095D01*
X92051190Y-156408333D01*
X92051190Y-156789285D01*
X92527380Y-155265476D02*
X92527380Y-155836904D01*
X92527380Y-155551190D02*
X91527380Y-155551190D01*
X91670238Y-155646428D01*
X91765476Y-155741666D01*
X91813095Y-155836904D01*
X91527380Y-154932142D02*
X91527380Y-154265476D01*
X92527380Y-154694047D01*
X122428095Y-150767380D02*
X122428095Y-151576904D01*
X122475714Y-151672142D01*
X122523333Y-151719761D01*
X122618571Y-151767380D01*
X122809047Y-151767380D01*
X122904285Y-151719761D01*
X122951904Y-151672142D01*
X122999523Y-151576904D01*
X122999523Y-150767380D01*
X123951904Y-150767380D02*
X123475714Y-150767380D01*
X123428095Y-151243571D01*
X123475714Y-151195952D01*
X123570952Y-151148333D01*
X123809047Y-151148333D01*
X123904285Y-151195952D01*
X123951904Y-151243571D01*
X123999523Y-151338809D01*
X123999523Y-151576904D01*
X123951904Y-151672142D01*
X123904285Y-151719761D01*
X123809047Y-151767380D01*
X123570952Y-151767380D01*
X123475714Y-151719761D01*
X123428095Y-151672142D01*
X117317380Y-132356904D02*
X118126904Y-132356904D01*
X118222142Y-132309285D01*
X118269761Y-132261666D01*
X118317380Y-132166428D01*
X118317380Y-131975952D01*
X118269761Y-131880714D01*
X118222142Y-131833095D01*
X118126904Y-131785476D01*
X117317380Y-131785476D01*
X117317380Y-131404523D02*
X117317380Y-130737857D01*
X118317380Y-131166428D01*
M02*
