G04 #@! TF.GenerationSoftware,KiCad,Pcbnew,5.1.5-52549c5~84~ubuntu18.04.1*
G04 #@! TF.CreationDate,2020-03-18T13:31:03+01:00*
G04 #@! TF.ProjectId,pcb_loadcell-dev,7063625f-6c6f-4616-9463-656c6c2d6465,rev?*
G04 #@! TF.SameCoordinates,Original*
G04 #@! TF.FileFunction,Legend,Bot*
G04 #@! TF.FilePolarity,Positive*
%FSLAX46Y46*%
G04 Gerber Fmt 4.6, Leading zero omitted, Abs format (unit mm)*
G04 Created by KiCad (PCBNEW 5.1.5-52549c5~84~ubuntu18.04.1) date 2020-03-18 13:31:03*
%MOMM*%
%LPD*%
G04 APERTURE LIST*
%ADD10C,0.120000*%
%ADD11C,0.150000*%
G04 APERTURE END LIST*
D10*
X57486250Y-136123750D02*
X56698750Y-136123750D01*
X57092500Y-136517500D02*
X57092500Y-135730000D01*
X52899437Y-135490000D02*
X51835000Y-134425563D01*
X57590563Y-135490000D02*
X58655000Y-134425563D01*
X57590563Y-135490000D02*
X56305000Y-135490000D01*
X52899437Y-135490000D02*
X54185000Y-135490000D01*
X51835000Y-134425563D02*
X51835000Y-128670000D01*
X58655000Y-134425563D02*
X58655000Y-128670000D01*
X58655000Y-128670000D02*
X56305000Y-128670000D01*
X51835000Y-128670000D02*
X54185000Y-128670000D01*
X59087936Y-138155000D02*
X60292064Y-138155000D01*
X59087936Y-139975000D02*
X60292064Y-139975000D01*
X117442064Y-148950000D02*
X116237936Y-148950000D01*
X117442064Y-150770000D02*
X116237936Y-150770000D01*
X129507064Y-132355000D02*
X128302936Y-132355000D01*
X129507064Y-130535000D02*
X128302936Y-130535000D01*
X81640000Y-161892064D02*
X81640000Y-160687936D01*
X83460000Y-161892064D02*
X83460000Y-160687936D01*
X111309564Y-147680000D02*
X110105436Y-147680000D01*
X111309564Y-149500000D02*
X110105436Y-149500000D01*
X109404564Y-124100000D02*
X108200436Y-124100000D01*
X109404564Y-122280000D02*
X108200436Y-122280000D01*
X108200436Y-121560000D02*
X109404564Y-121560000D01*
X108200436Y-119740000D02*
X109404564Y-119740000D01*
X115602936Y-112120000D02*
X116807064Y-112120000D01*
X115602936Y-113940000D02*
X116807064Y-113940000D01*
D11*
X59952142Y-131913333D02*
X59999761Y-131865714D01*
X60047380Y-131722857D01*
X60047380Y-131627619D01*
X59999761Y-131484761D01*
X59904523Y-131389523D01*
X59809285Y-131341904D01*
X59618809Y-131294285D01*
X59475952Y-131294285D01*
X59285476Y-131341904D01*
X59190238Y-131389523D01*
X59095000Y-131484761D01*
X59047380Y-131627619D01*
X59047380Y-131722857D01*
X59095000Y-131865714D01*
X59142619Y-131913333D01*
X60047380Y-132865714D02*
X60047380Y-132294285D01*
X60047380Y-132580000D02*
X59047380Y-132580000D01*
X59190238Y-132484761D01*
X59285476Y-132389523D01*
X59333095Y-132294285D01*
X59856666Y-138152142D02*
X59904285Y-138199761D01*
X60047142Y-138247380D01*
X60142380Y-138247380D01*
X60285238Y-138199761D01*
X60380476Y-138104523D01*
X60428095Y-138009285D01*
X60475714Y-137818809D01*
X60475714Y-137675952D01*
X60428095Y-137485476D01*
X60380476Y-137390238D01*
X60285238Y-137295000D01*
X60142380Y-137247380D01*
X60047142Y-137247380D01*
X59904285Y-137295000D01*
X59856666Y-137342619D01*
X59475714Y-137342619D02*
X59428095Y-137295000D01*
X59332857Y-137247380D01*
X59094761Y-137247380D01*
X58999523Y-137295000D01*
X58951904Y-137342619D01*
X58904285Y-137437857D01*
X58904285Y-137533095D01*
X58951904Y-137675952D01*
X59523333Y-138247380D01*
X58904285Y-138247380D01*
X117006666Y-152122142D02*
X117054285Y-152169761D01*
X117197142Y-152217380D01*
X117292380Y-152217380D01*
X117435238Y-152169761D01*
X117530476Y-152074523D01*
X117578095Y-151979285D01*
X117625714Y-151788809D01*
X117625714Y-151645952D01*
X117578095Y-151455476D01*
X117530476Y-151360238D01*
X117435238Y-151265000D01*
X117292380Y-151217380D01*
X117197142Y-151217380D01*
X117054285Y-151265000D01*
X117006666Y-151312619D01*
X116673333Y-151217380D02*
X116006666Y-151217380D01*
X116435238Y-152217380D01*
X125071666Y-131802142D02*
X125119285Y-131849761D01*
X125262142Y-131897380D01*
X125357380Y-131897380D01*
X125500238Y-131849761D01*
X125595476Y-131754523D01*
X125643095Y-131659285D01*
X125690714Y-131468809D01*
X125690714Y-131325952D01*
X125643095Y-131135476D01*
X125595476Y-131040238D01*
X125500238Y-130945000D01*
X125357380Y-130897380D01*
X125262142Y-130897380D01*
X125119285Y-130945000D01*
X125071666Y-130992619D01*
X124595476Y-131897380D02*
X124405000Y-131897380D01*
X124309761Y-131849761D01*
X124262142Y-131802142D01*
X124166904Y-131659285D01*
X124119285Y-131468809D01*
X124119285Y-131087857D01*
X124166904Y-130992619D01*
X124214523Y-130945000D01*
X124309761Y-130897380D01*
X124500238Y-130897380D01*
X124595476Y-130945000D01*
X124643095Y-130992619D01*
X124690714Y-131087857D01*
X124690714Y-131325952D01*
X124643095Y-131421190D01*
X124595476Y-131468809D01*
X124500238Y-131516428D01*
X124309761Y-131516428D01*
X124214523Y-131468809D01*
X124166904Y-131421190D01*
X124119285Y-131325952D01*
X82907142Y-156647142D02*
X82954761Y-156599523D01*
X83002380Y-156456666D01*
X83002380Y-156361428D01*
X82954761Y-156218571D01*
X82859523Y-156123333D01*
X82764285Y-156075714D01*
X82573809Y-156028095D01*
X82430952Y-156028095D01*
X82240476Y-156075714D01*
X82145238Y-156123333D01*
X82050000Y-156218571D01*
X82002380Y-156361428D01*
X82002380Y-156456666D01*
X82050000Y-156599523D01*
X82097619Y-156647142D01*
X83002380Y-157599523D02*
X83002380Y-157028095D01*
X83002380Y-157313809D02*
X82002380Y-157313809D01*
X82145238Y-157218571D01*
X82240476Y-157123333D01*
X82288095Y-157028095D01*
X82002380Y-158218571D02*
X82002380Y-158313809D01*
X82050000Y-158409047D01*
X82097619Y-158456666D01*
X82192857Y-158504285D01*
X82383333Y-158551904D01*
X82621428Y-158551904D01*
X82811904Y-158504285D01*
X82907142Y-158456666D01*
X82954761Y-158409047D01*
X83002380Y-158313809D01*
X83002380Y-158218571D01*
X82954761Y-158123333D01*
X82907142Y-158075714D01*
X82811904Y-158028095D01*
X82621428Y-157980476D01*
X82383333Y-157980476D01*
X82192857Y-158028095D01*
X82097619Y-158075714D01*
X82050000Y-158123333D01*
X82002380Y-158218571D01*
X107374166Y-149042380D02*
X107707500Y-148566190D01*
X107945595Y-149042380D02*
X107945595Y-148042380D01*
X107564642Y-148042380D01*
X107469404Y-148090000D01*
X107421785Y-148137619D01*
X107374166Y-148232857D01*
X107374166Y-148375714D01*
X107421785Y-148470952D01*
X107469404Y-148518571D01*
X107564642Y-148566190D01*
X107945595Y-148566190D01*
X106993214Y-148137619D02*
X106945595Y-148090000D01*
X106850357Y-148042380D01*
X106612261Y-148042380D01*
X106517023Y-148090000D01*
X106469404Y-148137619D01*
X106421785Y-148232857D01*
X106421785Y-148328095D01*
X106469404Y-148470952D01*
X107040833Y-149042380D01*
X106421785Y-149042380D01*
X105469166Y-123642380D02*
X105802500Y-123166190D01*
X106040595Y-123642380D02*
X106040595Y-122642380D01*
X105659642Y-122642380D01*
X105564404Y-122690000D01*
X105516785Y-122737619D01*
X105469166Y-122832857D01*
X105469166Y-122975714D01*
X105516785Y-123070952D01*
X105564404Y-123118571D01*
X105659642Y-123166190D01*
X106040595Y-123166190D01*
X105135833Y-122642380D02*
X104516785Y-122642380D01*
X104850119Y-123023333D01*
X104707261Y-123023333D01*
X104612023Y-123070952D01*
X104564404Y-123118571D01*
X104516785Y-123213809D01*
X104516785Y-123451904D01*
X104564404Y-123547142D01*
X104612023Y-123594761D01*
X104707261Y-123642380D01*
X104992976Y-123642380D01*
X105088214Y-123594761D01*
X105135833Y-123547142D01*
X105469166Y-121102380D02*
X105802500Y-120626190D01*
X106040595Y-121102380D02*
X106040595Y-120102380D01*
X105659642Y-120102380D01*
X105564404Y-120150000D01*
X105516785Y-120197619D01*
X105469166Y-120292857D01*
X105469166Y-120435714D01*
X105516785Y-120530952D01*
X105564404Y-120578571D01*
X105659642Y-120626190D01*
X106040595Y-120626190D01*
X104612023Y-120435714D02*
X104612023Y-121102380D01*
X104850119Y-120054761D02*
X105088214Y-120769047D01*
X104469166Y-120769047D01*
X116371666Y-111577380D02*
X116705000Y-111101190D01*
X116943095Y-111577380D02*
X116943095Y-110577380D01*
X116562142Y-110577380D01*
X116466904Y-110625000D01*
X116419285Y-110672619D01*
X116371666Y-110767857D01*
X116371666Y-110910714D01*
X116419285Y-111005952D01*
X116466904Y-111053571D01*
X116562142Y-111101190D01*
X116943095Y-111101190D01*
X115466904Y-110577380D02*
X115943095Y-110577380D01*
X115990714Y-111053571D01*
X115943095Y-111005952D01*
X115847857Y-110958333D01*
X115609761Y-110958333D01*
X115514523Y-111005952D01*
X115466904Y-111053571D01*
X115419285Y-111148809D01*
X115419285Y-111386904D01*
X115466904Y-111482142D01*
X115514523Y-111529761D01*
X115609761Y-111577380D01*
X115847857Y-111577380D01*
X115943095Y-111529761D01*
X115990714Y-111482142D01*
M02*
