%TF.GenerationSoftware,KiCad,Pcbnew,5.1.8*%
%TF.CreationDate,2020-12-20T23:42:19+01:00*%
%TF.ProjectId,pcb_module_hx711,7063625f-6d6f-4647-956c-655f68783731,rev?*%
%TF.SameCoordinates,Original*%
%TF.FileFunction,Copper,L1,Top*%
%TF.FilePolarity,Positive*%
%FSLAX46Y46*%
G04 Gerber Fmt 4.6, Leading zero omitted, Abs format (unit mm)*
G04 Created by KiCad (PCBNEW 5.1.8) date 2020-12-20 23:42:19*
%MOMM*%
%LPD*%
G01*
G04 APERTURE LIST*
%TA.AperFunction,NonConductor*%
%ADD10C,0.200000*%
%TD*%
%TA.AperFunction,ComponentPad*%
%ADD11R,1.700000X1.700000*%
%TD*%
%TA.AperFunction,SMDPad,CuDef*%
%ADD12R,2.500000X1.900000*%
%TD*%
%TA.AperFunction,ComponentPad*%
%ADD13C,0.500000*%
%TD*%
%TA.AperFunction,ComponentPad*%
%ADD14O,1.500000X2.000000*%
%TD*%
%TA.AperFunction,SMDPad,CuDef*%
%ADD15C,0.100000*%
%TD*%
%TA.AperFunction,ComponentPad*%
%ADD16C,1.000000*%
%TD*%
%TA.AperFunction,ComponentPad*%
%ADD17O,1.700000X1.700000*%
%TD*%
%TA.AperFunction,ComponentPad*%
%ADD18C,0.900000*%
%TD*%
%TA.AperFunction,ComponentPad*%
%ADD19C,8.600000*%
%TD*%
%TA.AperFunction,ComponentPad*%
%ADD20C,7.500000*%
%TD*%
%TA.AperFunction,ComponentPad*%
%ADD21C,0.800000*%
%TD*%
%TA.AperFunction,ComponentPad*%
%ADD22C,6.400000*%
%TD*%
%TA.AperFunction,ComponentPad*%
%ADD23C,1.500000*%
%TD*%
%TA.AperFunction,ViaPad*%
%ADD24C,0.800000*%
%TD*%
%TA.AperFunction,Conductor*%
%ADD25C,2.000000*%
%TD*%
%TA.AperFunction,Conductor*%
%ADD26C,1.000000*%
%TD*%
%TA.AperFunction,Conductor*%
%ADD27C,0.800000*%
%TD*%
%TA.AperFunction,Conductor*%
%ADD28C,0.254000*%
%TD*%
%TA.AperFunction,Conductor*%
%ADD29C,0.100000*%
%TD*%
G04 APERTURE END LIST*
D10*
X141516698Y-134938780D02*
X142373841Y-134938780D01*
X141945269Y-136438780D02*
X141945269Y-134938780D01*
X143159555Y-134938780D02*
X143445269Y-134938780D01*
X143588126Y-135010209D01*
X143730983Y-135153066D01*
X143802412Y-135438780D01*
X143802412Y-135938780D01*
X143730983Y-136224494D01*
X143588126Y-136367351D01*
X143445269Y-136438780D01*
X143159555Y-136438780D01*
X143016698Y-136367351D01*
X142873841Y-136224494D01*
X142802412Y-135938780D01*
X142802412Y-135438780D01*
X142873841Y-135153066D01*
X143016698Y-135010209D01*
X143159555Y-134938780D01*
X144445269Y-136438780D02*
X144445269Y-134938780D01*
X145016698Y-134938780D01*
X145159555Y-135010209D01*
X145230983Y-135081637D01*
X145302412Y-135224494D01*
X145302412Y-135438780D01*
X145230983Y-135581637D01*
X145159555Y-135653066D01*
X145016698Y-135724494D01*
X144445269Y-135724494D01*
D11*
%TO.P,TP7,1*%
%TO.N,+5VA*%
X87903841Y-133855209D03*
%TD*%
%TO.P,TP6,1*%
%TO.N,+9V*%
X115843841Y-134490209D03*
%TD*%
%TO.P,TP5,1*%
%TO.N,/RATE*%
X93618841Y-107185209D03*
%TD*%
%TO.P,TP4,1*%
%TO.N,/DT*%
X102508841Y-90675209D03*
%TD*%
%TO.P,TP3,1*%
%TO.N,/SCK*%
X102508841Y-96390209D03*
%TD*%
%TO.P,TP2,1*%
%TO.N,GND*%
X115843841Y-140205209D03*
%TD*%
%TO.P,TP1,1*%
%TO.N,V+*%
X118383841Y-86865209D03*
%TD*%
D12*
%TO.P,U4,9*%
%TO.N,GND*%
X125368841Y-116075209D03*
D13*
X124368841Y-115375209D03*
X124368841Y-116775209D03*
X125368841Y-115375209D03*
X125368841Y-116775209D03*
X126368841Y-115375209D03*
X126368841Y-116775209D03*
%TD*%
D14*
%TO.P,U1,5*%
%TO.N,/BOOST_PIN5*%
X123463841Y-90675209D03*
%TO.P,U1,4*%
%TO.N,/BOOST_PIN4*%
X126003841Y-90675209D03*
%TO.P,U1,3*%
%TO.N,/BOOST_PIN3*%
X128543841Y-90675209D03*
%TO.P,U1,2*%
%TO.N,/BOOST_PIN2*%
X131083841Y-90675209D03*
%TO.P,U1,1*%
%TO.N,/BOOST_PIN1*%
X133623841Y-90675209D03*
%TD*%
%TA.AperFunction,SMDPad,CuDef*%
D15*
%TO.P,JP15,1*%
%TO.N,+9V*%
G36*
X123463841Y-87775209D02*
G01*
X122713841Y-87275209D01*
X122713841Y-86275209D01*
X124213841Y-86275209D01*
X124213841Y-87275209D01*
X123463841Y-87775209D01*
G37*
%TD.AperFunction*%
%TA.AperFunction,SMDPad,CuDef*%
%TO.P,JP15,2*%
%TO.N,/BOOST_PIN5*%
G36*
X122713841Y-88725209D02*
G01*
X122713841Y-87575209D01*
X123463841Y-88075209D01*
X124213841Y-87575209D01*
X124213841Y-88725209D01*
X122713841Y-88725209D01*
G37*
%TD.AperFunction*%
%TD*%
%TA.AperFunction,SMDPad,CuDef*%
%TO.P,JP14,1*%
%TO.N,+9V*%
G36*
X126003841Y-87775209D02*
G01*
X125253841Y-87275209D01*
X125253841Y-86275209D01*
X126753841Y-86275209D01*
X126753841Y-87275209D01*
X126003841Y-87775209D01*
G37*
%TD.AperFunction*%
%TA.AperFunction,SMDPad,CuDef*%
%TO.P,JP14,2*%
%TO.N,/BOOST_PIN4*%
G36*
X125253841Y-88725209D02*
G01*
X125253841Y-87575209D01*
X126003841Y-88075209D01*
X126753841Y-87575209D01*
X126753841Y-88725209D01*
X125253841Y-88725209D01*
G37*
%TD.AperFunction*%
%TD*%
%TA.AperFunction,SMDPad,CuDef*%
%TO.P,JP13,1*%
%TO.N,+9V*%
G36*
X128543841Y-87775209D02*
G01*
X127793841Y-87275209D01*
X127793841Y-86275209D01*
X129293841Y-86275209D01*
X129293841Y-87275209D01*
X128543841Y-87775209D01*
G37*
%TD.AperFunction*%
%TA.AperFunction,SMDPad,CuDef*%
%TO.P,JP13,2*%
%TO.N,/BOOST_PIN3*%
G36*
X127793841Y-88725209D02*
G01*
X127793841Y-87575209D01*
X128543841Y-88075209D01*
X129293841Y-87575209D01*
X129293841Y-88725209D01*
X127793841Y-88725209D01*
G37*
%TD.AperFunction*%
%TD*%
%TA.AperFunction,SMDPad,CuDef*%
%TO.P,JP12,1*%
%TO.N,+9V*%
G36*
X131083841Y-87775209D02*
G01*
X130333841Y-87275209D01*
X130333841Y-86275209D01*
X131833841Y-86275209D01*
X131833841Y-87275209D01*
X131083841Y-87775209D01*
G37*
%TD.AperFunction*%
%TA.AperFunction,SMDPad,CuDef*%
%TO.P,JP12,2*%
%TO.N,/BOOST_PIN2*%
G36*
X130333841Y-88725209D02*
G01*
X130333841Y-87575209D01*
X131083841Y-88075209D01*
X131833841Y-87575209D01*
X131833841Y-88725209D01*
X130333841Y-88725209D01*
G37*
%TD.AperFunction*%
%TD*%
%TA.AperFunction,SMDPad,CuDef*%
%TO.P,JP11,1*%
%TO.N,+9V*%
G36*
X133623841Y-87775209D02*
G01*
X132873841Y-87275209D01*
X132873841Y-86275209D01*
X134373841Y-86275209D01*
X134373841Y-87275209D01*
X133623841Y-87775209D01*
G37*
%TD.AperFunction*%
%TA.AperFunction,SMDPad,CuDef*%
%TO.P,JP11,2*%
%TO.N,/BOOST_PIN1*%
G36*
X132873841Y-88725209D02*
G01*
X132873841Y-87575209D01*
X133623841Y-88075209D01*
X134373841Y-87575209D01*
X134373841Y-88725209D01*
X132873841Y-88725209D01*
G37*
%TD.AperFunction*%
%TD*%
%TA.AperFunction,SMDPad,CuDef*%
%TO.P,JP10,1*%
%TO.N,GND*%
G36*
X123463841Y-93575209D02*
G01*
X124213841Y-94075209D01*
X124213841Y-95075209D01*
X122713841Y-95075209D01*
X122713841Y-94075209D01*
X123463841Y-93575209D01*
G37*
%TD.AperFunction*%
%TA.AperFunction,SMDPad,CuDef*%
%TO.P,JP10,2*%
%TO.N,/BOOST_PIN5*%
G36*
X124213841Y-92625209D02*
G01*
X124213841Y-93775209D01*
X123463841Y-93275209D01*
X122713841Y-93775209D01*
X122713841Y-92625209D01*
X124213841Y-92625209D01*
G37*
%TD.AperFunction*%
%TD*%
%TA.AperFunction,SMDPad,CuDef*%
%TO.P,JP9,1*%
%TO.N,GND*%
G36*
X126003841Y-93575209D02*
G01*
X126753841Y-94075209D01*
X126753841Y-95075209D01*
X125253841Y-95075209D01*
X125253841Y-94075209D01*
X126003841Y-93575209D01*
G37*
%TD.AperFunction*%
%TA.AperFunction,SMDPad,CuDef*%
%TO.P,JP9,2*%
%TO.N,/BOOST_PIN4*%
G36*
X126753841Y-92625209D02*
G01*
X126753841Y-93775209D01*
X126003841Y-93275209D01*
X125253841Y-93775209D01*
X125253841Y-92625209D01*
X126753841Y-92625209D01*
G37*
%TD.AperFunction*%
%TD*%
%TA.AperFunction,SMDPad,CuDef*%
%TO.P,JP8,1*%
%TO.N,GND*%
G36*
X128543841Y-93575209D02*
G01*
X129293841Y-94075209D01*
X129293841Y-95075209D01*
X127793841Y-95075209D01*
X127793841Y-94075209D01*
X128543841Y-93575209D01*
G37*
%TD.AperFunction*%
%TA.AperFunction,SMDPad,CuDef*%
%TO.P,JP8,2*%
%TO.N,/BOOST_PIN3*%
G36*
X129293841Y-92625209D02*
G01*
X129293841Y-93775209D01*
X128543841Y-93275209D01*
X127793841Y-93775209D01*
X127793841Y-92625209D01*
X129293841Y-92625209D01*
G37*
%TD.AperFunction*%
%TD*%
%TA.AperFunction,SMDPad,CuDef*%
%TO.P,JP7,1*%
%TO.N,GND*%
G36*
X131083841Y-93575209D02*
G01*
X131833841Y-94075209D01*
X131833841Y-95075209D01*
X130333841Y-95075209D01*
X130333841Y-94075209D01*
X131083841Y-93575209D01*
G37*
%TD.AperFunction*%
%TA.AperFunction,SMDPad,CuDef*%
%TO.P,JP7,2*%
%TO.N,/BOOST_PIN2*%
G36*
X131833841Y-92625209D02*
G01*
X131833841Y-93775209D01*
X131083841Y-93275209D01*
X130333841Y-93775209D01*
X130333841Y-92625209D01*
X131833841Y-92625209D01*
G37*
%TD.AperFunction*%
%TD*%
%TA.AperFunction,SMDPad,CuDef*%
%TO.P,JP6,1*%
%TO.N,GND*%
G36*
X133623841Y-93575209D02*
G01*
X134373841Y-94075209D01*
X134373841Y-95075209D01*
X132873841Y-95075209D01*
X132873841Y-94075209D01*
X133623841Y-93575209D01*
G37*
%TD.AperFunction*%
%TA.AperFunction,SMDPad,CuDef*%
%TO.P,JP6,2*%
%TO.N,/BOOST_PIN1*%
G36*
X134373841Y-92625209D02*
G01*
X134373841Y-93775209D01*
X133623841Y-93275209D01*
X132873841Y-93775209D01*
X132873841Y-92625209D01*
X134373841Y-92625209D01*
G37*
%TD.AperFunction*%
%TD*%
%TO.P,C10,2*%
%TO.N,+9V*%
%TA.AperFunction,SMDPad,CuDef*%
G36*
G01*
X122813840Y-83955209D02*
X124113842Y-83955209D01*
G75*
G02*
X124363841Y-84205208I0J-249999D01*
G01*
X124363841Y-85030210D01*
G75*
G02*
X124113842Y-85280209I-249999J0D01*
G01*
X122813840Y-85280209D01*
G75*
G02*
X122563841Y-85030210I0J249999D01*
G01*
X122563841Y-84205208D01*
G75*
G02*
X122813840Y-83955209I249999J0D01*
G01*
G37*
%TD.AperFunction*%
%TO.P,C10,1*%
%TO.N,GND*%
%TA.AperFunction,SMDPad,CuDef*%
G36*
G01*
X122813840Y-80830209D02*
X124113842Y-80830209D01*
G75*
G02*
X124363841Y-81080208I0J-249999D01*
G01*
X124363841Y-81905210D01*
G75*
G02*
X124113842Y-82155209I-249999J0D01*
G01*
X122813840Y-82155209D01*
G75*
G02*
X122563841Y-81905210I0J249999D01*
G01*
X122563841Y-81080208D01*
G75*
G02*
X122813840Y-80830209I249999J0D01*
G01*
G37*
%TD.AperFunction*%
%TD*%
%TO.P,C9,2*%
%TO.N,+9V*%
%TA.AperFunction,SMDPad,CuDef*%
G36*
G01*
X125353840Y-83955209D02*
X126653842Y-83955209D01*
G75*
G02*
X126903841Y-84205208I0J-249999D01*
G01*
X126903841Y-85030210D01*
G75*
G02*
X126653842Y-85280209I-249999J0D01*
G01*
X125353840Y-85280209D01*
G75*
G02*
X125103841Y-85030210I0J249999D01*
G01*
X125103841Y-84205208D01*
G75*
G02*
X125353840Y-83955209I249999J0D01*
G01*
G37*
%TD.AperFunction*%
%TO.P,C9,1*%
%TO.N,GND*%
%TA.AperFunction,SMDPad,CuDef*%
G36*
G01*
X125353840Y-80830209D02*
X126653842Y-80830209D01*
G75*
G02*
X126903841Y-81080208I0J-249999D01*
G01*
X126903841Y-81905210D01*
G75*
G02*
X126653842Y-82155209I-249999J0D01*
G01*
X125353840Y-82155209D01*
G75*
G02*
X125103841Y-81905210I0J249999D01*
G01*
X125103841Y-81080208D01*
G75*
G02*
X125353840Y-80830209I249999J0D01*
G01*
G37*
%TD.AperFunction*%
%TD*%
%TO.P,C8,2*%
%TO.N,+9V*%
%TA.AperFunction,SMDPad,CuDef*%
G36*
G01*
X127893840Y-83955209D02*
X129193842Y-83955209D01*
G75*
G02*
X129443841Y-84205208I0J-249999D01*
G01*
X129443841Y-85030210D01*
G75*
G02*
X129193842Y-85280209I-249999J0D01*
G01*
X127893840Y-85280209D01*
G75*
G02*
X127643841Y-85030210I0J249999D01*
G01*
X127643841Y-84205208D01*
G75*
G02*
X127893840Y-83955209I249999J0D01*
G01*
G37*
%TD.AperFunction*%
%TO.P,C8,1*%
%TO.N,GND*%
%TA.AperFunction,SMDPad,CuDef*%
G36*
G01*
X127893840Y-80830209D02*
X129193842Y-80830209D01*
G75*
G02*
X129443841Y-81080208I0J-249999D01*
G01*
X129443841Y-81905210D01*
G75*
G02*
X129193842Y-82155209I-249999J0D01*
G01*
X127893840Y-82155209D01*
G75*
G02*
X127643841Y-81905210I0J249999D01*
G01*
X127643841Y-81080208D01*
G75*
G02*
X127893840Y-80830209I249999J0D01*
G01*
G37*
%TD.AperFunction*%
%TD*%
%TO.P,C7,2*%
%TO.N,+9V*%
%TA.AperFunction,SMDPad,CuDef*%
G36*
G01*
X130433840Y-83955209D02*
X131733842Y-83955209D01*
G75*
G02*
X131983841Y-84205208I0J-249999D01*
G01*
X131983841Y-85030210D01*
G75*
G02*
X131733842Y-85280209I-249999J0D01*
G01*
X130433840Y-85280209D01*
G75*
G02*
X130183841Y-85030210I0J249999D01*
G01*
X130183841Y-84205208D01*
G75*
G02*
X130433840Y-83955209I249999J0D01*
G01*
G37*
%TD.AperFunction*%
%TO.P,C7,1*%
%TO.N,GND*%
%TA.AperFunction,SMDPad,CuDef*%
G36*
G01*
X130433840Y-80830209D02*
X131733842Y-80830209D01*
G75*
G02*
X131983841Y-81080208I0J-249999D01*
G01*
X131983841Y-81905210D01*
G75*
G02*
X131733842Y-82155209I-249999J0D01*
G01*
X130433840Y-82155209D01*
G75*
G02*
X130183841Y-81905210I0J249999D01*
G01*
X130183841Y-81080208D01*
G75*
G02*
X130433840Y-80830209I249999J0D01*
G01*
G37*
%TD.AperFunction*%
%TD*%
%TO.P,C6,2*%
%TO.N,+9V*%
%TA.AperFunction,SMDPad,CuDef*%
G36*
G01*
X132973840Y-83955209D02*
X134273842Y-83955209D01*
G75*
G02*
X134523841Y-84205208I0J-249999D01*
G01*
X134523841Y-85030210D01*
G75*
G02*
X134273842Y-85280209I-249999J0D01*
G01*
X132973840Y-85280209D01*
G75*
G02*
X132723841Y-85030210I0J249999D01*
G01*
X132723841Y-84205208D01*
G75*
G02*
X132973840Y-83955209I249999J0D01*
G01*
G37*
%TD.AperFunction*%
%TO.P,C6,1*%
%TO.N,GND*%
%TA.AperFunction,SMDPad,CuDef*%
G36*
G01*
X132973840Y-80830209D02*
X134273842Y-80830209D01*
G75*
G02*
X134523841Y-81080208I0J-249999D01*
G01*
X134523841Y-81905210D01*
G75*
G02*
X134273842Y-82155209I-249999J0D01*
G01*
X132973840Y-82155209D01*
G75*
G02*
X132723841Y-81905210I0J249999D01*
G01*
X132723841Y-81080208D01*
G75*
G02*
X132973840Y-80830209I249999J0D01*
G01*
G37*
%TD.AperFunction*%
%TD*%
D16*
%TO.P,H3,*%
%TO.N,*%
X89193841Y-77395209D03*
X89193841Y-80395209D03*
X85193841Y-80395209D03*
X85193841Y-77395209D03*
%TD*%
D17*
%TO.P,J7,26*%
%TO.N,V+*%
X112033841Y-121155209D03*
%TO.P,J7,25*%
X109493841Y-121155209D03*
%TO.P,J7,24*%
%TO.N,+3V3*%
X112033841Y-118615209D03*
%TO.P,J7,23*%
X109493841Y-118615209D03*
%TO.P,J7,22*%
%TO.N,GND*%
X112033841Y-116075209D03*
%TO.P,J7,21*%
X109493841Y-116075209D03*
%TO.P,J7,20*%
X112033841Y-113535209D03*
%TO.P,J7,19*%
%TO.N,/DQ*%
X109493841Y-113535209D03*
%TO.P,J7,18*%
%TO.N,GND*%
X112033841Y-110995209D03*
%TO.P,J7,17*%
X109493841Y-110995209D03*
%TO.P,J7,16*%
X112033841Y-108455209D03*
%TO.P,J7,15*%
X109493841Y-108455209D03*
%TO.P,J7,14*%
X112033841Y-105915209D03*
%TO.P,J7,13*%
X109493841Y-105915209D03*
%TO.P,J7,12*%
X112033841Y-103375209D03*
%TO.P,J7,11*%
%TO.N,+3V3*%
X109493841Y-103375209D03*
%TO.P,J7,10*%
%TO.N,N/C*%
X112033841Y-100835209D03*
%TO.P,J7,9*%
X109493841Y-100835209D03*
%TO.P,J7,8*%
X112033841Y-98295209D03*
%TO.P,J7,7*%
X109493841Y-98295209D03*
%TO.P,J7,6*%
%TO.N,/RATE*%
X112033841Y-95755209D03*
%TO.P,J7,5*%
%TO.N,N/C*%
X109493841Y-95755209D03*
%TO.P,J7,4*%
%TO.N,/SCK*%
X112033841Y-93215209D03*
%TO.P,J7,3*%
%TO.N,N/C*%
X109493841Y-93215209D03*
%TO.P,J7,2*%
X112033841Y-90675209D03*
D11*
%TO.P,J7,1*%
%TO.N,/DT*%
X109493841Y-90675209D03*
%TD*%
D18*
%TO.P,H7,1*%
%TO.N,Net-(H7-Pad1)*%
X137974260Y-142614790D03*
X135693841Y-141670209D03*
X133413422Y-142614790D03*
X132468841Y-144895209D03*
X133413422Y-147175628D03*
X135693841Y-148120209D03*
X137974260Y-147175628D03*
X138918841Y-144895209D03*
D19*
X135693841Y-144895209D03*
%TD*%
D18*
%TO.P,H6,1*%
%TO.N,Net-(H6-Pad1)*%
X60974260Y-142614790D03*
X58693841Y-141670209D03*
X56413422Y-142614790D03*
X55468841Y-144895209D03*
X56413422Y-147175628D03*
X58693841Y-148120209D03*
X60974260Y-147175628D03*
X61918841Y-144895209D03*
D20*
X58693841Y-144895209D03*
%TD*%
D18*
%TO.P,H5,1*%
%TO.N,Net-(H5-Pad1)*%
X137974260Y-70614790D03*
X135693841Y-69670209D03*
X133413422Y-70614790D03*
X132468841Y-72895209D03*
X133413422Y-75175628D03*
X135693841Y-76120209D03*
X137974260Y-75175628D03*
X138918841Y-72895209D03*
D20*
X135693841Y-72895209D03*
%TD*%
D18*
%TO.P,H4,1*%
%TO.N,Net-(H4-Pad1)*%
X60974260Y-70614790D03*
X58693841Y-69670209D03*
X56413422Y-70614790D03*
X55468841Y-72895209D03*
X56413422Y-75175628D03*
X58693841Y-76120209D03*
X60974260Y-75175628D03*
X61918841Y-72895209D03*
D19*
X58693841Y-72895209D03*
%TD*%
D21*
%TO.P,H2,1*%
%TO.N,Net-(H2-Pad1)*%
X111190897Y-83898153D03*
X109493841Y-83195209D03*
X107796785Y-83898153D03*
X107093841Y-85595209D03*
X107796785Y-87292265D03*
X109493841Y-87995209D03*
X111190897Y-87292265D03*
X111893841Y-85595209D03*
D22*
X109493841Y-85595209D03*
%TD*%
D21*
%TO.P,H1,1*%
%TO.N,Net-(H1-Pad1)*%
X111190897Y-124538153D03*
X109493841Y-123835209D03*
X107796785Y-124538153D03*
X107093841Y-126235209D03*
X107796785Y-127932265D03*
X109493841Y-128635209D03*
X111190897Y-127932265D03*
X111893841Y-126235209D03*
D22*
X109493841Y-126235209D03*
%TD*%
D23*
%TO.P,J6,1*%
%TO.N,Net-(J6-Pad1)*%
X52978841Y-112265209D03*
%TD*%
D24*
%TO.N,GND*%
X59193841Y-129395209D03*
X53193841Y-129395209D03*
X47193841Y-129395209D03*
X45693841Y-128395209D03*
X45693841Y-122395209D03*
X45693841Y-116395209D03*
X45693841Y-110395209D03*
X45693841Y-104395209D03*
X45693841Y-98395209D03*
X45693841Y-92395209D03*
X45693841Y-86395209D03*
X47193841Y-84895209D03*
X53193841Y-84895209D03*
X59193841Y-84895209D03*
X65193841Y-84895209D03*
X71193841Y-84895209D03*
X77193841Y-84895209D03*
X83193841Y-84895209D03*
X89193841Y-84895209D03*
X90193841Y-86395209D03*
X90193841Y-92395209D03*
X90193841Y-98395209D03*
X90193841Y-104395209D03*
X90193841Y-110395209D03*
X90193841Y-116395209D03*
X90193841Y-122395209D03*
X90193841Y-127895209D03*
X89193841Y-129395209D03*
X83193841Y-129395209D03*
X77193841Y-129395209D03*
X71193841Y-129395209D03*
X65193841Y-129395209D03*
X102508841Y-131950209D03*
X101238841Y-131950209D03*
X95523841Y-144650209D03*
X94253841Y-144650209D03*
X86633841Y-138300209D03*
X85363841Y-138300209D03*
X95523841Y-89405209D03*
X83458841Y-112900209D03*
X85998841Y-111630209D03*
X54248841Y-124965209D03*
X57423841Y-120520209D03*
X72843841Y-103605209D03*
X77923841Y-107415209D03*
X70693841Y-82395209D03*
X65693841Y-82395209D03*
X64693841Y-82395209D03*
X59693841Y-82395209D03*
X58693841Y-82395209D03*
X53693841Y-82395209D03*
X52693841Y-82395209D03*
X47693841Y-82395209D03*
X124733841Y-80515209D03*
X127273841Y-80515209D03*
X129813841Y-80515209D03*
X132353841Y-80515209D03*
X134893841Y-80515209D03*
X134893841Y-81785209D03*
X132353841Y-81785209D03*
X129813841Y-81785209D03*
X127273841Y-81785209D03*
X124733841Y-81785209D03*
X122193841Y-80515209D03*
X122193841Y-81785209D03*
X133623841Y-98930209D03*
X136163841Y-98930209D03*
X136163841Y-100200209D03*
X133623841Y-100200209D03*
X131083841Y-98930209D03*
X131083841Y-100200209D03*
X138703841Y-98930209D03*
X138703841Y-100200209D03*
X134258841Y-125600209D03*
X136798841Y-125600209D03*
X139338841Y-125600209D03*
X139338841Y-126870209D03*
X136798841Y-126870209D03*
X134258841Y-126870209D03*
X131718841Y-125600209D03*
X131718841Y-126870209D03*
X126003841Y-106550209D03*
X120923841Y-109725209D03*
X123463841Y-114805209D03*
X127273841Y-117345209D03*
X126003841Y-124965209D03*
X119653841Y-124330209D03*
X68218841Y-123060209D03*
X70758841Y-123060209D03*
X73298841Y-123060209D03*
X73298841Y-124330209D03*
X70758841Y-124330209D03*
X68218841Y-124330209D03*
X95523841Y-147190209D03*
X94253841Y-147190209D03*
X96158841Y-143380209D03*
X94253841Y-142745209D03*
X86633841Y-140840209D03*
X85363841Y-140840209D03*
X85363841Y-135760209D03*
X86633841Y-135760209D03*
X59328841Y-114805209D03*
X59328841Y-110995209D03*
X119653841Y-100200209D03*
X120923841Y-100200209D03*
X119653841Y-102740209D03*
X120923841Y-102740209D03*
X119018841Y-126235209D03*
X126003841Y-135125209D03*
X126003841Y-136395209D03*
X128543841Y-135125209D03*
X128543841Y-136395209D03*
%TO.N,+5VA*%
X95523841Y-135125209D03*
X94253841Y-135125209D03*
X92983841Y-135125209D03*
X95523841Y-136395209D03*
X94253841Y-136395209D03*
X92983841Y-136395209D03*
X95523841Y-137665209D03*
X95523841Y-138935209D03*
X95523841Y-140205209D03*
X94253841Y-137665209D03*
X92983841Y-137665209D03*
X92983841Y-138935209D03*
X94253841Y-138935209D03*
X94253841Y-140205209D03*
X92983841Y-140205209D03*
X92983841Y-141475209D03*
X94253841Y-141475209D03*
X95523841Y-141475209D03*
%TO.N,/RATE*%
X75838841Y-122425209D03*
X75838841Y-117345209D03*
%TO.N,+9V*%
X139338841Y-88770209D03*
X139973841Y-89405209D03*
X140608841Y-90040209D03*
X141243841Y-90675209D03*
%TD*%
D25*
%TO.N,GND*%
X109493841Y-116075209D02*
X112033841Y-116075209D01*
X112033841Y-116075209D02*
X113303841Y-116075209D01*
X109493841Y-116075209D02*
X108223841Y-116075209D01*
D26*
X123756341Y-81492709D02*
X124733841Y-80515209D01*
X123463841Y-81492709D02*
X123756341Y-81492709D01*
X128836341Y-81492709D02*
X129813841Y-80515209D01*
X128543841Y-81492709D02*
X128836341Y-81492709D01*
X131376341Y-81492709D02*
X132353841Y-80515209D01*
X131083841Y-81492709D02*
X131376341Y-81492709D01*
X133916341Y-81492709D02*
X134893841Y-80515209D01*
X133623841Y-81492709D02*
X133916341Y-81492709D01*
X134601341Y-81492709D02*
X134893841Y-81785209D01*
X133623841Y-81492709D02*
X134601341Y-81492709D01*
X132646341Y-81492709D02*
X132353841Y-81785209D01*
X133623841Y-81492709D02*
X132646341Y-81492709D01*
X130106341Y-81492709D02*
X129813841Y-81785209D01*
X131083841Y-81492709D02*
X130106341Y-81492709D01*
X127566341Y-81492709D02*
X127273841Y-81785209D01*
X128543841Y-81492709D02*
X127566341Y-81492709D01*
X125026341Y-81492709D02*
X124733841Y-81785209D01*
X126003841Y-81492709D02*
X125026341Y-81492709D01*
X123171341Y-81492709D02*
X122193841Y-80515209D01*
X123463841Y-81492709D02*
X123171341Y-81492709D01*
X122486341Y-81492709D02*
X122193841Y-81785209D01*
X123463841Y-81492709D02*
X122486341Y-81492709D01*
X125711341Y-81492709D02*
X124733841Y-80515209D01*
X126003841Y-81492709D02*
X125711341Y-81492709D01*
X126296341Y-81492709D02*
X127273841Y-80515209D01*
X126003841Y-81492709D02*
X126296341Y-81492709D01*
X128251341Y-81492709D02*
X127273841Y-80515209D01*
X128543841Y-81492709D02*
X128251341Y-81492709D01*
X130791341Y-81492709D02*
X129813841Y-80515209D01*
X131083841Y-81492709D02*
X130791341Y-81492709D01*
X133331341Y-81492709D02*
X132353841Y-80515209D01*
X133623841Y-81492709D02*
X133331341Y-81492709D01*
D27*
X125368841Y-116075209D02*
X126003841Y-115440209D01*
X126003841Y-115440209D02*
X126003841Y-114170209D01*
X125368841Y-116075209D02*
X124733841Y-115440209D01*
X124733841Y-115440209D02*
X124733841Y-114170209D01*
X125368841Y-116075209D02*
X126003841Y-116710209D01*
X126003841Y-116710209D02*
X126003841Y-117980209D01*
X125368841Y-116075209D02*
X124733841Y-116710209D01*
X124733841Y-116710209D02*
X124733841Y-117980209D01*
D25*
X112033841Y-116075209D02*
X112033841Y-113535209D01*
X112033841Y-113535209D02*
X113303841Y-113535209D01*
D26*
%TO.N,/RATE*%
X75838841Y-122425209D02*
X75838841Y-117345209D01*
D25*
%TO.N,V+*%
X109493841Y-121155209D02*
X112033841Y-121155209D01*
%TO.N,+9V*%
X136163841Y-85595209D02*
X133623841Y-85595209D01*
X141243841Y-90675209D02*
X141243841Y-90675209D01*
X139973841Y-89405209D02*
X136163841Y-85595209D01*
X140608841Y-90040209D02*
X139973841Y-89405209D01*
X141243841Y-90675209D02*
X140608841Y-90040209D01*
%TO.N,/BOOST_PIN1*%
X133623841Y-90675209D02*
X133623841Y-92375199D01*
X133623841Y-90805000D02*
X133623841Y-89105010D01*
%TO.N,/BOOST_PIN2*%
X131083841Y-90675209D02*
X131083841Y-92375199D01*
X131083841Y-90805000D02*
X131083841Y-89105010D01*
%TO.N,/BOOST_PIN3*%
X128543841Y-90675209D02*
X128543841Y-92375199D01*
X128543841Y-90805000D02*
X128543841Y-89105010D01*
%TO.N,/BOOST_PIN4*%
X126003841Y-90675209D02*
X126003841Y-92375199D01*
X126003841Y-90805000D02*
X126003841Y-89105010D01*
%TO.N,/BOOST_PIN5*%
X123463841Y-90675209D02*
X123463841Y-92375199D01*
X123463841Y-90675209D02*
X123463841Y-88975219D01*
%TD*%
D28*
%TO.N,GND*%
X133616765Y-69009273D02*
X132898567Y-69489157D01*
X132287789Y-70099935D01*
X131807905Y-70818133D01*
X131477354Y-71616152D01*
X131308841Y-72463324D01*
X131308841Y-73327094D01*
X131477354Y-74174266D01*
X131807905Y-74972285D01*
X132287789Y-75690483D01*
X132898567Y-76301261D01*
X133616765Y-76781145D01*
X134414784Y-77111696D01*
X135261956Y-77280209D01*
X136125726Y-77280209D01*
X136972898Y-77111696D01*
X137770917Y-76781145D01*
X138489115Y-76301261D01*
X138899452Y-75890924D01*
X138899452Y-78797997D01*
X138900082Y-78804393D01*
X138904468Y-79055662D01*
X138905028Y-79062058D01*
X138904803Y-79068485D01*
X138908382Y-79119663D01*
X139025776Y-80236589D01*
X139030233Y-80261866D01*
X139032916Y-80287392D01*
X139043583Y-80337573D01*
X139315280Y-81427292D01*
X139323208Y-81451693D01*
X139329420Y-81476608D01*
X139346967Y-81524816D01*
X139767680Y-82566117D01*
X139778930Y-82589183D01*
X139788546Y-82612984D01*
X139812631Y-82658281D01*
X140374171Y-83630896D01*
X140388525Y-83652176D01*
X140401357Y-83674403D01*
X140431512Y-83715907D01*
X141122948Y-84600905D01*
X141140120Y-84619977D01*
X141155924Y-84640205D01*
X141191562Y-84677109D01*
X141999438Y-85457266D01*
X142019099Y-85473763D01*
X142037563Y-85491594D01*
X142077990Y-85523179D01*
X142986580Y-86183308D01*
X143008344Y-86196907D01*
X143029111Y-86211996D01*
X143073540Y-86237646D01*
X144065160Y-86764900D01*
X144088603Y-86775337D01*
X144111270Y-86787390D01*
X144158837Y-86806608D01*
X145214186Y-87190724D01*
X145238853Y-87197797D01*
X145262978Y-87206578D01*
X145312756Y-87218989D01*
X146411294Y-87452490D01*
X146436720Y-87456063D01*
X146461817Y-87461398D01*
X146512838Y-87466761D01*
X147622964Y-87544389D01*
X148062477Y-87587483D01*
X148426110Y-87697271D01*
X148761489Y-87875595D01*
X149055845Y-88115664D01*
X149297963Y-88408336D01*
X149478625Y-88742462D01*
X149590948Y-89105322D01*
X149634225Y-89517074D01*
X149634224Y-138162315D01*
X149622202Y-138284927D01*
X149597029Y-138368304D01*
X149556140Y-138445204D01*
X149501098Y-138512692D01*
X149433992Y-138568207D01*
X149357378Y-138609632D01*
X149274185Y-138635385D01*
X149162310Y-138647143D01*
X149144568Y-138646751D01*
X148858770Y-138636954D01*
X148831392Y-138637880D01*
X148804024Y-138637118D01*
X148796335Y-138637468D01*
X147629108Y-138696707D01*
X147583286Y-138702175D01*
X147537400Y-138707164D01*
X147529830Y-138708554D01*
X146381442Y-138925656D01*
X146336787Y-138937292D01*
X146292002Y-138948463D01*
X146284690Y-138950868D01*
X145176392Y-139321816D01*
X145133702Y-139339416D01*
X145090876Y-139356550D01*
X145083963Y-139359922D01*
X145083951Y-139359928D01*
X144036257Y-139877853D01*
X143996339Y-139901091D01*
X143956245Y-139923872D01*
X143949860Y-139928147D01*
X143949849Y-139928154D01*
X143949839Y-139928161D01*
X142982132Y-140583480D01*
X142945761Y-140611902D01*
X142909106Y-140639932D01*
X142903351Y-140645043D01*
X142033525Y-141425641D01*
X142001317Y-141458768D01*
X141968836Y-141491482D01*
X141963828Y-141497326D01*
X141207990Y-142388749D01*
X141180579Y-142425935D01*
X141152835Y-142462760D01*
X141148666Y-142469230D01*
X140520801Y-143454985D01*
X140498692Y-143495544D01*
X140476201Y-143535796D01*
X140472958Y-143542753D01*
X140472948Y-143542772D01*
X140472941Y-143542790D01*
X140461471Y-143567733D01*
X140439191Y-143455723D01*
X140067181Y-142557610D01*
X139527106Y-141749330D01*
X138839720Y-141061944D01*
X138031440Y-140521869D01*
X137133327Y-140149859D01*
X136179896Y-139960209D01*
X135207786Y-139960209D01*
X134254355Y-140149859D01*
X133356242Y-140521869D01*
X132547962Y-141061944D01*
X131860576Y-141749330D01*
X131320501Y-142557610D01*
X130948491Y-143455723D01*
X130758841Y-144409154D01*
X130758841Y-145381264D01*
X130931240Y-146247968D01*
X130440779Y-145655103D01*
X130393489Y-145608142D01*
X130346900Y-145560567D01*
X130338993Y-145554025D01*
X129734022Y-145060624D01*
X129678532Y-145023757D01*
X129623570Y-144986123D01*
X129614543Y-144981242D01*
X128925259Y-144614743D01*
X128863653Y-144589350D01*
X128802439Y-144563114D01*
X128792639Y-144560080D01*
X128792633Y-144560078D01*
X128045291Y-144334442D01*
X127979908Y-144321496D01*
X127914781Y-144307653D01*
X127904577Y-144306580D01*
X127904575Y-144306580D01*
X127127638Y-144230401D01*
X127092020Y-144226893D01*
X112276884Y-144226893D01*
X112263938Y-144228168D01*
X112004459Y-144237344D01*
X111961059Y-144243154D01*
X111917348Y-144245637D01*
X111907219Y-144247287D01*
X111137604Y-144378158D01*
X111073308Y-144395688D01*
X111008825Y-144412305D01*
X110999213Y-144415889D01*
X110999209Y-144415890D01*
X110999206Y-144415892D01*
X110269670Y-144693754D01*
X110209997Y-144723442D01*
X110149975Y-144752265D01*
X110141243Y-144757647D01*
X110141240Y-144757649D01*
X110141239Y-144757650D01*
X109479565Y-145171923D01*
X109426759Y-145212664D01*
X109373515Y-145252569D01*
X109365997Y-145259542D01*
X109365991Y-145259547D01*
X109365986Y-145259553D01*
X108797385Y-145794451D01*
X108753520Y-145844647D01*
X108709019Y-145894159D01*
X108702994Y-145902466D01*
X108249114Y-146537625D01*
X108215829Y-146595394D01*
X108181797Y-146652598D01*
X108177500Y-146661917D01*
X107855686Y-147373021D01*
X107855632Y-147373139D01*
X107643945Y-147840900D01*
X107387334Y-148200000D01*
X107065865Y-148502415D01*
X106691775Y-148736633D01*
X106279312Y-148893730D01*
X105821444Y-148971589D01*
X105671456Y-148976893D01*
X80220389Y-148976893D01*
X79745195Y-148930299D01*
X79322668Y-148802731D01*
X78932971Y-148595525D01*
X78590938Y-148316570D01*
X78309602Y-147976494D01*
X78088701Y-147567943D01*
X78030862Y-147415479D01*
X77930581Y-147151133D01*
X77911127Y-147111901D01*
X77894727Y-147071308D01*
X77889910Y-147062247D01*
X77518607Y-146375537D01*
X77481315Y-146320249D01*
X77444878Y-146264568D01*
X77438393Y-146256615D01*
X76940779Y-145655103D01*
X76893489Y-145608142D01*
X76846900Y-145560567D01*
X76838993Y-145554025D01*
X76234022Y-145060624D01*
X76178532Y-145023757D01*
X76123570Y-144986123D01*
X76114543Y-144981242D01*
X75425259Y-144614743D01*
X75363653Y-144589350D01*
X75302439Y-144563114D01*
X75292639Y-144560080D01*
X75292633Y-144560078D01*
X74545291Y-144334442D01*
X74479908Y-144321496D01*
X74414781Y-144307653D01*
X74404577Y-144306580D01*
X74404575Y-144306580D01*
X73627638Y-144230401D01*
X73592020Y-144226893D01*
X68958442Y-144226893D01*
X68926410Y-144230048D01*
X68233602Y-144290846D01*
X68171805Y-144302428D01*
X68109724Y-144312517D01*
X68099823Y-144315213D01*
X67348028Y-144525550D01*
X67285898Y-144549687D01*
X67223508Y-144572927D01*
X67214322Y-144577493D01*
X67214317Y-144577495D01*
X67214313Y-144577497D01*
X66517697Y-144929849D01*
X66461442Y-144965592D01*
X66404749Y-145000511D01*
X66396621Y-145006776D01*
X65781706Y-145487728D01*
X65733451Y-145533730D01*
X65684634Y-145578983D01*
X65677884Y-145586702D01*
X65677879Y-145586707D01*
X65677875Y-145586712D01*
X65168093Y-146177938D01*
X65129703Y-146232420D01*
X65090595Y-146286308D01*
X65085468Y-146295198D01*
X64700227Y-146974186D01*
X64700223Y-146974194D01*
X64350549Y-147590496D01*
X63934890Y-148072560D01*
X63433502Y-148464718D01*
X62865502Y-148752015D01*
X62248866Y-148924538D01*
X61652264Y-148976893D01*
X60298341Y-148976893D01*
X60770917Y-148781145D01*
X61489115Y-148301261D01*
X62099893Y-147690483D01*
X62579777Y-146972285D01*
X62910328Y-146174266D01*
X63078841Y-145327094D01*
X63078841Y-144463324D01*
X62910328Y-143616152D01*
X62579777Y-142818133D01*
X62099893Y-142099935D01*
X61489115Y-141489157D01*
X60770917Y-141009273D01*
X59972898Y-140678722D01*
X59125726Y-140510209D01*
X58261956Y-140510209D01*
X57414784Y-140678722D01*
X56616765Y-141009273D01*
X55898567Y-141489157D01*
X55468920Y-141918804D01*
X55468920Y-139125788D01*
X55468290Y-139119392D01*
X55463904Y-138868124D01*
X55463344Y-138861728D01*
X55463569Y-138855300D01*
X55459990Y-138804123D01*
X55342596Y-137687196D01*
X55338138Y-137661917D01*
X55335456Y-137636394D01*
X55324789Y-137586213D01*
X55053092Y-136496494D01*
X55045164Y-136472094D01*
X55038952Y-136447178D01*
X55021405Y-136398970D01*
X54600692Y-135357669D01*
X54589444Y-135334606D01*
X54579826Y-135310801D01*
X54555752Y-135265528D01*
X54555741Y-135265505D01*
X54555734Y-135265495D01*
X53994201Y-134292890D01*
X53979848Y-134271611D01*
X53967015Y-134249383D01*
X53936860Y-134207879D01*
X53245424Y-133322881D01*
X53228252Y-133303809D01*
X53212448Y-133283581D01*
X53176810Y-133246677D01*
X52926763Y-133005209D01*
X86415769Y-133005209D01*
X86415769Y-134705209D01*
X86428029Y-134829691D01*
X86464339Y-134949389D01*
X86523304Y-135059703D01*
X86602656Y-135156394D01*
X86699347Y-135235746D01*
X86809661Y-135294711D01*
X86929359Y-135331021D01*
X87053841Y-135343281D01*
X87915240Y-135343281D01*
X87906899Y-135427967D01*
X87903841Y-135490209D01*
X87903841Y-141110209D01*
X87906899Y-141172451D01*
X87926114Y-141367541D01*
X87950398Y-141489628D01*
X88007303Y-141677221D01*
X88054941Y-141792229D01*
X88147351Y-141965116D01*
X88216509Y-142068618D01*
X88340872Y-142220155D01*
X88428895Y-142308178D01*
X88580432Y-142432541D01*
X88683934Y-142501699D01*
X88856821Y-142594109D01*
X88971829Y-142641747D01*
X89159422Y-142698652D01*
X89281509Y-142722936D01*
X89476599Y-142742151D01*
X89538841Y-142745209D01*
X98333841Y-142745209D01*
X98396083Y-142742151D01*
X98591173Y-142722936D01*
X98713260Y-142698652D01*
X98900853Y-142641747D01*
X99015861Y-142594109D01*
X99188748Y-142501699D01*
X99292250Y-142432541D01*
X99443787Y-142308178D01*
X99531810Y-142220155D01*
X99656173Y-142068618D01*
X99725331Y-141965116D01*
X99817741Y-141792229D01*
X99865379Y-141677221D01*
X99922284Y-141489628D01*
X99946568Y-141367541D01*
X99965783Y-141172451D01*
X99968841Y-141110209D01*
X99968841Y-141055209D01*
X114564775Y-141055209D01*
X114573019Y-141138916D01*
X114597436Y-141219405D01*
X114637086Y-141293585D01*
X114690446Y-141358604D01*
X114755465Y-141411964D01*
X114829645Y-141451614D01*
X114910134Y-141476031D01*
X114993841Y-141484275D01*
X115464091Y-141482209D01*
X115570841Y-141375459D01*
X115570841Y-140478209D01*
X116116841Y-140478209D01*
X116116841Y-141375459D01*
X116223591Y-141482209D01*
X116693841Y-141484275D01*
X116777548Y-141476031D01*
X116858037Y-141451614D01*
X116932217Y-141411964D01*
X116997236Y-141358604D01*
X117050596Y-141293585D01*
X117090246Y-141219405D01*
X117114663Y-141138916D01*
X117122907Y-141055209D01*
X117120841Y-140584959D01*
X117014091Y-140478209D01*
X116116841Y-140478209D01*
X115570841Y-140478209D01*
X114673591Y-140478209D01*
X114566841Y-140584959D01*
X114564775Y-141055209D01*
X99968841Y-141055209D01*
X99968841Y-139355209D01*
X114564775Y-139355209D01*
X114566841Y-139825459D01*
X114673591Y-139932209D01*
X115570841Y-139932209D01*
X115570841Y-139034959D01*
X116116841Y-139034959D01*
X116116841Y-139932209D01*
X117014091Y-139932209D01*
X117120841Y-139825459D01*
X117122907Y-139355209D01*
X117114663Y-139271502D01*
X117090246Y-139191013D01*
X117050596Y-139116833D01*
X116997236Y-139051814D01*
X116932217Y-138998454D01*
X116858037Y-138958804D01*
X116777548Y-138934387D01*
X116693841Y-138926143D01*
X116223591Y-138928209D01*
X116116841Y-139034959D01*
X115570841Y-139034959D01*
X115464091Y-138928209D01*
X114993841Y-138926143D01*
X114910134Y-138934387D01*
X114829645Y-138958804D01*
X114755465Y-138998454D01*
X114690446Y-139051814D01*
X114637086Y-139116833D01*
X114597436Y-139191013D01*
X114573019Y-139271502D01*
X114564775Y-139355209D01*
X99968841Y-139355209D01*
X99968841Y-135490209D01*
X99965783Y-135427967D01*
X99946568Y-135232877D01*
X99922284Y-135110790D01*
X99865379Y-134923197D01*
X99817741Y-134808189D01*
X99725331Y-134635302D01*
X99656173Y-134531800D01*
X99531810Y-134380263D01*
X99443787Y-134292240D01*
X99292250Y-134167877D01*
X99188748Y-134098719D01*
X99015861Y-134006309D01*
X98900853Y-133958671D01*
X98713260Y-133901766D01*
X98591173Y-133877482D01*
X98396083Y-133858267D01*
X98333841Y-133855209D01*
X89538841Y-133855209D01*
X89476599Y-133858267D01*
X89391913Y-133866608D01*
X89391913Y-133640209D01*
X114355769Y-133640209D01*
X114355769Y-135340209D01*
X114368029Y-135464691D01*
X114404339Y-135584389D01*
X114463304Y-135694703D01*
X114542656Y-135791394D01*
X114639347Y-135870746D01*
X114749661Y-135929711D01*
X114869359Y-135966021D01*
X114993841Y-135978281D01*
X116693841Y-135978281D01*
X116818323Y-135966021D01*
X116938021Y-135929711D01*
X117048335Y-135870746D01*
X117145026Y-135791394D01*
X117224378Y-135694703D01*
X117283343Y-135584389D01*
X117319653Y-135464691D01*
X117331913Y-135340209D01*
X117331913Y-133995209D01*
X140608841Y-133995209D01*
X140608841Y-137715209D01*
X146293127Y-137715209D01*
X146293127Y-133995209D01*
X140608841Y-133995209D01*
X117331913Y-133995209D01*
X117331913Y-133640209D01*
X117319653Y-133515727D01*
X117283343Y-133396029D01*
X117224378Y-133285715D01*
X117145026Y-133189024D01*
X117048335Y-133109672D01*
X116938021Y-133050707D01*
X116818323Y-133014397D01*
X116693841Y-133002137D01*
X114993841Y-133002137D01*
X114869359Y-133014397D01*
X114749661Y-133050707D01*
X114639347Y-133109672D01*
X114542656Y-133189024D01*
X114463304Y-133285715D01*
X114404339Y-133396029D01*
X114368029Y-133515727D01*
X114355769Y-133640209D01*
X89391913Y-133640209D01*
X89391913Y-133005209D01*
X89379653Y-132880727D01*
X89343343Y-132761029D01*
X89284378Y-132650715D01*
X89205026Y-132554024D01*
X89108335Y-132474672D01*
X88998021Y-132415707D01*
X88878323Y-132379397D01*
X88753841Y-132367137D01*
X87053841Y-132367137D01*
X86929359Y-132379397D01*
X86809661Y-132415707D01*
X86699347Y-132474672D01*
X86602656Y-132554024D01*
X86523304Y-132650715D01*
X86464339Y-132761029D01*
X86428029Y-132880727D01*
X86415769Y-133005209D01*
X52926763Y-133005209D01*
X52368934Y-132466520D01*
X52349273Y-132450023D01*
X52330809Y-132432192D01*
X52290382Y-132400608D01*
X51381792Y-131740478D01*
X51360026Y-131726878D01*
X51339261Y-131711790D01*
X51294832Y-131686139D01*
X50303212Y-131158886D01*
X50279769Y-131148449D01*
X50257102Y-131136396D01*
X50209535Y-131117178D01*
X49154186Y-130733062D01*
X49129519Y-130725989D01*
X49105394Y-130717208D01*
X49055616Y-130704797D01*
X47957078Y-130471296D01*
X47931653Y-130467723D01*
X47906555Y-130462388D01*
X47855534Y-130457025D01*
X46745412Y-130379398D01*
X46305908Y-130336304D01*
X45942290Y-130226521D01*
X45606927Y-130048205D01*
X45312580Y-129808143D01*
X45070472Y-129515483D01*
X44889816Y-129181368D01*
X44777499Y-128818532D01*
X44734224Y-128406797D01*
X44734224Y-125857494D01*
X105658841Y-125857494D01*
X105658841Y-126612924D01*
X105806218Y-127353837D01*
X106095308Y-128051763D01*
X106515002Y-128679879D01*
X107049171Y-129214048D01*
X107677287Y-129633742D01*
X108375213Y-129922832D01*
X109116126Y-130070209D01*
X109871556Y-130070209D01*
X110612469Y-129922832D01*
X111310395Y-129633742D01*
X111938511Y-129214048D01*
X112472680Y-128679879D01*
X112892374Y-128051763D01*
X113181464Y-127353837D01*
X113328841Y-126612924D01*
X113328841Y-125857494D01*
X113181464Y-125116581D01*
X112892374Y-124418655D01*
X112472680Y-123790539D01*
X111938511Y-123256370D01*
X111310395Y-122836676D01*
X111198214Y-122790209D01*
X112114163Y-122790209D01*
X112354357Y-122766552D01*
X112662556Y-122673061D01*
X112946593Y-122521240D01*
X113195555Y-122316923D01*
X113399872Y-122067961D01*
X113551693Y-121783924D01*
X113645184Y-121475725D01*
X113676752Y-121155209D01*
X113645184Y-120834693D01*
X113551693Y-120526494D01*
X113399872Y-120242457D01*
X113195555Y-119993495D01*
X112948033Y-119790360D01*
X112980473Y-119768684D01*
X113187316Y-119561841D01*
X113349831Y-119318620D01*
X113461773Y-119048367D01*
X113518841Y-118761469D01*
X113518841Y-118468949D01*
X113461773Y-118182051D01*
X113349831Y-117911798D01*
X113187316Y-117668577D01*
X112980473Y-117461734D01*
X112737252Y-117299219D01*
X112568241Y-117229213D01*
X112721745Y-117151104D01*
X112918424Y-116996228D01*
X113081109Y-116805957D01*
X113118866Y-116738621D01*
X123689550Y-116738621D01*
X123690718Y-116764932D01*
X123689775Y-117025209D01*
X123698019Y-117108916D01*
X123722436Y-117189405D01*
X123762086Y-117263585D01*
X123815446Y-117328604D01*
X123880465Y-117381964D01*
X123954645Y-117421614D01*
X124035134Y-117446031D01*
X124118841Y-117454275D01*
X124327549Y-117453780D01*
X124332253Y-117454500D01*
X124349666Y-117453727D01*
X124989091Y-117452209D01*
X125036874Y-117404427D01*
X125081290Y-117448843D01*
X125095839Y-117434294D01*
X125095839Y-117452209D01*
X125317295Y-117452209D01*
X125332253Y-117454500D01*
X125383863Y-117452209D01*
X125641843Y-117452209D01*
X125641843Y-117434294D01*
X125656392Y-117448843D01*
X125700809Y-117404427D01*
X125748591Y-117452209D01*
X126326249Y-117453580D01*
X126332253Y-117454500D01*
X126351613Y-117453641D01*
X126618841Y-117454275D01*
X126702548Y-117446031D01*
X126783037Y-117421614D01*
X126857217Y-117381964D01*
X126922236Y-117328604D01*
X126975596Y-117263585D01*
X127015246Y-117189405D01*
X127039663Y-117108916D01*
X127047907Y-117025209D01*
X127047157Y-116818164D01*
X127048132Y-116811797D01*
X127047045Y-116787312D01*
X127045841Y-116454959D01*
X126939091Y-116348209D01*
X126621893Y-116348209D01*
X126677975Y-116292127D01*
X126662598Y-116161628D01*
X126537249Y-116116108D01*
X126405429Y-116095918D01*
X126272203Y-116101832D01*
X126142691Y-116133623D01*
X126075084Y-116161628D01*
X126059707Y-116292127D01*
X126115789Y-116348209D01*
X125641841Y-116348209D01*
X125641841Y-116368209D01*
X125601893Y-116368209D01*
X125677975Y-116292127D01*
X125662598Y-116161628D01*
X125537249Y-116116108D01*
X125405429Y-116095918D01*
X125272203Y-116101832D01*
X125142691Y-116133623D01*
X125075084Y-116161628D01*
X125059707Y-116292127D01*
X125135789Y-116368209D01*
X125095841Y-116368209D01*
X125095841Y-116348209D01*
X124621893Y-116348209D01*
X124677975Y-116292127D01*
X124662598Y-116161628D01*
X124537249Y-116116108D01*
X124405429Y-116095918D01*
X124272203Y-116101832D01*
X124142691Y-116133623D01*
X124075084Y-116161628D01*
X124059707Y-116292127D01*
X124115789Y-116348209D01*
X123798591Y-116348209D01*
X123691841Y-116454959D01*
X123690844Y-116730173D01*
X123689550Y-116738621D01*
X113118866Y-116738621D01*
X113203548Y-116587604D01*
X113223253Y-116539996D01*
X113171802Y-116348209D01*
X112306841Y-116348209D01*
X112306841Y-116368209D01*
X111760841Y-116368209D01*
X111760841Y-116348209D01*
X110895880Y-116348209D01*
X110844429Y-116539996D01*
X110864134Y-116587604D01*
X110986573Y-116805957D01*
X111149258Y-116996228D01*
X111345937Y-117151104D01*
X111499441Y-117229213D01*
X111330430Y-117299219D01*
X111087209Y-117461734D01*
X110880366Y-117668577D01*
X110763841Y-117842969D01*
X110647316Y-117668577D01*
X110440473Y-117461734D01*
X110197252Y-117299219D01*
X110028241Y-117229213D01*
X110181745Y-117151104D01*
X110378424Y-116996228D01*
X110541109Y-116805957D01*
X110663548Y-116587604D01*
X110683253Y-116539996D01*
X110631802Y-116348209D01*
X109766841Y-116348209D01*
X109766841Y-116368209D01*
X109220841Y-116368209D01*
X109220841Y-116348209D01*
X108355880Y-116348209D01*
X108304429Y-116539996D01*
X108324134Y-116587604D01*
X108446573Y-116805957D01*
X108609258Y-116996228D01*
X108805937Y-117151104D01*
X108959441Y-117229213D01*
X108790430Y-117299219D01*
X108547209Y-117461734D01*
X108340366Y-117668577D01*
X108177851Y-117911798D01*
X108065909Y-118182051D01*
X108008841Y-118468949D01*
X108008841Y-118761469D01*
X108065909Y-119048367D01*
X108177851Y-119318620D01*
X108340366Y-119561841D01*
X108547209Y-119768684D01*
X108579649Y-119790360D01*
X108332127Y-119993495D01*
X108127810Y-120242457D01*
X107975989Y-120526494D01*
X107882498Y-120834693D01*
X107850930Y-121155209D01*
X107882498Y-121475725D01*
X107975989Y-121783924D01*
X108127810Y-122067961D01*
X108332127Y-122316923D01*
X108566764Y-122509484D01*
X108375213Y-122547586D01*
X107677287Y-122836676D01*
X107049171Y-123256370D01*
X106515002Y-123790539D01*
X106095308Y-124418655D01*
X105806218Y-125116581D01*
X105658841Y-125857494D01*
X44734224Y-125857494D01*
X44734224Y-122480960D01*
X74703841Y-122480960D01*
X74720264Y-122647707D01*
X74785165Y-122861655D01*
X74890557Y-123058832D01*
X75032392Y-123231658D01*
X75205218Y-123373493D01*
X75402394Y-123478885D01*
X75616342Y-123543786D01*
X75838841Y-123565700D01*
X76061339Y-123543786D01*
X76275287Y-123478885D01*
X76472464Y-123373493D01*
X76645290Y-123231658D01*
X76787125Y-123058832D01*
X76892517Y-122861656D01*
X76957418Y-122647708D01*
X76973841Y-122480961D01*
X76973841Y-117289457D01*
X76957418Y-117122710D01*
X76892517Y-116908762D01*
X76787125Y-116711586D01*
X76645290Y-116538760D01*
X76472464Y-116396925D01*
X76275288Y-116291533D01*
X76061340Y-116226632D01*
X75838841Y-116204718D01*
X75616343Y-116226632D01*
X75402395Y-116291533D01*
X75205219Y-116396925D01*
X75032393Y-116538760D01*
X74890558Y-116711586D01*
X74785166Y-116908762D01*
X74720265Y-117122710D01*
X74703842Y-117289457D01*
X74703841Y-122480960D01*
X44734224Y-122480960D01*
X44734224Y-112128798D01*
X51593841Y-112128798D01*
X51593841Y-112401620D01*
X51647066Y-112669198D01*
X51751470Y-112921252D01*
X51903042Y-113148095D01*
X52095955Y-113341008D01*
X52322798Y-113492580D01*
X52574852Y-113596984D01*
X52842430Y-113650209D01*
X53115252Y-113650209D01*
X53382830Y-113596984D01*
X53634884Y-113492580D01*
X53789978Y-113388949D01*
X108008841Y-113388949D01*
X108008841Y-113681469D01*
X108065909Y-113968367D01*
X108177851Y-114238620D01*
X108340366Y-114481841D01*
X108547209Y-114688684D01*
X108790430Y-114851199D01*
X108959441Y-114921205D01*
X108805937Y-114999314D01*
X108609258Y-115154190D01*
X108446573Y-115344461D01*
X108324134Y-115562814D01*
X108304429Y-115610422D01*
X108355880Y-115802209D01*
X109220841Y-115802209D01*
X109220841Y-115782209D01*
X109766841Y-115782209D01*
X109766841Y-115802209D01*
X110631802Y-115802209D01*
X110683253Y-115610422D01*
X110844429Y-115610422D01*
X110895880Y-115802209D01*
X111760841Y-115802209D01*
X111760841Y-114934469D01*
X112306841Y-114934469D01*
X112306841Y-115802209D01*
X113171802Y-115802209D01*
X113223253Y-115610422D01*
X113203548Y-115562814D01*
X113081109Y-115344461D01*
X113076116Y-115338621D01*
X123689550Y-115338621D01*
X123690637Y-115363106D01*
X123691841Y-115695459D01*
X123798591Y-115802209D01*
X124115789Y-115802209D01*
X124059707Y-115858291D01*
X124075084Y-115988790D01*
X124200433Y-116034310D01*
X124332253Y-116054500D01*
X124465479Y-116048586D01*
X124594991Y-116016795D01*
X124662598Y-115988790D01*
X124677975Y-115858291D01*
X124621893Y-115802209D01*
X125095841Y-115802209D01*
X125095841Y-115782209D01*
X125135789Y-115782209D01*
X125059707Y-115858291D01*
X125075084Y-115988790D01*
X125200433Y-116034310D01*
X125332253Y-116054500D01*
X125465479Y-116048586D01*
X125594991Y-116016795D01*
X125662598Y-115988790D01*
X125677975Y-115858291D01*
X125601893Y-115782209D01*
X125641841Y-115782209D01*
X125641841Y-115802209D01*
X126115789Y-115802209D01*
X126059707Y-115858291D01*
X126075084Y-115988790D01*
X126200433Y-116034310D01*
X126332253Y-116054500D01*
X126465479Y-116048586D01*
X126594991Y-116016795D01*
X126662598Y-115988790D01*
X126677975Y-115858291D01*
X126621893Y-115802209D01*
X126939091Y-115802209D01*
X127045841Y-115695459D01*
X127046838Y-115420245D01*
X127048132Y-115411797D01*
X127046964Y-115385486D01*
X127047907Y-115125209D01*
X127039663Y-115041502D01*
X127015246Y-114961013D01*
X126975596Y-114886833D01*
X126922236Y-114821814D01*
X126857217Y-114768454D01*
X126783037Y-114728804D01*
X126702548Y-114704387D01*
X126618841Y-114696143D01*
X126410133Y-114696638D01*
X126405429Y-114695918D01*
X126388016Y-114696691D01*
X125748591Y-114698209D01*
X125700809Y-114745992D01*
X125656392Y-114701575D01*
X125641843Y-114716124D01*
X125641843Y-114698209D01*
X125420387Y-114698209D01*
X125405429Y-114695918D01*
X125353819Y-114698209D01*
X125095839Y-114698209D01*
X125095839Y-114716124D01*
X125081290Y-114701575D01*
X125036874Y-114745992D01*
X124989091Y-114698209D01*
X124411433Y-114696838D01*
X124405429Y-114695918D01*
X124386069Y-114696777D01*
X124118841Y-114696143D01*
X124035134Y-114704387D01*
X123954645Y-114728804D01*
X123880465Y-114768454D01*
X123815446Y-114821814D01*
X123762086Y-114886833D01*
X123722436Y-114961013D01*
X123698019Y-115041502D01*
X123689775Y-115125209D01*
X123690525Y-115332254D01*
X123689550Y-115338621D01*
X113076116Y-115338621D01*
X112918424Y-115154190D01*
X112721745Y-114999314D01*
X112498630Y-114885784D01*
X112306841Y-114934469D01*
X111760841Y-114934469D01*
X111569052Y-114885784D01*
X111345937Y-114999314D01*
X111149258Y-115154190D01*
X110986573Y-115344461D01*
X110864134Y-115562814D01*
X110844429Y-115610422D01*
X110683253Y-115610422D01*
X110663548Y-115562814D01*
X110541109Y-115344461D01*
X110378424Y-115154190D01*
X110181745Y-114999314D01*
X110028241Y-114921205D01*
X110197252Y-114851199D01*
X110440473Y-114688684D01*
X110647316Y-114481841D01*
X110809831Y-114238620D01*
X110878408Y-114073060D01*
X110986573Y-114265957D01*
X111149258Y-114456228D01*
X111345937Y-114611104D01*
X111569052Y-114724634D01*
X111760841Y-114675949D01*
X111760841Y-113808209D01*
X112306841Y-113808209D01*
X112306841Y-114675949D01*
X112498630Y-114724634D01*
X112721745Y-114611104D01*
X112918424Y-114456228D01*
X113081109Y-114265957D01*
X113203548Y-114047604D01*
X113223253Y-113999996D01*
X113171802Y-113808209D01*
X112306841Y-113808209D01*
X111760841Y-113808209D01*
X111740841Y-113808209D01*
X111740841Y-113262209D01*
X111760841Y-113262209D01*
X111760841Y-112394469D01*
X112306841Y-112394469D01*
X112306841Y-113262209D01*
X113171802Y-113262209D01*
X113223253Y-113070422D01*
X113203548Y-113022814D01*
X113081109Y-112804461D01*
X112918424Y-112614190D01*
X112721745Y-112459314D01*
X112498630Y-112345784D01*
X112306841Y-112394469D01*
X111760841Y-112394469D01*
X111569052Y-112345784D01*
X111345937Y-112459314D01*
X111149258Y-112614190D01*
X110986573Y-112804461D01*
X110878408Y-112997358D01*
X110809831Y-112831798D01*
X110647316Y-112588577D01*
X110440473Y-112381734D01*
X110197252Y-112219219D01*
X110028241Y-112149213D01*
X110181745Y-112071104D01*
X110378424Y-111916228D01*
X110541109Y-111725957D01*
X110663548Y-111507604D01*
X110683253Y-111459996D01*
X110844429Y-111459996D01*
X110864134Y-111507604D01*
X110986573Y-111725957D01*
X111149258Y-111916228D01*
X111345937Y-112071104D01*
X111569052Y-112184634D01*
X111760841Y-112135949D01*
X111760841Y-111268209D01*
X112306841Y-111268209D01*
X112306841Y-112135949D01*
X112498630Y-112184634D01*
X112721745Y-112071104D01*
X112918424Y-111916228D01*
X113081109Y-111725957D01*
X113203548Y-111507604D01*
X113223253Y-111459996D01*
X113171802Y-111268209D01*
X112306841Y-111268209D01*
X111760841Y-111268209D01*
X110895880Y-111268209D01*
X110844429Y-111459996D01*
X110683253Y-111459996D01*
X110631802Y-111268209D01*
X109766841Y-111268209D01*
X109766841Y-111288209D01*
X109220841Y-111288209D01*
X109220841Y-111268209D01*
X108355880Y-111268209D01*
X108304429Y-111459996D01*
X108324134Y-111507604D01*
X108446573Y-111725957D01*
X108609258Y-111916228D01*
X108805937Y-112071104D01*
X108959441Y-112149213D01*
X108790430Y-112219219D01*
X108547209Y-112381734D01*
X108340366Y-112588577D01*
X108177851Y-112831798D01*
X108065909Y-113102051D01*
X108008841Y-113388949D01*
X53789978Y-113388949D01*
X53861727Y-113341008D01*
X54054640Y-113148095D01*
X54206212Y-112921252D01*
X54310616Y-112669198D01*
X54363841Y-112401620D01*
X54363841Y-112128798D01*
X54310616Y-111861220D01*
X54206212Y-111609166D01*
X54054640Y-111382323D01*
X53861727Y-111189410D01*
X53634884Y-111037838D01*
X53382830Y-110933434D01*
X53115252Y-110880209D01*
X52842430Y-110880209D01*
X52574852Y-110933434D01*
X52322798Y-111037838D01*
X52095955Y-111189410D01*
X51903042Y-111382323D01*
X51751470Y-111609166D01*
X51647066Y-111861220D01*
X51593841Y-112128798D01*
X44734224Y-112128798D01*
X44734224Y-110530422D01*
X108304429Y-110530422D01*
X108355880Y-110722209D01*
X109220841Y-110722209D01*
X109220841Y-109854469D01*
X109766841Y-109854469D01*
X109766841Y-110722209D01*
X110631802Y-110722209D01*
X110683253Y-110530422D01*
X110844429Y-110530422D01*
X110895880Y-110722209D01*
X111760841Y-110722209D01*
X111760841Y-109854469D01*
X112306841Y-109854469D01*
X112306841Y-110722209D01*
X113171802Y-110722209D01*
X113223253Y-110530422D01*
X113203548Y-110482814D01*
X113081109Y-110264461D01*
X112918424Y-110074190D01*
X112721745Y-109919314D01*
X112498630Y-109805784D01*
X112306841Y-109854469D01*
X111760841Y-109854469D01*
X111569052Y-109805784D01*
X111345937Y-109919314D01*
X111149258Y-110074190D01*
X110986573Y-110264461D01*
X110864134Y-110482814D01*
X110844429Y-110530422D01*
X110683253Y-110530422D01*
X110663548Y-110482814D01*
X110541109Y-110264461D01*
X110378424Y-110074190D01*
X110181745Y-109919314D01*
X109958630Y-109805784D01*
X109766841Y-109854469D01*
X109220841Y-109854469D01*
X109029052Y-109805784D01*
X108805937Y-109919314D01*
X108609258Y-110074190D01*
X108446573Y-110264461D01*
X108324134Y-110482814D01*
X108304429Y-110530422D01*
X44734224Y-110530422D01*
X44734224Y-108919996D01*
X108304429Y-108919996D01*
X108324134Y-108967604D01*
X108446573Y-109185957D01*
X108609258Y-109376228D01*
X108805937Y-109531104D01*
X109029052Y-109644634D01*
X109220841Y-109595949D01*
X109220841Y-108728209D01*
X109766841Y-108728209D01*
X109766841Y-109595949D01*
X109958630Y-109644634D01*
X110181745Y-109531104D01*
X110378424Y-109376228D01*
X110541109Y-109185957D01*
X110663548Y-108967604D01*
X110683253Y-108919996D01*
X110844429Y-108919996D01*
X110864134Y-108967604D01*
X110986573Y-109185957D01*
X111149258Y-109376228D01*
X111345937Y-109531104D01*
X111569052Y-109644634D01*
X111760841Y-109595949D01*
X111760841Y-108728209D01*
X112306841Y-108728209D01*
X112306841Y-109595949D01*
X112498630Y-109644634D01*
X112721745Y-109531104D01*
X112918424Y-109376228D01*
X113081109Y-109185957D01*
X113203548Y-108967604D01*
X113223253Y-108919996D01*
X113171802Y-108728209D01*
X112306841Y-108728209D01*
X111760841Y-108728209D01*
X110895880Y-108728209D01*
X110844429Y-108919996D01*
X110683253Y-108919996D01*
X110631802Y-108728209D01*
X109766841Y-108728209D01*
X109220841Y-108728209D01*
X108355880Y-108728209D01*
X108304429Y-108919996D01*
X44734224Y-108919996D01*
X44734224Y-106335209D01*
X92130769Y-106335209D01*
X92130769Y-108035209D01*
X92143029Y-108159691D01*
X92179339Y-108279389D01*
X92238304Y-108389703D01*
X92317656Y-108486394D01*
X92414347Y-108565746D01*
X92524661Y-108624711D01*
X92644359Y-108661021D01*
X92768841Y-108673281D01*
X94468841Y-108673281D01*
X94593323Y-108661021D01*
X94713021Y-108624711D01*
X94823335Y-108565746D01*
X94920026Y-108486394D01*
X94999378Y-108389703D01*
X95058343Y-108279389D01*
X95094653Y-108159691D01*
X95106913Y-108035209D01*
X95106913Y-107990422D01*
X108304429Y-107990422D01*
X108355880Y-108182209D01*
X109220841Y-108182209D01*
X109220841Y-107314469D01*
X109766841Y-107314469D01*
X109766841Y-108182209D01*
X110631802Y-108182209D01*
X110683253Y-107990422D01*
X110844429Y-107990422D01*
X110895880Y-108182209D01*
X111760841Y-108182209D01*
X111760841Y-107314469D01*
X112306841Y-107314469D01*
X112306841Y-108182209D01*
X113171802Y-108182209D01*
X113223253Y-107990422D01*
X113203548Y-107942814D01*
X113081109Y-107724461D01*
X112918424Y-107534190D01*
X112721745Y-107379314D01*
X112498630Y-107265784D01*
X112306841Y-107314469D01*
X111760841Y-107314469D01*
X111569052Y-107265784D01*
X111345937Y-107379314D01*
X111149258Y-107534190D01*
X110986573Y-107724461D01*
X110864134Y-107942814D01*
X110844429Y-107990422D01*
X110683253Y-107990422D01*
X110663548Y-107942814D01*
X110541109Y-107724461D01*
X110378424Y-107534190D01*
X110181745Y-107379314D01*
X109958630Y-107265784D01*
X109766841Y-107314469D01*
X109220841Y-107314469D01*
X109029052Y-107265784D01*
X108805937Y-107379314D01*
X108609258Y-107534190D01*
X108446573Y-107724461D01*
X108324134Y-107942814D01*
X108304429Y-107990422D01*
X95106913Y-107990422D01*
X95106913Y-106379996D01*
X108304429Y-106379996D01*
X108324134Y-106427604D01*
X108446573Y-106645957D01*
X108609258Y-106836228D01*
X108805937Y-106991104D01*
X109029052Y-107104634D01*
X109220841Y-107055949D01*
X109220841Y-106188209D01*
X109766841Y-106188209D01*
X109766841Y-107055949D01*
X109958630Y-107104634D01*
X110181745Y-106991104D01*
X110378424Y-106836228D01*
X110541109Y-106645957D01*
X110663548Y-106427604D01*
X110683253Y-106379996D01*
X110844429Y-106379996D01*
X110864134Y-106427604D01*
X110986573Y-106645957D01*
X111149258Y-106836228D01*
X111345937Y-106991104D01*
X111569052Y-107104634D01*
X111760841Y-107055949D01*
X111760841Y-106188209D01*
X112306841Y-106188209D01*
X112306841Y-107055949D01*
X112498630Y-107104634D01*
X112721745Y-106991104D01*
X112918424Y-106836228D01*
X113081109Y-106645957D01*
X113203548Y-106427604D01*
X113223253Y-106379996D01*
X113171802Y-106188209D01*
X112306841Y-106188209D01*
X111760841Y-106188209D01*
X110895880Y-106188209D01*
X110844429Y-106379996D01*
X110683253Y-106379996D01*
X110631802Y-106188209D01*
X109766841Y-106188209D01*
X109220841Y-106188209D01*
X108355880Y-106188209D01*
X108304429Y-106379996D01*
X95106913Y-106379996D01*
X95106913Y-106335209D01*
X95094653Y-106210727D01*
X95058343Y-106091029D01*
X94999378Y-105980715D01*
X94920026Y-105884024D01*
X94823335Y-105804672D01*
X94713021Y-105745707D01*
X94593323Y-105709397D01*
X94468841Y-105697137D01*
X92768841Y-105697137D01*
X92644359Y-105709397D01*
X92524661Y-105745707D01*
X92414347Y-105804672D01*
X92317656Y-105884024D01*
X92238304Y-105980715D01*
X92179339Y-106091029D01*
X92143029Y-106210727D01*
X92130769Y-106335209D01*
X44734224Y-106335209D01*
X44734224Y-95540209D01*
X101020769Y-95540209D01*
X101020769Y-97240209D01*
X101033029Y-97364691D01*
X101069339Y-97484389D01*
X101128304Y-97594703D01*
X101207656Y-97691394D01*
X101304347Y-97770746D01*
X101414661Y-97829711D01*
X101534359Y-97866021D01*
X101658841Y-97878281D01*
X103358841Y-97878281D01*
X103483323Y-97866021D01*
X103603021Y-97829711D01*
X103713335Y-97770746D01*
X103810026Y-97691394D01*
X103889378Y-97594703D01*
X103948343Y-97484389D01*
X103984653Y-97364691D01*
X103996913Y-97240209D01*
X103996913Y-95540209D01*
X103984653Y-95415727D01*
X103948343Y-95296029D01*
X103889378Y-95185715D01*
X103810026Y-95089024D01*
X103713335Y-95009672D01*
X103603021Y-94950707D01*
X103483323Y-94914397D01*
X103358841Y-94902137D01*
X101658841Y-94902137D01*
X101534359Y-94914397D01*
X101414661Y-94950707D01*
X101304347Y-95009672D01*
X101207656Y-95089024D01*
X101128304Y-95185715D01*
X101069339Y-95296029D01*
X101033029Y-95415727D01*
X101020769Y-95540209D01*
X44734224Y-95540209D01*
X44734224Y-89825209D01*
X101020769Y-89825209D01*
X101020769Y-91525209D01*
X101033029Y-91649691D01*
X101069339Y-91769389D01*
X101128304Y-91879703D01*
X101207656Y-91976394D01*
X101304347Y-92055746D01*
X101414661Y-92114711D01*
X101534359Y-92151021D01*
X101658841Y-92163281D01*
X103358841Y-92163281D01*
X103483323Y-92151021D01*
X103603021Y-92114711D01*
X103713335Y-92055746D01*
X103810026Y-91976394D01*
X103889378Y-91879703D01*
X103948343Y-91769389D01*
X103984653Y-91649691D01*
X103996913Y-91525209D01*
X103996913Y-89825209D01*
X103984653Y-89700727D01*
X103948343Y-89581029D01*
X103889378Y-89470715D01*
X103810026Y-89374024D01*
X103713335Y-89294672D01*
X103603021Y-89235707D01*
X103483323Y-89199397D01*
X103358841Y-89187137D01*
X101658841Y-89187137D01*
X101534359Y-89199397D01*
X101414661Y-89235707D01*
X101304347Y-89294672D01*
X101207656Y-89374024D01*
X101128304Y-89470715D01*
X101069339Y-89581029D01*
X101033029Y-89700727D01*
X101020769Y-89825209D01*
X44734224Y-89825209D01*
X44734224Y-85217494D01*
X105658841Y-85217494D01*
X105658841Y-85972924D01*
X105806218Y-86713837D01*
X106095308Y-87411763D01*
X106515002Y-88039879D01*
X107049171Y-88574048D01*
X107677287Y-88993742D01*
X108339316Y-89267963D01*
X108289347Y-89294672D01*
X108192656Y-89374024D01*
X108113304Y-89470715D01*
X108054339Y-89581029D01*
X108018029Y-89700727D01*
X108005769Y-89825209D01*
X108005769Y-91525209D01*
X108018029Y-91649691D01*
X108054339Y-91769389D01*
X108113304Y-91879703D01*
X108192656Y-91976394D01*
X108289347Y-92055746D01*
X108399661Y-92114711D01*
X108472221Y-92136722D01*
X108340366Y-92268577D01*
X108177851Y-92511798D01*
X108065909Y-92782051D01*
X108008841Y-93068949D01*
X108008841Y-93361469D01*
X108065909Y-93648367D01*
X108177851Y-93918620D01*
X108340366Y-94161841D01*
X108547209Y-94368684D01*
X108721601Y-94485209D01*
X108547209Y-94601734D01*
X108340366Y-94808577D01*
X108177851Y-95051798D01*
X108065909Y-95322051D01*
X108008841Y-95608949D01*
X108008841Y-95901469D01*
X108065909Y-96188367D01*
X108177851Y-96458620D01*
X108340366Y-96701841D01*
X108547209Y-96908684D01*
X108721601Y-97025209D01*
X108547209Y-97141734D01*
X108340366Y-97348577D01*
X108177851Y-97591798D01*
X108065909Y-97862051D01*
X108008841Y-98148949D01*
X108008841Y-98441469D01*
X108065909Y-98728367D01*
X108177851Y-98998620D01*
X108340366Y-99241841D01*
X108547209Y-99448684D01*
X108721601Y-99565209D01*
X108547209Y-99681734D01*
X108340366Y-99888577D01*
X108177851Y-100131798D01*
X108065909Y-100402051D01*
X108008841Y-100688949D01*
X108008841Y-100981469D01*
X108065909Y-101268367D01*
X108177851Y-101538620D01*
X108340366Y-101781841D01*
X108547209Y-101988684D01*
X108721601Y-102105209D01*
X108547209Y-102221734D01*
X108340366Y-102428577D01*
X108177851Y-102671798D01*
X108065909Y-102942051D01*
X108008841Y-103228949D01*
X108008841Y-103521469D01*
X108065909Y-103808367D01*
X108177851Y-104078620D01*
X108340366Y-104321841D01*
X108547209Y-104528684D01*
X108790430Y-104691199D01*
X108959441Y-104761205D01*
X108805937Y-104839314D01*
X108609258Y-104994190D01*
X108446573Y-105184461D01*
X108324134Y-105402814D01*
X108304429Y-105450422D01*
X108355880Y-105642209D01*
X109220841Y-105642209D01*
X109220841Y-105622209D01*
X109766841Y-105622209D01*
X109766841Y-105642209D01*
X110631802Y-105642209D01*
X110683253Y-105450422D01*
X110844429Y-105450422D01*
X110895880Y-105642209D01*
X111760841Y-105642209D01*
X111760841Y-104774469D01*
X112306841Y-104774469D01*
X112306841Y-105642209D01*
X113171802Y-105642209D01*
X113223253Y-105450422D01*
X113203548Y-105402814D01*
X113081109Y-105184461D01*
X112918424Y-104994190D01*
X112721745Y-104839314D01*
X112498630Y-104725784D01*
X112306841Y-104774469D01*
X111760841Y-104774469D01*
X111569052Y-104725784D01*
X111345937Y-104839314D01*
X111149258Y-104994190D01*
X110986573Y-105184461D01*
X110864134Y-105402814D01*
X110844429Y-105450422D01*
X110683253Y-105450422D01*
X110663548Y-105402814D01*
X110541109Y-105184461D01*
X110378424Y-104994190D01*
X110181745Y-104839314D01*
X110028241Y-104761205D01*
X110197252Y-104691199D01*
X110440473Y-104528684D01*
X110647316Y-104321841D01*
X110809831Y-104078620D01*
X110878408Y-103913060D01*
X110986573Y-104105957D01*
X111149258Y-104296228D01*
X111345937Y-104451104D01*
X111569052Y-104564634D01*
X111760841Y-104515949D01*
X111760841Y-103648209D01*
X112306841Y-103648209D01*
X112306841Y-104515949D01*
X112498630Y-104564634D01*
X112721745Y-104451104D01*
X112918424Y-104296228D01*
X113081109Y-104105957D01*
X113203548Y-103887604D01*
X113223253Y-103839996D01*
X113171802Y-103648209D01*
X112306841Y-103648209D01*
X111760841Y-103648209D01*
X111740841Y-103648209D01*
X111740841Y-103102209D01*
X111760841Y-103102209D01*
X111760841Y-103082209D01*
X112306841Y-103082209D01*
X112306841Y-103102209D01*
X113171802Y-103102209D01*
X113223253Y-102910422D01*
X113203548Y-102862814D01*
X113081109Y-102644461D01*
X112918424Y-102454190D01*
X112721745Y-102299314D01*
X112568241Y-102221205D01*
X112737252Y-102151199D01*
X112980473Y-101988684D01*
X113187316Y-101781841D01*
X113349831Y-101538620D01*
X113461773Y-101268367D01*
X113518841Y-100981469D01*
X113518841Y-100688949D01*
X113461773Y-100402051D01*
X113349831Y-100131798D01*
X113187316Y-99888577D01*
X112980473Y-99681734D01*
X112806081Y-99565209D01*
X112980473Y-99448684D01*
X113187316Y-99241841D01*
X113349831Y-98998620D01*
X113461773Y-98728367D01*
X113518841Y-98441469D01*
X113518841Y-98148949D01*
X113461773Y-97862051D01*
X113349831Y-97591798D01*
X113187316Y-97348577D01*
X112980473Y-97141734D01*
X112806081Y-97025209D01*
X112980473Y-96908684D01*
X113187316Y-96701841D01*
X113349831Y-96458620D01*
X113461773Y-96188367D01*
X113518841Y-95901469D01*
X113518841Y-95608949D01*
X113461773Y-95322051D01*
X113349831Y-95051798D01*
X113187316Y-94808577D01*
X112980473Y-94601734D01*
X112806081Y-94485209D01*
X112980473Y-94368684D01*
X113187316Y-94161841D01*
X113349831Y-93918620D01*
X113461773Y-93648367D01*
X113518841Y-93361469D01*
X113518841Y-93068949D01*
X113461773Y-92782051D01*
X113349831Y-92511798D01*
X113187316Y-92268577D01*
X112980473Y-92061734D01*
X112806081Y-91945209D01*
X112980473Y-91828684D01*
X113187316Y-91621841D01*
X113349831Y-91378620D01*
X113461773Y-91108367D01*
X113518841Y-90821469D01*
X113518841Y-90528949D01*
X113461773Y-90242051D01*
X113349831Y-89971798D01*
X113187316Y-89728577D01*
X112980473Y-89521734D01*
X112737252Y-89359219D01*
X112466999Y-89247277D01*
X112180101Y-89190209D01*
X111887581Y-89190209D01*
X111600683Y-89247277D01*
X111330430Y-89359219D01*
X111087209Y-89521734D01*
X110955354Y-89653589D01*
X110933343Y-89581029D01*
X110874378Y-89470715D01*
X110795026Y-89374024D01*
X110698335Y-89294672D01*
X110648366Y-89267963D01*
X111310395Y-88993742D01*
X111938511Y-88574048D01*
X112472680Y-88039879D01*
X112892374Y-87411763D01*
X113181464Y-86713837D01*
X113320429Y-86015209D01*
X116895769Y-86015209D01*
X116895769Y-87715209D01*
X116908029Y-87839691D01*
X116944339Y-87959389D01*
X117003304Y-88069703D01*
X117082656Y-88166394D01*
X117179347Y-88245746D01*
X117289661Y-88304711D01*
X117409359Y-88341021D01*
X117533841Y-88353281D01*
X119233841Y-88353281D01*
X119358323Y-88341021D01*
X119478021Y-88304711D01*
X119588335Y-88245746D01*
X119685026Y-88166394D01*
X119764378Y-88069703D01*
X119823343Y-87959389D01*
X119859653Y-87839691D01*
X119871913Y-87715209D01*
X119871913Y-86015209D01*
X119859653Y-85890727D01*
X119823343Y-85771029D01*
X119764378Y-85660715D01*
X119685026Y-85564024D01*
X119588335Y-85484672D01*
X119478021Y-85425707D01*
X119358323Y-85389397D01*
X119233841Y-85377137D01*
X117533841Y-85377137D01*
X117409359Y-85389397D01*
X117289661Y-85425707D01*
X117179347Y-85484672D01*
X117082656Y-85564024D01*
X117003304Y-85660715D01*
X116944339Y-85771029D01*
X116908029Y-85890727D01*
X116895769Y-86015209D01*
X113320429Y-86015209D01*
X113328841Y-85972924D01*
X113328841Y-85217494D01*
X113223958Y-84690209D01*
X121558841Y-84690209D01*
X121558841Y-86500209D01*
X121561899Y-86562451D01*
X121581114Y-86757541D01*
X121605398Y-86879628D01*
X121662303Y-87067221D01*
X121709941Y-87182229D01*
X121802351Y-87355116D01*
X121871509Y-87458618D01*
X121995872Y-87610155D01*
X122075769Y-87690052D01*
X122075769Y-88103705D01*
X121945990Y-88346504D01*
X121852499Y-88654703D01*
X121828841Y-88894897D01*
X121828841Y-92455521D01*
X121852499Y-92695715D01*
X121945990Y-93003914D01*
X122075769Y-93246713D01*
X122075769Y-93775209D01*
X122087900Y-93899036D01*
X122124084Y-94018772D01*
X122182933Y-94129148D01*
X122262184Y-94225922D01*
X122358792Y-94305375D01*
X122469045Y-94364455D01*
X122588705Y-94400890D01*
X122713174Y-94413281D01*
X122837668Y-94401150D01*
X122957404Y-94364966D01*
X123067780Y-94306117D01*
X123463841Y-94042076D01*
X123859902Y-94306117D01*
X123969661Y-94364711D01*
X124089359Y-94401021D01*
X124213841Y-94413281D01*
X124338323Y-94401021D01*
X124458021Y-94364711D01*
X124568335Y-94305746D01*
X124665026Y-94226394D01*
X124733872Y-94142505D01*
X124802184Y-94225922D01*
X124898792Y-94305375D01*
X125009045Y-94364455D01*
X125128705Y-94400890D01*
X125253174Y-94413281D01*
X125377668Y-94401150D01*
X125497404Y-94364966D01*
X125607780Y-94306117D01*
X126003841Y-94042076D01*
X126399902Y-94306117D01*
X126509661Y-94364711D01*
X126629359Y-94401021D01*
X126753841Y-94413281D01*
X126878323Y-94401021D01*
X126998021Y-94364711D01*
X127108335Y-94305746D01*
X127205026Y-94226394D01*
X127273872Y-94142505D01*
X127342184Y-94225922D01*
X127438792Y-94305375D01*
X127549045Y-94364455D01*
X127668705Y-94400890D01*
X127793174Y-94413281D01*
X127917668Y-94401150D01*
X128037404Y-94364966D01*
X128147780Y-94306117D01*
X128543841Y-94042076D01*
X128939902Y-94306117D01*
X129049661Y-94364711D01*
X129169359Y-94401021D01*
X129293841Y-94413281D01*
X129418323Y-94401021D01*
X129538021Y-94364711D01*
X129648335Y-94305746D01*
X129745026Y-94226394D01*
X129813872Y-94142505D01*
X129882184Y-94225922D01*
X129978792Y-94305375D01*
X130089045Y-94364455D01*
X130208705Y-94400890D01*
X130333174Y-94413281D01*
X130457668Y-94401150D01*
X130577404Y-94364966D01*
X130687780Y-94306117D01*
X131083841Y-94042076D01*
X131479902Y-94306117D01*
X131589661Y-94364711D01*
X131709359Y-94401021D01*
X131833841Y-94413281D01*
X131958323Y-94401021D01*
X132078021Y-94364711D01*
X132188335Y-94305746D01*
X132285026Y-94226394D01*
X132353872Y-94142505D01*
X132422184Y-94225922D01*
X132518792Y-94305375D01*
X132629045Y-94364455D01*
X132748705Y-94400890D01*
X132873174Y-94413281D01*
X132997668Y-94401150D01*
X133117404Y-94364966D01*
X133227780Y-94306117D01*
X133623841Y-94042076D01*
X134019902Y-94306117D01*
X134129661Y-94364711D01*
X134249359Y-94401021D01*
X134373841Y-94413281D01*
X134498323Y-94401021D01*
X134618021Y-94364711D01*
X134728335Y-94305746D01*
X134825026Y-94226394D01*
X134904378Y-94129703D01*
X134963343Y-94019389D01*
X134999653Y-93899691D01*
X135011913Y-93775209D01*
X135011913Y-93246715D01*
X135141693Y-93003914D01*
X135235184Y-92695715D01*
X135258841Y-92455521D01*
X135258841Y-89024688D01*
X135235184Y-88784494D01*
X135141693Y-88476295D01*
X135011913Y-88233494D01*
X135011913Y-87690052D01*
X135091810Y-87610155D01*
X135216173Y-87458618D01*
X135285331Y-87355116D01*
X135352095Y-87230209D01*
X135486603Y-87230209D01*
X138874517Y-90618125D01*
X138874527Y-90618133D01*
X139509518Y-91253125D01*
X139509523Y-91253129D01*
X140030920Y-91774527D01*
X140082127Y-91836923D01*
X140331089Y-92041240D01*
X140615126Y-92193061D01*
X140923324Y-92286552D01*
X141243841Y-92318120D01*
X141564357Y-92286552D01*
X141872556Y-92193061D01*
X142156593Y-92041240D01*
X142405555Y-91836923D01*
X142609872Y-91587961D01*
X142761693Y-91303924D01*
X142855184Y-90995725D01*
X142886752Y-90675209D01*
X142855184Y-90354693D01*
X142845393Y-90322414D01*
X142761693Y-90046494D01*
X142747540Y-90020015D01*
X142609872Y-89762457D01*
X142405555Y-89513495D01*
X142343159Y-89462288D01*
X141821761Y-88940891D01*
X141821757Y-88940886D01*
X141186765Y-88305895D01*
X141186757Y-88305885D01*
X137376766Y-84495896D01*
X137325555Y-84433495D01*
X137076593Y-84229178D01*
X136792556Y-84077357D01*
X136484357Y-83983866D01*
X136244163Y-83960209D01*
X136244160Y-83960209D01*
X136163841Y-83952298D01*
X136083522Y-83960209D01*
X135352095Y-83960209D01*
X135285331Y-83835302D01*
X135216173Y-83731800D01*
X135091810Y-83580263D01*
X135003787Y-83492240D01*
X134852250Y-83367877D01*
X134748748Y-83298719D01*
X134575861Y-83206309D01*
X134460853Y-83158671D01*
X134273260Y-83101766D01*
X134151173Y-83077482D01*
X133956083Y-83058267D01*
X133893841Y-83055209D01*
X123193841Y-83055209D01*
X123131599Y-83058267D01*
X122936509Y-83077482D01*
X122814422Y-83101766D01*
X122626829Y-83158671D01*
X122511821Y-83206309D01*
X122338934Y-83298719D01*
X122235432Y-83367877D01*
X122083895Y-83492240D01*
X121995872Y-83580263D01*
X121871509Y-83731800D01*
X121802351Y-83835302D01*
X121709941Y-84008189D01*
X121662303Y-84123197D01*
X121605398Y-84310790D01*
X121581114Y-84432877D01*
X121561899Y-84627967D01*
X121558841Y-84690209D01*
X113223958Y-84690209D01*
X113181464Y-84476581D01*
X112892374Y-83778655D01*
X112472680Y-83150539D01*
X111938511Y-82616370D01*
X111310395Y-82196676D01*
X111210285Y-82155209D01*
X122134775Y-82155209D01*
X122143019Y-82238916D01*
X122167436Y-82319405D01*
X122207086Y-82393585D01*
X122260446Y-82458604D01*
X122325465Y-82511964D01*
X122399645Y-82551614D01*
X122480134Y-82576031D01*
X122563841Y-82584275D01*
X123084091Y-82582209D01*
X123190841Y-82475459D01*
X123190841Y-81765709D01*
X123736841Y-81765709D01*
X123736841Y-82475459D01*
X123843591Y-82582209D01*
X124363841Y-82584275D01*
X124447548Y-82576031D01*
X124528037Y-82551614D01*
X124602217Y-82511964D01*
X124667236Y-82458604D01*
X124720596Y-82393585D01*
X124733841Y-82368805D01*
X124747086Y-82393585D01*
X124800446Y-82458604D01*
X124865465Y-82511964D01*
X124939645Y-82551614D01*
X125020134Y-82576031D01*
X125103841Y-82584275D01*
X125624091Y-82582209D01*
X125730841Y-82475459D01*
X125730841Y-81765709D01*
X126276841Y-81765709D01*
X126276841Y-82475459D01*
X126383591Y-82582209D01*
X126903841Y-82584275D01*
X126987548Y-82576031D01*
X127068037Y-82551614D01*
X127142217Y-82511964D01*
X127207236Y-82458604D01*
X127260596Y-82393585D01*
X127273841Y-82368805D01*
X127287086Y-82393585D01*
X127340446Y-82458604D01*
X127405465Y-82511964D01*
X127479645Y-82551614D01*
X127560134Y-82576031D01*
X127643841Y-82584275D01*
X128164091Y-82582209D01*
X128270841Y-82475459D01*
X128270841Y-81765709D01*
X128816841Y-81765709D01*
X128816841Y-82475459D01*
X128923591Y-82582209D01*
X129443841Y-82584275D01*
X129527548Y-82576031D01*
X129608037Y-82551614D01*
X129682217Y-82511964D01*
X129747236Y-82458604D01*
X129800596Y-82393585D01*
X129813841Y-82368805D01*
X129827086Y-82393585D01*
X129880446Y-82458604D01*
X129945465Y-82511964D01*
X130019645Y-82551614D01*
X130100134Y-82576031D01*
X130183841Y-82584275D01*
X130704091Y-82582209D01*
X130810841Y-82475459D01*
X130810841Y-81765709D01*
X131356841Y-81765709D01*
X131356841Y-82475459D01*
X131463591Y-82582209D01*
X131983841Y-82584275D01*
X132067548Y-82576031D01*
X132148037Y-82551614D01*
X132222217Y-82511964D01*
X132287236Y-82458604D01*
X132340596Y-82393585D01*
X132353841Y-82368805D01*
X132367086Y-82393585D01*
X132420446Y-82458604D01*
X132485465Y-82511964D01*
X132559645Y-82551614D01*
X132640134Y-82576031D01*
X132723841Y-82584275D01*
X133244091Y-82582209D01*
X133350841Y-82475459D01*
X133350841Y-81765709D01*
X133896841Y-81765709D01*
X133896841Y-82475459D01*
X134003591Y-82582209D01*
X134523841Y-82584275D01*
X134607548Y-82576031D01*
X134688037Y-82551614D01*
X134762217Y-82511964D01*
X134827236Y-82458604D01*
X134880596Y-82393585D01*
X134920246Y-82319405D01*
X134944663Y-82238916D01*
X134952907Y-82155209D01*
X134950841Y-81872459D01*
X134844091Y-81765709D01*
X133896841Y-81765709D01*
X133350841Y-81765709D01*
X132403591Y-81765709D01*
X132353841Y-81815459D01*
X132304091Y-81765709D01*
X131356841Y-81765709D01*
X130810841Y-81765709D01*
X129863591Y-81765709D01*
X129813841Y-81815459D01*
X129764091Y-81765709D01*
X128816841Y-81765709D01*
X128270841Y-81765709D01*
X127323591Y-81765709D01*
X127273841Y-81815459D01*
X127224091Y-81765709D01*
X126276841Y-81765709D01*
X125730841Y-81765709D01*
X124783591Y-81765709D01*
X124733841Y-81815459D01*
X124684091Y-81765709D01*
X123736841Y-81765709D01*
X123190841Y-81765709D01*
X122243591Y-81765709D01*
X122136841Y-81872459D01*
X122134775Y-82155209D01*
X111210285Y-82155209D01*
X110612469Y-81907586D01*
X109871556Y-81760209D01*
X109116126Y-81760209D01*
X108375213Y-81907586D01*
X107677287Y-82196676D01*
X107049171Y-82616370D01*
X106515002Y-83150539D01*
X106095308Y-83778655D01*
X105806218Y-84476581D01*
X105658841Y-85217494D01*
X44734224Y-85217494D01*
X44734224Y-80283421D01*
X84058841Y-80283421D01*
X84058841Y-80506997D01*
X84102458Y-80726276D01*
X84188017Y-80932833D01*
X84312229Y-81118729D01*
X84470321Y-81276821D01*
X84656217Y-81401033D01*
X84862774Y-81486592D01*
X85082053Y-81530209D01*
X85305629Y-81530209D01*
X85524908Y-81486592D01*
X85731465Y-81401033D01*
X85917361Y-81276821D01*
X86075453Y-81118729D01*
X86199665Y-80932833D01*
X86285224Y-80726276D01*
X86328841Y-80506997D01*
X86328841Y-80283421D01*
X88058841Y-80283421D01*
X88058841Y-80506997D01*
X88102458Y-80726276D01*
X88188017Y-80932833D01*
X88312229Y-81118729D01*
X88470321Y-81276821D01*
X88656217Y-81401033D01*
X88862774Y-81486592D01*
X89082053Y-81530209D01*
X89305629Y-81530209D01*
X89524908Y-81486592D01*
X89731465Y-81401033D01*
X89917361Y-81276821D01*
X90075453Y-81118729D01*
X90199665Y-80932833D01*
X90242173Y-80830209D01*
X122134775Y-80830209D01*
X122136841Y-81112959D01*
X122243591Y-81219709D01*
X123190841Y-81219709D01*
X123190841Y-80509959D01*
X123736841Y-80509959D01*
X123736841Y-81219709D01*
X124684091Y-81219709D01*
X124733841Y-81169959D01*
X124783591Y-81219709D01*
X125730841Y-81219709D01*
X125730841Y-80509959D01*
X126276841Y-80509959D01*
X126276841Y-81219709D01*
X127224091Y-81219709D01*
X127273841Y-81169959D01*
X127323591Y-81219709D01*
X128270841Y-81219709D01*
X128270841Y-80509959D01*
X128816841Y-80509959D01*
X128816841Y-81219709D01*
X129764091Y-81219709D01*
X129813841Y-81169959D01*
X129863591Y-81219709D01*
X130810841Y-81219709D01*
X130810841Y-80509959D01*
X131356841Y-80509959D01*
X131356841Y-81219709D01*
X132304091Y-81219709D01*
X132353841Y-81169959D01*
X132403591Y-81219709D01*
X133350841Y-81219709D01*
X133350841Y-80509959D01*
X133896841Y-80509959D01*
X133896841Y-81219709D01*
X134844091Y-81219709D01*
X134950841Y-81112959D01*
X134952907Y-80830209D01*
X134944663Y-80746502D01*
X134920246Y-80666013D01*
X134880596Y-80591833D01*
X134827236Y-80526814D01*
X134762217Y-80473454D01*
X134688037Y-80433804D01*
X134607548Y-80409387D01*
X134523841Y-80401143D01*
X134003591Y-80403209D01*
X133896841Y-80509959D01*
X133350841Y-80509959D01*
X133244091Y-80403209D01*
X132723841Y-80401143D01*
X132640134Y-80409387D01*
X132559645Y-80433804D01*
X132485465Y-80473454D01*
X132420446Y-80526814D01*
X132367086Y-80591833D01*
X132353841Y-80616613D01*
X132340596Y-80591833D01*
X132287236Y-80526814D01*
X132222217Y-80473454D01*
X132148037Y-80433804D01*
X132067548Y-80409387D01*
X131983841Y-80401143D01*
X131463591Y-80403209D01*
X131356841Y-80509959D01*
X130810841Y-80509959D01*
X130704091Y-80403209D01*
X130183841Y-80401143D01*
X130100134Y-80409387D01*
X130019645Y-80433804D01*
X129945465Y-80473454D01*
X129880446Y-80526814D01*
X129827086Y-80591833D01*
X129813841Y-80616613D01*
X129800596Y-80591833D01*
X129747236Y-80526814D01*
X129682217Y-80473454D01*
X129608037Y-80433804D01*
X129527548Y-80409387D01*
X129443841Y-80401143D01*
X128923591Y-80403209D01*
X128816841Y-80509959D01*
X128270841Y-80509959D01*
X128164091Y-80403209D01*
X127643841Y-80401143D01*
X127560134Y-80409387D01*
X127479645Y-80433804D01*
X127405465Y-80473454D01*
X127340446Y-80526814D01*
X127287086Y-80591833D01*
X127273841Y-80616613D01*
X127260596Y-80591833D01*
X127207236Y-80526814D01*
X127142217Y-80473454D01*
X127068037Y-80433804D01*
X126987548Y-80409387D01*
X126903841Y-80401143D01*
X126383591Y-80403209D01*
X126276841Y-80509959D01*
X125730841Y-80509959D01*
X125624091Y-80403209D01*
X125103841Y-80401143D01*
X125020134Y-80409387D01*
X124939645Y-80433804D01*
X124865465Y-80473454D01*
X124800446Y-80526814D01*
X124747086Y-80591833D01*
X124733841Y-80616613D01*
X124720596Y-80591833D01*
X124667236Y-80526814D01*
X124602217Y-80473454D01*
X124528037Y-80433804D01*
X124447548Y-80409387D01*
X124363841Y-80401143D01*
X123843591Y-80403209D01*
X123736841Y-80509959D01*
X123190841Y-80509959D01*
X123084091Y-80403209D01*
X122563841Y-80401143D01*
X122480134Y-80409387D01*
X122399645Y-80433804D01*
X122325465Y-80473454D01*
X122260446Y-80526814D01*
X122207086Y-80591833D01*
X122167436Y-80666013D01*
X122143019Y-80746502D01*
X122134775Y-80830209D01*
X90242173Y-80830209D01*
X90285224Y-80726276D01*
X90328841Y-80506997D01*
X90328841Y-80283421D01*
X90285224Y-80064142D01*
X90199665Y-79857585D01*
X90075453Y-79671689D01*
X89917361Y-79513597D01*
X89731465Y-79389385D01*
X89524908Y-79303826D01*
X89305629Y-79260209D01*
X89082053Y-79260209D01*
X88862774Y-79303826D01*
X88656217Y-79389385D01*
X88470321Y-79513597D01*
X88312229Y-79671689D01*
X88188017Y-79857585D01*
X88102458Y-80064142D01*
X88058841Y-80283421D01*
X86328841Y-80283421D01*
X86285224Y-80064142D01*
X86199665Y-79857585D01*
X86075453Y-79671689D01*
X85917361Y-79513597D01*
X85731465Y-79389385D01*
X85524908Y-79303826D01*
X85305629Y-79260209D01*
X85082053Y-79260209D01*
X84862774Y-79303826D01*
X84656217Y-79389385D01*
X84470321Y-79513597D01*
X84312229Y-79671689D01*
X84188017Y-79857585D01*
X84102458Y-80064142D01*
X84058841Y-80283421D01*
X44734224Y-80283421D01*
X44734224Y-80276495D01*
X44755767Y-80056780D01*
X44809140Y-79880002D01*
X44895834Y-79716952D01*
X45012542Y-79573854D01*
X45154827Y-79456145D01*
X45317262Y-79368318D01*
X45493669Y-79313711D01*
X45719528Y-79289971D01*
X45719924Y-79289979D01*
X45727610Y-79289561D01*
X46747210Y-79228847D01*
X46789849Y-79223379D01*
X46832612Y-79218722D01*
X46840182Y-79217330D01*
X47988531Y-79000024D01*
X48033160Y-78988387D01*
X48077967Y-78977202D01*
X48085278Y-78974796D01*
X49193511Y-78603652D01*
X49236206Y-78586041D01*
X49279022Y-78568903D01*
X49285926Y-78565532D01*
X49285939Y-78565527D01*
X49285950Y-78565520D01*
X50333548Y-78047412D01*
X50373446Y-78024176D01*
X50413552Y-78001379D01*
X50419947Y-77997096D01*
X51387548Y-77341597D01*
X51423900Y-77313180D01*
X51460564Y-77285133D01*
X51466311Y-77280028D01*
X51466319Y-77280021D01*
X51466326Y-77280014D01*
X52336004Y-76499270D01*
X52368178Y-76466167D01*
X52400681Y-76433419D01*
X52405689Y-76427573D01*
X53161370Y-75536016D01*
X53188783Y-75498813D01*
X53216512Y-75461995D01*
X53220675Y-75455532D01*
X53220680Y-75455525D01*
X53220684Y-75455518D01*
X53848370Y-74469657D01*
X53870452Y-74429129D01*
X53892956Y-74388838D01*
X53896207Y-74381861D01*
X53939246Y-74288220D01*
X53948491Y-74334695D01*
X54320501Y-75232808D01*
X54860576Y-76041088D01*
X55547962Y-76728474D01*
X56356242Y-77268549D01*
X57254355Y-77640559D01*
X58207786Y-77830209D01*
X59179896Y-77830209D01*
X60133327Y-77640559D01*
X60995535Y-77283421D01*
X84058841Y-77283421D01*
X84058841Y-77506997D01*
X84102458Y-77726276D01*
X84188017Y-77932833D01*
X84312229Y-78118729D01*
X84470321Y-78276821D01*
X84656217Y-78401033D01*
X84862774Y-78486592D01*
X85082053Y-78530209D01*
X85305629Y-78530209D01*
X85524908Y-78486592D01*
X85731465Y-78401033D01*
X85917361Y-78276821D01*
X86075453Y-78118729D01*
X86199665Y-77932833D01*
X86285224Y-77726276D01*
X86328841Y-77506997D01*
X86328841Y-77283421D01*
X88058841Y-77283421D01*
X88058841Y-77506997D01*
X88102458Y-77726276D01*
X88188017Y-77932833D01*
X88312229Y-78118729D01*
X88470321Y-78276821D01*
X88656217Y-78401033D01*
X88862774Y-78486592D01*
X89082053Y-78530209D01*
X89305629Y-78530209D01*
X89524908Y-78486592D01*
X89731465Y-78401033D01*
X89917361Y-78276821D01*
X90075453Y-78118729D01*
X90199665Y-77932833D01*
X90285224Y-77726276D01*
X90328841Y-77506997D01*
X90328841Y-77283421D01*
X90285224Y-77064142D01*
X90199665Y-76857585D01*
X90075453Y-76671689D01*
X89917361Y-76513597D01*
X89731465Y-76389385D01*
X89524908Y-76303826D01*
X89305629Y-76260209D01*
X89082053Y-76260209D01*
X88862774Y-76303826D01*
X88656217Y-76389385D01*
X88470321Y-76513597D01*
X88312229Y-76671689D01*
X88188017Y-76857585D01*
X88102458Y-77064142D01*
X88058841Y-77283421D01*
X86328841Y-77283421D01*
X86285224Y-77064142D01*
X86199665Y-76857585D01*
X86075453Y-76671689D01*
X85917361Y-76513597D01*
X85731465Y-76389385D01*
X85524908Y-76303826D01*
X85305629Y-76260209D01*
X85082053Y-76260209D01*
X84862774Y-76303826D01*
X84656217Y-76389385D01*
X84470321Y-76513597D01*
X84312229Y-76671689D01*
X84188017Y-76857585D01*
X84102458Y-77064142D01*
X84058841Y-77283421D01*
X60995535Y-77283421D01*
X61031440Y-77268549D01*
X61839720Y-76728474D01*
X62527106Y-76041088D01*
X63067181Y-75232808D01*
X63439191Y-74334695D01*
X63628841Y-73381264D01*
X63628841Y-72409154D01*
X63439191Y-71455723D01*
X63067181Y-70557610D01*
X62527106Y-69749330D01*
X61839720Y-69061944D01*
X61670806Y-68949079D01*
X62317940Y-69012531D01*
X62927306Y-69196510D01*
X63489327Y-69495342D01*
X63982599Y-69897646D01*
X64390751Y-70391016D01*
X64696560Y-70943057D01*
X65035458Y-71554828D01*
X65071158Y-71606608D01*
X65105585Y-71659218D01*
X65112071Y-71667171D01*
X65609684Y-72268682D01*
X65656990Y-72315659D01*
X65703562Y-72363217D01*
X65711469Y-72369759D01*
X66316439Y-72863161D01*
X66371981Y-72900063D01*
X66426893Y-72937662D01*
X66435920Y-72942544D01*
X67125204Y-73309042D01*
X67186810Y-73334435D01*
X67248024Y-73360671D01*
X67257827Y-73363706D01*
X68005171Y-73589343D01*
X68070561Y-73602290D01*
X68135681Y-73616132D01*
X68145885Y-73617205D01*
X68145887Y-73617205D01*
X68920627Y-73693169D01*
X68958442Y-73696893D01*
X117410461Y-73696893D01*
X117442485Y-73693739D01*
X118135301Y-73632940D01*
X118197116Y-73621355D01*
X118259179Y-73611269D01*
X118269081Y-73608573D01*
X119020875Y-73398236D01*
X119082994Y-73374104D01*
X119145395Y-73350859D01*
X119154581Y-73346293D01*
X119154586Y-73346291D01*
X119154590Y-73346289D01*
X119851206Y-72993937D01*
X119907476Y-72958185D01*
X119964154Y-72923275D01*
X119972282Y-72917010D01*
X120587196Y-72436058D01*
X120635433Y-72390074D01*
X120684269Y-72344803D01*
X120691019Y-72337084D01*
X120691024Y-72337079D01*
X120691028Y-72337074D01*
X121200810Y-71745848D01*
X121239177Y-71691397D01*
X121278308Y-71637478D01*
X121283435Y-71628588D01*
X121668676Y-70949600D01*
X122018355Y-70333290D01*
X122434014Y-69851225D01*
X122935399Y-69459069D01*
X123503401Y-69171771D01*
X124120038Y-68999249D01*
X124716640Y-68946893D01*
X133767363Y-68946893D01*
X133616765Y-69009273D01*
%TA.AperFunction,Conductor*%
D29*
G36*
X133616765Y-69009273D02*
G01*
X132898567Y-69489157D01*
X132287789Y-70099935D01*
X131807905Y-70818133D01*
X131477354Y-71616152D01*
X131308841Y-72463324D01*
X131308841Y-73327094D01*
X131477354Y-74174266D01*
X131807905Y-74972285D01*
X132287789Y-75690483D01*
X132898567Y-76301261D01*
X133616765Y-76781145D01*
X134414784Y-77111696D01*
X135261956Y-77280209D01*
X136125726Y-77280209D01*
X136972898Y-77111696D01*
X137770917Y-76781145D01*
X138489115Y-76301261D01*
X138899452Y-75890924D01*
X138899452Y-78797997D01*
X138900082Y-78804393D01*
X138904468Y-79055662D01*
X138905028Y-79062058D01*
X138904803Y-79068485D01*
X138908382Y-79119663D01*
X139025776Y-80236589D01*
X139030233Y-80261866D01*
X139032916Y-80287392D01*
X139043583Y-80337573D01*
X139315280Y-81427292D01*
X139323208Y-81451693D01*
X139329420Y-81476608D01*
X139346967Y-81524816D01*
X139767680Y-82566117D01*
X139778930Y-82589183D01*
X139788546Y-82612984D01*
X139812631Y-82658281D01*
X140374171Y-83630896D01*
X140388525Y-83652176D01*
X140401357Y-83674403D01*
X140431512Y-83715907D01*
X141122948Y-84600905D01*
X141140120Y-84619977D01*
X141155924Y-84640205D01*
X141191562Y-84677109D01*
X141999438Y-85457266D01*
X142019099Y-85473763D01*
X142037563Y-85491594D01*
X142077990Y-85523179D01*
X142986580Y-86183308D01*
X143008344Y-86196907D01*
X143029111Y-86211996D01*
X143073540Y-86237646D01*
X144065160Y-86764900D01*
X144088603Y-86775337D01*
X144111270Y-86787390D01*
X144158837Y-86806608D01*
X145214186Y-87190724D01*
X145238853Y-87197797D01*
X145262978Y-87206578D01*
X145312756Y-87218989D01*
X146411294Y-87452490D01*
X146436720Y-87456063D01*
X146461817Y-87461398D01*
X146512838Y-87466761D01*
X147622964Y-87544389D01*
X148062477Y-87587483D01*
X148426110Y-87697271D01*
X148761489Y-87875595D01*
X149055845Y-88115664D01*
X149297963Y-88408336D01*
X149478625Y-88742462D01*
X149590948Y-89105322D01*
X149634225Y-89517074D01*
X149634224Y-138162315D01*
X149622202Y-138284927D01*
X149597029Y-138368304D01*
X149556140Y-138445204D01*
X149501098Y-138512692D01*
X149433992Y-138568207D01*
X149357378Y-138609632D01*
X149274185Y-138635385D01*
X149162310Y-138647143D01*
X149144568Y-138646751D01*
X148858770Y-138636954D01*
X148831392Y-138637880D01*
X148804024Y-138637118D01*
X148796335Y-138637468D01*
X147629108Y-138696707D01*
X147583286Y-138702175D01*
X147537400Y-138707164D01*
X147529830Y-138708554D01*
X146381442Y-138925656D01*
X146336787Y-138937292D01*
X146292002Y-138948463D01*
X146284690Y-138950868D01*
X145176392Y-139321816D01*
X145133702Y-139339416D01*
X145090876Y-139356550D01*
X145083963Y-139359922D01*
X145083951Y-139359928D01*
X144036257Y-139877853D01*
X143996339Y-139901091D01*
X143956245Y-139923872D01*
X143949860Y-139928147D01*
X143949849Y-139928154D01*
X143949839Y-139928161D01*
X142982132Y-140583480D01*
X142945761Y-140611902D01*
X142909106Y-140639932D01*
X142903351Y-140645043D01*
X142033525Y-141425641D01*
X142001317Y-141458768D01*
X141968836Y-141491482D01*
X141963828Y-141497326D01*
X141207990Y-142388749D01*
X141180579Y-142425935D01*
X141152835Y-142462760D01*
X141148666Y-142469230D01*
X140520801Y-143454985D01*
X140498692Y-143495544D01*
X140476201Y-143535796D01*
X140472958Y-143542753D01*
X140472948Y-143542772D01*
X140472941Y-143542790D01*
X140461471Y-143567733D01*
X140439191Y-143455723D01*
X140067181Y-142557610D01*
X139527106Y-141749330D01*
X138839720Y-141061944D01*
X138031440Y-140521869D01*
X137133327Y-140149859D01*
X136179896Y-139960209D01*
X135207786Y-139960209D01*
X134254355Y-140149859D01*
X133356242Y-140521869D01*
X132547962Y-141061944D01*
X131860576Y-141749330D01*
X131320501Y-142557610D01*
X130948491Y-143455723D01*
X130758841Y-144409154D01*
X130758841Y-145381264D01*
X130931240Y-146247968D01*
X130440779Y-145655103D01*
X130393489Y-145608142D01*
X130346900Y-145560567D01*
X130338993Y-145554025D01*
X129734022Y-145060624D01*
X129678532Y-145023757D01*
X129623570Y-144986123D01*
X129614543Y-144981242D01*
X128925259Y-144614743D01*
X128863653Y-144589350D01*
X128802439Y-144563114D01*
X128792639Y-144560080D01*
X128792633Y-144560078D01*
X128045291Y-144334442D01*
X127979908Y-144321496D01*
X127914781Y-144307653D01*
X127904577Y-144306580D01*
X127904575Y-144306580D01*
X127127638Y-144230401D01*
X127092020Y-144226893D01*
X112276884Y-144226893D01*
X112263938Y-144228168D01*
X112004459Y-144237344D01*
X111961059Y-144243154D01*
X111917348Y-144245637D01*
X111907219Y-144247287D01*
X111137604Y-144378158D01*
X111073308Y-144395688D01*
X111008825Y-144412305D01*
X110999213Y-144415889D01*
X110999209Y-144415890D01*
X110999206Y-144415892D01*
X110269670Y-144693754D01*
X110209997Y-144723442D01*
X110149975Y-144752265D01*
X110141243Y-144757647D01*
X110141240Y-144757649D01*
X110141239Y-144757650D01*
X109479565Y-145171923D01*
X109426759Y-145212664D01*
X109373515Y-145252569D01*
X109365997Y-145259542D01*
X109365991Y-145259547D01*
X109365986Y-145259553D01*
X108797385Y-145794451D01*
X108753520Y-145844647D01*
X108709019Y-145894159D01*
X108702994Y-145902466D01*
X108249114Y-146537625D01*
X108215829Y-146595394D01*
X108181797Y-146652598D01*
X108177500Y-146661917D01*
X107855686Y-147373021D01*
X107855632Y-147373139D01*
X107643945Y-147840900D01*
X107387334Y-148200000D01*
X107065865Y-148502415D01*
X106691775Y-148736633D01*
X106279312Y-148893730D01*
X105821444Y-148971589D01*
X105671456Y-148976893D01*
X80220389Y-148976893D01*
X79745195Y-148930299D01*
X79322668Y-148802731D01*
X78932971Y-148595525D01*
X78590938Y-148316570D01*
X78309602Y-147976494D01*
X78088701Y-147567943D01*
X78030862Y-147415479D01*
X77930581Y-147151133D01*
X77911127Y-147111901D01*
X77894727Y-147071308D01*
X77889910Y-147062247D01*
X77518607Y-146375537D01*
X77481315Y-146320249D01*
X77444878Y-146264568D01*
X77438393Y-146256615D01*
X76940779Y-145655103D01*
X76893489Y-145608142D01*
X76846900Y-145560567D01*
X76838993Y-145554025D01*
X76234022Y-145060624D01*
X76178532Y-145023757D01*
X76123570Y-144986123D01*
X76114543Y-144981242D01*
X75425259Y-144614743D01*
X75363653Y-144589350D01*
X75302439Y-144563114D01*
X75292639Y-144560080D01*
X75292633Y-144560078D01*
X74545291Y-144334442D01*
X74479908Y-144321496D01*
X74414781Y-144307653D01*
X74404577Y-144306580D01*
X74404575Y-144306580D01*
X73627638Y-144230401D01*
X73592020Y-144226893D01*
X68958442Y-144226893D01*
X68926410Y-144230048D01*
X68233602Y-144290846D01*
X68171805Y-144302428D01*
X68109724Y-144312517D01*
X68099823Y-144315213D01*
X67348028Y-144525550D01*
X67285898Y-144549687D01*
X67223508Y-144572927D01*
X67214322Y-144577493D01*
X67214317Y-144577495D01*
X67214313Y-144577497D01*
X66517697Y-144929849D01*
X66461442Y-144965592D01*
X66404749Y-145000511D01*
X66396621Y-145006776D01*
X65781706Y-145487728D01*
X65733451Y-145533730D01*
X65684634Y-145578983D01*
X65677884Y-145586702D01*
X65677879Y-145586707D01*
X65677875Y-145586712D01*
X65168093Y-146177938D01*
X65129703Y-146232420D01*
X65090595Y-146286308D01*
X65085468Y-146295198D01*
X64700227Y-146974186D01*
X64700223Y-146974194D01*
X64350549Y-147590496D01*
X63934890Y-148072560D01*
X63433502Y-148464718D01*
X62865502Y-148752015D01*
X62248866Y-148924538D01*
X61652264Y-148976893D01*
X60298341Y-148976893D01*
X60770917Y-148781145D01*
X61489115Y-148301261D01*
X62099893Y-147690483D01*
X62579777Y-146972285D01*
X62910328Y-146174266D01*
X63078841Y-145327094D01*
X63078841Y-144463324D01*
X62910328Y-143616152D01*
X62579777Y-142818133D01*
X62099893Y-142099935D01*
X61489115Y-141489157D01*
X60770917Y-141009273D01*
X59972898Y-140678722D01*
X59125726Y-140510209D01*
X58261956Y-140510209D01*
X57414784Y-140678722D01*
X56616765Y-141009273D01*
X55898567Y-141489157D01*
X55468920Y-141918804D01*
X55468920Y-139125788D01*
X55468290Y-139119392D01*
X55463904Y-138868124D01*
X55463344Y-138861728D01*
X55463569Y-138855300D01*
X55459990Y-138804123D01*
X55342596Y-137687196D01*
X55338138Y-137661917D01*
X55335456Y-137636394D01*
X55324789Y-137586213D01*
X55053092Y-136496494D01*
X55045164Y-136472094D01*
X55038952Y-136447178D01*
X55021405Y-136398970D01*
X54600692Y-135357669D01*
X54589444Y-135334606D01*
X54579826Y-135310801D01*
X54555752Y-135265528D01*
X54555741Y-135265505D01*
X54555734Y-135265495D01*
X53994201Y-134292890D01*
X53979848Y-134271611D01*
X53967015Y-134249383D01*
X53936860Y-134207879D01*
X53245424Y-133322881D01*
X53228252Y-133303809D01*
X53212448Y-133283581D01*
X53176810Y-133246677D01*
X52926763Y-133005209D01*
X86415769Y-133005209D01*
X86415769Y-134705209D01*
X86428029Y-134829691D01*
X86464339Y-134949389D01*
X86523304Y-135059703D01*
X86602656Y-135156394D01*
X86699347Y-135235746D01*
X86809661Y-135294711D01*
X86929359Y-135331021D01*
X87053841Y-135343281D01*
X87915240Y-135343281D01*
X87906899Y-135427967D01*
X87903841Y-135490209D01*
X87903841Y-141110209D01*
X87906899Y-141172451D01*
X87926114Y-141367541D01*
X87950398Y-141489628D01*
X88007303Y-141677221D01*
X88054941Y-141792229D01*
X88147351Y-141965116D01*
X88216509Y-142068618D01*
X88340872Y-142220155D01*
X88428895Y-142308178D01*
X88580432Y-142432541D01*
X88683934Y-142501699D01*
X88856821Y-142594109D01*
X88971829Y-142641747D01*
X89159422Y-142698652D01*
X89281509Y-142722936D01*
X89476599Y-142742151D01*
X89538841Y-142745209D01*
X98333841Y-142745209D01*
X98396083Y-142742151D01*
X98591173Y-142722936D01*
X98713260Y-142698652D01*
X98900853Y-142641747D01*
X99015861Y-142594109D01*
X99188748Y-142501699D01*
X99292250Y-142432541D01*
X99443787Y-142308178D01*
X99531810Y-142220155D01*
X99656173Y-142068618D01*
X99725331Y-141965116D01*
X99817741Y-141792229D01*
X99865379Y-141677221D01*
X99922284Y-141489628D01*
X99946568Y-141367541D01*
X99965783Y-141172451D01*
X99968841Y-141110209D01*
X99968841Y-141055209D01*
X114564775Y-141055209D01*
X114573019Y-141138916D01*
X114597436Y-141219405D01*
X114637086Y-141293585D01*
X114690446Y-141358604D01*
X114755465Y-141411964D01*
X114829645Y-141451614D01*
X114910134Y-141476031D01*
X114993841Y-141484275D01*
X115464091Y-141482209D01*
X115570841Y-141375459D01*
X115570841Y-140478209D01*
X116116841Y-140478209D01*
X116116841Y-141375459D01*
X116223591Y-141482209D01*
X116693841Y-141484275D01*
X116777548Y-141476031D01*
X116858037Y-141451614D01*
X116932217Y-141411964D01*
X116997236Y-141358604D01*
X117050596Y-141293585D01*
X117090246Y-141219405D01*
X117114663Y-141138916D01*
X117122907Y-141055209D01*
X117120841Y-140584959D01*
X117014091Y-140478209D01*
X116116841Y-140478209D01*
X115570841Y-140478209D01*
X114673591Y-140478209D01*
X114566841Y-140584959D01*
X114564775Y-141055209D01*
X99968841Y-141055209D01*
X99968841Y-139355209D01*
X114564775Y-139355209D01*
X114566841Y-139825459D01*
X114673591Y-139932209D01*
X115570841Y-139932209D01*
X115570841Y-139034959D01*
X116116841Y-139034959D01*
X116116841Y-139932209D01*
X117014091Y-139932209D01*
X117120841Y-139825459D01*
X117122907Y-139355209D01*
X117114663Y-139271502D01*
X117090246Y-139191013D01*
X117050596Y-139116833D01*
X116997236Y-139051814D01*
X116932217Y-138998454D01*
X116858037Y-138958804D01*
X116777548Y-138934387D01*
X116693841Y-138926143D01*
X116223591Y-138928209D01*
X116116841Y-139034959D01*
X115570841Y-139034959D01*
X115464091Y-138928209D01*
X114993841Y-138926143D01*
X114910134Y-138934387D01*
X114829645Y-138958804D01*
X114755465Y-138998454D01*
X114690446Y-139051814D01*
X114637086Y-139116833D01*
X114597436Y-139191013D01*
X114573019Y-139271502D01*
X114564775Y-139355209D01*
X99968841Y-139355209D01*
X99968841Y-135490209D01*
X99965783Y-135427967D01*
X99946568Y-135232877D01*
X99922284Y-135110790D01*
X99865379Y-134923197D01*
X99817741Y-134808189D01*
X99725331Y-134635302D01*
X99656173Y-134531800D01*
X99531810Y-134380263D01*
X99443787Y-134292240D01*
X99292250Y-134167877D01*
X99188748Y-134098719D01*
X99015861Y-134006309D01*
X98900853Y-133958671D01*
X98713260Y-133901766D01*
X98591173Y-133877482D01*
X98396083Y-133858267D01*
X98333841Y-133855209D01*
X89538841Y-133855209D01*
X89476599Y-133858267D01*
X89391913Y-133866608D01*
X89391913Y-133640209D01*
X114355769Y-133640209D01*
X114355769Y-135340209D01*
X114368029Y-135464691D01*
X114404339Y-135584389D01*
X114463304Y-135694703D01*
X114542656Y-135791394D01*
X114639347Y-135870746D01*
X114749661Y-135929711D01*
X114869359Y-135966021D01*
X114993841Y-135978281D01*
X116693841Y-135978281D01*
X116818323Y-135966021D01*
X116938021Y-135929711D01*
X117048335Y-135870746D01*
X117145026Y-135791394D01*
X117224378Y-135694703D01*
X117283343Y-135584389D01*
X117319653Y-135464691D01*
X117331913Y-135340209D01*
X117331913Y-133995209D01*
X140608841Y-133995209D01*
X140608841Y-137715209D01*
X146293127Y-137715209D01*
X146293127Y-133995209D01*
X140608841Y-133995209D01*
X117331913Y-133995209D01*
X117331913Y-133640209D01*
X117319653Y-133515727D01*
X117283343Y-133396029D01*
X117224378Y-133285715D01*
X117145026Y-133189024D01*
X117048335Y-133109672D01*
X116938021Y-133050707D01*
X116818323Y-133014397D01*
X116693841Y-133002137D01*
X114993841Y-133002137D01*
X114869359Y-133014397D01*
X114749661Y-133050707D01*
X114639347Y-133109672D01*
X114542656Y-133189024D01*
X114463304Y-133285715D01*
X114404339Y-133396029D01*
X114368029Y-133515727D01*
X114355769Y-133640209D01*
X89391913Y-133640209D01*
X89391913Y-133005209D01*
X89379653Y-132880727D01*
X89343343Y-132761029D01*
X89284378Y-132650715D01*
X89205026Y-132554024D01*
X89108335Y-132474672D01*
X88998021Y-132415707D01*
X88878323Y-132379397D01*
X88753841Y-132367137D01*
X87053841Y-132367137D01*
X86929359Y-132379397D01*
X86809661Y-132415707D01*
X86699347Y-132474672D01*
X86602656Y-132554024D01*
X86523304Y-132650715D01*
X86464339Y-132761029D01*
X86428029Y-132880727D01*
X86415769Y-133005209D01*
X52926763Y-133005209D01*
X52368934Y-132466520D01*
X52349273Y-132450023D01*
X52330809Y-132432192D01*
X52290382Y-132400608D01*
X51381792Y-131740478D01*
X51360026Y-131726878D01*
X51339261Y-131711790D01*
X51294832Y-131686139D01*
X50303212Y-131158886D01*
X50279769Y-131148449D01*
X50257102Y-131136396D01*
X50209535Y-131117178D01*
X49154186Y-130733062D01*
X49129519Y-130725989D01*
X49105394Y-130717208D01*
X49055616Y-130704797D01*
X47957078Y-130471296D01*
X47931653Y-130467723D01*
X47906555Y-130462388D01*
X47855534Y-130457025D01*
X46745412Y-130379398D01*
X46305908Y-130336304D01*
X45942290Y-130226521D01*
X45606927Y-130048205D01*
X45312580Y-129808143D01*
X45070472Y-129515483D01*
X44889816Y-129181368D01*
X44777499Y-128818532D01*
X44734224Y-128406797D01*
X44734224Y-125857494D01*
X105658841Y-125857494D01*
X105658841Y-126612924D01*
X105806218Y-127353837D01*
X106095308Y-128051763D01*
X106515002Y-128679879D01*
X107049171Y-129214048D01*
X107677287Y-129633742D01*
X108375213Y-129922832D01*
X109116126Y-130070209D01*
X109871556Y-130070209D01*
X110612469Y-129922832D01*
X111310395Y-129633742D01*
X111938511Y-129214048D01*
X112472680Y-128679879D01*
X112892374Y-128051763D01*
X113181464Y-127353837D01*
X113328841Y-126612924D01*
X113328841Y-125857494D01*
X113181464Y-125116581D01*
X112892374Y-124418655D01*
X112472680Y-123790539D01*
X111938511Y-123256370D01*
X111310395Y-122836676D01*
X111198214Y-122790209D01*
X112114163Y-122790209D01*
X112354357Y-122766552D01*
X112662556Y-122673061D01*
X112946593Y-122521240D01*
X113195555Y-122316923D01*
X113399872Y-122067961D01*
X113551693Y-121783924D01*
X113645184Y-121475725D01*
X113676752Y-121155209D01*
X113645184Y-120834693D01*
X113551693Y-120526494D01*
X113399872Y-120242457D01*
X113195555Y-119993495D01*
X112948033Y-119790360D01*
X112980473Y-119768684D01*
X113187316Y-119561841D01*
X113349831Y-119318620D01*
X113461773Y-119048367D01*
X113518841Y-118761469D01*
X113518841Y-118468949D01*
X113461773Y-118182051D01*
X113349831Y-117911798D01*
X113187316Y-117668577D01*
X112980473Y-117461734D01*
X112737252Y-117299219D01*
X112568241Y-117229213D01*
X112721745Y-117151104D01*
X112918424Y-116996228D01*
X113081109Y-116805957D01*
X113118866Y-116738621D01*
X123689550Y-116738621D01*
X123690718Y-116764932D01*
X123689775Y-117025209D01*
X123698019Y-117108916D01*
X123722436Y-117189405D01*
X123762086Y-117263585D01*
X123815446Y-117328604D01*
X123880465Y-117381964D01*
X123954645Y-117421614D01*
X124035134Y-117446031D01*
X124118841Y-117454275D01*
X124327549Y-117453780D01*
X124332253Y-117454500D01*
X124349666Y-117453727D01*
X124989091Y-117452209D01*
X125036874Y-117404427D01*
X125081290Y-117448843D01*
X125095839Y-117434294D01*
X125095839Y-117452209D01*
X125317295Y-117452209D01*
X125332253Y-117454500D01*
X125383863Y-117452209D01*
X125641843Y-117452209D01*
X125641843Y-117434294D01*
X125656392Y-117448843D01*
X125700809Y-117404427D01*
X125748591Y-117452209D01*
X126326249Y-117453580D01*
X126332253Y-117454500D01*
X126351613Y-117453641D01*
X126618841Y-117454275D01*
X126702548Y-117446031D01*
X126783037Y-117421614D01*
X126857217Y-117381964D01*
X126922236Y-117328604D01*
X126975596Y-117263585D01*
X127015246Y-117189405D01*
X127039663Y-117108916D01*
X127047907Y-117025209D01*
X127047157Y-116818164D01*
X127048132Y-116811797D01*
X127047045Y-116787312D01*
X127045841Y-116454959D01*
X126939091Y-116348209D01*
X126621893Y-116348209D01*
X126677975Y-116292127D01*
X126662598Y-116161628D01*
X126537249Y-116116108D01*
X126405429Y-116095918D01*
X126272203Y-116101832D01*
X126142691Y-116133623D01*
X126075084Y-116161628D01*
X126059707Y-116292127D01*
X126115789Y-116348209D01*
X125641841Y-116348209D01*
X125641841Y-116368209D01*
X125601893Y-116368209D01*
X125677975Y-116292127D01*
X125662598Y-116161628D01*
X125537249Y-116116108D01*
X125405429Y-116095918D01*
X125272203Y-116101832D01*
X125142691Y-116133623D01*
X125075084Y-116161628D01*
X125059707Y-116292127D01*
X125135789Y-116368209D01*
X125095841Y-116368209D01*
X125095841Y-116348209D01*
X124621893Y-116348209D01*
X124677975Y-116292127D01*
X124662598Y-116161628D01*
X124537249Y-116116108D01*
X124405429Y-116095918D01*
X124272203Y-116101832D01*
X124142691Y-116133623D01*
X124075084Y-116161628D01*
X124059707Y-116292127D01*
X124115789Y-116348209D01*
X123798591Y-116348209D01*
X123691841Y-116454959D01*
X123690844Y-116730173D01*
X123689550Y-116738621D01*
X113118866Y-116738621D01*
X113203548Y-116587604D01*
X113223253Y-116539996D01*
X113171802Y-116348209D01*
X112306841Y-116348209D01*
X112306841Y-116368209D01*
X111760841Y-116368209D01*
X111760841Y-116348209D01*
X110895880Y-116348209D01*
X110844429Y-116539996D01*
X110864134Y-116587604D01*
X110986573Y-116805957D01*
X111149258Y-116996228D01*
X111345937Y-117151104D01*
X111499441Y-117229213D01*
X111330430Y-117299219D01*
X111087209Y-117461734D01*
X110880366Y-117668577D01*
X110763841Y-117842969D01*
X110647316Y-117668577D01*
X110440473Y-117461734D01*
X110197252Y-117299219D01*
X110028241Y-117229213D01*
X110181745Y-117151104D01*
X110378424Y-116996228D01*
X110541109Y-116805957D01*
X110663548Y-116587604D01*
X110683253Y-116539996D01*
X110631802Y-116348209D01*
X109766841Y-116348209D01*
X109766841Y-116368209D01*
X109220841Y-116368209D01*
X109220841Y-116348209D01*
X108355880Y-116348209D01*
X108304429Y-116539996D01*
X108324134Y-116587604D01*
X108446573Y-116805957D01*
X108609258Y-116996228D01*
X108805937Y-117151104D01*
X108959441Y-117229213D01*
X108790430Y-117299219D01*
X108547209Y-117461734D01*
X108340366Y-117668577D01*
X108177851Y-117911798D01*
X108065909Y-118182051D01*
X108008841Y-118468949D01*
X108008841Y-118761469D01*
X108065909Y-119048367D01*
X108177851Y-119318620D01*
X108340366Y-119561841D01*
X108547209Y-119768684D01*
X108579649Y-119790360D01*
X108332127Y-119993495D01*
X108127810Y-120242457D01*
X107975989Y-120526494D01*
X107882498Y-120834693D01*
X107850930Y-121155209D01*
X107882498Y-121475725D01*
X107975989Y-121783924D01*
X108127810Y-122067961D01*
X108332127Y-122316923D01*
X108566764Y-122509484D01*
X108375213Y-122547586D01*
X107677287Y-122836676D01*
X107049171Y-123256370D01*
X106515002Y-123790539D01*
X106095308Y-124418655D01*
X105806218Y-125116581D01*
X105658841Y-125857494D01*
X44734224Y-125857494D01*
X44734224Y-122480960D01*
X74703841Y-122480960D01*
X74720264Y-122647707D01*
X74785165Y-122861655D01*
X74890557Y-123058832D01*
X75032392Y-123231658D01*
X75205218Y-123373493D01*
X75402394Y-123478885D01*
X75616342Y-123543786D01*
X75838841Y-123565700D01*
X76061339Y-123543786D01*
X76275287Y-123478885D01*
X76472464Y-123373493D01*
X76645290Y-123231658D01*
X76787125Y-123058832D01*
X76892517Y-122861656D01*
X76957418Y-122647708D01*
X76973841Y-122480961D01*
X76973841Y-117289457D01*
X76957418Y-117122710D01*
X76892517Y-116908762D01*
X76787125Y-116711586D01*
X76645290Y-116538760D01*
X76472464Y-116396925D01*
X76275288Y-116291533D01*
X76061340Y-116226632D01*
X75838841Y-116204718D01*
X75616343Y-116226632D01*
X75402395Y-116291533D01*
X75205219Y-116396925D01*
X75032393Y-116538760D01*
X74890558Y-116711586D01*
X74785166Y-116908762D01*
X74720265Y-117122710D01*
X74703842Y-117289457D01*
X74703841Y-122480960D01*
X44734224Y-122480960D01*
X44734224Y-112128798D01*
X51593841Y-112128798D01*
X51593841Y-112401620D01*
X51647066Y-112669198D01*
X51751470Y-112921252D01*
X51903042Y-113148095D01*
X52095955Y-113341008D01*
X52322798Y-113492580D01*
X52574852Y-113596984D01*
X52842430Y-113650209D01*
X53115252Y-113650209D01*
X53382830Y-113596984D01*
X53634884Y-113492580D01*
X53789978Y-113388949D01*
X108008841Y-113388949D01*
X108008841Y-113681469D01*
X108065909Y-113968367D01*
X108177851Y-114238620D01*
X108340366Y-114481841D01*
X108547209Y-114688684D01*
X108790430Y-114851199D01*
X108959441Y-114921205D01*
X108805937Y-114999314D01*
X108609258Y-115154190D01*
X108446573Y-115344461D01*
X108324134Y-115562814D01*
X108304429Y-115610422D01*
X108355880Y-115802209D01*
X109220841Y-115802209D01*
X109220841Y-115782209D01*
X109766841Y-115782209D01*
X109766841Y-115802209D01*
X110631802Y-115802209D01*
X110683253Y-115610422D01*
X110844429Y-115610422D01*
X110895880Y-115802209D01*
X111760841Y-115802209D01*
X111760841Y-114934469D01*
X112306841Y-114934469D01*
X112306841Y-115802209D01*
X113171802Y-115802209D01*
X113223253Y-115610422D01*
X113203548Y-115562814D01*
X113081109Y-115344461D01*
X113076116Y-115338621D01*
X123689550Y-115338621D01*
X123690637Y-115363106D01*
X123691841Y-115695459D01*
X123798591Y-115802209D01*
X124115789Y-115802209D01*
X124059707Y-115858291D01*
X124075084Y-115988790D01*
X124200433Y-116034310D01*
X124332253Y-116054500D01*
X124465479Y-116048586D01*
X124594991Y-116016795D01*
X124662598Y-115988790D01*
X124677975Y-115858291D01*
X124621893Y-115802209D01*
X125095841Y-115802209D01*
X125095841Y-115782209D01*
X125135789Y-115782209D01*
X125059707Y-115858291D01*
X125075084Y-115988790D01*
X125200433Y-116034310D01*
X125332253Y-116054500D01*
X125465479Y-116048586D01*
X125594991Y-116016795D01*
X125662598Y-115988790D01*
X125677975Y-115858291D01*
X125601893Y-115782209D01*
X125641841Y-115782209D01*
X125641841Y-115802209D01*
X126115789Y-115802209D01*
X126059707Y-115858291D01*
X126075084Y-115988790D01*
X126200433Y-116034310D01*
X126332253Y-116054500D01*
X126465479Y-116048586D01*
X126594991Y-116016795D01*
X126662598Y-115988790D01*
X126677975Y-115858291D01*
X126621893Y-115802209D01*
X126939091Y-115802209D01*
X127045841Y-115695459D01*
X127046838Y-115420245D01*
X127048132Y-115411797D01*
X127046964Y-115385486D01*
X127047907Y-115125209D01*
X127039663Y-115041502D01*
X127015246Y-114961013D01*
X126975596Y-114886833D01*
X126922236Y-114821814D01*
X126857217Y-114768454D01*
X126783037Y-114728804D01*
X126702548Y-114704387D01*
X126618841Y-114696143D01*
X126410133Y-114696638D01*
X126405429Y-114695918D01*
X126388016Y-114696691D01*
X125748591Y-114698209D01*
X125700809Y-114745992D01*
X125656392Y-114701575D01*
X125641843Y-114716124D01*
X125641843Y-114698209D01*
X125420387Y-114698209D01*
X125405429Y-114695918D01*
X125353819Y-114698209D01*
X125095839Y-114698209D01*
X125095839Y-114716124D01*
X125081290Y-114701575D01*
X125036874Y-114745992D01*
X124989091Y-114698209D01*
X124411433Y-114696838D01*
X124405429Y-114695918D01*
X124386069Y-114696777D01*
X124118841Y-114696143D01*
X124035134Y-114704387D01*
X123954645Y-114728804D01*
X123880465Y-114768454D01*
X123815446Y-114821814D01*
X123762086Y-114886833D01*
X123722436Y-114961013D01*
X123698019Y-115041502D01*
X123689775Y-115125209D01*
X123690525Y-115332254D01*
X123689550Y-115338621D01*
X113076116Y-115338621D01*
X112918424Y-115154190D01*
X112721745Y-114999314D01*
X112498630Y-114885784D01*
X112306841Y-114934469D01*
X111760841Y-114934469D01*
X111569052Y-114885784D01*
X111345937Y-114999314D01*
X111149258Y-115154190D01*
X110986573Y-115344461D01*
X110864134Y-115562814D01*
X110844429Y-115610422D01*
X110683253Y-115610422D01*
X110663548Y-115562814D01*
X110541109Y-115344461D01*
X110378424Y-115154190D01*
X110181745Y-114999314D01*
X110028241Y-114921205D01*
X110197252Y-114851199D01*
X110440473Y-114688684D01*
X110647316Y-114481841D01*
X110809831Y-114238620D01*
X110878408Y-114073060D01*
X110986573Y-114265957D01*
X111149258Y-114456228D01*
X111345937Y-114611104D01*
X111569052Y-114724634D01*
X111760841Y-114675949D01*
X111760841Y-113808209D01*
X112306841Y-113808209D01*
X112306841Y-114675949D01*
X112498630Y-114724634D01*
X112721745Y-114611104D01*
X112918424Y-114456228D01*
X113081109Y-114265957D01*
X113203548Y-114047604D01*
X113223253Y-113999996D01*
X113171802Y-113808209D01*
X112306841Y-113808209D01*
X111760841Y-113808209D01*
X111740841Y-113808209D01*
X111740841Y-113262209D01*
X111760841Y-113262209D01*
X111760841Y-112394469D01*
X112306841Y-112394469D01*
X112306841Y-113262209D01*
X113171802Y-113262209D01*
X113223253Y-113070422D01*
X113203548Y-113022814D01*
X113081109Y-112804461D01*
X112918424Y-112614190D01*
X112721745Y-112459314D01*
X112498630Y-112345784D01*
X112306841Y-112394469D01*
X111760841Y-112394469D01*
X111569052Y-112345784D01*
X111345937Y-112459314D01*
X111149258Y-112614190D01*
X110986573Y-112804461D01*
X110878408Y-112997358D01*
X110809831Y-112831798D01*
X110647316Y-112588577D01*
X110440473Y-112381734D01*
X110197252Y-112219219D01*
X110028241Y-112149213D01*
X110181745Y-112071104D01*
X110378424Y-111916228D01*
X110541109Y-111725957D01*
X110663548Y-111507604D01*
X110683253Y-111459996D01*
X110844429Y-111459996D01*
X110864134Y-111507604D01*
X110986573Y-111725957D01*
X111149258Y-111916228D01*
X111345937Y-112071104D01*
X111569052Y-112184634D01*
X111760841Y-112135949D01*
X111760841Y-111268209D01*
X112306841Y-111268209D01*
X112306841Y-112135949D01*
X112498630Y-112184634D01*
X112721745Y-112071104D01*
X112918424Y-111916228D01*
X113081109Y-111725957D01*
X113203548Y-111507604D01*
X113223253Y-111459996D01*
X113171802Y-111268209D01*
X112306841Y-111268209D01*
X111760841Y-111268209D01*
X110895880Y-111268209D01*
X110844429Y-111459996D01*
X110683253Y-111459996D01*
X110631802Y-111268209D01*
X109766841Y-111268209D01*
X109766841Y-111288209D01*
X109220841Y-111288209D01*
X109220841Y-111268209D01*
X108355880Y-111268209D01*
X108304429Y-111459996D01*
X108324134Y-111507604D01*
X108446573Y-111725957D01*
X108609258Y-111916228D01*
X108805937Y-112071104D01*
X108959441Y-112149213D01*
X108790430Y-112219219D01*
X108547209Y-112381734D01*
X108340366Y-112588577D01*
X108177851Y-112831798D01*
X108065909Y-113102051D01*
X108008841Y-113388949D01*
X53789978Y-113388949D01*
X53861727Y-113341008D01*
X54054640Y-113148095D01*
X54206212Y-112921252D01*
X54310616Y-112669198D01*
X54363841Y-112401620D01*
X54363841Y-112128798D01*
X54310616Y-111861220D01*
X54206212Y-111609166D01*
X54054640Y-111382323D01*
X53861727Y-111189410D01*
X53634884Y-111037838D01*
X53382830Y-110933434D01*
X53115252Y-110880209D01*
X52842430Y-110880209D01*
X52574852Y-110933434D01*
X52322798Y-111037838D01*
X52095955Y-111189410D01*
X51903042Y-111382323D01*
X51751470Y-111609166D01*
X51647066Y-111861220D01*
X51593841Y-112128798D01*
X44734224Y-112128798D01*
X44734224Y-110530422D01*
X108304429Y-110530422D01*
X108355880Y-110722209D01*
X109220841Y-110722209D01*
X109220841Y-109854469D01*
X109766841Y-109854469D01*
X109766841Y-110722209D01*
X110631802Y-110722209D01*
X110683253Y-110530422D01*
X110844429Y-110530422D01*
X110895880Y-110722209D01*
X111760841Y-110722209D01*
X111760841Y-109854469D01*
X112306841Y-109854469D01*
X112306841Y-110722209D01*
X113171802Y-110722209D01*
X113223253Y-110530422D01*
X113203548Y-110482814D01*
X113081109Y-110264461D01*
X112918424Y-110074190D01*
X112721745Y-109919314D01*
X112498630Y-109805784D01*
X112306841Y-109854469D01*
X111760841Y-109854469D01*
X111569052Y-109805784D01*
X111345937Y-109919314D01*
X111149258Y-110074190D01*
X110986573Y-110264461D01*
X110864134Y-110482814D01*
X110844429Y-110530422D01*
X110683253Y-110530422D01*
X110663548Y-110482814D01*
X110541109Y-110264461D01*
X110378424Y-110074190D01*
X110181745Y-109919314D01*
X109958630Y-109805784D01*
X109766841Y-109854469D01*
X109220841Y-109854469D01*
X109029052Y-109805784D01*
X108805937Y-109919314D01*
X108609258Y-110074190D01*
X108446573Y-110264461D01*
X108324134Y-110482814D01*
X108304429Y-110530422D01*
X44734224Y-110530422D01*
X44734224Y-108919996D01*
X108304429Y-108919996D01*
X108324134Y-108967604D01*
X108446573Y-109185957D01*
X108609258Y-109376228D01*
X108805937Y-109531104D01*
X109029052Y-109644634D01*
X109220841Y-109595949D01*
X109220841Y-108728209D01*
X109766841Y-108728209D01*
X109766841Y-109595949D01*
X109958630Y-109644634D01*
X110181745Y-109531104D01*
X110378424Y-109376228D01*
X110541109Y-109185957D01*
X110663548Y-108967604D01*
X110683253Y-108919996D01*
X110844429Y-108919996D01*
X110864134Y-108967604D01*
X110986573Y-109185957D01*
X111149258Y-109376228D01*
X111345937Y-109531104D01*
X111569052Y-109644634D01*
X111760841Y-109595949D01*
X111760841Y-108728209D01*
X112306841Y-108728209D01*
X112306841Y-109595949D01*
X112498630Y-109644634D01*
X112721745Y-109531104D01*
X112918424Y-109376228D01*
X113081109Y-109185957D01*
X113203548Y-108967604D01*
X113223253Y-108919996D01*
X113171802Y-108728209D01*
X112306841Y-108728209D01*
X111760841Y-108728209D01*
X110895880Y-108728209D01*
X110844429Y-108919996D01*
X110683253Y-108919996D01*
X110631802Y-108728209D01*
X109766841Y-108728209D01*
X109220841Y-108728209D01*
X108355880Y-108728209D01*
X108304429Y-108919996D01*
X44734224Y-108919996D01*
X44734224Y-106335209D01*
X92130769Y-106335209D01*
X92130769Y-108035209D01*
X92143029Y-108159691D01*
X92179339Y-108279389D01*
X92238304Y-108389703D01*
X92317656Y-108486394D01*
X92414347Y-108565746D01*
X92524661Y-108624711D01*
X92644359Y-108661021D01*
X92768841Y-108673281D01*
X94468841Y-108673281D01*
X94593323Y-108661021D01*
X94713021Y-108624711D01*
X94823335Y-108565746D01*
X94920026Y-108486394D01*
X94999378Y-108389703D01*
X95058343Y-108279389D01*
X95094653Y-108159691D01*
X95106913Y-108035209D01*
X95106913Y-107990422D01*
X108304429Y-107990422D01*
X108355880Y-108182209D01*
X109220841Y-108182209D01*
X109220841Y-107314469D01*
X109766841Y-107314469D01*
X109766841Y-108182209D01*
X110631802Y-108182209D01*
X110683253Y-107990422D01*
X110844429Y-107990422D01*
X110895880Y-108182209D01*
X111760841Y-108182209D01*
X111760841Y-107314469D01*
X112306841Y-107314469D01*
X112306841Y-108182209D01*
X113171802Y-108182209D01*
X113223253Y-107990422D01*
X113203548Y-107942814D01*
X113081109Y-107724461D01*
X112918424Y-107534190D01*
X112721745Y-107379314D01*
X112498630Y-107265784D01*
X112306841Y-107314469D01*
X111760841Y-107314469D01*
X111569052Y-107265784D01*
X111345937Y-107379314D01*
X111149258Y-107534190D01*
X110986573Y-107724461D01*
X110864134Y-107942814D01*
X110844429Y-107990422D01*
X110683253Y-107990422D01*
X110663548Y-107942814D01*
X110541109Y-107724461D01*
X110378424Y-107534190D01*
X110181745Y-107379314D01*
X109958630Y-107265784D01*
X109766841Y-107314469D01*
X109220841Y-107314469D01*
X109029052Y-107265784D01*
X108805937Y-107379314D01*
X108609258Y-107534190D01*
X108446573Y-107724461D01*
X108324134Y-107942814D01*
X108304429Y-107990422D01*
X95106913Y-107990422D01*
X95106913Y-106379996D01*
X108304429Y-106379996D01*
X108324134Y-106427604D01*
X108446573Y-106645957D01*
X108609258Y-106836228D01*
X108805937Y-106991104D01*
X109029052Y-107104634D01*
X109220841Y-107055949D01*
X109220841Y-106188209D01*
X109766841Y-106188209D01*
X109766841Y-107055949D01*
X109958630Y-107104634D01*
X110181745Y-106991104D01*
X110378424Y-106836228D01*
X110541109Y-106645957D01*
X110663548Y-106427604D01*
X110683253Y-106379996D01*
X110844429Y-106379996D01*
X110864134Y-106427604D01*
X110986573Y-106645957D01*
X111149258Y-106836228D01*
X111345937Y-106991104D01*
X111569052Y-107104634D01*
X111760841Y-107055949D01*
X111760841Y-106188209D01*
X112306841Y-106188209D01*
X112306841Y-107055949D01*
X112498630Y-107104634D01*
X112721745Y-106991104D01*
X112918424Y-106836228D01*
X113081109Y-106645957D01*
X113203548Y-106427604D01*
X113223253Y-106379996D01*
X113171802Y-106188209D01*
X112306841Y-106188209D01*
X111760841Y-106188209D01*
X110895880Y-106188209D01*
X110844429Y-106379996D01*
X110683253Y-106379996D01*
X110631802Y-106188209D01*
X109766841Y-106188209D01*
X109220841Y-106188209D01*
X108355880Y-106188209D01*
X108304429Y-106379996D01*
X95106913Y-106379996D01*
X95106913Y-106335209D01*
X95094653Y-106210727D01*
X95058343Y-106091029D01*
X94999378Y-105980715D01*
X94920026Y-105884024D01*
X94823335Y-105804672D01*
X94713021Y-105745707D01*
X94593323Y-105709397D01*
X94468841Y-105697137D01*
X92768841Y-105697137D01*
X92644359Y-105709397D01*
X92524661Y-105745707D01*
X92414347Y-105804672D01*
X92317656Y-105884024D01*
X92238304Y-105980715D01*
X92179339Y-106091029D01*
X92143029Y-106210727D01*
X92130769Y-106335209D01*
X44734224Y-106335209D01*
X44734224Y-95540209D01*
X101020769Y-95540209D01*
X101020769Y-97240209D01*
X101033029Y-97364691D01*
X101069339Y-97484389D01*
X101128304Y-97594703D01*
X101207656Y-97691394D01*
X101304347Y-97770746D01*
X101414661Y-97829711D01*
X101534359Y-97866021D01*
X101658841Y-97878281D01*
X103358841Y-97878281D01*
X103483323Y-97866021D01*
X103603021Y-97829711D01*
X103713335Y-97770746D01*
X103810026Y-97691394D01*
X103889378Y-97594703D01*
X103948343Y-97484389D01*
X103984653Y-97364691D01*
X103996913Y-97240209D01*
X103996913Y-95540209D01*
X103984653Y-95415727D01*
X103948343Y-95296029D01*
X103889378Y-95185715D01*
X103810026Y-95089024D01*
X103713335Y-95009672D01*
X103603021Y-94950707D01*
X103483323Y-94914397D01*
X103358841Y-94902137D01*
X101658841Y-94902137D01*
X101534359Y-94914397D01*
X101414661Y-94950707D01*
X101304347Y-95009672D01*
X101207656Y-95089024D01*
X101128304Y-95185715D01*
X101069339Y-95296029D01*
X101033029Y-95415727D01*
X101020769Y-95540209D01*
X44734224Y-95540209D01*
X44734224Y-89825209D01*
X101020769Y-89825209D01*
X101020769Y-91525209D01*
X101033029Y-91649691D01*
X101069339Y-91769389D01*
X101128304Y-91879703D01*
X101207656Y-91976394D01*
X101304347Y-92055746D01*
X101414661Y-92114711D01*
X101534359Y-92151021D01*
X101658841Y-92163281D01*
X103358841Y-92163281D01*
X103483323Y-92151021D01*
X103603021Y-92114711D01*
X103713335Y-92055746D01*
X103810026Y-91976394D01*
X103889378Y-91879703D01*
X103948343Y-91769389D01*
X103984653Y-91649691D01*
X103996913Y-91525209D01*
X103996913Y-89825209D01*
X103984653Y-89700727D01*
X103948343Y-89581029D01*
X103889378Y-89470715D01*
X103810026Y-89374024D01*
X103713335Y-89294672D01*
X103603021Y-89235707D01*
X103483323Y-89199397D01*
X103358841Y-89187137D01*
X101658841Y-89187137D01*
X101534359Y-89199397D01*
X101414661Y-89235707D01*
X101304347Y-89294672D01*
X101207656Y-89374024D01*
X101128304Y-89470715D01*
X101069339Y-89581029D01*
X101033029Y-89700727D01*
X101020769Y-89825209D01*
X44734224Y-89825209D01*
X44734224Y-85217494D01*
X105658841Y-85217494D01*
X105658841Y-85972924D01*
X105806218Y-86713837D01*
X106095308Y-87411763D01*
X106515002Y-88039879D01*
X107049171Y-88574048D01*
X107677287Y-88993742D01*
X108339316Y-89267963D01*
X108289347Y-89294672D01*
X108192656Y-89374024D01*
X108113304Y-89470715D01*
X108054339Y-89581029D01*
X108018029Y-89700727D01*
X108005769Y-89825209D01*
X108005769Y-91525209D01*
X108018029Y-91649691D01*
X108054339Y-91769389D01*
X108113304Y-91879703D01*
X108192656Y-91976394D01*
X108289347Y-92055746D01*
X108399661Y-92114711D01*
X108472221Y-92136722D01*
X108340366Y-92268577D01*
X108177851Y-92511798D01*
X108065909Y-92782051D01*
X108008841Y-93068949D01*
X108008841Y-93361469D01*
X108065909Y-93648367D01*
X108177851Y-93918620D01*
X108340366Y-94161841D01*
X108547209Y-94368684D01*
X108721601Y-94485209D01*
X108547209Y-94601734D01*
X108340366Y-94808577D01*
X108177851Y-95051798D01*
X108065909Y-95322051D01*
X108008841Y-95608949D01*
X108008841Y-95901469D01*
X108065909Y-96188367D01*
X108177851Y-96458620D01*
X108340366Y-96701841D01*
X108547209Y-96908684D01*
X108721601Y-97025209D01*
X108547209Y-97141734D01*
X108340366Y-97348577D01*
X108177851Y-97591798D01*
X108065909Y-97862051D01*
X108008841Y-98148949D01*
X108008841Y-98441469D01*
X108065909Y-98728367D01*
X108177851Y-98998620D01*
X108340366Y-99241841D01*
X108547209Y-99448684D01*
X108721601Y-99565209D01*
X108547209Y-99681734D01*
X108340366Y-99888577D01*
X108177851Y-100131798D01*
X108065909Y-100402051D01*
X108008841Y-100688949D01*
X108008841Y-100981469D01*
X108065909Y-101268367D01*
X108177851Y-101538620D01*
X108340366Y-101781841D01*
X108547209Y-101988684D01*
X108721601Y-102105209D01*
X108547209Y-102221734D01*
X108340366Y-102428577D01*
X108177851Y-102671798D01*
X108065909Y-102942051D01*
X108008841Y-103228949D01*
X108008841Y-103521469D01*
X108065909Y-103808367D01*
X108177851Y-104078620D01*
X108340366Y-104321841D01*
X108547209Y-104528684D01*
X108790430Y-104691199D01*
X108959441Y-104761205D01*
X108805937Y-104839314D01*
X108609258Y-104994190D01*
X108446573Y-105184461D01*
X108324134Y-105402814D01*
X108304429Y-105450422D01*
X108355880Y-105642209D01*
X109220841Y-105642209D01*
X109220841Y-105622209D01*
X109766841Y-105622209D01*
X109766841Y-105642209D01*
X110631802Y-105642209D01*
X110683253Y-105450422D01*
X110844429Y-105450422D01*
X110895880Y-105642209D01*
X111760841Y-105642209D01*
X111760841Y-104774469D01*
X112306841Y-104774469D01*
X112306841Y-105642209D01*
X113171802Y-105642209D01*
X113223253Y-105450422D01*
X113203548Y-105402814D01*
X113081109Y-105184461D01*
X112918424Y-104994190D01*
X112721745Y-104839314D01*
X112498630Y-104725784D01*
X112306841Y-104774469D01*
X111760841Y-104774469D01*
X111569052Y-104725784D01*
X111345937Y-104839314D01*
X111149258Y-104994190D01*
X110986573Y-105184461D01*
X110864134Y-105402814D01*
X110844429Y-105450422D01*
X110683253Y-105450422D01*
X110663548Y-105402814D01*
X110541109Y-105184461D01*
X110378424Y-104994190D01*
X110181745Y-104839314D01*
X110028241Y-104761205D01*
X110197252Y-104691199D01*
X110440473Y-104528684D01*
X110647316Y-104321841D01*
X110809831Y-104078620D01*
X110878408Y-103913060D01*
X110986573Y-104105957D01*
X111149258Y-104296228D01*
X111345937Y-104451104D01*
X111569052Y-104564634D01*
X111760841Y-104515949D01*
X111760841Y-103648209D01*
X112306841Y-103648209D01*
X112306841Y-104515949D01*
X112498630Y-104564634D01*
X112721745Y-104451104D01*
X112918424Y-104296228D01*
X113081109Y-104105957D01*
X113203548Y-103887604D01*
X113223253Y-103839996D01*
X113171802Y-103648209D01*
X112306841Y-103648209D01*
X111760841Y-103648209D01*
X111740841Y-103648209D01*
X111740841Y-103102209D01*
X111760841Y-103102209D01*
X111760841Y-103082209D01*
X112306841Y-103082209D01*
X112306841Y-103102209D01*
X113171802Y-103102209D01*
X113223253Y-102910422D01*
X113203548Y-102862814D01*
X113081109Y-102644461D01*
X112918424Y-102454190D01*
X112721745Y-102299314D01*
X112568241Y-102221205D01*
X112737252Y-102151199D01*
X112980473Y-101988684D01*
X113187316Y-101781841D01*
X113349831Y-101538620D01*
X113461773Y-101268367D01*
X113518841Y-100981469D01*
X113518841Y-100688949D01*
X113461773Y-100402051D01*
X113349831Y-100131798D01*
X113187316Y-99888577D01*
X112980473Y-99681734D01*
X112806081Y-99565209D01*
X112980473Y-99448684D01*
X113187316Y-99241841D01*
X113349831Y-98998620D01*
X113461773Y-98728367D01*
X113518841Y-98441469D01*
X113518841Y-98148949D01*
X113461773Y-97862051D01*
X113349831Y-97591798D01*
X113187316Y-97348577D01*
X112980473Y-97141734D01*
X112806081Y-97025209D01*
X112980473Y-96908684D01*
X113187316Y-96701841D01*
X113349831Y-96458620D01*
X113461773Y-96188367D01*
X113518841Y-95901469D01*
X113518841Y-95608949D01*
X113461773Y-95322051D01*
X113349831Y-95051798D01*
X113187316Y-94808577D01*
X112980473Y-94601734D01*
X112806081Y-94485209D01*
X112980473Y-94368684D01*
X113187316Y-94161841D01*
X113349831Y-93918620D01*
X113461773Y-93648367D01*
X113518841Y-93361469D01*
X113518841Y-93068949D01*
X113461773Y-92782051D01*
X113349831Y-92511798D01*
X113187316Y-92268577D01*
X112980473Y-92061734D01*
X112806081Y-91945209D01*
X112980473Y-91828684D01*
X113187316Y-91621841D01*
X113349831Y-91378620D01*
X113461773Y-91108367D01*
X113518841Y-90821469D01*
X113518841Y-90528949D01*
X113461773Y-90242051D01*
X113349831Y-89971798D01*
X113187316Y-89728577D01*
X112980473Y-89521734D01*
X112737252Y-89359219D01*
X112466999Y-89247277D01*
X112180101Y-89190209D01*
X111887581Y-89190209D01*
X111600683Y-89247277D01*
X111330430Y-89359219D01*
X111087209Y-89521734D01*
X110955354Y-89653589D01*
X110933343Y-89581029D01*
X110874378Y-89470715D01*
X110795026Y-89374024D01*
X110698335Y-89294672D01*
X110648366Y-89267963D01*
X111310395Y-88993742D01*
X111938511Y-88574048D01*
X112472680Y-88039879D01*
X112892374Y-87411763D01*
X113181464Y-86713837D01*
X113320429Y-86015209D01*
X116895769Y-86015209D01*
X116895769Y-87715209D01*
X116908029Y-87839691D01*
X116944339Y-87959389D01*
X117003304Y-88069703D01*
X117082656Y-88166394D01*
X117179347Y-88245746D01*
X117289661Y-88304711D01*
X117409359Y-88341021D01*
X117533841Y-88353281D01*
X119233841Y-88353281D01*
X119358323Y-88341021D01*
X119478021Y-88304711D01*
X119588335Y-88245746D01*
X119685026Y-88166394D01*
X119764378Y-88069703D01*
X119823343Y-87959389D01*
X119859653Y-87839691D01*
X119871913Y-87715209D01*
X119871913Y-86015209D01*
X119859653Y-85890727D01*
X119823343Y-85771029D01*
X119764378Y-85660715D01*
X119685026Y-85564024D01*
X119588335Y-85484672D01*
X119478021Y-85425707D01*
X119358323Y-85389397D01*
X119233841Y-85377137D01*
X117533841Y-85377137D01*
X117409359Y-85389397D01*
X117289661Y-85425707D01*
X117179347Y-85484672D01*
X117082656Y-85564024D01*
X117003304Y-85660715D01*
X116944339Y-85771029D01*
X116908029Y-85890727D01*
X116895769Y-86015209D01*
X113320429Y-86015209D01*
X113328841Y-85972924D01*
X113328841Y-85217494D01*
X113223958Y-84690209D01*
X121558841Y-84690209D01*
X121558841Y-86500209D01*
X121561899Y-86562451D01*
X121581114Y-86757541D01*
X121605398Y-86879628D01*
X121662303Y-87067221D01*
X121709941Y-87182229D01*
X121802351Y-87355116D01*
X121871509Y-87458618D01*
X121995872Y-87610155D01*
X122075769Y-87690052D01*
X122075769Y-88103705D01*
X121945990Y-88346504D01*
X121852499Y-88654703D01*
X121828841Y-88894897D01*
X121828841Y-92455521D01*
X121852499Y-92695715D01*
X121945990Y-93003914D01*
X122075769Y-93246713D01*
X122075769Y-93775209D01*
X122087900Y-93899036D01*
X122124084Y-94018772D01*
X122182933Y-94129148D01*
X122262184Y-94225922D01*
X122358792Y-94305375D01*
X122469045Y-94364455D01*
X122588705Y-94400890D01*
X122713174Y-94413281D01*
X122837668Y-94401150D01*
X122957404Y-94364966D01*
X123067780Y-94306117D01*
X123463841Y-94042076D01*
X123859902Y-94306117D01*
X123969661Y-94364711D01*
X124089359Y-94401021D01*
X124213841Y-94413281D01*
X124338323Y-94401021D01*
X124458021Y-94364711D01*
X124568335Y-94305746D01*
X124665026Y-94226394D01*
X124733872Y-94142505D01*
X124802184Y-94225922D01*
X124898792Y-94305375D01*
X125009045Y-94364455D01*
X125128705Y-94400890D01*
X125253174Y-94413281D01*
X125377668Y-94401150D01*
X125497404Y-94364966D01*
X125607780Y-94306117D01*
X126003841Y-94042076D01*
X126399902Y-94306117D01*
X126509661Y-94364711D01*
X126629359Y-94401021D01*
X126753841Y-94413281D01*
X126878323Y-94401021D01*
X126998021Y-94364711D01*
X127108335Y-94305746D01*
X127205026Y-94226394D01*
X127273872Y-94142505D01*
X127342184Y-94225922D01*
X127438792Y-94305375D01*
X127549045Y-94364455D01*
X127668705Y-94400890D01*
X127793174Y-94413281D01*
X127917668Y-94401150D01*
X128037404Y-94364966D01*
X128147780Y-94306117D01*
X128543841Y-94042076D01*
X128939902Y-94306117D01*
X129049661Y-94364711D01*
X129169359Y-94401021D01*
X129293841Y-94413281D01*
X129418323Y-94401021D01*
X129538021Y-94364711D01*
X129648335Y-94305746D01*
X129745026Y-94226394D01*
X129813872Y-94142505D01*
X129882184Y-94225922D01*
X129978792Y-94305375D01*
X130089045Y-94364455D01*
X130208705Y-94400890D01*
X130333174Y-94413281D01*
X130457668Y-94401150D01*
X130577404Y-94364966D01*
X130687780Y-94306117D01*
X131083841Y-94042076D01*
X131479902Y-94306117D01*
X131589661Y-94364711D01*
X131709359Y-94401021D01*
X131833841Y-94413281D01*
X131958323Y-94401021D01*
X132078021Y-94364711D01*
X132188335Y-94305746D01*
X132285026Y-94226394D01*
X132353872Y-94142505D01*
X132422184Y-94225922D01*
X132518792Y-94305375D01*
X132629045Y-94364455D01*
X132748705Y-94400890D01*
X132873174Y-94413281D01*
X132997668Y-94401150D01*
X133117404Y-94364966D01*
X133227780Y-94306117D01*
X133623841Y-94042076D01*
X134019902Y-94306117D01*
X134129661Y-94364711D01*
X134249359Y-94401021D01*
X134373841Y-94413281D01*
X134498323Y-94401021D01*
X134618021Y-94364711D01*
X134728335Y-94305746D01*
X134825026Y-94226394D01*
X134904378Y-94129703D01*
X134963343Y-94019389D01*
X134999653Y-93899691D01*
X135011913Y-93775209D01*
X135011913Y-93246715D01*
X135141693Y-93003914D01*
X135235184Y-92695715D01*
X135258841Y-92455521D01*
X135258841Y-89024688D01*
X135235184Y-88784494D01*
X135141693Y-88476295D01*
X135011913Y-88233494D01*
X135011913Y-87690052D01*
X135091810Y-87610155D01*
X135216173Y-87458618D01*
X135285331Y-87355116D01*
X135352095Y-87230209D01*
X135486603Y-87230209D01*
X138874517Y-90618125D01*
X138874527Y-90618133D01*
X139509518Y-91253125D01*
X139509523Y-91253129D01*
X140030920Y-91774527D01*
X140082127Y-91836923D01*
X140331089Y-92041240D01*
X140615126Y-92193061D01*
X140923324Y-92286552D01*
X141243841Y-92318120D01*
X141564357Y-92286552D01*
X141872556Y-92193061D01*
X142156593Y-92041240D01*
X142405555Y-91836923D01*
X142609872Y-91587961D01*
X142761693Y-91303924D01*
X142855184Y-90995725D01*
X142886752Y-90675209D01*
X142855184Y-90354693D01*
X142845393Y-90322414D01*
X142761693Y-90046494D01*
X142747540Y-90020015D01*
X142609872Y-89762457D01*
X142405555Y-89513495D01*
X142343159Y-89462288D01*
X141821761Y-88940891D01*
X141821757Y-88940886D01*
X141186765Y-88305895D01*
X141186757Y-88305885D01*
X137376766Y-84495896D01*
X137325555Y-84433495D01*
X137076593Y-84229178D01*
X136792556Y-84077357D01*
X136484357Y-83983866D01*
X136244163Y-83960209D01*
X136244160Y-83960209D01*
X136163841Y-83952298D01*
X136083522Y-83960209D01*
X135352095Y-83960209D01*
X135285331Y-83835302D01*
X135216173Y-83731800D01*
X135091810Y-83580263D01*
X135003787Y-83492240D01*
X134852250Y-83367877D01*
X134748748Y-83298719D01*
X134575861Y-83206309D01*
X134460853Y-83158671D01*
X134273260Y-83101766D01*
X134151173Y-83077482D01*
X133956083Y-83058267D01*
X133893841Y-83055209D01*
X123193841Y-83055209D01*
X123131599Y-83058267D01*
X122936509Y-83077482D01*
X122814422Y-83101766D01*
X122626829Y-83158671D01*
X122511821Y-83206309D01*
X122338934Y-83298719D01*
X122235432Y-83367877D01*
X122083895Y-83492240D01*
X121995872Y-83580263D01*
X121871509Y-83731800D01*
X121802351Y-83835302D01*
X121709941Y-84008189D01*
X121662303Y-84123197D01*
X121605398Y-84310790D01*
X121581114Y-84432877D01*
X121561899Y-84627967D01*
X121558841Y-84690209D01*
X113223958Y-84690209D01*
X113181464Y-84476581D01*
X112892374Y-83778655D01*
X112472680Y-83150539D01*
X111938511Y-82616370D01*
X111310395Y-82196676D01*
X111210285Y-82155209D01*
X122134775Y-82155209D01*
X122143019Y-82238916D01*
X122167436Y-82319405D01*
X122207086Y-82393585D01*
X122260446Y-82458604D01*
X122325465Y-82511964D01*
X122399645Y-82551614D01*
X122480134Y-82576031D01*
X122563841Y-82584275D01*
X123084091Y-82582209D01*
X123190841Y-82475459D01*
X123190841Y-81765709D01*
X123736841Y-81765709D01*
X123736841Y-82475459D01*
X123843591Y-82582209D01*
X124363841Y-82584275D01*
X124447548Y-82576031D01*
X124528037Y-82551614D01*
X124602217Y-82511964D01*
X124667236Y-82458604D01*
X124720596Y-82393585D01*
X124733841Y-82368805D01*
X124747086Y-82393585D01*
X124800446Y-82458604D01*
X124865465Y-82511964D01*
X124939645Y-82551614D01*
X125020134Y-82576031D01*
X125103841Y-82584275D01*
X125624091Y-82582209D01*
X125730841Y-82475459D01*
X125730841Y-81765709D01*
X126276841Y-81765709D01*
X126276841Y-82475459D01*
X126383591Y-82582209D01*
X126903841Y-82584275D01*
X126987548Y-82576031D01*
X127068037Y-82551614D01*
X127142217Y-82511964D01*
X127207236Y-82458604D01*
X127260596Y-82393585D01*
X127273841Y-82368805D01*
X127287086Y-82393585D01*
X127340446Y-82458604D01*
X127405465Y-82511964D01*
X127479645Y-82551614D01*
X127560134Y-82576031D01*
X127643841Y-82584275D01*
X128164091Y-82582209D01*
X128270841Y-82475459D01*
X128270841Y-81765709D01*
X128816841Y-81765709D01*
X128816841Y-82475459D01*
X128923591Y-82582209D01*
X129443841Y-82584275D01*
X129527548Y-82576031D01*
X129608037Y-82551614D01*
X129682217Y-82511964D01*
X129747236Y-82458604D01*
X129800596Y-82393585D01*
X129813841Y-82368805D01*
X129827086Y-82393585D01*
X129880446Y-82458604D01*
X129945465Y-82511964D01*
X130019645Y-82551614D01*
X130100134Y-82576031D01*
X130183841Y-82584275D01*
X130704091Y-82582209D01*
X130810841Y-82475459D01*
X130810841Y-81765709D01*
X131356841Y-81765709D01*
X131356841Y-82475459D01*
X131463591Y-82582209D01*
X131983841Y-82584275D01*
X132067548Y-82576031D01*
X132148037Y-82551614D01*
X132222217Y-82511964D01*
X132287236Y-82458604D01*
X132340596Y-82393585D01*
X132353841Y-82368805D01*
X132367086Y-82393585D01*
X132420446Y-82458604D01*
X132485465Y-82511964D01*
X132559645Y-82551614D01*
X132640134Y-82576031D01*
X132723841Y-82584275D01*
X133244091Y-82582209D01*
X133350841Y-82475459D01*
X133350841Y-81765709D01*
X133896841Y-81765709D01*
X133896841Y-82475459D01*
X134003591Y-82582209D01*
X134523841Y-82584275D01*
X134607548Y-82576031D01*
X134688037Y-82551614D01*
X134762217Y-82511964D01*
X134827236Y-82458604D01*
X134880596Y-82393585D01*
X134920246Y-82319405D01*
X134944663Y-82238916D01*
X134952907Y-82155209D01*
X134950841Y-81872459D01*
X134844091Y-81765709D01*
X133896841Y-81765709D01*
X133350841Y-81765709D01*
X132403591Y-81765709D01*
X132353841Y-81815459D01*
X132304091Y-81765709D01*
X131356841Y-81765709D01*
X130810841Y-81765709D01*
X129863591Y-81765709D01*
X129813841Y-81815459D01*
X129764091Y-81765709D01*
X128816841Y-81765709D01*
X128270841Y-81765709D01*
X127323591Y-81765709D01*
X127273841Y-81815459D01*
X127224091Y-81765709D01*
X126276841Y-81765709D01*
X125730841Y-81765709D01*
X124783591Y-81765709D01*
X124733841Y-81815459D01*
X124684091Y-81765709D01*
X123736841Y-81765709D01*
X123190841Y-81765709D01*
X122243591Y-81765709D01*
X122136841Y-81872459D01*
X122134775Y-82155209D01*
X111210285Y-82155209D01*
X110612469Y-81907586D01*
X109871556Y-81760209D01*
X109116126Y-81760209D01*
X108375213Y-81907586D01*
X107677287Y-82196676D01*
X107049171Y-82616370D01*
X106515002Y-83150539D01*
X106095308Y-83778655D01*
X105806218Y-84476581D01*
X105658841Y-85217494D01*
X44734224Y-85217494D01*
X44734224Y-80283421D01*
X84058841Y-80283421D01*
X84058841Y-80506997D01*
X84102458Y-80726276D01*
X84188017Y-80932833D01*
X84312229Y-81118729D01*
X84470321Y-81276821D01*
X84656217Y-81401033D01*
X84862774Y-81486592D01*
X85082053Y-81530209D01*
X85305629Y-81530209D01*
X85524908Y-81486592D01*
X85731465Y-81401033D01*
X85917361Y-81276821D01*
X86075453Y-81118729D01*
X86199665Y-80932833D01*
X86285224Y-80726276D01*
X86328841Y-80506997D01*
X86328841Y-80283421D01*
X88058841Y-80283421D01*
X88058841Y-80506997D01*
X88102458Y-80726276D01*
X88188017Y-80932833D01*
X88312229Y-81118729D01*
X88470321Y-81276821D01*
X88656217Y-81401033D01*
X88862774Y-81486592D01*
X89082053Y-81530209D01*
X89305629Y-81530209D01*
X89524908Y-81486592D01*
X89731465Y-81401033D01*
X89917361Y-81276821D01*
X90075453Y-81118729D01*
X90199665Y-80932833D01*
X90242173Y-80830209D01*
X122134775Y-80830209D01*
X122136841Y-81112959D01*
X122243591Y-81219709D01*
X123190841Y-81219709D01*
X123190841Y-80509959D01*
X123736841Y-80509959D01*
X123736841Y-81219709D01*
X124684091Y-81219709D01*
X124733841Y-81169959D01*
X124783591Y-81219709D01*
X125730841Y-81219709D01*
X125730841Y-80509959D01*
X126276841Y-80509959D01*
X126276841Y-81219709D01*
X127224091Y-81219709D01*
X127273841Y-81169959D01*
X127323591Y-81219709D01*
X128270841Y-81219709D01*
X128270841Y-80509959D01*
X128816841Y-80509959D01*
X128816841Y-81219709D01*
X129764091Y-81219709D01*
X129813841Y-81169959D01*
X129863591Y-81219709D01*
X130810841Y-81219709D01*
X130810841Y-80509959D01*
X131356841Y-80509959D01*
X131356841Y-81219709D01*
X132304091Y-81219709D01*
X132353841Y-81169959D01*
X132403591Y-81219709D01*
X133350841Y-81219709D01*
X133350841Y-80509959D01*
X133896841Y-80509959D01*
X133896841Y-81219709D01*
X134844091Y-81219709D01*
X134950841Y-81112959D01*
X134952907Y-80830209D01*
X134944663Y-80746502D01*
X134920246Y-80666013D01*
X134880596Y-80591833D01*
X134827236Y-80526814D01*
X134762217Y-80473454D01*
X134688037Y-80433804D01*
X134607548Y-80409387D01*
X134523841Y-80401143D01*
X134003591Y-80403209D01*
X133896841Y-80509959D01*
X133350841Y-80509959D01*
X133244091Y-80403209D01*
X132723841Y-80401143D01*
X132640134Y-80409387D01*
X132559645Y-80433804D01*
X132485465Y-80473454D01*
X132420446Y-80526814D01*
X132367086Y-80591833D01*
X132353841Y-80616613D01*
X132340596Y-80591833D01*
X132287236Y-80526814D01*
X132222217Y-80473454D01*
X132148037Y-80433804D01*
X132067548Y-80409387D01*
X131983841Y-80401143D01*
X131463591Y-80403209D01*
X131356841Y-80509959D01*
X130810841Y-80509959D01*
X130704091Y-80403209D01*
X130183841Y-80401143D01*
X130100134Y-80409387D01*
X130019645Y-80433804D01*
X129945465Y-80473454D01*
X129880446Y-80526814D01*
X129827086Y-80591833D01*
X129813841Y-80616613D01*
X129800596Y-80591833D01*
X129747236Y-80526814D01*
X129682217Y-80473454D01*
X129608037Y-80433804D01*
X129527548Y-80409387D01*
X129443841Y-80401143D01*
X128923591Y-80403209D01*
X128816841Y-80509959D01*
X128270841Y-80509959D01*
X128164091Y-80403209D01*
X127643841Y-80401143D01*
X127560134Y-80409387D01*
X127479645Y-80433804D01*
X127405465Y-80473454D01*
X127340446Y-80526814D01*
X127287086Y-80591833D01*
X127273841Y-80616613D01*
X127260596Y-80591833D01*
X127207236Y-80526814D01*
X127142217Y-80473454D01*
X127068037Y-80433804D01*
X126987548Y-80409387D01*
X126903841Y-80401143D01*
X126383591Y-80403209D01*
X126276841Y-80509959D01*
X125730841Y-80509959D01*
X125624091Y-80403209D01*
X125103841Y-80401143D01*
X125020134Y-80409387D01*
X124939645Y-80433804D01*
X124865465Y-80473454D01*
X124800446Y-80526814D01*
X124747086Y-80591833D01*
X124733841Y-80616613D01*
X124720596Y-80591833D01*
X124667236Y-80526814D01*
X124602217Y-80473454D01*
X124528037Y-80433804D01*
X124447548Y-80409387D01*
X124363841Y-80401143D01*
X123843591Y-80403209D01*
X123736841Y-80509959D01*
X123190841Y-80509959D01*
X123084091Y-80403209D01*
X122563841Y-80401143D01*
X122480134Y-80409387D01*
X122399645Y-80433804D01*
X122325465Y-80473454D01*
X122260446Y-80526814D01*
X122207086Y-80591833D01*
X122167436Y-80666013D01*
X122143019Y-80746502D01*
X122134775Y-80830209D01*
X90242173Y-80830209D01*
X90285224Y-80726276D01*
X90328841Y-80506997D01*
X90328841Y-80283421D01*
X90285224Y-80064142D01*
X90199665Y-79857585D01*
X90075453Y-79671689D01*
X89917361Y-79513597D01*
X89731465Y-79389385D01*
X89524908Y-79303826D01*
X89305629Y-79260209D01*
X89082053Y-79260209D01*
X88862774Y-79303826D01*
X88656217Y-79389385D01*
X88470321Y-79513597D01*
X88312229Y-79671689D01*
X88188017Y-79857585D01*
X88102458Y-80064142D01*
X88058841Y-80283421D01*
X86328841Y-80283421D01*
X86285224Y-80064142D01*
X86199665Y-79857585D01*
X86075453Y-79671689D01*
X85917361Y-79513597D01*
X85731465Y-79389385D01*
X85524908Y-79303826D01*
X85305629Y-79260209D01*
X85082053Y-79260209D01*
X84862774Y-79303826D01*
X84656217Y-79389385D01*
X84470321Y-79513597D01*
X84312229Y-79671689D01*
X84188017Y-79857585D01*
X84102458Y-80064142D01*
X84058841Y-80283421D01*
X44734224Y-80283421D01*
X44734224Y-80276495D01*
X44755767Y-80056780D01*
X44809140Y-79880002D01*
X44895834Y-79716952D01*
X45012542Y-79573854D01*
X45154827Y-79456145D01*
X45317262Y-79368318D01*
X45493669Y-79313711D01*
X45719528Y-79289971D01*
X45719924Y-79289979D01*
X45727610Y-79289561D01*
X46747210Y-79228847D01*
X46789849Y-79223379D01*
X46832612Y-79218722D01*
X46840182Y-79217330D01*
X47988531Y-79000024D01*
X48033160Y-78988387D01*
X48077967Y-78977202D01*
X48085278Y-78974796D01*
X49193511Y-78603652D01*
X49236206Y-78586041D01*
X49279022Y-78568903D01*
X49285926Y-78565532D01*
X49285939Y-78565527D01*
X49285950Y-78565520D01*
X50333548Y-78047412D01*
X50373446Y-78024176D01*
X50413552Y-78001379D01*
X50419947Y-77997096D01*
X51387548Y-77341597D01*
X51423900Y-77313180D01*
X51460564Y-77285133D01*
X51466311Y-77280028D01*
X51466319Y-77280021D01*
X51466326Y-77280014D01*
X52336004Y-76499270D01*
X52368178Y-76466167D01*
X52400681Y-76433419D01*
X52405689Y-76427573D01*
X53161370Y-75536016D01*
X53188783Y-75498813D01*
X53216512Y-75461995D01*
X53220675Y-75455532D01*
X53220680Y-75455525D01*
X53220684Y-75455518D01*
X53848370Y-74469657D01*
X53870452Y-74429129D01*
X53892956Y-74388838D01*
X53896207Y-74381861D01*
X53939246Y-74288220D01*
X53948491Y-74334695D01*
X54320501Y-75232808D01*
X54860576Y-76041088D01*
X55547962Y-76728474D01*
X56356242Y-77268549D01*
X57254355Y-77640559D01*
X58207786Y-77830209D01*
X59179896Y-77830209D01*
X60133327Y-77640559D01*
X60995535Y-77283421D01*
X84058841Y-77283421D01*
X84058841Y-77506997D01*
X84102458Y-77726276D01*
X84188017Y-77932833D01*
X84312229Y-78118729D01*
X84470321Y-78276821D01*
X84656217Y-78401033D01*
X84862774Y-78486592D01*
X85082053Y-78530209D01*
X85305629Y-78530209D01*
X85524908Y-78486592D01*
X85731465Y-78401033D01*
X85917361Y-78276821D01*
X86075453Y-78118729D01*
X86199665Y-77932833D01*
X86285224Y-77726276D01*
X86328841Y-77506997D01*
X86328841Y-77283421D01*
X88058841Y-77283421D01*
X88058841Y-77506997D01*
X88102458Y-77726276D01*
X88188017Y-77932833D01*
X88312229Y-78118729D01*
X88470321Y-78276821D01*
X88656217Y-78401033D01*
X88862774Y-78486592D01*
X89082053Y-78530209D01*
X89305629Y-78530209D01*
X89524908Y-78486592D01*
X89731465Y-78401033D01*
X89917361Y-78276821D01*
X90075453Y-78118729D01*
X90199665Y-77932833D01*
X90285224Y-77726276D01*
X90328841Y-77506997D01*
X90328841Y-77283421D01*
X90285224Y-77064142D01*
X90199665Y-76857585D01*
X90075453Y-76671689D01*
X89917361Y-76513597D01*
X89731465Y-76389385D01*
X89524908Y-76303826D01*
X89305629Y-76260209D01*
X89082053Y-76260209D01*
X88862774Y-76303826D01*
X88656217Y-76389385D01*
X88470321Y-76513597D01*
X88312229Y-76671689D01*
X88188017Y-76857585D01*
X88102458Y-77064142D01*
X88058841Y-77283421D01*
X86328841Y-77283421D01*
X86285224Y-77064142D01*
X86199665Y-76857585D01*
X86075453Y-76671689D01*
X85917361Y-76513597D01*
X85731465Y-76389385D01*
X85524908Y-76303826D01*
X85305629Y-76260209D01*
X85082053Y-76260209D01*
X84862774Y-76303826D01*
X84656217Y-76389385D01*
X84470321Y-76513597D01*
X84312229Y-76671689D01*
X84188017Y-76857585D01*
X84102458Y-77064142D01*
X84058841Y-77283421D01*
X60995535Y-77283421D01*
X61031440Y-77268549D01*
X61839720Y-76728474D01*
X62527106Y-76041088D01*
X63067181Y-75232808D01*
X63439191Y-74334695D01*
X63628841Y-73381264D01*
X63628841Y-72409154D01*
X63439191Y-71455723D01*
X63067181Y-70557610D01*
X62527106Y-69749330D01*
X61839720Y-69061944D01*
X61670806Y-68949079D01*
X62317940Y-69012531D01*
X62927306Y-69196510D01*
X63489327Y-69495342D01*
X63982599Y-69897646D01*
X64390751Y-70391016D01*
X64696560Y-70943057D01*
X65035458Y-71554828D01*
X65071158Y-71606608D01*
X65105585Y-71659218D01*
X65112071Y-71667171D01*
X65609684Y-72268682D01*
X65656990Y-72315659D01*
X65703562Y-72363217D01*
X65711469Y-72369759D01*
X66316439Y-72863161D01*
X66371981Y-72900063D01*
X66426893Y-72937662D01*
X66435920Y-72942544D01*
X67125204Y-73309042D01*
X67186810Y-73334435D01*
X67248024Y-73360671D01*
X67257827Y-73363706D01*
X68005171Y-73589343D01*
X68070561Y-73602290D01*
X68135681Y-73616132D01*
X68145885Y-73617205D01*
X68145887Y-73617205D01*
X68920627Y-73693169D01*
X68958442Y-73696893D01*
X117410461Y-73696893D01*
X117442485Y-73693739D01*
X118135301Y-73632940D01*
X118197116Y-73621355D01*
X118259179Y-73611269D01*
X118269081Y-73608573D01*
X119020875Y-73398236D01*
X119082994Y-73374104D01*
X119145395Y-73350859D01*
X119154581Y-73346293D01*
X119154586Y-73346291D01*
X119154590Y-73346289D01*
X119851206Y-72993937D01*
X119907476Y-72958185D01*
X119964154Y-72923275D01*
X119972282Y-72917010D01*
X120587196Y-72436058D01*
X120635433Y-72390074D01*
X120684269Y-72344803D01*
X120691019Y-72337084D01*
X120691024Y-72337079D01*
X120691028Y-72337074D01*
X121200810Y-71745848D01*
X121239177Y-71691397D01*
X121278308Y-71637478D01*
X121283435Y-71628588D01*
X121668676Y-70949600D01*
X122018355Y-70333290D01*
X122434014Y-69851225D01*
X122935399Y-69459069D01*
X123503401Y-69171771D01*
X124120038Y-68999249D01*
X124716640Y-68946893D01*
X133767363Y-68946893D01*
X133616765Y-69009273D01*
G37*
%TD.AperFunction*%
%TD*%
D28*
%TO.N,+9V*%
X134064030Y-83834585D02*
X134227691Y-83884231D01*
X134378513Y-83964847D01*
X134510711Y-84073339D01*
X134619203Y-84205537D01*
X134699819Y-84356359D01*
X134749465Y-84520020D01*
X134766841Y-84696443D01*
X134766841Y-86493975D01*
X134749465Y-86670398D01*
X134699819Y-86834059D01*
X134619203Y-86984881D01*
X134618379Y-86985885D01*
X134498977Y-86949528D01*
X134374508Y-86937137D01*
X134250014Y-86949268D01*
X134130278Y-86985452D01*
X134019902Y-87044301D01*
X133623841Y-87308342D01*
X133227780Y-87044301D01*
X133118021Y-86985707D01*
X132998323Y-86949397D01*
X132873841Y-86937137D01*
X132749359Y-86949397D01*
X132629661Y-86985707D01*
X132519347Y-87044672D01*
X132422656Y-87124024D01*
X132353810Y-87207913D01*
X132285498Y-87124496D01*
X132188890Y-87045043D01*
X132078637Y-86985963D01*
X131958977Y-86949528D01*
X131834508Y-86937137D01*
X131710014Y-86949268D01*
X131590278Y-86985452D01*
X131479902Y-87044301D01*
X131083841Y-87308342D01*
X130687780Y-87044301D01*
X130578021Y-86985707D01*
X130458323Y-86949397D01*
X130333841Y-86937137D01*
X130209359Y-86949397D01*
X130089661Y-86985707D01*
X129979347Y-87044672D01*
X129882656Y-87124024D01*
X129813810Y-87207913D01*
X129745498Y-87124496D01*
X129648890Y-87045043D01*
X129538637Y-86985963D01*
X129418977Y-86949528D01*
X129294508Y-86937137D01*
X129170014Y-86949268D01*
X129050278Y-86985452D01*
X128939902Y-87044301D01*
X128543841Y-87308342D01*
X128147780Y-87044301D01*
X128038021Y-86985707D01*
X127918323Y-86949397D01*
X127793841Y-86937137D01*
X127669359Y-86949397D01*
X127549661Y-86985707D01*
X127439347Y-87044672D01*
X127342656Y-87124024D01*
X127273810Y-87207913D01*
X127205498Y-87124496D01*
X127108890Y-87045043D01*
X126998637Y-86985963D01*
X126878977Y-86949528D01*
X126754508Y-86937137D01*
X126630014Y-86949268D01*
X126510278Y-86985452D01*
X126399902Y-87044301D01*
X126003841Y-87308342D01*
X125607780Y-87044301D01*
X125498021Y-86985707D01*
X125378323Y-86949397D01*
X125253841Y-86937137D01*
X125129359Y-86949397D01*
X125009661Y-86985707D01*
X124899347Y-87044672D01*
X124802656Y-87124024D01*
X124733810Y-87207913D01*
X124665498Y-87124496D01*
X124568890Y-87045043D01*
X124458637Y-86985963D01*
X124338977Y-86949528D01*
X124214508Y-86937137D01*
X124090014Y-86949268D01*
X123970278Y-86985452D01*
X123859902Y-87044301D01*
X123463841Y-87308342D01*
X123067780Y-87044301D01*
X122958021Y-86985707D01*
X122838323Y-86949397D01*
X122713841Y-86937137D01*
X122589359Y-86949397D01*
X122469661Y-86985707D01*
X122469311Y-86985894D01*
X122468479Y-86984881D01*
X122387863Y-86834059D01*
X122338217Y-86670398D01*
X122320841Y-86493975D01*
X122320841Y-84696443D01*
X122338217Y-84520020D01*
X122387863Y-84356359D01*
X122468479Y-84205537D01*
X122576971Y-84073339D01*
X122709169Y-83964847D01*
X122859991Y-83884231D01*
X123023652Y-83834585D01*
X123200075Y-83817209D01*
X133887607Y-83817209D01*
X134064030Y-83834585D01*
%TA.AperFunction,Conductor*%
D29*
G36*
X134064030Y-83834585D02*
G01*
X134227691Y-83884231D01*
X134378513Y-83964847D01*
X134510711Y-84073339D01*
X134619203Y-84205537D01*
X134699819Y-84356359D01*
X134749465Y-84520020D01*
X134766841Y-84696443D01*
X134766841Y-86493975D01*
X134749465Y-86670398D01*
X134699819Y-86834059D01*
X134619203Y-86984881D01*
X134618379Y-86985885D01*
X134498977Y-86949528D01*
X134374508Y-86937137D01*
X134250014Y-86949268D01*
X134130278Y-86985452D01*
X134019902Y-87044301D01*
X133623841Y-87308342D01*
X133227780Y-87044301D01*
X133118021Y-86985707D01*
X132998323Y-86949397D01*
X132873841Y-86937137D01*
X132749359Y-86949397D01*
X132629661Y-86985707D01*
X132519347Y-87044672D01*
X132422656Y-87124024D01*
X132353810Y-87207913D01*
X132285498Y-87124496D01*
X132188890Y-87045043D01*
X132078637Y-86985963D01*
X131958977Y-86949528D01*
X131834508Y-86937137D01*
X131710014Y-86949268D01*
X131590278Y-86985452D01*
X131479902Y-87044301D01*
X131083841Y-87308342D01*
X130687780Y-87044301D01*
X130578021Y-86985707D01*
X130458323Y-86949397D01*
X130333841Y-86937137D01*
X130209359Y-86949397D01*
X130089661Y-86985707D01*
X129979347Y-87044672D01*
X129882656Y-87124024D01*
X129813810Y-87207913D01*
X129745498Y-87124496D01*
X129648890Y-87045043D01*
X129538637Y-86985963D01*
X129418977Y-86949528D01*
X129294508Y-86937137D01*
X129170014Y-86949268D01*
X129050278Y-86985452D01*
X128939902Y-87044301D01*
X128543841Y-87308342D01*
X128147780Y-87044301D01*
X128038021Y-86985707D01*
X127918323Y-86949397D01*
X127793841Y-86937137D01*
X127669359Y-86949397D01*
X127549661Y-86985707D01*
X127439347Y-87044672D01*
X127342656Y-87124024D01*
X127273810Y-87207913D01*
X127205498Y-87124496D01*
X127108890Y-87045043D01*
X126998637Y-86985963D01*
X126878977Y-86949528D01*
X126754508Y-86937137D01*
X126630014Y-86949268D01*
X126510278Y-86985452D01*
X126399902Y-87044301D01*
X126003841Y-87308342D01*
X125607780Y-87044301D01*
X125498021Y-86985707D01*
X125378323Y-86949397D01*
X125253841Y-86937137D01*
X125129359Y-86949397D01*
X125009661Y-86985707D01*
X124899347Y-87044672D01*
X124802656Y-87124024D01*
X124733810Y-87207913D01*
X124665498Y-87124496D01*
X124568890Y-87045043D01*
X124458637Y-86985963D01*
X124338977Y-86949528D01*
X124214508Y-86937137D01*
X124090014Y-86949268D01*
X123970278Y-86985452D01*
X123859902Y-87044301D01*
X123463841Y-87308342D01*
X123067780Y-87044301D01*
X122958021Y-86985707D01*
X122838323Y-86949397D01*
X122713841Y-86937137D01*
X122589359Y-86949397D01*
X122469661Y-86985707D01*
X122469311Y-86985894D01*
X122468479Y-86984881D01*
X122387863Y-86834059D01*
X122338217Y-86670398D01*
X122320841Y-86493975D01*
X122320841Y-84696443D01*
X122338217Y-84520020D01*
X122387863Y-84356359D01*
X122468479Y-84205537D01*
X122576971Y-84073339D01*
X122709169Y-83964847D01*
X122859991Y-83884231D01*
X123023652Y-83834585D01*
X123200075Y-83817209D01*
X133887607Y-83817209D01*
X134064030Y-83834585D01*
G37*
%TD.AperFunction*%
%TD*%
D28*
%TO.N,+5VA*%
X98504030Y-134634585D02*
X98667691Y-134684231D01*
X98818513Y-134764847D01*
X98950711Y-134873339D01*
X99059203Y-135005537D01*
X99139819Y-135156359D01*
X99189465Y-135320020D01*
X99206841Y-135496443D01*
X99206841Y-141103975D01*
X99189465Y-141280398D01*
X99139819Y-141444059D01*
X99059203Y-141594881D01*
X98950711Y-141727079D01*
X98818513Y-141835571D01*
X98667691Y-141916187D01*
X98504030Y-141965833D01*
X98327607Y-141983209D01*
X94955552Y-141983209D01*
X94913615Y-141941272D01*
X94744097Y-141828004D01*
X94555739Y-141749983D01*
X94355780Y-141710209D01*
X94151902Y-141710209D01*
X93951943Y-141749983D01*
X93763585Y-141828004D01*
X93594067Y-141941272D01*
X93552130Y-141983209D01*
X89545075Y-141983209D01*
X89368652Y-141965833D01*
X89204991Y-141916187D01*
X89054169Y-141835571D01*
X88921971Y-141727079D01*
X88813479Y-141594881D01*
X88732863Y-141444059D01*
X88683217Y-141280398D01*
X88665841Y-141103975D01*
X88665841Y-135496443D01*
X88683217Y-135320020D01*
X88732863Y-135156359D01*
X88813479Y-135005537D01*
X88921971Y-134873339D01*
X89054169Y-134764847D01*
X89204991Y-134684231D01*
X89368652Y-134634585D01*
X89545075Y-134617209D01*
X98327607Y-134617209D01*
X98504030Y-134634585D01*
%TA.AperFunction,Conductor*%
D29*
G36*
X98504030Y-134634585D02*
G01*
X98667691Y-134684231D01*
X98818513Y-134764847D01*
X98950711Y-134873339D01*
X99059203Y-135005537D01*
X99139819Y-135156359D01*
X99189465Y-135320020D01*
X99206841Y-135496443D01*
X99206841Y-141103975D01*
X99189465Y-141280398D01*
X99139819Y-141444059D01*
X99059203Y-141594881D01*
X98950711Y-141727079D01*
X98818513Y-141835571D01*
X98667691Y-141916187D01*
X98504030Y-141965833D01*
X98327607Y-141983209D01*
X94955552Y-141983209D01*
X94913615Y-141941272D01*
X94744097Y-141828004D01*
X94555739Y-141749983D01*
X94355780Y-141710209D01*
X94151902Y-141710209D01*
X93951943Y-141749983D01*
X93763585Y-141828004D01*
X93594067Y-141941272D01*
X93552130Y-141983209D01*
X89545075Y-141983209D01*
X89368652Y-141965833D01*
X89204991Y-141916187D01*
X89054169Y-141835571D01*
X88921971Y-141727079D01*
X88813479Y-141594881D01*
X88732863Y-141444059D01*
X88683217Y-141280398D01*
X88665841Y-141103975D01*
X88665841Y-135496443D01*
X88683217Y-135320020D01*
X88732863Y-135156359D01*
X88813479Y-135005537D01*
X88921971Y-134873339D01*
X89054169Y-134764847D01*
X89204991Y-134684231D01*
X89368652Y-134634585D01*
X89545075Y-134617209D01*
X98327607Y-134617209D01*
X98504030Y-134634585D01*
G37*
%TD.AperFunction*%
%TD*%
M02*
