%TF.GenerationSoftware,KiCad,Pcbnew,5.1.8*%
%TF.CreationDate,2020-12-20T23:42:19+01:00*%
%TF.ProjectId,pcb_module_hx711,7063625f-6d6f-4647-956c-655f68783731,rev?*%
%TF.SameCoordinates,Original*%
%TF.FileFunction,Paste,Top*%
%TF.FilePolarity,Positive*%
%FSLAX46Y46*%
G04 Gerber Fmt 4.6, Leading zero omitted, Abs format (unit mm)*
G04 Created by KiCad (PCBNEW 5.1.8) date 2020-12-20 23:42:19*
%MOMM*%
%LPD*%
G01*
G04 APERTURE LIST*
G04 APERTURE END LIST*
%TO.C,C10*%
G36*
G01*
X122813840Y-83955209D02*
X124113842Y-83955209D01*
G75*
G02*
X124363841Y-84205208I0J-249999D01*
G01*
X124363841Y-85030210D01*
G75*
G02*
X124113842Y-85280209I-249999J0D01*
G01*
X122813840Y-85280209D01*
G75*
G02*
X122563841Y-85030210I0J249999D01*
G01*
X122563841Y-84205208D01*
G75*
G02*
X122813840Y-83955209I249999J0D01*
G01*
G37*
G36*
G01*
X122813840Y-80830209D02*
X124113842Y-80830209D01*
G75*
G02*
X124363841Y-81080208I0J-249999D01*
G01*
X124363841Y-81905210D01*
G75*
G02*
X124113842Y-82155209I-249999J0D01*
G01*
X122813840Y-82155209D01*
G75*
G02*
X122563841Y-81905210I0J249999D01*
G01*
X122563841Y-81080208D01*
G75*
G02*
X122813840Y-80830209I249999J0D01*
G01*
G37*
%TD*%
%TO.C,C9*%
G36*
G01*
X125353840Y-83955209D02*
X126653842Y-83955209D01*
G75*
G02*
X126903841Y-84205208I0J-249999D01*
G01*
X126903841Y-85030210D01*
G75*
G02*
X126653842Y-85280209I-249999J0D01*
G01*
X125353840Y-85280209D01*
G75*
G02*
X125103841Y-85030210I0J249999D01*
G01*
X125103841Y-84205208D01*
G75*
G02*
X125353840Y-83955209I249999J0D01*
G01*
G37*
G36*
G01*
X125353840Y-80830209D02*
X126653842Y-80830209D01*
G75*
G02*
X126903841Y-81080208I0J-249999D01*
G01*
X126903841Y-81905210D01*
G75*
G02*
X126653842Y-82155209I-249999J0D01*
G01*
X125353840Y-82155209D01*
G75*
G02*
X125103841Y-81905210I0J249999D01*
G01*
X125103841Y-81080208D01*
G75*
G02*
X125353840Y-80830209I249999J0D01*
G01*
G37*
%TD*%
%TO.C,C8*%
G36*
G01*
X127893840Y-83955209D02*
X129193842Y-83955209D01*
G75*
G02*
X129443841Y-84205208I0J-249999D01*
G01*
X129443841Y-85030210D01*
G75*
G02*
X129193842Y-85280209I-249999J0D01*
G01*
X127893840Y-85280209D01*
G75*
G02*
X127643841Y-85030210I0J249999D01*
G01*
X127643841Y-84205208D01*
G75*
G02*
X127893840Y-83955209I249999J0D01*
G01*
G37*
G36*
G01*
X127893840Y-80830209D02*
X129193842Y-80830209D01*
G75*
G02*
X129443841Y-81080208I0J-249999D01*
G01*
X129443841Y-81905210D01*
G75*
G02*
X129193842Y-82155209I-249999J0D01*
G01*
X127893840Y-82155209D01*
G75*
G02*
X127643841Y-81905210I0J249999D01*
G01*
X127643841Y-81080208D01*
G75*
G02*
X127893840Y-80830209I249999J0D01*
G01*
G37*
%TD*%
%TO.C,C7*%
G36*
G01*
X130433840Y-83955209D02*
X131733842Y-83955209D01*
G75*
G02*
X131983841Y-84205208I0J-249999D01*
G01*
X131983841Y-85030210D01*
G75*
G02*
X131733842Y-85280209I-249999J0D01*
G01*
X130433840Y-85280209D01*
G75*
G02*
X130183841Y-85030210I0J249999D01*
G01*
X130183841Y-84205208D01*
G75*
G02*
X130433840Y-83955209I249999J0D01*
G01*
G37*
G36*
G01*
X130433840Y-80830209D02*
X131733842Y-80830209D01*
G75*
G02*
X131983841Y-81080208I0J-249999D01*
G01*
X131983841Y-81905210D01*
G75*
G02*
X131733842Y-82155209I-249999J0D01*
G01*
X130433840Y-82155209D01*
G75*
G02*
X130183841Y-81905210I0J249999D01*
G01*
X130183841Y-81080208D01*
G75*
G02*
X130433840Y-80830209I249999J0D01*
G01*
G37*
%TD*%
%TO.C,C6*%
G36*
G01*
X132973840Y-83955209D02*
X134273842Y-83955209D01*
G75*
G02*
X134523841Y-84205208I0J-249999D01*
G01*
X134523841Y-85030210D01*
G75*
G02*
X134273842Y-85280209I-249999J0D01*
G01*
X132973840Y-85280209D01*
G75*
G02*
X132723841Y-85030210I0J249999D01*
G01*
X132723841Y-84205208D01*
G75*
G02*
X132973840Y-83955209I249999J0D01*
G01*
G37*
G36*
G01*
X132973840Y-80830209D02*
X134273842Y-80830209D01*
G75*
G02*
X134523841Y-81080208I0J-249999D01*
G01*
X134523841Y-81905210D01*
G75*
G02*
X134273842Y-82155209I-249999J0D01*
G01*
X132973840Y-82155209D01*
G75*
G02*
X132723841Y-81905210I0J249999D01*
G01*
X132723841Y-81080208D01*
G75*
G02*
X132973840Y-80830209I249999J0D01*
G01*
G37*
%TD*%
M02*
