%TF.GenerationSoftware,KiCad,Pcbnew,5.1.8*%
%TF.CreationDate,2020-12-20T23:42:19+01:00*%
%TF.ProjectId,pcb_module_hx711,7063625f-6d6f-4647-956c-655f68783731,rev?*%
%TF.SameCoordinates,Original*%
%TF.FileFunction,Profile,NP*%
%FSLAX46Y46*%
G04 Gerber Fmt 4.6, Leading zero omitted, Abs format (unit mm)*
G04 Created by KiCad (PCBNEW 5.1.8) date 2020-12-20 23:42:19*
%MOMM*%
%LPD*%
G01*
G04 APERTURE LIST*
%TA.AperFunction,Profile*%
%ADD10C,0.200000*%
%TD*%
G04 APERTURE END LIST*
D10*
X150369225Y-138198252D02*
G75*
G02*
X149123858Y-139381473I-1184773J1D01*
G01*
X55983920Y-149711893D02*
G75*
G02*
X54733920Y-148461893I0J1250000D01*
G01*
X138384452Y-68211893D02*
G75*
G02*
X139634452Y-69461893I0J-1250000D01*
G01*
X43999223Y-80240558D02*
G75*
G02*
X45683920Y-78555861I1684697J0D01*
G01*
X60834452Y-144961893D02*
G75*
G03*
X60834452Y-144961893I-2150000J0D01*
G01*
X60834452Y-72961893D02*
G75*
G03*
X60834452Y-72961893I-2150000J0D01*
G01*
X137834452Y-72961893D02*
G75*
G03*
X137834452Y-72961893I-2150000J0D01*
G01*
X137834452Y-144961893D02*
G75*
G03*
X137834452Y-144961893I-2150000J0D01*
G01*
X46683920Y-131111893D02*
G75*
G02*
X43999224Y-128427197I0J2684696D01*
G01*
X147684452Y-86811893D02*
G75*
G02*
X150369224Y-89496665I0J-2684772D01*
G01*
X108525253Y-147676179D02*
G75*
G02*
X105684452Y-149711893I-2840801J964286D01*
G01*
X80184452Y-149711894D02*
G75*
G02*
X77343650Y-147676179I0J3000001D01*
G01*
X133684452Y-149711894D02*
G75*
G02*
X130843650Y-147676179I0J3000001D01*
G01*
X65339500Y-147336893D02*
G75*
G02*
X61684452Y-149711893I-3655048J1625000D01*
G01*
X61684452Y-68211893D02*
G75*
G02*
X65339500Y-70586893I0J-4000000D01*
G01*
X121029404Y-70586893D02*
G75*
G02*
X124684452Y-68211893I3655048J-1625000D01*
G01*
X121029404Y-70586893D02*
G75*
G02*
X117374356Y-72961893I-3655048J1625000D01*
G01*
X68994547Y-72961892D02*
G75*
G02*
X65339500Y-70586893I0J3999999D01*
G01*
X127055915Y-144961893D02*
G75*
G02*
X130843650Y-147676179I0J-4000000D01*
G01*
X108525254Y-147676179D02*
G75*
G02*
X112312989Y-144961893I3787735J-1285714D01*
G01*
X65339499Y-147336893D02*
G75*
G02*
X68994547Y-144961893I3655048J-1625000D01*
G01*
X73555915Y-144961893D02*
G75*
G02*
X77343650Y-147676179I0J-4000000D01*
G01*
X54055905Y-71894631D02*
G75*
G02*
X58684452Y-68211893I4628547J-1067262D01*
G01*
X140312810Y-146029976D02*
G75*
G02*
X135684452Y-149711893I-4628358J1068083D01*
G01*
X46683920Y-131111893D02*
G75*
G02*
X54733920Y-139161893I0J-8050000D01*
G01*
X147684452Y-86811893D02*
G75*
G02*
X139634452Y-78761893I0J8050000D01*
G01*
X54055904Y-71894630D02*
G75*
G02*
X45683920Y-78555861I-8371984J1930433D01*
G01*
X140312810Y-146029976D02*
G75*
G02*
X149123858Y-139381473I8371642J-1931917D01*
G01*
X150369224Y-138198251D02*
X150369224Y-89496665D01*
X139634452Y-78761893D02*
X139634452Y-69461893D01*
X61684452Y-68211893D02*
X58684452Y-68211893D01*
X138384452Y-68211893D02*
X124684452Y-68211893D01*
X117374356Y-72961893D02*
X68994547Y-72961893D01*
X112312989Y-144961893D02*
X127055915Y-144961893D01*
X68994547Y-144961893D02*
X73555915Y-144961893D01*
X133684452Y-149711893D02*
X135684452Y-149711893D01*
X80184452Y-149711893D02*
X105684452Y-149711893D01*
X55983920Y-149711893D02*
X61684452Y-149711893D01*
X54733920Y-139161893D02*
X54733920Y-148461893D01*
X43999224Y-80240558D02*
X43999224Y-128427197D01*
M02*
