%TF.GenerationSoftware,KiCad,Pcbnew,5.1.8*%
%TF.CreationDate,2020-12-20T23:42:19+01:00*%
%TF.ProjectId,pcb_module_hx711,7063625f-6d6f-4647-956c-655f68783731,rev?*%
%TF.SameCoordinates,Original*%
%TF.FileFunction,Soldermask,Top*%
%TF.FilePolarity,Negative*%
%FSLAX46Y46*%
G04 Gerber Fmt 4.6, Leading zero omitted, Abs format (unit mm)*
G04 Created by KiCad (PCBNEW 5.1.8) date 2020-12-20 23:42:19*
%MOMM*%
%LPD*%
G01*
G04 APERTURE LIST*
%ADD10R,1.700000X1.700000*%
%ADD11O,1.500000X2.000000*%
%ADD12C,0.100000*%
%ADD13C,1.000000*%
%ADD14O,1.700000X1.700000*%
%ADD15C,0.900000*%
%ADD16C,8.600000*%
%ADD17C,7.500000*%
%ADD18C,0.800000*%
%ADD19C,6.400000*%
%ADD20C,1.500000*%
%ADD21C,0.254000*%
G04 APERTURE END LIST*
D10*
%TO.C,TP7*%
X87903841Y-133855209D03*
%TD*%
%TO.C,TP6*%
X115843841Y-134490209D03*
%TD*%
%TO.C,TP5*%
X93618841Y-107185209D03*
%TD*%
%TO.C,TP4*%
X102508841Y-90675209D03*
%TD*%
%TO.C,TP3*%
X102508841Y-96390209D03*
%TD*%
%TO.C,TP2*%
X115843841Y-140205209D03*
%TD*%
%TO.C,TP1*%
X118383841Y-86865209D03*
%TD*%
D11*
%TO.C,U1*%
X123463841Y-90675209D03*
X126003841Y-90675209D03*
X128543841Y-90675209D03*
X131083841Y-90675209D03*
X133623841Y-90675209D03*
%TD*%
D12*
%TO.C,JP15*%
G36*
X123463841Y-87775209D02*
G01*
X122713841Y-87275209D01*
X122713841Y-86275209D01*
X124213841Y-86275209D01*
X124213841Y-87275209D01*
X123463841Y-87775209D01*
G37*
G36*
X122713841Y-88725209D02*
G01*
X122713841Y-87575209D01*
X123463841Y-88075209D01*
X124213841Y-87575209D01*
X124213841Y-88725209D01*
X122713841Y-88725209D01*
G37*
%TD*%
%TO.C,JP14*%
G36*
X126003841Y-87775209D02*
G01*
X125253841Y-87275209D01*
X125253841Y-86275209D01*
X126753841Y-86275209D01*
X126753841Y-87275209D01*
X126003841Y-87775209D01*
G37*
G36*
X125253841Y-88725209D02*
G01*
X125253841Y-87575209D01*
X126003841Y-88075209D01*
X126753841Y-87575209D01*
X126753841Y-88725209D01*
X125253841Y-88725209D01*
G37*
%TD*%
%TO.C,JP13*%
G36*
X128543841Y-87775209D02*
G01*
X127793841Y-87275209D01*
X127793841Y-86275209D01*
X129293841Y-86275209D01*
X129293841Y-87275209D01*
X128543841Y-87775209D01*
G37*
G36*
X127793841Y-88725209D02*
G01*
X127793841Y-87575209D01*
X128543841Y-88075209D01*
X129293841Y-87575209D01*
X129293841Y-88725209D01*
X127793841Y-88725209D01*
G37*
%TD*%
%TO.C,JP12*%
G36*
X131083841Y-87775209D02*
G01*
X130333841Y-87275209D01*
X130333841Y-86275209D01*
X131833841Y-86275209D01*
X131833841Y-87275209D01*
X131083841Y-87775209D01*
G37*
G36*
X130333841Y-88725209D02*
G01*
X130333841Y-87575209D01*
X131083841Y-88075209D01*
X131833841Y-87575209D01*
X131833841Y-88725209D01*
X130333841Y-88725209D01*
G37*
%TD*%
%TO.C,JP11*%
G36*
X133623841Y-87775209D02*
G01*
X132873841Y-87275209D01*
X132873841Y-86275209D01*
X134373841Y-86275209D01*
X134373841Y-87275209D01*
X133623841Y-87775209D01*
G37*
G36*
X132873841Y-88725209D02*
G01*
X132873841Y-87575209D01*
X133623841Y-88075209D01*
X134373841Y-87575209D01*
X134373841Y-88725209D01*
X132873841Y-88725209D01*
G37*
%TD*%
%TO.C,JP10*%
G36*
X123463841Y-93575209D02*
G01*
X124213841Y-94075209D01*
X124213841Y-95075209D01*
X122713841Y-95075209D01*
X122713841Y-94075209D01*
X123463841Y-93575209D01*
G37*
G36*
X124213841Y-92625209D02*
G01*
X124213841Y-93775209D01*
X123463841Y-93275209D01*
X122713841Y-93775209D01*
X122713841Y-92625209D01*
X124213841Y-92625209D01*
G37*
%TD*%
%TO.C,JP9*%
G36*
X126003841Y-93575209D02*
G01*
X126753841Y-94075209D01*
X126753841Y-95075209D01*
X125253841Y-95075209D01*
X125253841Y-94075209D01*
X126003841Y-93575209D01*
G37*
G36*
X126753841Y-92625209D02*
G01*
X126753841Y-93775209D01*
X126003841Y-93275209D01*
X125253841Y-93775209D01*
X125253841Y-92625209D01*
X126753841Y-92625209D01*
G37*
%TD*%
%TO.C,JP8*%
G36*
X128543841Y-93575209D02*
G01*
X129293841Y-94075209D01*
X129293841Y-95075209D01*
X127793841Y-95075209D01*
X127793841Y-94075209D01*
X128543841Y-93575209D01*
G37*
G36*
X129293841Y-92625209D02*
G01*
X129293841Y-93775209D01*
X128543841Y-93275209D01*
X127793841Y-93775209D01*
X127793841Y-92625209D01*
X129293841Y-92625209D01*
G37*
%TD*%
%TO.C,JP7*%
G36*
X131083841Y-93575209D02*
G01*
X131833841Y-94075209D01*
X131833841Y-95075209D01*
X130333841Y-95075209D01*
X130333841Y-94075209D01*
X131083841Y-93575209D01*
G37*
G36*
X131833841Y-92625209D02*
G01*
X131833841Y-93775209D01*
X131083841Y-93275209D01*
X130333841Y-93775209D01*
X130333841Y-92625209D01*
X131833841Y-92625209D01*
G37*
%TD*%
%TO.C,JP6*%
G36*
X133623841Y-93575209D02*
G01*
X134373841Y-94075209D01*
X134373841Y-95075209D01*
X132873841Y-95075209D01*
X132873841Y-94075209D01*
X133623841Y-93575209D01*
G37*
G36*
X134373841Y-92625209D02*
G01*
X134373841Y-93775209D01*
X133623841Y-93275209D01*
X132873841Y-93775209D01*
X132873841Y-92625209D01*
X134373841Y-92625209D01*
G37*
%TD*%
%TO.C,C10*%
G36*
G01*
X122813840Y-83955209D02*
X124113842Y-83955209D01*
G75*
G02*
X124363841Y-84205208I0J-249999D01*
G01*
X124363841Y-85030210D01*
G75*
G02*
X124113842Y-85280209I-249999J0D01*
G01*
X122813840Y-85280209D01*
G75*
G02*
X122563841Y-85030210I0J249999D01*
G01*
X122563841Y-84205208D01*
G75*
G02*
X122813840Y-83955209I249999J0D01*
G01*
G37*
G36*
G01*
X122813840Y-80830209D02*
X124113842Y-80830209D01*
G75*
G02*
X124363841Y-81080208I0J-249999D01*
G01*
X124363841Y-81905210D01*
G75*
G02*
X124113842Y-82155209I-249999J0D01*
G01*
X122813840Y-82155209D01*
G75*
G02*
X122563841Y-81905210I0J249999D01*
G01*
X122563841Y-81080208D01*
G75*
G02*
X122813840Y-80830209I249999J0D01*
G01*
G37*
%TD*%
%TO.C,C9*%
G36*
G01*
X125353840Y-83955209D02*
X126653842Y-83955209D01*
G75*
G02*
X126903841Y-84205208I0J-249999D01*
G01*
X126903841Y-85030210D01*
G75*
G02*
X126653842Y-85280209I-249999J0D01*
G01*
X125353840Y-85280209D01*
G75*
G02*
X125103841Y-85030210I0J249999D01*
G01*
X125103841Y-84205208D01*
G75*
G02*
X125353840Y-83955209I249999J0D01*
G01*
G37*
G36*
G01*
X125353840Y-80830209D02*
X126653842Y-80830209D01*
G75*
G02*
X126903841Y-81080208I0J-249999D01*
G01*
X126903841Y-81905210D01*
G75*
G02*
X126653842Y-82155209I-249999J0D01*
G01*
X125353840Y-82155209D01*
G75*
G02*
X125103841Y-81905210I0J249999D01*
G01*
X125103841Y-81080208D01*
G75*
G02*
X125353840Y-80830209I249999J0D01*
G01*
G37*
%TD*%
%TO.C,C8*%
G36*
G01*
X127893840Y-83955209D02*
X129193842Y-83955209D01*
G75*
G02*
X129443841Y-84205208I0J-249999D01*
G01*
X129443841Y-85030210D01*
G75*
G02*
X129193842Y-85280209I-249999J0D01*
G01*
X127893840Y-85280209D01*
G75*
G02*
X127643841Y-85030210I0J249999D01*
G01*
X127643841Y-84205208D01*
G75*
G02*
X127893840Y-83955209I249999J0D01*
G01*
G37*
G36*
G01*
X127893840Y-80830209D02*
X129193842Y-80830209D01*
G75*
G02*
X129443841Y-81080208I0J-249999D01*
G01*
X129443841Y-81905210D01*
G75*
G02*
X129193842Y-82155209I-249999J0D01*
G01*
X127893840Y-82155209D01*
G75*
G02*
X127643841Y-81905210I0J249999D01*
G01*
X127643841Y-81080208D01*
G75*
G02*
X127893840Y-80830209I249999J0D01*
G01*
G37*
%TD*%
%TO.C,C7*%
G36*
G01*
X130433840Y-83955209D02*
X131733842Y-83955209D01*
G75*
G02*
X131983841Y-84205208I0J-249999D01*
G01*
X131983841Y-85030210D01*
G75*
G02*
X131733842Y-85280209I-249999J0D01*
G01*
X130433840Y-85280209D01*
G75*
G02*
X130183841Y-85030210I0J249999D01*
G01*
X130183841Y-84205208D01*
G75*
G02*
X130433840Y-83955209I249999J0D01*
G01*
G37*
G36*
G01*
X130433840Y-80830209D02*
X131733842Y-80830209D01*
G75*
G02*
X131983841Y-81080208I0J-249999D01*
G01*
X131983841Y-81905210D01*
G75*
G02*
X131733842Y-82155209I-249999J0D01*
G01*
X130433840Y-82155209D01*
G75*
G02*
X130183841Y-81905210I0J249999D01*
G01*
X130183841Y-81080208D01*
G75*
G02*
X130433840Y-80830209I249999J0D01*
G01*
G37*
%TD*%
%TO.C,C6*%
G36*
G01*
X132973840Y-83955209D02*
X134273842Y-83955209D01*
G75*
G02*
X134523841Y-84205208I0J-249999D01*
G01*
X134523841Y-85030210D01*
G75*
G02*
X134273842Y-85280209I-249999J0D01*
G01*
X132973840Y-85280209D01*
G75*
G02*
X132723841Y-85030210I0J249999D01*
G01*
X132723841Y-84205208D01*
G75*
G02*
X132973840Y-83955209I249999J0D01*
G01*
G37*
G36*
G01*
X132973840Y-80830209D02*
X134273842Y-80830209D01*
G75*
G02*
X134523841Y-81080208I0J-249999D01*
G01*
X134523841Y-81905210D01*
G75*
G02*
X134273842Y-82155209I-249999J0D01*
G01*
X132973840Y-82155209D01*
G75*
G02*
X132723841Y-81905210I0J249999D01*
G01*
X132723841Y-81080208D01*
G75*
G02*
X132973840Y-80830209I249999J0D01*
G01*
G37*
%TD*%
D13*
%TO.C,H3*%
X89193841Y-77395209D03*
X89193841Y-80395209D03*
X85193841Y-80395209D03*
X85193841Y-77395209D03*
%TD*%
D14*
%TO.C,J7*%
X112033841Y-121155209D03*
X109493841Y-121155209D03*
X112033841Y-118615209D03*
X109493841Y-118615209D03*
X112033841Y-116075209D03*
X109493841Y-116075209D03*
X112033841Y-113535209D03*
X109493841Y-113535209D03*
X112033841Y-110995209D03*
X109493841Y-110995209D03*
X112033841Y-108455209D03*
X109493841Y-108455209D03*
X112033841Y-105915209D03*
X109493841Y-105915209D03*
X112033841Y-103375209D03*
X109493841Y-103375209D03*
X112033841Y-100835209D03*
X109493841Y-100835209D03*
X112033841Y-98295209D03*
X109493841Y-98295209D03*
X112033841Y-95755209D03*
X109493841Y-95755209D03*
X112033841Y-93215209D03*
X109493841Y-93215209D03*
X112033841Y-90675209D03*
D10*
X109493841Y-90675209D03*
%TD*%
D15*
%TO.C,H7*%
X137974260Y-142614790D03*
X135693841Y-141670209D03*
X133413422Y-142614790D03*
X132468841Y-144895209D03*
X133413422Y-147175628D03*
X135693841Y-148120209D03*
X137974260Y-147175628D03*
X138918841Y-144895209D03*
D16*
X135693841Y-144895209D03*
%TD*%
D15*
%TO.C,H6*%
X60974260Y-142614790D03*
X58693841Y-141670209D03*
X56413422Y-142614790D03*
X55468841Y-144895209D03*
X56413422Y-147175628D03*
X58693841Y-148120209D03*
X60974260Y-147175628D03*
X61918841Y-144895209D03*
D17*
X58693841Y-144895209D03*
%TD*%
D15*
%TO.C,H5*%
X137974260Y-70614790D03*
X135693841Y-69670209D03*
X133413422Y-70614790D03*
X132468841Y-72895209D03*
X133413422Y-75175628D03*
X135693841Y-76120209D03*
X137974260Y-75175628D03*
X138918841Y-72895209D03*
D17*
X135693841Y-72895209D03*
%TD*%
D15*
%TO.C,H4*%
X60974260Y-70614790D03*
X58693841Y-69670209D03*
X56413422Y-70614790D03*
X55468841Y-72895209D03*
X56413422Y-75175628D03*
X58693841Y-76120209D03*
X60974260Y-75175628D03*
X61918841Y-72895209D03*
D16*
X58693841Y-72895209D03*
%TD*%
D18*
%TO.C,H2*%
X111190897Y-83898153D03*
X109493841Y-83195209D03*
X107796785Y-83898153D03*
X107093841Y-85595209D03*
X107796785Y-87292265D03*
X109493841Y-87995209D03*
X111190897Y-87292265D03*
X111893841Y-85595209D03*
D19*
X109493841Y-85595209D03*
%TD*%
D18*
%TO.C,H1*%
X111190897Y-124538153D03*
X109493841Y-123835209D03*
X107796785Y-124538153D03*
X107093841Y-126235209D03*
X107796785Y-127932265D03*
X109493841Y-128635209D03*
X111190897Y-127932265D03*
X111893841Y-126235209D03*
D19*
X109493841Y-126235209D03*
%TD*%
D20*
%TO.C,J6*%
X52978841Y-112265209D03*
%TD*%
D21*
X127781841Y-119123209D02*
X122955841Y-119123209D01*
X122955841Y-113027209D01*
X127781841Y-113027209D01*
X127781841Y-119123209D01*
D12*
G36*
X127781841Y-119123209D02*
G01*
X122955841Y-119123209D01*
X122955841Y-113027209D01*
X127781841Y-113027209D01*
X127781841Y-119123209D01*
G37*
D21*
X99206841Y-141983209D02*
X88665841Y-141983209D01*
X88665841Y-134617209D01*
X99206841Y-134617209D01*
X99206841Y-141983209D01*
D12*
G36*
X99206841Y-141983209D02*
G01*
X88665841Y-141983209D01*
X88665841Y-134617209D01*
X99206841Y-134617209D01*
X99206841Y-141983209D01*
G37*
M02*
