M48
; DRILL file {KiCad 5.1.8} date Sun Dec 20 23:42:13 2020
; FORMAT={-:-/ absolute / inch / decimal}
; #@! TF.CreationDate,2020-12-20T23:42:13+01:00
; #@! TF.GenerationSoftware,Kicad,Pcbnew,5.1.8
; #@! TF.FileFunction,Plated,1,2,PTH
FMAT,2
INCH
T1C0.0079
T2C0.0157
T3C0.0197
T4C0.0236
T5C0.0276
T6C0.0315
T7C0.0394
T8C0.0433
T9C0.1260
T10C0.1693
%
G90
G05
T1
X4.8964Y-4.5423
X4.8964Y-4.5974
X4.9358Y-4.5423
X4.9358Y-4.5974
X4.9752Y-4.5423
X4.9752Y-4.5974
T2
X1.799Y-3.4014
X1.799Y-3.6376
X1.799Y-3.8738
X1.799Y-4.11
X1.799Y-4.3463
X1.799Y-4.5825
X1.799Y-4.8187
X1.799Y-5.0549
X1.858Y-3.3423
X1.858Y-5.0943
X1.8777Y-3.2439
X2.0746Y-3.2439
X2.0942Y-3.3423
X2.0942Y-5.0943
X2.1139Y-3.2439
X2.1358Y-4.9199
X2.2608Y-4.7449
X2.3108Y-3.2439
X2.3305Y-3.3423
X2.3305Y-5.0943
X2.3358Y-4.3699
X2.3358Y-4.5199
X2.3502Y-3.2439
X2.547Y-3.2439
X2.5667Y-3.3423
X2.5667Y-5.0943
X2.5864Y-3.2439
X2.6858Y-4.8449
X2.6858Y-4.8949
X2.7832Y-3.2439
X2.7858Y-4.8449
X2.7858Y-4.8949
X2.8029Y-3.3423
X2.8029Y-5.0943
X2.8679Y-4.0789
X2.8858Y-4.8449
X2.8858Y-4.8949
X2.9858Y-4.6199
X2.9858Y-4.8199
X3.0391Y-3.3423
X3.0391Y-5.0943
X3.0679Y-4.2289
X3.2753Y-3.3423
X3.2753Y-5.0943
X3.2858Y-4.4449
X3.3608Y-5.3449
X3.3608Y-5.4449
X3.3608Y-5.5449
X3.3858Y-4.3949
X3.4108Y-5.3449
X3.4108Y-5.4449
X3.4108Y-5.5449
X3.5116Y-3.3423
X3.5116Y-5.0943
X3.5509Y-3.4014
X3.5509Y-3.6376
X3.5509Y-3.8738
X3.5509Y-4.11
X3.5509Y-4.3463
X3.5509Y-4.5825
X3.5509Y-4.8187
X3.5509Y-5.0352
X3.6608Y-5.3199
X3.6608Y-5.3699
X3.6608Y-5.4199
X3.6608Y-5.4699
X3.6608Y-5.5199
X3.6608Y-5.5699
X3.7108Y-5.3199
X3.7108Y-5.3699
X3.7108Y-5.4199
X3.7108Y-5.4699
X3.7108Y-5.5199
X3.7108Y-5.5699
X3.7108Y-5.6199
X3.7108Y-5.6949
X3.7108Y-5.7949
X3.7608Y-3.5199
X3.7608Y-5.3199
X3.7608Y-5.3699
X3.7608Y-5.4199
X3.7608Y-5.4699
X3.7608Y-5.5199
X3.7608Y-5.5699
X3.7608Y-5.6949
X3.7608Y-5.7949
X3.7858Y-5.6449
X3.9858Y-5.1949
X4.0358Y-5.1949
X4.6858Y-4.9699
X4.7108Y-3.9449
X4.7108Y-4.0449
X4.7108Y-4.8949
X4.7608Y-3.9449
X4.7608Y-4.0449
X4.7608Y-4.3199
X4.8108Y-3.1699
X4.8108Y-3.2199
X4.8608Y-4.5199
X4.9108Y-3.1699
X4.9108Y-3.2199
X4.9608Y-4.1949
X4.9608Y-4.9199
X4.9608Y-5.3199
X4.9608Y-5.3699
X5.0108Y-3.1699
X5.0108Y-3.2199
X5.0108Y-4.6199
X5.0608Y-5.3199
X5.0608Y-5.3699
X5.1108Y-3.1699
X5.1108Y-3.2199
X5.1608Y-3.8949
X5.1608Y-3.9449
X5.1858Y-4.9449
X5.1858Y-4.9949
X5.2108Y-3.1699
X5.2108Y-3.2199
X5.2608Y-3.8949
X5.2608Y-3.9449
X5.2858Y-4.9449
X5.2858Y-4.9949
X5.3108Y-3.1699
X5.3108Y-3.2199
X5.3608Y-3.8949
X5.3608Y-3.9449
X5.3858Y-4.9449
X5.3858Y-4.9949
X5.4608Y-3.8949
X5.4608Y-3.9449
X5.4858Y-3.4949
X5.4858Y-4.9449
X5.4858Y-4.9949
X5.5108Y-3.5199
X5.5358Y-3.5449
X5.5608Y-3.5699
T3
X4.2163Y-4.9699
X4.244Y-4.9031
X4.244Y-5.0367
X4.3108Y-4.8754
X4.3108Y-5.0644
X4.3776Y-4.9031
X4.3776Y-5.0367
X4.4053Y-4.9699
X4.2163Y-3.3699
X4.244Y-3.3031
X4.244Y-3.4367
X4.3108Y-3.2754
X4.3108Y-3.4644
X4.3776Y-3.3031
X4.3776Y-3.4367
X4.4053Y-3.3699
T4
X2.1838Y-2.8699
X2.221Y-2.7801
X2.221Y-2.9597
X2.3108Y-2.7429
X2.3108Y-2.9969
X2.4006Y-2.7801
X2.4006Y-2.9597
X2.4377Y-2.8699
X5.2153Y-2.8699
X5.2525Y-2.7801
X5.2525Y-2.9597
X5.3423Y-2.7429
X5.3423Y-2.9969
X5.4321Y-2.7801
X5.4321Y-2.9597
X5.4692Y-2.8699
X5.2153Y-5.7045
X5.2525Y-5.6148
X5.2525Y-5.7943
X5.3423Y-5.5776
X5.3423Y-5.8315
X5.4321Y-5.6148
X5.4321Y-5.7943
X5.4692Y-5.7045
X2.1838Y-5.7045
X2.221Y-5.6148
X2.221Y-5.7943
X2.3108Y-5.5776
X2.3108Y-5.8315
X2.4006Y-5.6148
X2.4006Y-5.7943
X2.4377Y-5.7045
T5
X2.0858Y-4.4199
T6
X3.3541Y-3.0471
X3.3541Y-3.1652
X3.5116Y-3.0471
X3.5116Y-3.1652
T7
X4.5608Y-5.2949
X3.4608Y-5.2699
X4.5608Y-5.5199
X4.0358Y-3.5699
X4.3108Y-3.5699
X4.3108Y-3.6699
X4.3108Y-3.7699
X4.3108Y-3.8699
X4.3108Y-3.9699
X4.3108Y-4.0699
X4.3108Y-4.1699
X4.3108Y-4.2699
X4.3108Y-4.3699
X4.3108Y-4.4699
X4.3108Y-4.5699
X4.3108Y-4.6699
X4.3108Y-4.7699
X4.4108Y-3.5699
X4.4108Y-3.6699
X4.4108Y-3.7699
X4.4108Y-3.8699
X4.4108Y-3.9699
X4.4108Y-4.0699
X4.4108Y-4.1699
X4.4108Y-4.2699
X4.4108Y-4.3699
X4.4108Y-4.4699
X4.4108Y-4.5699
X4.4108Y-4.6699
X4.4108Y-4.7699
X4.0358Y-3.7949
X3.6858Y-4.2199
X4.6608Y-3.4199
T8
X4.8608Y-3.5699
X4.9608Y-3.5699
X5.0608Y-3.5699
X5.1608Y-3.5699
X5.2608Y-3.5699
T9
X4.3108Y-4.9699
X4.3108Y-3.3699
T10
X2.3108Y-2.8699
X5.3423Y-2.8699
X5.3423Y-5.7045
X2.3108Y-5.7045
T0
M30
