G04 #@! TF.GenerationSoftware,KiCad,Pcbnew,5.1.5-52549c5~84~ubuntu18.04.1*
G04 #@! TF.CreationDate,2020-03-18T13:49:36+01:00*
G04 #@! TF.ProjectId,programmer,70726f67-7261-46d6-9d65-722e6b696361,rev?*
G04 #@! TF.SameCoordinates,Original*
G04 #@! TF.FileFunction,Legend,Top*
G04 #@! TF.FilePolarity,Positive*
%FSLAX46Y46*%
G04 Gerber Fmt 4.6, Leading zero omitted, Abs format (unit mm)*
G04 Created by KiCad (PCBNEW 5.1.5-52549c5~84~ubuntu18.04.1) date 2020-03-18 13:49:36*
%MOMM*%
%LPD*%
G04 APERTURE LIST*
%ADD10C,0.120000*%
%ADD11C,0.150000*%
G04 APERTURE END LIST*
D10*
X97630000Y-81140000D02*
X97630000Y-84140000D01*
X97630000Y-81140000D02*
X100630000Y-81140000D01*
X97630000Y-101740000D02*
X97630000Y-98740000D01*
X97630000Y-101740000D02*
X100630000Y-101740000D01*
X134430000Y-101740000D02*
X131430000Y-101740000D01*
X134430000Y-101740000D02*
X134430000Y-98740000D01*
X134430000Y-81140000D02*
X134430000Y-84140000D01*
X134430000Y-81140000D02*
X131430000Y-81140000D01*
X134430000Y-96740000D02*
X134430000Y-86140000D01*
X126830000Y-96740000D02*
X134430000Y-96740000D01*
X126830000Y-86140000D02*
X126830000Y-96740000D01*
X134430000Y-86140000D02*
X126830000Y-86140000D01*
X118435000Y-102660000D02*
X118435000Y-103910000D01*
X119685000Y-102660000D02*
X118435000Y-102660000D01*
X133085000Y-108160000D02*
X126285000Y-108160000D01*
X133085000Y-105210000D02*
X133085000Y-108160000D01*
X133835000Y-105210000D02*
X133085000Y-105210000D01*
X119485000Y-108160000D02*
X126285000Y-108160000D01*
X119485000Y-105210000D02*
X119485000Y-108160000D01*
X118735000Y-105210000D02*
X119485000Y-105210000D01*
X133835000Y-102960000D02*
X132035000Y-102960000D01*
X133835000Y-103710000D02*
X133835000Y-102960000D01*
X132035000Y-103710000D02*
X133835000Y-103710000D01*
X132035000Y-102960000D02*
X132035000Y-103710000D01*
X120535000Y-102960000D02*
X118735000Y-102960000D01*
X120535000Y-103710000D02*
X120535000Y-102960000D01*
X118735000Y-103710000D02*
X120535000Y-103710000D01*
X118735000Y-102960000D02*
X118735000Y-103710000D01*
X130535000Y-102960000D02*
X122035000Y-102960000D01*
X130535000Y-103710000D02*
X130535000Y-102960000D01*
X122035000Y-103710000D02*
X130535000Y-103710000D01*
X122035000Y-102960000D02*
X122035000Y-103710000D01*
X133845000Y-102950000D02*
X118725000Y-102950000D01*
X133845000Y-108920000D02*
X133845000Y-102950000D01*
X118725000Y-108920000D02*
X133845000Y-108920000D01*
X118725000Y-102950000D02*
X118725000Y-108920000D01*
X90250000Y-106700000D02*
X96220000Y-106700000D01*
X96220000Y-106700000D02*
X96220000Y-84080000D01*
X96220000Y-84080000D02*
X90250000Y-84080000D01*
X90250000Y-84080000D02*
X90250000Y-106700000D01*
X90260000Y-103390000D02*
X91010000Y-103390000D01*
X91010000Y-103390000D02*
X91010000Y-87390000D01*
X91010000Y-87390000D02*
X90260000Y-87390000D01*
X90260000Y-87390000D02*
X90260000Y-103390000D01*
X90260000Y-106690000D02*
X91010000Y-106690000D01*
X91010000Y-106690000D02*
X91010000Y-104890000D01*
X91010000Y-104890000D02*
X90260000Y-104890000D01*
X90260000Y-104890000D02*
X90260000Y-106690000D01*
X90260000Y-85890000D02*
X91010000Y-85890000D01*
X91010000Y-85890000D02*
X91010000Y-84090000D01*
X91010000Y-84090000D02*
X90260000Y-84090000D01*
X90260000Y-84090000D02*
X90260000Y-85890000D01*
X92510000Y-106690000D02*
X92510000Y-105940000D01*
X92510000Y-105940000D02*
X95460000Y-105940000D01*
X95460000Y-105940000D02*
X95460000Y-95390000D01*
X92510000Y-84090000D02*
X92510000Y-84840000D01*
X92510000Y-84840000D02*
X95460000Y-84840000D01*
X95460000Y-84840000D02*
X95460000Y-95390000D01*
X89960000Y-105740000D02*
X89960000Y-106990000D01*
X89960000Y-106990000D02*
X91210000Y-106990000D01*
X104742064Y-105050000D02*
X103537936Y-105050000D01*
X104742064Y-103230000D02*
X103537936Y-103230000D01*
X104742064Y-105770000D02*
X103537936Y-105770000D01*
X104742064Y-107590000D02*
X103537936Y-107590000D01*
X112997064Y-107590000D02*
X111792936Y-107590000D01*
X112997064Y-105770000D02*
X111792936Y-105770000D01*
X112997064Y-103230000D02*
X111792936Y-103230000D01*
X112997064Y-105050000D02*
X111792936Y-105050000D01*
D11*
X135128095Y-82637380D02*
X135128095Y-83446904D01*
X135175714Y-83542142D01*
X135223333Y-83589761D01*
X135318571Y-83637380D01*
X135509047Y-83637380D01*
X135604285Y-83589761D01*
X135651904Y-83542142D01*
X135699523Y-83446904D01*
X135699523Y-82637380D01*
X136699523Y-83637380D02*
X136128095Y-83637380D01*
X136413809Y-83637380D02*
X136413809Y-82637380D01*
X136318571Y-82780238D01*
X136223333Y-82875476D01*
X136128095Y-82923095D01*
X135247142Y-105862380D02*
X134770952Y-105862380D01*
X134770952Y-104862380D01*
X135580476Y-105338571D02*
X135913809Y-105338571D01*
X136056666Y-105862380D02*
X135580476Y-105862380D01*
X135580476Y-104862380D01*
X136056666Y-104862380D01*
X136485238Y-105862380D02*
X136485238Y-104862380D01*
X136723333Y-104862380D01*
X136866190Y-104910000D01*
X136961428Y-105005238D01*
X137009047Y-105100476D01*
X137056666Y-105290952D01*
X137056666Y-105433809D01*
X137009047Y-105624285D01*
X136961428Y-105719523D01*
X136866190Y-105814761D01*
X136723333Y-105862380D01*
X136485238Y-105862380D01*
X96762380Y-96985238D02*
X97571904Y-96985238D01*
X97667142Y-96937619D01*
X97714761Y-96890000D01*
X97762380Y-96794761D01*
X97762380Y-96604285D01*
X97714761Y-96509047D01*
X97667142Y-96461428D01*
X97571904Y-96413809D01*
X96762380Y-96413809D01*
X97476666Y-95985238D02*
X97476666Y-95509047D01*
X97762380Y-96080476D02*
X96762380Y-95747142D01*
X97762380Y-95413809D01*
X97762380Y-94509047D02*
X97286190Y-94842380D01*
X97762380Y-95080476D02*
X96762380Y-95080476D01*
X96762380Y-94699523D01*
X96810000Y-94604285D01*
X96857619Y-94556666D01*
X96952857Y-94509047D01*
X97095714Y-94509047D01*
X97190952Y-94556666D01*
X97238571Y-94604285D01*
X97286190Y-94699523D01*
X97286190Y-95080476D01*
X96762380Y-94223333D02*
X96762380Y-93651904D01*
X97762380Y-93937619D02*
X96762380Y-93937619D01*
X107783333Y-104592380D02*
X107450000Y-104116190D01*
X107211904Y-104592380D02*
X107211904Y-103592380D01*
X107592857Y-103592380D01*
X107688095Y-103640000D01*
X107735714Y-103687619D01*
X107783333Y-103782857D01*
X107783333Y-103925714D01*
X107735714Y-104020952D01*
X107688095Y-104068571D01*
X107592857Y-104116190D01*
X107211904Y-104116190D01*
X108735714Y-104592380D02*
X108164285Y-104592380D01*
X108450000Y-104592380D02*
X108450000Y-103592380D01*
X108354761Y-103735238D01*
X108259523Y-103830476D01*
X108164285Y-103878095D01*
X107783333Y-107132380D02*
X107450000Y-106656190D01*
X107211904Y-107132380D02*
X107211904Y-106132380D01*
X107592857Y-106132380D01*
X107688095Y-106180000D01*
X107735714Y-106227619D01*
X107783333Y-106322857D01*
X107783333Y-106465714D01*
X107735714Y-106560952D01*
X107688095Y-106608571D01*
X107592857Y-106656190D01*
X107211904Y-106656190D01*
X108164285Y-106227619D02*
X108211904Y-106180000D01*
X108307142Y-106132380D01*
X108545238Y-106132380D01*
X108640476Y-106180000D01*
X108688095Y-106227619D01*
X108735714Y-106322857D01*
X108735714Y-106418095D01*
X108688095Y-106560952D01*
X108116666Y-107132380D01*
X108735714Y-107132380D01*
X116038333Y-107132380D02*
X115705000Y-106656190D01*
X115466904Y-107132380D02*
X115466904Y-106132380D01*
X115847857Y-106132380D01*
X115943095Y-106180000D01*
X115990714Y-106227619D01*
X116038333Y-106322857D01*
X116038333Y-106465714D01*
X115990714Y-106560952D01*
X115943095Y-106608571D01*
X115847857Y-106656190D01*
X115466904Y-106656190D01*
X116371666Y-106132380D02*
X116990714Y-106132380D01*
X116657380Y-106513333D01*
X116800238Y-106513333D01*
X116895476Y-106560952D01*
X116943095Y-106608571D01*
X116990714Y-106703809D01*
X116990714Y-106941904D01*
X116943095Y-107037142D01*
X116895476Y-107084761D01*
X116800238Y-107132380D01*
X116514523Y-107132380D01*
X116419285Y-107084761D01*
X116371666Y-107037142D01*
X116038333Y-104592380D02*
X115705000Y-104116190D01*
X115466904Y-104592380D02*
X115466904Y-103592380D01*
X115847857Y-103592380D01*
X115943095Y-103640000D01*
X115990714Y-103687619D01*
X116038333Y-103782857D01*
X116038333Y-103925714D01*
X115990714Y-104020952D01*
X115943095Y-104068571D01*
X115847857Y-104116190D01*
X115466904Y-104116190D01*
X116895476Y-103925714D02*
X116895476Y-104592380D01*
X116657380Y-103544761D02*
X116419285Y-104259047D01*
X117038333Y-104259047D01*
M02*
