G04 #@! TF.GenerationSoftware,KiCad,Pcbnew,5.1.5-52549c5~84~ubuntu18.04.1*
G04 #@! TF.CreationDate,2020-03-18T13:49:36+01:00*
G04 #@! TF.ProjectId,programmer,70726f67-7261-46d6-9d65-722e6b696361,rev?*
G04 #@! TF.SameCoordinates,Original*
G04 #@! TF.FileFunction,Paste,Top*
G04 #@! TF.FilePolarity,Positive*
%FSLAX46Y46*%
G04 Gerber Fmt 4.6, Leading zero omitted, Abs format (unit mm)*
G04 Created by KiCad (PCBNEW 5.1.5-52549c5~84~ubuntu18.04.1) date 2020-03-18 13:49:36*
%MOMM*%
%LPD*%
G04 APERTURE LIST*
%ADD10C,0.100000*%
G04 APERTURE END LIST*
D10*
G36*
X106114504Y-103266204D02*
G01*
X106138773Y-103269804D01*
X106162571Y-103275765D01*
X106185671Y-103284030D01*
X106207849Y-103294520D01*
X106228893Y-103307133D01*
X106248598Y-103321747D01*
X106266777Y-103338223D01*
X106283253Y-103356402D01*
X106297867Y-103376107D01*
X106310480Y-103397151D01*
X106320970Y-103419329D01*
X106329235Y-103442429D01*
X106335196Y-103466227D01*
X106338796Y-103490496D01*
X106340000Y-103515000D01*
X106340000Y-104765000D01*
X106338796Y-104789504D01*
X106335196Y-104813773D01*
X106329235Y-104837571D01*
X106320970Y-104860671D01*
X106310480Y-104882849D01*
X106297867Y-104903893D01*
X106283253Y-104923598D01*
X106266777Y-104941777D01*
X106248598Y-104958253D01*
X106228893Y-104972867D01*
X106207849Y-104985480D01*
X106185671Y-104995970D01*
X106162571Y-105004235D01*
X106138773Y-105010196D01*
X106114504Y-105013796D01*
X106090000Y-105015000D01*
X105165000Y-105015000D01*
X105140496Y-105013796D01*
X105116227Y-105010196D01*
X105092429Y-105004235D01*
X105069329Y-104995970D01*
X105047151Y-104985480D01*
X105026107Y-104972867D01*
X105006402Y-104958253D01*
X104988223Y-104941777D01*
X104971747Y-104923598D01*
X104957133Y-104903893D01*
X104944520Y-104882849D01*
X104934030Y-104860671D01*
X104925765Y-104837571D01*
X104919804Y-104813773D01*
X104916204Y-104789504D01*
X104915000Y-104765000D01*
X104915000Y-103515000D01*
X104916204Y-103490496D01*
X104919804Y-103466227D01*
X104925765Y-103442429D01*
X104934030Y-103419329D01*
X104944520Y-103397151D01*
X104957133Y-103376107D01*
X104971747Y-103356402D01*
X104988223Y-103338223D01*
X105006402Y-103321747D01*
X105026107Y-103307133D01*
X105047151Y-103294520D01*
X105069329Y-103284030D01*
X105092429Y-103275765D01*
X105116227Y-103269804D01*
X105140496Y-103266204D01*
X105165000Y-103265000D01*
X106090000Y-103265000D01*
X106114504Y-103266204D01*
G37*
G36*
X103139504Y-103266204D02*
G01*
X103163773Y-103269804D01*
X103187571Y-103275765D01*
X103210671Y-103284030D01*
X103232849Y-103294520D01*
X103253893Y-103307133D01*
X103273598Y-103321747D01*
X103291777Y-103338223D01*
X103308253Y-103356402D01*
X103322867Y-103376107D01*
X103335480Y-103397151D01*
X103345970Y-103419329D01*
X103354235Y-103442429D01*
X103360196Y-103466227D01*
X103363796Y-103490496D01*
X103365000Y-103515000D01*
X103365000Y-104765000D01*
X103363796Y-104789504D01*
X103360196Y-104813773D01*
X103354235Y-104837571D01*
X103345970Y-104860671D01*
X103335480Y-104882849D01*
X103322867Y-104903893D01*
X103308253Y-104923598D01*
X103291777Y-104941777D01*
X103273598Y-104958253D01*
X103253893Y-104972867D01*
X103232849Y-104985480D01*
X103210671Y-104995970D01*
X103187571Y-105004235D01*
X103163773Y-105010196D01*
X103139504Y-105013796D01*
X103115000Y-105015000D01*
X102190000Y-105015000D01*
X102165496Y-105013796D01*
X102141227Y-105010196D01*
X102117429Y-105004235D01*
X102094329Y-104995970D01*
X102072151Y-104985480D01*
X102051107Y-104972867D01*
X102031402Y-104958253D01*
X102013223Y-104941777D01*
X101996747Y-104923598D01*
X101982133Y-104903893D01*
X101969520Y-104882849D01*
X101959030Y-104860671D01*
X101950765Y-104837571D01*
X101944804Y-104813773D01*
X101941204Y-104789504D01*
X101940000Y-104765000D01*
X101940000Y-103515000D01*
X101941204Y-103490496D01*
X101944804Y-103466227D01*
X101950765Y-103442429D01*
X101959030Y-103419329D01*
X101969520Y-103397151D01*
X101982133Y-103376107D01*
X101996747Y-103356402D01*
X102013223Y-103338223D01*
X102031402Y-103321747D01*
X102051107Y-103307133D01*
X102072151Y-103294520D01*
X102094329Y-103284030D01*
X102117429Y-103275765D01*
X102141227Y-103269804D01*
X102165496Y-103266204D01*
X102190000Y-103265000D01*
X103115000Y-103265000D01*
X103139504Y-103266204D01*
G37*
G36*
X103139504Y-105806204D02*
G01*
X103163773Y-105809804D01*
X103187571Y-105815765D01*
X103210671Y-105824030D01*
X103232849Y-105834520D01*
X103253893Y-105847133D01*
X103273598Y-105861747D01*
X103291777Y-105878223D01*
X103308253Y-105896402D01*
X103322867Y-105916107D01*
X103335480Y-105937151D01*
X103345970Y-105959329D01*
X103354235Y-105982429D01*
X103360196Y-106006227D01*
X103363796Y-106030496D01*
X103365000Y-106055000D01*
X103365000Y-107305000D01*
X103363796Y-107329504D01*
X103360196Y-107353773D01*
X103354235Y-107377571D01*
X103345970Y-107400671D01*
X103335480Y-107422849D01*
X103322867Y-107443893D01*
X103308253Y-107463598D01*
X103291777Y-107481777D01*
X103273598Y-107498253D01*
X103253893Y-107512867D01*
X103232849Y-107525480D01*
X103210671Y-107535970D01*
X103187571Y-107544235D01*
X103163773Y-107550196D01*
X103139504Y-107553796D01*
X103115000Y-107555000D01*
X102190000Y-107555000D01*
X102165496Y-107553796D01*
X102141227Y-107550196D01*
X102117429Y-107544235D01*
X102094329Y-107535970D01*
X102072151Y-107525480D01*
X102051107Y-107512867D01*
X102031402Y-107498253D01*
X102013223Y-107481777D01*
X101996747Y-107463598D01*
X101982133Y-107443893D01*
X101969520Y-107422849D01*
X101959030Y-107400671D01*
X101950765Y-107377571D01*
X101944804Y-107353773D01*
X101941204Y-107329504D01*
X101940000Y-107305000D01*
X101940000Y-106055000D01*
X101941204Y-106030496D01*
X101944804Y-106006227D01*
X101950765Y-105982429D01*
X101959030Y-105959329D01*
X101969520Y-105937151D01*
X101982133Y-105916107D01*
X101996747Y-105896402D01*
X102013223Y-105878223D01*
X102031402Y-105861747D01*
X102051107Y-105847133D01*
X102072151Y-105834520D01*
X102094329Y-105824030D01*
X102117429Y-105815765D01*
X102141227Y-105809804D01*
X102165496Y-105806204D01*
X102190000Y-105805000D01*
X103115000Y-105805000D01*
X103139504Y-105806204D01*
G37*
G36*
X106114504Y-105806204D02*
G01*
X106138773Y-105809804D01*
X106162571Y-105815765D01*
X106185671Y-105824030D01*
X106207849Y-105834520D01*
X106228893Y-105847133D01*
X106248598Y-105861747D01*
X106266777Y-105878223D01*
X106283253Y-105896402D01*
X106297867Y-105916107D01*
X106310480Y-105937151D01*
X106320970Y-105959329D01*
X106329235Y-105982429D01*
X106335196Y-106006227D01*
X106338796Y-106030496D01*
X106340000Y-106055000D01*
X106340000Y-107305000D01*
X106338796Y-107329504D01*
X106335196Y-107353773D01*
X106329235Y-107377571D01*
X106320970Y-107400671D01*
X106310480Y-107422849D01*
X106297867Y-107443893D01*
X106283253Y-107463598D01*
X106266777Y-107481777D01*
X106248598Y-107498253D01*
X106228893Y-107512867D01*
X106207849Y-107525480D01*
X106185671Y-107535970D01*
X106162571Y-107544235D01*
X106138773Y-107550196D01*
X106114504Y-107553796D01*
X106090000Y-107555000D01*
X105165000Y-107555000D01*
X105140496Y-107553796D01*
X105116227Y-107550196D01*
X105092429Y-107544235D01*
X105069329Y-107535970D01*
X105047151Y-107525480D01*
X105026107Y-107512867D01*
X105006402Y-107498253D01*
X104988223Y-107481777D01*
X104971747Y-107463598D01*
X104957133Y-107443893D01*
X104944520Y-107422849D01*
X104934030Y-107400671D01*
X104925765Y-107377571D01*
X104919804Y-107353773D01*
X104916204Y-107329504D01*
X104915000Y-107305000D01*
X104915000Y-106055000D01*
X104916204Y-106030496D01*
X104919804Y-106006227D01*
X104925765Y-105982429D01*
X104934030Y-105959329D01*
X104944520Y-105937151D01*
X104957133Y-105916107D01*
X104971747Y-105896402D01*
X104988223Y-105878223D01*
X105006402Y-105861747D01*
X105026107Y-105847133D01*
X105047151Y-105834520D01*
X105069329Y-105824030D01*
X105092429Y-105815765D01*
X105116227Y-105809804D01*
X105140496Y-105806204D01*
X105165000Y-105805000D01*
X106090000Y-105805000D01*
X106114504Y-105806204D01*
G37*
G36*
X114369504Y-105806204D02*
G01*
X114393773Y-105809804D01*
X114417571Y-105815765D01*
X114440671Y-105824030D01*
X114462849Y-105834520D01*
X114483893Y-105847133D01*
X114503598Y-105861747D01*
X114521777Y-105878223D01*
X114538253Y-105896402D01*
X114552867Y-105916107D01*
X114565480Y-105937151D01*
X114575970Y-105959329D01*
X114584235Y-105982429D01*
X114590196Y-106006227D01*
X114593796Y-106030496D01*
X114595000Y-106055000D01*
X114595000Y-107305000D01*
X114593796Y-107329504D01*
X114590196Y-107353773D01*
X114584235Y-107377571D01*
X114575970Y-107400671D01*
X114565480Y-107422849D01*
X114552867Y-107443893D01*
X114538253Y-107463598D01*
X114521777Y-107481777D01*
X114503598Y-107498253D01*
X114483893Y-107512867D01*
X114462849Y-107525480D01*
X114440671Y-107535970D01*
X114417571Y-107544235D01*
X114393773Y-107550196D01*
X114369504Y-107553796D01*
X114345000Y-107555000D01*
X113420000Y-107555000D01*
X113395496Y-107553796D01*
X113371227Y-107550196D01*
X113347429Y-107544235D01*
X113324329Y-107535970D01*
X113302151Y-107525480D01*
X113281107Y-107512867D01*
X113261402Y-107498253D01*
X113243223Y-107481777D01*
X113226747Y-107463598D01*
X113212133Y-107443893D01*
X113199520Y-107422849D01*
X113189030Y-107400671D01*
X113180765Y-107377571D01*
X113174804Y-107353773D01*
X113171204Y-107329504D01*
X113170000Y-107305000D01*
X113170000Y-106055000D01*
X113171204Y-106030496D01*
X113174804Y-106006227D01*
X113180765Y-105982429D01*
X113189030Y-105959329D01*
X113199520Y-105937151D01*
X113212133Y-105916107D01*
X113226747Y-105896402D01*
X113243223Y-105878223D01*
X113261402Y-105861747D01*
X113281107Y-105847133D01*
X113302151Y-105834520D01*
X113324329Y-105824030D01*
X113347429Y-105815765D01*
X113371227Y-105809804D01*
X113395496Y-105806204D01*
X113420000Y-105805000D01*
X114345000Y-105805000D01*
X114369504Y-105806204D01*
G37*
G36*
X111394504Y-105806204D02*
G01*
X111418773Y-105809804D01*
X111442571Y-105815765D01*
X111465671Y-105824030D01*
X111487849Y-105834520D01*
X111508893Y-105847133D01*
X111528598Y-105861747D01*
X111546777Y-105878223D01*
X111563253Y-105896402D01*
X111577867Y-105916107D01*
X111590480Y-105937151D01*
X111600970Y-105959329D01*
X111609235Y-105982429D01*
X111615196Y-106006227D01*
X111618796Y-106030496D01*
X111620000Y-106055000D01*
X111620000Y-107305000D01*
X111618796Y-107329504D01*
X111615196Y-107353773D01*
X111609235Y-107377571D01*
X111600970Y-107400671D01*
X111590480Y-107422849D01*
X111577867Y-107443893D01*
X111563253Y-107463598D01*
X111546777Y-107481777D01*
X111528598Y-107498253D01*
X111508893Y-107512867D01*
X111487849Y-107525480D01*
X111465671Y-107535970D01*
X111442571Y-107544235D01*
X111418773Y-107550196D01*
X111394504Y-107553796D01*
X111370000Y-107555000D01*
X110445000Y-107555000D01*
X110420496Y-107553796D01*
X110396227Y-107550196D01*
X110372429Y-107544235D01*
X110349329Y-107535970D01*
X110327151Y-107525480D01*
X110306107Y-107512867D01*
X110286402Y-107498253D01*
X110268223Y-107481777D01*
X110251747Y-107463598D01*
X110237133Y-107443893D01*
X110224520Y-107422849D01*
X110214030Y-107400671D01*
X110205765Y-107377571D01*
X110199804Y-107353773D01*
X110196204Y-107329504D01*
X110195000Y-107305000D01*
X110195000Y-106055000D01*
X110196204Y-106030496D01*
X110199804Y-106006227D01*
X110205765Y-105982429D01*
X110214030Y-105959329D01*
X110224520Y-105937151D01*
X110237133Y-105916107D01*
X110251747Y-105896402D01*
X110268223Y-105878223D01*
X110286402Y-105861747D01*
X110306107Y-105847133D01*
X110327151Y-105834520D01*
X110349329Y-105824030D01*
X110372429Y-105815765D01*
X110396227Y-105809804D01*
X110420496Y-105806204D01*
X110445000Y-105805000D01*
X111370000Y-105805000D01*
X111394504Y-105806204D01*
G37*
G36*
X111394504Y-103266204D02*
G01*
X111418773Y-103269804D01*
X111442571Y-103275765D01*
X111465671Y-103284030D01*
X111487849Y-103294520D01*
X111508893Y-103307133D01*
X111528598Y-103321747D01*
X111546777Y-103338223D01*
X111563253Y-103356402D01*
X111577867Y-103376107D01*
X111590480Y-103397151D01*
X111600970Y-103419329D01*
X111609235Y-103442429D01*
X111615196Y-103466227D01*
X111618796Y-103490496D01*
X111620000Y-103515000D01*
X111620000Y-104765000D01*
X111618796Y-104789504D01*
X111615196Y-104813773D01*
X111609235Y-104837571D01*
X111600970Y-104860671D01*
X111590480Y-104882849D01*
X111577867Y-104903893D01*
X111563253Y-104923598D01*
X111546777Y-104941777D01*
X111528598Y-104958253D01*
X111508893Y-104972867D01*
X111487849Y-104985480D01*
X111465671Y-104995970D01*
X111442571Y-105004235D01*
X111418773Y-105010196D01*
X111394504Y-105013796D01*
X111370000Y-105015000D01*
X110445000Y-105015000D01*
X110420496Y-105013796D01*
X110396227Y-105010196D01*
X110372429Y-105004235D01*
X110349329Y-104995970D01*
X110327151Y-104985480D01*
X110306107Y-104972867D01*
X110286402Y-104958253D01*
X110268223Y-104941777D01*
X110251747Y-104923598D01*
X110237133Y-104903893D01*
X110224520Y-104882849D01*
X110214030Y-104860671D01*
X110205765Y-104837571D01*
X110199804Y-104813773D01*
X110196204Y-104789504D01*
X110195000Y-104765000D01*
X110195000Y-103515000D01*
X110196204Y-103490496D01*
X110199804Y-103466227D01*
X110205765Y-103442429D01*
X110214030Y-103419329D01*
X110224520Y-103397151D01*
X110237133Y-103376107D01*
X110251747Y-103356402D01*
X110268223Y-103338223D01*
X110286402Y-103321747D01*
X110306107Y-103307133D01*
X110327151Y-103294520D01*
X110349329Y-103284030D01*
X110372429Y-103275765D01*
X110396227Y-103269804D01*
X110420496Y-103266204D01*
X110445000Y-103265000D01*
X111370000Y-103265000D01*
X111394504Y-103266204D01*
G37*
G36*
X114369504Y-103266204D02*
G01*
X114393773Y-103269804D01*
X114417571Y-103275765D01*
X114440671Y-103284030D01*
X114462849Y-103294520D01*
X114483893Y-103307133D01*
X114503598Y-103321747D01*
X114521777Y-103338223D01*
X114538253Y-103356402D01*
X114552867Y-103376107D01*
X114565480Y-103397151D01*
X114575970Y-103419329D01*
X114584235Y-103442429D01*
X114590196Y-103466227D01*
X114593796Y-103490496D01*
X114595000Y-103515000D01*
X114595000Y-104765000D01*
X114593796Y-104789504D01*
X114590196Y-104813773D01*
X114584235Y-104837571D01*
X114575970Y-104860671D01*
X114565480Y-104882849D01*
X114552867Y-104903893D01*
X114538253Y-104923598D01*
X114521777Y-104941777D01*
X114503598Y-104958253D01*
X114483893Y-104972867D01*
X114462849Y-104985480D01*
X114440671Y-104995970D01*
X114417571Y-105004235D01*
X114393773Y-105010196D01*
X114369504Y-105013796D01*
X114345000Y-105015000D01*
X113420000Y-105015000D01*
X113395496Y-105013796D01*
X113371227Y-105010196D01*
X113347429Y-105004235D01*
X113324329Y-104995970D01*
X113302151Y-104985480D01*
X113281107Y-104972867D01*
X113261402Y-104958253D01*
X113243223Y-104941777D01*
X113226747Y-104923598D01*
X113212133Y-104903893D01*
X113199520Y-104882849D01*
X113189030Y-104860671D01*
X113180765Y-104837571D01*
X113174804Y-104813773D01*
X113171204Y-104789504D01*
X113170000Y-104765000D01*
X113170000Y-103515000D01*
X113171204Y-103490496D01*
X113174804Y-103466227D01*
X113180765Y-103442429D01*
X113189030Y-103419329D01*
X113199520Y-103397151D01*
X113212133Y-103376107D01*
X113226747Y-103356402D01*
X113243223Y-103338223D01*
X113261402Y-103321747D01*
X113281107Y-103307133D01*
X113302151Y-103294520D01*
X113324329Y-103284030D01*
X113347429Y-103275765D01*
X113371227Y-103269804D01*
X113395496Y-103266204D01*
X113420000Y-103265000D01*
X114345000Y-103265000D01*
X114369504Y-103266204D01*
G37*
M02*
