M48
; DRILL file {KiCad 5.1.9} date Tue Jan 12 21:48:24 2021
; FORMAT={-:-/ absolute / inch / decimal}
; #@! TF.CreationDate,2021-01-12T21:48:24+01:00
; #@! TF.GenerationSoftware,Kicad,Pcbnew,5.1.9
; #@! TF.FileFunction,Plated,1,4,PTH
FMAT,2
INCH
T1C0.0079
T2C0.0157
T3C0.0197
T4C0.0236
T5C0.0300
T6C0.0315
T7C0.0354
T8C0.0374
T9C0.0394
T10C0.0433
T11C0.0512
T12C0.0591
T13C0.1260
T14C0.1575
T15C0.1693
%
G90
G05
T1
X4.7972Y-2.3916
X4.7972Y-2.4428
X4.8366Y-2.3916
X4.8366Y-2.4428
X4.8759Y-2.3916
X4.8759Y-2.4428
T2
X2.5685Y-2.6602
X2.5866Y-2.9422
X2.5866Y-3.5672
X2.5866Y-3.6672
X2.5866Y-3.7672
X2.6366Y-3.5672
X2.6366Y-3.6672
X2.6366Y-3.7672
X2.6866Y-4.0922
X2.6866Y-4.3172
X2.7116Y-3.5172
X2.7116Y-3.6172
X2.7116Y-3.7172
X2.7116Y-3.8172
X2.7116Y-4.6672
X2.8116Y-2.8672
X2.8116Y-4.3172
X2.8366Y-4.1172
X2.8366Y-4.5172
X2.9116Y-4.3172
X2.9116Y-5.6672
X2.9616Y-3.0922
X2.9616Y-4.3172
X2.9616Y-5.0672
X3.0116Y-2.7422
X3.0116Y-4.3172
X3.0366Y-2.2922
X3.0366Y-2.3922
X3.0366Y-5.4922
X3.0616Y-3.0922
X3.0616Y-5.2922
X3.0616Y-5.3922
X3.0866Y-3.6172
X3.1116Y-3.5422
X3.1616Y-3.2922
X3.1616Y-3.4672
X3.1616Y-4.0172
X3.1616Y-5.4672
X3.1993Y-5.203
X3.2116Y-2.4422
X3.2116Y-2.5422
X3.2116Y-2.6422
X3.2116Y-2.7422
X3.2243Y-5.378
X3.2366Y-3.7672
X3.2366Y-5.4672
X3.2616Y-2.8172
X3.2616Y-3.6922
X3.2616Y-5.517
X3.2715Y-5.3808
X3.2866Y-4.5172
X3.2866Y-5.0672
X3.3616Y-5.6672
X3.3743Y-5.178
X3.3743Y-5.378
X3.3743Y-5.478
X3.3743Y-5.578
X3.4243Y-5.178
X3.4243Y-5.378
X3.4243Y-5.478
X3.4243Y-5.578
X3.4616Y-2.9422
X3.5116Y-2.9422
X3.5116Y-2.9422
X3.5366Y-2.8172
X3.5366Y-3.0172
X3.5366Y-3.3422
X3.5366Y-3.4172
X3.5366Y-3.4922
X3.5366Y-3.5672
X3.5366Y-3.6422
X3.5866Y-2.3172
X3.6116Y-3.3422
X3.6116Y-3.4172
X3.6116Y-3.5672
X3.6116Y-3.6422
X3.6116Y-4.6672
X3.6866Y-3.0172
X3.6866Y-3.2672
X3.6866Y-3.3422
X3.6866Y-3.6422
X3.7116Y-2.7172
X3.7116Y-4.6672
X3.7366Y-2.9172
X3.7366Y-2.9672
X3.7366Y-3.0172
X3.7616Y-2.3922
X3.7616Y-2.7172
X3.7616Y-2.8922
X3.7616Y-2.9422
X3.7616Y-2.9922
X3.7616Y-3.0422
X3.7616Y-3.3422
X3.7616Y-3.4172
X3.7616Y-3.5672
X3.7616Y-3.6422
X3.8116Y-2.7172
X3.8366Y-3.3422
X3.8366Y-3.4172
X3.8366Y-3.4922
X3.8366Y-3.5672
X3.8366Y-3.6422
X3.8616Y-2.4922
X3.8616Y-2.7172
X3.8866Y-3.8672
X3.8866Y-3.9672
X3.9266Y-2.8472
X3.9366Y-2.9372
X3.9366Y-3.0372
X3.9366Y-3.6672
X3.9616Y-5.1172
X3.9866Y-2.8472
X3.9866Y-2.9372
X3.9866Y-3.0372
X4.0366Y-3.1172
X4.0616Y-3.7172
X4.0616Y-3.8172
X4.0616Y-3.9172
X4.0616Y-4.0172
X4.0616Y-5.0422
X4.2116Y-4.7672
X4.2116Y-4.8672
X4.2116Y-4.9672
X4.2366Y-5.2172
X4.2616Y-3.3672
X4.2866Y-2.6172
X4.3116Y-3.3672
X4.3616Y-3.6922
X4.4116Y-3.5672
X4.4366Y-4.8422
X4.5616Y-2.2172
X4.5616Y-2.3922
X4.5866Y-4.8922
X4.6116Y-4.8172
X4.6366Y-2.2672
X4.6866Y-2.3672
X4.7866Y-2.7672
X4.8116Y-2.1172
X4.8116Y-2.2172
X4.8116Y-2.6172
X4.8116Y-4.0922
X4.8616Y-4.0422
X4.8866Y-2.7922
X4.8866Y-4.5922
X4.9116Y-2.2672
X4.9616Y-2.7172
X4.9866Y-2.6172
X5.0366Y-2.5672
X5.0866Y-2.2922
X5.0866Y-2.8422
X5.0866Y-2.8922
X5.0866Y-4.6422
X5.1366Y-2.2922
X5.1866Y-4.5922
X5.2366Y-2.7922
X5.2366Y-2.8422
X5.2366Y-2.8922
X5.2366Y-4.9672
X5.2866Y-3.5422
X5.2866Y-3.6422
X5.2866Y-3.7422
X5.2866Y-3.8422
X5.2866Y-3.9422
X5.2866Y-5.1172
X5.3366Y-2.8922
X5.3366Y-3.9422
X5.3366Y-5.2922
X5.3616Y-2.3422
X5.3616Y-2.3922
X5.3616Y-3.1672
X5.4116Y-2.3422
X5.4116Y-2.3922
X5.4366Y-2.9422
X5.4616Y-2.3422
X5.4616Y-2.3922
X5.4616Y-2.9922
X5.4866Y-2.6422
X5.4866Y-2.6922
X5.4866Y-4.6422
X5.5116Y-2.6672
X5.5116Y-3.0422
X5.5116Y-5.1922
X5.5366Y-2.3922
X5.5366Y-2.6422
X5.5366Y-2.6922
X5.5616Y-2.6672
X5.5866Y-2.6422
X5.5866Y-2.6922
X5.6116Y-2.6672
X5.6366Y-2.6422
X5.6366Y-2.6922
X5.6616Y-2.3672
X5.7116Y-4.3922
X5.7116Y-4.9422
X5.7366Y-4.2922
X5.7866Y-5.0172
X5.8366Y-3.7172
X5.8366Y-5.2422
X5.8616Y-3.2922
X5.8866Y-2.4922
X5.8866Y-4.1172
X5.9366Y-5.0922
X5.9866Y-2.4434
X6.0116Y-5.2672
X6.1366Y-2.5922
X6.1366Y-3.3172
X6.1366Y-5.0922
T3
X2.3527Y-1.9442
X2.3527Y-5.5662
X2.3804Y-1.8773
X2.3804Y-2.011
X2.3804Y-5.4994
X2.3804Y-5.633
X2.4472Y-1.8497
X2.4472Y-2.0386
X2.4472Y-5.4717
X2.4472Y-5.6607
X2.514Y-1.8773
X2.514Y-2.011
X2.514Y-5.4994
X2.514Y-5.633
X2.5417Y-1.9442
X2.5417Y-5.5662
X4.3921Y-2.8172
X4.3921Y-4.4172
X4.4197Y-2.7504
X4.4197Y-2.884
X4.4197Y-4.3504
X4.4197Y-4.484
X4.4866Y-2.7227
X4.4866Y-2.9117
X4.4866Y-4.3227
X4.4866Y-4.5117
X4.5534Y-2.7504
X4.5534Y-2.884
X4.5534Y-4.3504
X4.5534Y-4.484
X4.581Y-2.8172
X4.581Y-4.4172
X5.9747Y-1.9442
X5.9747Y-5.5662
X6.0024Y-1.8773
X6.0024Y-2.011
X6.0024Y-5.4994
X6.0024Y-5.633
X6.0692Y-1.8497
X6.0692Y-2.0386
X6.0692Y-5.4717
X6.0692Y-5.6607
X6.136Y-1.8773
X6.136Y-2.011
X6.136Y-5.4994
X6.136Y-5.633
X6.1637Y-1.9442
X6.1637Y-5.5662
T4
X2.3596Y-2.3172
X2.3596Y-5.1518
X2.3968Y-2.2274
X2.3968Y-2.407
X2.3968Y-5.062
X2.3968Y-5.2416
X2.4866Y-2.1902
X2.4866Y-2.4442
X2.4866Y-5.0249
X2.4866Y-5.2788
X2.5763Y-2.2274
X2.5763Y-2.407
X2.5763Y-5.062
X2.5763Y-5.2416
X2.6135Y-2.3172
X2.6135Y-5.1518
T5
X2.5116Y-3.5672
X2.5116Y-3.6672
X2.5116Y-3.7672
X2.5116Y-3.8672
X2.5116Y-3.9672
X2.5116Y-4.0672
X2.5116Y-4.1672
X2.5116Y-4.2672
X2.5116Y-4.3672
X2.5116Y-4.4672
X2.5116Y-4.5672
X2.5116Y-4.6672
X2.5116Y-4.7672
X2.5116Y-4.8672
X2.8116Y-4.8672
X2.9116Y-4.8672
X3.0116Y-4.8672
X3.1116Y-4.8672
X3.2116Y-4.8672
X3.3116Y-4.8672
X3.4116Y-4.8672
X3.5116Y-4.8672
X3.6116Y-4.8672
X3.7116Y-4.8672
X4.0116Y-3.5672
X4.0116Y-3.6672
X4.0116Y-3.7672
X4.0116Y-3.8672
X4.0116Y-3.9672
X4.0116Y-4.0672
X4.0116Y-4.1672
X4.0116Y-4.2672
X4.0116Y-4.3672
X4.0116Y-4.4672
X4.0116Y-4.5672
X4.0116Y-4.6672
X4.0116Y-4.7672
X4.0116Y-4.8672
T6
X3.0116Y-3.0422
X3.0116Y-3.1422
X3.0116Y-3.2422
X3.7366Y-1.8922
X3.7366Y-2.1922
X4.4866Y-2.6172
X4.5866Y-2.6172
X5.65Y-3.9922
X5.65Y-4.2922
X5.9866Y-2.9672
X5.9866Y-3.1672
X5.9866Y-3.8672
X5.9866Y-4.0672
X6.0866Y-3.0672
X6.0866Y-3.9672
T7
X3.7366Y-5.4922
X3.7866Y-5.4922
X3.8366Y-5.4922
X3.8866Y-5.4922
T8
X5.4663Y-2.1422
X5.5647Y-2.1422
X5.6631Y-2.1422
X5.7616Y-2.1422
T9
X2.3866Y-4.1672
X2.4366Y-2.9922
X2.5366Y-2.9922
X2.6366Y-2.9922
X2.7366Y-5.4172
X2.7366Y-5.5172
X2.7616Y-1.8922
X2.7616Y-1.9922
X2.7616Y-2.0922
X2.7616Y-2.1922
X2.7616Y-2.2922
X2.7616Y-2.3922
X2.7616Y-2.4922
X2.7616Y-2.5922
X2.7616Y-2.6922
X2.8616Y-1.8922
X2.8616Y-1.9922
X2.8616Y-2.0922
X2.8616Y-2.1922
X2.8616Y-2.2922
X2.8616Y-2.3922
X2.8616Y-2.4922
X2.8616Y-2.5922
X2.8616Y-2.6922
X3.1866Y-2.9922
X3.2866Y-2.9922
X3.3866Y-2.9922
X3.3866Y-3.3422
X3.4616Y-1.8922
X3.4616Y-1.9922
X3.4616Y-2.0922
X3.4616Y-2.1922
X3.4616Y-2.2922
X3.4616Y-2.3922
X3.4616Y-2.4922
X3.4616Y-2.5922
X3.4616Y-2.6922
X3.9616Y-2.5422
X4.0616Y-2.5422
X4.1616Y-2.5422
X4.2866Y-2.3422
X4.2866Y-4.5922
X4.3529Y-1.8666
X4.3529Y-2.4178
X4.4366Y-5.5172
X4.4616Y-2.2922
X4.4616Y-2.3922
X4.4616Y-4.6922
X4.4866Y-3.0172
X4.4866Y-3.1172
X4.4866Y-3.2172
X4.4866Y-3.3172
X4.4866Y-3.4172
X4.4866Y-3.5172
X4.4866Y-3.6172
X4.4866Y-3.7172
X4.4866Y-3.8172
X4.4866Y-3.9172
X4.4866Y-4.0172
X4.4866Y-4.1172
X4.4866Y-4.2172
X4.5Y-5.1
X4.5Y-5.2
X4.5866Y-3.0172
X4.5866Y-3.1172
X4.5866Y-3.2172
X4.5866Y-3.3172
X4.5866Y-3.4172
X4.5866Y-3.5172
X4.5866Y-3.6172
X4.5866Y-3.7172
X4.5866Y-3.8172
X4.5866Y-3.9172
X4.5866Y-4.0172
X4.5866Y-4.1172
X4.5866Y-4.2172
X4.8366Y-4.7422
X4.9366Y-2.8922
X4.9366Y-2.9922
X4.9366Y-3.0922
X4.9366Y-3.2422
X4.9366Y-3.3422
X4.9366Y-3.4422
X4.9366Y-3.5422
X4.9366Y-3.6422
X4.9366Y-3.7422
X4.9366Y-3.8422
X4.9366Y-3.9422
X4.9366Y-4.7422
X5.0366Y-3.2422
X5.0366Y-3.3422
X5.0366Y-3.4422
X5.0366Y-3.5422
X5.0366Y-3.6422
X5.0366Y-3.7422
X5.0366Y-3.8422
X5.0366Y-3.9422
X5.0366Y-4.7422
X5.1366Y-3.2422
X5.1366Y-3.3422
X5.1366Y-3.4422
X5.1366Y-3.5422
X5.1366Y-3.6422
X5.1366Y-3.7422
X5.1366Y-3.8422
X5.1366Y-3.9422
X5.2366Y-4.7422
X5.2427Y-1.8666
X5.2427Y-1.9965
X5.2427Y-2.2879
X5.2427Y-2.4178
X5.3366Y-4.7422
X5.3866Y-2.4672
X5.4366Y-4.7422
X5.4616Y-4.2922
X5.6116Y-3.3672
X5.6116Y-3.4672
X5.6116Y-3.5672
X5.6116Y-3.6672
X5.7116Y-3.3672
X5.7116Y-3.4672
X5.7116Y-3.5672
X5.7116Y-3.6672
X5.7366Y-2.3672
X5.7366Y-2.4672
X5.7366Y-5.0922
X5.8366Y-2.6172
X5.8366Y-2.7172
X5.8366Y-5.0922
X5.9366Y-3.3672
X5.9366Y-3.4672
X5.9366Y-3.5672
X5.9366Y-3.6672
X6.0366Y-3.3672
X6.0366Y-3.4672
X6.0366Y-3.5672
X6.0366Y-3.6672
X6.0866Y-2.4422
T10
X4.0306Y-5.39
X4.0306Y-5.5672
X4.2866Y-5.39
X4.2866Y-5.5672
T11
X3.9866Y-1.9922
X4.1834Y-1.9922
X4.6273Y-5.5172
X4.8241Y-5.5172
X5.021Y-5.5172
X5.2179Y-5.5172
X5.4147Y-5.5172
X5.6116Y-5.5172
T12
X5.8897Y-4.4703
X5.8897Y-4.5688
X5.8897Y-4.7656
X5.8897Y-4.864
X6.0866Y-4.6672
T13
X2.4472Y-1.9442
X2.4472Y-5.5662
X4.4866Y-2.8172
X4.4866Y-4.4172
X6.0692Y-1.9442
X6.0692Y-5.5662
T14
X3.6866Y-3.4922
T15
X2.4866Y-2.3172
X2.4866Y-5.1518
T0
M30
