%TF.GenerationSoftware,KiCad,Pcbnew,5.1.9*%
%TF.CreationDate,2021-01-12T21:48:28+01:00*%
%TF.ProjectId,pcb_motherboard_dev,7063625f-6d6f-4746-9865-72626f617264,rev?*%
%TF.SameCoordinates,Original*%
%TF.FileFunction,Paste,Top*%
%TF.FilePolarity,Positive*%
%FSLAX46Y46*%
G04 Gerber Fmt 4.6, Leading zero omitted, Abs format (unit mm)*
G04 Created by KiCad (PCBNEW 5.1.9) date 2021-01-12 21:48:28*
%MOMM*%
%LPD*%
G01*
G04 APERTURE LIST*
%ADD10R,1.500000X0.800000*%
%ADD11R,2.000000X1.450000*%
%ADD12R,1.430000X2.850000*%
G04 APERTURE END LIST*
%TO.C,U13*%
G36*
G01*
X137048399Y-114251429D02*
X137048399Y-113951429D01*
G75*
G02*
X137198399Y-113801429I150000J0D01*
G01*
X138848399Y-113801429D01*
G75*
G02*
X138998399Y-113951429I0J-150000D01*
G01*
X138998399Y-114251429D01*
G75*
G02*
X138848399Y-114401429I-150000J0D01*
G01*
X137198399Y-114401429D01*
G75*
G02*
X137048399Y-114251429I0J150000D01*
G01*
G37*
G36*
G01*
X137048399Y-115521429D02*
X137048399Y-115221429D01*
G75*
G02*
X137198399Y-115071429I150000J0D01*
G01*
X138848399Y-115071429D01*
G75*
G02*
X138998399Y-115221429I0J-150000D01*
G01*
X138998399Y-115521429D01*
G75*
G02*
X138848399Y-115671429I-150000J0D01*
G01*
X137198399Y-115671429D01*
G75*
G02*
X137048399Y-115521429I0J150000D01*
G01*
G37*
G36*
G01*
X137048399Y-116791429D02*
X137048399Y-116491429D01*
G75*
G02*
X137198399Y-116341429I150000J0D01*
G01*
X138848399Y-116341429D01*
G75*
G02*
X138998399Y-116491429I0J-150000D01*
G01*
X138998399Y-116791429D01*
G75*
G02*
X138848399Y-116941429I-150000J0D01*
G01*
X137198399Y-116941429D01*
G75*
G02*
X137048399Y-116791429I0J150000D01*
G01*
G37*
G36*
G01*
X137048399Y-118061429D02*
X137048399Y-117761429D01*
G75*
G02*
X137198399Y-117611429I150000J0D01*
G01*
X138848399Y-117611429D01*
G75*
G02*
X138998399Y-117761429I0J-150000D01*
G01*
X138998399Y-118061429D01*
G75*
G02*
X138848399Y-118211429I-150000J0D01*
G01*
X137198399Y-118211429D01*
G75*
G02*
X137048399Y-118061429I0J150000D01*
G01*
G37*
G36*
G01*
X132098399Y-118061429D02*
X132098399Y-117761429D01*
G75*
G02*
X132248399Y-117611429I150000J0D01*
G01*
X133898399Y-117611429D01*
G75*
G02*
X134048399Y-117761429I0J-150000D01*
G01*
X134048399Y-118061429D01*
G75*
G02*
X133898399Y-118211429I-150000J0D01*
G01*
X132248399Y-118211429D01*
G75*
G02*
X132098399Y-118061429I0J150000D01*
G01*
G37*
G36*
G01*
X132098399Y-116791429D02*
X132098399Y-116491429D01*
G75*
G02*
X132248399Y-116341429I150000J0D01*
G01*
X133898399Y-116341429D01*
G75*
G02*
X134048399Y-116491429I0J-150000D01*
G01*
X134048399Y-116791429D01*
G75*
G02*
X133898399Y-116941429I-150000J0D01*
G01*
X132248399Y-116941429D01*
G75*
G02*
X132098399Y-116791429I0J150000D01*
G01*
G37*
G36*
G01*
X132098399Y-115521429D02*
X132098399Y-115221429D01*
G75*
G02*
X132248399Y-115071429I150000J0D01*
G01*
X133898399Y-115071429D01*
G75*
G02*
X134048399Y-115221429I0J-150000D01*
G01*
X134048399Y-115521429D01*
G75*
G02*
X133898399Y-115671429I-150000J0D01*
G01*
X132248399Y-115671429D01*
G75*
G02*
X132098399Y-115521429I0J150000D01*
G01*
G37*
G36*
G01*
X132098399Y-114251429D02*
X132098399Y-113951429D01*
G75*
G02*
X132248399Y-113801429I150000J0D01*
G01*
X133898399Y-113801429D01*
G75*
G02*
X134048399Y-113951429I0J-150000D01*
G01*
X134048399Y-114251429D01*
G75*
G02*
X133898399Y-114401429I-150000J0D01*
G01*
X132248399Y-114401429D01*
G75*
G02*
X132098399Y-114251429I0J150000D01*
G01*
G37*
%TD*%
%TO.C,D11*%
G36*
G01*
X95683399Y-61386429D02*
X95683399Y-60136429D01*
G75*
G02*
X95933399Y-59886429I250000J0D01*
G01*
X96858399Y-59886429D01*
G75*
G02*
X97108399Y-60136429I0J-250000D01*
G01*
X97108399Y-61386429D01*
G75*
G02*
X96858399Y-61636429I-250000J0D01*
G01*
X95933399Y-61636429D01*
G75*
G02*
X95683399Y-61386429I0J250000D01*
G01*
G37*
G36*
G01*
X92708399Y-61386429D02*
X92708399Y-60136429D01*
G75*
G02*
X92958399Y-59886429I250000J0D01*
G01*
X93883399Y-59886429D01*
G75*
G02*
X94133399Y-60136429I0J-250000D01*
G01*
X94133399Y-61386429D01*
G75*
G02*
X93883399Y-61636429I-250000J0D01*
G01*
X92958399Y-61636429D01*
G75*
G02*
X92708399Y-61386429I0J250000D01*
G01*
G37*
%TD*%
%TO.C,U11*%
G36*
G01*
X126888399Y-114251429D02*
X126888399Y-113951429D01*
G75*
G02*
X127038399Y-113801429I150000J0D01*
G01*
X128688399Y-113801429D01*
G75*
G02*
X128838399Y-113951429I0J-150000D01*
G01*
X128838399Y-114251429D01*
G75*
G02*
X128688399Y-114401429I-150000J0D01*
G01*
X127038399Y-114401429D01*
G75*
G02*
X126888399Y-114251429I0J150000D01*
G01*
G37*
G36*
G01*
X126888399Y-115521429D02*
X126888399Y-115221429D01*
G75*
G02*
X127038399Y-115071429I150000J0D01*
G01*
X128688399Y-115071429D01*
G75*
G02*
X128838399Y-115221429I0J-150000D01*
G01*
X128838399Y-115521429D01*
G75*
G02*
X128688399Y-115671429I-150000J0D01*
G01*
X127038399Y-115671429D01*
G75*
G02*
X126888399Y-115521429I0J150000D01*
G01*
G37*
G36*
G01*
X126888399Y-116791429D02*
X126888399Y-116491429D01*
G75*
G02*
X127038399Y-116341429I150000J0D01*
G01*
X128688399Y-116341429D01*
G75*
G02*
X128838399Y-116491429I0J-150000D01*
G01*
X128838399Y-116791429D01*
G75*
G02*
X128688399Y-116941429I-150000J0D01*
G01*
X127038399Y-116941429D01*
G75*
G02*
X126888399Y-116791429I0J150000D01*
G01*
G37*
G36*
G01*
X126888399Y-118061429D02*
X126888399Y-117761429D01*
G75*
G02*
X127038399Y-117611429I150000J0D01*
G01*
X128688399Y-117611429D01*
G75*
G02*
X128838399Y-117761429I0J-150000D01*
G01*
X128838399Y-118061429D01*
G75*
G02*
X128688399Y-118211429I-150000J0D01*
G01*
X127038399Y-118211429D01*
G75*
G02*
X126888399Y-118061429I0J150000D01*
G01*
G37*
G36*
G01*
X121938399Y-118061429D02*
X121938399Y-117761429D01*
G75*
G02*
X122088399Y-117611429I150000J0D01*
G01*
X123738399Y-117611429D01*
G75*
G02*
X123888399Y-117761429I0J-150000D01*
G01*
X123888399Y-118061429D01*
G75*
G02*
X123738399Y-118211429I-150000J0D01*
G01*
X122088399Y-118211429D01*
G75*
G02*
X121938399Y-118061429I0J150000D01*
G01*
G37*
G36*
G01*
X121938399Y-116791429D02*
X121938399Y-116491429D01*
G75*
G02*
X122088399Y-116341429I150000J0D01*
G01*
X123738399Y-116341429D01*
G75*
G02*
X123888399Y-116491429I0J-150000D01*
G01*
X123888399Y-116791429D01*
G75*
G02*
X123738399Y-116941429I-150000J0D01*
G01*
X122088399Y-116941429D01*
G75*
G02*
X121938399Y-116791429I0J150000D01*
G01*
G37*
G36*
G01*
X121938399Y-115521429D02*
X121938399Y-115221429D01*
G75*
G02*
X122088399Y-115071429I150000J0D01*
G01*
X123738399Y-115071429D01*
G75*
G02*
X123888399Y-115221429I0J-150000D01*
G01*
X123888399Y-115521429D01*
G75*
G02*
X123738399Y-115671429I-150000J0D01*
G01*
X122088399Y-115671429D01*
G75*
G02*
X121938399Y-115521429I0J150000D01*
G01*
G37*
G36*
G01*
X121938399Y-114251429D02*
X121938399Y-113951429D01*
G75*
G02*
X122088399Y-113801429I150000J0D01*
G01*
X123738399Y-113801429D01*
G75*
G02*
X123888399Y-113951429I0J-150000D01*
G01*
X123888399Y-114251429D01*
G75*
G02*
X123738399Y-114401429I-150000J0D01*
G01*
X122088399Y-114401429D01*
G75*
G02*
X121938399Y-114251429I0J150000D01*
G01*
G37*
%TD*%
D10*
%TO.C,J8*%
X81263399Y-135596429D03*
X81263399Y-134496429D03*
X81263399Y-133396429D03*
X81263399Y-141096429D03*
X81263399Y-139996429D03*
X81263399Y-138896429D03*
X81263399Y-137796429D03*
X81263399Y-136696429D03*
D11*
X75563399Y-129726429D03*
X75563399Y-143476429D03*
X83863399Y-129726429D03*
X83863399Y-143476429D03*
%TD*%
%TO.C,D10*%
G36*
G01*
X154103399Y-129966429D02*
X154103399Y-128716429D01*
G75*
G02*
X154353399Y-128466429I250000J0D01*
G01*
X155278399Y-128466429D01*
G75*
G02*
X155528399Y-128716429I0J-250000D01*
G01*
X155528399Y-129966429D01*
G75*
G02*
X155278399Y-130216429I-250000J0D01*
G01*
X154353399Y-130216429D01*
G75*
G02*
X154103399Y-129966429I0J250000D01*
G01*
G37*
G36*
G01*
X151128399Y-129966429D02*
X151128399Y-128716429D01*
G75*
G02*
X151378399Y-128466429I250000J0D01*
G01*
X152303399Y-128466429D01*
G75*
G02*
X152553399Y-128716429I0J-250000D01*
G01*
X152553399Y-129966429D01*
G75*
G02*
X152303399Y-130216429I-250000J0D01*
G01*
X151378399Y-130216429D01*
G75*
G02*
X151128399Y-129966429I0J250000D01*
G01*
G37*
%TD*%
%TO.C,D8*%
G36*
G01*
X124893399Y-68371429D02*
X124893399Y-67121429D01*
G75*
G02*
X125143399Y-66871429I250000J0D01*
G01*
X126068399Y-66871429D01*
G75*
G02*
X126318399Y-67121429I0J-250000D01*
G01*
X126318399Y-68371429D01*
G75*
G02*
X126068399Y-68621429I-250000J0D01*
G01*
X125143399Y-68621429D01*
G75*
G02*
X124893399Y-68371429I0J250000D01*
G01*
G37*
G36*
G01*
X121918399Y-68371429D02*
X121918399Y-67121429D01*
G75*
G02*
X122168399Y-66871429I250000J0D01*
G01*
X123093399Y-66871429D01*
G75*
G02*
X123343399Y-67121429I0J-250000D01*
G01*
X123343399Y-68371429D01*
G75*
G02*
X123093399Y-68621429I-250000J0D01*
G01*
X122168399Y-68621429D01*
G75*
G02*
X121918399Y-68371429I0J250000D01*
G01*
G37*
%TD*%
%TO.C,D7*%
G36*
G01*
X131598399Y-67121429D02*
X131598399Y-68371429D01*
G75*
G02*
X131348399Y-68621429I-250000J0D01*
G01*
X130423399Y-68621429D01*
G75*
G02*
X130173399Y-68371429I0J250000D01*
G01*
X130173399Y-67121429D01*
G75*
G02*
X130423399Y-66871429I250000J0D01*
G01*
X131348399Y-66871429D01*
G75*
G02*
X131598399Y-67121429I0J-250000D01*
G01*
G37*
G36*
G01*
X134573399Y-67121429D02*
X134573399Y-68371429D01*
G75*
G02*
X134323399Y-68621429I-250000J0D01*
G01*
X133398399Y-68621429D01*
G75*
G02*
X133148399Y-68371429I0J250000D01*
G01*
X133148399Y-67121429D01*
G75*
G02*
X133398399Y-66871429I250000J0D01*
G01*
X134323399Y-66871429D01*
G75*
G02*
X134573399Y-67121429I0J-250000D01*
G01*
G37*
%TD*%
%TO.C,C20*%
G36*
G01*
X69138399Y-89986432D02*
X69138399Y-88686426D01*
G75*
G02*
X69388396Y-88436429I249997J0D01*
G01*
X70213402Y-88436429D01*
G75*
G02*
X70463399Y-88686426I0J-249997D01*
G01*
X70463399Y-89986432D01*
G75*
G02*
X70213402Y-90236429I-249997J0D01*
G01*
X69388396Y-90236429D01*
G75*
G02*
X69138399Y-89986432I0J249997D01*
G01*
G37*
G36*
G01*
X66013399Y-89986432D02*
X66013399Y-88686426D01*
G75*
G02*
X66263396Y-88436429I249997J0D01*
G01*
X67088402Y-88436429D01*
G75*
G02*
X67338399Y-88686426I0J-249997D01*
G01*
X67338399Y-89986432D01*
G75*
G02*
X67088402Y-90236429I-249997J0D01*
G01*
X66263396Y-90236429D01*
G75*
G02*
X66013399Y-89986432I0J249997D01*
G01*
G37*
%TD*%
%TO.C,C16*%
G36*
G01*
X69138399Y-92526432D02*
X69138399Y-91226426D01*
G75*
G02*
X69388396Y-90976429I249997J0D01*
G01*
X70213402Y-90976429D01*
G75*
G02*
X70463399Y-91226426I0J-249997D01*
G01*
X70463399Y-92526432D01*
G75*
G02*
X70213402Y-92776429I-249997J0D01*
G01*
X69388396Y-92776429D01*
G75*
G02*
X69138399Y-92526432I0J249997D01*
G01*
G37*
G36*
G01*
X66013399Y-92526432D02*
X66013399Y-91226426D01*
G75*
G02*
X66263396Y-90976429I249997J0D01*
G01*
X67088402Y-90976429D01*
G75*
G02*
X67338399Y-91226426I0J-249997D01*
G01*
X67338399Y-92526432D01*
G75*
G02*
X67088402Y-92776429I-249997J0D01*
G01*
X66263396Y-92776429D01*
G75*
G02*
X66013399Y-92526432I0J249997D01*
G01*
G37*
%TD*%
D12*
%TO.C,Y1*%
X69868399Y-107581429D03*
X75498399Y-107581429D03*
X75498399Y-111731429D03*
X69868399Y-111731429D03*
%TD*%
%TO.C,C14*%
G36*
G01*
X66013399Y-95066432D02*
X66013399Y-93766426D01*
G75*
G02*
X66263396Y-93516429I249997J0D01*
G01*
X67088402Y-93516429D01*
G75*
G02*
X67338399Y-93766426I0J-249997D01*
G01*
X67338399Y-95066432D01*
G75*
G02*
X67088402Y-95316429I-249997J0D01*
G01*
X66263396Y-95316429D01*
G75*
G02*
X66013399Y-95066432I0J249997D01*
G01*
G37*
G36*
G01*
X69138399Y-95066432D02*
X69138399Y-93766426D01*
G75*
G02*
X69388396Y-93516429I249997J0D01*
G01*
X70213402Y-93516429D01*
G75*
G02*
X70463399Y-93766426I0J-249997D01*
G01*
X70463399Y-95066432D01*
G75*
G02*
X70213402Y-95316429I-249997J0D01*
G01*
X69388396Y-95316429D01*
G75*
G02*
X69138399Y-95066432I0J249997D01*
G01*
G37*
%TD*%
%TO.C,C15*%
G36*
G01*
X69138399Y-97606432D02*
X69138399Y-96306426D01*
G75*
G02*
X69388396Y-96056429I249997J0D01*
G01*
X70213402Y-96056429D01*
G75*
G02*
X70463399Y-96306426I0J-249997D01*
G01*
X70463399Y-97606432D01*
G75*
G02*
X70213402Y-97856429I-249997J0D01*
G01*
X69388396Y-97856429D01*
G75*
G02*
X69138399Y-97606432I0J249997D01*
G01*
G37*
G36*
G01*
X66013399Y-97606432D02*
X66013399Y-96306426D01*
G75*
G02*
X66263396Y-96056429I249997J0D01*
G01*
X67088402Y-96056429D01*
G75*
G02*
X67338399Y-96306426I0J-249997D01*
G01*
X67338399Y-97606432D01*
G75*
G02*
X67088402Y-97856429I-249997J0D01*
G01*
X66263396Y-97856429D01*
G75*
G02*
X66013399Y-97606432I0J249997D01*
G01*
G37*
%TD*%
%TO.C,C18*%
G36*
G01*
X73638399Y-103926426D02*
X73638399Y-105226432D01*
G75*
G02*
X73388402Y-105476429I-249997J0D01*
G01*
X72563396Y-105476429D01*
G75*
G02*
X72313399Y-105226432I0J249997D01*
G01*
X72313399Y-103926426D01*
G75*
G02*
X72563396Y-103676429I249997J0D01*
G01*
X73388402Y-103676429D01*
G75*
G02*
X73638399Y-103926426I0J-249997D01*
G01*
G37*
G36*
G01*
X70513399Y-103926426D02*
X70513399Y-105226432D01*
G75*
G02*
X70263402Y-105476429I-249997J0D01*
G01*
X69438396Y-105476429D01*
G75*
G02*
X69188399Y-105226432I0J249997D01*
G01*
X69188399Y-103926426D01*
G75*
G02*
X69438396Y-103676429I249997J0D01*
G01*
X70263402Y-103676429D01*
G75*
G02*
X70513399Y-103926426I0J-249997D01*
G01*
G37*
%TD*%
%TO.C,C19*%
G36*
G01*
X69188399Y-115386432D02*
X69188399Y-114086426D01*
G75*
G02*
X69438396Y-113836429I249997J0D01*
G01*
X70263402Y-113836429D01*
G75*
G02*
X70513399Y-114086426I0J-249997D01*
G01*
X70513399Y-115386432D01*
G75*
G02*
X70263402Y-115636429I-249997J0D01*
G01*
X69438396Y-115636429D01*
G75*
G02*
X69188399Y-115386432I0J249997D01*
G01*
G37*
G36*
G01*
X72313399Y-115386432D02*
X72313399Y-114086426D01*
G75*
G02*
X72563396Y-113836429I249997J0D01*
G01*
X73388402Y-113836429D01*
G75*
G02*
X73638399Y-114086426I0J-249997D01*
G01*
X73638399Y-115386432D01*
G75*
G02*
X73388402Y-115636429I-249997J0D01*
G01*
X72563396Y-115636429D01*
G75*
G02*
X72313399Y-115386432I0J249997D01*
G01*
G37*
%TD*%
%TO.C,R37*%
G36*
G01*
X67593400Y-108756429D02*
X66343398Y-108756429D01*
G75*
G02*
X66093399Y-108506430I0J249999D01*
G01*
X66093399Y-107706428D01*
G75*
G02*
X66343398Y-107456429I249999J0D01*
G01*
X67593400Y-107456429D01*
G75*
G02*
X67843399Y-107706428I0J-249999D01*
G01*
X67843399Y-108506430D01*
G75*
G02*
X67593400Y-108756429I-249999J0D01*
G01*
G37*
G36*
G01*
X67593400Y-111856429D02*
X66343398Y-111856429D01*
G75*
G02*
X66093399Y-111606430I0J249999D01*
G01*
X66093399Y-110806428D01*
G75*
G02*
X66343398Y-110556429I249999J0D01*
G01*
X67593400Y-110556429D01*
G75*
G02*
X67843399Y-110806428I0J-249999D01*
G01*
X67843399Y-111606430D01*
G75*
G02*
X67593400Y-111856429I-249999J0D01*
G01*
G37*
%TD*%
M02*
