%TF.GenerationSoftware,KiCad,Pcbnew,5.1.9*%
%TF.CreationDate,2021-01-12T21:48:28+01:00*%
%TF.ProjectId,pcb_motherboard_dev,7063625f-6d6f-4746-9865-72626f617264,rev?*%
%TF.SameCoordinates,Original*%
%TF.FileFunction,Legend,Top*%
%TF.FilePolarity,Positive*%
%FSLAX46Y46*%
G04 Gerber Fmt 4.6, Leading zero omitted, Abs format (unit mm)*
G04 Created by KiCad (PCBNEW 5.1.9) date 2021-01-12 21:48:28*
%MOMM*%
%LPD*%
G01*
G04 APERTURE LIST*
%ADD10C,0.120000*%
%ADD11C,0.200000*%
%ADD12C,0.100000*%
%ADD13C,0.400000*%
%ADD14C,0.150000*%
G04 APERTURE END LIST*
D10*
X92368399Y-59491429D02*
X92368399Y-56951429D01*
X97448399Y-59491429D02*
X97448399Y-56951429D01*
X81573399Y-85526429D02*
X84748399Y-85526429D01*
X155233399Y-60761429D02*
X155233399Y-56951429D01*
X87348399Y-74671429D02*
X87348399Y-72826429D01*
X79608399Y-72826429D02*
X79608399Y-74671429D01*
X147158399Y-70481429D02*
X147158399Y-73021429D01*
X156928399Y-70481429D02*
X156928399Y-73021429D01*
X147158399Y-108191429D02*
X147158399Y-105651429D01*
X156928399Y-108191429D02*
X156928399Y-105651429D01*
X146978399Y-112196429D02*
X146978399Y-109656429D01*
X157138399Y-112196429D02*
X157138399Y-109656429D01*
X111418399Y-117276429D02*
X110148399Y-117276429D01*
X152693399Y-70286429D02*
X149578399Y-70286429D01*
X152693399Y-65146429D02*
X149518399Y-65146429D01*
X146918399Y-70346429D02*
X145073399Y-70346429D01*
X146918399Y-65146429D02*
X145073399Y-65146429D01*
D11*
X146251256Y-69746429D02*
X145051256Y-69746429D01*
X145051256Y-69289286D01*
X145108399Y-69175000D01*
X145165541Y-69117857D01*
X145279827Y-69060714D01*
X145451256Y-69060714D01*
X145565541Y-69117857D01*
X145622684Y-69175000D01*
X145679827Y-69289286D01*
X145679827Y-69746429D01*
X146251256Y-67860714D02*
X145679827Y-68260714D01*
X146251256Y-68546429D02*
X145051256Y-68546429D01*
X145051256Y-68089286D01*
X145108399Y-67975000D01*
X145165541Y-67917857D01*
X145279827Y-67860714D01*
X145451256Y-67860714D01*
X145565541Y-67917857D01*
X145622684Y-67975000D01*
X145679827Y-68089286D01*
X145679827Y-68546429D01*
X145051256Y-67117857D02*
X145051256Y-66889286D01*
X145108399Y-66775000D01*
X145222684Y-66660714D01*
X145451256Y-66603571D01*
X145851256Y-66603571D01*
X146079827Y-66660714D01*
X146194113Y-66775000D01*
X146251256Y-66889286D01*
X146251256Y-67117857D01*
X146194113Y-67232143D01*
X146079827Y-67346429D01*
X145851256Y-67403571D01*
X145451256Y-67403571D01*
X145222684Y-67346429D01*
X145108399Y-67232143D01*
X145051256Y-67117857D01*
X145051256Y-66260714D02*
X145051256Y-65575000D01*
X146251256Y-65917857D02*
X145051256Y-65917857D01*
D10*
X99353399Y-61131429D02*
X99353399Y-64571429D01*
X107033399Y-63301429D02*
X107033399Y-61396429D01*
X147038399Y-58796429D02*
X148883399Y-58796429D01*
X148883399Y-63996429D02*
X147038399Y-63996429D01*
X66273399Y-136266429D02*
X68178399Y-136266429D01*
X66333399Y-141406429D02*
X69508399Y-141406429D01*
X113323399Y-133151429D02*
X111418399Y-133151429D01*
X113323399Y-128071429D02*
X111418399Y-128071429D01*
X68238399Y-80446429D02*
X65698399Y-80446429D01*
X73953399Y-84696429D02*
X73953399Y-86796429D01*
X79033399Y-84696429D02*
X79033399Y-86796429D01*
X79668399Y-80446429D02*
X82843399Y-80446429D01*
X87288399Y-77271429D02*
X87288399Y-82986429D01*
X79668399Y-79811429D02*
X87288399Y-79811429D01*
D12*
G36*
X87288399Y-82986429D02*
G01*
X82208399Y-82986429D01*
X82208399Y-80446429D01*
X87288399Y-80446429D01*
X87288399Y-82986429D01*
G37*
X87288399Y-82986429D02*
X82208399Y-82986429D01*
X82208399Y-80446429D01*
X87288399Y-80446429D01*
X87288399Y-82986429D01*
D10*
X79608399Y-82986429D02*
X79608399Y-77331429D01*
X79668399Y-82986429D02*
X91733399Y-82986429D01*
X84748399Y-77271429D02*
X91733399Y-77271429D01*
D11*
X119041256Y-98746429D02*
X118898399Y-98675000D01*
X118684113Y-98675000D01*
X118469827Y-98746429D01*
X118326970Y-98889286D01*
X118255541Y-99032143D01*
X118184113Y-99317857D01*
X118184113Y-99532143D01*
X118255541Y-99817857D01*
X118326970Y-99960714D01*
X118469827Y-100103571D01*
X118684113Y-100175000D01*
X118826970Y-100175000D01*
X119041256Y-100103571D01*
X119112684Y-100032143D01*
X119112684Y-99532143D01*
X118826970Y-99532143D01*
X119755541Y-100175000D02*
X119755541Y-98675000D01*
X120612684Y-100175000D01*
X120612684Y-98675000D01*
X121326970Y-100175000D02*
X121326970Y-98675000D01*
X121684113Y-98675000D01*
X121898399Y-98746429D01*
X122041256Y-98889286D01*
X122112684Y-99032143D01*
X122184113Y-99317857D01*
X122184113Y-99532143D01*
X122112684Y-99817857D01*
X122041256Y-99960714D01*
X121898399Y-100103571D01*
X121684113Y-100175000D01*
X121326970Y-100175000D01*
D10*
X60618399Y-76001429D02*
X60618399Y-72826429D01*
X121578399Y-119181429D02*
X121578399Y-111561429D01*
X129198399Y-119181429D02*
X129198399Y-111561429D01*
X131738399Y-119181429D02*
X131738399Y-111561429D01*
X139358399Y-119181429D02*
X139358399Y-111561429D01*
X117133399Y-52506429D02*
X117133399Y-56951429D01*
X112053399Y-56951429D02*
X112053399Y-52506429D01*
X155868399Y-128071429D02*
X155868399Y-125531429D01*
X144438399Y-128071429D02*
X144438399Y-125531429D01*
D11*
X138044827Y-55836429D02*
X139544827Y-55836429D01*
X138044827Y-56693571D01*
X139544827Y-56693571D01*
X139544827Y-57193571D02*
X139544827Y-58050714D01*
X138044827Y-57622143D02*
X139544827Y-57622143D01*
X138187684Y-59407857D02*
X138116256Y-59336429D01*
X138044827Y-59122143D01*
X138044827Y-58979286D01*
X138116256Y-58765000D01*
X138259113Y-58622143D01*
X138401970Y-58550714D01*
X138687684Y-58479286D01*
X138901970Y-58479286D01*
X139187684Y-58550714D01*
X139330541Y-58622143D01*
X139473399Y-58765000D01*
X139544827Y-58979286D01*
X139544827Y-59122143D01*
X139473399Y-59336429D01*
X139401970Y-59407857D01*
X140584827Y-55836429D02*
X142084827Y-55836429D01*
X140584827Y-56693571D01*
X142084827Y-56693571D01*
X142084827Y-57193571D02*
X142084827Y-58050714D01*
X140584827Y-57622143D02*
X142084827Y-57622143D01*
X140727684Y-59407857D02*
X140656256Y-59336429D01*
X140584827Y-59122143D01*
X140584827Y-58979286D01*
X140656256Y-58765000D01*
X140799113Y-58622143D01*
X140941970Y-58550714D01*
X141227684Y-58479286D01*
X141441970Y-58479286D01*
X141727684Y-58550714D01*
X141870541Y-58622143D01*
X142013399Y-58765000D01*
X142084827Y-58979286D01*
X142084827Y-59122143D01*
X142013399Y-59336429D01*
X141941970Y-59407857D01*
X143910541Y-56130000D02*
X143839113Y-56344286D01*
X143767684Y-56415714D01*
X143624827Y-56487143D01*
X143410541Y-56487143D01*
X143267684Y-56415714D01*
X143196256Y-56344286D01*
X143124827Y-56201429D01*
X143124827Y-55630000D01*
X144624827Y-55630000D01*
X144624827Y-56130000D01*
X144553399Y-56272857D01*
X144481970Y-56344286D01*
X144339113Y-56415714D01*
X144196256Y-56415714D01*
X144053399Y-56344286D01*
X143981970Y-56272857D01*
X143910541Y-56130000D01*
X143910541Y-55630000D01*
X143696256Y-57130000D02*
X143696256Y-58272857D01*
X146450541Y-56130000D02*
X146379113Y-56344286D01*
X146307684Y-56415714D01*
X146164827Y-56487143D01*
X145950541Y-56487143D01*
X145807684Y-56415714D01*
X145736256Y-56344286D01*
X145664827Y-56201429D01*
X145664827Y-55630000D01*
X147164827Y-55630000D01*
X147164827Y-56130000D01*
X147093399Y-56272857D01*
X147021970Y-56344286D01*
X146879113Y-56415714D01*
X146736256Y-56415714D01*
X146593399Y-56344286D01*
X146521970Y-56272857D01*
X146450541Y-56130000D01*
X146450541Y-55630000D01*
X146236256Y-57130000D02*
X146236256Y-58272857D01*
X145664827Y-57701429D02*
X146807684Y-57701429D01*
D10*
X136183399Y-110291429D02*
X141263399Y-110291429D01*
X136183399Y-100131429D02*
X141263399Y-100131429D01*
D11*
X136676970Y-105691429D02*
X136676970Y-105405714D01*
X136748399Y-105262857D01*
X136891256Y-105120000D01*
X137176970Y-105048571D01*
X137676970Y-105048571D01*
X137962684Y-105120000D01*
X138105541Y-105262857D01*
X138176970Y-105405714D01*
X138176970Y-105691429D01*
X138105541Y-105834286D01*
X137962684Y-105977143D01*
X137676970Y-106048571D01*
X137176970Y-106048571D01*
X136891256Y-105977143D01*
X136748399Y-105834286D01*
X136676970Y-105691429D01*
X136676970Y-104548571D02*
X138176970Y-104191429D01*
X137105541Y-103905714D01*
X138176970Y-103620000D01*
X136676970Y-103262857D01*
X137391256Y-102191429D02*
X137462684Y-101977143D01*
X137534113Y-101905714D01*
X137676970Y-101834286D01*
X137891256Y-101834286D01*
X138034113Y-101905714D01*
X138105541Y-101977143D01*
X138176970Y-102120000D01*
X138176970Y-102691429D01*
X136676970Y-102691429D01*
X136676970Y-102191429D01*
X136748399Y-102048571D01*
X136819827Y-101977143D01*
X136962684Y-101905714D01*
X137105541Y-101905714D01*
X137248399Y-101977143D01*
X137319827Y-102048571D01*
X137391256Y-102191429D01*
X137391256Y-102691429D01*
X140555541Y-107227143D02*
X140626970Y-107012857D01*
X140626970Y-106655714D01*
X140555541Y-106512857D01*
X140484113Y-106441429D01*
X140341256Y-106370000D01*
X140198399Y-106370000D01*
X140055541Y-106441429D01*
X139984113Y-106512857D01*
X139912684Y-106655714D01*
X139841256Y-106941429D01*
X139769827Y-107084286D01*
X139698399Y-107155714D01*
X139555541Y-107227143D01*
X139412684Y-107227143D01*
X139269827Y-107155714D01*
X139198399Y-107084286D01*
X139126970Y-106941429D01*
X139126970Y-106584286D01*
X139198399Y-106370000D01*
X139841256Y-105727143D02*
X139841256Y-105227143D01*
X140626970Y-105012857D02*
X140626970Y-105727143D01*
X139126970Y-105727143D01*
X139126970Y-105012857D01*
X140626970Y-104370000D02*
X139126970Y-104370000D01*
X140626970Y-103512857D01*
X139126970Y-103512857D01*
X140555541Y-102870000D02*
X140626970Y-102655714D01*
X140626970Y-102298571D01*
X140555541Y-102155714D01*
X140484113Y-102084286D01*
X140341256Y-102012857D01*
X140198399Y-102012857D01*
X140055541Y-102084286D01*
X139984113Y-102155714D01*
X139912684Y-102298571D01*
X139841256Y-102584286D01*
X139769827Y-102727143D01*
X139698399Y-102798571D01*
X139555541Y-102870000D01*
X139412684Y-102870000D01*
X139269827Y-102798571D01*
X139198399Y-102727143D01*
X139126970Y-102584286D01*
X139126970Y-102227143D01*
X139198399Y-102012857D01*
X139841256Y-101370000D02*
X139841256Y-100870000D01*
X140626970Y-100655714D02*
X140626970Y-101370000D01*
X139126970Y-101370000D01*
X139126970Y-100655714D01*
D10*
X117768399Y-119816429D02*
X114593399Y-119816429D01*
X149518399Y-133151429D02*
X150788399Y-133151429D01*
X149518399Y-130611429D02*
X150788399Y-130611429D01*
X114653399Y-61971429D02*
X114653399Y-63876429D01*
X117193399Y-61971429D02*
X117193399Y-63876429D01*
X117133399Y-127436429D02*
X121578399Y-127436429D01*
X117133399Y-121721429D02*
X121578399Y-121721429D01*
X143803399Y-121721429D02*
X139358399Y-121721429D01*
X143803399Y-127436429D02*
X139358399Y-127436429D01*
X129198399Y-121721429D02*
X126658399Y-121721429D01*
D12*
G36*
X126658399Y-124261429D02*
G01*
X121578399Y-124261429D01*
X121578399Y-121721429D01*
X126658399Y-121721429D01*
X126658399Y-124261429D01*
G37*
X126658399Y-124261429D02*
X121578399Y-124261429D01*
X121578399Y-121721429D01*
X126658399Y-121721429D01*
X126658399Y-124261429D01*
D10*
X121578399Y-127436429D02*
X121578399Y-124261429D01*
X126658399Y-124261429D02*
X129198399Y-124261429D01*
D12*
G36*
X129198399Y-127436429D02*
G01*
X124118399Y-127436429D01*
X124118399Y-124896429D01*
X129198399Y-124896429D01*
X129198399Y-127436429D01*
G37*
X129198399Y-127436429D02*
X124118399Y-127436429D01*
X124118399Y-124896429D01*
X129198399Y-124896429D01*
X129198399Y-127436429D01*
D10*
X121578399Y-127436429D02*
X124118399Y-127436429D01*
X129198399Y-124896429D02*
X129198399Y-121721429D01*
X121578399Y-124896429D02*
X124118399Y-124896429D01*
X131738399Y-127436429D02*
X134278399Y-127436429D01*
X131738399Y-124896429D02*
X134278399Y-124896429D01*
D12*
G36*
X139358399Y-127436429D02*
G01*
X134278399Y-127436429D01*
X134278399Y-124896429D01*
X139358399Y-124896429D01*
X139358399Y-127436429D01*
G37*
X139358399Y-127436429D02*
X134278399Y-127436429D01*
X134278399Y-124896429D01*
X139358399Y-124896429D01*
X139358399Y-127436429D01*
D10*
X131738399Y-127436429D02*
X131738399Y-124261429D01*
X139358399Y-121721429D02*
X136818399Y-121721429D01*
X139358399Y-124896429D02*
X139358399Y-121721429D01*
X136818399Y-124261429D02*
X139358399Y-124261429D01*
D12*
G36*
X136818399Y-124261429D02*
G01*
X131738399Y-124261429D01*
X131738399Y-121721429D01*
X136818399Y-121721429D01*
X136818399Y-124261429D01*
G37*
X136818399Y-124261429D02*
X131738399Y-124261429D01*
X131738399Y-121721429D01*
X136818399Y-121721429D01*
X136818399Y-124261429D01*
D11*
X140291256Y-126059286D02*
X140791256Y-126059286D01*
X141005541Y-126845000D02*
X140291256Y-126845000D01*
X140291256Y-125345000D01*
X141005541Y-125345000D01*
X141505541Y-125345000D02*
X142505541Y-126845000D01*
X142505541Y-125345000D02*
X141505541Y-126845000D01*
X142862684Y-125345000D02*
X143719827Y-125345000D01*
X143291256Y-126845000D02*
X143291256Y-125345000D01*
X140041256Y-122170000D02*
X140041256Y-123384286D01*
X140112684Y-123527143D01*
X140184113Y-123598571D01*
X140326970Y-123670000D01*
X140612684Y-123670000D01*
X140755541Y-123598571D01*
X140826970Y-123527143D01*
X140898399Y-123384286D01*
X140898399Y-122170000D01*
X142398399Y-123670000D02*
X141541256Y-123670000D01*
X141969827Y-123670000D02*
X141969827Y-122170000D01*
X141826970Y-122384286D01*
X141684113Y-122527143D01*
X141541256Y-122598571D01*
X142898399Y-122170000D02*
X143826970Y-122170000D01*
X143326970Y-122741429D01*
X143541256Y-122741429D01*
X143684113Y-122812857D01*
X143755541Y-122884286D01*
X143826970Y-123027143D01*
X143826970Y-123384286D01*
X143755541Y-123527143D01*
X143684113Y-123598571D01*
X143541256Y-123670000D01*
X143112684Y-123670000D01*
X142969827Y-123598571D01*
X142898399Y-123527143D01*
X122316970Y-111375000D02*
X123174113Y-111375000D01*
X122745541Y-112875000D02*
X122745541Y-111375000D01*
X123674113Y-112303571D02*
X124816970Y-112303571D01*
X125531256Y-112875000D02*
X125531256Y-111375000D01*
X126245541Y-112875000D02*
X126245541Y-111375000D01*
X127102684Y-112875000D01*
X127102684Y-111375000D01*
X127602684Y-111375000D02*
X128459827Y-111375000D01*
X128031256Y-112875000D02*
X128031256Y-111375000D01*
X81192684Y-72640000D02*
X81692684Y-74140000D01*
X82192684Y-72640000D01*
X82692684Y-74140000D02*
X82692684Y-72640000D01*
X82692684Y-73211429D02*
X82835541Y-73140000D01*
X83121256Y-73140000D01*
X83264113Y-73211429D01*
X83335541Y-73282857D01*
X83406970Y-73425714D01*
X83406970Y-73854286D01*
X83335541Y-73997143D01*
X83264113Y-74068571D01*
X83121256Y-74140000D01*
X82835541Y-74140000D01*
X82692684Y-74068571D01*
X84692684Y-74140000D02*
X84692684Y-73354286D01*
X84621256Y-73211429D01*
X84478399Y-73140000D01*
X84192684Y-73140000D01*
X84049827Y-73211429D01*
X84692684Y-74068571D02*
X84549827Y-74140000D01*
X84192684Y-74140000D01*
X84049827Y-74068571D01*
X83978399Y-73925714D01*
X83978399Y-73782857D01*
X84049827Y-73640000D01*
X84192684Y-73568571D01*
X84549827Y-73568571D01*
X84692684Y-73497143D01*
X85192684Y-73140000D02*
X85764113Y-73140000D01*
X85406970Y-72640000D02*
X85406970Y-73925714D01*
X85478399Y-74068571D01*
X85621256Y-74140000D01*
X85764113Y-74140000D01*
X61749827Y-74140000D02*
X61749827Y-72640000D01*
X62321256Y-72640000D01*
X62464113Y-72711429D01*
X62535541Y-72782857D01*
X62606970Y-72925714D01*
X62606970Y-73140000D01*
X62535541Y-73282857D01*
X62464113Y-73354286D01*
X62321256Y-73425714D01*
X61749827Y-73425714D01*
X64106970Y-74140000D02*
X63606970Y-73425714D01*
X63249827Y-74140000D02*
X63249827Y-72640000D01*
X63821256Y-72640000D01*
X63964113Y-72711429D01*
X64035541Y-72782857D01*
X64106970Y-72925714D01*
X64106970Y-73140000D01*
X64035541Y-73282857D01*
X63964113Y-73354286D01*
X63821256Y-73425714D01*
X63249827Y-73425714D01*
X65035541Y-72640000D02*
X65321256Y-72640000D01*
X65464113Y-72711429D01*
X65606970Y-72854286D01*
X65678399Y-73140000D01*
X65678399Y-73640000D01*
X65606970Y-73925714D01*
X65464113Y-74068571D01*
X65321256Y-74140000D01*
X65035541Y-74140000D01*
X64892684Y-74068571D01*
X64749827Y-73925714D01*
X64678399Y-73640000D01*
X64678399Y-73140000D01*
X64749827Y-72854286D01*
X64892684Y-72711429D01*
X65035541Y-72640000D01*
X67106970Y-72711429D02*
X66964113Y-72640000D01*
X66749827Y-72640000D01*
X66535541Y-72711429D01*
X66392684Y-72854286D01*
X66321256Y-72997143D01*
X66249827Y-73282857D01*
X66249827Y-73497143D01*
X66321256Y-73782857D01*
X66392684Y-73925714D01*
X66535541Y-74068571D01*
X66749827Y-74140000D01*
X66892684Y-74140000D01*
X67106970Y-74068571D01*
X67178399Y-73997143D01*
X67178399Y-73497143D01*
X66892684Y-73497143D01*
D10*
X60558399Y-77331429D02*
X73318399Y-77331429D01*
D11*
X134366970Y-78037143D02*
X132866970Y-78037143D01*
X133938399Y-77537143D01*
X132866970Y-77037143D01*
X134366970Y-77037143D01*
X132866970Y-76037143D02*
X132866970Y-75751429D01*
X132938399Y-75608571D01*
X133081256Y-75465714D01*
X133366970Y-75394286D01*
X133866970Y-75394286D01*
X134152684Y-75465714D01*
X134295541Y-75608571D01*
X134366970Y-75751429D01*
X134366970Y-76037143D01*
X134295541Y-76180000D01*
X134152684Y-76322857D01*
X133866970Y-76394286D01*
X133366970Y-76394286D01*
X133081256Y-76322857D01*
X132938399Y-76180000D01*
X132866970Y-76037143D01*
X134366970Y-74751429D02*
X132866970Y-74751429D01*
X132866970Y-74394286D01*
X132938399Y-74180000D01*
X133081256Y-74037143D01*
X133224113Y-73965714D01*
X133509827Y-73894286D01*
X133724113Y-73894286D01*
X134009827Y-73965714D01*
X134152684Y-74037143D01*
X134295541Y-74180000D01*
X134366970Y-74394286D01*
X134366970Y-74751429D01*
X136816970Y-76751429D02*
X135316970Y-76751429D01*
X136816970Y-76037143D02*
X135316970Y-76037143D01*
X135316970Y-75680000D01*
X135388399Y-75465714D01*
X135531256Y-75322857D01*
X135674113Y-75251429D01*
X135959827Y-75180000D01*
X136174113Y-75180000D01*
X136459827Y-75251429D01*
X136602684Y-75322857D01*
X136745541Y-75465714D01*
X136816970Y-75680000D01*
X136816970Y-76037143D01*
D10*
X99353399Y-65841429D02*
X96178399Y-65841429D01*
X132373399Y-72191429D02*
X132373399Y-70921429D01*
X126658399Y-72191429D02*
X126658399Y-70921429D01*
D11*
X138108399Y-93039286D02*
X138608399Y-93039286D01*
X138822684Y-93825000D02*
X138108399Y-93825000D01*
X138108399Y-92325000D01*
X138822684Y-92325000D01*
X139465541Y-93253571D02*
X140608399Y-93253571D01*
X138001256Y-91213571D02*
X138215541Y-91285000D01*
X138572684Y-91285000D01*
X138715541Y-91213571D01*
X138786970Y-91142143D01*
X138858399Y-90999286D01*
X138858399Y-90856429D01*
X138786970Y-90713571D01*
X138715541Y-90642143D01*
X138572684Y-90570714D01*
X138286970Y-90499286D01*
X138144113Y-90427857D01*
X138072684Y-90356429D01*
X138001256Y-90213571D01*
X138001256Y-90070714D01*
X138072684Y-89927857D01*
X138144113Y-89856429D01*
X138286970Y-89785000D01*
X138644113Y-89785000D01*
X138858399Y-89856429D01*
X139501256Y-90713571D02*
X140644113Y-90713571D01*
X138001256Y-88673571D02*
X138215541Y-88745000D01*
X138572684Y-88745000D01*
X138715541Y-88673571D01*
X138786970Y-88602143D01*
X138858399Y-88459286D01*
X138858399Y-88316429D01*
X138786970Y-88173571D01*
X138715541Y-88102143D01*
X138572684Y-88030714D01*
X138286970Y-87959286D01*
X138144113Y-87887857D01*
X138072684Y-87816429D01*
X138001256Y-87673571D01*
X138001256Y-87530714D01*
X138072684Y-87387857D01*
X138144113Y-87316429D01*
X138286970Y-87245000D01*
X138644113Y-87245000D01*
X138858399Y-87316429D01*
X139501256Y-88173571D02*
X140644113Y-88173571D01*
X140072684Y-88745000D02*
X140072684Y-87602143D01*
X138108399Y-85419286D02*
X138608399Y-85419286D01*
X138822684Y-86205000D02*
X138108399Y-86205000D01*
X138108399Y-84705000D01*
X138822684Y-84705000D01*
X139465541Y-85633571D02*
X140608399Y-85633571D01*
X140036970Y-86205000D02*
X140036970Y-85062143D01*
X74029113Y-85340000D02*
X74529113Y-86840000D01*
X75029113Y-85340000D01*
X75457684Y-86768571D02*
X75600541Y-86840000D01*
X75886256Y-86840000D01*
X76029113Y-86768571D01*
X76100541Y-86625714D01*
X76100541Y-86554286D01*
X76029113Y-86411429D01*
X75886256Y-86340000D01*
X75671970Y-86340000D01*
X75529113Y-86268571D01*
X75457684Y-86125714D01*
X75457684Y-86054286D01*
X75529113Y-85911429D01*
X75671970Y-85840000D01*
X75886256Y-85840000D01*
X76029113Y-85911429D01*
X76743399Y-86840000D02*
X76743399Y-85840000D01*
X76743399Y-85340000D02*
X76671970Y-85411429D01*
X76743399Y-85482857D01*
X76814827Y-85411429D01*
X76743399Y-85340000D01*
X76743399Y-85482857D01*
X77457684Y-86840000D02*
X77457684Y-85840000D01*
X77457684Y-85982857D02*
X77529113Y-85911429D01*
X77671970Y-85840000D01*
X77886256Y-85840000D01*
X78029113Y-85911429D01*
X78100541Y-86054286D01*
X78100541Y-86840000D01*
X78100541Y-86054286D02*
X78171970Y-85911429D01*
X78314827Y-85840000D01*
X78529113Y-85840000D01*
X78671970Y-85911429D01*
X78743399Y-86054286D01*
X78743399Y-86840000D01*
D10*
X137453399Y-63936429D02*
X137453399Y-68381429D01*
X131738399Y-110291429D02*
X133643399Y-110291429D01*
X99353399Y-71556429D02*
X96178399Y-71556429D01*
X133643399Y-81081429D02*
X131738399Y-81081429D01*
X131738399Y-101401429D02*
X133643399Y-101401429D01*
D11*
X133472684Y-87967143D02*
X133401256Y-88038571D01*
X133186970Y-88110000D01*
X133044113Y-88110000D01*
X132829827Y-88038571D01*
X132686970Y-87895714D01*
X132615541Y-87752857D01*
X132544113Y-87467143D01*
X132544113Y-87252857D01*
X132615541Y-86967143D01*
X132686970Y-86824286D01*
X132829827Y-86681429D01*
X133044113Y-86610000D01*
X133186970Y-86610000D01*
X133401256Y-86681429D01*
X133472684Y-86752857D01*
X132615541Y-90650000D02*
X132615541Y-89150000D01*
X132972684Y-89150000D01*
X133186970Y-89221429D01*
X133329827Y-89364286D01*
X133401256Y-89507143D01*
X133472684Y-89792857D01*
X133472684Y-90007143D01*
X133401256Y-90292857D01*
X133329827Y-90435714D01*
X133186970Y-90578571D01*
X132972684Y-90650000D01*
X132615541Y-90650000D01*
X133401256Y-96841429D02*
X133258399Y-96770000D01*
X133044113Y-96770000D01*
X132829827Y-96841429D01*
X132686970Y-96984286D01*
X132615541Y-97127143D01*
X132544113Y-97412857D01*
X132544113Y-97627143D01*
X132615541Y-97912857D01*
X132686970Y-98055714D01*
X132829827Y-98198571D01*
X133044113Y-98270000D01*
X133186970Y-98270000D01*
X133401256Y-98198571D01*
X133472684Y-98127143D01*
X133472684Y-97627143D01*
X133186970Y-97627143D01*
X132651256Y-82601429D02*
X133365541Y-82601429D01*
X132508399Y-83030000D02*
X133008399Y-81530000D01*
X133508399Y-83030000D01*
X133222684Y-94944286D02*
X132722684Y-94944286D01*
X132722684Y-95730000D02*
X132722684Y-94230000D01*
X133436970Y-94230000D01*
X133115541Y-84784286D02*
X133329827Y-84855714D01*
X133401256Y-84927143D01*
X133472684Y-85070000D01*
X133472684Y-85284286D01*
X133401256Y-85427143D01*
X133329827Y-85498571D01*
X133186970Y-85570000D01*
X132615541Y-85570000D01*
X132615541Y-84070000D01*
X133115541Y-84070000D01*
X133258399Y-84141429D01*
X133329827Y-84212857D01*
X133401256Y-84355714D01*
X133401256Y-84498571D01*
X133329827Y-84641429D01*
X133258399Y-84712857D01*
X133115541Y-84784286D01*
X132615541Y-84784286D01*
X132579827Y-100810000D02*
X132579827Y-99310000D01*
X132579827Y-100024286D02*
X133436970Y-100024286D01*
X133436970Y-100810000D02*
X133436970Y-99310000D01*
X132686970Y-92404286D02*
X133186970Y-92404286D01*
X133401256Y-93190000D02*
X132686970Y-93190000D01*
X132686970Y-91690000D01*
X133401256Y-91690000D01*
D13*
X105782684Y-120433809D02*
X105877922Y-120529048D01*
X105973160Y-120814762D01*
X105973160Y-121005238D01*
X105877922Y-121290952D01*
X105687446Y-121481429D01*
X105496970Y-121576667D01*
X105116018Y-121671905D01*
X104830303Y-121671905D01*
X104449351Y-121576667D01*
X104258875Y-121481429D01*
X104068399Y-121290952D01*
X103973160Y-121005238D01*
X103973160Y-120814762D01*
X104068399Y-120529048D01*
X104163637Y-120433809D01*
X105782684Y-118433809D02*
X105877922Y-118529048D01*
X105973160Y-118814762D01*
X105973160Y-119005238D01*
X105877922Y-119290952D01*
X105687446Y-119481429D01*
X105496970Y-119576667D01*
X105116018Y-119671905D01*
X104830303Y-119671905D01*
X104449351Y-119576667D01*
X104258875Y-119481429D01*
X104068399Y-119290952D01*
X103973160Y-119005238D01*
X103973160Y-118814762D01*
X104068399Y-118529048D01*
X104163637Y-118433809D01*
X105782684Y-117576667D02*
X105877922Y-117481429D01*
X105973160Y-117576667D01*
X105877922Y-117671905D01*
X105782684Y-117576667D01*
X105973160Y-117576667D01*
X104735065Y-117576667D02*
X104830303Y-117481429D01*
X104925541Y-117576667D01*
X104830303Y-117671905D01*
X104735065Y-117576667D01*
X104925541Y-117576667D01*
X104925541Y-115957619D02*
X105020779Y-115671905D01*
X105116018Y-115576667D01*
X105306494Y-115481429D01*
X105592208Y-115481429D01*
X105782684Y-115576667D01*
X105877922Y-115671905D01*
X105973160Y-115862381D01*
X105973160Y-116624286D01*
X103973160Y-116624286D01*
X103973160Y-115957619D01*
X104068399Y-115767143D01*
X104163637Y-115671905D01*
X104354113Y-115576667D01*
X104544589Y-115576667D01*
X104735065Y-115671905D01*
X104830303Y-115767143D01*
X104925541Y-115957619D01*
X104925541Y-116624286D01*
X105020779Y-114243333D02*
X105973160Y-114243333D01*
X103973160Y-114910000D02*
X105020779Y-114243333D01*
X103973160Y-113576667D01*
X105211256Y-112910000D02*
X105211256Y-111386190D01*
X105877922Y-110529048D02*
X105973160Y-110243333D01*
X105973160Y-109767143D01*
X105877922Y-109576667D01*
X105782684Y-109481429D01*
X105592208Y-109386190D01*
X105401732Y-109386190D01*
X105211256Y-109481429D01*
X105116018Y-109576667D01*
X105020779Y-109767143D01*
X104925541Y-110148095D01*
X104830303Y-110338571D01*
X104735065Y-110433809D01*
X104544589Y-110529048D01*
X104354113Y-110529048D01*
X104163637Y-110433809D01*
X104068399Y-110338571D01*
X103973160Y-110148095D01*
X103973160Y-109671905D01*
X104068399Y-109386190D01*
X105401732Y-108624286D02*
X105401732Y-107671905D01*
X105973160Y-108814762D02*
X103973160Y-108148095D01*
X105973160Y-107481429D01*
X105973160Y-105290952D02*
X103973160Y-105290952D01*
X105973160Y-104148095D02*
X104830303Y-105005238D01*
X103973160Y-104148095D02*
X105116018Y-105290952D01*
X105973160Y-103290952D02*
X103973160Y-103290952D01*
X103973160Y-102529048D01*
X104068399Y-102338571D01*
X104163637Y-102243333D01*
X104354113Y-102148095D01*
X104639827Y-102148095D01*
X104830303Y-102243333D01*
X104925541Y-102338571D01*
X105020779Y-102529048D01*
X105020779Y-103290952D01*
X105973160Y-101290952D02*
X103973160Y-101290952D01*
X105973160Y-100148095D01*
X103973160Y-100148095D01*
X104925541Y-98529048D02*
X105020779Y-98243333D01*
X105116018Y-98148095D01*
X105306494Y-98052857D01*
X105592208Y-98052857D01*
X105782684Y-98148095D01*
X105877922Y-98243333D01*
X105973160Y-98433809D01*
X105973160Y-99195714D01*
X103973160Y-99195714D01*
X103973160Y-98529048D01*
X104068399Y-98338571D01*
X104163637Y-98243333D01*
X104354113Y-98148095D01*
X104544589Y-98148095D01*
X104735065Y-98243333D01*
X104830303Y-98338571D01*
X104925541Y-98529048D01*
X104925541Y-99195714D01*
X104068399Y-96148095D02*
X103973160Y-96338571D01*
X103973160Y-96624286D01*
X104068399Y-96910000D01*
X104258875Y-97100476D01*
X104449351Y-97195714D01*
X104830303Y-97290952D01*
X105116018Y-97290952D01*
X105496970Y-97195714D01*
X105687446Y-97100476D01*
X105877922Y-96910000D01*
X105973160Y-96624286D01*
X105973160Y-96433809D01*
X105877922Y-96148095D01*
X105782684Y-96052857D01*
X105116018Y-96052857D01*
X105116018Y-96433809D01*
X105782684Y-95195714D02*
X105877922Y-95100476D01*
X105973160Y-95195714D01*
X105877922Y-95290952D01*
X105782684Y-95195714D01*
X105973160Y-95195714D01*
X105973160Y-94243333D02*
X103973160Y-94243333D01*
X103973160Y-93767143D01*
X104068399Y-93481429D01*
X104258875Y-93290952D01*
X104449351Y-93195714D01*
X104830303Y-93100476D01*
X105116018Y-93100476D01*
X105496970Y-93195714D01*
X105687446Y-93290952D01*
X105877922Y-93481429D01*
X105973160Y-93767143D01*
X105973160Y-94243333D01*
X104925541Y-92243333D02*
X104925541Y-91576667D01*
X105973160Y-91290952D02*
X105973160Y-92243333D01*
X103973160Y-92243333D01*
X103973160Y-91290952D01*
X92194589Y-128133571D02*
X91527922Y-128133571D01*
X91527922Y-129181190D02*
X91527922Y-127181190D01*
X92480303Y-127181190D01*
X93623160Y-127181190D02*
X94004113Y-127181190D01*
X94194589Y-127276429D01*
X94385065Y-127466905D01*
X94480303Y-127847857D01*
X94480303Y-128514524D01*
X94385065Y-128895476D01*
X94194589Y-129085952D01*
X94004113Y-129181190D01*
X93623160Y-129181190D01*
X93432684Y-129085952D01*
X93242208Y-128895476D01*
X93146970Y-128514524D01*
X93146970Y-127847857D01*
X93242208Y-127466905D01*
X93432684Y-127276429D01*
X93623160Y-127181190D01*
X96480303Y-129181190D02*
X95813637Y-128228809D01*
X95337446Y-129181190D02*
X95337446Y-127181190D01*
X96099351Y-127181190D01*
X96289827Y-127276429D01*
X96385065Y-127371667D01*
X96480303Y-127562143D01*
X96480303Y-127847857D01*
X96385065Y-128038333D01*
X96289827Y-128133571D01*
X96099351Y-128228809D01*
X95337446Y-128228809D01*
X98480303Y-128990714D02*
X98385065Y-129085952D01*
X98099351Y-129181190D01*
X97908875Y-129181190D01*
X97623160Y-129085952D01*
X97432684Y-128895476D01*
X97337446Y-128705000D01*
X97242208Y-128324048D01*
X97242208Y-128038333D01*
X97337446Y-127657381D01*
X97432684Y-127466905D01*
X97623160Y-127276429D01*
X97908875Y-127181190D01*
X98099351Y-127181190D01*
X98385065Y-127276429D01*
X98480303Y-127371667D01*
X99337446Y-128133571D02*
X100004113Y-128133571D01*
X100289827Y-129181190D02*
X99337446Y-129181190D01*
X99337446Y-127181190D01*
X100289827Y-127181190D01*
X102099351Y-129181190D02*
X101146970Y-129181190D01*
X101146970Y-127181190D01*
X103146970Y-127181190D02*
X103527922Y-127181190D01*
X103718399Y-127276429D01*
X103908875Y-127466905D01*
X104004113Y-127847857D01*
X104004113Y-128514524D01*
X103908875Y-128895476D01*
X103718399Y-129085952D01*
X103527922Y-129181190D01*
X103146970Y-129181190D01*
X102956494Y-129085952D01*
X102766018Y-128895476D01*
X102670779Y-128514524D01*
X102670779Y-127847857D01*
X102766018Y-127466905D01*
X102956494Y-127276429D01*
X103146970Y-127181190D01*
X105908875Y-127276429D02*
X105718399Y-127181190D01*
X105432684Y-127181190D01*
X105146970Y-127276429D01*
X104956494Y-127466905D01*
X104861256Y-127657381D01*
X104766018Y-128038333D01*
X104766018Y-128324048D01*
X104861256Y-128705000D01*
X104956494Y-128895476D01*
X105146970Y-129085952D01*
X105432684Y-129181190D01*
X105623160Y-129181190D01*
X105908875Y-129085952D01*
X106004113Y-128990714D01*
X106004113Y-128324048D01*
X105623160Y-128324048D01*
X88527922Y-132581190D02*
X88527922Y-130581190D01*
X89194589Y-132009762D01*
X89861256Y-130581190D01*
X89861256Y-132581190D01*
X91480303Y-131533571D02*
X91766018Y-131628809D01*
X91861256Y-131724048D01*
X91956494Y-131914524D01*
X91956494Y-132200238D01*
X91861256Y-132390714D01*
X91766018Y-132485952D01*
X91575541Y-132581190D01*
X90813637Y-132581190D01*
X90813637Y-130581190D01*
X91480303Y-130581190D01*
X91670779Y-130676429D01*
X91766018Y-130771667D01*
X91861256Y-130962143D01*
X91861256Y-131152619D01*
X91766018Y-131343095D01*
X91670779Y-131438333D01*
X91480303Y-131533571D01*
X90813637Y-131533571D01*
X92337446Y-132771667D02*
X93861256Y-132771667D01*
X94337446Y-132581190D02*
X94337446Y-130581190D01*
X94813637Y-130581190D01*
X95099351Y-130676429D01*
X95289827Y-130866905D01*
X95385065Y-131057381D01*
X95480303Y-131438333D01*
X95480303Y-131724048D01*
X95385065Y-132105000D01*
X95289827Y-132295476D01*
X95099351Y-132485952D01*
X94813637Y-132581190D01*
X94337446Y-132581190D01*
X96337446Y-131533571D02*
X97004113Y-131533571D01*
X97289827Y-132581190D02*
X96337446Y-132581190D01*
X96337446Y-130581190D01*
X97289827Y-130581190D01*
X97861256Y-130581190D02*
X98527922Y-132581190D01*
X99194589Y-130581190D01*
X102527922Y-132581190D02*
X101861256Y-131628809D01*
X101385065Y-132581190D02*
X101385065Y-130581190D01*
X102146970Y-130581190D01*
X102337446Y-130676429D01*
X102432684Y-130771667D01*
X102527922Y-130962143D01*
X102527922Y-131247857D01*
X102432684Y-131438333D01*
X102337446Y-131533571D01*
X102146970Y-131628809D01*
X101385065Y-131628809D01*
X103385065Y-131533571D02*
X104051732Y-131533571D01*
X104337446Y-132581190D02*
X103385065Y-132581190D01*
X103385065Y-130581190D01*
X104337446Y-130581190D01*
X104908875Y-130581190D02*
X105575541Y-132581190D01*
X106242208Y-130581190D01*
X106908875Y-132390714D02*
X107004113Y-132485952D01*
X106908875Y-132581190D01*
X106813637Y-132485952D01*
X106908875Y-132390714D01*
X106908875Y-132581190D01*
X109004113Y-132390714D02*
X108908875Y-132485952D01*
X108623160Y-132581190D01*
X108432684Y-132581190D01*
X108146970Y-132485952D01*
X107956494Y-132295476D01*
X107861256Y-132105000D01*
X107766018Y-131724048D01*
X107766018Y-131438333D01*
X107861256Y-131057381D01*
X107956494Y-130866905D01*
X108146970Y-130676429D01*
X108432684Y-130581190D01*
X108623160Y-130581190D01*
X108908875Y-130676429D01*
X109004113Y-130771667D01*
D11*
X108415541Y-98675000D02*
X108701256Y-98675000D01*
X108844113Y-98746429D01*
X108986970Y-98889286D01*
X109058399Y-99175000D01*
X109058399Y-99675000D01*
X108986970Y-99960714D01*
X108844113Y-100103571D01*
X108701256Y-100175000D01*
X108415541Y-100175000D01*
X108272684Y-100103571D01*
X108129827Y-99960714D01*
X108058399Y-99675000D01*
X108058399Y-99175000D01*
X108129827Y-98889286D01*
X108272684Y-98746429D01*
X108415541Y-98675000D01*
X109558399Y-98675000D02*
X109915541Y-100175000D01*
X110201256Y-99103571D01*
X110486970Y-100175000D01*
X110844113Y-98675000D01*
X111915541Y-99389286D02*
X112129827Y-99460714D01*
X112201256Y-99532143D01*
X112272684Y-99675000D01*
X112272684Y-99889286D01*
X112201256Y-100032143D01*
X112129827Y-100103571D01*
X111986970Y-100175000D01*
X111415541Y-100175000D01*
X111415541Y-98675000D01*
X111915541Y-98675000D01*
X112058399Y-98746429D01*
X112129827Y-98817857D01*
X112201256Y-98960714D01*
X112201256Y-99103571D01*
X112129827Y-99246429D01*
X112058399Y-99317857D01*
X111915541Y-99389286D01*
X111415541Y-99389286D01*
X111696256Y-89586429D02*
X112410541Y-89586429D01*
X111553399Y-90015000D02*
X112053399Y-88515000D01*
X112553399Y-90015000D01*
X112517684Y-92412143D02*
X112446256Y-92483571D01*
X112231970Y-92555000D01*
X112089113Y-92555000D01*
X111874827Y-92483571D01*
X111731970Y-92340714D01*
X111660541Y-92197857D01*
X111589113Y-91912143D01*
X111589113Y-91697857D01*
X111660541Y-91412143D01*
X111731970Y-91269286D01*
X111874827Y-91126429D01*
X112089113Y-91055000D01*
X112231970Y-91055000D01*
X112446256Y-91126429D01*
X112517684Y-91197857D01*
X111731970Y-94309286D02*
X112231970Y-94309286D01*
X112446256Y-95095000D02*
X111731970Y-95095000D01*
X111731970Y-93595000D01*
X112446256Y-93595000D01*
X112446256Y-96206429D02*
X112303399Y-96135000D01*
X112089113Y-96135000D01*
X111874827Y-96206429D01*
X111731970Y-96349286D01*
X111660541Y-96492143D01*
X111589113Y-96777857D01*
X111589113Y-96992143D01*
X111660541Y-97277857D01*
X111731970Y-97420714D01*
X111874827Y-97563571D01*
X112089113Y-97635000D01*
X112231970Y-97635000D01*
X112446256Y-97563571D01*
X112517684Y-97492143D01*
X112517684Y-96992143D01*
X112231970Y-96992143D01*
X118255541Y-87475000D02*
X118255541Y-85975000D01*
X118826970Y-85975000D02*
X119755541Y-85975000D01*
X119255541Y-86546429D01*
X119469827Y-86546429D01*
X119612684Y-86617857D01*
X119684113Y-86689286D01*
X119755541Y-86832143D01*
X119755541Y-87189286D01*
X119684113Y-87332143D01*
X119612684Y-87403571D01*
X119469827Y-87475000D01*
X119041256Y-87475000D01*
X118898399Y-87403571D01*
X118826970Y-87332143D01*
X121041256Y-85975000D02*
X120755541Y-85975000D01*
X120612684Y-86046429D01*
X120541256Y-86117857D01*
X120398399Y-86332143D01*
X120326970Y-86617857D01*
X120326970Y-87189286D01*
X120398399Y-87332143D01*
X120469827Y-87403571D01*
X120612684Y-87475000D01*
X120898399Y-87475000D01*
X121041256Y-87403571D01*
X121112684Y-87332143D01*
X121184113Y-87189286D01*
X121184113Y-86832143D01*
X121112684Y-86689286D01*
X121041256Y-86617857D01*
X120898399Y-86546429D01*
X120612684Y-86546429D01*
X120469827Y-86617857D01*
X120398399Y-86689286D01*
X120326970Y-86832143D01*
X118255541Y-84935000D02*
X118255541Y-83435000D01*
X119255541Y-83435000D02*
X119541256Y-83435000D01*
X119684113Y-83506429D01*
X119826970Y-83649286D01*
X119898399Y-83935000D01*
X119898399Y-84435000D01*
X119826970Y-84720714D01*
X119684113Y-84863571D01*
X119541256Y-84935000D01*
X119255541Y-84935000D01*
X119112684Y-84863571D01*
X118969827Y-84720714D01*
X118898399Y-84435000D01*
X118898399Y-83935000D01*
X118969827Y-83649286D01*
X119112684Y-83506429D01*
X119255541Y-83435000D01*
X120469827Y-83577857D02*
X120541256Y-83506429D01*
X120684113Y-83435000D01*
X121041256Y-83435000D01*
X121184113Y-83506429D01*
X121255541Y-83577857D01*
X121326970Y-83720714D01*
X121326970Y-83863571D01*
X121255541Y-84077857D01*
X120398399Y-84935000D01*
X121326970Y-84935000D01*
X122684113Y-83435000D02*
X121969827Y-83435000D01*
X121898399Y-84149286D01*
X121969827Y-84077857D01*
X122112684Y-84006429D01*
X122469827Y-84006429D01*
X122612684Y-84077857D01*
X122684113Y-84149286D01*
X122755541Y-84292143D01*
X122755541Y-84649286D01*
X122684113Y-84792143D01*
X122612684Y-84863571D01*
X122469827Y-84935000D01*
X122112684Y-84935000D01*
X121969827Y-84863571D01*
X121898399Y-84792143D01*
X118255541Y-82395000D02*
X118255541Y-80895000D01*
X119255541Y-80895000D02*
X119541256Y-80895000D01*
X119684113Y-80966429D01*
X119826970Y-81109286D01*
X119898399Y-81395000D01*
X119898399Y-81895000D01*
X119826970Y-82180714D01*
X119684113Y-82323571D01*
X119541256Y-82395000D01*
X119255541Y-82395000D01*
X119112684Y-82323571D01*
X118969827Y-82180714D01*
X118898399Y-81895000D01*
X118898399Y-81395000D01*
X118969827Y-81109286D01*
X119112684Y-80966429D01*
X119255541Y-80895000D01*
X120469827Y-81037857D02*
X120541256Y-80966429D01*
X120684113Y-80895000D01*
X121041256Y-80895000D01*
X121184113Y-80966429D01*
X121255541Y-81037857D01*
X121326970Y-81180714D01*
X121326970Y-81323571D01*
X121255541Y-81537857D01*
X120398399Y-82395000D01*
X121326970Y-82395000D01*
X122755541Y-82395000D02*
X121898399Y-82395000D01*
X122326970Y-82395000D02*
X122326970Y-80895000D01*
X122184113Y-81109286D01*
X122041256Y-81252143D01*
X121898399Y-81323571D01*
X118255541Y-79855000D02*
X118255541Y-78355000D01*
X119255541Y-78355000D02*
X119541256Y-78355000D01*
X119684113Y-78426429D01*
X119826970Y-78569286D01*
X119898399Y-78855000D01*
X119898399Y-79355000D01*
X119826970Y-79640714D01*
X119684113Y-79783571D01*
X119541256Y-79855000D01*
X119255541Y-79855000D01*
X119112684Y-79783571D01*
X118969827Y-79640714D01*
X118898399Y-79355000D01*
X118898399Y-78855000D01*
X118969827Y-78569286D01*
X119112684Y-78426429D01*
X119255541Y-78355000D01*
X121326970Y-79855000D02*
X120469827Y-79855000D01*
X120898399Y-79855000D02*
X120898399Y-78355000D01*
X120755541Y-78569286D01*
X120612684Y-78712143D01*
X120469827Y-78783571D01*
X122184113Y-78997857D02*
X122041256Y-78926429D01*
X121969827Y-78855000D01*
X121898399Y-78712143D01*
X121898399Y-78640714D01*
X121969827Y-78497857D01*
X122041256Y-78426429D01*
X122184113Y-78355000D01*
X122469827Y-78355000D01*
X122612684Y-78426429D01*
X122684113Y-78497857D01*
X122755541Y-78640714D01*
X122755541Y-78712143D01*
X122684113Y-78855000D01*
X122612684Y-78926429D01*
X122469827Y-78997857D01*
X122184113Y-78997857D01*
X122041256Y-79069286D01*
X121969827Y-79140714D01*
X121898399Y-79283571D01*
X121898399Y-79569286D01*
X121969827Y-79712143D01*
X122041256Y-79783571D01*
X122184113Y-79855000D01*
X122469827Y-79855000D01*
X122612684Y-79783571D01*
X122684113Y-79712143D01*
X122755541Y-79569286D01*
X122755541Y-79283571D01*
X122684113Y-79140714D01*
X122612684Y-79069286D01*
X122469827Y-78997857D01*
X118255541Y-77315000D02*
X118255541Y-75815000D01*
X119255541Y-75815000D02*
X119541256Y-75815000D01*
X119684113Y-75886429D01*
X119826970Y-76029286D01*
X119898399Y-76315000D01*
X119898399Y-76815000D01*
X119826970Y-77100714D01*
X119684113Y-77243571D01*
X119541256Y-77315000D01*
X119255541Y-77315000D01*
X119112684Y-77243571D01*
X118969827Y-77100714D01*
X118898399Y-76815000D01*
X118898399Y-76315000D01*
X118969827Y-76029286D01*
X119112684Y-75886429D01*
X119255541Y-75815000D01*
X120469827Y-75957857D02*
X120541256Y-75886429D01*
X120684113Y-75815000D01*
X121041256Y-75815000D01*
X121184113Y-75886429D01*
X121255541Y-75957857D01*
X121326970Y-76100714D01*
X121326970Y-76243571D01*
X121255541Y-76457857D01*
X120398399Y-77315000D01*
X121326970Y-77315000D01*
X121826970Y-75815000D02*
X122755541Y-75815000D01*
X122255541Y-76386429D01*
X122469827Y-76386429D01*
X122612684Y-76457857D01*
X122684113Y-76529286D01*
X122755541Y-76672143D01*
X122755541Y-77029286D01*
X122684113Y-77172143D01*
X122612684Y-77243571D01*
X122469827Y-77315000D01*
X122041256Y-77315000D01*
X121898399Y-77243571D01*
X121826970Y-77172143D01*
X118112684Y-103755000D02*
X119041256Y-103755000D01*
X118541256Y-104326429D01*
X118755541Y-104326429D01*
X118898399Y-104397857D01*
X118969827Y-104469286D01*
X119041256Y-104612143D01*
X119041256Y-104969286D01*
X118969827Y-105112143D01*
X118898399Y-105183571D01*
X118755541Y-105255000D01*
X118326970Y-105255000D01*
X118184113Y-105183571D01*
X118112684Y-105112143D01*
X119469827Y-103755000D02*
X119969827Y-105255000D01*
X120469827Y-103755000D01*
X120826970Y-103755000D02*
X121755541Y-103755000D01*
X121255541Y-104326429D01*
X121469827Y-104326429D01*
X121612684Y-104397857D01*
X121684113Y-104469286D01*
X121755541Y-104612143D01*
X121755541Y-104969286D01*
X121684113Y-105112143D01*
X121612684Y-105183571D01*
X121469827Y-105255000D01*
X121041256Y-105255000D01*
X120898399Y-105183571D01*
X120826970Y-105112143D01*
X119041256Y-101286429D02*
X118898399Y-101215000D01*
X118684113Y-101215000D01*
X118469827Y-101286429D01*
X118326970Y-101429286D01*
X118255541Y-101572143D01*
X118184113Y-101857857D01*
X118184113Y-102072143D01*
X118255541Y-102357857D01*
X118326970Y-102500714D01*
X118469827Y-102643571D01*
X118684113Y-102715000D01*
X118826970Y-102715000D01*
X119041256Y-102643571D01*
X119112684Y-102572143D01*
X119112684Y-102072143D01*
X118826970Y-102072143D01*
X119755541Y-102715000D02*
X119755541Y-101215000D01*
X120612684Y-102715000D01*
X120612684Y-101215000D01*
X121326970Y-102715000D02*
X121326970Y-101215000D01*
X121684113Y-101215000D01*
X121898399Y-101286429D01*
X122041256Y-101429286D01*
X122112684Y-101572143D01*
X122184113Y-101857857D01*
X122184113Y-102072143D01*
X122112684Y-102357857D01*
X122041256Y-102500714D01*
X121898399Y-102643571D01*
X121684113Y-102715000D01*
X121326970Y-102715000D01*
X118041256Y-106295000D02*
X118541256Y-107795000D01*
X119041256Y-106295000D01*
X119541256Y-107223571D02*
X120684113Y-107223571D01*
X120112684Y-107795000D02*
X120112684Y-106652143D01*
X109516256Y-101286429D02*
X109373399Y-101215000D01*
X109159113Y-101215000D01*
X108944827Y-101286429D01*
X108801970Y-101429286D01*
X108730541Y-101572143D01*
X108659113Y-101857857D01*
X108659113Y-102072143D01*
X108730541Y-102357857D01*
X108801970Y-102500714D01*
X108944827Y-102643571D01*
X109159113Y-102715000D01*
X109301970Y-102715000D01*
X109516256Y-102643571D01*
X109587684Y-102572143D01*
X109587684Y-102072143D01*
X109301970Y-102072143D01*
X110230541Y-102715000D02*
X110230541Y-101215000D01*
X111087684Y-102715000D01*
X111087684Y-101215000D01*
X111801970Y-102715000D02*
X111801970Y-101215000D01*
X112159113Y-101215000D01*
X112373399Y-101286429D01*
X112516256Y-101429286D01*
X112587684Y-101572143D01*
X112659113Y-101857857D01*
X112659113Y-102072143D01*
X112587684Y-102357857D01*
X112516256Y-102500714D01*
X112373399Y-102643571D01*
X112159113Y-102715000D01*
X111801970Y-102715000D01*
X109786256Y-106295000D02*
X110286256Y-107795000D01*
X110786256Y-106295000D01*
X111286256Y-107223571D02*
X112429113Y-107223571D01*
X111857684Y-107795000D02*
X111857684Y-106652143D01*
X108587684Y-103755000D02*
X109516256Y-103755000D01*
X109016256Y-104326429D01*
X109230541Y-104326429D01*
X109373399Y-104397857D01*
X109444827Y-104469286D01*
X109516256Y-104612143D01*
X109516256Y-104969286D01*
X109444827Y-105112143D01*
X109373399Y-105183571D01*
X109230541Y-105255000D01*
X108801970Y-105255000D01*
X108659113Y-105183571D01*
X108587684Y-105112143D01*
X109944827Y-103755000D02*
X110444827Y-105255000D01*
X110944827Y-103755000D01*
X111301970Y-103755000D02*
X112230541Y-103755000D01*
X111730541Y-104326429D01*
X111944827Y-104326429D01*
X112087684Y-104397857D01*
X112159113Y-104469286D01*
X112230541Y-104612143D01*
X112230541Y-104969286D01*
X112159113Y-105112143D01*
X112087684Y-105183571D01*
X111944827Y-105255000D01*
X111516256Y-105255000D01*
X111373399Y-105183571D01*
X111301970Y-105112143D01*
X118755541Y-89229286D02*
X118969827Y-89300714D01*
X119041256Y-89372143D01*
X119112684Y-89515000D01*
X119112684Y-89729286D01*
X119041256Y-89872143D01*
X118969827Y-89943571D01*
X118826970Y-90015000D01*
X118255541Y-90015000D01*
X118255541Y-88515000D01*
X118755541Y-88515000D01*
X118898399Y-88586429D01*
X118969827Y-88657857D01*
X119041256Y-88800714D01*
X119041256Y-88943571D01*
X118969827Y-89086429D01*
X118898399Y-89157857D01*
X118755541Y-89229286D01*
X118255541Y-89229286D01*
X118255541Y-92555000D02*
X118255541Y-91055000D01*
X118612684Y-91055000D01*
X118826970Y-91126429D01*
X118969827Y-91269286D01*
X119041256Y-91412143D01*
X119112684Y-91697857D01*
X119112684Y-91912143D01*
X119041256Y-92197857D01*
X118969827Y-92340714D01*
X118826970Y-92483571D01*
X118612684Y-92555000D01*
X118255541Y-92555000D01*
X118755541Y-94309286D02*
X118255541Y-94309286D01*
X118255541Y-95095000D02*
X118255541Y-93595000D01*
X118969827Y-93595000D01*
X118255541Y-97635000D02*
X118255541Y-96135000D01*
X118255541Y-96849286D02*
X119112684Y-96849286D01*
X119112684Y-97635000D02*
X119112684Y-96135000D01*
X108095541Y-87475000D02*
X108095541Y-85975000D01*
X108666970Y-85975000D02*
X109595541Y-85975000D01*
X109095541Y-86546429D01*
X109309827Y-86546429D01*
X109452684Y-86617857D01*
X109524113Y-86689286D01*
X109595541Y-86832143D01*
X109595541Y-87189286D01*
X109524113Y-87332143D01*
X109452684Y-87403571D01*
X109309827Y-87475000D01*
X108881256Y-87475000D01*
X108738399Y-87403571D01*
X108666970Y-87332143D01*
X110309827Y-87475000D02*
X110595541Y-87475000D01*
X110738399Y-87403571D01*
X110809827Y-87332143D01*
X110952684Y-87117857D01*
X111024113Y-86832143D01*
X111024113Y-86260714D01*
X110952684Y-86117857D01*
X110881256Y-86046429D01*
X110738399Y-85975000D01*
X110452684Y-85975000D01*
X110309827Y-86046429D01*
X110238399Y-86117857D01*
X110166970Y-86260714D01*
X110166970Y-86617857D01*
X110238399Y-86760714D01*
X110309827Y-86832143D01*
X110452684Y-86903571D01*
X110738399Y-86903571D01*
X110881256Y-86832143D01*
X110952684Y-86760714D01*
X111024113Y-86617857D01*
X108095541Y-84935000D02*
X108095541Y-83435000D01*
X109095541Y-83435000D02*
X109381256Y-83435000D01*
X109524113Y-83506429D01*
X109666970Y-83649286D01*
X109738399Y-83935000D01*
X109738399Y-84435000D01*
X109666970Y-84720714D01*
X109524113Y-84863571D01*
X109381256Y-84935000D01*
X109095541Y-84935000D01*
X108952684Y-84863571D01*
X108809827Y-84720714D01*
X108738399Y-84435000D01*
X108738399Y-83935000D01*
X108809827Y-83649286D01*
X108952684Y-83506429D01*
X109095541Y-83435000D01*
X110309827Y-83577857D02*
X110381256Y-83506429D01*
X110524113Y-83435000D01*
X110881256Y-83435000D01*
X111024113Y-83506429D01*
X111095541Y-83577857D01*
X111166970Y-83720714D01*
X111166970Y-83863571D01*
X111095541Y-84077857D01*
X110238399Y-84935000D01*
X111166970Y-84935000D01*
X112452684Y-83435000D02*
X112166970Y-83435000D01*
X112024113Y-83506429D01*
X111952684Y-83577857D01*
X111809827Y-83792143D01*
X111738399Y-84077857D01*
X111738399Y-84649286D01*
X111809827Y-84792143D01*
X111881256Y-84863571D01*
X112024113Y-84935000D01*
X112309827Y-84935000D01*
X112452684Y-84863571D01*
X112524113Y-84792143D01*
X112595541Y-84649286D01*
X112595541Y-84292143D01*
X112524113Y-84149286D01*
X112452684Y-84077857D01*
X112309827Y-84006429D01*
X112024113Y-84006429D01*
X111881256Y-84077857D01*
X111809827Y-84149286D01*
X111738399Y-84292143D01*
X108095541Y-82395000D02*
X108095541Y-80895000D01*
X109095541Y-80895000D02*
X109381256Y-80895000D01*
X109524113Y-80966429D01*
X109666970Y-81109286D01*
X109738399Y-81395000D01*
X109738399Y-81895000D01*
X109666970Y-82180714D01*
X109524113Y-82323571D01*
X109381256Y-82395000D01*
X109095541Y-82395000D01*
X108952684Y-82323571D01*
X108809827Y-82180714D01*
X108738399Y-81895000D01*
X108738399Y-81395000D01*
X108809827Y-81109286D01*
X108952684Y-80966429D01*
X109095541Y-80895000D01*
X110309827Y-81037857D02*
X110381256Y-80966429D01*
X110524113Y-80895000D01*
X110881256Y-80895000D01*
X111024113Y-80966429D01*
X111095541Y-81037857D01*
X111166970Y-81180714D01*
X111166970Y-81323571D01*
X111095541Y-81537857D01*
X110238399Y-82395000D01*
X111166970Y-82395000D01*
X111738399Y-81037857D02*
X111809827Y-80966429D01*
X111952684Y-80895000D01*
X112309827Y-80895000D01*
X112452684Y-80966429D01*
X112524113Y-81037857D01*
X112595541Y-81180714D01*
X112595541Y-81323571D01*
X112524113Y-81537857D01*
X111666970Y-82395000D01*
X112595541Y-82395000D01*
X108095541Y-79855000D02*
X108095541Y-78355000D01*
X109095541Y-78355000D02*
X109381256Y-78355000D01*
X109524113Y-78426429D01*
X109666970Y-78569286D01*
X109738399Y-78855000D01*
X109738399Y-79355000D01*
X109666970Y-79640714D01*
X109524113Y-79783571D01*
X109381256Y-79855000D01*
X109095541Y-79855000D01*
X108952684Y-79783571D01*
X108809827Y-79640714D01*
X108738399Y-79355000D01*
X108738399Y-78855000D01*
X108809827Y-78569286D01*
X108952684Y-78426429D01*
X109095541Y-78355000D01*
X111095541Y-78355000D02*
X110381256Y-78355000D01*
X110309827Y-79069286D01*
X110381256Y-78997857D01*
X110524113Y-78926429D01*
X110881256Y-78926429D01*
X111024113Y-78997857D01*
X111095541Y-79069286D01*
X111166970Y-79212143D01*
X111166970Y-79569286D01*
X111095541Y-79712143D01*
X111024113Y-79783571D01*
X110881256Y-79855000D01*
X110524113Y-79855000D01*
X110381256Y-79783571D01*
X110309827Y-79712143D01*
X108095541Y-77315000D02*
X108095541Y-75815000D01*
X109095541Y-75815000D02*
X109381256Y-75815000D01*
X109524113Y-75886429D01*
X109666970Y-76029286D01*
X109738399Y-76315000D01*
X109738399Y-76815000D01*
X109666970Y-77100714D01*
X109524113Y-77243571D01*
X109381256Y-77315000D01*
X109095541Y-77315000D01*
X108952684Y-77243571D01*
X108809827Y-77100714D01*
X108738399Y-76815000D01*
X108738399Y-76315000D01*
X108809827Y-76029286D01*
X108952684Y-75886429D01*
X109095541Y-75815000D01*
X111166970Y-77315000D02*
X110309827Y-77315000D01*
X110738399Y-77315000D02*
X110738399Y-75815000D01*
X110595541Y-76029286D01*
X110452684Y-76172143D01*
X110309827Y-76243571D01*
X111881256Y-77315000D02*
X112166970Y-77315000D01*
X112309827Y-77243571D01*
X112381256Y-77172143D01*
X112524113Y-76957857D01*
X112595541Y-76672143D01*
X112595541Y-76100714D01*
X112524113Y-75957857D01*
X112452684Y-75886429D01*
X112309827Y-75815000D01*
X112024113Y-75815000D01*
X111881256Y-75886429D01*
X111809827Y-75957857D01*
X111738399Y-76100714D01*
X111738399Y-76457857D01*
X111809827Y-76600714D01*
X111881256Y-76672143D01*
X112024113Y-76743571D01*
X112309827Y-76743571D01*
X112452684Y-76672143D01*
X112524113Y-76600714D01*
X112595541Y-76457857D01*
X149673399Y-110105000D02*
X149959113Y-110105000D01*
X150101970Y-110176429D01*
X150244827Y-110319286D01*
X150316256Y-110605000D01*
X150316256Y-111105000D01*
X150244827Y-111390714D01*
X150101970Y-111533571D01*
X149959113Y-111605000D01*
X149673399Y-111605000D01*
X149530541Y-111533571D01*
X149387684Y-111390714D01*
X149316256Y-111105000D01*
X149316256Y-110605000D01*
X149387684Y-110319286D01*
X149530541Y-110176429D01*
X149673399Y-110105000D01*
X150816256Y-110105000D02*
X151173399Y-111605000D01*
X151459113Y-110533571D01*
X151744827Y-111605000D01*
X152101970Y-110105000D01*
X153173399Y-110819286D02*
X153387684Y-110890714D01*
X153459113Y-110962143D01*
X153530541Y-111105000D01*
X153530541Y-111319286D01*
X153459113Y-111462143D01*
X153387684Y-111533571D01*
X153244827Y-111605000D01*
X152673399Y-111605000D01*
X152673399Y-110105000D01*
X153173399Y-110105000D01*
X153316256Y-110176429D01*
X153387684Y-110247857D01*
X153459113Y-110390714D01*
X153459113Y-110533571D01*
X153387684Y-110676429D01*
X153316256Y-110747857D01*
X153173399Y-110819286D01*
X152673399Y-110819286D01*
D10*
X141263399Y-91876429D02*
X154598399Y-91876429D01*
X141263399Y-89336429D02*
X154598399Y-89336429D01*
X141203399Y-86736429D02*
X154598399Y-86796429D01*
X154598399Y-84256429D02*
X138723399Y-84256429D01*
X141263399Y-94416429D02*
X141263399Y-79176429D01*
X154598399Y-94416429D02*
X138723399Y-94416429D01*
X146343399Y-79176429D02*
X146343399Y-94416429D01*
X143803399Y-94416429D02*
X143743399Y-84196429D01*
D11*
X59404113Y-126210000D02*
X59404113Y-124710000D01*
X59904113Y-125781429D01*
X60404113Y-124710000D01*
X60404113Y-126210000D01*
X61761256Y-125210000D02*
X61761256Y-126210000D01*
X61404113Y-124638571D02*
X61046970Y-125710000D01*
X61975541Y-125710000D01*
X117824113Y-111605000D02*
X117824113Y-110105000D01*
X118324113Y-111176429D01*
X118824113Y-110105000D01*
X118824113Y-111605000D01*
X119395541Y-110105000D02*
X120324113Y-110105000D01*
X119824113Y-110676429D01*
X120038399Y-110676429D01*
X120181256Y-110747857D01*
X120252684Y-110819286D01*
X120324113Y-110962143D01*
X120324113Y-111319286D01*
X120252684Y-111462143D01*
X120181256Y-111533571D01*
X120038399Y-111605000D01*
X119609827Y-111605000D01*
X119466970Y-111533571D01*
X119395541Y-111462143D01*
X116554113Y-69060000D02*
X116554113Y-67560000D01*
X117054113Y-68631429D01*
X117554113Y-67560000D01*
X117554113Y-69060000D01*
X118125541Y-67560000D02*
X119054113Y-67560000D01*
X118554113Y-68131429D01*
X118768399Y-68131429D01*
X118911256Y-68202857D01*
X118982684Y-68274286D01*
X119054113Y-68417143D01*
X119054113Y-68774286D01*
X118982684Y-68917143D01*
X118911256Y-68988571D01*
X118768399Y-69060000D01*
X118339827Y-69060000D01*
X118196970Y-68988571D01*
X118125541Y-68917143D01*
X154654113Y-54455000D02*
X154654113Y-52955000D01*
X155154113Y-54026429D01*
X155654113Y-52955000D01*
X155654113Y-54455000D01*
X156225541Y-52955000D02*
X157154113Y-52955000D01*
X156654113Y-53526429D01*
X156868399Y-53526429D01*
X157011256Y-53597857D01*
X157082684Y-53669286D01*
X157154113Y-53812143D01*
X157154113Y-54169286D01*
X157082684Y-54312143D01*
X157011256Y-54383571D01*
X156868399Y-54455000D01*
X156439827Y-54455000D01*
X156296970Y-54383571D01*
X156225541Y-54312143D01*
X65754113Y-48105000D02*
X65754113Y-46605000D01*
X66254113Y-47676429D01*
X66754113Y-46605000D01*
X66754113Y-48105000D01*
X67325541Y-46605000D02*
X68254113Y-46605000D01*
X67754113Y-47176429D01*
X67968399Y-47176429D01*
X68111256Y-47247857D01*
X68182684Y-47319286D01*
X68254113Y-47462143D01*
X68254113Y-47819286D01*
X68182684Y-47962143D01*
X68111256Y-48033571D01*
X67968399Y-48105000D01*
X67539827Y-48105000D01*
X67396970Y-48033571D01*
X67325541Y-47962143D01*
X65754113Y-143990000D02*
X65754113Y-142490000D01*
X66254113Y-143561429D01*
X66754113Y-142490000D01*
X66754113Y-143990000D01*
X67325541Y-142490000D02*
X68254113Y-142490000D01*
X67754113Y-143061429D01*
X67968399Y-143061429D01*
X68111256Y-143132857D01*
X68182684Y-143204286D01*
X68254113Y-143347143D01*
X68254113Y-143704286D01*
X68182684Y-143847143D01*
X68111256Y-143918571D01*
X67968399Y-143990000D01*
X67539827Y-143990000D01*
X67396970Y-143918571D01*
X67325541Y-143847143D01*
X148304113Y-143990000D02*
X148304113Y-142490000D01*
X148804113Y-143561429D01*
X149304113Y-142490000D01*
X149304113Y-143990000D01*
X149875541Y-142490000D02*
X150804113Y-142490000D01*
X150304113Y-143061429D01*
X150518399Y-143061429D01*
X150661256Y-143132857D01*
X150732684Y-143204286D01*
X150804113Y-143347143D01*
X150804113Y-143704286D01*
X150732684Y-143847143D01*
X150661256Y-143918571D01*
X150518399Y-143990000D01*
X150089827Y-143990000D01*
X149946970Y-143918571D01*
X149875541Y-143847143D01*
X65754113Y-64615000D02*
X65754113Y-63115000D01*
X66254113Y-64186429D01*
X66754113Y-63115000D01*
X66754113Y-64615000D01*
X68111256Y-63615000D02*
X68111256Y-64615000D01*
X67754113Y-63043571D02*
X67396970Y-64115000D01*
X68325541Y-64115000D01*
X150764827Y-106295000D02*
X151693399Y-106295000D01*
X151193399Y-106866429D01*
X151407684Y-106866429D01*
X151550541Y-106937857D01*
X151621970Y-107009286D01*
X151693399Y-107152143D01*
X151693399Y-107509286D01*
X151621970Y-107652143D01*
X151550541Y-107723571D01*
X151407684Y-107795000D01*
X150979113Y-107795000D01*
X150836256Y-107723571D01*
X150764827Y-107652143D01*
X153050541Y-106295000D02*
X152336256Y-106295000D01*
X152264827Y-107009286D01*
X152336256Y-106937857D01*
X152479113Y-106866429D01*
X152836256Y-106866429D01*
X152979113Y-106937857D01*
X153050541Y-107009286D01*
X153121970Y-107152143D01*
X153121970Y-107509286D01*
X153050541Y-107652143D01*
X152979113Y-107723571D01*
X152836256Y-107795000D01*
X152479113Y-107795000D01*
X152336256Y-107723571D01*
X152264827Y-107652143D01*
X154050541Y-106295000D02*
X154193399Y-106295000D01*
X154336256Y-106366429D01*
X154407684Y-106437857D01*
X154479113Y-106580714D01*
X154550541Y-106866429D01*
X154550541Y-107223571D01*
X154479113Y-107509286D01*
X154407684Y-107652143D01*
X154336256Y-107723571D01*
X154193399Y-107795000D01*
X154050541Y-107795000D01*
X153907684Y-107723571D01*
X153836256Y-107652143D01*
X153764827Y-107509286D01*
X153693399Y-107223571D01*
X153693399Y-106866429D01*
X153764827Y-106580714D01*
X153836256Y-106437857D01*
X153907684Y-106366429D01*
X154050541Y-106295000D01*
X151736970Y-72235000D02*
X150879827Y-72235000D01*
X151308399Y-72235000D02*
X151308399Y-70735000D01*
X151165541Y-70949286D01*
X151022684Y-71092143D01*
X150879827Y-71163571D01*
X152379827Y-72235000D02*
X152379827Y-70735000D01*
X153236970Y-72235000D02*
X152594113Y-71377857D01*
X153236970Y-70735000D02*
X152379827Y-71592143D01*
X132226970Y-111375000D02*
X133084113Y-111375000D01*
X132655541Y-112875000D02*
X132655541Y-111375000D01*
X133584113Y-112303571D02*
X134726970Y-112303571D01*
X135441256Y-112089286D02*
X135941256Y-112089286D01*
X136155541Y-112875000D02*
X135441256Y-112875000D01*
X135441256Y-111375000D01*
X136155541Y-111375000D01*
X136655541Y-111375000D02*
X137655541Y-112875000D01*
X137655541Y-111375000D02*
X136655541Y-112875000D01*
X138012684Y-111375000D02*
X138869827Y-111375000D01*
X138441256Y-112875000D02*
X138441256Y-111375000D01*
X117689256Y-125345000D02*
X117689256Y-126559286D01*
X117760684Y-126702143D01*
X117832113Y-126773571D01*
X117974970Y-126845000D01*
X118260684Y-126845000D01*
X118403541Y-126773571D01*
X118474970Y-126702143D01*
X118546399Y-126559286D01*
X118546399Y-125345000D01*
X120046399Y-126845000D02*
X119189256Y-126845000D01*
X119617827Y-126845000D02*
X119617827Y-125345000D01*
X119474970Y-125559286D01*
X119332113Y-125702143D01*
X119189256Y-125773571D01*
X121474970Y-126845000D02*
X120617827Y-126845000D01*
X121046399Y-126845000D02*
X121046399Y-125345000D01*
X120903541Y-125559286D01*
X120760684Y-125702143D01*
X120617827Y-125773571D01*
X117939256Y-123265286D02*
X118439256Y-123265286D01*
X118653541Y-124051000D02*
X117939256Y-124051000D01*
X117939256Y-122551000D01*
X118653541Y-122551000D01*
X119153541Y-122551000D02*
X120153541Y-124051000D01*
X120153541Y-122551000D02*
X119153541Y-124051000D01*
X120510684Y-122551000D02*
X121367827Y-122551000D01*
X120939256Y-124051000D02*
X120939256Y-122551000D01*
D10*
X113323399Y-135056429D02*
X113323399Y-138866429D01*
X105703399Y-60126429D02*
X107608399Y-60126429D01*
X61253399Y-98861429D02*
X61253399Y-104576429D01*
D11*
X130996256Y-71623857D02*
X130996256Y-71123857D01*
X131781970Y-70909571D02*
X131781970Y-71623857D01*
X130281970Y-71623857D01*
X130281970Y-70909571D01*
X128606970Y-71695286D02*
X127106970Y-71695286D01*
X127106970Y-71338143D01*
X127178399Y-71123857D01*
X127321256Y-70981000D01*
X127464113Y-70909571D01*
X127749827Y-70838143D01*
X127964113Y-70838143D01*
X128249827Y-70909571D01*
X128392684Y-70981000D01*
X128535541Y-71123857D01*
X128606970Y-71338143D01*
X128606970Y-71695286D01*
D10*
X129833399Y-74731429D02*
X129833399Y-72191429D01*
D12*
G36*
X132373399Y-79811429D02*
G01*
X129833399Y-79811429D01*
X129833399Y-74731429D01*
X132373399Y-74731429D01*
X132373399Y-79811429D01*
G37*
X132373399Y-79811429D02*
X129833399Y-79811429D01*
X129833399Y-74731429D01*
X132373399Y-74731429D01*
X132373399Y-79811429D01*
D10*
X126023399Y-72191429D02*
X136183399Y-72191429D01*
X132373399Y-72191429D02*
X132373399Y-74731429D01*
X126658399Y-79811429D02*
X126658399Y-77271429D01*
X129198399Y-79811429D02*
X129198399Y-77271429D01*
D12*
G36*
X129198399Y-77271429D02*
G01*
X126658399Y-77271429D01*
X126658399Y-72191429D01*
X129198399Y-72191429D01*
X129198399Y-77271429D01*
G37*
X129198399Y-77271429D02*
X126658399Y-77271429D01*
X126658399Y-72191429D01*
X129198399Y-72191429D01*
X129198399Y-77271429D01*
D10*
X126023399Y-79811429D02*
X136818399Y-79811429D01*
D11*
X68725541Y-79220000D02*
X68725541Y-77720000D01*
X69082684Y-77720000D01*
X69296970Y-77791429D01*
X69439827Y-77934286D01*
X69511256Y-78077143D01*
X69582684Y-78362857D01*
X69582684Y-78577143D01*
X69511256Y-78862857D01*
X69439827Y-79005714D01*
X69296970Y-79148571D01*
X69082684Y-79220000D01*
X68725541Y-79220000D01*
X70011256Y-77720000D02*
X70868399Y-77720000D01*
X70439827Y-79220000D02*
X70439827Y-77720000D01*
X72225541Y-79220000D02*
X71725541Y-78505714D01*
X71368399Y-79220000D02*
X71368399Y-77720000D01*
X71939827Y-77720000D01*
X72082684Y-77791429D01*
X72154113Y-77862857D01*
X72225541Y-78005714D01*
X72225541Y-78220000D01*
X72154113Y-78362857D01*
X72082684Y-78434286D01*
X71939827Y-78505714D01*
X71368399Y-78505714D01*
X68654113Y-81966429D02*
X69368399Y-81966429D01*
X68511256Y-82395000D02*
X69011256Y-80895000D01*
X69511256Y-82395000D01*
X70011256Y-80895000D02*
X70011256Y-82109286D01*
X70082684Y-82252143D01*
X70154113Y-82323571D01*
X70296970Y-82395000D01*
X70582684Y-82395000D01*
X70725541Y-82323571D01*
X70796970Y-82252143D01*
X70868399Y-82109286D01*
X70868399Y-80895000D01*
X71368399Y-80895000D02*
X72225541Y-80895000D01*
X71796970Y-82395000D02*
X71796970Y-80895000D01*
X73011256Y-80895000D02*
X73296970Y-80895000D01*
X73439827Y-80966429D01*
X73582684Y-81109286D01*
X73654113Y-81395000D01*
X73654113Y-81895000D01*
X73582684Y-82180714D01*
X73439827Y-82323571D01*
X73296970Y-82395000D01*
X73011256Y-82395000D01*
X72868399Y-82323571D01*
X72725541Y-82180714D01*
X72654113Y-81895000D01*
X72654113Y-81395000D01*
X72725541Y-81109286D01*
X72868399Y-80966429D01*
X73011256Y-80895000D01*
D10*
X60558399Y-82986429D02*
X60558399Y-77331429D01*
X63158399Y-79811429D02*
X60618399Y-79811429D01*
D12*
G36*
X68238399Y-79871429D02*
G01*
X63158399Y-79871429D01*
X63158399Y-77331429D01*
X68238399Y-77331429D01*
X68238399Y-79871429D01*
G37*
X68238399Y-79871429D02*
X63158399Y-79871429D01*
X63158399Y-77331429D01*
X68238399Y-77331429D01*
X68238399Y-79871429D01*
D10*
X68298399Y-74671429D02*
X68298399Y-72826429D01*
X63098399Y-82986429D02*
X60558399Y-82986429D01*
D12*
G36*
X65698399Y-82986429D02*
G01*
X60618399Y-82986429D01*
X60618399Y-80446429D01*
X65698399Y-80446429D01*
X65698399Y-82986429D01*
G37*
X65698399Y-82986429D02*
X60618399Y-82986429D01*
X60618399Y-80446429D01*
X65698399Y-80446429D01*
X65698399Y-82986429D01*
D10*
X73318399Y-82986429D02*
X60558399Y-82986429D01*
X68238399Y-79871429D02*
X68238399Y-82986429D01*
D11*
X87561256Y-77720000D02*
X88061256Y-79220000D01*
X88561256Y-77720000D01*
X88989827Y-79148571D02*
X89132684Y-79220000D01*
X89418399Y-79220000D01*
X89561256Y-79148571D01*
X89632684Y-79005714D01*
X89632684Y-78934286D01*
X89561256Y-78791429D01*
X89418399Y-78720000D01*
X89204113Y-78720000D01*
X89061256Y-78648571D01*
X88989827Y-78505714D01*
X88989827Y-78434286D01*
X89061256Y-78291429D01*
X89204113Y-78220000D01*
X89418399Y-78220000D01*
X89561256Y-78291429D01*
X90275541Y-79220000D02*
X90275541Y-78220000D01*
X90275541Y-77720000D02*
X90204113Y-77791429D01*
X90275541Y-77862857D01*
X90346970Y-77791429D01*
X90275541Y-77720000D01*
X90275541Y-77862857D01*
X90989827Y-79220000D02*
X90989827Y-78220000D01*
X90989827Y-78362857D02*
X91061256Y-78291429D01*
X91204113Y-78220000D01*
X91418399Y-78220000D01*
X91561256Y-78291429D01*
X91632684Y-78434286D01*
X91632684Y-79220000D01*
X91632684Y-78434286D02*
X91704113Y-78291429D01*
X91846970Y-78220000D01*
X92061256Y-78220000D01*
X92204113Y-78291429D01*
X92275541Y-78434286D01*
X92275541Y-79220000D01*
X87561256Y-80895000D02*
X88061256Y-82395000D01*
X88561256Y-80895000D01*
X89061256Y-81823571D02*
X90204113Y-81823571D01*
X89632684Y-82395000D02*
X89632684Y-81252143D01*
D12*
G36*
X106973399Y-71556429D02*
G01*
X101893399Y-71556429D01*
X101893399Y-69016429D01*
X106973399Y-69016429D01*
X106973399Y-71556429D01*
G37*
X106973399Y-71556429D02*
X101893399Y-71556429D01*
X101893399Y-69016429D01*
X106973399Y-69016429D01*
X106973399Y-71556429D01*
G36*
X84748399Y-79811429D02*
G01*
X79668399Y-79811429D01*
X79668399Y-77271429D01*
X84748399Y-77271429D01*
X84748399Y-79811429D01*
G37*
X84748399Y-79811429D02*
X79668399Y-79811429D01*
X79668399Y-77271429D01*
X84748399Y-77271429D01*
X84748399Y-79811429D01*
G36*
X149518399Y-133151429D02*
G01*
X144438399Y-133151429D01*
X144438399Y-130611429D01*
X149518399Y-130611429D01*
X149518399Y-133151429D01*
G37*
X149518399Y-133151429D02*
X144438399Y-133151429D01*
X144438399Y-130611429D01*
X149518399Y-130611429D01*
X149518399Y-133151429D01*
D11*
X149958970Y-131774286D02*
X150458970Y-131774286D01*
X150673256Y-132560000D02*
X149958970Y-132560000D01*
X149958970Y-131060000D01*
X150673256Y-131060000D01*
X132936970Y-108200000D02*
X133079827Y-108200000D01*
X133222684Y-108271429D01*
X133294113Y-108342857D01*
X133365541Y-108485714D01*
X133436970Y-108771429D01*
X133436970Y-109128571D01*
X133365541Y-109414286D01*
X133294113Y-109557143D01*
X133222684Y-109628571D01*
X133079827Y-109700000D01*
X132936970Y-109700000D01*
X132794113Y-109628571D01*
X132722684Y-109557143D01*
X132651256Y-109414286D01*
X132579827Y-109128571D01*
X132579827Y-108771429D01*
X132651256Y-108485714D01*
X132722684Y-108342857D01*
X132794113Y-108271429D01*
X132936970Y-108200000D01*
X133436970Y-106525000D02*
X132579827Y-106525000D01*
X133008399Y-106525000D02*
X133008399Y-105025000D01*
X132865541Y-105239286D01*
X132722684Y-105382143D01*
X132579827Y-105453571D01*
X132686970Y-102564286D02*
X133186970Y-102564286D01*
X133401256Y-103350000D02*
X132686970Y-103350000D01*
X132686970Y-101850000D01*
X133401256Y-101850000D01*
X116601970Y-63253286D02*
X115101970Y-63253286D01*
X115101970Y-62896143D01*
X115173399Y-62681857D01*
X115316256Y-62539000D01*
X115459113Y-62467571D01*
X115744827Y-62396143D01*
X115959113Y-62396143D01*
X116244827Y-62467571D01*
X116387684Y-62539000D01*
X116530541Y-62681857D01*
X116601970Y-62896143D01*
X116601970Y-63253286D01*
D12*
G36*
X117193399Y-61971429D02*
G01*
X114653399Y-61971429D01*
X114653399Y-56891429D01*
X117193399Y-56891429D01*
X117193399Y-61971429D01*
G37*
X117193399Y-61971429D02*
X114653399Y-61971429D01*
X114653399Y-56891429D01*
X117193399Y-56891429D01*
X117193399Y-61971429D01*
D11*
X100306256Y-62710000D02*
X100306256Y-61210000D01*
X100663399Y-61210000D01*
X100877684Y-61281429D01*
X101020541Y-61424286D01*
X101091970Y-61567143D01*
X101163399Y-61852857D01*
X101163399Y-62067143D01*
X101091970Y-62352857D01*
X101020541Y-62495714D01*
X100877684Y-62638571D01*
X100663399Y-62710000D01*
X100306256Y-62710000D01*
X102663399Y-62567143D02*
X102591970Y-62638571D01*
X102377684Y-62710000D01*
X102234827Y-62710000D01*
X102020541Y-62638571D01*
X101877684Y-62495714D01*
X101806256Y-62352857D01*
X101734827Y-62067143D01*
X101734827Y-61852857D01*
X101806256Y-61567143D01*
X101877684Y-61424286D01*
X102020541Y-61281429D01*
X102234827Y-61210000D01*
X102377684Y-61210000D01*
X102591970Y-61281429D01*
X102663399Y-61352857D01*
X104449113Y-62710000D02*
X104449113Y-61210000D01*
X105163399Y-62710000D02*
X105163399Y-61210000D01*
X106020541Y-62710000D01*
X106020541Y-61210000D01*
X96305541Y-70965000D02*
X96305541Y-69465000D01*
X96662684Y-69465000D01*
X96876970Y-69536429D01*
X97019827Y-69679286D01*
X97091256Y-69822143D01*
X97162684Y-70107857D01*
X97162684Y-70322143D01*
X97091256Y-70607857D01*
X97019827Y-70750714D01*
X96876970Y-70893571D01*
X96662684Y-70965000D01*
X96305541Y-70965000D01*
X98662684Y-70822143D02*
X98591256Y-70893571D01*
X98376970Y-70965000D01*
X98234113Y-70965000D01*
X98019827Y-70893571D01*
X97876970Y-70750714D01*
X97805541Y-70607857D01*
X97734113Y-70322143D01*
X97734113Y-70107857D01*
X97805541Y-69822143D01*
X97876970Y-69679286D01*
X98019827Y-69536429D01*
X98234113Y-69465000D01*
X98376970Y-69465000D01*
X98591256Y-69536429D01*
X98662684Y-69607857D01*
X94920541Y-66290000D02*
X94920541Y-67504286D01*
X94991970Y-67647143D01*
X95063399Y-67718571D01*
X95206256Y-67790000D01*
X95491970Y-67790000D01*
X95634827Y-67718571D01*
X95706256Y-67647143D01*
X95777684Y-67504286D01*
X95777684Y-66290000D01*
X96420541Y-67718571D02*
X96634827Y-67790000D01*
X96991970Y-67790000D01*
X97134827Y-67718571D01*
X97206256Y-67647143D01*
X97277684Y-67504286D01*
X97277684Y-67361429D01*
X97206256Y-67218571D01*
X97134827Y-67147143D01*
X96991970Y-67075714D01*
X96706256Y-67004286D01*
X96563399Y-66932857D01*
X96491970Y-66861429D01*
X96420541Y-66718571D01*
X96420541Y-66575714D01*
X96491970Y-66432857D01*
X96563399Y-66361429D01*
X96706256Y-66290000D01*
X97063399Y-66290000D01*
X97277684Y-66361429D01*
X98420541Y-67004286D02*
X98634827Y-67075714D01*
X98706256Y-67147143D01*
X98777684Y-67290000D01*
X98777684Y-67504286D01*
X98706256Y-67647143D01*
X98634827Y-67718571D01*
X98491970Y-67790000D01*
X97920541Y-67790000D01*
X97920541Y-66290000D01*
X98420541Y-66290000D01*
X98563399Y-66361429D01*
X98634827Y-66432857D01*
X98706256Y-66575714D01*
X98706256Y-66718571D01*
X98634827Y-66861429D01*
X98563399Y-66932857D01*
X98420541Y-67004286D01*
X97920541Y-67004286D01*
D10*
X101893399Y-71556429D02*
X99353399Y-71556429D01*
X99353399Y-71556429D02*
X99353399Y-64571429D01*
X99353399Y-69016429D02*
X101893399Y-69016429D01*
X106973399Y-64571429D02*
X106973399Y-69016429D01*
X104433399Y-65841429D02*
X106973399Y-65841429D01*
X106973399Y-68381429D02*
X104433399Y-68381429D01*
D12*
G36*
X104433399Y-68381429D02*
G01*
X99353399Y-68381429D01*
X99353399Y-65841429D01*
X104433399Y-65841429D01*
X104433399Y-68381429D01*
G37*
X104433399Y-68381429D02*
X99353399Y-68381429D01*
X99353399Y-65841429D01*
X104433399Y-65841429D01*
X104433399Y-68381429D01*
D10*
X124118399Y-104576429D02*
X126658399Y-104576429D01*
X124118399Y-107116429D02*
X126658399Y-107116429D01*
X124118399Y-101401429D02*
X124118399Y-107751429D01*
X129198399Y-110291429D02*
X129198399Y-107751429D01*
X131738399Y-110291429D02*
X131738399Y-107751429D01*
X131738399Y-107751429D02*
X126658399Y-107751429D01*
X131738399Y-110291429D02*
X126658399Y-110291429D01*
D12*
G36*
X126658399Y-110291429D02*
G01*
X121578399Y-110291429D01*
X121578399Y-107751429D01*
X126658399Y-107751429D01*
X126658399Y-110291429D01*
G37*
X126658399Y-110291429D02*
X121578399Y-110291429D01*
X121578399Y-107751429D01*
X126658399Y-107751429D01*
X126658399Y-110291429D01*
G36*
X131738399Y-107116429D02*
G01*
X126658399Y-107116429D01*
X126658399Y-104576429D01*
X131738399Y-104576429D01*
X131738399Y-107116429D01*
G37*
X131738399Y-107116429D02*
X126658399Y-107116429D01*
X126658399Y-104576429D01*
X131738399Y-104576429D01*
X131738399Y-107116429D01*
D10*
X131738399Y-101401429D02*
X131738399Y-107751429D01*
X131738399Y-103941429D02*
X129198399Y-103941429D01*
X129198399Y-101401429D02*
X131738399Y-101401429D01*
D12*
G36*
X129198399Y-103941429D02*
G01*
X124118399Y-103941429D01*
X124118399Y-101401429D01*
X129198399Y-101401429D01*
X129198399Y-103941429D01*
G37*
X129198399Y-103941429D02*
X124118399Y-103941429D01*
X124118399Y-101401429D01*
X129198399Y-101401429D01*
X129198399Y-103941429D01*
D11*
X147760541Y-126694286D02*
X147974827Y-126765714D01*
X148046256Y-126837143D01*
X148117684Y-126980000D01*
X148117684Y-127194286D01*
X148046256Y-127337143D01*
X147974827Y-127408571D01*
X147831970Y-127480000D01*
X147260541Y-127480000D01*
X147260541Y-125980000D01*
X147760541Y-125980000D01*
X147903399Y-126051429D01*
X147974827Y-126122857D01*
X148046256Y-126265714D01*
X148046256Y-126408571D01*
X147974827Y-126551429D01*
X147903399Y-126622857D01*
X147760541Y-126694286D01*
X147260541Y-126694286D01*
X149474827Y-127480000D02*
X148760541Y-127480000D01*
X148760541Y-125980000D01*
X149974827Y-127480000D02*
X149974827Y-125980000D01*
X150689113Y-127480000D02*
X150689113Y-125980000D01*
X151546256Y-127480000D01*
X151546256Y-125980000D01*
X152260541Y-127480000D02*
X152260541Y-125980000D01*
X153117684Y-127480000D02*
X152474827Y-126622857D01*
X153117684Y-125980000D02*
X152260541Y-126837143D01*
X103417684Y-133600000D02*
X104274827Y-133600000D01*
X103846256Y-135100000D02*
X103846256Y-133600000D01*
X105631970Y-135100000D02*
X105131970Y-134385714D01*
X104774827Y-135100000D02*
X104774827Y-133600000D01*
X105346256Y-133600000D01*
X105489113Y-133671429D01*
X105560541Y-133742857D01*
X105631970Y-133885714D01*
X105631970Y-134100000D01*
X105560541Y-134242857D01*
X105489113Y-134314286D01*
X105346256Y-134385714D01*
X104774827Y-134385714D01*
X106274827Y-135100000D02*
X106274827Y-133600000D01*
X107774827Y-133671429D02*
X107631970Y-133600000D01*
X107417684Y-133600000D01*
X107203399Y-133671429D01*
X107060541Y-133814286D01*
X106989113Y-133957143D01*
X106917684Y-134242857D01*
X106917684Y-134457143D01*
X106989113Y-134742857D01*
X107060541Y-134885714D01*
X107203399Y-135028571D01*
X107417684Y-135100000D01*
X107560541Y-135100000D01*
X107774827Y-135028571D01*
X107846256Y-134957143D01*
X107846256Y-134457143D01*
X107560541Y-134457143D01*
X112843399Y-53865000D02*
X112843399Y-52365000D01*
X113700541Y-53865000D01*
X113700541Y-52365000D01*
X114200541Y-52365000D02*
X115057684Y-52365000D01*
X114629113Y-53865000D02*
X114629113Y-52365000D01*
X116414827Y-53722143D02*
X116343399Y-53793571D01*
X116129113Y-53865000D01*
X115986256Y-53865000D01*
X115771970Y-53793571D01*
X115629113Y-53650714D01*
X115557684Y-53507857D01*
X115486256Y-53222143D01*
X115486256Y-53007857D01*
X115557684Y-52722143D01*
X115629113Y-52579286D01*
X115771970Y-52436429D01*
X115986256Y-52365000D01*
X116129113Y-52365000D01*
X116343399Y-52436429D01*
X116414827Y-52507857D01*
X113486256Y-55529286D02*
X113700541Y-55600714D01*
X113771970Y-55672143D01*
X113843399Y-55815000D01*
X113843399Y-56029286D01*
X113771970Y-56172143D01*
X113700541Y-56243571D01*
X113557684Y-56315000D01*
X112986256Y-56315000D01*
X112986256Y-54815000D01*
X113486256Y-54815000D01*
X113629113Y-54886429D01*
X113700541Y-54957857D01*
X113771970Y-55100714D01*
X113771970Y-55243571D01*
X113700541Y-55386429D01*
X113629113Y-55457857D01*
X113486256Y-55529286D01*
X112986256Y-55529286D01*
X114414827Y-55886429D02*
X115129113Y-55886429D01*
X114271970Y-56315000D02*
X114771970Y-54815000D01*
X115271970Y-56315000D01*
X115557684Y-54815000D02*
X116414827Y-54815000D01*
X115986256Y-56315000D02*
X115986256Y-54815000D01*
X93099113Y-135028571D02*
X93313399Y-135100000D01*
X93670541Y-135100000D01*
X93813399Y-135028571D01*
X93884827Y-134957143D01*
X93956256Y-134814286D01*
X93956256Y-134671429D01*
X93884827Y-134528571D01*
X93813399Y-134457143D01*
X93670541Y-134385714D01*
X93384827Y-134314286D01*
X93241970Y-134242857D01*
X93170541Y-134171429D01*
X93099113Y-134028571D01*
X93099113Y-133885714D01*
X93170541Y-133742857D01*
X93241970Y-133671429D01*
X93384827Y-133600000D01*
X93741970Y-133600000D01*
X93956256Y-133671429D01*
X94384827Y-133600000D02*
X95241970Y-133600000D01*
X94813399Y-135100000D02*
X94813399Y-133600000D01*
X95670541Y-134671429D02*
X96384827Y-134671429D01*
X95527684Y-135100000D02*
X96027684Y-133600000D01*
X96527684Y-135100000D01*
X96813399Y-133600000D02*
X97670541Y-133600000D01*
X97241970Y-135100000D02*
X97241970Y-133600000D01*
X98170541Y-133600000D02*
X98170541Y-134814286D01*
X98241970Y-134957143D01*
X98313399Y-135028571D01*
X98456256Y-135100000D01*
X98741970Y-135100000D01*
X98884827Y-135028571D01*
X98956256Y-134957143D01*
X99027684Y-134814286D01*
X99027684Y-133600000D01*
X99670541Y-135028571D02*
X99884827Y-135100000D01*
X100241970Y-135100000D01*
X100384827Y-135028571D01*
X100456256Y-134957143D01*
X100527684Y-134814286D01*
X100527684Y-134671429D01*
X100456256Y-134528571D01*
X100384827Y-134457143D01*
X100241970Y-134385714D01*
X99956256Y-134314286D01*
X99813399Y-134242857D01*
X99741970Y-134171429D01*
X99670541Y-134028571D01*
X99670541Y-133885714D01*
X99741970Y-133742857D01*
X99813399Y-133671429D01*
X99956256Y-133600000D01*
X100313399Y-133600000D01*
X100527684Y-133671429D01*
X142426256Y-133310000D02*
X142497684Y-133095714D01*
X142569113Y-133024286D01*
X142711970Y-132952857D01*
X142926256Y-132952857D01*
X143069113Y-133024286D01*
X143140541Y-133095714D01*
X143211970Y-133238571D01*
X143211970Y-133810000D01*
X141711970Y-133810000D01*
X141711970Y-133310000D01*
X141783399Y-133167143D01*
X141854827Y-133095714D01*
X141997684Y-133024286D01*
X142140541Y-133024286D01*
X142283399Y-133095714D01*
X142354827Y-133167143D01*
X142426256Y-133310000D01*
X142426256Y-133810000D01*
X143211970Y-131595714D02*
X143211970Y-132310000D01*
X141711970Y-132310000D01*
X142640541Y-131095714D02*
X142640541Y-129952857D01*
X143211970Y-130524286D02*
X142069113Y-130524286D01*
X137346256Y-133310000D02*
X137417684Y-133095714D01*
X137489113Y-133024286D01*
X137631970Y-132952857D01*
X137846256Y-132952857D01*
X137989113Y-133024286D01*
X138060541Y-133095714D01*
X138131970Y-133238571D01*
X138131970Y-133810000D01*
X136631970Y-133810000D01*
X136631970Y-133310000D01*
X136703399Y-133167143D01*
X136774827Y-133095714D01*
X136917684Y-133024286D01*
X137060541Y-133024286D01*
X137203399Y-133095714D01*
X137274827Y-133167143D01*
X137346256Y-133310000D01*
X137346256Y-133810000D01*
X138131970Y-131595714D02*
X138131970Y-132310000D01*
X136631970Y-132310000D01*
X137560541Y-131095714D02*
X137560541Y-129952857D01*
X131551970Y-133988571D02*
X131551970Y-133131429D01*
X133051970Y-133560000D02*
X131551970Y-133560000D01*
X133051970Y-131774286D02*
X132337684Y-132274286D01*
X133051970Y-132631429D02*
X131551970Y-132631429D01*
X131551970Y-132060000D01*
X131623399Y-131917143D01*
X131694827Y-131845714D01*
X131837684Y-131774286D01*
X132051970Y-131774286D01*
X132194827Y-131845714D01*
X132266256Y-131917143D01*
X132337684Y-132060000D01*
X132337684Y-132631429D01*
X132480541Y-131131429D02*
X132480541Y-129988571D01*
X133051970Y-130560000D02*
X131909113Y-130560000D01*
X127106970Y-133988571D02*
X127106970Y-133131429D01*
X128606970Y-133560000D02*
X127106970Y-133560000D01*
X128606970Y-131774286D02*
X127892684Y-132274286D01*
X128606970Y-132631429D02*
X127106970Y-132631429D01*
X127106970Y-132060000D01*
X127178399Y-131917143D01*
X127249827Y-131845714D01*
X127392684Y-131774286D01*
X127606970Y-131774286D01*
X127749827Y-131845714D01*
X127821256Y-131917143D01*
X127892684Y-132060000D01*
X127892684Y-132631429D01*
X128035541Y-131131429D02*
X128035541Y-129988571D01*
X122026970Y-133945000D02*
X123526970Y-133445000D01*
X122026970Y-132945000D01*
X122955541Y-132445000D02*
X122955541Y-131302143D01*
X123526970Y-131873571D02*
X122384113Y-131873571D01*
X117018399Y-133024286D02*
X116946970Y-133167143D01*
X116946970Y-133381429D01*
X117018399Y-133595714D01*
X117161256Y-133738571D01*
X117304113Y-133810000D01*
X117589827Y-133881429D01*
X117804113Y-133881429D01*
X118089827Y-133810000D01*
X118232684Y-133738571D01*
X118375541Y-133595714D01*
X118446970Y-133381429D01*
X118446970Y-133238571D01*
X118375541Y-133024286D01*
X118304113Y-132952857D01*
X117804113Y-132952857D01*
X117804113Y-133238571D01*
X118446970Y-132310000D02*
X116946970Y-132310000D01*
X118446970Y-131452857D01*
X116946970Y-131452857D01*
X118446970Y-130738571D02*
X116946970Y-130738571D01*
X116946970Y-130381429D01*
X117018399Y-130167143D01*
X117161256Y-130024286D01*
X117304113Y-129952857D01*
X117589827Y-129881429D01*
X117804113Y-129881429D01*
X118089827Y-129952857D01*
X118232684Y-130024286D01*
X118375541Y-130167143D01*
X118446970Y-130381429D01*
X118446970Y-130738571D01*
X129230541Y-65813571D02*
X129444827Y-65885000D01*
X129801970Y-65885000D01*
X129944827Y-65813571D01*
X130016256Y-65742143D01*
X130087684Y-65599286D01*
X130087684Y-65456429D01*
X130016256Y-65313571D01*
X129944827Y-65242143D01*
X129801970Y-65170714D01*
X129516256Y-65099286D01*
X129373399Y-65027857D01*
X129301970Y-64956429D01*
X129230541Y-64813571D01*
X129230541Y-64670714D01*
X129301970Y-64527857D01*
X129373399Y-64456429D01*
X129516256Y-64385000D01*
X129873399Y-64385000D01*
X130087684Y-64456429D01*
X130516256Y-64385000D02*
X131373399Y-64385000D01*
X130944827Y-65885000D02*
X130944827Y-64385000D01*
X131873399Y-65885000D02*
X131873399Y-64385000D01*
X132230541Y-64385000D01*
X132444827Y-64456429D01*
X132587684Y-64599286D01*
X132659113Y-64742143D01*
X132730541Y-65027857D01*
X132730541Y-65242143D01*
X132659113Y-65527857D01*
X132587684Y-65670714D01*
X132444827Y-65813571D01*
X132230541Y-65885000D01*
X131873399Y-65885000D01*
X133873399Y-65099286D02*
X134087684Y-65170714D01*
X134159113Y-65242143D01*
X134230541Y-65385000D01*
X134230541Y-65599286D01*
X134159113Y-65742143D01*
X134087684Y-65813571D01*
X133944827Y-65885000D01*
X133373399Y-65885000D01*
X133373399Y-64385000D01*
X133873399Y-64385000D01*
X134016256Y-64456429D01*
X134087684Y-64527857D01*
X134159113Y-64670714D01*
X134159113Y-64813571D01*
X134087684Y-64956429D01*
X134016256Y-65027857D01*
X133873399Y-65099286D01*
X133373399Y-65099286D01*
X135159113Y-65170714D02*
X135159113Y-65885000D01*
X134659113Y-64385000D02*
X135159113Y-65170714D01*
X135659113Y-64385000D01*
X122296970Y-65742143D02*
X122225541Y-65813571D01*
X122011256Y-65885000D01*
X121868399Y-65885000D01*
X121654113Y-65813571D01*
X121511256Y-65670714D01*
X121439827Y-65527857D01*
X121368399Y-65242143D01*
X121368399Y-65027857D01*
X121439827Y-64742143D01*
X121511256Y-64599286D01*
X121654113Y-64456429D01*
X121868399Y-64385000D01*
X122011256Y-64385000D01*
X122225541Y-64456429D01*
X122296970Y-64527857D01*
X122939827Y-65885000D02*
X122939827Y-64385000D01*
X122939827Y-65099286D02*
X123796970Y-65099286D01*
X123796970Y-65885000D02*
X123796970Y-64385000D01*
X125368399Y-65885000D02*
X124868399Y-65170714D01*
X124511256Y-65885000D02*
X124511256Y-64385000D01*
X125082684Y-64385000D01*
X125225541Y-64456429D01*
X125296970Y-64527857D01*
X125368399Y-64670714D01*
X125368399Y-64885000D01*
X125296970Y-65027857D01*
X125225541Y-65099286D01*
X125082684Y-65170714D01*
X124511256Y-65170714D01*
X126796970Y-64456429D02*
X126654113Y-64385000D01*
X126439827Y-64385000D01*
X126225541Y-64456429D01*
X126082684Y-64599286D01*
X126011256Y-64742143D01*
X125939827Y-65027857D01*
X125939827Y-65242143D01*
X126011256Y-65527857D01*
X126082684Y-65670714D01*
X126225541Y-65813571D01*
X126439827Y-65885000D01*
X126582684Y-65885000D01*
X126796970Y-65813571D01*
X126868399Y-65742143D01*
X126868399Y-65242143D01*
X126582684Y-65242143D01*
X141711970Y-83645000D02*
X141711970Y-82716429D01*
X142283399Y-83216429D01*
X142283399Y-83002143D01*
X142354827Y-82859286D01*
X142426256Y-82787857D01*
X142569113Y-82716429D01*
X142926256Y-82716429D01*
X143069113Y-82787857D01*
X143140541Y-82859286D01*
X143211970Y-83002143D01*
X143211970Y-83430714D01*
X143140541Y-83573571D01*
X143069113Y-83645000D01*
X141711970Y-81359286D02*
X141711970Y-82073571D01*
X142426256Y-82145000D01*
X142354827Y-82073571D01*
X142283399Y-81930714D01*
X142283399Y-81573571D01*
X142354827Y-81430714D01*
X142426256Y-81359286D01*
X142569113Y-81287857D01*
X142926256Y-81287857D01*
X143069113Y-81359286D01*
X143140541Y-81430714D01*
X143211970Y-81573571D01*
X143211970Y-81930714D01*
X143140541Y-82073571D01*
X143069113Y-82145000D01*
X141711970Y-80359286D02*
X141711970Y-80216429D01*
X141783399Y-80073571D01*
X141854827Y-80002143D01*
X141997684Y-79930714D01*
X142283399Y-79859286D01*
X142640541Y-79859286D01*
X142926256Y-79930714D01*
X143069113Y-80002143D01*
X143140541Y-80073571D01*
X143211970Y-80216429D01*
X143211970Y-80359286D01*
X143140541Y-80502143D01*
X143069113Y-80573571D01*
X142926256Y-80645000D01*
X142640541Y-80716429D01*
X142283399Y-80716429D01*
X141997684Y-80645000D01*
X141854827Y-80573571D01*
X141783399Y-80502143D01*
X141711970Y-80359286D01*
X145751970Y-82672857D02*
X145751970Y-83530000D01*
X145751970Y-83101429D02*
X144251970Y-83101429D01*
X144466256Y-83244286D01*
X144609113Y-83387143D01*
X144680541Y-83530000D01*
X145751970Y-82030000D02*
X144251970Y-82030000D01*
X145751970Y-81172857D02*
X144894827Y-81815714D01*
X144251970Y-81172857D02*
X145109113Y-82030000D01*
X150260541Y-55209286D02*
X150189113Y-55423571D01*
X150117684Y-55495000D01*
X149974827Y-55566429D01*
X149760541Y-55566429D01*
X149617684Y-55495000D01*
X149546256Y-55423571D01*
X149474827Y-55280714D01*
X149474827Y-54709286D01*
X150974827Y-54709286D01*
X150974827Y-55209286D01*
X150903399Y-55352143D01*
X150831970Y-55423571D01*
X150689113Y-55495000D01*
X150546256Y-55495000D01*
X150403399Y-55423571D01*
X150331970Y-55352143D01*
X150260541Y-55209286D01*
X150260541Y-54709286D01*
X149903399Y-56137857D02*
X149903399Y-56852143D01*
X149474827Y-55995000D02*
X150974827Y-56495000D01*
X149474827Y-56995000D01*
X150974827Y-57280714D02*
X150974827Y-58137857D01*
X149474827Y-57709286D02*
X150974827Y-57709286D01*
X105766970Y-57058571D02*
X106909827Y-57058571D01*
X106338399Y-57630000D02*
X106338399Y-56487143D01*
X100686970Y-57058571D02*
X101829827Y-57058571D01*
X103512684Y-56130000D02*
X102798399Y-56130000D01*
X102726970Y-56844286D01*
X102798399Y-56772857D01*
X102941256Y-56701429D01*
X103298399Y-56701429D01*
X103441256Y-56772857D01*
X103512684Y-56844286D01*
X103584113Y-56987143D01*
X103584113Y-57344286D01*
X103512684Y-57487143D01*
X103441256Y-57558571D01*
X103298399Y-57630000D01*
X102941256Y-57630000D01*
X102798399Y-57558571D01*
X102726970Y-57487143D01*
X104012684Y-56130000D02*
X104512684Y-57630000D01*
X105012684Y-56130000D01*
X92908399Y-58900000D02*
X92908399Y-57400000D01*
X93479827Y-57400000D01*
X93622684Y-57471429D01*
X93694113Y-57542857D01*
X93765541Y-57685714D01*
X93765541Y-57900000D01*
X93694113Y-58042857D01*
X93622684Y-58114286D01*
X93479827Y-58185714D01*
X92908399Y-58185714D01*
X94265541Y-57400000D02*
X94622684Y-58900000D01*
X94908399Y-57828571D01*
X95194113Y-58900000D01*
X95551256Y-57400000D01*
X96979827Y-58900000D02*
X96479827Y-58185714D01*
X96122684Y-58900000D02*
X96122684Y-57400000D01*
X96694113Y-57400000D01*
X96836970Y-57471429D01*
X96908399Y-57542857D01*
X96979827Y-57685714D01*
X96979827Y-57900000D01*
X96908399Y-58042857D01*
X96836970Y-58114286D01*
X96694113Y-58185714D01*
X96122684Y-58185714D01*
D10*
%TO.C,TP22*%
X107548399Y-117971429D02*
X110208399Y-117971429D01*
X107548399Y-117911429D02*
X107548399Y-117971429D01*
X110208399Y-117911429D02*
X110208399Y-117971429D01*
X107548399Y-117911429D02*
X110208399Y-117911429D01*
X107548399Y-116641429D02*
X107548399Y-115311429D01*
X107548399Y-115311429D02*
X108878399Y-115311429D01*
%TO.C,TP6*%
X153268399Y-63361429D02*
X155928399Y-63361429D01*
X153268399Y-63301429D02*
X153268399Y-63361429D01*
X155928399Y-63301429D02*
X155928399Y-63361429D01*
X153268399Y-63301429D02*
X155928399Y-63301429D01*
X153268399Y-62031429D02*
X153268399Y-60701429D01*
X153268399Y-60701429D02*
X154598399Y-60701429D01*
%TO.C,TP4*%
X146918399Y-67806429D02*
X149578399Y-67806429D01*
X146918399Y-67746429D02*
X146918399Y-67806429D01*
X149578399Y-67746429D02*
X149578399Y-67806429D01*
X146918399Y-67746429D02*
X149578399Y-67746429D01*
X146918399Y-66476429D02*
X146918399Y-65146429D01*
X146918399Y-65146429D02*
X148248399Y-65146429D01*
%TO.C,TP1*%
X146918399Y-70346429D02*
X149578399Y-70346429D01*
X146918399Y-70286429D02*
X146918399Y-70346429D01*
X149578399Y-70286429D02*
X149578399Y-70346429D01*
X146918399Y-70286429D02*
X149578399Y-70286429D01*
X146918399Y-69016429D02*
X146918399Y-67686429D01*
X146918399Y-67686429D02*
X148248399Y-67686429D01*
%TO.C,U10*%
X89333399Y-36821429D02*
X89333399Y-39821429D01*
X89333399Y-36821429D02*
X86333399Y-36821429D01*
X68733399Y-36821429D02*
X71733399Y-36821429D01*
X68733399Y-36821429D02*
X68733399Y-39821429D01*
X84333399Y-36821429D02*
X73733399Y-36821429D01*
X84333399Y-44421429D02*
X84333399Y-36821429D01*
X73733399Y-44421429D02*
X84333399Y-44421429D01*
X73733399Y-36821429D02*
X73733399Y-44421429D01*
%TO.C,TP21*%
X141203399Y-94476429D02*
X143863399Y-94476429D01*
X141203399Y-94416429D02*
X141203399Y-94476429D01*
X143863399Y-94416429D02*
X143863399Y-94476429D01*
X141203399Y-94416429D02*
X143863399Y-94416429D01*
X141203399Y-93146429D02*
X141203399Y-91816429D01*
X141203399Y-91816429D02*
X142533399Y-91816429D01*
%TO.C,TP20*%
X143743399Y-94476429D02*
X146403399Y-94476429D01*
X143743399Y-94416429D02*
X143743399Y-94476429D01*
X146403399Y-94416429D02*
X146403399Y-94476429D01*
X143743399Y-94416429D02*
X146403399Y-94416429D01*
X143743399Y-93146429D02*
X143743399Y-91816429D01*
X143743399Y-91816429D02*
X145073399Y-91816429D01*
%TO.C,TP19*%
X141203399Y-91936429D02*
X143863399Y-91936429D01*
X141203399Y-91876429D02*
X141203399Y-91936429D01*
X143863399Y-91876429D02*
X143863399Y-91936429D01*
X141203399Y-91876429D02*
X143863399Y-91876429D01*
X141203399Y-90606429D02*
X141203399Y-89276429D01*
X141203399Y-89276429D02*
X142533399Y-89276429D01*
%TO.C,TP18*%
X143743399Y-91936429D02*
X146403399Y-91936429D01*
X143743399Y-91876429D02*
X143743399Y-91936429D01*
X146403399Y-91876429D02*
X146403399Y-91936429D01*
X143743399Y-91876429D02*
X146403399Y-91876429D01*
X143743399Y-90606429D02*
X143743399Y-89276429D01*
X143743399Y-89276429D02*
X145073399Y-89276429D01*
%TO.C,TP17*%
X141203399Y-89396429D02*
X143863399Y-89396429D01*
X141203399Y-89336429D02*
X141203399Y-89396429D01*
X143863399Y-89336429D02*
X143863399Y-89396429D01*
X141203399Y-89336429D02*
X143863399Y-89336429D01*
X141203399Y-88066429D02*
X141203399Y-86736429D01*
X141203399Y-86736429D02*
X142533399Y-86736429D01*
%TO.C,TP16*%
X143743399Y-89396429D02*
X146403399Y-89396429D01*
X143743399Y-89336429D02*
X143743399Y-89396429D01*
X146403399Y-89336429D02*
X146403399Y-89396429D01*
X143743399Y-89336429D02*
X146403399Y-89336429D01*
X143743399Y-88066429D02*
X143743399Y-86736429D01*
X143743399Y-86736429D02*
X145073399Y-86736429D01*
%TO.C,TP15*%
X141203399Y-86856429D02*
X143863399Y-86856429D01*
X141203399Y-86796429D02*
X141203399Y-86856429D01*
X143863399Y-86796429D02*
X143863399Y-86856429D01*
X141203399Y-86796429D02*
X143863399Y-86796429D01*
X141203399Y-85526429D02*
X141203399Y-84196429D01*
X141203399Y-84196429D02*
X142533399Y-84196429D01*
%TO.C,TP14*%
X143743399Y-86856429D02*
X146403399Y-86856429D01*
X143743399Y-86796429D02*
X143743399Y-86856429D01*
X146403399Y-86796429D02*
X146403399Y-86856429D01*
X143743399Y-86796429D02*
X146403399Y-86796429D01*
X143743399Y-85526429D02*
X143743399Y-84196429D01*
X143743399Y-84196429D02*
X145073399Y-84196429D01*
%TO.C,TP12*%
X114653399Y-117851429D02*
X111993399Y-117851429D01*
X114653399Y-117911429D02*
X114653399Y-117851429D01*
X111993399Y-117911429D02*
X111993399Y-117851429D01*
X114653399Y-117911429D02*
X111993399Y-117911429D01*
X114653399Y-119181429D02*
X114653399Y-120511429D01*
X114653399Y-120511429D02*
X113323399Y-120511429D01*
%TO.C,TP11*%
X140053399Y-110351429D02*
X140053399Y-107691429D01*
X139993399Y-110351429D02*
X140053399Y-110351429D01*
X139993399Y-107691429D02*
X140053399Y-107691429D01*
X139993399Y-110351429D02*
X139993399Y-107691429D01*
X138723399Y-110351429D02*
X137393399Y-110351429D01*
X137393399Y-110351429D02*
X137393399Y-109021429D01*
%TO.C,TP10*%
X114018399Y-141466429D02*
X114018399Y-138806429D01*
X113958399Y-141466429D02*
X114018399Y-141466429D01*
X113958399Y-138806429D02*
X114018399Y-138806429D01*
X113958399Y-141466429D02*
X113958399Y-138806429D01*
X112688399Y-141466429D02*
X111358399Y-141466429D01*
X111358399Y-141466429D02*
X111358399Y-140136429D01*
%TO.C,TP9*%
X84688399Y-83561429D02*
X84688399Y-86221429D01*
X84748399Y-83561429D02*
X84688399Y-83561429D01*
X84748399Y-86221429D02*
X84688399Y-86221429D01*
X84748399Y-83561429D02*
X84748399Y-86221429D01*
X86018399Y-83561429D02*
X87348399Y-83561429D01*
X87348399Y-83561429D02*
X87348399Y-84891429D01*
%TO.C,TP8*%
X59288399Y-107176429D02*
X61948399Y-107176429D01*
X59288399Y-107116429D02*
X59288399Y-107176429D01*
X61948399Y-107116429D02*
X61948399Y-107176429D01*
X59288399Y-107116429D02*
X61948399Y-107116429D01*
X59288399Y-105846429D02*
X59288399Y-104516429D01*
X59288399Y-104516429D02*
X60618399Y-104516429D01*
%TO.C,TP5*%
X107548399Y-60821429D02*
X110208399Y-60821429D01*
X107548399Y-60761429D02*
X107548399Y-60821429D01*
X110208399Y-60761429D02*
X110208399Y-60821429D01*
X107548399Y-60761429D02*
X110208399Y-60761429D01*
X107548399Y-59491429D02*
X107548399Y-58161429D01*
X107548399Y-58161429D02*
X108878399Y-58161429D01*
%TO.C,TP3*%
X135488399Y-61336429D02*
X135488399Y-63996429D01*
X135548399Y-61336429D02*
X135488399Y-61336429D01*
X135548399Y-63996429D02*
X135488399Y-63996429D01*
X135548399Y-61336429D02*
X135548399Y-63996429D01*
X136818399Y-61336429D02*
X138148399Y-61336429D01*
X138148399Y-61336429D02*
X138148399Y-62666429D01*
%TO.C,U13*%
X135548399Y-118566429D02*
X137498399Y-118566429D01*
X135548399Y-118566429D02*
X133598399Y-118566429D01*
X135548399Y-113446429D02*
X137498399Y-113446429D01*
X135548399Y-113446429D02*
X132098399Y-113446429D01*
%TO.C,SW3*%
X145930000Y-100261429D02*
X145930000Y-110161429D01*
X141090000Y-100261429D02*
X141090000Y-110161429D01*
X145930000Y-100261429D02*
X141090000Y-100261429D01*
X145930000Y-110161429D02*
X141090000Y-110161429D01*
X146170000Y-100021429D02*
X146170000Y-101405429D01*
X146170000Y-100021429D02*
X144787000Y-100021429D01*
X144145000Y-103181429D02*
X142875000Y-103181429D01*
X142875000Y-103181429D02*
X142875000Y-107241429D01*
X142875000Y-107241429D02*
X144145000Y-107241429D01*
X144145000Y-107241429D02*
X144145000Y-103181429D01*
X144025000Y-103181429D02*
X144025000Y-104534762D01*
X143905000Y-103181429D02*
X143905000Y-104534762D01*
X143785000Y-103181429D02*
X143785000Y-104534762D01*
X143665000Y-103181429D02*
X143665000Y-104534762D01*
X143545000Y-103181429D02*
X143545000Y-104534762D01*
X143425000Y-103181429D02*
X143425000Y-104534762D01*
X143305000Y-103181429D02*
X143305000Y-104534762D01*
X143185000Y-103181429D02*
X143185000Y-104534762D01*
X143065000Y-103181429D02*
X143065000Y-104534762D01*
X142945000Y-103181429D02*
X142945000Y-104534762D01*
X144145000Y-104534762D02*
X142875000Y-104534762D01*
%TO.C,JP8*%
X131678399Y-119121429D02*
X131678399Y-121781429D01*
X136818399Y-119121429D02*
X131678399Y-119121429D01*
X136818399Y-121781429D02*
X131678399Y-121781429D01*
X136818399Y-119121429D02*
X136818399Y-121781429D01*
X138088399Y-119121429D02*
X139418399Y-119121429D01*
X139418399Y-119121429D02*
X139418399Y-120451429D01*
%TO.C,J5*%
X147098399Y-115546429D02*
X147098399Y-112546429D01*
X147098399Y-112546429D02*
X148098399Y-112546429D01*
X147098399Y-124546429D02*
X148098399Y-124546429D01*
X147098399Y-124546429D02*
X147098399Y-121546429D01*
%TO.C,U12*%
X131738399Y-101401429D02*
X129198399Y-101401429D01*
X131738399Y-98861429D02*
X131738399Y-101401429D01*
X124118399Y-101401429D02*
X126658399Y-101401429D01*
X124118399Y-98861429D02*
X124118399Y-101401429D01*
X131738399Y-81081429D02*
X131738399Y-83621429D01*
X129198399Y-81081429D02*
X131738399Y-81081429D01*
X124118399Y-81081429D02*
X124118399Y-83621429D01*
X126658399Y-81081429D02*
X124118399Y-81081429D01*
%TO.C,TP13*%
X115630000Y-133410000D02*
X114300000Y-133410000D01*
X115630000Y-132080000D02*
X115630000Y-133410000D01*
X115630000Y-130810000D02*
X112970000Y-130810000D01*
X112970000Y-130810000D02*
X112970000Y-128210000D01*
X115630000Y-130810000D02*
X115630000Y-128210000D01*
X115630000Y-128210000D02*
X112970000Y-128210000D01*
%TO.C,TP7*%
X70838399Y-141466429D02*
X69508399Y-141466429D01*
X70838399Y-140136429D02*
X70838399Y-141466429D01*
X70838399Y-138866429D02*
X68178399Y-138866429D01*
X68178399Y-138866429D02*
X68178399Y-136266429D01*
X70838399Y-138866429D02*
X70838399Y-136266429D01*
X70838399Y-136266429D02*
X68178399Y-136266429D01*
%TO.C,TP2*%
X147038399Y-63996429D02*
X145708399Y-63996429D01*
X147038399Y-62666429D02*
X147038399Y-63996429D01*
X147038399Y-61396429D02*
X144378399Y-61396429D01*
X144378399Y-61396429D02*
X144378399Y-58796429D01*
X147038399Y-61396429D02*
X147038399Y-58796429D01*
X147038399Y-58796429D02*
X144378399Y-58796429D01*
%TO.C,SW2*%
X95543399Y-51194762D02*
X94273399Y-51194762D01*
X94343399Y-49841429D02*
X94343399Y-51194762D01*
X94463399Y-49841429D02*
X94463399Y-51194762D01*
X94583399Y-49841429D02*
X94583399Y-51194762D01*
X94703399Y-49841429D02*
X94703399Y-51194762D01*
X94823399Y-49841429D02*
X94823399Y-51194762D01*
X94943399Y-49841429D02*
X94943399Y-51194762D01*
X95063399Y-49841429D02*
X95063399Y-51194762D01*
X95183399Y-49841429D02*
X95183399Y-51194762D01*
X95303399Y-49841429D02*
X95303399Y-51194762D01*
X95423399Y-49841429D02*
X95423399Y-51194762D01*
X95543399Y-53901429D02*
X95543399Y-49841429D01*
X94273399Y-53901429D02*
X95543399Y-53901429D01*
X94273399Y-49841429D02*
X94273399Y-53901429D01*
X95543399Y-49841429D02*
X94273399Y-49841429D01*
X97568399Y-46681429D02*
X96185399Y-46681429D01*
X97568399Y-46681429D02*
X97568399Y-48065429D01*
X97328399Y-56821429D02*
X92488399Y-56821429D01*
X97328399Y-46921429D02*
X92488399Y-46921429D01*
X92488399Y-46921429D02*
X92488399Y-56821429D01*
X97328399Y-46921429D02*
X97328399Y-56821429D01*
%TO.C,D11*%
X92448399Y-61896429D02*
X96508399Y-61896429D01*
X92448399Y-59626429D02*
X92448399Y-61896429D01*
X96508399Y-59626429D02*
X92448399Y-59626429D01*
%TO.C,JP4*%
X124058399Y-72131429D02*
X125388399Y-72131429D01*
X124058399Y-73461429D02*
X124058399Y-72131429D01*
X124058399Y-74731429D02*
X126718399Y-74731429D01*
X126718399Y-74731429D02*
X126718399Y-79871429D01*
X124058399Y-74731429D02*
X124058399Y-79871429D01*
X124058399Y-79871429D02*
X126718399Y-79871429D01*
%TO.C,U11*%
X125388399Y-113446429D02*
X121938399Y-113446429D01*
X125388399Y-113446429D02*
X127338399Y-113446429D01*
X125388399Y-118566429D02*
X123438399Y-118566429D01*
X125388399Y-118566429D02*
X127338399Y-118566429D01*
%TO.C,SW1*%
X102128399Y-138406429D02*
X102128399Y-139906429D01*
X103378399Y-142406429D02*
X107878399Y-142406429D01*
X109128399Y-139906429D02*
X109128399Y-138406429D01*
X107878399Y-135906429D02*
X103378399Y-135906429D01*
%TO.C,RV3*%
X79023399Y-84696429D02*
X73953399Y-84696429D01*
X79023399Y-74926429D02*
X73953399Y-74926429D01*
X73953399Y-74926429D02*
X73953399Y-84696429D01*
X79023399Y-74926429D02*
X79023399Y-84696429D01*
%TO.C,RV2*%
X156928399Y-95881429D02*
X156928399Y-105651429D01*
X147158399Y-95881429D02*
X147158399Y-105651429D01*
X147158399Y-105651429D02*
X156928399Y-105651429D01*
X147158399Y-95881429D02*
X156928399Y-95881429D01*
%TO.C,RV1*%
X156928399Y-73021429D02*
X156928399Y-82791429D01*
X147158399Y-73021429D02*
X147158399Y-82791429D01*
X147158399Y-82791429D02*
X156928399Y-82791429D01*
X147158399Y-73021429D02*
X156928399Y-73021429D01*
%TO.C,JP7*%
X144378399Y-130671429D02*
X144378399Y-129341429D01*
X145708399Y-130671429D02*
X144378399Y-130671429D01*
X146978399Y-130671429D02*
X146978399Y-128011429D01*
X146978399Y-128011429D02*
X149578399Y-128011429D01*
X146978399Y-130671429D02*
X149578399Y-130671429D01*
X149578399Y-130671429D02*
X149578399Y-128011429D01*
%TO.C,JP6*%
X129258399Y-119121429D02*
X129258399Y-120451429D01*
X127928399Y-119121429D02*
X129258399Y-119121429D01*
X126658399Y-119121429D02*
X126658399Y-121781429D01*
X126658399Y-121781429D02*
X121518399Y-121781429D01*
X126658399Y-119121429D02*
X121518399Y-119121429D01*
X121518399Y-119121429D02*
X121518399Y-121781429D01*
%TO.C,JP5*%
X60558399Y-77331429D02*
X60558399Y-76001429D01*
X61888399Y-77331429D02*
X60558399Y-77331429D01*
X63158399Y-77331429D02*
X63158399Y-74671429D01*
X63158399Y-74671429D02*
X68298399Y-74671429D01*
X63158399Y-77331429D02*
X68298399Y-77331429D01*
X68298399Y-77331429D02*
X68298399Y-74671429D01*
%TO.C,JP3*%
X87348399Y-74671429D02*
X87348399Y-76001429D01*
X86018399Y-74671429D02*
X87348399Y-74671429D01*
X84748399Y-74671429D02*
X84748399Y-77331429D01*
X84748399Y-77331429D02*
X79608399Y-77331429D01*
X84748399Y-74671429D02*
X79608399Y-74671429D01*
X79608399Y-74671429D02*
X79608399Y-77331429D01*
%TO.C,JP2*%
X99293399Y-65901429D02*
X99293399Y-64571429D01*
X100623399Y-65901429D02*
X99293399Y-65901429D01*
X101893399Y-65901429D02*
X101893399Y-63241429D01*
X101893399Y-63241429D02*
X107033399Y-63241429D01*
X101893399Y-65901429D02*
X107033399Y-65901429D01*
X107033399Y-65901429D02*
X107033399Y-63241429D01*
%TO.C,JP1*%
X114653399Y-56891429D02*
X111993399Y-56891429D01*
X114653399Y-59491429D02*
X114653399Y-56891429D01*
X111993399Y-59491429D02*
X111993399Y-56891429D01*
X114653399Y-59491429D02*
X111993399Y-59491429D01*
X114653399Y-60761429D02*
X114653399Y-62091429D01*
X114653399Y-62091429D02*
X113323399Y-62091429D01*
%TO.C,J8*%
X71963399Y-143501429D02*
X74463399Y-143501429D01*
X71963399Y-129701429D02*
X71963399Y-143501429D01*
X74463399Y-129701429D02*
X71963399Y-129701429D01*
X82763399Y-143501429D02*
X76663399Y-143501429D01*
X82763399Y-129701429D02*
X76663399Y-129701429D01*
X86463399Y-143501429D02*
X86463399Y-129701429D01*
X84963399Y-143501429D02*
X86463399Y-143501429D01*
X84963399Y-129701429D02*
X86463399Y-129701429D01*
%TO.C,J6*%
X114733399Y-145036429D02*
X115233399Y-145036429D01*
X114733399Y-144296429D02*
X114733399Y-145036429D01*
X141306399Y-141159429D02*
X141259399Y-141205429D01*
X143603399Y-138861429D02*
X143568399Y-138897429D01*
X141499399Y-141375429D02*
X141464399Y-141410429D01*
X143808399Y-139067429D02*
X143761399Y-139113429D01*
X136306399Y-141159429D02*
X136259399Y-141205429D01*
X138603399Y-138861429D02*
X138568399Y-138897429D01*
X136499399Y-141375429D02*
X136464399Y-141410429D01*
X138808399Y-139067429D02*
X138761399Y-139113429D01*
X131306399Y-141159429D02*
X131259399Y-141205429D01*
X133603399Y-138861429D02*
X133568399Y-138897429D01*
X131499399Y-141375429D02*
X131464399Y-141410429D01*
X133808399Y-139067429D02*
X133761399Y-139113429D01*
X126306399Y-141159429D02*
X126259399Y-141205429D01*
X128603399Y-138861429D02*
X128568399Y-138897429D01*
X126499399Y-141375429D02*
X126464399Y-141410429D01*
X128808399Y-139067429D02*
X128761399Y-139113429D01*
X121306399Y-141159429D02*
X121259399Y-141205429D01*
X123603399Y-138861429D02*
X123568399Y-138897429D01*
X121499399Y-141375429D02*
X121464399Y-141410429D01*
X123808399Y-139067429D02*
X123761399Y-139113429D01*
X145093399Y-134875429D02*
X145093399Y-144796429D01*
X114973399Y-134875429D02*
X114973399Y-144796429D01*
X114973399Y-144796429D02*
X145093399Y-144796429D01*
X114973399Y-134875429D02*
X145093399Y-134875429D01*
X114973399Y-137835429D02*
X145093399Y-137835429D01*
X114973399Y-142736429D02*
X145093399Y-142736429D01*
X114973399Y-144236429D02*
X145093399Y-144236429D01*
X144213399Y-140136429D02*
G75*
G03*
X144213399Y-140136429I-1680000J0D01*
G01*
X139213399Y-140136429D02*
G75*
G03*
X139213399Y-140136429I-1680000J0D01*
G01*
X134213399Y-140136429D02*
G75*
G03*
X134213399Y-140136429I-1680000J0D01*
G01*
X129213399Y-140136429D02*
G75*
G03*
X129213399Y-140136429I-1680000J0D01*
G01*
X124213399Y-140136429D02*
G75*
G03*
X124213399Y-140136429I-1680000J0D01*
G01*
X117562204Y-141816682D02*
G75*
G02*
X116849399Y-141671429I-28805J1680253D01*
G01*
X115997973Y-140819471D02*
G75*
G02*
X115998399Y-139452429I1535426J683042D01*
G01*
X116850357Y-138601003D02*
G75*
G02*
X118217399Y-138601429I683042J-1535426D01*
G01*
X119068825Y-139453387D02*
G75*
G02*
X119068399Y-140820429I-1535426J-683042D01*
G01*
X118216717Y-141671185D02*
G75*
G02*
X117533399Y-141816429I-683318J1534756D01*
G01*
%TO.C,J4*%
X149518399Y-84256429D02*
X150788399Y-84256429D01*
X149518399Y-85526429D02*
X149518399Y-84256429D01*
X151831328Y-93526429D02*
X152285470Y-93526429D01*
X151831328Y-92766429D02*
X152285470Y-92766429D01*
X154371328Y-93526429D02*
X154768399Y-93526429D01*
X154371328Y-92766429D02*
X154768399Y-92766429D01*
X163428399Y-93526429D02*
X157428399Y-93526429D01*
X163428399Y-92766429D02*
X163428399Y-93526429D01*
X157428399Y-92766429D02*
X163428399Y-92766429D01*
X154768399Y-91876429D02*
X157428399Y-91876429D01*
X151831328Y-90986429D02*
X152285470Y-90986429D01*
X151831328Y-90226429D02*
X152285470Y-90226429D01*
X154371328Y-90986429D02*
X154768399Y-90986429D01*
X154371328Y-90226429D02*
X154768399Y-90226429D01*
X163428399Y-90986429D02*
X157428399Y-90986429D01*
X163428399Y-90226429D02*
X163428399Y-90986429D01*
X157428399Y-90226429D02*
X163428399Y-90226429D01*
X154768399Y-89336429D02*
X157428399Y-89336429D01*
X151831328Y-88446429D02*
X152285470Y-88446429D01*
X151831328Y-87686429D02*
X152285470Y-87686429D01*
X154371328Y-88446429D02*
X154768399Y-88446429D01*
X154371328Y-87686429D02*
X154768399Y-87686429D01*
X163428399Y-88446429D02*
X157428399Y-88446429D01*
X163428399Y-87686429D02*
X163428399Y-88446429D01*
X157428399Y-87686429D02*
X163428399Y-87686429D01*
X154768399Y-86796429D02*
X157428399Y-86796429D01*
X151898399Y-85906429D02*
X152285470Y-85906429D01*
X151898399Y-85146429D02*
X152285470Y-85146429D01*
X154371328Y-85906429D02*
X154768399Y-85906429D01*
X154371328Y-85146429D02*
X154768399Y-85146429D01*
X157428399Y-85806429D02*
X163428399Y-85806429D01*
X157428399Y-85686429D02*
X163428399Y-85686429D01*
X157428399Y-85566429D02*
X163428399Y-85566429D01*
X157428399Y-85446429D02*
X163428399Y-85446429D01*
X157428399Y-85326429D02*
X163428399Y-85326429D01*
X157428399Y-85206429D02*
X163428399Y-85206429D01*
X163428399Y-85906429D02*
X157428399Y-85906429D01*
X163428399Y-85146429D02*
X163428399Y-85906429D01*
X157428399Y-85146429D02*
X163428399Y-85146429D01*
X157428399Y-84196429D02*
X154768399Y-84196429D01*
X157428399Y-94476429D02*
X157428399Y-84196429D01*
X154768399Y-94476429D02*
X157428399Y-94476429D01*
X154768399Y-84196429D02*
X154768399Y-94476429D01*
%TO.C,J2*%
X146043399Y-56511429D02*
X146343399Y-55911429D01*
X146643399Y-56511429D02*
X146043399Y-56511429D01*
X146343399Y-55911429D02*
X146643399Y-56511429D01*
X138593399Y-52811429D02*
X139093399Y-52811429D01*
X138593399Y-47311429D02*
X138593399Y-52811429D01*
X139093399Y-47311429D02*
X138593399Y-47311429D01*
X139093399Y-52811429D02*
X139093399Y-47311429D01*
X141093399Y-52811429D02*
X141593399Y-52811429D01*
X141093399Y-47311429D02*
X141093399Y-52811429D01*
X141593399Y-47311429D02*
X141093399Y-47311429D01*
X141593399Y-52811429D02*
X141593399Y-47311429D01*
X143593399Y-52811429D02*
X144093399Y-52811429D01*
X143593399Y-47311429D02*
X143593399Y-52811429D01*
X144093399Y-47311429D02*
X143593399Y-47311429D01*
X144093399Y-52811429D02*
X144093399Y-47311429D01*
X146093399Y-52811429D02*
X146593399Y-52811429D01*
X146093399Y-47311429D02*
X146093399Y-52811429D01*
X146593399Y-47311429D02*
X146093399Y-47311429D01*
X146593399Y-52811429D02*
X146593399Y-47311429D01*
X137703399Y-58421429D02*
X137703399Y-53921429D01*
X136283399Y-58421429D02*
X137703399Y-58421429D01*
X136283399Y-46701429D02*
X136283399Y-58421429D01*
X142593399Y-46701429D02*
X136283399Y-46701429D01*
X147483399Y-58421429D02*
X147483399Y-53921429D01*
X148903399Y-58421429D02*
X147483399Y-58421429D01*
X148903399Y-46701429D02*
X148903399Y-58421429D01*
X142593399Y-46701429D02*
X148903399Y-46701429D01*
%TO.C,J1*%
X109058399Y-45701429D02*
X108558399Y-45701429D01*
X109058399Y-46441429D02*
X109058399Y-45701429D01*
X102485399Y-49578429D02*
X102532399Y-49532429D01*
X100188399Y-51876429D02*
X100223399Y-51840429D01*
X102292399Y-49362429D02*
X102327399Y-49327429D01*
X99983399Y-51670429D02*
X100030399Y-51624429D01*
X98698399Y-55862429D02*
X98698399Y-45941429D01*
X108818399Y-55862429D02*
X108818399Y-45941429D01*
X108818399Y-45941429D02*
X98698399Y-45941429D01*
X108818399Y-55862429D02*
X98698399Y-55862429D01*
X108818399Y-52902429D02*
X98698399Y-52902429D01*
X108818399Y-48001429D02*
X98698399Y-48001429D01*
X108818399Y-46501429D02*
X98698399Y-46501429D01*
X102938399Y-50601429D02*
G75*
G03*
X102938399Y-50601429I-1680000J0D01*
G01*
X106229594Y-48921176D02*
G75*
G02*
X106942399Y-49066429I28805J-1680253D01*
G01*
X107793825Y-49918387D02*
G75*
G02*
X107793399Y-51285429I-1535426J-683042D01*
G01*
X106941441Y-52136855D02*
G75*
G02*
X105574399Y-52136429I-683042J1535426D01*
G01*
X104722973Y-51284471D02*
G75*
G02*
X104723399Y-49917429I1535426J683042D01*
G01*
X105575081Y-49066673D02*
G75*
G02*
X106258399Y-48921429I683318J-1534756D01*
G01*
%TO.C,D10*%
X150868399Y-130476429D02*
X154928399Y-130476429D01*
X150868399Y-128206429D02*
X150868399Y-130476429D01*
X154928399Y-128206429D02*
X150868399Y-128206429D01*
%TO.C,D9*%
X99373399Y-138421429D02*
X99373399Y-137956429D01*
X99373399Y-141046429D02*
X99373399Y-140581429D01*
X94558920Y-138421000D02*
G75*
G02*
X99068083Y-138421429I2254479J-1080429D01*
G01*
X94558920Y-140581858D02*
G75*
G03*
X99068083Y-140581429I2254479J1080429D01*
G01*
X94025584Y-138420602D02*
G75*
G02*
X99373399Y-137956599I2787815J-1080827D01*
G01*
X94025584Y-140582256D02*
G75*
G03*
X99373399Y-141046259I2787815J1080827D01*
G01*
%TO.C,D8*%
X121658399Y-68881429D02*
X125718399Y-68881429D01*
X121658399Y-66611429D02*
X121658399Y-68881429D01*
X125718399Y-66611429D02*
X121658399Y-66611429D01*
%TO.C,D7*%
X134833399Y-66611429D02*
X130773399Y-66611429D01*
X134833399Y-68881429D02*
X134833399Y-66611429D01*
X130773399Y-68881429D02*
X134833399Y-68881429D01*
%TO.C,C20*%
X67527147Y-88426429D02*
X68949651Y-88426429D01*
X67527147Y-90246429D02*
X68949651Y-90246429D01*
%TO.C,C16*%
X67527147Y-90966429D02*
X68949651Y-90966429D01*
X67527147Y-92786429D02*
X68949651Y-92786429D01*
%TO.C,Y1*%
X74583399Y-111456429D02*
X70783399Y-111456429D01*
X68483399Y-111456429D02*
X68953399Y-111456429D01*
X68483399Y-107856429D02*
X68953399Y-107856429D01*
X68483399Y-111456429D02*
X68483399Y-110156429D01*
X68483399Y-109156429D02*
X68483399Y-107856429D01*
X70783399Y-107856429D02*
X74583399Y-107856429D01*
X76883399Y-111456429D02*
X76413399Y-111456429D01*
X76883399Y-107856429D02*
X76883399Y-111456429D01*
X76413399Y-107856429D02*
X76883399Y-107856429D01*
X68483399Y-110156429D02*
G75*
G03*
X68483399Y-109156429I0J500000D01*
G01*
%TO.C,C14*%
X67527147Y-95326429D02*
X68949651Y-95326429D01*
X67527147Y-93506429D02*
X68949651Y-93506429D01*
%TO.C,C15*%
X67527147Y-96046429D02*
X68949651Y-96046429D01*
X67527147Y-97866429D02*
X68949651Y-97866429D01*
%TO.C,C18*%
X72124651Y-103666429D02*
X70702147Y-103666429D01*
X72124651Y-105486429D02*
X70702147Y-105486429D01*
%TO.C,C19*%
X70702147Y-115646429D02*
X72124651Y-115646429D01*
X70702147Y-113826429D02*
X72124651Y-113826429D01*
%TO.C,R37*%
X66058399Y-110383493D02*
X66058399Y-108929365D01*
X67878399Y-110383493D02*
X67878399Y-108929365D01*
%TO.C,TP22*%
D14*
X110283399Y-117093809D02*
X110283399Y-116093809D01*
X110759589Y-117093809D02*
X110759589Y-116093809D01*
X110997684Y-116093809D01*
X111140541Y-116141429D01*
X111235779Y-116236667D01*
X111283399Y-116331905D01*
X111331018Y-116522381D01*
X111331018Y-116665238D01*
X111283399Y-116855714D01*
X111235779Y-116950952D01*
X111140541Y-117046190D01*
X110997684Y-117093809D01*
X110759589Y-117093809D01*
%TO.C,TP6*%
X154526970Y-59578571D02*
X154574589Y-59435714D01*
X154622208Y-59388095D01*
X154717446Y-59340476D01*
X154860303Y-59340476D01*
X154955541Y-59388095D01*
X155003160Y-59435714D01*
X155050779Y-59530952D01*
X155050779Y-59911905D01*
X154050779Y-59911905D01*
X154050779Y-59578571D01*
X154098399Y-59483333D01*
X154146018Y-59435714D01*
X154241256Y-59388095D01*
X154336494Y-59388095D01*
X154431732Y-59435714D01*
X154479351Y-59483333D01*
X154526970Y-59578571D01*
X154526970Y-59911905D01*
X154765065Y-58959524D02*
X154765065Y-58483333D01*
X155050779Y-59054762D02*
X154050779Y-58721429D01*
X155050779Y-58388095D01*
X154050779Y-58197619D02*
X154050779Y-57626190D01*
X155050779Y-57911905D02*
X154050779Y-57911905D01*
X154669827Y-57292857D02*
X154669827Y-56530952D01*
%TO.C,TP4*%
X150425422Y-66833571D02*
X150377803Y-66881190D01*
X150234946Y-66928809D01*
X150139708Y-66928809D01*
X149996851Y-66881190D01*
X149901613Y-66785952D01*
X149853994Y-66690714D01*
X149806375Y-66500238D01*
X149806375Y-66357381D01*
X149853994Y-66166905D01*
X149901613Y-66071667D01*
X149996851Y-65976429D01*
X150139708Y-65928809D01*
X150234946Y-65928809D01*
X150377803Y-65976429D01*
X150425422Y-66024048D01*
X150853994Y-66928809D02*
X150853994Y-65928809D01*
X150853994Y-66405000D02*
X151425422Y-66405000D01*
X151425422Y-66928809D02*
X151425422Y-65928809D01*
X152473041Y-66928809D02*
X152139708Y-66452619D01*
X151901613Y-66928809D02*
X151901613Y-65928809D01*
X152282565Y-65928809D01*
X152377803Y-65976429D01*
X152425422Y-66024048D01*
X152473041Y-66119286D01*
X152473041Y-66262143D01*
X152425422Y-66357381D01*
X152377803Y-66405000D01*
X152282565Y-66452619D01*
X151901613Y-66452619D01*
X153425422Y-65976429D02*
X153330184Y-65928809D01*
X153187327Y-65928809D01*
X153044470Y-65976429D01*
X152949232Y-66071667D01*
X152901613Y-66166905D01*
X152853994Y-66357381D01*
X152853994Y-66500238D01*
X152901613Y-66690714D01*
X152949232Y-66785952D01*
X153044470Y-66881190D01*
X153187327Y-66928809D01*
X153282565Y-66928809D01*
X153425422Y-66881190D01*
X153473041Y-66833571D01*
X153473041Y-66500238D01*
X153282565Y-66500238D01*
%TO.C,TP1*%
X149853994Y-69468809D02*
X149853994Y-68468809D01*
X150092089Y-68468809D01*
X150234946Y-68516429D01*
X150330184Y-68611667D01*
X150377803Y-68706905D01*
X150425422Y-68897381D01*
X150425422Y-69040238D01*
X150377803Y-69230714D01*
X150330184Y-69325952D01*
X150234946Y-69421190D01*
X150092089Y-69468809D01*
X149853994Y-69468809D01*
X150853994Y-69468809D02*
X150853994Y-68468809D01*
X151282565Y-69421190D02*
X151425422Y-69468809D01*
X151663518Y-69468809D01*
X151758756Y-69421190D01*
X151806375Y-69373571D01*
X151853994Y-69278333D01*
X151853994Y-69183095D01*
X151806375Y-69087857D01*
X151758756Y-69040238D01*
X151663518Y-68992619D01*
X151473041Y-68945000D01*
X151377803Y-68897381D01*
X151330184Y-68849762D01*
X151282565Y-68754524D01*
X151282565Y-68659286D01*
X151330184Y-68564048D01*
X151377803Y-68516429D01*
X151473041Y-68468809D01*
X151711137Y-68468809D01*
X151853994Y-68516429D01*
%TO.C,U8*%
X60705779Y-91368333D02*
X61515303Y-91368333D01*
X61610541Y-91320714D01*
X61658160Y-91273095D01*
X61705779Y-91177857D01*
X61705779Y-90987381D01*
X61658160Y-90892143D01*
X61610541Y-90844524D01*
X61515303Y-90796905D01*
X60705779Y-90796905D01*
X61134351Y-90177857D02*
X61086732Y-90273095D01*
X61039113Y-90320714D01*
X60943875Y-90368333D01*
X60896256Y-90368333D01*
X60801018Y-90320714D01*
X60753399Y-90273095D01*
X60705779Y-90177857D01*
X60705779Y-89987381D01*
X60753399Y-89892143D01*
X60801018Y-89844524D01*
X60896256Y-89796905D01*
X60943875Y-89796905D01*
X61039113Y-89844524D01*
X61086732Y-89892143D01*
X61134351Y-89987381D01*
X61134351Y-90177857D01*
X61181970Y-90273095D01*
X61229589Y-90320714D01*
X61324827Y-90368333D01*
X61515303Y-90368333D01*
X61610541Y-90320714D01*
X61658160Y-90273095D01*
X61705779Y-90177857D01*
X61705779Y-89987381D01*
X61658160Y-89892143D01*
X61610541Y-89844524D01*
X61515303Y-89796905D01*
X61324827Y-89796905D01*
X61229589Y-89844524D01*
X61181970Y-89892143D01*
X61134351Y-89987381D01*
%TO.C,U10*%
X89280779Y-69619524D02*
X90090303Y-69619524D01*
X90185541Y-69571905D01*
X90233160Y-69524286D01*
X90280779Y-69429048D01*
X90280779Y-69238571D01*
X90233160Y-69143333D01*
X90185541Y-69095714D01*
X90090303Y-69048095D01*
X89280779Y-69048095D01*
X90280779Y-68048095D02*
X90280779Y-68619524D01*
X90280779Y-68333809D02*
X89280779Y-68333809D01*
X89423637Y-68429048D01*
X89518875Y-68524286D01*
X89566494Y-68619524D01*
X89280779Y-67429048D02*
X89280779Y-67333809D01*
X89328399Y-67238571D01*
X89376018Y-67190952D01*
X89471256Y-67143333D01*
X89661732Y-67095714D01*
X89899827Y-67095714D01*
X90090303Y-67143333D01*
X90185541Y-67190952D01*
X90233160Y-67238571D01*
X90280779Y-67333809D01*
X90280779Y-67429048D01*
X90233160Y-67524286D01*
X90185541Y-67571905D01*
X90090303Y-67619524D01*
X89899827Y-67667143D01*
X89661732Y-67667143D01*
X89471256Y-67619524D01*
X89376018Y-67571905D01*
X89328399Y-67524286D01*
X89280779Y-67429048D01*
%TO.C,TP12*%
X115331732Y-118633809D02*
X115522208Y-118633809D01*
X115617446Y-118681429D01*
X115712684Y-118776667D01*
X115760303Y-118967143D01*
X115760303Y-119300476D01*
X115712684Y-119490952D01*
X115617446Y-119586190D01*
X115522208Y-119633809D01*
X115331732Y-119633809D01*
X115236494Y-119586190D01*
X115141256Y-119490952D01*
X115093637Y-119300476D01*
X115093637Y-118967143D01*
X115141256Y-118776667D01*
X115236494Y-118681429D01*
X115331732Y-118633809D01*
X116093637Y-118633809D02*
X116331732Y-119633809D01*
X116522208Y-118919524D01*
X116712684Y-119633809D01*
X116950779Y-118633809D01*
X117665065Y-119110000D02*
X117807922Y-119157619D01*
X117855541Y-119205238D01*
X117903160Y-119300476D01*
X117903160Y-119443333D01*
X117855541Y-119538571D01*
X117807922Y-119586190D01*
X117712684Y-119633809D01*
X117331732Y-119633809D01*
X117331732Y-118633809D01*
X117665065Y-118633809D01*
X117760303Y-118681429D01*
X117807922Y-118729048D01*
X117855541Y-118824286D01*
X117855541Y-118919524D01*
X117807922Y-119014762D01*
X117760303Y-119062381D01*
X117665065Y-119110000D01*
X117331732Y-119110000D01*
%TO.C,TP10*%
X113093160Y-138699524D02*
X113140779Y-138556667D01*
X113140779Y-138318571D01*
X113093160Y-138223333D01*
X113045541Y-138175714D01*
X112950303Y-138128095D01*
X112855065Y-138128095D01*
X112759827Y-138175714D01*
X112712208Y-138223333D01*
X112664589Y-138318571D01*
X112616970Y-138509048D01*
X112569351Y-138604286D01*
X112521732Y-138651905D01*
X112426494Y-138699524D01*
X112331256Y-138699524D01*
X112236018Y-138651905D01*
X112188399Y-138604286D01*
X112140779Y-138509048D01*
X112140779Y-138270952D01*
X112188399Y-138128095D01*
X112664589Y-137509048D02*
X113140779Y-137509048D01*
X112140779Y-137842381D02*
X112664589Y-137509048D01*
X112140779Y-137175714D01*
X113140779Y-136842381D02*
X112140779Y-136842381D01*
X113140779Y-136270952D01*
X112140779Y-136270952D01*
X113045541Y-135223333D02*
X113093160Y-135270952D01*
X113140779Y-135413809D01*
X113140779Y-135509048D01*
X113093160Y-135651905D01*
X112997922Y-135747143D01*
X112902684Y-135794762D01*
X112712208Y-135842381D01*
X112569351Y-135842381D01*
X112378875Y-135794762D01*
X112283637Y-135747143D01*
X112188399Y-135651905D01*
X112140779Y-135509048D01*
X112140779Y-135413809D01*
X112188399Y-135270952D01*
X112236018Y-135223333D01*
%TO.C,TP9*%
X81224351Y-84343809D02*
X81557684Y-85343809D01*
X81891018Y-84343809D01*
X82176732Y-85296190D02*
X82319589Y-85343809D01*
X82557684Y-85343809D01*
X82652922Y-85296190D01*
X82700541Y-85248571D01*
X82748160Y-85153333D01*
X82748160Y-85058095D01*
X82700541Y-84962857D01*
X82652922Y-84915238D01*
X82557684Y-84867619D01*
X82367208Y-84820000D01*
X82271970Y-84772381D01*
X82224351Y-84724762D01*
X82176732Y-84629524D01*
X82176732Y-84534286D01*
X82224351Y-84439048D01*
X82271970Y-84391429D01*
X82367208Y-84343809D01*
X82605303Y-84343809D01*
X82748160Y-84391429D01*
X83176732Y-85343809D02*
X83176732Y-84343809D01*
X83652922Y-85343809D02*
X83652922Y-84343809D01*
X83986256Y-85058095D01*
X84319589Y-84343809D01*
X84319589Y-85343809D01*
%TO.C,TP8*%
X60546970Y-103758571D02*
X60594589Y-103615714D01*
X60642208Y-103568095D01*
X60737446Y-103520476D01*
X60880303Y-103520476D01*
X60975541Y-103568095D01*
X61023160Y-103615714D01*
X61070779Y-103710952D01*
X61070779Y-104091905D01*
X60070779Y-104091905D01*
X60070779Y-103758571D01*
X60118399Y-103663333D01*
X60166018Y-103615714D01*
X60261256Y-103568095D01*
X60356494Y-103568095D01*
X60451732Y-103615714D01*
X60499351Y-103663333D01*
X60546970Y-103758571D01*
X60546970Y-104091905D01*
X60785065Y-103139524D02*
X60785065Y-102663333D01*
X61070779Y-103234762D02*
X60070779Y-102901429D01*
X61070779Y-102568095D01*
X60070779Y-102377619D02*
X60070779Y-101806190D01*
X61070779Y-102091905D02*
X60070779Y-102091905D01*
X61070779Y-101472857D02*
X60070779Y-101472857D01*
X60785065Y-101139524D01*
X60070779Y-100806190D01*
X61070779Y-100806190D01*
X60070779Y-100139524D02*
X60070779Y-99949048D01*
X60118399Y-99853809D01*
X60213637Y-99758571D01*
X60404113Y-99710952D01*
X60737446Y-99710952D01*
X60927922Y-99758571D01*
X61023160Y-99853809D01*
X61070779Y-99949048D01*
X61070779Y-100139524D01*
X61023160Y-100234762D01*
X60927922Y-100330000D01*
X60737446Y-100377619D01*
X60404113Y-100377619D01*
X60213637Y-100330000D01*
X60118399Y-100234762D01*
X60070779Y-100139524D01*
X61070779Y-99282381D02*
X60070779Y-99282381D01*
X61070779Y-98710952D01*
X60070779Y-98710952D01*
%TO.C,TP5*%
X105576494Y-59943809D02*
X105576494Y-58943809D01*
X105814589Y-58943809D01*
X105957446Y-58991429D01*
X106052684Y-59086667D01*
X106100303Y-59181905D01*
X106147922Y-59372381D01*
X106147922Y-59515238D01*
X106100303Y-59705714D01*
X106052684Y-59800952D01*
X105957446Y-59896190D01*
X105814589Y-59943809D01*
X105576494Y-59943809D01*
X107147922Y-59848571D02*
X107100303Y-59896190D01*
X106957446Y-59943809D01*
X106862208Y-59943809D01*
X106719351Y-59896190D01*
X106624113Y-59800952D01*
X106576494Y-59705714D01*
X106528875Y-59515238D01*
X106528875Y-59372381D01*
X106576494Y-59181905D01*
X106624113Y-59086667D01*
X106719351Y-58991429D01*
X106862208Y-58943809D01*
X106957446Y-58943809D01*
X107100303Y-58991429D01*
X107147922Y-59039048D01*
%TO.C,TP3*%
X136746970Y-67198571D02*
X136794589Y-67055714D01*
X136842208Y-67008095D01*
X136937446Y-66960476D01*
X137080303Y-66960476D01*
X137175541Y-67008095D01*
X137223160Y-67055714D01*
X137270779Y-67150952D01*
X137270779Y-67531905D01*
X136270779Y-67531905D01*
X136270779Y-67198571D01*
X136318399Y-67103333D01*
X136366018Y-67055714D01*
X136461256Y-67008095D01*
X136556494Y-67008095D01*
X136651732Y-67055714D01*
X136699351Y-67103333D01*
X136746970Y-67198571D01*
X136746970Y-67531905D01*
X136985065Y-66579524D02*
X136985065Y-66103333D01*
X137270779Y-66674762D02*
X136270779Y-66341429D01*
X137270779Y-66008095D01*
X136270779Y-65817619D02*
X136270779Y-65246190D01*
X137270779Y-65531905D02*
X136270779Y-65531905D01*
X136889827Y-64912857D02*
X136889827Y-64150952D01*
X137270779Y-64531905D02*
X136508875Y-64531905D01*
%TO.C,U13*%
X139572779Y-117244524D02*
X140382303Y-117244524D01*
X140477541Y-117196905D01*
X140525160Y-117149286D01*
X140572779Y-117054048D01*
X140572779Y-116863571D01*
X140525160Y-116768333D01*
X140477541Y-116720714D01*
X140382303Y-116673095D01*
X139572779Y-116673095D01*
X140572779Y-115673095D02*
X140572779Y-116244524D01*
X140572779Y-115958809D02*
X139572779Y-115958809D01*
X139715637Y-116054048D01*
X139810875Y-116149286D01*
X139858494Y-116244524D01*
X139572779Y-115339762D02*
X139572779Y-114720714D01*
X139953732Y-115054048D01*
X139953732Y-114911190D01*
X140001351Y-114815952D01*
X140048970Y-114768333D01*
X140144208Y-114720714D01*
X140382303Y-114720714D01*
X140477541Y-114768333D01*
X140525160Y-114815952D01*
X140572779Y-114911190D01*
X140572779Y-115196905D01*
X140525160Y-115292143D01*
X140477541Y-115339762D01*
%TO.C,SW3*%
X141835065Y-99901190D02*
X141977922Y-99948809D01*
X142216018Y-99948809D01*
X142311256Y-99901190D01*
X142358875Y-99853571D01*
X142406494Y-99758333D01*
X142406494Y-99663095D01*
X142358875Y-99567857D01*
X142311256Y-99520238D01*
X142216018Y-99472619D01*
X142025541Y-99425000D01*
X141930303Y-99377381D01*
X141882684Y-99329762D01*
X141835065Y-99234524D01*
X141835065Y-99139286D01*
X141882684Y-99044048D01*
X141930303Y-98996429D01*
X142025541Y-98948809D01*
X142263637Y-98948809D01*
X142406494Y-98996429D01*
X142739827Y-98948809D02*
X142977922Y-99948809D01*
X143168399Y-99234524D01*
X143358875Y-99948809D01*
X143596970Y-98948809D01*
X143882684Y-98948809D02*
X144501732Y-98948809D01*
X144168399Y-99329762D01*
X144311256Y-99329762D01*
X144406494Y-99377381D01*
X144454113Y-99425000D01*
X144501732Y-99520238D01*
X144501732Y-99758333D01*
X144454113Y-99853571D01*
X144406494Y-99901190D01*
X144311256Y-99948809D01*
X144025541Y-99948809D01*
X143930303Y-99901190D01*
X143882684Y-99853571D01*
%TO.C,J5*%
X145795779Y-114434762D02*
X146510065Y-114434762D01*
X146652922Y-114482381D01*
X146748160Y-114577619D01*
X146795779Y-114720476D01*
X146795779Y-114815714D01*
X145795779Y-113482381D02*
X145795779Y-113958571D01*
X146271970Y-114006190D01*
X146224351Y-113958571D01*
X146176732Y-113863333D01*
X146176732Y-113625238D01*
X146224351Y-113530000D01*
X146271970Y-113482381D01*
X146367208Y-113434762D01*
X146605303Y-113434762D01*
X146700541Y-113482381D01*
X146748160Y-113530000D01*
X146795779Y-113625238D01*
X146795779Y-113863333D01*
X146748160Y-113958571D01*
X146700541Y-114006190D01*
%TO.C,U12*%
X122935779Y-92479524D02*
X123745303Y-92479524D01*
X123840541Y-92431905D01*
X123888160Y-92384286D01*
X123935779Y-92289048D01*
X123935779Y-92098571D01*
X123888160Y-92003333D01*
X123840541Y-91955714D01*
X123745303Y-91908095D01*
X122935779Y-91908095D01*
X123935779Y-90908095D02*
X123935779Y-91479524D01*
X123935779Y-91193809D02*
X122935779Y-91193809D01*
X123078637Y-91289048D01*
X123173875Y-91384286D01*
X123221494Y-91479524D01*
X123031018Y-90527143D02*
X122983399Y-90479524D01*
X122935779Y-90384286D01*
X122935779Y-90146190D01*
X122983399Y-90050952D01*
X123031018Y-90003333D01*
X123126256Y-89955714D01*
X123221494Y-89955714D01*
X123364351Y-90003333D01*
X123935779Y-90574762D01*
X123935779Y-89955714D01*
%TO.C,TP13*%
X112505779Y-132540000D02*
X111505779Y-132540000D01*
X112458160Y-132111429D02*
X112505779Y-131968571D01*
X112505779Y-131730476D01*
X112458160Y-131635238D01*
X112410541Y-131587619D01*
X112315303Y-131540000D01*
X112220065Y-131540000D01*
X112124827Y-131587619D01*
X112077208Y-131635238D01*
X112029589Y-131730476D01*
X111981970Y-131920952D01*
X111934351Y-132016190D01*
X111886732Y-132063809D01*
X111791494Y-132111429D01*
X111696256Y-132111429D01*
X111601018Y-132063809D01*
X111553399Y-132016190D01*
X111505779Y-131920952D01*
X111505779Y-131682857D01*
X111553399Y-131540000D01*
X112029589Y-130920952D02*
X112505779Y-130920952D01*
X111505779Y-131254286D02*
X112029589Y-130920952D01*
X111505779Y-130587619D01*
X112505779Y-130254286D02*
X111505779Y-130254286D01*
X112505779Y-129682857D01*
X111505779Y-129682857D01*
X112410541Y-128635238D02*
X112458160Y-128682857D01*
X112505779Y-128825714D01*
X112505779Y-128920952D01*
X112458160Y-129063809D01*
X112362922Y-129159048D01*
X112267684Y-129206667D01*
X112077208Y-129254286D01*
X111934351Y-129254286D01*
X111743875Y-129206667D01*
X111648637Y-129159048D01*
X111553399Y-129063809D01*
X111505779Y-128920952D01*
X111505779Y-128825714D01*
X111553399Y-128682857D01*
X111601018Y-128635238D01*
%TO.C,TP7*%
X67420779Y-140295000D02*
X66420779Y-140295000D01*
X66754113Y-139390238D02*
X67420779Y-139390238D01*
X66754113Y-139818809D02*
X67277922Y-139818809D01*
X67373160Y-139771190D01*
X67420779Y-139675952D01*
X67420779Y-139533095D01*
X67373160Y-139437857D01*
X67325541Y-139390238D01*
X67373160Y-138961667D02*
X67420779Y-138818809D01*
X67420779Y-138580714D01*
X67373160Y-138485476D01*
X67325541Y-138437857D01*
X67230303Y-138390238D01*
X67135065Y-138390238D01*
X67039827Y-138437857D01*
X66992208Y-138485476D01*
X66944589Y-138580714D01*
X66896970Y-138771190D01*
X66849351Y-138866429D01*
X66801732Y-138914048D01*
X66706494Y-138961667D01*
X66611256Y-138961667D01*
X66516018Y-138914048D01*
X66468399Y-138866429D01*
X66420779Y-138771190D01*
X66420779Y-138533095D01*
X66468399Y-138390238D01*
X67420779Y-137961667D02*
X66420779Y-137961667D01*
X66420779Y-137723571D01*
X66468399Y-137580714D01*
X66563637Y-137485476D01*
X66658875Y-137437857D01*
X66849351Y-137390238D01*
X66992208Y-137390238D01*
X67182684Y-137437857D01*
X67277922Y-137485476D01*
X67373160Y-137580714D01*
X67420779Y-137723571D01*
X67420779Y-137961667D01*
%TO.C,TP2*%
X148700779Y-62705952D02*
X147700779Y-62705952D01*
X148176970Y-61896429D02*
X148224589Y-61753571D01*
X148272208Y-61705952D01*
X148367446Y-61658333D01*
X148510303Y-61658333D01*
X148605541Y-61705952D01*
X148653160Y-61753571D01*
X148700779Y-61848809D01*
X148700779Y-62229762D01*
X147700779Y-62229762D01*
X147700779Y-61896429D01*
X147748399Y-61801190D01*
X147796018Y-61753571D01*
X147891256Y-61705952D01*
X147986494Y-61705952D01*
X148081732Y-61753571D01*
X148129351Y-61801190D01*
X148176970Y-61896429D01*
X148176970Y-62229762D01*
X148415065Y-61277381D02*
X148415065Y-60801190D01*
X148700779Y-61372619D02*
X147700779Y-61039286D01*
X148700779Y-60705952D01*
X147700779Y-60515476D02*
X147700779Y-59944048D01*
X148700779Y-60229762D02*
X147700779Y-60229762D01*
%TO.C,SW2*%
X92138160Y-50029762D02*
X92185779Y-49886905D01*
X92185779Y-49648809D01*
X92138160Y-49553571D01*
X92090541Y-49505952D01*
X91995303Y-49458333D01*
X91900065Y-49458333D01*
X91804827Y-49505952D01*
X91757208Y-49553571D01*
X91709589Y-49648809D01*
X91661970Y-49839286D01*
X91614351Y-49934524D01*
X91566732Y-49982143D01*
X91471494Y-50029762D01*
X91376256Y-50029762D01*
X91281018Y-49982143D01*
X91233399Y-49934524D01*
X91185779Y-49839286D01*
X91185779Y-49601190D01*
X91233399Y-49458333D01*
X91185779Y-49125000D02*
X92185779Y-48886905D01*
X91471494Y-48696429D01*
X92185779Y-48505952D01*
X91185779Y-48267857D01*
X91281018Y-47934524D02*
X91233399Y-47886905D01*
X91185779Y-47791667D01*
X91185779Y-47553571D01*
X91233399Y-47458333D01*
X91281018Y-47410714D01*
X91376256Y-47363095D01*
X91471494Y-47363095D01*
X91614351Y-47410714D01*
X92185779Y-47982143D01*
X92185779Y-47363095D01*
%TO.C,D11*%
X89884113Y-61213809D02*
X89884113Y-60213809D01*
X90122208Y-60213809D01*
X90265065Y-60261429D01*
X90360303Y-60356667D01*
X90407922Y-60451905D01*
X90455541Y-60642381D01*
X90455541Y-60785238D01*
X90407922Y-60975714D01*
X90360303Y-61070952D01*
X90265065Y-61166190D01*
X90122208Y-61213809D01*
X89884113Y-61213809D01*
X91407922Y-61213809D02*
X90836494Y-61213809D01*
X91122208Y-61213809D02*
X91122208Y-60213809D01*
X91026970Y-60356667D01*
X90931732Y-60451905D01*
X90836494Y-60499524D01*
X92360303Y-61213809D02*
X91788875Y-61213809D01*
X92074589Y-61213809D02*
X92074589Y-60213809D01*
X91979351Y-60356667D01*
X91884113Y-60451905D01*
X91788875Y-60499524D01*
%TO.C,U11*%
X120268779Y-117244524D02*
X121078303Y-117244524D01*
X121173541Y-117196905D01*
X121221160Y-117149286D01*
X121268779Y-117054048D01*
X121268779Y-116863571D01*
X121221160Y-116768333D01*
X121173541Y-116720714D01*
X121078303Y-116673095D01*
X120268779Y-116673095D01*
X121268779Y-115673095D02*
X121268779Y-116244524D01*
X121268779Y-115958809D02*
X120268779Y-115958809D01*
X120411637Y-116054048D01*
X120506875Y-116149286D01*
X120554494Y-116244524D01*
X121268779Y-114720714D02*
X121268779Y-115292143D01*
X121268779Y-115006429D02*
X120268779Y-115006429D01*
X120411637Y-115101667D01*
X120506875Y-115196905D01*
X120554494Y-115292143D01*
%TO.C,SW1*%
X104295065Y-143811190D02*
X104437922Y-143858809D01*
X104676018Y-143858809D01*
X104771256Y-143811190D01*
X104818875Y-143763571D01*
X104866494Y-143668333D01*
X104866494Y-143573095D01*
X104818875Y-143477857D01*
X104771256Y-143430238D01*
X104676018Y-143382619D01*
X104485541Y-143335000D01*
X104390303Y-143287381D01*
X104342684Y-143239762D01*
X104295065Y-143144524D01*
X104295065Y-143049286D01*
X104342684Y-142954048D01*
X104390303Y-142906429D01*
X104485541Y-142858809D01*
X104723637Y-142858809D01*
X104866494Y-142906429D01*
X105199827Y-142858809D02*
X105437922Y-143858809D01*
X105628399Y-143144524D01*
X105818875Y-143858809D01*
X106056970Y-142858809D01*
X106961732Y-143858809D02*
X106390303Y-143858809D01*
X106676018Y-143858809D02*
X106676018Y-142858809D01*
X106580779Y-143001667D01*
X106485541Y-143096905D01*
X106390303Y-143144524D01*
%TO.C,RV3*%
X75898160Y-74548809D02*
X75564827Y-74072619D01*
X75326732Y-74548809D02*
X75326732Y-73548809D01*
X75707684Y-73548809D01*
X75802922Y-73596429D01*
X75850541Y-73644048D01*
X75898160Y-73739286D01*
X75898160Y-73882143D01*
X75850541Y-73977381D01*
X75802922Y-74025000D01*
X75707684Y-74072619D01*
X75326732Y-74072619D01*
X76183875Y-73548809D02*
X76517208Y-74548809D01*
X76850541Y-73548809D01*
X77088637Y-73548809D02*
X77707684Y-73548809D01*
X77374351Y-73929762D01*
X77517208Y-73929762D01*
X77612446Y-73977381D01*
X77660065Y-74025000D01*
X77707684Y-74120238D01*
X77707684Y-74358333D01*
X77660065Y-74453571D01*
X77612446Y-74501190D01*
X77517208Y-74548809D01*
X77231494Y-74548809D01*
X77136256Y-74501190D01*
X77088637Y-74453571D01*
%TO.C,RV2*%
X146795779Y-98186667D02*
X146319589Y-98520000D01*
X146795779Y-98758095D02*
X145795779Y-98758095D01*
X145795779Y-98377143D01*
X145843399Y-98281905D01*
X145891018Y-98234286D01*
X145986256Y-98186667D01*
X146129113Y-98186667D01*
X146224351Y-98234286D01*
X146271970Y-98281905D01*
X146319589Y-98377143D01*
X146319589Y-98758095D01*
X145795779Y-97900952D02*
X146795779Y-97567619D01*
X145795779Y-97234286D01*
X145891018Y-96948571D02*
X145843399Y-96900952D01*
X145795779Y-96805714D01*
X145795779Y-96567619D01*
X145843399Y-96472381D01*
X145891018Y-96424762D01*
X145986256Y-96377143D01*
X146081494Y-96377143D01*
X146224351Y-96424762D01*
X146795779Y-96996190D01*
X146795779Y-96377143D01*
%TO.C,RV1*%
X146795779Y-75326667D02*
X146319589Y-75660000D01*
X146795779Y-75898095D02*
X145795779Y-75898095D01*
X145795779Y-75517143D01*
X145843399Y-75421905D01*
X145891018Y-75374286D01*
X145986256Y-75326667D01*
X146129113Y-75326667D01*
X146224351Y-75374286D01*
X146271970Y-75421905D01*
X146319589Y-75517143D01*
X146319589Y-75898095D01*
X145795779Y-75040952D02*
X146795779Y-74707619D01*
X145795779Y-74374286D01*
X146795779Y-73517143D02*
X146795779Y-74088571D01*
X146795779Y-73802857D02*
X145795779Y-73802857D01*
X145938637Y-73898095D01*
X146033875Y-73993333D01*
X146081494Y-74088571D01*
%TO.C,J8*%
X79335065Y-128158809D02*
X79335065Y-128873095D01*
X79287446Y-129015952D01*
X79192208Y-129111190D01*
X79049351Y-129158809D01*
X78954113Y-129158809D01*
X79954113Y-128587381D02*
X79858875Y-128539762D01*
X79811256Y-128492143D01*
X79763637Y-128396905D01*
X79763637Y-128349286D01*
X79811256Y-128254048D01*
X79858875Y-128206429D01*
X79954113Y-128158809D01*
X80144589Y-128158809D01*
X80239827Y-128206429D01*
X80287446Y-128254048D01*
X80335065Y-128349286D01*
X80335065Y-128396905D01*
X80287446Y-128492143D01*
X80239827Y-128539762D01*
X80144589Y-128587381D01*
X79954113Y-128587381D01*
X79858875Y-128635000D01*
X79811256Y-128682619D01*
X79763637Y-128777857D01*
X79763637Y-128968333D01*
X79811256Y-129063571D01*
X79858875Y-129111190D01*
X79954113Y-129158809D01*
X80144589Y-129158809D01*
X80239827Y-129111190D01*
X80287446Y-129063571D01*
X80335065Y-128968333D01*
X80335065Y-128777857D01*
X80287446Y-128682619D01*
X80239827Y-128635000D01*
X80144589Y-128587381D01*
%TO.C,J6*%
X146010065Y-139588809D02*
X146010065Y-140303095D01*
X145962446Y-140445952D01*
X145867208Y-140541190D01*
X145724351Y-140588809D01*
X145629113Y-140588809D01*
X146914827Y-139588809D02*
X146724351Y-139588809D01*
X146629113Y-139636429D01*
X146581494Y-139684048D01*
X146486256Y-139826905D01*
X146438637Y-140017381D01*
X146438637Y-140398333D01*
X146486256Y-140493571D01*
X146533875Y-140541190D01*
X146629113Y-140588809D01*
X146819589Y-140588809D01*
X146914827Y-140541190D01*
X146962446Y-140493571D01*
X147010065Y-140398333D01*
X147010065Y-140160238D01*
X146962446Y-140065000D01*
X146914827Y-140017381D01*
X146819589Y-139969762D01*
X146629113Y-139969762D01*
X146533875Y-140017381D01*
X146486256Y-140065000D01*
X146438637Y-140160238D01*
%TO.C,J4*%
X151725065Y-83073809D02*
X151725065Y-83788095D01*
X151677446Y-83930952D01*
X151582208Y-84026190D01*
X151439351Y-84073809D01*
X151344113Y-84073809D01*
X152629827Y-83407143D02*
X152629827Y-84073809D01*
X152391732Y-83026190D02*
X152153637Y-83740476D01*
X152772684Y-83740476D01*
%TO.C,J2*%
X135000779Y-47759762D02*
X135715065Y-47759762D01*
X135857922Y-47807381D01*
X135953160Y-47902619D01*
X136000779Y-48045476D01*
X136000779Y-48140714D01*
X135096018Y-47331190D02*
X135048399Y-47283571D01*
X135000779Y-47188333D01*
X135000779Y-46950238D01*
X135048399Y-46855000D01*
X135096018Y-46807381D01*
X135191256Y-46759762D01*
X135286494Y-46759762D01*
X135429351Y-46807381D01*
X136000779Y-47378809D01*
X136000779Y-46759762D01*
%TO.C,J1*%
X109520779Y-51569762D02*
X110235065Y-51569762D01*
X110377922Y-51617381D01*
X110473160Y-51712619D01*
X110520779Y-51855476D01*
X110520779Y-51950714D01*
X110520779Y-50569762D02*
X110520779Y-51141190D01*
X110520779Y-50855476D02*
X109520779Y-50855476D01*
X109663637Y-50950714D01*
X109758875Y-51045952D01*
X109806494Y-51141190D01*
%TO.C,D10*%
X152114113Y-131698809D02*
X152114113Y-130698809D01*
X152352208Y-130698809D01*
X152495065Y-130746429D01*
X152590303Y-130841667D01*
X152637922Y-130936905D01*
X152685541Y-131127381D01*
X152685541Y-131270238D01*
X152637922Y-131460714D01*
X152590303Y-131555952D01*
X152495065Y-131651190D01*
X152352208Y-131698809D01*
X152114113Y-131698809D01*
X153637922Y-131698809D02*
X153066494Y-131698809D01*
X153352208Y-131698809D02*
X153352208Y-130698809D01*
X153256970Y-130841667D01*
X153161732Y-130936905D01*
X153066494Y-130984524D01*
X154256970Y-130698809D02*
X154352208Y-130698809D01*
X154447446Y-130746429D01*
X154495065Y-130794048D01*
X154542684Y-130889286D01*
X154590303Y-131079762D01*
X154590303Y-131317857D01*
X154542684Y-131508333D01*
X154495065Y-131603571D01*
X154447446Y-131651190D01*
X154352208Y-131698809D01*
X154256970Y-131698809D01*
X154161732Y-131651190D01*
X154114113Y-131603571D01*
X154066494Y-131508333D01*
X154018875Y-131317857D01*
X154018875Y-131079762D01*
X154066494Y-130889286D01*
X154114113Y-130794048D01*
X154161732Y-130746429D01*
X154256970Y-130698809D01*
%TO.C,D9*%
X96075303Y-143913809D02*
X96075303Y-142913809D01*
X96313399Y-142913809D01*
X96456256Y-142961429D01*
X96551494Y-143056667D01*
X96599113Y-143151905D01*
X96646732Y-143342381D01*
X96646732Y-143485238D01*
X96599113Y-143675714D01*
X96551494Y-143770952D01*
X96456256Y-143866190D01*
X96313399Y-143913809D01*
X96075303Y-143913809D01*
X97122922Y-143913809D02*
X97313399Y-143913809D01*
X97408637Y-143866190D01*
X97456256Y-143818571D01*
X97551494Y-143675714D01*
X97599113Y-143485238D01*
X97599113Y-143104286D01*
X97551494Y-143009048D01*
X97503875Y-142961429D01*
X97408637Y-142913809D01*
X97218160Y-142913809D01*
X97122922Y-142961429D01*
X97075303Y-143009048D01*
X97027684Y-143104286D01*
X97027684Y-143342381D01*
X97075303Y-143437619D01*
X97122922Y-143485238D01*
X97218160Y-143532857D01*
X97408637Y-143532857D01*
X97503875Y-143485238D01*
X97551494Y-143437619D01*
X97599113Y-143342381D01*
%TO.C,D8*%
X123380303Y-70103809D02*
X123380303Y-69103809D01*
X123618399Y-69103809D01*
X123761256Y-69151429D01*
X123856494Y-69246667D01*
X123904113Y-69341905D01*
X123951732Y-69532381D01*
X123951732Y-69675238D01*
X123904113Y-69865714D01*
X123856494Y-69960952D01*
X123761256Y-70056190D01*
X123618399Y-70103809D01*
X123380303Y-70103809D01*
X124523160Y-69532381D02*
X124427922Y-69484762D01*
X124380303Y-69437143D01*
X124332684Y-69341905D01*
X124332684Y-69294286D01*
X124380303Y-69199048D01*
X124427922Y-69151429D01*
X124523160Y-69103809D01*
X124713637Y-69103809D01*
X124808875Y-69151429D01*
X124856494Y-69199048D01*
X124904113Y-69294286D01*
X124904113Y-69341905D01*
X124856494Y-69437143D01*
X124808875Y-69484762D01*
X124713637Y-69532381D01*
X124523160Y-69532381D01*
X124427922Y-69580000D01*
X124380303Y-69627619D01*
X124332684Y-69722857D01*
X124332684Y-69913333D01*
X124380303Y-70008571D01*
X124427922Y-70056190D01*
X124523160Y-70103809D01*
X124713637Y-70103809D01*
X124808875Y-70056190D01*
X124856494Y-70008571D01*
X124904113Y-69913333D01*
X124904113Y-69722857D01*
X124856494Y-69627619D01*
X124808875Y-69580000D01*
X124713637Y-69532381D01*
%TO.C,D7*%
X131635303Y-70103809D02*
X131635303Y-69103809D01*
X131873399Y-69103809D01*
X132016256Y-69151429D01*
X132111494Y-69246667D01*
X132159113Y-69341905D01*
X132206732Y-69532381D01*
X132206732Y-69675238D01*
X132159113Y-69865714D01*
X132111494Y-69960952D01*
X132016256Y-70056190D01*
X131873399Y-70103809D01*
X131635303Y-70103809D01*
X132540065Y-69103809D02*
X133206732Y-69103809D01*
X132778160Y-70103809D01*
%TO.C,C20*%
X71405541Y-89693571D02*
X71357922Y-89741190D01*
X71215065Y-89788809D01*
X71119827Y-89788809D01*
X70976970Y-89741190D01*
X70881732Y-89645952D01*
X70834113Y-89550714D01*
X70786494Y-89360238D01*
X70786494Y-89217381D01*
X70834113Y-89026905D01*
X70881732Y-88931667D01*
X70976970Y-88836429D01*
X71119827Y-88788809D01*
X71215065Y-88788809D01*
X71357922Y-88836429D01*
X71405541Y-88884048D01*
X71786494Y-88884048D02*
X71834113Y-88836429D01*
X71929351Y-88788809D01*
X72167446Y-88788809D01*
X72262684Y-88836429D01*
X72310303Y-88884048D01*
X72357922Y-88979286D01*
X72357922Y-89074524D01*
X72310303Y-89217381D01*
X71738875Y-89788809D01*
X72357922Y-89788809D01*
X72976970Y-88788809D02*
X73072208Y-88788809D01*
X73167446Y-88836429D01*
X73215065Y-88884048D01*
X73262684Y-88979286D01*
X73310303Y-89169762D01*
X73310303Y-89407857D01*
X73262684Y-89598333D01*
X73215065Y-89693571D01*
X73167446Y-89741190D01*
X73072208Y-89788809D01*
X72976970Y-89788809D01*
X72881732Y-89741190D01*
X72834113Y-89693571D01*
X72786494Y-89598333D01*
X72738875Y-89407857D01*
X72738875Y-89169762D01*
X72786494Y-88979286D01*
X72834113Y-88884048D01*
X72881732Y-88836429D01*
X72976970Y-88788809D01*
%TO.C,C16*%
X71405541Y-92233571D02*
X71357922Y-92281190D01*
X71215065Y-92328809D01*
X71119827Y-92328809D01*
X70976970Y-92281190D01*
X70881732Y-92185952D01*
X70834113Y-92090714D01*
X70786494Y-91900238D01*
X70786494Y-91757381D01*
X70834113Y-91566905D01*
X70881732Y-91471667D01*
X70976970Y-91376429D01*
X71119827Y-91328809D01*
X71215065Y-91328809D01*
X71357922Y-91376429D01*
X71405541Y-91424048D01*
X72357922Y-92328809D02*
X71786494Y-92328809D01*
X72072208Y-92328809D02*
X72072208Y-91328809D01*
X71976970Y-91471667D01*
X71881732Y-91566905D01*
X71786494Y-91614524D01*
X73215065Y-91328809D02*
X73024589Y-91328809D01*
X72929351Y-91376429D01*
X72881732Y-91424048D01*
X72786494Y-91566905D01*
X72738875Y-91757381D01*
X72738875Y-92138333D01*
X72786494Y-92233571D01*
X72834113Y-92281190D01*
X72929351Y-92328809D01*
X73119827Y-92328809D01*
X73215065Y-92281190D01*
X73262684Y-92233571D01*
X73310303Y-92138333D01*
X73310303Y-91900238D01*
X73262684Y-91805000D01*
X73215065Y-91757381D01*
X73119827Y-91709762D01*
X72929351Y-91709762D01*
X72834113Y-91757381D01*
X72786494Y-91805000D01*
X72738875Y-91900238D01*
%TO.C,Y1*%
X77922208Y-109632619D02*
X77922208Y-110108809D01*
X77588875Y-109108809D02*
X77922208Y-109632619D01*
X78255541Y-109108809D01*
X79112684Y-110108809D02*
X78541256Y-110108809D01*
X78826970Y-110108809D02*
X78826970Y-109108809D01*
X78731732Y-109251667D01*
X78636494Y-109346905D01*
X78541256Y-109394524D01*
%TO.C,C14*%
X71405541Y-94773571D02*
X71357922Y-94821190D01*
X71215065Y-94868809D01*
X71119827Y-94868809D01*
X70976970Y-94821190D01*
X70881732Y-94725952D01*
X70834113Y-94630714D01*
X70786494Y-94440238D01*
X70786494Y-94297381D01*
X70834113Y-94106905D01*
X70881732Y-94011667D01*
X70976970Y-93916429D01*
X71119827Y-93868809D01*
X71215065Y-93868809D01*
X71357922Y-93916429D01*
X71405541Y-93964048D01*
X72357922Y-94868809D02*
X71786494Y-94868809D01*
X72072208Y-94868809D02*
X72072208Y-93868809D01*
X71976970Y-94011667D01*
X71881732Y-94106905D01*
X71786494Y-94154524D01*
X73215065Y-94202143D02*
X73215065Y-94868809D01*
X72976970Y-93821190D02*
X72738875Y-94535476D01*
X73357922Y-94535476D01*
%TO.C,C15*%
X71405541Y-97313571D02*
X71357922Y-97361190D01*
X71215065Y-97408809D01*
X71119827Y-97408809D01*
X70976970Y-97361190D01*
X70881732Y-97265952D01*
X70834113Y-97170714D01*
X70786494Y-96980238D01*
X70786494Y-96837381D01*
X70834113Y-96646905D01*
X70881732Y-96551667D01*
X70976970Y-96456429D01*
X71119827Y-96408809D01*
X71215065Y-96408809D01*
X71357922Y-96456429D01*
X71405541Y-96504048D01*
X72357922Y-97408809D02*
X71786494Y-97408809D01*
X72072208Y-97408809D02*
X72072208Y-96408809D01*
X71976970Y-96551667D01*
X71881732Y-96646905D01*
X71786494Y-96694524D01*
X73262684Y-96408809D02*
X72786494Y-96408809D01*
X72738875Y-96885000D01*
X72786494Y-96837381D01*
X72881732Y-96789762D01*
X73119827Y-96789762D01*
X73215065Y-96837381D01*
X73262684Y-96885000D01*
X73310303Y-96980238D01*
X73310303Y-97218333D01*
X73262684Y-97313571D01*
X73215065Y-97361190D01*
X73119827Y-97408809D01*
X72881732Y-97408809D01*
X72786494Y-97361190D01*
X72738875Y-97313571D01*
%TO.C,C18*%
X75215541Y-104933571D02*
X75167922Y-104981190D01*
X75025065Y-105028809D01*
X74929827Y-105028809D01*
X74786970Y-104981190D01*
X74691732Y-104885952D01*
X74644113Y-104790714D01*
X74596494Y-104600238D01*
X74596494Y-104457381D01*
X74644113Y-104266905D01*
X74691732Y-104171667D01*
X74786970Y-104076429D01*
X74929827Y-104028809D01*
X75025065Y-104028809D01*
X75167922Y-104076429D01*
X75215541Y-104124048D01*
X76167922Y-105028809D02*
X75596494Y-105028809D01*
X75882208Y-105028809D02*
X75882208Y-104028809D01*
X75786970Y-104171667D01*
X75691732Y-104266905D01*
X75596494Y-104314524D01*
X76739351Y-104457381D02*
X76644113Y-104409762D01*
X76596494Y-104362143D01*
X76548875Y-104266905D01*
X76548875Y-104219286D01*
X76596494Y-104124048D01*
X76644113Y-104076429D01*
X76739351Y-104028809D01*
X76929827Y-104028809D01*
X77025065Y-104076429D01*
X77072684Y-104124048D01*
X77120303Y-104219286D01*
X77120303Y-104266905D01*
X77072684Y-104362143D01*
X77025065Y-104409762D01*
X76929827Y-104457381D01*
X76739351Y-104457381D01*
X76644113Y-104505000D01*
X76596494Y-104552619D01*
X76548875Y-104647857D01*
X76548875Y-104838333D01*
X76596494Y-104933571D01*
X76644113Y-104981190D01*
X76739351Y-105028809D01*
X76929827Y-105028809D01*
X77025065Y-104981190D01*
X77072684Y-104933571D01*
X77120303Y-104838333D01*
X77120303Y-104647857D01*
X77072684Y-104552619D01*
X77025065Y-104505000D01*
X76929827Y-104457381D01*
%TO.C,C19*%
X74580541Y-115093571D02*
X74532922Y-115141190D01*
X74390065Y-115188809D01*
X74294827Y-115188809D01*
X74151970Y-115141190D01*
X74056732Y-115045952D01*
X74009113Y-114950714D01*
X73961494Y-114760238D01*
X73961494Y-114617381D01*
X74009113Y-114426905D01*
X74056732Y-114331667D01*
X74151970Y-114236429D01*
X74294827Y-114188809D01*
X74390065Y-114188809D01*
X74532922Y-114236429D01*
X74580541Y-114284048D01*
X75532922Y-115188809D02*
X74961494Y-115188809D01*
X75247208Y-115188809D02*
X75247208Y-114188809D01*
X75151970Y-114331667D01*
X75056732Y-114426905D01*
X74961494Y-114474524D01*
X76009113Y-115188809D02*
X76199589Y-115188809D01*
X76294827Y-115141190D01*
X76342446Y-115093571D01*
X76437684Y-114950714D01*
X76485303Y-114760238D01*
X76485303Y-114379286D01*
X76437684Y-114284048D01*
X76390065Y-114236429D01*
X76294827Y-114188809D01*
X76104351Y-114188809D01*
X76009113Y-114236429D01*
X75961494Y-114284048D01*
X75913875Y-114379286D01*
X75913875Y-114617381D01*
X75961494Y-114712619D01*
X76009113Y-114760238D01*
X76104351Y-114807857D01*
X76294827Y-114807857D01*
X76390065Y-114760238D01*
X76437684Y-114712619D01*
X76485303Y-114617381D01*
%TO.C,R37*%
X67420779Y-106489286D02*
X66944589Y-106822619D01*
X67420779Y-107060714D02*
X66420779Y-107060714D01*
X66420779Y-106679762D01*
X66468399Y-106584524D01*
X66516018Y-106536905D01*
X66611256Y-106489286D01*
X66754113Y-106489286D01*
X66849351Y-106536905D01*
X66896970Y-106584524D01*
X66944589Y-106679762D01*
X66944589Y-107060714D01*
X66420779Y-106155952D02*
X66420779Y-105536905D01*
X66801732Y-105870238D01*
X66801732Y-105727381D01*
X66849351Y-105632143D01*
X66896970Y-105584524D01*
X66992208Y-105536905D01*
X67230303Y-105536905D01*
X67325541Y-105584524D01*
X67373160Y-105632143D01*
X67420779Y-105727381D01*
X67420779Y-106013095D01*
X67373160Y-106108333D01*
X67325541Y-106155952D01*
X66420779Y-105203571D02*
X66420779Y-104536905D01*
X67420779Y-104965476D01*
%TD*%
M02*
