G04 #@! TF.GenerationSoftware,KiCad,Pcbnew,5.1.5-52549c5~84~ubuntu18.04.1*
G04 #@! TF.CreationDate,2020-03-18T13:38:27+01:00*
G04 #@! TF.ProjectId,pcb_loadcell-dev-hx711,7063625f-6c6f-4616-9463-656c6c2d6465,rev?*
G04 #@! TF.SameCoordinates,Original*
G04 #@! TF.FileFunction,Paste,Top*
G04 #@! TF.FilePolarity,Positive*
%FSLAX46Y46*%
G04 Gerber Fmt 4.6, Leading zero omitted, Abs format (unit mm)*
G04 Created by KiCad (PCBNEW 5.1.5-52549c5~84~ubuntu18.04.1) date 2020-03-18 13:38:27*
%MOMM*%
%LPD*%
G04 APERTURE LIST*
%ADD10C,0.100000*%
G04 APERTURE END LIST*
D10*
G36*
X63769504Y-100091204D02*
G01*
X63793773Y-100094804D01*
X63817571Y-100100765D01*
X63840671Y-100109030D01*
X63862849Y-100119520D01*
X63883893Y-100132133D01*
X63903598Y-100146747D01*
X63921777Y-100163223D01*
X63938253Y-100181402D01*
X63952867Y-100201107D01*
X63965480Y-100222151D01*
X63975970Y-100244329D01*
X63984235Y-100267429D01*
X63990196Y-100291227D01*
X63993796Y-100315496D01*
X63995000Y-100340000D01*
X63995000Y-101590000D01*
X63993796Y-101614504D01*
X63990196Y-101638773D01*
X63984235Y-101662571D01*
X63975970Y-101685671D01*
X63965480Y-101707849D01*
X63952867Y-101728893D01*
X63938253Y-101748598D01*
X63921777Y-101766777D01*
X63903598Y-101783253D01*
X63883893Y-101797867D01*
X63862849Y-101810480D01*
X63840671Y-101820970D01*
X63817571Y-101829235D01*
X63793773Y-101835196D01*
X63769504Y-101838796D01*
X63745000Y-101840000D01*
X62820000Y-101840000D01*
X62795496Y-101838796D01*
X62771227Y-101835196D01*
X62747429Y-101829235D01*
X62724329Y-101820970D01*
X62702151Y-101810480D01*
X62681107Y-101797867D01*
X62661402Y-101783253D01*
X62643223Y-101766777D01*
X62626747Y-101748598D01*
X62612133Y-101728893D01*
X62599520Y-101707849D01*
X62589030Y-101685671D01*
X62580765Y-101662571D01*
X62574804Y-101638773D01*
X62571204Y-101614504D01*
X62570000Y-101590000D01*
X62570000Y-100340000D01*
X62571204Y-100315496D01*
X62574804Y-100291227D01*
X62580765Y-100267429D01*
X62589030Y-100244329D01*
X62599520Y-100222151D01*
X62612133Y-100201107D01*
X62626747Y-100181402D01*
X62643223Y-100163223D01*
X62661402Y-100146747D01*
X62681107Y-100132133D01*
X62702151Y-100119520D01*
X62724329Y-100109030D01*
X62747429Y-100100765D01*
X62771227Y-100094804D01*
X62795496Y-100091204D01*
X62820000Y-100090000D01*
X63745000Y-100090000D01*
X63769504Y-100091204D01*
G37*
G36*
X66744504Y-100091204D02*
G01*
X66768773Y-100094804D01*
X66792571Y-100100765D01*
X66815671Y-100109030D01*
X66837849Y-100119520D01*
X66858893Y-100132133D01*
X66878598Y-100146747D01*
X66896777Y-100163223D01*
X66913253Y-100181402D01*
X66927867Y-100201107D01*
X66940480Y-100222151D01*
X66950970Y-100244329D01*
X66959235Y-100267429D01*
X66965196Y-100291227D01*
X66968796Y-100315496D01*
X66970000Y-100340000D01*
X66970000Y-101590000D01*
X66968796Y-101614504D01*
X66965196Y-101638773D01*
X66959235Y-101662571D01*
X66950970Y-101685671D01*
X66940480Y-101707849D01*
X66927867Y-101728893D01*
X66913253Y-101748598D01*
X66896777Y-101766777D01*
X66878598Y-101783253D01*
X66858893Y-101797867D01*
X66837849Y-101810480D01*
X66815671Y-101820970D01*
X66792571Y-101829235D01*
X66768773Y-101835196D01*
X66744504Y-101838796D01*
X66720000Y-101840000D01*
X65795000Y-101840000D01*
X65770496Y-101838796D01*
X65746227Y-101835196D01*
X65722429Y-101829235D01*
X65699329Y-101820970D01*
X65677151Y-101810480D01*
X65656107Y-101797867D01*
X65636402Y-101783253D01*
X65618223Y-101766777D01*
X65601747Y-101748598D01*
X65587133Y-101728893D01*
X65574520Y-101707849D01*
X65564030Y-101685671D01*
X65555765Y-101662571D01*
X65549804Y-101638773D01*
X65546204Y-101614504D01*
X65545000Y-101590000D01*
X65545000Y-100340000D01*
X65546204Y-100315496D01*
X65549804Y-100291227D01*
X65555765Y-100267429D01*
X65564030Y-100244329D01*
X65574520Y-100222151D01*
X65587133Y-100201107D01*
X65601747Y-100181402D01*
X65618223Y-100163223D01*
X65636402Y-100146747D01*
X65656107Y-100132133D01*
X65677151Y-100119520D01*
X65699329Y-100109030D01*
X65722429Y-100100765D01*
X65746227Y-100094804D01*
X65770496Y-100091204D01*
X65795000Y-100090000D01*
X66720000Y-100090000D01*
X66744504Y-100091204D01*
G37*
G36*
X58689504Y-100091204D02*
G01*
X58713773Y-100094804D01*
X58737571Y-100100765D01*
X58760671Y-100109030D01*
X58782849Y-100119520D01*
X58803893Y-100132133D01*
X58823598Y-100146747D01*
X58841777Y-100163223D01*
X58858253Y-100181402D01*
X58872867Y-100201107D01*
X58885480Y-100222151D01*
X58895970Y-100244329D01*
X58904235Y-100267429D01*
X58910196Y-100291227D01*
X58913796Y-100315496D01*
X58915000Y-100340000D01*
X58915000Y-101590000D01*
X58913796Y-101614504D01*
X58910196Y-101638773D01*
X58904235Y-101662571D01*
X58895970Y-101685671D01*
X58885480Y-101707849D01*
X58872867Y-101728893D01*
X58858253Y-101748598D01*
X58841777Y-101766777D01*
X58823598Y-101783253D01*
X58803893Y-101797867D01*
X58782849Y-101810480D01*
X58760671Y-101820970D01*
X58737571Y-101829235D01*
X58713773Y-101835196D01*
X58689504Y-101838796D01*
X58665000Y-101840000D01*
X57740000Y-101840000D01*
X57715496Y-101838796D01*
X57691227Y-101835196D01*
X57667429Y-101829235D01*
X57644329Y-101820970D01*
X57622151Y-101810480D01*
X57601107Y-101797867D01*
X57581402Y-101783253D01*
X57563223Y-101766777D01*
X57546747Y-101748598D01*
X57532133Y-101728893D01*
X57519520Y-101707849D01*
X57509030Y-101685671D01*
X57500765Y-101662571D01*
X57494804Y-101638773D01*
X57491204Y-101614504D01*
X57490000Y-101590000D01*
X57490000Y-100340000D01*
X57491204Y-100315496D01*
X57494804Y-100291227D01*
X57500765Y-100267429D01*
X57509030Y-100244329D01*
X57519520Y-100222151D01*
X57532133Y-100201107D01*
X57546747Y-100181402D01*
X57563223Y-100163223D01*
X57581402Y-100146747D01*
X57601107Y-100132133D01*
X57622151Y-100119520D01*
X57644329Y-100109030D01*
X57667429Y-100100765D01*
X57691227Y-100094804D01*
X57715496Y-100091204D01*
X57740000Y-100090000D01*
X58665000Y-100090000D01*
X58689504Y-100091204D01*
G37*
G36*
X61664504Y-100091204D02*
G01*
X61688773Y-100094804D01*
X61712571Y-100100765D01*
X61735671Y-100109030D01*
X61757849Y-100119520D01*
X61778893Y-100132133D01*
X61798598Y-100146747D01*
X61816777Y-100163223D01*
X61833253Y-100181402D01*
X61847867Y-100201107D01*
X61860480Y-100222151D01*
X61870970Y-100244329D01*
X61879235Y-100267429D01*
X61885196Y-100291227D01*
X61888796Y-100315496D01*
X61890000Y-100340000D01*
X61890000Y-101590000D01*
X61888796Y-101614504D01*
X61885196Y-101638773D01*
X61879235Y-101662571D01*
X61870970Y-101685671D01*
X61860480Y-101707849D01*
X61847867Y-101728893D01*
X61833253Y-101748598D01*
X61816777Y-101766777D01*
X61798598Y-101783253D01*
X61778893Y-101797867D01*
X61757849Y-101810480D01*
X61735671Y-101820970D01*
X61712571Y-101829235D01*
X61688773Y-101835196D01*
X61664504Y-101838796D01*
X61640000Y-101840000D01*
X60715000Y-101840000D01*
X60690496Y-101838796D01*
X60666227Y-101835196D01*
X60642429Y-101829235D01*
X60619329Y-101820970D01*
X60597151Y-101810480D01*
X60576107Y-101797867D01*
X60556402Y-101783253D01*
X60538223Y-101766777D01*
X60521747Y-101748598D01*
X60507133Y-101728893D01*
X60494520Y-101707849D01*
X60484030Y-101685671D01*
X60475765Y-101662571D01*
X60469804Y-101638773D01*
X60466204Y-101614504D01*
X60465000Y-101590000D01*
X60465000Y-100340000D01*
X60466204Y-100315496D01*
X60469804Y-100291227D01*
X60475765Y-100267429D01*
X60484030Y-100244329D01*
X60494520Y-100222151D01*
X60507133Y-100201107D01*
X60521747Y-100181402D01*
X60538223Y-100163223D01*
X60556402Y-100146747D01*
X60576107Y-100132133D01*
X60597151Y-100119520D01*
X60619329Y-100109030D01*
X60642429Y-100100765D01*
X60666227Y-100094804D01*
X60690496Y-100091204D01*
X60715000Y-100090000D01*
X61640000Y-100090000D01*
X61664504Y-100091204D01*
G37*
G36*
X59759504Y-77866204D02*
G01*
X59783773Y-77869804D01*
X59807571Y-77875765D01*
X59830671Y-77884030D01*
X59852849Y-77894520D01*
X59873893Y-77907133D01*
X59893598Y-77921747D01*
X59911777Y-77938223D01*
X59928253Y-77956402D01*
X59942867Y-77976107D01*
X59955480Y-77997151D01*
X59965970Y-78019329D01*
X59974235Y-78042429D01*
X59980196Y-78066227D01*
X59983796Y-78090496D01*
X59985000Y-78115000D01*
X59985000Y-79365000D01*
X59983796Y-79389504D01*
X59980196Y-79413773D01*
X59974235Y-79437571D01*
X59965970Y-79460671D01*
X59955480Y-79482849D01*
X59942867Y-79503893D01*
X59928253Y-79523598D01*
X59911777Y-79541777D01*
X59893598Y-79558253D01*
X59873893Y-79572867D01*
X59852849Y-79585480D01*
X59830671Y-79595970D01*
X59807571Y-79604235D01*
X59783773Y-79610196D01*
X59759504Y-79613796D01*
X59735000Y-79615000D01*
X58810000Y-79615000D01*
X58785496Y-79613796D01*
X58761227Y-79610196D01*
X58737429Y-79604235D01*
X58714329Y-79595970D01*
X58692151Y-79585480D01*
X58671107Y-79572867D01*
X58651402Y-79558253D01*
X58633223Y-79541777D01*
X58616747Y-79523598D01*
X58602133Y-79503893D01*
X58589520Y-79482849D01*
X58579030Y-79460671D01*
X58570765Y-79437571D01*
X58564804Y-79413773D01*
X58561204Y-79389504D01*
X58560000Y-79365000D01*
X58560000Y-78115000D01*
X58561204Y-78090496D01*
X58564804Y-78066227D01*
X58570765Y-78042429D01*
X58579030Y-78019329D01*
X58589520Y-77997151D01*
X58602133Y-77976107D01*
X58616747Y-77956402D01*
X58633223Y-77938223D01*
X58651402Y-77921747D01*
X58671107Y-77907133D01*
X58692151Y-77894520D01*
X58714329Y-77884030D01*
X58737429Y-77875765D01*
X58761227Y-77869804D01*
X58785496Y-77866204D01*
X58810000Y-77865000D01*
X59735000Y-77865000D01*
X59759504Y-77866204D01*
G37*
G36*
X56784504Y-77866204D02*
G01*
X56808773Y-77869804D01*
X56832571Y-77875765D01*
X56855671Y-77884030D01*
X56877849Y-77894520D01*
X56898893Y-77907133D01*
X56918598Y-77921747D01*
X56936777Y-77938223D01*
X56953253Y-77956402D01*
X56967867Y-77976107D01*
X56980480Y-77997151D01*
X56990970Y-78019329D01*
X56999235Y-78042429D01*
X57005196Y-78066227D01*
X57008796Y-78090496D01*
X57010000Y-78115000D01*
X57010000Y-79365000D01*
X57008796Y-79389504D01*
X57005196Y-79413773D01*
X56999235Y-79437571D01*
X56990970Y-79460671D01*
X56980480Y-79482849D01*
X56967867Y-79503893D01*
X56953253Y-79523598D01*
X56936777Y-79541777D01*
X56918598Y-79558253D01*
X56898893Y-79572867D01*
X56877849Y-79585480D01*
X56855671Y-79595970D01*
X56832571Y-79604235D01*
X56808773Y-79610196D01*
X56784504Y-79613796D01*
X56760000Y-79615000D01*
X55835000Y-79615000D01*
X55810496Y-79613796D01*
X55786227Y-79610196D01*
X55762429Y-79604235D01*
X55739329Y-79595970D01*
X55717151Y-79585480D01*
X55696107Y-79572867D01*
X55676402Y-79558253D01*
X55658223Y-79541777D01*
X55641747Y-79523598D01*
X55627133Y-79503893D01*
X55614520Y-79482849D01*
X55604030Y-79460671D01*
X55595765Y-79437571D01*
X55589804Y-79413773D01*
X55586204Y-79389504D01*
X55585000Y-79365000D01*
X55585000Y-78115000D01*
X55586204Y-78090496D01*
X55589804Y-78066227D01*
X55595765Y-78042429D01*
X55604030Y-78019329D01*
X55614520Y-77997151D01*
X55627133Y-77976107D01*
X55641747Y-77956402D01*
X55658223Y-77938223D01*
X55676402Y-77921747D01*
X55696107Y-77907133D01*
X55717151Y-77894520D01*
X55739329Y-77884030D01*
X55762429Y-77875765D01*
X55786227Y-77869804D01*
X55810496Y-77866204D01*
X55835000Y-77865000D01*
X56760000Y-77865000D01*
X56784504Y-77866204D01*
G37*
G36*
X56784504Y-80406204D02*
G01*
X56808773Y-80409804D01*
X56832571Y-80415765D01*
X56855671Y-80424030D01*
X56877849Y-80434520D01*
X56898893Y-80447133D01*
X56918598Y-80461747D01*
X56936777Y-80478223D01*
X56953253Y-80496402D01*
X56967867Y-80516107D01*
X56980480Y-80537151D01*
X56990970Y-80559329D01*
X56999235Y-80582429D01*
X57005196Y-80606227D01*
X57008796Y-80630496D01*
X57010000Y-80655000D01*
X57010000Y-81905000D01*
X57008796Y-81929504D01*
X57005196Y-81953773D01*
X56999235Y-81977571D01*
X56990970Y-82000671D01*
X56980480Y-82022849D01*
X56967867Y-82043893D01*
X56953253Y-82063598D01*
X56936777Y-82081777D01*
X56918598Y-82098253D01*
X56898893Y-82112867D01*
X56877849Y-82125480D01*
X56855671Y-82135970D01*
X56832571Y-82144235D01*
X56808773Y-82150196D01*
X56784504Y-82153796D01*
X56760000Y-82155000D01*
X55835000Y-82155000D01*
X55810496Y-82153796D01*
X55786227Y-82150196D01*
X55762429Y-82144235D01*
X55739329Y-82135970D01*
X55717151Y-82125480D01*
X55696107Y-82112867D01*
X55676402Y-82098253D01*
X55658223Y-82081777D01*
X55641747Y-82063598D01*
X55627133Y-82043893D01*
X55614520Y-82022849D01*
X55604030Y-82000671D01*
X55595765Y-81977571D01*
X55589804Y-81953773D01*
X55586204Y-81929504D01*
X55585000Y-81905000D01*
X55585000Y-80655000D01*
X55586204Y-80630496D01*
X55589804Y-80606227D01*
X55595765Y-80582429D01*
X55604030Y-80559329D01*
X55614520Y-80537151D01*
X55627133Y-80516107D01*
X55641747Y-80496402D01*
X55658223Y-80478223D01*
X55676402Y-80461747D01*
X55696107Y-80447133D01*
X55717151Y-80434520D01*
X55739329Y-80424030D01*
X55762429Y-80415765D01*
X55786227Y-80409804D01*
X55810496Y-80406204D01*
X55835000Y-80405000D01*
X56760000Y-80405000D01*
X56784504Y-80406204D01*
G37*
G36*
X59759504Y-80406204D02*
G01*
X59783773Y-80409804D01*
X59807571Y-80415765D01*
X59830671Y-80424030D01*
X59852849Y-80434520D01*
X59873893Y-80447133D01*
X59893598Y-80461747D01*
X59911777Y-80478223D01*
X59928253Y-80496402D01*
X59942867Y-80516107D01*
X59955480Y-80537151D01*
X59965970Y-80559329D01*
X59974235Y-80582429D01*
X59980196Y-80606227D01*
X59983796Y-80630496D01*
X59985000Y-80655000D01*
X59985000Y-81905000D01*
X59983796Y-81929504D01*
X59980196Y-81953773D01*
X59974235Y-81977571D01*
X59965970Y-82000671D01*
X59955480Y-82022849D01*
X59942867Y-82043893D01*
X59928253Y-82063598D01*
X59911777Y-82081777D01*
X59893598Y-82098253D01*
X59873893Y-82112867D01*
X59852849Y-82125480D01*
X59830671Y-82135970D01*
X59807571Y-82144235D01*
X59783773Y-82150196D01*
X59759504Y-82153796D01*
X59735000Y-82155000D01*
X58810000Y-82155000D01*
X58785496Y-82153796D01*
X58761227Y-82150196D01*
X58737429Y-82144235D01*
X58714329Y-82135970D01*
X58692151Y-82125480D01*
X58671107Y-82112867D01*
X58651402Y-82098253D01*
X58633223Y-82081777D01*
X58616747Y-82063598D01*
X58602133Y-82043893D01*
X58589520Y-82022849D01*
X58579030Y-82000671D01*
X58570765Y-81977571D01*
X58564804Y-81953773D01*
X58561204Y-81929504D01*
X58560000Y-81905000D01*
X58560000Y-80655000D01*
X58561204Y-80630496D01*
X58564804Y-80606227D01*
X58570765Y-80582429D01*
X58579030Y-80559329D01*
X58589520Y-80537151D01*
X58602133Y-80516107D01*
X58616747Y-80496402D01*
X58633223Y-80478223D01*
X58651402Y-80461747D01*
X58671107Y-80447133D01*
X58692151Y-80434520D01*
X58714329Y-80424030D01*
X58737429Y-80415765D01*
X58761227Y-80409804D01*
X58785496Y-80406204D01*
X58810000Y-80405000D01*
X59735000Y-80405000D01*
X59759504Y-80406204D01*
G37*
G36*
X50104504Y-91756204D02*
G01*
X50128773Y-91759804D01*
X50152571Y-91765765D01*
X50175671Y-91774030D01*
X50197849Y-91784520D01*
X50218893Y-91797133D01*
X50238598Y-91811747D01*
X50256777Y-91828223D01*
X50273253Y-91846402D01*
X50287867Y-91866107D01*
X50300480Y-91887151D01*
X50310970Y-91909329D01*
X50319235Y-91932429D01*
X50325196Y-91956227D01*
X50328796Y-91980496D01*
X50330000Y-92005000D01*
X50330000Y-95005000D01*
X50328796Y-95029504D01*
X50325196Y-95053773D01*
X50319235Y-95077571D01*
X50310970Y-95100671D01*
X50300480Y-95122849D01*
X50287867Y-95143893D01*
X50273253Y-95163598D01*
X50256777Y-95181777D01*
X50238598Y-95198253D01*
X50218893Y-95212867D01*
X50197849Y-95225480D01*
X50175671Y-95235970D01*
X50152571Y-95244235D01*
X50128773Y-95250196D01*
X50104504Y-95253796D01*
X50080000Y-95255000D01*
X48980000Y-95255000D01*
X48955496Y-95253796D01*
X48931227Y-95250196D01*
X48907429Y-95244235D01*
X48884329Y-95235970D01*
X48862151Y-95225480D01*
X48841107Y-95212867D01*
X48821402Y-95198253D01*
X48803223Y-95181777D01*
X48786747Y-95163598D01*
X48772133Y-95143893D01*
X48759520Y-95122849D01*
X48749030Y-95100671D01*
X48740765Y-95077571D01*
X48734804Y-95053773D01*
X48731204Y-95029504D01*
X48730000Y-95005000D01*
X48730000Y-92005000D01*
X48731204Y-91980496D01*
X48734804Y-91956227D01*
X48740765Y-91932429D01*
X48749030Y-91909329D01*
X48759520Y-91887151D01*
X48772133Y-91866107D01*
X48786747Y-91846402D01*
X48803223Y-91828223D01*
X48821402Y-91811747D01*
X48841107Y-91797133D01*
X48862151Y-91784520D01*
X48884329Y-91774030D01*
X48907429Y-91765765D01*
X48931227Y-91759804D01*
X48955496Y-91756204D01*
X48980000Y-91755000D01*
X50080000Y-91755000D01*
X50104504Y-91756204D01*
G37*
G36*
X50104504Y-86356204D02*
G01*
X50128773Y-86359804D01*
X50152571Y-86365765D01*
X50175671Y-86374030D01*
X50197849Y-86384520D01*
X50218893Y-86397133D01*
X50238598Y-86411747D01*
X50256777Y-86428223D01*
X50273253Y-86446402D01*
X50287867Y-86466107D01*
X50300480Y-86487151D01*
X50310970Y-86509329D01*
X50319235Y-86532429D01*
X50325196Y-86556227D01*
X50328796Y-86580496D01*
X50330000Y-86605000D01*
X50330000Y-89605000D01*
X50328796Y-89629504D01*
X50325196Y-89653773D01*
X50319235Y-89677571D01*
X50310970Y-89700671D01*
X50300480Y-89722849D01*
X50287867Y-89743893D01*
X50273253Y-89763598D01*
X50256777Y-89781777D01*
X50238598Y-89798253D01*
X50218893Y-89812867D01*
X50197849Y-89825480D01*
X50175671Y-89835970D01*
X50152571Y-89844235D01*
X50128773Y-89850196D01*
X50104504Y-89853796D01*
X50080000Y-89855000D01*
X48980000Y-89855000D01*
X48955496Y-89853796D01*
X48931227Y-89850196D01*
X48907429Y-89844235D01*
X48884329Y-89835970D01*
X48862151Y-89825480D01*
X48841107Y-89812867D01*
X48821402Y-89798253D01*
X48803223Y-89781777D01*
X48786747Y-89763598D01*
X48772133Y-89743893D01*
X48759520Y-89722849D01*
X48749030Y-89700671D01*
X48740765Y-89677571D01*
X48734804Y-89653773D01*
X48731204Y-89629504D01*
X48730000Y-89605000D01*
X48730000Y-86605000D01*
X48731204Y-86580496D01*
X48734804Y-86556227D01*
X48740765Y-86532429D01*
X48749030Y-86509329D01*
X48759520Y-86487151D01*
X48772133Y-86466107D01*
X48786747Y-86446402D01*
X48803223Y-86428223D01*
X48821402Y-86411747D01*
X48841107Y-86397133D01*
X48862151Y-86384520D01*
X48884329Y-86374030D01*
X48907429Y-86365765D01*
X48931227Y-86359804D01*
X48955496Y-86356204D01*
X48980000Y-86355000D01*
X50080000Y-86355000D01*
X50104504Y-86356204D01*
G37*
G36*
X84394504Y-87626204D02*
G01*
X84418773Y-87629804D01*
X84442571Y-87635765D01*
X84465671Y-87644030D01*
X84487849Y-87654520D01*
X84508893Y-87667133D01*
X84528598Y-87681747D01*
X84546777Y-87698223D01*
X84563253Y-87716402D01*
X84577867Y-87736107D01*
X84590480Y-87757151D01*
X84600970Y-87779329D01*
X84609235Y-87802429D01*
X84615196Y-87826227D01*
X84618796Y-87850496D01*
X84620000Y-87875000D01*
X84620000Y-90875000D01*
X84618796Y-90899504D01*
X84615196Y-90923773D01*
X84609235Y-90947571D01*
X84600970Y-90970671D01*
X84590480Y-90992849D01*
X84577867Y-91013893D01*
X84563253Y-91033598D01*
X84546777Y-91051777D01*
X84528598Y-91068253D01*
X84508893Y-91082867D01*
X84487849Y-91095480D01*
X84465671Y-91105970D01*
X84442571Y-91114235D01*
X84418773Y-91120196D01*
X84394504Y-91123796D01*
X84370000Y-91125000D01*
X83270000Y-91125000D01*
X83245496Y-91123796D01*
X83221227Y-91120196D01*
X83197429Y-91114235D01*
X83174329Y-91105970D01*
X83152151Y-91095480D01*
X83131107Y-91082867D01*
X83111402Y-91068253D01*
X83093223Y-91051777D01*
X83076747Y-91033598D01*
X83062133Y-91013893D01*
X83049520Y-90992849D01*
X83039030Y-90970671D01*
X83030765Y-90947571D01*
X83024804Y-90923773D01*
X83021204Y-90899504D01*
X83020000Y-90875000D01*
X83020000Y-87875000D01*
X83021204Y-87850496D01*
X83024804Y-87826227D01*
X83030765Y-87802429D01*
X83039030Y-87779329D01*
X83049520Y-87757151D01*
X83062133Y-87736107D01*
X83076747Y-87716402D01*
X83093223Y-87698223D01*
X83111402Y-87681747D01*
X83131107Y-87667133D01*
X83152151Y-87654520D01*
X83174329Y-87644030D01*
X83197429Y-87635765D01*
X83221227Y-87629804D01*
X83245496Y-87626204D01*
X83270000Y-87625000D01*
X84370000Y-87625000D01*
X84394504Y-87626204D01*
G37*
G36*
X84394504Y-93026204D02*
G01*
X84418773Y-93029804D01*
X84442571Y-93035765D01*
X84465671Y-93044030D01*
X84487849Y-93054520D01*
X84508893Y-93067133D01*
X84528598Y-93081747D01*
X84546777Y-93098223D01*
X84563253Y-93116402D01*
X84577867Y-93136107D01*
X84590480Y-93157151D01*
X84600970Y-93179329D01*
X84609235Y-93202429D01*
X84615196Y-93226227D01*
X84618796Y-93250496D01*
X84620000Y-93275000D01*
X84620000Y-96275000D01*
X84618796Y-96299504D01*
X84615196Y-96323773D01*
X84609235Y-96347571D01*
X84600970Y-96370671D01*
X84590480Y-96392849D01*
X84577867Y-96413893D01*
X84563253Y-96433598D01*
X84546777Y-96451777D01*
X84528598Y-96468253D01*
X84508893Y-96482867D01*
X84487849Y-96495480D01*
X84465671Y-96505970D01*
X84442571Y-96514235D01*
X84418773Y-96520196D01*
X84394504Y-96523796D01*
X84370000Y-96525000D01*
X83270000Y-96525000D01*
X83245496Y-96523796D01*
X83221227Y-96520196D01*
X83197429Y-96514235D01*
X83174329Y-96505970D01*
X83152151Y-96495480D01*
X83131107Y-96482867D01*
X83111402Y-96468253D01*
X83093223Y-96451777D01*
X83076747Y-96433598D01*
X83062133Y-96413893D01*
X83049520Y-96392849D01*
X83039030Y-96370671D01*
X83030765Y-96347571D01*
X83024804Y-96323773D01*
X83021204Y-96299504D01*
X83020000Y-96275000D01*
X83020000Y-93275000D01*
X83021204Y-93250496D01*
X83024804Y-93226227D01*
X83030765Y-93202429D01*
X83039030Y-93179329D01*
X83049520Y-93157151D01*
X83062133Y-93136107D01*
X83076747Y-93116402D01*
X83093223Y-93098223D01*
X83111402Y-93081747D01*
X83131107Y-93067133D01*
X83152151Y-93054520D01*
X83174329Y-93044030D01*
X83197429Y-93035765D01*
X83221227Y-93029804D01*
X83245496Y-93026204D01*
X83270000Y-93025000D01*
X84370000Y-93025000D01*
X84394504Y-93026204D01*
G37*
M02*
