G04 #@! TF.GenerationSoftware,KiCad,Pcbnew,5.1.5-52549c5~84~ubuntu18.04.1*
G04 #@! TF.CreationDate,2020-03-18T13:38:27+01:00*
G04 #@! TF.ProjectId,pcb_loadcell-dev-hx711,7063625f-6c6f-4616-9463-656c6c2d6465,rev?*
G04 #@! TF.SameCoordinates,Original*
G04 #@! TF.FileFunction,Soldermask,Top*
G04 #@! TF.FilePolarity,Negative*
%FSLAX46Y46*%
G04 Gerber Fmt 4.6, Leading zero omitted, Abs format (unit mm)*
G04 Created by KiCad (PCBNEW 5.1.5-52549c5~84~ubuntu18.04.1) date 2020-03-18 13:38:27*
%MOMM*%
%LPD*%
G04 APERTURE LIST*
%ADD10C,0.100000*%
G04 APERTURE END LIST*
D10*
G36*
X81393512Y-105783927D02*
G01*
X81542812Y-105813624D01*
X81706784Y-105881544D01*
X81854354Y-105980147D01*
X81979853Y-106105646D01*
X82078456Y-106253216D01*
X82146376Y-106417188D01*
X82181000Y-106591259D01*
X82181000Y-106768741D01*
X82146376Y-106942812D01*
X82078456Y-107106784D01*
X81979853Y-107254354D01*
X81854354Y-107379853D01*
X81706784Y-107478456D01*
X81542812Y-107546376D01*
X81393512Y-107576073D01*
X81368742Y-107581000D01*
X81191258Y-107581000D01*
X81166488Y-107576073D01*
X81017188Y-107546376D01*
X80853216Y-107478456D01*
X80705646Y-107379853D01*
X80580147Y-107254354D01*
X80481544Y-107106784D01*
X80413624Y-106942812D01*
X80379000Y-106768741D01*
X80379000Y-106591259D01*
X80413624Y-106417188D01*
X80481544Y-106253216D01*
X80580147Y-106105646D01*
X80705646Y-105980147D01*
X80853216Y-105881544D01*
X81017188Y-105813624D01*
X81166488Y-105783927D01*
X81191258Y-105779000D01*
X81368742Y-105779000D01*
X81393512Y-105783927D01*
G37*
G36*
X89801000Y-107581000D02*
G01*
X87999000Y-107581000D01*
X87999000Y-105779000D01*
X89801000Y-105779000D01*
X89801000Y-107581000D01*
G37*
G36*
X86473512Y-105783927D02*
G01*
X86622812Y-105813624D01*
X86786784Y-105881544D01*
X86934354Y-105980147D01*
X87059853Y-106105646D01*
X87158456Y-106253216D01*
X87226376Y-106417188D01*
X87261000Y-106591259D01*
X87261000Y-106768741D01*
X87226376Y-106942812D01*
X87158456Y-107106784D01*
X87059853Y-107254354D01*
X86934354Y-107379853D01*
X86786784Y-107478456D01*
X86622812Y-107546376D01*
X86473512Y-107576073D01*
X86448742Y-107581000D01*
X86271258Y-107581000D01*
X86246488Y-107576073D01*
X86097188Y-107546376D01*
X85933216Y-107478456D01*
X85785646Y-107379853D01*
X85660147Y-107254354D01*
X85561544Y-107106784D01*
X85493624Y-106942812D01*
X85459000Y-106768741D01*
X85459000Y-106591259D01*
X85493624Y-106417188D01*
X85561544Y-106253216D01*
X85660147Y-106105646D01*
X85785646Y-105980147D01*
X85933216Y-105881544D01*
X86097188Y-105813624D01*
X86246488Y-105783927D01*
X86271258Y-105779000D01*
X86448742Y-105779000D01*
X86473512Y-105783927D01*
G37*
G36*
X83933512Y-105783927D02*
G01*
X84082812Y-105813624D01*
X84246784Y-105881544D01*
X84394354Y-105980147D01*
X84519853Y-106105646D01*
X84618456Y-106253216D01*
X84686376Y-106417188D01*
X84721000Y-106591259D01*
X84721000Y-106768741D01*
X84686376Y-106942812D01*
X84618456Y-107106784D01*
X84519853Y-107254354D01*
X84394354Y-107379853D01*
X84246784Y-107478456D01*
X84082812Y-107546376D01*
X83933512Y-107576073D01*
X83908742Y-107581000D01*
X83731258Y-107581000D01*
X83706488Y-107576073D01*
X83557188Y-107546376D01*
X83393216Y-107478456D01*
X83245646Y-107379853D01*
X83120147Y-107254354D01*
X83021544Y-107106784D01*
X82953624Y-106942812D01*
X82919000Y-106768741D01*
X82919000Y-106591259D01*
X82953624Y-106417188D01*
X83021544Y-106253216D01*
X83120147Y-106105646D01*
X83245646Y-105980147D01*
X83393216Y-105881544D01*
X83557188Y-105813624D01*
X83706488Y-105783927D01*
X83731258Y-105779000D01*
X83908742Y-105779000D01*
X83933512Y-105783927D01*
G37*
G36*
X78853512Y-105783927D02*
G01*
X79002812Y-105813624D01*
X79166784Y-105881544D01*
X79314354Y-105980147D01*
X79439853Y-106105646D01*
X79538456Y-106253216D01*
X79606376Y-106417188D01*
X79641000Y-106591259D01*
X79641000Y-106768741D01*
X79606376Y-106942812D01*
X79538456Y-107106784D01*
X79439853Y-107254354D01*
X79314354Y-107379853D01*
X79166784Y-107478456D01*
X79002812Y-107546376D01*
X78853512Y-107576073D01*
X78828742Y-107581000D01*
X78651258Y-107581000D01*
X78626488Y-107576073D01*
X78477188Y-107546376D01*
X78313216Y-107478456D01*
X78165646Y-107379853D01*
X78040147Y-107254354D01*
X77941544Y-107106784D01*
X77873624Y-106942812D01*
X77839000Y-106768741D01*
X77839000Y-106591259D01*
X77873624Y-106417188D01*
X77941544Y-106253216D01*
X78040147Y-106105646D01*
X78165646Y-105980147D01*
X78313216Y-105881544D01*
X78477188Y-105813624D01*
X78626488Y-105783927D01*
X78651258Y-105779000D01*
X78828742Y-105779000D01*
X78853512Y-105783927D01*
G37*
G36*
X76313512Y-105783927D02*
G01*
X76462812Y-105813624D01*
X76626784Y-105881544D01*
X76774354Y-105980147D01*
X76899853Y-106105646D01*
X76998456Y-106253216D01*
X77066376Y-106417188D01*
X77101000Y-106591259D01*
X77101000Y-106768741D01*
X77066376Y-106942812D01*
X76998456Y-107106784D01*
X76899853Y-107254354D01*
X76774354Y-107379853D01*
X76626784Y-107478456D01*
X76462812Y-107546376D01*
X76313512Y-107576073D01*
X76288742Y-107581000D01*
X76111258Y-107581000D01*
X76086488Y-107576073D01*
X75937188Y-107546376D01*
X75773216Y-107478456D01*
X75625646Y-107379853D01*
X75500147Y-107254354D01*
X75401544Y-107106784D01*
X75333624Y-106942812D01*
X75299000Y-106768741D01*
X75299000Y-106591259D01*
X75333624Y-106417188D01*
X75401544Y-106253216D01*
X75500147Y-106105646D01*
X75625646Y-105980147D01*
X75773216Y-105881544D01*
X75937188Y-105813624D01*
X76086488Y-105783927D01*
X76111258Y-105779000D01*
X76288742Y-105779000D01*
X76313512Y-105783927D01*
G37*
G36*
X73773512Y-105783927D02*
G01*
X73922812Y-105813624D01*
X74086784Y-105881544D01*
X74234354Y-105980147D01*
X74359853Y-106105646D01*
X74458456Y-106253216D01*
X74526376Y-106417188D01*
X74561000Y-106591259D01*
X74561000Y-106768741D01*
X74526376Y-106942812D01*
X74458456Y-107106784D01*
X74359853Y-107254354D01*
X74234354Y-107379853D01*
X74086784Y-107478456D01*
X73922812Y-107546376D01*
X73773512Y-107576073D01*
X73748742Y-107581000D01*
X73571258Y-107581000D01*
X73546488Y-107576073D01*
X73397188Y-107546376D01*
X73233216Y-107478456D01*
X73085646Y-107379853D01*
X72960147Y-107254354D01*
X72861544Y-107106784D01*
X72793624Y-106942812D01*
X72759000Y-106768741D01*
X72759000Y-106591259D01*
X72793624Y-106417188D01*
X72861544Y-106253216D01*
X72960147Y-106105646D01*
X73085646Y-105980147D01*
X73233216Y-105881544D01*
X73397188Y-105813624D01*
X73546488Y-105783927D01*
X73571258Y-105779000D01*
X73748742Y-105779000D01*
X73773512Y-105783927D01*
G37*
G36*
X71233512Y-105783927D02*
G01*
X71382812Y-105813624D01*
X71546784Y-105881544D01*
X71694354Y-105980147D01*
X71819853Y-106105646D01*
X71918456Y-106253216D01*
X71986376Y-106417188D01*
X72021000Y-106591259D01*
X72021000Y-106768741D01*
X71986376Y-106942812D01*
X71918456Y-107106784D01*
X71819853Y-107254354D01*
X71694354Y-107379853D01*
X71546784Y-107478456D01*
X71382812Y-107546376D01*
X71233512Y-107576073D01*
X71208742Y-107581000D01*
X71031258Y-107581000D01*
X71006488Y-107576073D01*
X70857188Y-107546376D01*
X70693216Y-107478456D01*
X70545646Y-107379853D01*
X70420147Y-107254354D01*
X70321544Y-107106784D01*
X70253624Y-106942812D01*
X70219000Y-106768741D01*
X70219000Y-106591259D01*
X70253624Y-106417188D01*
X70321544Y-106253216D01*
X70420147Y-106105646D01*
X70545646Y-105980147D01*
X70693216Y-105881544D01*
X70857188Y-105813624D01*
X71006488Y-105783927D01*
X71031258Y-105779000D01*
X71208742Y-105779000D01*
X71233512Y-105783927D01*
G37*
G36*
X68693512Y-105783927D02*
G01*
X68842812Y-105813624D01*
X69006784Y-105881544D01*
X69154354Y-105980147D01*
X69279853Y-106105646D01*
X69378456Y-106253216D01*
X69446376Y-106417188D01*
X69481000Y-106591259D01*
X69481000Y-106768741D01*
X69446376Y-106942812D01*
X69378456Y-107106784D01*
X69279853Y-107254354D01*
X69154354Y-107379853D01*
X69006784Y-107478456D01*
X68842812Y-107546376D01*
X68693512Y-107576073D01*
X68668742Y-107581000D01*
X68491258Y-107581000D01*
X68466488Y-107576073D01*
X68317188Y-107546376D01*
X68153216Y-107478456D01*
X68005646Y-107379853D01*
X67880147Y-107254354D01*
X67781544Y-107106784D01*
X67713624Y-106942812D01*
X67679000Y-106768741D01*
X67679000Y-106591259D01*
X67713624Y-106417188D01*
X67781544Y-106253216D01*
X67880147Y-106105646D01*
X68005646Y-105980147D01*
X68153216Y-105881544D01*
X68317188Y-105813624D01*
X68466488Y-105783927D01*
X68491258Y-105779000D01*
X68668742Y-105779000D01*
X68693512Y-105783927D01*
G37*
G36*
X66153512Y-105783927D02*
G01*
X66302812Y-105813624D01*
X66466784Y-105881544D01*
X66614354Y-105980147D01*
X66739853Y-106105646D01*
X66838456Y-106253216D01*
X66906376Y-106417188D01*
X66941000Y-106591259D01*
X66941000Y-106768741D01*
X66906376Y-106942812D01*
X66838456Y-107106784D01*
X66739853Y-107254354D01*
X66614354Y-107379853D01*
X66466784Y-107478456D01*
X66302812Y-107546376D01*
X66153512Y-107576073D01*
X66128742Y-107581000D01*
X65951258Y-107581000D01*
X65926488Y-107576073D01*
X65777188Y-107546376D01*
X65613216Y-107478456D01*
X65465646Y-107379853D01*
X65340147Y-107254354D01*
X65241544Y-107106784D01*
X65173624Y-106942812D01*
X65139000Y-106768741D01*
X65139000Y-106591259D01*
X65173624Y-106417188D01*
X65241544Y-106253216D01*
X65340147Y-106105646D01*
X65465646Y-105980147D01*
X65613216Y-105881544D01*
X65777188Y-105813624D01*
X65926488Y-105783927D01*
X65951258Y-105779000D01*
X66128742Y-105779000D01*
X66153512Y-105783927D01*
G37*
G36*
X63613512Y-105783927D02*
G01*
X63762812Y-105813624D01*
X63926784Y-105881544D01*
X64074354Y-105980147D01*
X64199853Y-106105646D01*
X64298456Y-106253216D01*
X64366376Y-106417188D01*
X64401000Y-106591259D01*
X64401000Y-106768741D01*
X64366376Y-106942812D01*
X64298456Y-107106784D01*
X64199853Y-107254354D01*
X64074354Y-107379853D01*
X63926784Y-107478456D01*
X63762812Y-107546376D01*
X63613512Y-107576073D01*
X63588742Y-107581000D01*
X63411258Y-107581000D01*
X63386488Y-107576073D01*
X63237188Y-107546376D01*
X63073216Y-107478456D01*
X62925646Y-107379853D01*
X62800147Y-107254354D01*
X62701544Y-107106784D01*
X62633624Y-106942812D01*
X62599000Y-106768741D01*
X62599000Y-106591259D01*
X62633624Y-106417188D01*
X62701544Y-106253216D01*
X62800147Y-106105646D01*
X62925646Y-105980147D01*
X63073216Y-105881544D01*
X63237188Y-105813624D01*
X63386488Y-105783927D01*
X63411258Y-105779000D01*
X63588742Y-105779000D01*
X63613512Y-105783927D01*
G37*
G36*
X61073512Y-105783927D02*
G01*
X61222812Y-105813624D01*
X61386784Y-105881544D01*
X61534354Y-105980147D01*
X61659853Y-106105646D01*
X61758456Y-106253216D01*
X61826376Y-106417188D01*
X61861000Y-106591259D01*
X61861000Y-106768741D01*
X61826376Y-106942812D01*
X61758456Y-107106784D01*
X61659853Y-107254354D01*
X61534354Y-107379853D01*
X61386784Y-107478456D01*
X61222812Y-107546376D01*
X61073512Y-107576073D01*
X61048742Y-107581000D01*
X60871258Y-107581000D01*
X60846488Y-107576073D01*
X60697188Y-107546376D01*
X60533216Y-107478456D01*
X60385646Y-107379853D01*
X60260147Y-107254354D01*
X60161544Y-107106784D01*
X60093624Y-106942812D01*
X60059000Y-106768741D01*
X60059000Y-106591259D01*
X60093624Y-106417188D01*
X60161544Y-106253216D01*
X60260147Y-106105646D01*
X60385646Y-105980147D01*
X60533216Y-105881544D01*
X60697188Y-105813624D01*
X60846488Y-105783927D01*
X60871258Y-105779000D01*
X61048742Y-105779000D01*
X61073512Y-105783927D01*
G37*
G36*
X58533512Y-105783927D02*
G01*
X58682812Y-105813624D01*
X58846784Y-105881544D01*
X58994354Y-105980147D01*
X59119853Y-106105646D01*
X59218456Y-106253216D01*
X59286376Y-106417188D01*
X59321000Y-106591259D01*
X59321000Y-106768741D01*
X59286376Y-106942812D01*
X59218456Y-107106784D01*
X59119853Y-107254354D01*
X58994354Y-107379853D01*
X58846784Y-107478456D01*
X58682812Y-107546376D01*
X58533512Y-107576073D01*
X58508742Y-107581000D01*
X58331258Y-107581000D01*
X58306488Y-107576073D01*
X58157188Y-107546376D01*
X57993216Y-107478456D01*
X57845646Y-107379853D01*
X57720147Y-107254354D01*
X57621544Y-107106784D01*
X57553624Y-106942812D01*
X57519000Y-106768741D01*
X57519000Y-106591259D01*
X57553624Y-106417188D01*
X57621544Y-106253216D01*
X57720147Y-106105646D01*
X57845646Y-105980147D01*
X57993216Y-105881544D01*
X58157188Y-105813624D01*
X58306488Y-105783927D01*
X58331258Y-105779000D01*
X58508742Y-105779000D01*
X58533512Y-105783927D01*
G37*
G36*
X55993512Y-105783927D02*
G01*
X56142812Y-105813624D01*
X56306784Y-105881544D01*
X56454354Y-105980147D01*
X56579853Y-106105646D01*
X56678456Y-106253216D01*
X56746376Y-106417188D01*
X56781000Y-106591259D01*
X56781000Y-106768741D01*
X56746376Y-106942812D01*
X56678456Y-107106784D01*
X56579853Y-107254354D01*
X56454354Y-107379853D01*
X56306784Y-107478456D01*
X56142812Y-107546376D01*
X55993512Y-107576073D01*
X55968742Y-107581000D01*
X55791258Y-107581000D01*
X55766488Y-107576073D01*
X55617188Y-107546376D01*
X55453216Y-107478456D01*
X55305646Y-107379853D01*
X55180147Y-107254354D01*
X55081544Y-107106784D01*
X55013624Y-106942812D01*
X54979000Y-106768741D01*
X54979000Y-106591259D01*
X55013624Y-106417188D01*
X55081544Y-106253216D01*
X55180147Y-106105646D01*
X55305646Y-105980147D01*
X55453216Y-105881544D01*
X55617188Y-105813624D01*
X55766488Y-105783927D01*
X55791258Y-105779000D01*
X55968742Y-105779000D01*
X55993512Y-105783927D01*
G37*
G36*
X63895562Y-100043181D02*
G01*
X63930481Y-100053774D01*
X63962663Y-100070976D01*
X63990873Y-100094127D01*
X64014024Y-100122337D01*
X64031226Y-100154519D01*
X64041819Y-100189438D01*
X64046000Y-100231895D01*
X64046000Y-101698105D01*
X64041819Y-101740562D01*
X64031226Y-101775481D01*
X64014024Y-101807663D01*
X63990873Y-101835873D01*
X63962663Y-101859024D01*
X63930481Y-101876226D01*
X63895562Y-101886819D01*
X63853105Y-101891000D01*
X62711895Y-101891000D01*
X62669438Y-101886819D01*
X62634519Y-101876226D01*
X62602337Y-101859024D01*
X62574127Y-101835873D01*
X62550976Y-101807663D01*
X62533774Y-101775481D01*
X62523181Y-101740562D01*
X62519000Y-101698105D01*
X62519000Y-100231895D01*
X62523181Y-100189438D01*
X62533774Y-100154519D01*
X62550976Y-100122337D01*
X62574127Y-100094127D01*
X62602337Y-100070976D01*
X62634519Y-100053774D01*
X62669438Y-100043181D01*
X62711895Y-100039000D01*
X63853105Y-100039000D01*
X63895562Y-100043181D01*
G37*
G36*
X66870562Y-100043181D02*
G01*
X66905481Y-100053774D01*
X66937663Y-100070976D01*
X66965873Y-100094127D01*
X66989024Y-100122337D01*
X67006226Y-100154519D01*
X67016819Y-100189438D01*
X67021000Y-100231895D01*
X67021000Y-101698105D01*
X67016819Y-101740562D01*
X67006226Y-101775481D01*
X66989024Y-101807663D01*
X66965873Y-101835873D01*
X66937663Y-101859024D01*
X66905481Y-101876226D01*
X66870562Y-101886819D01*
X66828105Y-101891000D01*
X65686895Y-101891000D01*
X65644438Y-101886819D01*
X65609519Y-101876226D01*
X65577337Y-101859024D01*
X65549127Y-101835873D01*
X65525976Y-101807663D01*
X65508774Y-101775481D01*
X65498181Y-101740562D01*
X65494000Y-101698105D01*
X65494000Y-100231895D01*
X65498181Y-100189438D01*
X65508774Y-100154519D01*
X65525976Y-100122337D01*
X65549127Y-100094127D01*
X65577337Y-100070976D01*
X65609519Y-100053774D01*
X65644438Y-100043181D01*
X65686895Y-100039000D01*
X66828105Y-100039000D01*
X66870562Y-100043181D01*
G37*
G36*
X58815562Y-100043181D02*
G01*
X58850481Y-100053774D01*
X58882663Y-100070976D01*
X58910873Y-100094127D01*
X58934024Y-100122337D01*
X58951226Y-100154519D01*
X58961819Y-100189438D01*
X58966000Y-100231895D01*
X58966000Y-101698105D01*
X58961819Y-101740562D01*
X58951226Y-101775481D01*
X58934024Y-101807663D01*
X58910873Y-101835873D01*
X58882663Y-101859024D01*
X58850481Y-101876226D01*
X58815562Y-101886819D01*
X58773105Y-101891000D01*
X57631895Y-101891000D01*
X57589438Y-101886819D01*
X57554519Y-101876226D01*
X57522337Y-101859024D01*
X57494127Y-101835873D01*
X57470976Y-101807663D01*
X57453774Y-101775481D01*
X57443181Y-101740562D01*
X57439000Y-101698105D01*
X57439000Y-100231895D01*
X57443181Y-100189438D01*
X57453774Y-100154519D01*
X57470976Y-100122337D01*
X57494127Y-100094127D01*
X57522337Y-100070976D01*
X57554519Y-100053774D01*
X57589438Y-100043181D01*
X57631895Y-100039000D01*
X58773105Y-100039000D01*
X58815562Y-100043181D01*
G37*
G36*
X61790562Y-100043181D02*
G01*
X61825481Y-100053774D01*
X61857663Y-100070976D01*
X61885873Y-100094127D01*
X61909024Y-100122337D01*
X61926226Y-100154519D01*
X61936819Y-100189438D01*
X61941000Y-100231895D01*
X61941000Y-101698105D01*
X61936819Y-101740562D01*
X61926226Y-101775481D01*
X61909024Y-101807663D01*
X61885873Y-101835873D01*
X61857663Y-101859024D01*
X61825481Y-101876226D01*
X61790562Y-101886819D01*
X61748105Y-101891000D01*
X60606895Y-101891000D01*
X60564438Y-101886819D01*
X60529519Y-101876226D01*
X60497337Y-101859024D01*
X60469127Y-101835873D01*
X60445976Y-101807663D01*
X60428774Y-101775481D01*
X60418181Y-101740562D01*
X60414000Y-101698105D01*
X60414000Y-100231895D01*
X60418181Y-100189438D01*
X60428774Y-100154519D01*
X60445976Y-100122337D01*
X60469127Y-100094127D01*
X60497337Y-100070976D01*
X60529519Y-100053774D01*
X60564438Y-100043181D01*
X60606895Y-100039000D01*
X61748105Y-100039000D01*
X61790562Y-100043181D01*
G37*
G36*
X76461564Y-96144389D02*
G01*
X76652833Y-96223615D01*
X76652835Y-96223616D01*
X76782212Y-96310063D01*
X76824973Y-96338635D01*
X76971365Y-96485027D01*
X77086385Y-96657167D01*
X77165611Y-96848436D01*
X77206000Y-97051484D01*
X77206000Y-97258516D01*
X77165611Y-97461564D01*
X77086385Y-97652833D01*
X77086384Y-97652835D01*
X76971365Y-97824973D01*
X76824973Y-97971365D01*
X76652835Y-98086384D01*
X76652834Y-98086385D01*
X76652833Y-98086385D01*
X76461564Y-98165611D01*
X76258516Y-98206000D01*
X76051484Y-98206000D01*
X75848436Y-98165611D01*
X75657167Y-98086385D01*
X75657166Y-98086385D01*
X75657165Y-98086384D01*
X75485027Y-97971365D01*
X75338635Y-97824973D01*
X75223616Y-97652835D01*
X75223615Y-97652833D01*
X75144389Y-97461564D01*
X75104000Y-97258516D01*
X75104000Y-97051484D01*
X75144389Y-96848436D01*
X75223615Y-96657167D01*
X75338635Y-96485027D01*
X75485027Y-96338635D01*
X75527788Y-96310063D01*
X75657165Y-96223616D01*
X75657167Y-96223615D01*
X75848436Y-96144389D01*
X76051484Y-96104000D01*
X76258516Y-96104000D01*
X76461564Y-96144389D01*
G37*
G36*
X84525997Y-92978051D02*
G01*
X84559652Y-92988261D01*
X84590665Y-93004838D01*
X84617851Y-93027149D01*
X84640162Y-93054335D01*
X84656739Y-93085348D01*
X84666949Y-93119003D01*
X84671000Y-93160138D01*
X84671000Y-96389862D01*
X84666949Y-96430997D01*
X84656739Y-96464652D01*
X84640162Y-96495665D01*
X84617851Y-96522851D01*
X84590665Y-96545162D01*
X84559652Y-96561739D01*
X84525997Y-96571949D01*
X84484862Y-96576000D01*
X83155138Y-96576000D01*
X83114003Y-96571949D01*
X83080348Y-96561739D01*
X83049335Y-96545162D01*
X83022149Y-96522851D01*
X82999838Y-96495665D01*
X82983261Y-96464652D01*
X82973051Y-96430997D01*
X82969000Y-96389862D01*
X82969000Y-93160138D01*
X82973051Y-93119003D01*
X82983261Y-93085348D01*
X82999838Y-93054335D01*
X83022149Y-93027149D01*
X83049335Y-93004838D01*
X83080348Y-92988261D01*
X83114003Y-92978051D01*
X83155138Y-92974000D01*
X84484862Y-92974000D01*
X84525997Y-92978051D01*
G37*
G36*
X76461564Y-93604389D02*
G01*
X76652833Y-93683615D01*
X76652835Y-93683616D01*
X76824973Y-93798635D01*
X76971365Y-93945027D01*
X77086385Y-94117167D01*
X77165611Y-94308436D01*
X77206000Y-94511484D01*
X77206000Y-94718516D01*
X77165611Y-94921564D01*
X77116527Y-95040063D01*
X77086384Y-95112835D01*
X76971365Y-95284973D01*
X76824973Y-95431365D01*
X76652835Y-95546384D01*
X76652834Y-95546385D01*
X76652833Y-95546385D01*
X76461564Y-95625611D01*
X76258516Y-95666000D01*
X76051484Y-95666000D01*
X75848436Y-95625611D01*
X75657167Y-95546385D01*
X75657166Y-95546385D01*
X75657165Y-95546384D01*
X75485027Y-95431365D01*
X75338635Y-95284973D01*
X75223616Y-95112835D01*
X75193473Y-95040063D01*
X75144389Y-94921564D01*
X75104000Y-94718516D01*
X75104000Y-94511484D01*
X75144389Y-94308436D01*
X75223615Y-94117167D01*
X75338635Y-93945027D01*
X75485027Y-93798635D01*
X75657165Y-93683616D01*
X75657167Y-93683615D01*
X75848436Y-93604389D01*
X76051484Y-93564000D01*
X76258516Y-93564000D01*
X76461564Y-93604389D01*
G37*
G36*
X56231564Y-93604389D02*
G01*
X56422833Y-93683615D01*
X56422835Y-93683616D01*
X56594973Y-93798635D01*
X56741365Y-93945027D01*
X56856385Y-94117167D01*
X56935611Y-94308436D01*
X56976000Y-94511484D01*
X56976000Y-94718516D01*
X56935611Y-94921564D01*
X56886527Y-95040063D01*
X56856384Y-95112835D01*
X56741365Y-95284973D01*
X56594973Y-95431365D01*
X56422835Y-95546384D01*
X56422834Y-95546385D01*
X56422833Y-95546385D01*
X56231564Y-95625611D01*
X56028516Y-95666000D01*
X55821484Y-95666000D01*
X55618436Y-95625611D01*
X55427167Y-95546385D01*
X55427166Y-95546385D01*
X55427165Y-95546384D01*
X55255027Y-95431365D01*
X55108635Y-95284973D01*
X54993616Y-95112835D01*
X54963473Y-95040063D01*
X54914389Y-94921564D01*
X54874000Y-94718516D01*
X54874000Y-94511484D01*
X54914389Y-94308436D01*
X54993615Y-94117167D01*
X55108635Y-93945027D01*
X55255027Y-93798635D01*
X55427165Y-93683616D01*
X55427167Y-93683615D01*
X55618436Y-93604389D01*
X55821484Y-93564000D01*
X56028516Y-93564000D01*
X56231564Y-93604389D01*
G37*
G36*
X50235997Y-91708051D02*
G01*
X50269652Y-91718261D01*
X50300665Y-91734838D01*
X50327851Y-91757149D01*
X50350162Y-91784335D01*
X50366739Y-91815348D01*
X50376949Y-91849003D01*
X50381000Y-91890138D01*
X50381000Y-95119862D01*
X50376949Y-95160997D01*
X50366739Y-95194652D01*
X50350162Y-95225665D01*
X50327851Y-95252851D01*
X50300665Y-95275162D01*
X50269652Y-95291739D01*
X50235997Y-95301949D01*
X50194862Y-95306000D01*
X48865138Y-95306000D01*
X48824003Y-95301949D01*
X48790348Y-95291739D01*
X48759335Y-95275162D01*
X48732149Y-95252851D01*
X48709838Y-95225665D01*
X48693261Y-95194652D01*
X48683051Y-95160997D01*
X48679000Y-95119862D01*
X48679000Y-91890138D01*
X48683051Y-91849003D01*
X48693261Y-91815348D01*
X48709838Y-91784335D01*
X48732149Y-91757149D01*
X48759335Y-91734838D01*
X48790348Y-91718261D01*
X48824003Y-91708051D01*
X48865138Y-91704000D01*
X50194862Y-91704000D01*
X50235997Y-91708051D01*
G37*
G36*
X56231564Y-91064389D02*
G01*
X56422833Y-91143615D01*
X56422835Y-91143616D01*
X56594973Y-91258635D01*
X56741365Y-91405027D01*
X56856385Y-91577167D01*
X56935611Y-91768436D01*
X56976000Y-91971484D01*
X56976000Y-92178516D01*
X56935611Y-92381564D01*
X56856385Y-92572833D01*
X56856384Y-92572835D01*
X56741365Y-92744973D01*
X56594973Y-92891365D01*
X56422835Y-93006384D01*
X56422834Y-93006385D01*
X56422833Y-93006385D01*
X56231564Y-93085611D01*
X56028516Y-93126000D01*
X55821484Y-93126000D01*
X55618436Y-93085611D01*
X55427167Y-93006385D01*
X55427166Y-93006385D01*
X55427165Y-93006384D01*
X55255027Y-92891365D01*
X55108635Y-92744973D01*
X54993616Y-92572835D01*
X54993615Y-92572833D01*
X54914389Y-92381564D01*
X54874000Y-92178516D01*
X54874000Y-91971484D01*
X54914389Y-91768436D01*
X54993615Y-91577167D01*
X55108635Y-91405027D01*
X55255027Y-91258635D01*
X55427165Y-91143616D01*
X55427167Y-91143615D01*
X55618436Y-91064389D01*
X55821484Y-91024000D01*
X56028516Y-91024000D01*
X56231564Y-91064389D01*
G37*
G36*
X76461564Y-91064389D02*
G01*
X76652833Y-91143615D01*
X76652835Y-91143616D01*
X76824973Y-91258635D01*
X76971365Y-91405027D01*
X77086385Y-91577167D01*
X77165611Y-91768436D01*
X77206000Y-91971484D01*
X77206000Y-92178516D01*
X77165611Y-92381564D01*
X77086385Y-92572833D01*
X77086384Y-92572835D01*
X76971365Y-92744973D01*
X76824973Y-92891365D01*
X76652835Y-93006384D01*
X76652834Y-93006385D01*
X76652833Y-93006385D01*
X76461564Y-93085611D01*
X76258516Y-93126000D01*
X76051484Y-93126000D01*
X75848436Y-93085611D01*
X75657167Y-93006385D01*
X75657166Y-93006385D01*
X75657165Y-93006384D01*
X75485027Y-92891365D01*
X75338635Y-92744973D01*
X75223616Y-92572835D01*
X75223615Y-92572833D01*
X75144389Y-92381564D01*
X75104000Y-92178516D01*
X75104000Y-91971484D01*
X75144389Y-91768436D01*
X75223615Y-91577167D01*
X75338635Y-91405027D01*
X75485027Y-91258635D01*
X75657165Y-91143616D01*
X75657167Y-91143615D01*
X75848436Y-91064389D01*
X76051484Y-91024000D01*
X76258516Y-91024000D01*
X76461564Y-91064389D01*
G37*
G36*
X89013512Y-90543927D02*
G01*
X89162812Y-90573624D01*
X89326784Y-90641544D01*
X89474354Y-90740147D01*
X89599853Y-90865646D01*
X89698456Y-91013216D01*
X89766376Y-91177188D01*
X89801000Y-91351259D01*
X89801000Y-91528741D01*
X89766376Y-91702812D01*
X89698456Y-91866784D01*
X89599853Y-92014354D01*
X89474354Y-92139853D01*
X89326784Y-92238456D01*
X89162812Y-92306376D01*
X89013512Y-92336073D01*
X88988742Y-92341000D01*
X88811258Y-92341000D01*
X88786488Y-92336073D01*
X88637188Y-92306376D01*
X88473216Y-92238456D01*
X88325646Y-92139853D01*
X88200147Y-92014354D01*
X88101544Y-91866784D01*
X88033624Y-91702812D01*
X87999000Y-91528741D01*
X87999000Y-91351259D01*
X88033624Y-91177188D01*
X88101544Y-91013216D01*
X88200147Y-90865646D01*
X88325646Y-90740147D01*
X88473216Y-90641544D01*
X88637188Y-90573624D01*
X88786488Y-90543927D01*
X88811258Y-90539000D01*
X88988742Y-90539000D01*
X89013512Y-90543927D01*
G37*
G36*
X84525997Y-87578051D02*
G01*
X84559652Y-87588261D01*
X84590665Y-87604838D01*
X84617851Y-87627149D01*
X84640162Y-87654335D01*
X84656739Y-87685348D01*
X84666949Y-87719003D01*
X84671000Y-87760138D01*
X84671000Y-90989862D01*
X84666949Y-91030997D01*
X84656739Y-91064652D01*
X84640162Y-91095665D01*
X84617851Y-91122851D01*
X84590665Y-91145162D01*
X84559652Y-91161739D01*
X84525997Y-91171949D01*
X84484862Y-91176000D01*
X83155138Y-91176000D01*
X83114003Y-91171949D01*
X83080348Y-91161739D01*
X83049335Y-91145162D01*
X83022149Y-91122851D01*
X82999838Y-91095665D01*
X82983261Y-91064652D01*
X82973051Y-91030997D01*
X82969000Y-90989862D01*
X82969000Y-87760138D01*
X82973051Y-87719003D01*
X82983261Y-87685348D01*
X82999838Y-87654335D01*
X83022149Y-87627149D01*
X83049335Y-87604838D01*
X83080348Y-87588261D01*
X83114003Y-87578051D01*
X83155138Y-87574000D01*
X84484862Y-87574000D01*
X84525997Y-87578051D01*
G37*
G36*
X56231564Y-88524389D02*
G01*
X56422833Y-88603615D01*
X56422835Y-88603616D01*
X56594973Y-88718635D01*
X56741365Y-88865027D01*
X56856385Y-89037167D01*
X56935611Y-89228436D01*
X56976000Y-89431484D01*
X56976000Y-89638516D01*
X56935611Y-89841564D01*
X56856385Y-90032833D01*
X56856384Y-90032835D01*
X56741365Y-90204973D01*
X56594973Y-90351365D01*
X56422835Y-90466384D01*
X56422834Y-90466385D01*
X56422833Y-90466385D01*
X56231564Y-90545611D01*
X56028516Y-90586000D01*
X55821484Y-90586000D01*
X55618436Y-90545611D01*
X55427167Y-90466385D01*
X55427166Y-90466385D01*
X55427165Y-90466384D01*
X55255027Y-90351365D01*
X55108635Y-90204973D01*
X54993616Y-90032835D01*
X54993615Y-90032833D01*
X54914389Y-89841564D01*
X54874000Y-89638516D01*
X54874000Y-89431484D01*
X54914389Y-89228436D01*
X54993615Y-89037167D01*
X55108635Y-88865027D01*
X55255027Y-88718635D01*
X55427165Y-88603616D01*
X55427167Y-88603615D01*
X55618436Y-88524389D01*
X55821484Y-88484000D01*
X56028516Y-88484000D01*
X56231564Y-88524389D01*
G37*
G36*
X76461564Y-88524389D02*
G01*
X76652833Y-88603615D01*
X76652835Y-88603616D01*
X76824973Y-88718635D01*
X76971365Y-88865027D01*
X77086385Y-89037167D01*
X77165611Y-89228436D01*
X77206000Y-89431484D01*
X77206000Y-89638516D01*
X77165611Y-89841564D01*
X77086385Y-90032833D01*
X77086384Y-90032835D01*
X76971365Y-90204973D01*
X76824973Y-90351365D01*
X76652835Y-90466384D01*
X76652834Y-90466385D01*
X76652833Y-90466385D01*
X76461564Y-90545611D01*
X76258516Y-90586000D01*
X76051484Y-90586000D01*
X75848436Y-90545611D01*
X75657167Y-90466385D01*
X75657166Y-90466385D01*
X75657165Y-90466384D01*
X75485027Y-90351365D01*
X75338635Y-90204973D01*
X75223616Y-90032835D01*
X75223615Y-90032833D01*
X75144389Y-89841564D01*
X75104000Y-89638516D01*
X75104000Y-89431484D01*
X75144389Y-89228436D01*
X75223615Y-89037167D01*
X75338635Y-88865027D01*
X75485027Y-88718635D01*
X75657165Y-88603616D01*
X75657167Y-88603615D01*
X75848436Y-88524389D01*
X76051484Y-88484000D01*
X76258516Y-88484000D01*
X76461564Y-88524389D01*
G37*
G36*
X50235997Y-86308051D02*
G01*
X50269652Y-86318261D01*
X50300665Y-86334838D01*
X50327851Y-86357149D01*
X50350162Y-86384335D01*
X50366739Y-86415348D01*
X50376949Y-86449003D01*
X50381000Y-86490138D01*
X50381000Y-89719862D01*
X50376949Y-89760997D01*
X50366739Y-89794652D01*
X50350162Y-89825665D01*
X50327851Y-89852851D01*
X50300665Y-89875162D01*
X50269652Y-89891739D01*
X50235997Y-89901949D01*
X50194862Y-89906000D01*
X48865138Y-89906000D01*
X48824003Y-89901949D01*
X48790348Y-89891739D01*
X48759335Y-89875162D01*
X48732149Y-89852851D01*
X48709838Y-89825665D01*
X48693261Y-89794652D01*
X48683051Y-89760997D01*
X48679000Y-89719862D01*
X48679000Y-86490138D01*
X48683051Y-86449003D01*
X48693261Y-86415348D01*
X48709838Y-86384335D01*
X48732149Y-86357149D01*
X48759335Y-86334838D01*
X48790348Y-86318261D01*
X48824003Y-86308051D01*
X48865138Y-86304000D01*
X50194862Y-86304000D01*
X50235997Y-86308051D01*
G37*
G36*
X89013512Y-88003927D02*
G01*
X89162812Y-88033624D01*
X89326784Y-88101544D01*
X89474354Y-88200147D01*
X89599853Y-88325646D01*
X89698456Y-88473216D01*
X89766376Y-88637188D01*
X89801000Y-88811259D01*
X89801000Y-88988741D01*
X89766376Y-89162812D01*
X89698456Y-89326784D01*
X89599853Y-89474354D01*
X89474354Y-89599853D01*
X89326784Y-89698456D01*
X89162812Y-89766376D01*
X89020655Y-89794652D01*
X88988742Y-89801000D01*
X88811258Y-89801000D01*
X88779345Y-89794652D01*
X88637188Y-89766376D01*
X88473216Y-89698456D01*
X88325646Y-89599853D01*
X88200147Y-89474354D01*
X88101544Y-89326784D01*
X88033624Y-89162812D01*
X87999000Y-88988741D01*
X87999000Y-88811259D01*
X88033624Y-88637188D01*
X88101544Y-88473216D01*
X88200147Y-88325646D01*
X88325646Y-88200147D01*
X88473216Y-88101544D01*
X88637188Y-88033624D01*
X88786488Y-88003927D01*
X88811258Y-87999000D01*
X88988742Y-87999000D01*
X89013512Y-88003927D01*
G37*
G36*
X56231564Y-85984389D02*
G01*
X56422833Y-86063615D01*
X56422835Y-86063616D01*
X56594973Y-86178635D01*
X56741365Y-86325027D01*
X56851689Y-86490138D01*
X56856385Y-86497167D01*
X56935611Y-86688436D01*
X56976000Y-86891484D01*
X56976000Y-87098516D01*
X56935611Y-87301564D01*
X56856385Y-87492833D01*
X56856384Y-87492835D01*
X56741365Y-87664973D01*
X56594973Y-87811365D01*
X56422835Y-87926384D01*
X56422834Y-87926385D01*
X56422833Y-87926385D01*
X56231564Y-88005611D01*
X56028516Y-88046000D01*
X55821484Y-88046000D01*
X55618436Y-88005611D01*
X55427167Y-87926385D01*
X55427166Y-87926385D01*
X55427165Y-87926384D01*
X55255027Y-87811365D01*
X55108635Y-87664973D01*
X54993616Y-87492835D01*
X54993615Y-87492833D01*
X54914389Y-87301564D01*
X54874000Y-87098516D01*
X54874000Y-86891484D01*
X54914389Y-86688436D01*
X54993615Y-86497167D01*
X54998312Y-86490138D01*
X55108635Y-86325027D01*
X55255027Y-86178635D01*
X55427165Y-86063616D01*
X55427167Y-86063615D01*
X55618436Y-85984389D01*
X55821484Y-85944000D01*
X56028516Y-85944000D01*
X56231564Y-85984389D01*
G37*
G36*
X76461564Y-85984389D02*
G01*
X76652833Y-86063615D01*
X76652835Y-86063616D01*
X76824973Y-86178635D01*
X76971365Y-86325027D01*
X77081689Y-86490138D01*
X77086385Y-86497167D01*
X77165611Y-86688436D01*
X77206000Y-86891484D01*
X77206000Y-87098516D01*
X77165611Y-87301564D01*
X77086385Y-87492833D01*
X77086384Y-87492835D01*
X76971365Y-87664973D01*
X76824973Y-87811365D01*
X76652835Y-87926384D01*
X76652834Y-87926385D01*
X76652833Y-87926385D01*
X76461564Y-88005611D01*
X76258516Y-88046000D01*
X76051484Y-88046000D01*
X75848436Y-88005611D01*
X75657167Y-87926385D01*
X75657166Y-87926385D01*
X75657165Y-87926384D01*
X75485027Y-87811365D01*
X75338635Y-87664973D01*
X75223616Y-87492835D01*
X75223615Y-87492833D01*
X75144389Y-87301564D01*
X75104000Y-87098516D01*
X75104000Y-86891484D01*
X75144389Y-86688436D01*
X75223615Y-86497167D01*
X75228312Y-86490138D01*
X75338635Y-86325027D01*
X75485027Y-86178635D01*
X75657165Y-86063616D01*
X75657167Y-86063615D01*
X75848436Y-85984389D01*
X76051484Y-85944000D01*
X76258516Y-85944000D01*
X76461564Y-85984389D01*
G37*
G36*
X89013512Y-85463927D02*
G01*
X89162812Y-85493624D01*
X89326784Y-85561544D01*
X89474354Y-85660147D01*
X89599853Y-85785646D01*
X89698456Y-85933216D01*
X89766376Y-86097188D01*
X89801000Y-86271259D01*
X89801000Y-86448741D01*
X89766376Y-86622812D01*
X89698456Y-86786784D01*
X89599853Y-86934354D01*
X89474354Y-87059853D01*
X89326784Y-87158456D01*
X89162812Y-87226376D01*
X89013512Y-87256073D01*
X88988742Y-87261000D01*
X88811258Y-87261000D01*
X88786488Y-87256073D01*
X88637188Y-87226376D01*
X88473216Y-87158456D01*
X88325646Y-87059853D01*
X88200147Y-86934354D01*
X88101544Y-86786784D01*
X88033624Y-86622812D01*
X87999000Y-86448741D01*
X87999000Y-86271259D01*
X88033624Y-86097188D01*
X88101544Y-85933216D01*
X88200147Y-85785646D01*
X88325646Y-85660147D01*
X88473216Y-85561544D01*
X88637188Y-85493624D01*
X88786488Y-85463927D01*
X88811258Y-85459000D01*
X88988742Y-85459000D01*
X89013512Y-85463927D01*
G37*
G36*
X76461564Y-83444389D02*
G01*
X76652833Y-83523615D01*
X76652835Y-83523616D01*
X76824973Y-83638635D01*
X76971365Y-83785027D01*
X77086385Y-83957167D01*
X77165611Y-84148436D01*
X77206000Y-84351484D01*
X77206000Y-84558516D01*
X77165611Y-84761564D01*
X77086385Y-84952833D01*
X77086384Y-84952835D01*
X76971365Y-85124973D01*
X76824973Y-85271365D01*
X76652835Y-85386384D01*
X76652834Y-85386385D01*
X76652833Y-85386385D01*
X76461564Y-85465611D01*
X76258516Y-85506000D01*
X76051484Y-85506000D01*
X75848436Y-85465611D01*
X75657167Y-85386385D01*
X75657166Y-85386385D01*
X75657165Y-85386384D01*
X75485027Y-85271365D01*
X75338635Y-85124973D01*
X75223616Y-84952835D01*
X75223615Y-84952833D01*
X75144389Y-84761564D01*
X75104000Y-84558516D01*
X75104000Y-84351484D01*
X75144389Y-84148436D01*
X75223615Y-83957167D01*
X75338635Y-83785027D01*
X75485027Y-83638635D01*
X75657165Y-83523616D01*
X75657167Y-83523615D01*
X75848436Y-83444389D01*
X76051484Y-83404000D01*
X76258516Y-83404000D01*
X76461564Y-83444389D01*
G37*
G36*
X89013512Y-82923927D02*
G01*
X89162812Y-82953624D01*
X89326784Y-83021544D01*
X89474354Y-83120147D01*
X89599853Y-83245646D01*
X89698456Y-83393216D01*
X89766376Y-83557188D01*
X89801000Y-83731259D01*
X89801000Y-83908741D01*
X89766376Y-84082812D01*
X89698456Y-84246784D01*
X89599853Y-84394354D01*
X89474354Y-84519853D01*
X89326784Y-84618456D01*
X89162812Y-84686376D01*
X89013512Y-84716073D01*
X88988742Y-84721000D01*
X88811258Y-84721000D01*
X88786488Y-84716073D01*
X88637188Y-84686376D01*
X88473216Y-84618456D01*
X88325646Y-84519853D01*
X88200147Y-84394354D01*
X88101544Y-84246784D01*
X88033624Y-84082812D01*
X87999000Y-83908741D01*
X87999000Y-83731259D01*
X88033624Y-83557188D01*
X88101544Y-83393216D01*
X88200147Y-83245646D01*
X88325646Y-83120147D01*
X88473216Y-83021544D01*
X88637188Y-82953624D01*
X88786488Y-82923927D01*
X88811258Y-82919000D01*
X88988742Y-82919000D01*
X89013512Y-82923927D01*
G37*
G36*
X59885562Y-80358181D02*
G01*
X59920481Y-80368774D01*
X59952663Y-80385976D01*
X59980873Y-80409127D01*
X60004024Y-80437337D01*
X60021226Y-80469519D01*
X60031819Y-80504438D01*
X60036000Y-80546895D01*
X60036000Y-82013105D01*
X60031819Y-82055562D01*
X60021226Y-82090481D01*
X60004024Y-82122663D01*
X59980873Y-82150873D01*
X59952663Y-82174024D01*
X59920481Y-82191226D01*
X59885562Y-82201819D01*
X59843105Y-82206000D01*
X58701895Y-82206000D01*
X58659438Y-82201819D01*
X58624519Y-82191226D01*
X58592337Y-82174024D01*
X58564127Y-82150873D01*
X58540976Y-82122663D01*
X58523774Y-82090481D01*
X58513181Y-82055562D01*
X58509000Y-82013105D01*
X58509000Y-80546895D01*
X58513181Y-80504438D01*
X58523774Y-80469519D01*
X58540976Y-80437337D01*
X58564127Y-80409127D01*
X58592337Y-80385976D01*
X58624519Y-80368774D01*
X58659438Y-80358181D01*
X58701895Y-80354000D01*
X59843105Y-80354000D01*
X59885562Y-80358181D01*
G37*
G36*
X56910562Y-80358181D02*
G01*
X56945481Y-80368774D01*
X56977663Y-80385976D01*
X57005873Y-80409127D01*
X57029024Y-80437337D01*
X57046226Y-80469519D01*
X57056819Y-80504438D01*
X57061000Y-80546895D01*
X57061000Y-82013105D01*
X57056819Y-82055562D01*
X57046226Y-82090481D01*
X57029024Y-82122663D01*
X57005873Y-82150873D01*
X56977663Y-82174024D01*
X56945481Y-82191226D01*
X56910562Y-82201819D01*
X56868105Y-82206000D01*
X55726895Y-82206000D01*
X55684438Y-82201819D01*
X55649519Y-82191226D01*
X55617337Y-82174024D01*
X55589127Y-82150873D01*
X55565976Y-82122663D01*
X55548774Y-82090481D01*
X55538181Y-82055562D01*
X55534000Y-82013105D01*
X55534000Y-80546895D01*
X55538181Y-80504438D01*
X55548774Y-80469519D01*
X55565976Y-80437337D01*
X55589127Y-80409127D01*
X55617337Y-80385976D01*
X55649519Y-80368774D01*
X55684438Y-80358181D01*
X55726895Y-80354000D01*
X56868105Y-80354000D01*
X56910562Y-80358181D01*
G37*
G36*
X89801000Y-82181000D02*
G01*
X87999000Y-82181000D01*
X87999000Y-80379000D01*
X89801000Y-80379000D01*
X89801000Y-82181000D01*
G37*
G36*
X65179315Y-79464166D02*
G01*
X65223843Y-79477674D01*
X65264892Y-79499615D01*
X65300864Y-79529136D01*
X65330385Y-79565108D01*
X65352326Y-79606157D01*
X65365834Y-79650685D01*
X65371000Y-79703140D01*
X65371000Y-81116860D01*
X65365834Y-81169315D01*
X65352326Y-81213843D01*
X65330385Y-81254892D01*
X65300864Y-81290864D01*
X65264892Y-81320385D01*
X65223843Y-81342326D01*
X65179315Y-81355834D01*
X65126860Y-81361000D01*
X64413140Y-81361000D01*
X64360685Y-81355834D01*
X64316157Y-81342326D01*
X64275108Y-81320385D01*
X64239136Y-81290864D01*
X64209615Y-81254892D01*
X64187674Y-81213843D01*
X64174166Y-81169315D01*
X64169000Y-81116860D01*
X64169000Y-79703140D01*
X64174166Y-79650685D01*
X64187674Y-79606157D01*
X64209615Y-79565108D01*
X64239136Y-79529136D01*
X64275108Y-79499615D01*
X64316157Y-79477674D01*
X64360685Y-79464166D01*
X64413140Y-79459000D01*
X65126860Y-79459000D01*
X65179315Y-79464166D01*
G37*
G36*
X62831000Y-81361000D02*
G01*
X61629000Y-81361000D01*
X61629000Y-79459000D01*
X62831000Y-79459000D01*
X62831000Y-81361000D01*
G37*
G36*
X71386000Y-80911000D02*
G01*
X69584000Y-80911000D01*
X69584000Y-79109000D01*
X71386000Y-79109000D01*
X71386000Y-80911000D01*
G37*
G36*
X56910562Y-77818181D02*
G01*
X56945481Y-77828774D01*
X56977663Y-77845976D01*
X57005873Y-77869127D01*
X57029024Y-77897337D01*
X57046226Y-77929519D01*
X57056819Y-77964438D01*
X57061000Y-78006895D01*
X57061000Y-79473105D01*
X57056819Y-79515562D01*
X57046226Y-79550481D01*
X57029024Y-79582663D01*
X57005873Y-79610873D01*
X56977663Y-79634024D01*
X56945481Y-79651226D01*
X56910562Y-79661819D01*
X56868105Y-79666000D01*
X55726895Y-79666000D01*
X55684438Y-79661819D01*
X55649519Y-79651226D01*
X55617337Y-79634024D01*
X55589127Y-79610873D01*
X55565976Y-79582663D01*
X55548774Y-79550481D01*
X55538181Y-79515562D01*
X55534000Y-79473105D01*
X55534000Y-78006895D01*
X55538181Y-77964438D01*
X55548774Y-77929519D01*
X55565976Y-77897337D01*
X55589127Y-77869127D01*
X55617337Y-77845976D01*
X55649519Y-77828774D01*
X55684438Y-77818181D01*
X55726895Y-77814000D01*
X56868105Y-77814000D01*
X56910562Y-77818181D01*
G37*
G36*
X59885562Y-77818181D02*
G01*
X59920481Y-77828774D01*
X59952663Y-77845976D01*
X59980873Y-77869127D01*
X60004024Y-77897337D01*
X60021226Y-77929519D01*
X60031819Y-77964438D01*
X60036000Y-78006895D01*
X60036000Y-79473105D01*
X60031819Y-79515562D01*
X60021226Y-79550481D01*
X60004024Y-79582663D01*
X59980873Y-79610873D01*
X59952663Y-79634024D01*
X59920481Y-79651226D01*
X59885562Y-79661819D01*
X59843105Y-79666000D01*
X58701895Y-79666000D01*
X58659438Y-79661819D01*
X58624519Y-79651226D01*
X58592337Y-79634024D01*
X58564127Y-79610873D01*
X58540976Y-79582663D01*
X58523774Y-79550481D01*
X58513181Y-79515562D01*
X58509000Y-79473105D01*
X58509000Y-78006895D01*
X58513181Y-77964438D01*
X58523774Y-77929519D01*
X58540976Y-77897337D01*
X58564127Y-77869127D01*
X58592337Y-77845976D01*
X58624519Y-77828774D01*
X58659438Y-77818181D01*
X58701895Y-77814000D01*
X59843105Y-77814000D01*
X59885562Y-77818181D01*
G37*
G36*
X63909315Y-77394166D02*
G01*
X63953843Y-77407674D01*
X63994892Y-77429615D01*
X64030864Y-77459136D01*
X64060385Y-77495108D01*
X64082326Y-77536157D01*
X64095834Y-77580685D01*
X64101000Y-77633140D01*
X64101000Y-79046860D01*
X64095834Y-79099315D01*
X64082326Y-79143843D01*
X64060385Y-79184892D01*
X64030864Y-79220864D01*
X63994892Y-79250385D01*
X63953843Y-79272326D01*
X63909315Y-79285834D01*
X63856860Y-79291000D01*
X63143140Y-79291000D01*
X63090685Y-79285834D01*
X63046153Y-79272325D01*
X63014923Y-79255632D01*
X63000320Y-79249583D01*
X62989256Y-79237376D01*
X62969136Y-79220864D01*
X62939615Y-79184892D01*
X62917674Y-79143843D01*
X62904166Y-79099315D01*
X62899000Y-79046860D01*
X62899000Y-77633140D01*
X62904166Y-77580685D01*
X62917674Y-77536157D01*
X62939615Y-77495108D01*
X62969136Y-77459136D01*
X63005108Y-77429615D01*
X63046157Y-77407674D01*
X63090685Y-77394166D01*
X63143140Y-77389000D01*
X63856860Y-77389000D01*
X63909315Y-77394166D01*
G37*
M02*
