G04 #@! TF.GenerationSoftware,KiCad,Pcbnew,5.1.5-52549c5~84~ubuntu18.04.1*
G04 #@! TF.CreationDate,2020-03-18T13:38:27+01:00*
G04 #@! TF.ProjectId,pcb_loadcell-dev-hx711,7063625f-6c6f-4616-9463-656c6c2d6465,rev?*
G04 #@! TF.SameCoordinates,Original*
G04 #@! TF.FileFunction,Legend,Top*
G04 #@! TF.FilePolarity,Positive*
%FSLAX46Y46*%
G04 Gerber Fmt 4.6, Leading zero omitted, Abs format (unit mm)*
G04 Created by KiCad (PCBNEW 5.1.5-52549c5~84~ubuntu18.04.1) date 2020-03-18 13:38:27*
%MOMM*%
%LPD*%
G04 APERTURE LIST*
%ADD10C,0.300000*%
%ADD11C,0.150000*%
%ADD12C,0.120000*%
G04 APERTURE END LIST*
D10*
X76247857Y-104183571D02*
X75747857Y-103469285D01*
X75390714Y-104183571D02*
X75390714Y-102683571D01*
X75962142Y-102683571D01*
X76105000Y-102755000D01*
X76176428Y-102826428D01*
X76247857Y-102969285D01*
X76247857Y-103183571D01*
X76176428Y-103326428D01*
X76105000Y-103397857D01*
X75962142Y-103469285D01*
X75390714Y-103469285D01*
X76890714Y-103397857D02*
X77390714Y-103397857D01*
X77605000Y-104183571D02*
X76890714Y-104183571D01*
X76890714Y-102683571D01*
X77605000Y-102683571D01*
X78033571Y-102683571D02*
X78533571Y-104183571D01*
X79033571Y-102683571D01*
X79533571Y-104040714D02*
X79605000Y-104112142D01*
X79533571Y-104183571D01*
X79462142Y-104112142D01*
X79533571Y-104040714D01*
X79533571Y-104183571D01*
X80176428Y-103755000D02*
X80890714Y-103755000D01*
X80033571Y-104183571D02*
X80533571Y-102683571D01*
X81033571Y-104183571D01*
X69783571Y-101643571D02*
X69783571Y-100143571D01*
X69783571Y-100857857D02*
X70640714Y-100857857D01*
X70640714Y-101643571D02*
X70640714Y-100143571D01*
X71212142Y-100143571D02*
X72212142Y-101643571D01*
X72212142Y-100143571D02*
X71212142Y-101643571D01*
X72640714Y-100143571D02*
X73640714Y-100143571D01*
X72997857Y-101643571D01*
X74997857Y-101643571D02*
X74140714Y-101643571D01*
X74569285Y-101643571D02*
X74569285Y-100143571D01*
X74426428Y-100357857D01*
X74283571Y-100500714D01*
X74140714Y-100572142D01*
X76426428Y-101643571D02*
X75569285Y-101643571D01*
X75997857Y-101643571D02*
X75997857Y-100143571D01*
X75855000Y-100357857D01*
X75712142Y-100500714D01*
X75569285Y-100572142D01*
X78212142Y-101643571D02*
X78212142Y-100143571D01*
X78712142Y-101215000D01*
X79212142Y-100143571D01*
X79212142Y-101643571D01*
X80212142Y-100143571D02*
X80497857Y-100143571D01*
X80640714Y-100215000D01*
X80783571Y-100357857D01*
X80855000Y-100643571D01*
X80855000Y-101143571D01*
X80783571Y-101429285D01*
X80640714Y-101572142D01*
X80497857Y-101643571D01*
X80212142Y-101643571D01*
X80069285Y-101572142D01*
X79926428Y-101429285D01*
X79855000Y-101143571D01*
X79855000Y-100643571D01*
X79926428Y-100357857D01*
X80069285Y-100215000D01*
X80212142Y-100143571D01*
X81497857Y-101643571D02*
X81497857Y-100143571D01*
X81855000Y-100143571D01*
X82069285Y-100215000D01*
X82212142Y-100357857D01*
X82283571Y-100500714D01*
X82355000Y-100786428D01*
X82355000Y-101000714D01*
X82283571Y-101286428D01*
X82212142Y-101429285D01*
X82069285Y-101572142D01*
X81855000Y-101643571D01*
X81497857Y-101643571D01*
X82997857Y-100143571D02*
X82997857Y-101357857D01*
X83069285Y-101500714D01*
X83140714Y-101572142D01*
X83283571Y-101643571D01*
X83569285Y-101643571D01*
X83712142Y-101572142D01*
X83783571Y-101500714D01*
X83855000Y-101357857D01*
X83855000Y-100143571D01*
X85283571Y-101643571D02*
X84569285Y-101643571D01*
X84569285Y-100143571D01*
X85783571Y-100857857D02*
X86283571Y-100857857D01*
X86497857Y-101643571D02*
X85783571Y-101643571D01*
X85783571Y-100143571D01*
X86497857Y-100143571D01*
D11*
X77737000Y-82805000D02*
X53325000Y-82805000D01*
X53325000Y-98805000D02*
X53325000Y-82805000D01*
X77737000Y-98805000D02*
X77737000Y-82805000D01*
X77737000Y-98805000D02*
X53325000Y-98805000D01*
D12*
X65372064Y-100055000D02*
X64167936Y-100055000D01*
X65372064Y-101875000D02*
X64167936Y-101875000D01*
X60292064Y-100055000D02*
X59087936Y-100055000D01*
X60292064Y-101875000D02*
X59087936Y-101875000D01*
X57182936Y-79650000D02*
X58387064Y-79650000D01*
X57182936Y-77830000D02*
X58387064Y-77830000D01*
X58387064Y-80370000D02*
X57182936Y-80370000D01*
X58387064Y-82190000D02*
X57182936Y-82190000D01*
X65308445Y-81837684D02*
G75*
G03X64280000Y-77560000I-1808445J1827684D01*
G01*
X61688125Y-81851741D02*
G75*
G02X62680000Y-77560000I1811875J1841741D01*
G01*
X61700000Y-81860000D02*
X65300000Y-81860000D01*
X69155000Y-78680000D02*
X70485000Y-78680000D01*
X69155000Y-80010000D02*
X69155000Y-78680000D01*
X69155000Y-81280000D02*
X71815000Y-81280000D01*
X71815000Y-81280000D02*
X71815000Y-81340000D01*
X69155000Y-81280000D02*
X69155000Y-81340000D01*
X69155000Y-81340000D02*
X71815000Y-81340000D01*
X51771250Y-86761250D02*
X50983750Y-86761250D01*
X51377500Y-86367500D02*
X51377500Y-87155000D01*
X47184437Y-87395000D02*
X46120000Y-88459437D01*
X51875563Y-87395000D02*
X52940000Y-88459437D01*
X51875563Y-87395000D02*
X50590000Y-87395000D01*
X47184437Y-87395000D02*
X48470000Y-87395000D01*
X46120000Y-88459437D02*
X46120000Y-94215000D01*
X52940000Y-88459437D02*
X52940000Y-94215000D01*
X52940000Y-94215000D02*
X50590000Y-94215000D01*
X46120000Y-94215000D02*
X48470000Y-94215000D01*
X81578750Y-96118750D02*
X82366250Y-96118750D01*
X81972500Y-96512500D02*
X81972500Y-95725000D01*
X86165563Y-95485000D02*
X87230000Y-94420563D01*
X81474437Y-95485000D02*
X80410000Y-94420563D01*
X81474437Y-95485000D02*
X82760000Y-95485000D01*
X86165563Y-95485000D02*
X84880000Y-95485000D01*
X87230000Y-94420563D02*
X87230000Y-88665000D01*
X80410000Y-94420563D02*
X80410000Y-88665000D01*
X80410000Y-88665000D02*
X82760000Y-88665000D01*
X87230000Y-88665000D02*
X84880000Y-88665000D01*
D11*
X53848095Y-99147380D02*
X53848095Y-99956904D01*
X53895714Y-100052142D01*
X53943333Y-100099761D01*
X54038571Y-100147380D01*
X54229047Y-100147380D01*
X54324285Y-100099761D01*
X54371904Y-100052142D01*
X54419523Y-99956904D01*
X54419523Y-99147380D01*
X55419523Y-100147380D02*
X54848095Y-100147380D01*
X55133809Y-100147380D02*
X55133809Y-99147380D01*
X55038571Y-99290238D01*
X54943333Y-99385476D01*
X54848095Y-99433095D01*
X64603333Y-103237380D02*
X64270000Y-102761190D01*
X64031904Y-103237380D02*
X64031904Y-102237380D01*
X64412857Y-102237380D01*
X64508095Y-102285000D01*
X64555714Y-102332619D01*
X64603333Y-102427857D01*
X64603333Y-102570714D01*
X64555714Y-102665952D01*
X64508095Y-102713571D01*
X64412857Y-102761190D01*
X64031904Y-102761190D01*
X65460476Y-102570714D02*
X65460476Y-103237380D01*
X65222380Y-102189761D02*
X64984285Y-102904047D01*
X65603333Y-102904047D01*
X59523333Y-103237380D02*
X59190000Y-102761190D01*
X58951904Y-103237380D02*
X58951904Y-102237380D01*
X59332857Y-102237380D01*
X59428095Y-102285000D01*
X59475714Y-102332619D01*
X59523333Y-102427857D01*
X59523333Y-102570714D01*
X59475714Y-102665952D01*
X59428095Y-102713571D01*
X59332857Y-102761190D01*
X58951904Y-102761190D01*
X59856666Y-102237380D02*
X60475714Y-102237380D01*
X60142380Y-102618333D01*
X60285238Y-102618333D01*
X60380476Y-102665952D01*
X60428095Y-102713571D01*
X60475714Y-102808809D01*
X60475714Y-103046904D01*
X60428095Y-103142142D01*
X60380476Y-103189761D01*
X60285238Y-103237380D01*
X59999523Y-103237380D01*
X59904285Y-103189761D01*
X59856666Y-103142142D01*
X53808333Y-79192380D02*
X53475000Y-78716190D01*
X53236904Y-79192380D02*
X53236904Y-78192380D01*
X53617857Y-78192380D01*
X53713095Y-78240000D01*
X53760714Y-78287619D01*
X53808333Y-78382857D01*
X53808333Y-78525714D01*
X53760714Y-78620952D01*
X53713095Y-78668571D01*
X53617857Y-78716190D01*
X53236904Y-78716190D01*
X54189285Y-78287619D02*
X54236904Y-78240000D01*
X54332142Y-78192380D01*
X54570238Y-78192380D01*
X54665476Y-78240000D01*
X54713095Y-78287619D01*
X54760714Y-78382857D01*
X54760714Y-78478095D01*
X54713095Y-78620952D01*
X54141666Y-79192380D01*
X54760714Y-79192380D01*
X53808333Y-81732380D02*
X53475000Y-81256190D01*
X53236904Y-81732380D02*
X53236904Y-80732380D01*
X53617857Y-80732380D01*
X53713095Y-80780000D01*
X53760714Y-80827619D01*
X53808333Y-80922857D01*
X53808333Y-81065714D01*
X53760714Y-81160952D01*
X53713095Y-81208571D01*
X53617857Y-81256190D01*
X53236904Y-81256190D01*
X54760714Y-81732380D02*
X54189285Y-81732380D01*
X54475000Y-81732380D02*
X54475000Y-80732380D01*
X54379761Y-80875238D01*
X54284523Y-80970476D01*
X54189285Y-81018095D01*
X67214761Y-81827619D02*
X67119523Y-81780000D01*
X67024285Y-81684761D01*
X66881428Y-81541904D01*
X66786190Y-81494285D01*
X66690952Y-81494285D01*
X66738571Y-81732380D02*
X66643333Y-81684761D01*
X66548095Y-81589523D01*
X66500476Y-81399047D01*
X66500476Y-81065714D01*
X66548095Y-80875238D01*
X66643333Y-80780000D01*
X66738571Y-80732380D01*
X66929047Y-80732380D01*
X67024285Y-80780000D01*
X67119523Y-80875238D01*
X67167142Y-81065714D01*
X67167142Y-81399047D01*
X67119523Y-81589523D01*
X67024285Y-81684761D01*
X66929047Y-81732380D01*
X66738571Y-81732380D01*
X68119523Y-81732380D02*
X67548095Y-81732380D01*
X67833809Y-81732380D02*
X67833809Y-80732380D01*
X67738571Y-80875238D01*
X67643333Y-80970476D01*
X67548095Y-81018095D01*
X72065000Y-80462380D02*
X72065000Y-79462380D01*
X72398333Y-80176666D01*
X72731666Y-79462380D01*
X72731666Y-80462380D01*
X73398333Y-79462380D02*
X73588809Y-79462380D01*
X73684047Y-79510000D01*
X73779285Y-79605238D01*
X73826904Y-79795714D01*
X73826904Y-80129047D01*
X73779285Y-80319523D01*
X73684047Y-80414761D01*
X73588809Y-80462380D01*
X73398333Y-80462380D01*
X73303095Y-80414761D01*
X73207857Y-80319523D01*
X73160238Y-80129047D01*
X73160238Y-79795714D01*
X73207857Y-79605238D01*
X73303095Y-79510000D01*
X73398333Y-79462380D01*
X74255476Y-80462380D02*
X74255476Y-79462380D01*
X74493571Y-79462380D01*
X74636428Y-79510000D01*
X74731666Y-79605238D01*
X74779285Y-79700476D01*
X74826904Y-79890952D01*
X74826904Y-80033809D01*
X74779285Y-80224285D01*
X74731666Y-80319523D01*
X74636428Y-80414761D01*
X74493571Y-80462380D01*
X74255476Y-80462380D01*
X75017380Y-80557619D02*
X75779285Y-80557619D01*
X76588809Y-80462380D02*
X76255476Y-79986190D01*
X76017380Y-80462380D02*
X76017380Y-79462380D01*
X76398333Y-79462380D01*
X76493571Y-79510000D01*
X76541190Y-79557619D01*
X76588809Y-79652857D01*
X76588809Y-79795714D01*
X76541190Y-79890952D01*
X76493571Y-79938571D01*
X76398333Y-79986190D01*
X76017380Y-79986190D01*
X76969761Y-80176666D02*
X77445952Y-80176666D01*
X76874523Y-80462380D02*
X77207857Y-79462380D01*
X77541190Y-80462380D01*
X77731666Y-79462380D02*
X78303095Y-79462380D01*
X78017380Y-80462380D02*
X78017380Y-79462380D01*
X78636428Y-79938571D02*
X78969761Y-79938571D01*
X79112619Y-80462380D02*
X78636428Y-80462380D01*
X78636428Y-79462380D01*
X79112619Y-79462380D01*
X46823333Y-86717142D02*
X46775714Y-86764761D01*
X46632857Y-86812380D01*
X46537619Y-86812380D01*
X46394761Y-86764761D01*
X46299523Y-86669523D01*
X46251904Y-86574285D01*
X46204285Y-86383809D01*
X46204285Y-86240952D01*
X46251904Y-86050476D01*
X46299523Y-85955238D01*
X46394761Y-85860000D01*
X46537619Y-85812380D01*
X46632857Y-85812380D01*
X46775714Y-85860000D01*
X46823333Y-85907619D01*
X47204285Y-85907619D02*
X47251904Y-85860000D01*
X47347142Y-85812380D01*
X47585238Y-85812380D01*
X47680476Y-85860000D01*
X47728095Y-85907619D01*
X47775714Y-86002857D01*
X47775714Y-86098095D01*
X47728095Y-86240952D01*
X47156666Y-86812380D01*
X47775714Y-86812380D01*
X86193333Y-96877142D02*
X86145714Y-96924761D01*
X86002857Y-96972380D01*
X85907619Y-96972380D01*
X85764761Y-96924761D01*
X85669523Y-96829523D01*
X85621904Y-96734285D01*
X85574285Y-96543809D01*
X85574285Y-96400952D01*
X85621904Y-96210476D01*
X85669523Y-96115238D01*
X85764761Y-96020000D01*
X85907619Y-95972380D01*
X86002857Y-95972380D01*
X86145714Y-96020000D01*
X86193333Y-96067619D01*
X87145714Y-96972380D02*
X86574285Y-96972380D01*
X86860000Y-96972380D02*
X86860000Y-95972380D01*
X86764761Y-96115238D01*
X86669523Y-96210476D01*
X86574285Y-96258095D01*
M02*
