G04 #@! TF.GenerationSoftware,KiCad,Pcbnew,5.1.5-52549c5~84~ubuntu18.04.1*
G04 #@! TF.CreationDate,2020-03-18T13:38:27+01:00*
G04 #@! TF.ProjectId,pcb_loadcell-dev-hx711,7063625f-6c6f-4616-9463-656c6c2d6465,rev?*
G04 #@! TF.SameCoordinates,Original*
G04 #@! TF.FileFunction,Soldermask,Bot*
G04 #@! TF.FilePolarity,Negative*
%FSLAX46Y46*%
G04 Gerber Fmt 4.6, Leading zero omitted, Abs format (unit mm)*
G04 Created by KiCad (PCBNEW 5.1.5-52549c5~84~ubuntu18.04.1) date 2020-03-18 13:38:27*
%MOMM*%
%LPD*%
G04 APERTURE LIST*
%ADD10C,0.100000*%
G04 APERTURE END LIST*
D10*
G36*
X76313512Y-105783927D02*
G01*
X76462812Y-105813624D01*
X76626784Y-105881544D01*
X76774354Y-105980147D01*
X76899853Y-106105646D01*
X76998456Y-106253216D01*
X77066376Y-106417188D01*
X77101000Y-106591259D01*
X77101000Y-106768741D01*
X77066376Y-106942812D01*
X76998456Y-107106784D01*
X76899853Y-107254354D01*
X76774354Y-107379853D01*
X76626784Y-107478456D01*
X76462812Y-107546376D01*
X76313512Y-107576073D01*
X76288742Y-107581000D01*
X76111258Y-107581000D01*
X76086488Y-107576073D01*
X75937188Y-107546376D01*
X75773216Y-107478456D01*
X75625646Y-107379853D01*
X75500147Y-107254354D01*
X75401544Y-107106784D01*
X75333624Y-106942812D01*
X75299000Y-106768741D01*
X75299000Y-106591259D01*
X75333624Y-106417188D01*
X75401544Y-106253216D01*
X75500147Y-106105646D01*
X75625646Y-105980147D01*
X75773216Y-105881544D01*
X75937188Y-105813624D01*
X76086488Y-105783927D01*
X76111258Y-105779000D01*
X76288742Y-105779000D01*
X76313512Y-105783927D01*
G37*
G36*
X89801000Y-107581000D02*
G01*
X87999000Y-107581000D01*
X87999000Y-105779000D01*
X89801000Y-105779000D01*
X89801000Y-107581000D01*
G37*
G36*
X86473512Y-105783927D02*
G01*
X86622812Y-105813624D01*
X86786784Y-105881544D01*
X86934354Y-105980147D01*
X87059853Y-106105646D01*
X87158456Y-106253216D01*
X87226376Y-106417188D01*
X87261000Y-106591259D01*
X87261000Y-106768741D01*
X87226376Y-106942812D01*
X87158456Y-107106784D01*
X87059853Y-107254354D01*
X86934354Y-107379853D01*
X86786784Y-107478456D01*
X86622812Y-107546376D01*
X86473512Y-107576073D01*
X86448742Y-107581000D01*
X86271258Y-107581000D01*
X86246488Y-107576073D01*
X86097188Y-107546376D01*
X85933216Y-107478456D01*
X85785646Y-107379853D01*
X85660147Y-107254354D01*
X85561544Y-107106784D01*
X85493624Y-106942812D01*
X85459000Y-106768741D01*
X85459000Y-106591259D01*
X85493624Y-106417188D01*
X85561544Y-106253216D01*
X85660147Y-106105646D01*
X85785646Y-105980147D01*
X85933216Y-105881544D01*
X86097188Y-105813624D01*
X86246488Y-105783927D01*
X86271258Y-105779000D01*
X86448742Y-105779000D01*
X86473512Y-105783927D01*
G37*
G36*
X83933512Y-105783927D02*
G01*
X84082812Y-105813624D01*
X84246784Y-105881544D01*
X84394354Y-105980147D01*
X84519853Y-106105646D01*
X84618456Y-106253216D01*
X84686376Y-106417188D01*
X84721000Y-106591259D01*
X84721000Y-106768741D01*
X84686376Y-106942812D01*
X84618456Y-107106784D01*
X84519853Y-107254354D01*
X84394354Y-107379853D01*
X84246784Y-107478456D01*
X84082812Y-107546376D01*
X83933512Y-107576073D01*
X83908742Y-107581000D01*
X83731258Y-107581000D01*
X83706488Y-107576073D01*
X83557188Y-107546376D01*
X83393216Y-107478456D01*
X83245646Y-107379853D01*
X83120147Y-107254354D01*
X83021544Y-107106784D01*
X82953624Y-106942812D01*
X82919000Y-106768741D01*
X82919000Y-106591259D01*
X82953624Y-106417188D01*
X83021544Y-106253216D01*
X83120147Y-106105646D01*
X83245646Y-105980147D01*
X83393216Y-105881544D01*
X83557188Y-105813624D01*
X83706488Y-105783927D01*
X83731258Y-105779000D01*
X83908742Y-105779000D01*
X83933512Y-105783927D01*
G37*
G36*
X81393512Y-105783927D02*
G01*
X81542812Y-105813624D01*
X81706784Y-105881544D01*
X81854354Y-105980147D01*
X81979853Y-106105646D01*
X82078456Y-106253216D01*
X82146376Y-106417188D01*
X82181000Y-106591259D01*
X82181000Y-106768741D01*
X82146376Y-106942812D01*
X82078456Y-107106784D01*
X81979853Y-107254354D01*
X81854354Y-107379853D01*
X81706784Y-107478456D01*
X81542812Y-107546376D01*
X81393512Y-107576073D01*
X81368742Y-107581000D01*
X81191258Y-107581000D01*
X81166488Y-107576073D01*
X81017188Y-107546376D01*
X80853216Y-107478456D01*
X80705646Y-107379853D01*
X80580147Y-107254354D01*
X80481544Y-107106784D01*
X80413624Y-106942812D01*
X80379000Y-106768741D01*
X80379000Y-106591259D01*
X80413624Y-106417188D01*
X80481544Y-106253216D01*
X80580147Y-106105646D01*
X80705646Y-105980147D01*
X80853216Y-105881544D01*
X81017188Y-105813624D01*
X81166488Y-105783927D01*
X81191258Y-105779000D01*
X81368742Y-105779000D01*
X81393512Y-105783927D01*
G37*
G36*
X78853512Y-105783927D02*
G01*
X79002812Y-105813624D01*
X79166784Y-105881544D01*
X79314354Y-105980147D01*
X79439853Y-106105646D01*
X79538456Y-106253216D01*
X79606376Y-106417188D01*
X79641000Y-106591259D01*
X79641000Y-106768741D01*
X79606376Y-106942812D01*
X79538456Y-107106784D01*
X79439853Y-107254354D01*
X79314354Y-107379853D01*
X79166784Y-107478456D01*
X79002812Y-107546376D01*
X78853512Y-107576073D01*
X78828742Y-107581000D01*
X78651258Y-107581000D01*
X78626488Y-107576073D01*
X78477188Y-107546376D01*
X78313216Y-107478456D01*
X78165646Y-107379853D01*
X78040147Y-107254354D01*
X77941544Y-107106784D01*
X77873624Y-106942812D01*
X77839000Y-106768741D01*
X77839000Y-106591259D01*
X77873624Y-106417188D01*
X77941544Y-106253216D01*
X78040147Y-106105646D01*
X78165646Y-105980147D01*
X78313216Y-105881544D01*
X78477188Y-105813624D01*
X78626488Y-105783927D01*
X78651258Y-105779000D01*
X78828742Y-105779000D01*
X78853512Y-105783927D01*
G37*
G36*
X73773512Y-105783927D02*
G01*
X73922812Y-105813624D01*
X74086784Y-105881544D01*
X74234354Y-105980147D01*
X74359853Y-106105646D01*
X74458456Y-106253216D01*
X74526376Y-106417188D01*
X74561000Y-106591259D01*
X74561000Y-106768741D01*
X74526376Y-106942812D01*
X74458456Y-107106784D01*
X74359853Y-107254354D01*
X74234354Y-107379853D01*
X74086784Y-107478456D01*
X73922812Y-107546376D01*
X73773512Y-107576073D01*
X73748742Y-107581000D01*
X73571258Y-107581000D01*
X73546488Y-107576073D01*
X73397188Y-107546376D01*
X73233216Y-107478456D01*
X73085646Y-107379853D01*
X72960147Y-107254354D01*
X72861544Y-107106784D01*
X72793624Y-106942812D01*
X72759000Y-106768741D01*
X72759000Y-106591259D01*
X72793624Y-106417188D01*
X72861544Y-106253216D01*
X72960147Y-106105646D01*
X73085646Y-105980147D01*
X73233216Y-105881544D01*
X73397188Y-105813624D01*
X73546488Y-105783927D01*
X73571258Y-105779000D01*
X73748742Y-105779000D01*
X73773512Y-105783927D01*
G37*
G36*
X71233512Y-105783927D02*
G01*
X71382812Y-105813624D01*
X71546784Y-105881544D01*
X71694354Y-105980147D01*
X71819853Y-106105646D01*
X71918456Y-106253216D01*
X71986376Y-106417188D01*
X72021000Y-106591259D01*
X72021000Y-106768741D01*
X71986376Y-106942812D01*
X71918456Y-107106784D01*
X71819853Y-107254354D01*
X71694354Y-107379853D01*
X71546784Y-107478456D01*
X71382812Y-107546376D01*
X71233512Y-107576073D01*
X71208742Y-107581000D01*
X71031258Y-107581000D01*
X71006488Y-107576073D01*
X70857188Y-107546376D01*
X70693216Y-107478456D01*
X70545646Y-107379853D01*
X70420147Y-107254354D01*
X70321544Y-107106784D01*
X70253624Y-106942812D01*
X70219000Y-106768741D01*
X70219000Y-106591259D01*
X70253624Y-106417188D01*
X70321544Y-106253216D01*
X70420147Y-106105646D01*
X70545646Y-105980147D01*
X70693216Y-105881544D01*
X70857188Y-105813624D01*
X71006488Y-105783927D01*
X71031258Y-105779000D01*
X71208742Y-105779000D01*
X71233512Y-105783927D01*
G37*
G36*
X68693512Y-105783927D02*
G01*
X68842812Y-105813624D01*
X69006784Y-105881544D01*
X69154354Y-105980147D01*
X69279853Y-106105646D01*
X69378456Y-106253216D01*
X69446376Y-106417188D01*
X69481000Y-106591259D01*
X69481000Y-106768741D01*
X69446376Y-106942812D01*
X69378456Y-107106784D01*
X69279853Y-107254354D01*
X69154354Y-107379853D01*
X69006784Y-107478456D01*
X68842812Y-107546376D01*
X68693512Y-107576073D01*
X68668742Y-107581000D01*
X68491258Y-107581000D01*
X68466488Y-107576073D01*
X68317188Y-107546376D01*
X68153216Y-107478456D01*
X68005646Y-107379853D01*
X67880147Y-107254354D01*
X67781544Y-107106784D01*
X67713624Y-106942812D01*
X67679000Y-106768741D01*
X67679000Y-106591259D01*
X67713624Y-106417188D01*
X67781544Y-106253216D01*
X67880147Y-106105646D01*
X68005646Y-105980147D01*
X68153216Y-105881544D01*
X68317188Y-105813624D01*
X68466488Y-105783927D01*
X68491258Y-105779000D01*
X68668742Y-105779000D01*
X68693512Y-105783927D01*
G37*
G36*
X66153512Y-105783927D02*
G01*
X66302812Y-105813624D01*
X66466784Y-105881544D01*
X66614354Y-105980147D01*
X66739853Y-106105646D01*
X66838456Y-106253216D01*
X66906376Y-106417188D01*
X66941000Y-106591259D01*
X66941000Y-106768741D01*
X66906376Y-106942812D01*
X66838456Y-107106784D01*
X66739853Y-107254354D01*
X66614354Y-107379853D01*
X66466784Y-107478456D01*
X66302812Y-107546376D01*
X66153512Y-107576073D01*
X66128742Y-107581000D01*
X65951258Y-107581000D01*
X65926488Y-107576073D01*
X65777188Y-107546376D01*
X65613216Y-107478456D01*
X65465646Y-107379853D01*
X65340147Y-107254354D01*
X65241544Y-107106784D01*
X65173624Y-106942812D01*
X65139000Y-106768741D01*
X65139000Y-106591259D01*
X65173624Y-106417188D01*
X65241544Y-106253216D01*
X65340147Y-106105646D01*
X65465646Y-105980147D01*
X65613216Y-105881544D01*
X65777188Y-105813624D01*
X65926488Y-105783927D01*
X65951258Y-105779000D01*
X66128742Y-105779000D01*
X66153512Y-105783927D01*
G37*
G36*
X63613512Y-105783927D02*
G01*
X63762812Y-105813624D01*
X63926784Y-105881544D01*
X64074354Y-105980147D01*
X64199853Y-106105646D01*
X64298456Y-106253216D01*
X64366376Y-106417188D01*
X64401000Y-106591259D01*
X64401000Y-106768741D01*
X64366376Y-106942812D01*
X64298456Y-107106784D01*
X64199853Y-107254354D01*
X64074354Y-107379853D01*
X63926784Y-107478456D01*
X63762812Y-107546376D01*
X63613512Y-107576073D01*
X63588742Y-107581000D01*
X63411258Y-107581000D01*
X63386488Y-107576073D01*
X63237188Y-107546376D01*
X63073216Y-107478456D01*
X62925646Y-107379853D01*
X62800147Y-107254354D01*
X62701544Y-107106784D01*
X62633624Y-106942812D01*
X62599000Y-106768741D01*
X62599000Y-106591259D01*
X62633624Y-106417188D01*
X62701544Y-106253216D01*
X62800147Y-106105646D01*
X62925646Y-105980147D01*
X63073216Y-105881544D01*
X63237188Y-105813624D01*
X63386488Y-105783927D01*
X63411258Y-105779000D01*
X63588742Y-105779000D01*
X63613512Y-105783927D01*
G37*
G36*
X61073512Y-105783927D02*
G01*
X61222812Y-105813624D01*
X61386784Y-105881544D01*
X61534354Y-105980147D01*
X61659853Y-106105646D01*
X61758456Y-106253216D01*
X61826376Y-106417188D01*
X61861000Y-106591259D01*
X61861000Y-106768741D01*
X61826376Y-106942812D01*
X61758456Y-107106784D01*
X61659853Y-107254354D01*
X61534354Y-107379853D01*
X61386784Y-107478456D01*
X61222812Y-107546376D01*
X61073512Y-107576073D01*
X61048742Y-107581000D01*
X60871258Y-107581000D01*
X60846488Y-107576073D01*
X60697188Y-107546376D01*
X60533216Y-107478456D01*
X60385646Y-107379853D01*
X60260147Y-107254354D01*
X60161544Y-107106784D01*
X60093624Y-106942812D01*
X60059000Y-106768741D01*
X60059000Y-106591259D01*
X60093624Y-106417188D01*
X60161544Y-106253216D01*
X60260147Y-106105646D01*
X60385646Y-105980147D01*
X60533216Y-105881544D01*
X60697188Y-105813624D01*
X60846488Y-105783927D01*
X60871258Y-105779000D01*
X61048742Y-105779000D01*
X61073512Y-105783927D01*
G37*
G36*
X58533512Y-105783927D02*
G01*
X58682812Y-105813624D01*
X58846784Y-105881544D01*
X58994354Y-105980147D01*
X59119853Y-106105646D01*
X59218456Y-106253216D01*
X59286376Y-106417188D01*
X59321000Y-106591259D01*
X59321000Y-106768741D01*
X59286376Y-106942812D01*
X59218456Y-107106784D01*
X59119853Y-107254354D01*
X58994354Y-107379853D01*
X58846784Y-107478456D01*
X58682812Y-107546376D01*
X58533512Y-107576073D01*
X58508742Y-107581000D01*
X58331258Y-107581000D01*
X58306488Y-107576073D01*
X58157188Y-107546376D01*
X57993216Y-107478456D01*
X57845646Y-107379853D01*
X57720147Y-107254354D01*
X57621544Y-107106784D01*
X57553624Y-106942812D01*
X57519000Y-106768741D01*
X57519000Y-106591259D01*
X57553624Y-106417188D01*
X57621544Y-106253216D01*
X57720147Y-106105646D01*
X57845646Y-105980147D01*
X57993216Y-105881544D01*
X58157188Y-105813624D01*
X58306488Y-105783927D01*
X58331258Y-105779000D01*
X58508742Y-105779000D01*
X58533512Y-105783927D01*
G37*
G36*
X55993512Y-105783927D02*
G01*
X56142812Y-105813624D01*
X56306784Y-105881544D01*
X56454354Y-105980147D01*
X56579853Y-106105646D01*
X56678456Y-106253216D01*
X56746376Y-106417188D01*
X56781000Y-106591259D01*
X56781000Y-106768741D01*
X56746376Y-106942812D01*
X56678456Y-107106784D01*
X56579853Y-107254354D01*
X56454354Y-107379853D01*
X56306784Y-107478456D01*
X56142812Y-107546376D01*
X55993512Y-107576073D01*
X55968742Y-107581000D01*
X55791258Y-107581000D01*
X55766488Y-107576073D01*
X55617188Y-107546376D01*
X55453216Y-107478456D01*
X55305646Y-107379853D01*
X55180147Y-107254354D01*
X55081544Y-107106784D01*
X55013624Y-106942812D01*
X54979000Y-106768741D01*
X54979000Y-106591259D01*
X55013624Y-106417188D01*
X55081544Y-106253216D01*
X55180147Y-106105646D01*
X55305646Y-105980147D01*
X55453216Y-105881544D01*
X55617188Y-105813624D01*
X55766488Y-105783927D01*
X55791258Y-105779000D01*
X55968742Y-105779000D01*
X55993512Y-105783927D01*
G37*
G36*
X76461564Y-96144389D02*
G01*
X76652833Y-96223615D01*
X76652835Y-96223616D01*
X76824973Y-96338635D01*
X76971365Y-96485027D01*
X77086385Y-96657167D01*
X77165611Y-96848436D01*
X77206000Y-97051484D01*
X77206000Y-97258516D01*
X77165611Y-97461564D01*
X77086385Y-97652833D01*
X77086384Y-97652835D01*
X76971365Y-97824973D01*
X76824973Y-97971365D01*
X76652835Y-98086384D01*
X76652834Y-98086385D01*
X76652833Y-98086385D01*
X76461564Y-98165611D01*
X76258516Y-98206000D01*
X76051484Y-98206000D01*
X75848436Y-98165611D01*
X75657167Y-98086385D01*
X75657166Y-98086385D01*
X75657165Y-98086384D01*
X75485027Y-97971365D01*
X75338635Y-97824973D01*
X75223616Y-97652835D01*
X75223615Y-97652833D01*
X75144389Y-97461564D01*
X75104000Y-97258516D01*
X75104000Y-97051484D01*
X75144389Y-96848436D01*
X75223615Y-96657167D01*
X75338635Y-96485027D01*
X75485027Y-96338635D01*
X75657165Y-96223616D01*
X75657167Y-96223615D01*
X75848436Y-96144389D01*
X76051484Y-96104000D01*
X76258516Y-96104000D01*
X76461564Y-96144389D01*
G37*
G36*
X56231564Y-93604389D02*
G01*
X56422833Y-93683615D01*
X56422835Y-93683616D01*
X56594973Y-93798635D01*
X56741365Y-93945027D01*
X56856385Y-94117167D01*
X56935611Y-94308436D01*
X56976000Y-94511484D01*
X56976000Y-94718516D01*
X56935611Y-94921564D01*
X56856385Y-95112833D01*
X56856384Y-95112835D01*
X56741365Y-95284973D01*
X56594973Y-95431365D01*
X56422835Y-95546384D01*
X56422834Y-95546385D01*
X56422833Y-95546385D01*
X56231564Y-95625611D01*
X56028516Y-95666000D01*
X55821484Y-95666000D01*
X55618436Y-95625611D01*
X55427167Y-95546385D01*
X55427166Y-95546385D01*
X55427165Y-95546384D01*
X55255027Y-95431365D01*
X55108635Y-95284973D01*
X54993616Y-95112835D01*
X54993615Y-95112833D01*
X54914389Y-94921564D01*
X54874000Y-94718516D01*
X54874000Y-94511484D01*
X54914389Y-94308436D01*
X54993615Y-94117167D01*
X55108635Y-93945027D01*
X55255027Y-93798635D01*
X55427165Y-93683616D01*
X55427167Y-93683615D01*
X55618436Y-93604389D01*
X55821484Y-93564000D01*
X56028516Y-93564000D01*
X56231564Y-93604389D01*
G37*
G36*
X76461564Y-93604389D02*
G01*
X76652833Y-93683615D01*
X76652835Y-93683616D01*
X76824973Y-93798635D01*
X76971365Y-93945027D01*
X77086385Y-94117167D01*
X77165611Y-94308436D01*
X77206000Y-94511484D01*
X77206000Y-94718516D01*
X77165611Y-94921564D01*
X77086385Y-95112833D01*
X77086384Y-95112835D01*
X76971365Y-95284973D01*
X76824973Y-95431365D01*
X76652835Y-95546384D01*
X76652834Y-95546385D01*
X76652833Y-95546385D01*
X76461564Y-95625611D01*
X76258516Y-95666000D01*
X76051484Y-95666000D01*
X75848436Y-95625611D01*
X75657167Y-95546385D01*
X75657166Y-95546385D01*
X75657165Y-95546384D01*
X75485027Y-95431365D01*
X75338635Y-95284973D01*
X75223616Y-95112835D01*
X75223615Y-95112833D01*
X75144389Y-94921564D01*
X75104000Y-94718516D01*
X75104000Y-94511484D01*
X75144389Y-94308436D01*
X75223615Y-94117167D01*
X75338635Y-93945027D01*
X75485027Y-93798635D01*
X75657165Y-93683616D01*
X75657167Y-93683615D01*
X75848436Y-93604389D01*
X76051484Y-93564000D01*
X76258516Y-93564000D01*
X76461564Y-93604389D01*
G37*
G36*
X76461564Y-91064389D02*
G01*
X76652833Y-91143615D01*
X76652835Y-91143616D01*
X76824973Y-91258635D01*
X76971365Y-91405027D01*
X77067827Y-91549392D01*
X77086385Y-91577167D01*
X77165611Y-91768436D01*
X77206000Y-91971484D01*
X77206000Y-92178516D01*
X77165611Y-92381564D01*
X77149276Y-92421000D01*
X77086384Y-92572835D01*
X76971365Y-92744973D01*
X76824973Y-92891365D01*
X76652835Y-93006384D01*
X76652834Y-93006385D01*
X76652833Y-93006385D01*
X76461564Y-93085611D01*
X76258516Y-93126000D01*
X76051484Y-93126000D01*
X75848436Y-93085611D01*
X75657167Y-93006385D01*
X75657166Y-93006385D01*
X75657165Y-93006384D01*
X75485027Y-92891365D01*
X75338635Y-92744973D01*
X75223616Y-92572835D01*
X75160724Y-92421000D01*
X75144389Y-92381564D01*
X75104000Y-92178516D01*
X75104000Y-91971484D01*
X75144389Y-91768436D01*
X75223615Y-91577167D01*
X75242174Y-91549392D01*
X75338635Y-91405027D01*
X75485027Y-91258635D01*
X75657165Y-91143616D01*
X75657167Y-91143615D01*
X75848436Y-91064389D01*
X76051484Y-91024000D01*
X76258516Y-91024000D01*
X76461564Y-91064389D01*
G37*
G36*
X56231564Y-91064389D02*
G01*
X56422833Y-91143615D01*
X56422835Y-91143616D01*
X56594973Y-91258635D01*
X56741365Y-91405027D01*
X56837827Y-91549392D01*
X56856385Y-91577167D01*
X56935611Y-91768436D01*
X56976000Y-91971484D01*
X56976000Y-92178516D01*
X56935611Y-92381564D01*
X56919276Y-92421000D01*
X56856384Y-92572835D01*
X56741365Y-92744973D01*
X56594973Y-92891365D01*
X56422835Y-93006384D01*
X56422834Y-93006385D01*
X56422833Y-93006385D01*
X56231564Y-93085611D01*
X56028516Y-93126000D01*
X55821484Y-93126000D01*
X55618436Y-93085611D01*
X55427167Y-93006385D01*
X55427166Y-93006385D01*
X55427165Y-93006384D01*
X55255027Y-92891365D01*
X55108635Y-92744973D01*
X54993616Y-92572835D01*
X54930724Y-92421000D01*
X54914389Y-92381564D01*
X54874000Y-92178516D01*
X54874000Y-91971484D01*
X54914389Y-91768436D01*
X54993615Y-91577167D01*
X55012174Y-91549392D01*
X55108635Y-91405027D01*
X55255027Y-91258635D01*
X55427165Y-91143616D01*
X55427167Y-91143615D01*
X55618436Y-91064389D01*
X55821484Y-91024000D01*
X56028516Y-91024000D01*
X56231564Y-91064389D01*
G37*
G36*
X54115562Y-91533181D02*
G01*
X54150481Y-91543774D01*
X54182663Y-91560976D01*
X54210873Y-91584127D01*
X54234024Y-91612337D01*
X54251226Y-91644519D01*
X54261819Y-91679438D01*
X54266000Y-91721895D01*
X54266000Y-92863105D01*
X54261819Y-92905562D01*
X54251226Y-92940481D01*
X54234024Y-92972663D01*
X54210873Y-93000873D01*
X54182663Y-93024024D01*
X54150481Y-93041226D01*
X54115562Y-93051819D01*
X54073105Y-93056000D01*
X52606895Y-93056000D01*
X52564438Y-93051819D01*
X52529519Y-93041226D01*
X52497337Y-93024024D01*
X52469127Y-93000873D01*
X52445976Y-92972663D01*
X52428774Y-92940481D01*
X52418181Y-92905562D01*
X52414000Y-92863105D01*
X52414000Y-91721895D01*
X52418181Y-91679438D01*
X52428774Y-91644519D01*
X52445976Y-91612337D01*
X52469127Y-91584127D01*
X52497337Y-91560976D01*
X52529519Y-91543774D01*
X52564438Y-91533181D01*
X52606895Y-91529000D01*
X54073105Y-91529000D01*
X54115562Y-91533181D01*
G37*
G36*
X86500562Y-90898181D02*
G01*
X86535481Y-90908774D01*
X86567663Y-90925976D01*
X86595873Y-90949127D01*
X86619024Y-90977337D01*
X86636226Y-91009519D01*
X86646819Y-91044438D01*
X86651000Y-91086895D01*
X86651000Y-92228105D01*
X86646819Y-92270562D01*
X86636226Y-92305481D01*
X86619024Y-92337663D01*
X86595873Y-92365873D01*
X86567663Y-92389024D01*
X86535481Y-92406226D01*
X86500562Y-92416819D01*
X86458105Y-92421000D01*
X84991895Y-92421000D01*
X84949438Y-92416819D01*
X84914519Y-92406226D01*
X84882337Y-92389024D01*
X84854127Y-92365873D01*
X84830976Y-92337663D01*
X84813774Y-92305481D01*
X84803181Y-92270562D01*
X84799000Y-92228105D01*
X84799000Y-91086895D01*
X84803181Y-91044438D01*
X84813774Y-91009519D01*
X84830976Y-90977337D01*
X84854127Y-90949127D01*
X84882337Y-90925976D01*
X84914519Y-90908774D01*
X84949438Y-90898181D01*
X84991895Y-90894000D01*
X86458105Y-90894000D01*
X86500562Y-90898181D01*
G37*
G36*
X89013512Y-90543927D02*
G01*
X89162812Y-90573624D01*
X89326784Y-90641544D01*
X89474354Y-90740147D01*
X89599853Y-90865646D01*
X89698456Y-91013216D01*
X89766376Y-91177188D01*
X89782576Y-91258635D01*
X89801000Y-91351258D01*
X89801000Y-91528742D01*
X89800117Y-91533181D01*
X89766376Y-91702812D01*
X89698456Y-91866784D01*
X89599853Y-92014354D01*
X89474354Y-92139853D01*
X89326784Y-92238456D01*
X89162812Y-92306376D01*
X89013512Y-92336073D01*
X88988742Y-92341000D01*
X88811258Y-92341000D01*
X88786488Y-92336073D01*
X88637188Y-92306376D01*
X88473216Y-92238456D01*
X88325646Y-92139853D01*
X88200147Y-92014354D01*
X88101544Y-91866784D01*
X88033624Y-91702812D01*
X87999883Y-91533181D01*
X87999000Y-91528742D01*
X87999000Y-91351258D01*
X88017424Y-91258635D01*
X88033624Y-91177188D01*
X88101544Y-91013216D01*
X88200147Y-90865646D01*
X88325646Y-90740147D01*
X88473216Y-90641544D01*
X88637188Y-90573624D01*
X88786488Y-90543927D01*
X88811258Y-90539000D01*
X88988742Y-90539000D01*
X89013512Y-90543927D01*
G37*
G36*
X76461564Y-88524389D02*
G01*
X76652833Y-88603615D01*
X76652835Y-88603616D01*
X76703302Y-88637337D01*
X76824973Y-88718635D01*
X76971365Y-88865027D01*
X77086385Y-89037167D01*
X77165611Y-89228436D01*
X77206000Y-89431484D01*
X77206000Y-89638516D01*
X77165611Y-89841564D01*
X77146333Y-89888105D01*
X77086384Y-90032835D01*
X76971365Y-90204973D01*
X76824973Y-90351365D01*
X76652835Y-90466384D01*
X76652834Y-90466385D01*
X76652833Y-90466385D01*
X76461564Y-90545611D01*
X76258516Y-90586000D01*
X76051484Y-90586000D01*
X75848436Y-90545611D01*
X75657167Y-90466385D01*
X75657166Y-90466385D01*
X75657165Y-90466384D01*
X75485027Y-90351365D01*
X75338635Y-90204973D01*
X75223616Y-90032835D01*
X75163667Y-89888105D01*
X75144389Y-89841564D01*
X75104000Y-89638516D01*
X75104000Y-89431484D01*
X75144389Y-89228436D01*
X75223615Y-89037167D01*
X75338635Y-88865027D01*
X75485027Y-88718635D01*
X75606698Y-88637337D01*
X75657165Y-88603616D01*
X75657167Y-88603615D01*
X75848436Y-88524389D01*
X76051484Y-88484000D01*
X76258516Y-88484000D01*
X76461564Y-88524389D01*
G37*
G36*
X56231564Y-88524389D02*
G01*
X56422833Y-88603615D01*
X56422835Y-88603616D01*
X56473302Y-88637337D01*
X56594973Y-88718635D01*
X56741365Y-88865027D01*
X56856385Y-89037167D01*
X56935611Y-89228436D01*
X56976000Y-89431484D01*
X56976000Y-89638516D01*
X56935611Y-89841564D01*
X56916333Y-89888105D01*
X56856384Y-90032835D01*
X56741365Y-90204973D01*
X56594973Y-90351365D01*
X56422835Y-90466384D01*
X56422834Y-90466385D01*
X56422833Y-90466385D01*
X56231564Y-90545611D01*
X56028516Y-90586000D01*
X55821484Y-90586000D01*
X55618436Y-90545611D01*
X55427167Y-90466385D01*
X55427166Y-90466385D01*
X55427165Y-90466384D01*
X55255027Y-90351365D01*
X55108635Y-90204973D01*
X54993616Y-90032835D01*
X54933667Y-89888105D01*
X54914389Y-89841564D01*
X54874000Y-89638516D01*
X54874000Y-89431484D01*
X54914389Y-89228436D01*
X54993615Y-89037167D01*
X55108635Y-88865027D01*
X55255027Y-88718635D01*
X55376698Y-88637337D01*
X55427165Y-88603616D01*
X55427167Y-88603615D01*
X55618436Y-88524389D01*
X55821484Y-88484000D01*
X56028516Y-88484000D01*
X56231564Y-88524389D01*
G37*
G36*
X54115562Y-88558181D02*
G01*
X54150481Y-88568774D01*
X54182663Y-88585976D01*
X54210873Y-88609127D01*
X54234024Y-88637337D01*
X54251226Y-88669519D01*
X54261819Y-88704438D01*
X54266000Y-88746895D01*
X54266000Y-89888105D01*
X54261819Y-89930562D01*
X54251226Y-89965481D01*
X54234024Y-89997663D01*
X54210873Y-90025873D01*
X54182663Y-90049024D01*
X54150481Y-90066226D01*
X54115562Y-90076819D01*
X54073105Y-90081000D01*
X52606895Y-90081000D01*
X52564438Y-90076819D01*
X52529519Y-90066226D01*
X52497337Y-90049024D01*
X52469127Y-90025873D01*
X52445976Y-89997663D01*
X52428774Y-89965481D01*
X52418181Y-89930562D01*
X52414000Y-89888105D01*
X52414000Y-88746895D01*
X52418181Y-88704438D01*
X52428774Y-88669519D01*
X52445976Y-88637337D01*
X52469127Y-88609127D01*
X52497337Y-88585976D01*
X52529519Y-88568774D01*
X52564438Y-88558181D01*
X52606895Y-88554000D01*
X54073105Y-88554000D01*
X54115562Y-88558181D01*
G37*
G36*
X89005518Y-88002337D02*
G01*
X89162812Y-88033624D01*
X89326784Y-88101544D01*
X89474354Y-88200147D01*
X89599853Y-88325646D01*
X89698456Y-88473216D01*
X89766376Y-88637188D01*
X89801000Y-88811259D01*
X89801000Y-88988741D01*
X89766376Y-89162812D01*
X89698456Y-89326784D01*
X89599853Y-89474354D01*
X89474354Y-89599853D01*
X89326784Y-89698456D01*
X89162812Y-89766376D01*
X89013512Y-89796073D01*
X88988742Y-89801000D01*
X88811258Y-89801000D01*
X88786488Y-89796073D01*
X88637188Y-89766376D01*
X88473216Y-89698456D01*
X88325646Y-89599853D01*
X88200147Y-89474354D01*
X88101544Y-89326784D01*
X88033624Y-89162812D01*
X87999000Y-88988741D01*
X87999000Y-88811259D01*
X88033624Y-88637188D01*
X88101544Y-88473216D01*
X88200147Y-88325646D01*
X88325646Y-88200147D01*
X88473216Y-88101544D01*
X88637188Y-88033624D01*
X88794482Y-88002337D01*
X88811258Y-87999000D01*
X88988742Y-87999000D01*
X89005518Y-88002337D01*
G37*
G36*
X86500562Y-87923181D02*
G01*
X86535481Y-87933774D01*
X86567663Y-87950976D01*
X86595873Y-87974127D01*
X86619024Y-88002337D01*
X86636226Y-88034519D01*
X86646819Y-88069438D01*
X86651000Y-88111895D01*
X86651000Y-89253105D01*
X86646819Y-89295562D01*
X86636226Y-89330481D01*
X86619024Y-89362663D01*
X86595873Y-89390873D01*
X86567663Y-89414024D01*
X86535481Y-89431226D01*
X86500562Y-89441819D01*
X86458105Y-89446000D01*
X84991895Y-89446000D01*
X84949438Y-89441819D01*
X84914519Y-89431226D01*
X84882337Y-89414024D01*
X84854127Y-89390873D01*
X84830976Y-89362663D01*
X84813774Y-89330481D01*
X84803181Y-89295562D01*
X84799000Y-89253105D01*
X84799000Y-88111895D01*
X84803181Y-88069438D01*
X84813774Y-88034519D01*
X84830976Y-88002337D01*
X84854127Y-87974127D01*
X84882337Y-87950976D01*
X84914519Y-87933774D01*
X84949438Y-87923181D01*
X84991895Y-87919000D01*
X86458105Y-87919000D01*
X86500562Y-87923181D01*
G37*
G36*
X76461564Y-85984389D02*
G01*
X76652833Y-86063615D01*
X76652835Y-86063616D01*
X76824973Y-86178635D01*
X76971365Y-86325027D01*
X77086385Y-86497167D01*
X77165611Y-86688436D01*
X77206000Y-86891484D01*
X77206000Y-87098516D01*
X77165611Y-87301564D01*
X77086385Y-87492833D01*
X77086384Y-87492835D01*
X76971365Y-87664973D01*
X76824973Y-87811365D01*
X76652835Y-87926384D01*
X76652834Y-87926385D01*
X76652833Y-87926385D01*
X76461564Y-88005611D01*
X76258516Y-88046000D01*
X76051484Y-88046000D01*
X75848436Y-88005611D01*
X75657167Y-87926385D01*
X75657166Y-87926385D01*
X75657165Y-87926384D01*
X75485027Y-87811365D01*
X75338635Y-87664973D01*
X75223616Y-87492835D01*
X75223615Y-87492833D01*
X75144389Y-87301564D01*
X75104000Y-87098516D01*
X75104000Y-86891484D01*
X75144389Y-86688436D01*
X75223615Y-86497167D01*
X75338635Y-86325027D01*
X75485027Y-86178635D01*
X75657165Y-86063616D01*
X75657167Y-86063615D01*
X75848436Y-85984389D01*
X76051484Y-85944000D01*
X76258516Y-85944000D01*
X76461564Y-85984389D01*
G37*
G36*
X56231564Y-85984389D02*
G01*
X56422833Y-86063615D01*
X56422835Y-86063616D01*
X56594973Y-86178635D01*
X56741365Y-86325027D01*
X56856385Y-86497167D01*
X56935611Y-86688436D01*
X56976000Y-86891484D01*
X56976000Y-87098516D01*
X56935611Y-87301564D01*
X56856385Y-87492833D01*
X56856384Y-87492835D01*
X56741365Y-87664973D01*
X56594973Y-87811365D01*
X56422835Y-87926384D01*
X56422834Y-87926385D01*
X56422833Y-87926385D01*
X56231564Y-88005611D01*
X56028516Y-88046000D01*
X55821484Y-88046000D01*
X55618436Y-88005611D01*
X55427167Y-87926385D01*
X55427166Y-87926385D01*
X55427165Y-87926384D01*
X55255027Y-87811365D01*
X55108635Y-87664973D01*
X54993616Y-87492835D01*
X54993615Y-87492833D01*
X54914389Y-87301564D01*
X54874000Y-87098516D01*
X54874000Y-86891484D01*
X54914389Y-86688436D01*
X54993615Y-86497167D01*
X55108635Y-86325027D01*
X55255027Y-86178635D01*
X55427165Y-86063616D01*
X55427167Y-86063615D01*
X55618436Y-85984389D01*
X55821484Y-85944000D01*
X56028516Y-85944000D01*
X56231564Y-85984389D01*
G37*
G36*
X89013512Y-85463927D02*
G01*
X89162812Y-85493624D01*
X89326784Y-85561544D01*
X89474354Y-85660147D01*
X89599853Y-85785646D01*
X89698456Y-85933216D01*
X89766376Y-86097188D01*
X89801000Y-86271259D01*
X89801000Y-86448741D01*
X89766376Y-86622812D01*
X89698456Y-86786784D01*
X89599853Y-86934354D01*
X89474354Y-87059853D01*
X89326784Y-87158456D01*
X89162812Y-87226376D01*
X89013512Y-87256073D01*
X88988742Y-87261000D01*
X88811258Y-87261000D01*
X88786488Y-87256073D01*
X88637188Y-87226376D01*
X88473216Y-87158456D01*
X88325646Y-87059853D01*
X88200147Y-86934354D01*
X88101544Y-86786784D01*
X88033624Y-86622812D01*
X87999000Y-86448741D01*
X87999000Y-86271259D01*
X88033624Y-86097188D01*
X88101544Y-85933216D01*
X88200147Y-85785646D01*
X88325646Y-85660147D01*
X88473216Y-85561544D01*
X88637188Y-85493624D01*
X88786488Y-85463927D01*
X88811258Y-85459000D01*
X88988742Y-85459000D01*
X89013512Y-85463927D01*
G37*
G36*
X76461564Y-83444389D02*
G01*
X76652833Y-83523615D01*
X76652835Y-83523616D01*
X76824973Y-83638635D01*
X76971365Y-83785027D01*
X77086385Y-83957167D01*
X77165611Y-84148436D01*
X77206000Y-84351484D01*
X77206000Y-84558516D01*
X77165611Y-84761564D01*
X77086385Y-84952833D01*
X77086384Y-84952835D01*
X76971365Y-85124973D01*
X76824973Y-85271365D01*
X76652835Y-85386384D01*
X76652834Y-85386385D01*
X76652833Y-85386385D01*
X76461564Y-85465611D01*
X76258516Y-85506000D01*
X76051484Y-85506000D01*
X75848436Y-85465611D01*
X75657167Y-85386385D01*
X75657166Y-85386385D01*
X75657165Y-85386384D01*
X75485027Y-85271365D01*
X75338635Y-85124973D01*
X75223616Y-84952835D01*
X75223615Y-84952833D01*
X75144389Y-84761564D01*
X75104000Y-84558516D01*
X75104000Y-84351484D01*
X75144389Y-84148436D01*
X75223615Y-83957167D01*
X75338635Y-83785027D01*
X75485027Y-83638635D01*
X75657165Y-83523616D01*
X75657167Y-83523615D01*
X75848436Y-83444389D01*
X76051484Y-83404000D01*
X76258516Y-83404000D01*
X76461564Y-83444389D01*
G37*
G36*
X89013512Y-82923927D02*
G01*
X89162812Y-82953624D01*
X89326784Y-83021544D01*
X89474354Y-83120147D01*
X89599853Y-83245646D01*
X89698456Y-83393216D01*
X89766376Y-83557188D01*
X89801000Y-83731259D01*
X89801000Y-83908741D01*
X89766376Y-84082812D01*
X89698456Y-84246784D01*
X89599853Y-84394354D01*
X89474354Y-84519853D01*
X89326784Y-84618456D01*
X89162812Y-84686376D01*
X89013512Y-84716073D01*
X88988742Y-84721000D01*
X88811258Y-84721000D01*
X88786488Y-84716073D01*
X88637188Y-84686376D01*
X88473216Y-84618456D01*
X88325646Y-84519853D01*
X88200147Y-84394354D01*
X88101544Y-84246784D01*
X88033624Y-84082812D01*
X87999000Y-83908741D01*
X87999000Y-83731259D01*
X88033624Y-83557188D01*
X88101544Y-83393216D01*
X88200147Y-83245646D01*
X88325646Y-83120147D01*
X88473216Y-83021544D01*
X88637188Y-82953624D01*
X88786488Y-82923927D01*
X88811258Y-82919000D01*
X88988742Y-82919000D01*
X89013512Y-82923927D01*
G37*
G36*
X89801000Y-82181000D02*
G01*
X87999000Y-82181000D01*
X87999000Y-80379000D01*
X89801000Y-80379000D01*
X89801000Y-82181000D01*
G37*
G36*
X62831000Y-81361000D02*
G01*
X61629000Y-81361000D01*
X61629000Y-79459000D01*
X62831000Y-79459000D01*
X62831000Y-81361000D01*
G37*
G36*
X65179315Y-79464166D02*
G01*
X65223843Y-79477674D01*
X65264892Y-79499615D01*
X65300864Y-79529136D01*
X65330385Y-79565108D01*
X65352326Y-79606157D01*
X65365834Y-79650685D01*
X65371000Y-79703140D01*
X65371000Y-81116860D01*
X65365834Y-81169315D01*
X65352326Y-81213843D01*
X65330385Y-81254892D01*
X65300864Y-81290864D01*
X65264892Y-81320385D01*
X65223843Y-81342326D01*
X65179315Y-81355834D01*
X65126860Y-81361000D01*
X64413140Y-81361000D01*
X64360685Y-81355834D01*
X64316157Y-81342326D01*
X64275108Y-81320385D01*
X64239136Y-81290864D01*
X64209615Y-81254892D01*
X64187674Y-81213843D01*
X64174166Y-81169315D01*
X64169000Y-81116860D01*
X64169000Y-79703140D01*
X64174166Y-79650685D01*
X64187674Y-79606157D01*
X64209615Y-79565108D01*
X64239136Y-79529136D01*
X64275108Y-79499615D01*
X64316157Y-79477674D01*
X64360685Y-79464166D01*
X64413140Y-79459000D01*
X65126860Y-79459000D01*
X65179315Y-79464166D01*
G37*
G36*
X71386000Y-80911000D02*
G01*
X69584000Y-80911000D01*
X69584000Y-79109000D01*
X71386000Y-79109000D01*
X71386000Y-80911000D01*
G37*
G36*
X63909315Y-77394166D02*
G01*
X63953843Y-77407674D01*
X63994892Y-77429615D01*
X64030864Y-77459136D01*
X64060385Y-77495108D01*
X64082326Y-77536157D01*
X64095834Y-77580685D01*
X64101000Y-77633140D01*
X64101000Y-79046860D01*
X64095834Y-79099315D01*
X64082326Y-79143843D01*
X64060385Y-79184892D01*
X64030864Y-79220864D01*
X63994892Y-79250385D01*
X63953843Y-79272326D01*
X63909315Y-79285834D01*
X63856860Y-79291000D01*
X63143140Y-79291000D01*
X63090685Y-79285834D01*
X63046153Y-79272325D01*
X63014923Y-79255632D01*
X63000320Y-79249583D01*
X62989256Y-79237376D01*
X62969136Y-79220864D01*
X62939615Y-79184892D01*
X62917674Y-79143843D01*
X62904166Y-79099315D01*
X62899000Y-79046860D01*
X62899000Y-77633140D01*
X62904166Y-77580685D01*
X62917674Y-77536157D01*
X62939615Y-77495108D01*
X62969136Y-77459136D01*
X63005108Y-77429615D01*
X63046157Y-77407674D01*
X63090685Y-77394166D01*
X63143140Y-77389000D01*
X63856860Y-77389000D01*
X63909315Y-77394166D01*
G37*
M02*
