G04 #@! TF.GenerationSoftware,KiCad,Pcbnew,5.1.5-52549c5~84~ubuntu18.04.1*
G04 #@! TF.CreationDate,2020-03-18T13:38:27+01:00*
G04 #@! TF.ProjectId,pcb_loadcell-dev-hx711,7063625f-6c6f-4616-9463-656c6c2d6465,rev?*
G04 #@! TF.SameCoordinates,Original*
G04 #@! TF.FileFunction,Paste,Bot*
G04 #@! TF.FilePolarity,Positive*
%FSLAX46Y46*%
G04 Gerber Fmt 4.6, Leading zero omitted, Abs format (unit mm)*
G04 Created by KiCad (PCBNEW 5.1.5-52549c5~84~ubuntu18.04.1) date 2020-03-18 13:38:27*
%MOMM*%
%LPD*%
G04 APERTURE LIST*
%ADD10C,0.100000*%
G04 APERTURE END LIST*
D10*
G36*
X53989504Y-91581204D02*
G01*
X54013773Y-91584804D01*
X54037571Y-91590765D01*
X54060671Y-91599030D01*
X54082849Y-91609520D01*
X54103893Y-91622133D01*
X54123598Y-91636747D01*
X54141777Y-91653223D01*
X54158253Y-91671402D01*
X54172867Y-91691107D01*
X54185480Y-91712151D01*
X54195970Y-91734329D01*
X54204235Y-91757429D01*
X54210196Y-91781227D01*
X54213796Y-91805496D01*
X54215000Y-91830000D01*
X54215000Y-92755000D01*
X54213796Y-92779504D01*
X54210196Y-92803773D01*
X54204235Y-92827571D01*
X54195970Y-92850671D01*
X54185480Y-92872849D01*
X54172867Y-92893893D01*
X54158253Y-92913598D01*
X54141777Y-92931777D01*
X54123598Y-92948253D01*
X54103893Y-92962867D01*
X54082849Y-92975480D01*
X54060671Y-92985970D01*
X54037571Y-92994235D01*
X54013773Y-93000196D01*
X53989504Y-93003796D01*
X53965000Y-93005000D01*
X52715000Y-93005000D01*
X52690496Y-93003796D01*
X52666227Y-93000196D01*
X52642429Y-92994235D01*
X52619329Y-92985970D01*
X52597151Y-92975480D01*
X52576107Y-92962867D01*
X52556402Y-92948253D01*
X52538223Y-92931777D01*
X52521747Y-92913598D01*
X52507133Y-92893893D01*
X52494520Y-92872849D01*
X52484030Y-92850671D01*
X52475765Y-92827571D01*
X52469804Y-92803773D01*
X52466204Y-92779504D01*
X52465000Y-92755000D01*
X52465000Y-91830000D01*
X52466204Y-91805496D01*
X52469804Y-91781227D01*
X52475765Y-91757429D01*
X52484030Y-91734329D01*
X52494520Y-91712151D01*
X52507133Y-91691107D01*
X52521747Y-91671402D01*
X52538223Y-91653223D01*
X52556402Y-91636747D01*
X52576107Y-91622133D01*
X52597151Y-91609520D01*
X52619329Y-91599030D01*
X52642429Y-91590765D01*
X52666227Y-91584804D01*
X52690496Y-91581204D01*
X52715000Y-91580000D01*
X53965000Y-91580000D01*
X53989504Y-91581204D01*
G37*
G36*
X53989504Y-88606204D02*
G01*
X54013773Y-88609804D01*
X54037571Y-88615765D01*
X54060671Y-88624030D01*
X54082849Y-88634520D01*
X54103893Y-88647133D01*
X54123598Y-88661747D01*
X54141777Y-88678223D01*
X54158253Y-88696402D01*
X54172867Y-88716107D01*
X54185480Y-88737151D01*
X54195970Y-88759329D01*
X54204235Y-88782429D01*
X54210196Y-88806227D01*
X54213796Y-88830496D01*
X54215000Y-88855000D01*
X54215000Y-89780000D01*
X54213796Y-89804504D01*
X54210196Y-89828773D01*
X54204235Y-89852571D01*
X54195970Y-89875671D01*
X54185480Y-89897849D01*
X54172867Y-89918893D01*
X54158253Y-89938598D01*
X54141777Y-89956777D01*
X54123598Y-89973253D01*
X54103893Y-89987867D01*
X54082849Y-90000480D01*
X54060671Y-90010970D01*
X54037571Y-90019235D01*
X54013773Y-90025196D01*
X53989504Y-90028796D01*
X53965000Y-90030000D01*
X52715000Y-90030000D01*
X52690496Y-90028796D01*
X52666227Y-90025196D01*
X52642429Y-90019235D01*
X52619329Y-90010970D01*
X52597151Y-90000480D01*
X52576107Y-89987867D01*
X52556402Y-89973253D01*
X52538223Y-89956777D01*
X52521747Y-89938598D01*
X52507133Y-89918893D01*
X52494520Y-89897849D01*
X52484030Y-89875671D01*
X52475765Y-89852571D01*
X52469804Y-89828773D01*
X52466204Y-89804504D01*
X52465000Y-89780000D01*
X52465000Y-88855000D01*
X52466204Y-88830496D01*
X52469804Y-88806227D01*
X52475765Y-88782429D01*
X52484030Y-88759329D01*
X52494520Y-88737151D01*
X52507133Y-88716107D01*
X52521747Y-88696402D01*
X52538223Y-88678223D01*
X52556402Y-88661747D01*
X52576107Y-88647133D01*
X52597151Y-88634520D01*
X52619329Y-88624030D01*
X52642429Y-88615765D01*
X52666227Y-88609804D01*
X52690496Y-88606204D01*
X52715000Y-88605000D01*
X53965000Y-88605000D01*
X53989504Y-88606204D01*
G37*
G36*
X86374504Y-87971204D02*
G01*
X86398773Y-87974804D01*
X86422571Y-87980765D01*
X86445671Y-87989030D01*
X86467849Y-87999520D01*
X86488893Y-88012133D01*
X86508598Y-88026747D01*
X86526777Y-88043223D01*
X86543253Y-88061402D01*
X86557867Y-88081107D01*
X86570480Y-88102151D01*
X86580970Y-88124329D01*
X86589235Y-88147429D01*
X86595196Y-88171227D01*
X86598796Y-88195496D01*
X86600000Y-88220000D01*
X86600000Y-89145000D01*
X86598796Y-89169504D01*
X86595196Y-89193773D01*
X86589235Y-89217571D01*
X86580970Y-89240671D01*
X86570480Y-89262849D01*
X86557867Y-89283893D01*
X86543253Y-89303598D01*
X86526777Y-89321777D01*
X86508598Y-89338253D01*
X86488893Y-89352867D01*
X86467849Y-89365480D01*
X86445671Y-89375970D01*
X86422571Y-89384235D01*
X86398773Y-89390196D01*
X86374504Y-89393796D01*
X86350000Y-89395000D01*
X85100000Y-89395000D01*
X85075496Y-89393796D01*
X85051227Y-89390196D01*
X85027429Y-89384235D01*
X85004329Y-89375970D01*
X84982151Y-89365480D01*
X84961107Y-89352867D01*
X84941402Y-89338253D01*
X84923223Y-89321777D01*
X84906747Y-89303598D01*
X84892133Y-89283893D01*
X84879520Y-89262849D01*
X84869030Y-89240671D01*
X84860765Y-89217571D01*
X84854804Y-89193773D01*
X84851204Y-89169504D01*
X84850000Y-89145000D01*
X84850000Y-88220000D01*
X84851204Y-88195496D01*
X84854804Y-88171227D01*
X84860765Y-88147429D01*
X84869030Y-88124329D01*
X84879520Y-88102151D01*
X84892133Y-88081107D01*
X84906747Y-88061402D01*
X84923223Y-88043223D01*
X84941402Y-88026747D01*
X84961107Y-88012133D01*
X84982151Y-87999520D01*
X85004329Y-87989030D01*
X85027429Y-87980765D01*
X85051227Y-87974804D01*
X85075496Y-87971204D01*
X85100000Y-87970000D01*
X86350000Y-87970000D01*
X86374504Y-87971204D01*
G37*
G36*
X86374504Y-90946204D02*
G01*
X86398773Y-90949804D01*
X86422571Y-90955765D01*
X86445671Y-90964030D01*
X86467849Y-90974520D01*
X86488893Y-90987133D01*
X86508598Y-91001747D01*
X86526777Y-91018223D01*
X86543253Y-91036402D01*
X86557867Y-91056107D01*
X86570480Y-91077151D01*
X86580970Y-91099329D01*
X86589235Y-91122429D01*
X86595196Y-91146227D01*
X86598796Y-91170496D01*
X86600000Y-91195000D01*
X86600000Y-92120000D01*
X86598796Y-92144504D01*
X86595196Y-92168773D01*
X86589235Y-92192571D01*
X86580970Y-92215671D01*
X86570480Y-92237849D01*
X86557867Y-92258893D01*
X86543253Y-92278598D01*
X86526777Y-92296777D01*
X86508598Y-92313253D01*
X86488893Y-92327867D01*
X86467849Y-92340480D01*
X86445671Y-92350970D01*
X86422571Y-92359235D01*
X86398773Y-92365196D01*
X86374504Y-92368796D01*
X86350000Y-92370000D01*
X85100000Y-92370000D01*
X85075496Y-92368796D01*
X85051227Y-92365196D01*
X85027429Y-92359235D01*
X85004329Y-92350970D01*
X84982151Y-92340480D01*
X84961107Y-92327867D01*
X84941402Y-92313253D01*
X84923223Y-92296777D01*
X84906747Y-92278598D01*
X84892133Y-92258893D01*
X84879520Y-92237849D01*
X84869030Y-92215671D01*
X84860765Y-92192571D01*
X84854804Y-92168773D01*
X84851204Y-92144504D01*
X84850000Y-92120000D01*
X84850000Y-91195000D01*
X84851204Y-91170496D01*
X84854804Y-91146227D01*
X84860765Y-91122429D01*
X84869030Y-91099329D01*
X84879520Y-91077151D01*
X84892133Y-91056107D01*
X84906747Y-91036402D01*
X84923223Y-91018223D01*
X84941402Y-91001747D01*
X84961107Y-90987133D01*
X84982151Y-90974520D01*
X85004329Y-90964030D01*
X85027429Y-90955765D01*
X85051227Y-90949804D01*
X85075496Y-90946204D01*
X85100000Y-90945000D01*
X86350000Y-90945000D01*
X86374504Y-90946204D01*
G37*
M02*
