G04 #@! TF.GenerationSoftware,KiCad,Pcbnew,5.1.5-52549c5~84~ubuntu18.04.1*
G04 #@! TF.CreationDate,2020-03-18T13:42:57+01:00*
G04 #@! TF.ProjectId,esp32_breakout,65737033-325f-4627-9265-616b6f75742e,rev?*
G04 #@! TF.SameCoordinates,Original*
G04 #@! TF.FileFunction,Copper,L2,Bot*
G04 #@! TF.FilePolarity,Positive*
%FSLAX46Y46*%
G04 Gerber Fmt 4.6, Leading zero omitted, Abs format (unit mm)*
G04 Created by KiCad (PCBNEW 5.1.5-52549c5~84~ubuntu18.04.1) date 2020-03-18 13:42:57*
%MOMM*%
%LPD*%
G04 APERTURE LIST*
%ADD10C,0.100000*%
%ADD11O,1.700000X1.700000*%
%ADD12R,1.700000X1.700000*%
%ADD13C,0.800000*%
%ADD14C,3.200000*%
%ADD15C,0.500000*%
%ADD16C,0.254000*%
G04 APERTURE END LIST*
G04 #@! TA.AperFunction,SMDPad,CuDef*
D10*
G36*
X66309504Y-79771204D02*
G01*
X66333773Y-79774804D01*
X66357571Y-79780765D01*
X66380671Y-79789030D01*
X66402849Y-79799520D01*
X66423893Y-79812133D01*
X66443598Y-79826747D01*
X66461777Y-79843223D01*
X66478253Y-79861402D01*
X66492867Y-79881107D01*
X66505480Y-79902151D01*
X66515970Y-79924329D01*
X66524235Y-79947429D01*
X66530196Y-79971227D01*
X66533796Y-79995496D01*
X66535000Y-80020000D01*
X66535000Y-81270000D01*
X66533796Y-81294504D01*
X66530196Y-81318773D01*
X66524235Y-81342571D01*
X66515970Y-81365671D01*
X66505480Y-81387849D01*
X66492867Y-81408893D01*
X66478253Y-81428598D01*
X66461777Y-81446777D01*
X66443598Y-81463253D01*
X66423893Y-81477867D01*
X66402849Y-81490480D01*
X66380671Y-81500970D01*
X66357571Y-81509235D01*
X66333773Y-81515196D01*
X66309504Y-81518796D01*
X66285000Y-81520000D01*
X65360000Y-81520000D01*
X65335496Y-81518796D01*
X65311227Y-81515196D01*
X65287429Y-81509235D01*
X65264329Y-81500970D01*
X65242151Y-81490480D01*
X65221107Y-81477867D01*
X65201402Y-81463253D01*
X65183223Y-81446777D01*
X65166747Y-81428598D01*
X65152133Y-81408893D01*
X65139520Y-81387849D01*
X65129030Y-81365671D01*
X65120765Y-81342571D01*
X65114804Y-81318773D01*
X65111204Y-81294504D01*
X65110000Y-81270000D01*
X65110000Y-80020000D01*
X65111204Y-79995496D01*
X65114804Y-79971227D01*
X65120765Y-79947429D01*
X65129030Y-79924329D01*
X65139520Y-79902151D01*
X65152133Y-79881107D01*
X65166747Y-79861402D01*
X65183223Y-79843223D01*
X65201402Y-79826747D01*
X65221107Y-79812133D01*
X65242151Y-79799520D01*
X65264329Y-79789030D01*
X65287429Y-79780765D01*
X65311227Y-79774804D01*
X65335496Y-79771204D01*
X65360000Y-79770000D01*
X66285000Y-79770000D01*
X66309504Y-79771204D01*
G37*
G04 #@! TD.AperFunction*
G04 #@! TA.AperFunction,SMDPad,CuDef*
G36*
X69284504Y-79771204D02*
G01*
X69308773Y-79774804D01*
X69332571Y-79780765D01*
X69355671Y-79789030D01*
X69377849Y-79799520D01*
X69398893Y-79812133D01*
X69418598Y-79826747D01*
X69436777Y-79843223D01*
X69453253Y-79861402D01*
X69467867Y-79881107D01*
X69480480Y-79902151D01*
X69490970Y-79924329D01*
X69499235Y-79947429D01*
X69505196Y-79971227D01*
X69508796Y-79995496D01*
X69510000Y-80020000D01*
X69510000Y-81270000D01*
X69508796Y-81294504D01*
X69505196Y-81318773D01*
X69499235Y-81342571D01*
X69490970Y-81365671D01*
X69480480Y-81387849D01*
X69467867Y-81408893D01*
X69453253Y-81428598D01*
X69436777Y-81446777D01*
X69418598Y-81463253D01*
X69398893Y-81477867D01*
X69377849Y-81490480D01*
X69355671Y-81500970D01*
X69332571Y-81509235D01*
X69308773Y-81515196D01*
X69284504Y-81518796D01*
X69260000Y-81520000D01*
X68335000Y-81520000D01*
X68310496Y-81518796D01*
X68286227Y-81515196D01*
X68262429Y-81509235D01*
X68239329Y-81500970D01*
X68217151Y-81490480D01*
X68196107Y-81477867D01*
X68176402Y-81463253D01*
X68158223Y-81446777D01*
X68141747Y-81428598D01*
X68127133Y-81408893D01*
X68114520Y-81387849D01*
X68104030Y-81365671D01*
X68095765Y-81342571D01*
X68089804Y-81318773D01*
X68086204Y-81294504D01*
X68085000Y-81270000D01*
X68085000Y-80020000D01*
X68086204Y-79995496D01*
X68089804Y-79971227D01*
X68095765Y-79947429D01*
X68104030Y-79924329D01*
X68114520Y-79902151D01*
X68127133Y-79881107D01*
X68141747Y-79861402D01*
X68158223Y-79843223D01*
X68176402Y-79826747D01*
X68196107Y-79812133D01*
X68217151Y-79799520D01*
X68239329Y-79789030D01*
X68262429Y-79780765D01*
X68286227Y-79774804D01*
X68310496Y-79771204D01*
X68335000Y-79770000D01*
X69260000Y-79770000D01*
X69284504Y-79771204D01*
G37*
G04 #@! TD.AperFunction*
G04 #@! TA.AperFunction,SMDPad,CuDef*
G36*
X66309504Y-77231204D02*
G01*
X66333773Y-77234804D01*
X66357571Y-77240765D01*
X66380671Y-77249030D01*
X66402849Y-77259520D01*
X66423893Y-77272133D01*
X66443598Y-77286747D01*
X66461777Y-77303223D01*
X66478253Y-77321402D01*
X66492867Y-77341107D01*
X66505480Y-77362151D01*
X66515970Y-77384329D01*
X66524235Y-77407429D01*
X66530196Y-77431227D01*
X66533796Y-77455496D01*
X66535000Y-77480000D01*
X66535000Y-78730000D01*
X66533796Y-78754504D01*
X66530196Y-78778773D01*
X66524235Y-78802571D01*
X66515970Y-78825671D01*
X66505480Y-78847849D01*
X66492867Y-78868893D01*
X66478253Y-78888598D01*
X66461777Y-78906777D01*
X66443598Y-78923253D01*
X66423893Y-78937867D01*
X66402849Y-78950480D01*
X66380671Y-78960970D01*
X66357571Y-78969235D01*
X66333773Y-78975196D01*
X66309504Y-78978796D01*
X66285000Y-78980000D01*
X65360000Y-78980000D01*
X65335496Y-78978796D01*
X65311227Y-78975196D01*
X65287429Y-78969235D01*
X65264329Y-78960970D01*
X65242151Y-78950480D01*
X65221107Y-78937867D01*
X65201402Y-78923253D01*
X65183223Y-78906777D01*
X65166747Y-78888598D01*
X65152133Y-78868893D01*
X65139520Y-78847849D01*
X65129030Y-78825671D01*
X65120765Y-78802571D01*
X65114804Y-78778773D01*
X65111204Y-78754504D01*
X65110000Y-78730000D01*
X65110000Y-77480000D01*
X65111204Y-77455496D01*
X65114804Y-77431227D01*
X65120765Y-77407429D01*
X65129030Y-77384329D01*
X65139520Y-77362151D01*
X65152133Y-77341107D01*
X65166747Y-77321402D01*
X65183223Y-77303223D01*
X65201402Y-77286747D01*
X65221107Y-77272133D01*
X65242151Y-77259520D01*
X65264329Y-77249030D01*
X65287429Y-77240765D01*
X65311227Y-77234804D01*
X65335496Y-77231204D01*
X65360000Y-77230000D01*
X66285000Y-77230000D01*
X66309504Y-77231204D01*
G37*
G04 #@! TD.AperFunction*
G04 #@! TA.AperFunction,SMDPad,CuDef*
G36*
X69284504Y-77231204D02*
G01*
X69308773Y-77234804D01*
X69332571Y-77240765D01*
X69355671Y-77249030D01*
X69377849Y-77259520D01*
X69398893Y-77272133D01*
X69418598Y-77286747D01*
X69436777Y-77303223D01*
X69453253Y-77321402D01*
X69467867Y-77341107D01*
X69480480Y-77362151D01*
X69490970Y-77384329D01*
X69499235Y-77407429D01*
X69505196Y-77431227D01*
X69508796Y-77455496D01*
X69510000Y-77480000D01*
X69510000Y-78730000D01*
X69508796Y-78754504D01*
X69505196Y-78778773D01*
X69499235Y-78802571D01*
X69490970Y-78825671D01*
X69480480Y-78847849D01*
X69467867Y-78868893D01*
X69453253Y-78888598D01*
X69436777Y-78906777D01*
X69418598Y-78923253D01*
X69398893Y-78937867D01*
X69377849Y-78950480D01*
X69355671Y-78960970D01*
X69332571Y-78969235D01*
X69308773Y-78975196D01*
X69284504Y-78978796D01*
X69260000Y-78980000D01*
X68335000Y-78980000D01*
X68310496Y-78978796D01*
X68286227Y-78975196D01*
X68262429Y-78969235D01*
X68239329Y-78960970D01*
X68217151Y-78950480D01*
X68196107Y-78937867D01*
X68176402Y-78923253D01*
X68158223Y-78906777D01*
X68141747Y-78888598D01*
X68127133Y-78868893D01*
X68114520Y-78847849D01*
X68104030Y-78825671D01*
X68095765Y-78802571D01*
X68089804Y-78778773D01*
X68086204Y-78754504D01*
X68085000Y-78730000D01*
X68085000Y-77480000D01*
X68086204Y-77455496D01*
X68089804Y-77431227D01*
X68095765Y-77407429D01*
X68104030Y-77384329D01*
X68114520Y-77362151D01*
X68127133Y-77341107D01*
X68141747Y-77321402D01*
X68158223Y-77303223D01*
X68176402Y-77286747D01*
X68196107Y-77272133D01*
X68217151Y-77259520D01*
X68239329Y-77249030D01*
X68262429Y-77240765D01*
X68286227Y-77234804D01*
X68310496Y-77231204D01*
X68335000Y-77230000D01*
X69260000Y-77230000D01*
X69284504Y-77231204D01*
G37*
G04 #@! TD.AperFunction*
D11*
X88900000Y-99060000D03*
X86360000Y-99060000D03*
X83820000Y-99060000D03*
X81280000Y-99060000D03*
X78740000Y-99060000D03*
X76200000Y-99060000D03*
X73660000Y-99060000D03*
X71120000Y-99060000D03*
X68580000Y-99060000D03*
D12*
X66040000Y-99060000D03*
D11*
X96520000Y-66040000D03*
X96520000Y-68580000D03*
X96520000Y-71120000D03*
X96520000Y-73660000D03*
X96520000Y-76200000D03*
X96520000Y-78740000D03*
X96520000Y-81280000D03*
X96520000Y-83820000D03*
X96520000Y-86360000D03*
X96520000Y-88900000D03*
X96520000Y-91440000D03*
X96520000Y-93980000D03*
X96520000Y-96520000D03*
D12*
X96520000Y-99060000D03*
D11*
X58420000Y-99060000D03*
X58420000Y-96520000D03*
X58420000Y-93980000D03*
X58420000Y-91440000D03*
X58420000Y-88900000D03*
X58420000Y-86360000D03*
X58420000Y-83820000D03*
X58420000Y-81280000D03*
X58420000Y-78740000D03*
X58420000Y-76200000D03*
X58420000Y-73660000D03*
X58420000Y-71120000D03*
X58420000Y-68580000D03*
D12*
X58420000Y-66040000D03*
G04 #@! TA.AperFunction,SMDPad,CuDef*
D10*
G36*
X75634504Y-77231204D02*
G01*
X75658773Y-77234804D01*
X75682571Y-77240765D01*
X75705671Y-77249030D01*
X75727849Y-77259520D01*
X75748893Y-77272133D01*
X75768598Y-77286747D01*
X75786777Y-77303223D01*
X75803253Y-77321402D01*
X75817867Y-77341107D01*
X75830480Y-77362151D01*
X75840970Y-77384329D01*
X75849235Y-77407429D01*
X75855196Y-77431227D01*
X75858796Y-77455496D01*
X75860000Y-77480000D01*
X75860000Y-78730000D01*
X75858796Y-78754504D01*
X75855196Y-78778773D01*
X75849235Y-78802571D01*
X75840970Y-78825671D01*
X75830480Y-78847849D01*
X75817867Y-78868893D01*
X75803253Y-78888598D01*
X75786777Y-78906777D01*
X75768598Y-78923253D01*
X75748893Y-78937867D01*
X75727849Y-78950480D01*
X75705671Y-78960970D01*
X75682571Y-78969235D01*
X75658773Y-78975196D01*
X75634504Y-78978796D01*
X75610000Y-78980000D01*
X74685000Y-78980000D01*
X74660496Y-78978796D01*
X74636227Y-78975196D01*
X74612429Y-78969235D01*
X74589329Y-78960970D01*
X74567151Y-78950480D01*
X74546107Y-78937867D01*
X74526402Y-78923253D01*
X74508223Y-78906777D01*
X74491747Y-78888598D01*
X74477133Y-78868893D01*
X74464520Y-78847849D01*
X74454030Y-78825671D01*
X74445765Y-78802571D01*
X74439804Y-78778773D01*
X74436204Y-78754504D01*
X74435000Y-78730000D01*
X74435000Y-77480000D01*
X74436204Y-77455496D01*
X74439804Y-77431227D01*
X74445765Y-77407429D01*
X74454030Y-77384329D01*
X74464520Y-77362151D01*
X74477133Y-77341107D01*
X74491747Y-77321402D01*
X74508223Y-77303223D01*
X74526402Y-77286747D01*
X74546107Y-77272133D01*
X74567151Y-77259520D01*
X74589329Y-77249030D01*
X74612429Y-77240765D01*
X74636227Y-77234804D01*
X74660496Y-77231204D01*
X74685000Y-77230000D01*
X75610000Y-77230000D01*
X75634504Y-77231204D01*
G37*
G04 #@! TD.AperFunction*
G04 #@! TA.AperFunction,SMDPad,CuDef*
G36*
X72659504Y-77231204D02*
G01*
X72683773Y-77234804D01*
X72707571Y-77240765D01*
X72730671Y-77249030D01*
X72752849Y-77259520D01*
X72773893Y-77272133D01*
X72793598Y-77286747D01*
X72811777Y-77303223D01*
X72828253Y-77321402D01*
X72842867Y-77341107D01*
X72855480Y-77362151D01*
X72865970Y-77384329D01*
X72874235Y-77407429D01*
X72880196Y-77431227D01*
X72883796Y-77455496D01*
X72885000Y-77480000D01*
X72885000Y-78730000D01*
X72883796Y-78754504D01*
X72880196Y-78778773D01*
X72874235Y-78802571D01*
X72865970Y-78825671D01*
X72855480Y-78847849D01*
X72842867Y-78868893D01*
X72828253Y-78888598D01*
X72811777Y-78906777D01*
X72793598Y-78923253D01*
X72773893Y-78937867D01*
X72752849Y-78950480D01*
X72730671Y-78960970D01*
X72707571Y-78969235D01*
X72683773Y-78975196D01*
X72659504Y-78978796D01*
X72635000Y-78980000D01*
X71710000Y-78980000D01*
X71685496Y-78978796D01*
X71661227Y-78975196D01*
X71637429Y-78969235D01*
X71614329Y-78960970D01*
X71592151Y-78950480D01*
X71571107Y-78937867D01*
X71551402Y-78923253D01*
X71533223Y-78906777D01*
X71516747Y-78888598D01*
X71502133Y-78868893D01*
X71489520Y-78847849D01*
X71479030Y-78825671D01*
X71470765Y-78802571D01*
X71464804Y-78778773D01*
X71461204Y-78754504D01*
X71460000Y-78730000D01*
X71460000Y-77480000D01*
X71461204Y-77455496D01*
X71464804Y-77431227D01*
X71470765Y-77407429D01*
X71479030Y-77384329D01*
X71489520Y-77362151D01*
X71502133Y-77341107D01*
X71516747Y-77321402D01*
X71533223Y-77303223D01*
X71551402Y-77286747D01*
X71571107Y-77272133D01*
X71592151Y-77259520D01*
X71614329Y-77249030D01*
X71637429Y-77240765D01*
X71661227Y-77234804D01*
X71685496Y-77231204D01*
X71710000Y-77230000D01*
X72635000Y-77230000D01*
X72659504Y-77231204D01*
G37*
G04 #@! TD.AperFunction*
G04 #@! TA.AperFunction,SMDPad,CuDef*
G36*
X75634504Y-79771204D02*
G01*
X75658773Y-79774804D01*
X75682571Y-79780765D01*
X75705671Y-79789030D01*
X75727849Y-79799520D01*
X75748893Y-79812133D01*
X75768598Y-79826747D01*
X75786777Y-79843223D01*
X75803253Y-79861402D01*
X75817867Y-79881107D01*
X75830480Y-79902151D01*
X75840970Y-79924329D01*
X75849235Y-79947429D01*
X75855196Y-79971227D01*
X75858796Y-79995496D01*
X75860000Y-80020000D01*
X75860000Y-81270000D01*
X75858796Y-81294504D01*
X75855196Y-81318773D01*
X75849235Y-81342571D01*
X75840970Y-81365671D01*
X75830480Y-81387849D01*
X75817867Y-81408893D01*
X75803253Y-81428598D01*
X75786777Y-81446777D01*
X75768598Y-81463253D01*
X75748893Y-81477867D01*
X75727849Y-81490480D01*
X75705671Y-81500970D01*
X75682571Y-81509235D01*
X75658773Y-81515196D01*
X75634504Y-81518796D01*
X75610000Y-81520000D01*
X74685000Y-81520000D01*
X74660496Y-81518796D01*
X74636227Y-81515196D01*
X74612429Y-81509235D01*
X74589329Y-81500970D01*
X74567151Y-81490480D01*
X74546107Y-81477867D01*
X74526402Y-81463253D01*
X74508223Y-81446777D01*
X74491747Y-81428598D01*
X74477133Y-81408893D01*
X74464520Y-81387849D01*
X74454030Y-81365671D01*
X74445765Y-81342571D01*
X74439804Y-81318773D01*
X74436204Y-81294504D01*
X74435000Y-81270000D01*
X74435000Y-80020000D01*
X74436204Y-79995496D01*
X74439804Y-79971227D01*
X74445765Y-79947429D01*
X74454030Y-79924329D01*
X74464520Y-79902151D01*
X74477133Y-79881107D01*
X74491747Y-79861402D01*
X74508223Y-79843223D01*
X74526402Y-79826747D01*
X74546107Y-79812133D01*
X74567151Y-79799520D01*
X74589329Y-79789030D01*
X74612429Y-79780765D01*
X74636227Y-79774804D01*
X74660496Y-79771204D01*
X74685000Y-79770000D01*
X75610000Y-79770000D01*
X75634504Y-79771204D01*
G37*
G04 #@! TD.AperFunction*
G04 #@! TA.AperFunction,SMDPad,CuDef*
G36*
X72659504Y-79771204D02*
G01*
X72683773Y-79774804D01*
X72707571Y-79780765D01*
X72730671Y-79789030D01*
X72752849Y-79799520D01*
X72773893Y-79812133D01*
X72793598Y-79826747D01*
X72811777Y-79843223D01*
X72828253Y-79861402D01*
X72842867Y-79881107D01*
X72855480Y-79902151D01*
X72865970Y-79924329D01*
X72874235Y-79947429D01*
X72880196Y-79971227D01*
X72883796Y-79995496D01*
X72885000Y-80020000D01*
X72885000Y-81270000D01*
X72883796Y-81294504D01*
X72880196Y-81318773D01*
X72874235Y-81342571D01*
X72865970Y-81365671D01*
X72855480Y-81387849D01*
X72842867Y-81408893D01*
X72828253Y-81428598D01*
X72811777Y-81446777D01*
X72793598Y-81463253D01*
X72773893Y-81477867D01*
X72752849Y-81490480D01*
X72730671Y-81500970D01*
X72707571Y-81509235D01*
X72683773Y-81515196D01*
X72659504Y-81518796D01*
X72635000Y-81520000D01*
X71710000Y-81520000D01*
X71685496Y-81518796D01*
X71661227Y-81515196D01*
X71637429Y-81509235D01*
X71614329Y-81500970D01*
X71592151Y-81490480D01*
X71571107Y-81477867D01*
X71551402Y-81463253D01*
X71533223Y-81446777D01*
X71516747Y-81428598D01*
X71502133Y-81408893D01*
X71489520Y-81387849D01*
X71479030Y-81365671D01*
X71470765Y-81342571D01*
X71464804Y-81318773D01*
X71461204Y-81294504D01*
X71460000Y-81270000D01*
X71460000Y-80020000D01*
X71461204Y-79995496D01*
X71464804Y-79971227D01*
X71470765Y-79947429D01*
X71479030Y-79924329D01*
X71489520Y-79902151D01*
X71502133Y-79881107D01*
X71516747Y-79861402D01*
X71533223Y-79843223D01*
X71551402Y-79826747D01*
X71571107Y-79812133D01*
X71592151Y-79799520D01*
X71614329Y-79789030D01*
X71637429Y-79780765D01*
X71661227Y-79774804D01*
X71685496Y-79771204D01*
X71710000Y-79770000D01*
X72635000Y-79770000D01*
X72659504Y-79771204D01*
G37*
G04 #@! TD.AperFunction*
D13*
X84455000Y-78105000D03*
X71755000Y-94615000D03*
X67310000Y-78105000D03*
D14*
X76454000Y-85598000D03*
D13*
X71120000Y-78105000D03*
X71120000Y-80645000D03*
X70485000Y-78740000D03*
X70570002Y-80010000D03*
D15*
X71120000Y-78105000D02*
X72172500Y-78105000D01*
X71120000Y-80645000D02*
X72172500Y-80645000D01*
X68797500Y-78105000D02*
X69850000Y-78105000D01*
X69850000Y-78105000D02*
X70485000Y-78740000D01*
X68797500Y-80645000D02*
X69935002Y-80645000D01*
X69935002Y-80645000D02*
X70570002Y-80010000D01*
X71120000Y-80559998D02*
X70570002Y-80010000D01*
X71120000Y-80645000D02*
X71120000Y-80559998D01*
X70485000Y-79924998D02*
X70570002Y-80010000D01*
X70485000Y-78740000D02*
X70485000Y-79924998D01*
X71120000Y-78105000D02*
X70485000Y-78740000D01*
D16*
G36*
X98400001Y-100940000D02*
G01*
X56540000Y-100940000D01*
X56540000Y-66890000D01*
X56931928Y-66890000D01*
X56944188Y-67014482D01*
X56980498Y-67134180D01*
X57039463Y-67244494D01*
X57118815Y-67341185D01*
X57215506Y-67420537D01*
X57325820Y-67479502D01*
X57398380Y-67501513D01*
X57266525Y-67633368D01*
X57104010Y-67876589D01*
X56992068Y-68146842D01*
X56935000Y-68433740D01*
X56935000Y-68726260D01*
X56992068Y-69013158D01*
X57104010Y-69283411D01*
X57266525Y-69526632D01*
X57473368Y-69733475D01*
X57647760Y-69850000D01*
X57473368Y-69966525D01*
X57266525Y-70173368D01*
X57104010Y-70416589D01*
X56992068Y-70686842D01*
X56935000Y-70973740D01*
X56935000Y-71266260D01*
X56992068Y-71553158D01*
X57104010Y-71823411D01*
X57266525Y-72066632D01*
X57473368Y-72273475D01*
X57647760Y-72390000D01*
X57473368Y-72506525D01*
X57266525Y-72713368D01*
X57104010Y-72956589D01*
X56992068Y-73226842D01*
X56935000Y-73513740D01*
X56935000Y-73806260D01*
X56992068Y-74093158D01*
X57104010Y-74363411D01*
X57266525Y-74606632D01*
X57473368Y-74813475D01*
X57647760Y-74930000D01*
X57473368Y-75046525D01*
X57266525Y-75253368D01*
X57104010Y-75496589D01*
X56992068Y-75766842D01*
X56935000Y-76053740D01*
X56935000Y-76346260D01*
X56992068Y-76633158D01*
X57104010Y-76903411D01*
X57266525Y-77146632D01*
X57473368Y-77353475D01*
X57647760Y-77470000D01*
X57473368Y-77586525D01*
X57266525Y-77793368D01*
X57104010Y-78036589D01*
X56992068Y-78306842D01*
X56935000Y-78593740D01*
X56935000Y-78886260D01*
X56992068Y-79173158D01*
X57104010Y-79443411D01*
X57266525Y-79686632D01*
X57473368Y-79893475D01*
X57647760Y-80010000D01*
X57473368Y-80126525D01*
X57266525Y-80333368D01*
X57104010Y-80576589D01*
X56992068Y-80846842D01*
X56935000Y-81133740D01*
X56935000Y-81426260D01*
X56992068Y-81713158D01*
X57104010Y-81983411D01*
X57266525Y-82226632D01*
X57473368Y-82433475D01*
X57647760Y-82550000D01*
X57473368Y-82666525D01*
X57266525Y-82873368D01*
X57104010Y-83116589D01*
X56992068Y-83386842D01*
X56935000Y-83673740D01*
X56935000Y-83966260D01*
X56992068Y-84253158D01*
X57104010Y-84523411D01*
X57266525Y-84766632D01*
X57473368Y-84973475D01*
X57647760Y-85090000D01*
X57473368Y-85206525D01*
X57266525Y-85413368D01*
X57104010Y-85656589D01*
X56992068Y-85926842D01*
X56935000Y-86213740D01*
X56935000Y-86506260D01*
X56992068Y-86793158D01*
X57104010Y-87063411D01*
X57266525Y-87306632D01*
X57473368Y-87513475D01*
X57647760Y-87630000D01*
X57473368Y-87746525D01*
X57266525Y-87953368D01*
X57104010Y-88196589D01*
X56992068Y-88466842D01*
X56935000Y-88753740D01*
X56935000Y-89046260D01*
X56992068Y-89333158D01*
X57104010Y-89603411D01*
X57266525Y-89846632D01*
X57473368Y-90053475D01*
X57647760Y-90170000D01*
X57473368Y-90286525D01*
X57266525Y-90493368D01*
X57104010Y-90736589D01*
X56992068Y-91006842D01*
X56935000Y-91293740D01*
X56935000Y-91586260D01*
X56992068Y-91873158D01*
X57104010Y-92143411D01*
X57266525Y-92386632D01*
X57473368Y-92593475D01*
X57647760Y-92710000D01*
X57473368Y-92826525D01*
X57266525Y-93033368D01*
X57104010Y-93276589D01*
X56992068Y-93546842D01*
X56935000Y-93833740D01*
X56935000Y-94126260D01*
X56992068Y-94413158D01*
X57104010Y-94683411D01*
X57266525Y-94926632D01*
X57473368Y-95133475D01*
X57647760Y-95250000D01*
X57473368Y-95366525D01*
X57266525Y-95573368D01*
X57104010Y-95816589D01*
X56992068Y-96086842D01*
X56935000Y-96373740D01*
X56935000Y-96666260D01*
X56992068Y-96953158D01*
X57104010Y-97223411D01*
X57266525Y-97466632D01*
X57473368Y-97673475D01*
X57647760Y-97790000D01*
X57473368Y-97906525D01*
X57266525Y-98113368D01*
X57104010Y-98356589D01*
X56992068Y-98626842D01*
X56935000Y-98913740D01*
X56935000Y-99206260D01*
X56992068Y-99493158D01*
X57104010Y-99763411D01*
X57266525Y-100006632D01*
X57473368Y-100213475D01*
X57716589Y-100375990D01*
X57986842Y-100487932D01*
X58273740Y-100545000D01*
X58566260Y-100545000D01*
X58853158Y-100487932D01*
X59123411Y-100375990D01*
X59366632Y-100213475D01*
X59573475Y-100006632D01*
X59638042Y-99910000D01*
X64551928Y-99910000D01*
X64564188Y-100034482D01*
X64600498Y-100154180D01*
X64659463Y-100264494D01*
X64738815Y-100361185D01*
X64835506Y-100440537D01*
X64945820Y-100499502D01*
X65065518Y-100535812D01*
X65190000Y-100548072D01*
X65754250Y-100545000D01*
X65913000Y-100386250D01*
X65913000Y-99187000D01*
X64713750Y-99187000D01*
X64555000Y-99345750D01*
X64551928Y-99910000D01*
X59638042Y-99910000D01*
X59735990Y-99763411D01*
X59847932Y-99493158D01*
X59905000Y-99206260D01*
X59905000Y-98913740D01*
X59847932Y-98626842D01*
X59735990Y-98356589D01*
X59638043Y-98210000D01*
X64551928Y-98210000D01*
X64555000Y-98774250D01*
X64713750Y-98933000D01*
X65913000Y-98933000D01*
X65913000Y-97733750D01*
X66167000Y-97733750D01*
X66167000Y-98933000D01*
X66187000Y-98933000D01*
X66187000Y-99187000D01*
X66167000Y-99187000D01*
X66167000Y-100386250D01*
X66325750Y-100545000D01*
X66890000Y-100548072D01*
X67014482Y-100535812D01*
X67134180Y-100499502D01*
X67244494Y-100440537D01*
X67341185Y-100361185D01*
X67420537Y-100264494D01*
X67479502Y-100154180D01*
X67501513Y-100081620D01*
X67633368Y-100213475D01*
X67876589Y-100375990D01*
X68146842Y-100487932D01*
X68433740Y-100545000D01*
X68726260Y-100545000D01*
X69013158Y-100487932D01*
X69283411Y-100375990D01*
X69526632Y-100213475D01*
X69733475Y-100006632D01*
X69850000Y-99832240D01*
X69966525Y-100006632D01*
X70173368Y-100213475D01*
X70416589Y-100375990D01*
X70686842Y-100487932D01*
X70973740Y-100545000D01*
X71266260Y-100545000D01*
X71553158Y-100487932D01*
X71823411Y-100375990D01*
X72066632Y-100213475D01*
X72273475Y-100006632D01*
X72390000Y-99832240D01*
X72506525Y-100006632D01*
X72713368Y-100213475D01*
X72956589Y-100375990D01*
X73226842Y-100487932D01*
X73513740Y-100545000D01*
X73806260Y-100545000D01*
X74093158Y-100487932D01*
X74363411Y-100375990D01*
X74606632Y-100213475D01*
X74813475Y-100006632D01*
X74930000Y-99832240D01*
X75046525Y-100006632D01*
X75253368Y-100213475D01*
X75496589Y-100375990D01*
X75766842Y-100487932D01*
X76053740Y-100545000D01*
X76346260Y-100545000D01*
X76633158Y-100487932D01*
X76903411Y-100375990D01*
X77146632Y-100213475D01*
X77353475Y-100006632D01*
X77470000Y-99832240D01*
X77586525Y-100006632D01*
X77793368Y-100213475D01*
X78036589Y-100375990D01*
X78306842Y-100487932D01*
X78593740Y-100545000D01*
X78886260Y-100545000D01*
X79173158Y-100487932D01*
X79443411Y-100375990D01*
X79686632Y-100213475D01*
X79893475Y-100006632D01*
X80010000Y-99832240D01*
X80126525Y-100006632D01*
X80333368Y-100213475D01*
X80576589Y-100375990D01*
X80846842Y-100487932D01*
X81133740Y-100545000D01*
X81426260Y-100545000D01*
X81713158Y-100487932D01*
X81983411Y-100375990D01*
X82226632Y-100213475D01*
X82433475Y-100006632D01*
X82550000Y-99832240D01*
X82666525Y-100006632D01*
X82873368Y-100213475D01*
X83116589Y-100375990D01*
X83386842Y-100487932D01*
X83673740Y-100545000D01*
X83966260Y-100545000D01*
X84253158Y-100487932D01*
X84523411Y-100375990D01*
X84766632Y-100213475D01*
X84973475Y-100006632D01*
X85090000Y-99832240D01*
X85206525Y-100006632D01*
X85413368Y-100213475D01*
X85656589Y-100375990D01*
X85926842Y-100487932D01*
X86213740Y-100545000D01*
X86506260Y-100545000D01*
X86793158Y-100487932D01*
X87063411Y-100375990D01*
X87306632Y-100213475D01*
X87513475Y-100006632D01*
X87630000Y-99832240D01*
X87746525Y-100006632D01*
X87953368Y-100213475D01*
X88196589Y-100375990D01*
X88466842Y-100487932D01*
X88753740Y-100545000D01*
X89046260Y-100545000D01*
X89333158Y-100487932D01*
X89603411Y-100375990D01*
X89846632Y-100213475D01*
X90053475Y-100006632D01*
X90215990Y-99763411D01*
X90327932Y-99493158D01*
X90385000Y-99206260D01*
X90385000Y-98913740D01*
X90327932Y-98626842D01*
X90215990Y-98356589D01*
X90118043Y-98210000D01*
X95031928Y-98210000D01*
X95031928Y-99910000D01*
X95044188Y-100034482D01*
X95080498Y-100154180D01*
X95139463Y-100264494D01*
X95218815Y-100361185D01*
X95315506Y-100440537D01*
X95425820Y-100499502D01*
X95545518Y-100535812D01*
X95670000Y-100548072D01*
X97370000Y-100548072D01*
X97494482Y-100535812D01*
X97614180Y-100499502D01*
X97724494Y-100440537D01*
X97821185Y-100361185D01*
X97900537Y-100264494D01*
X97959502Y-100154180D01*
X97995812Y-100034482D01*
X98008072Y-99910000D01*
X98008072Y-98210000D01*
X97995812Y-98085518D01*
X97959502Y-97965820D01*
X97900537Y-97855506D01*
X97821185Y-97758815D01*
X97724494Y-97679463D01*
X97614180Y-97620498D01*
X97541620Y-97598487D01*
X97673475Y-97466632D01*
X97835990Y-97223411D01*
X97947932Y-96953158D01*
X98005000Y-96666260D01*
X98005000Y-96373740D01*
X97947932Y-96086842D01*
X97835990Y-95816589D01*
X97673475Y-95573368D01*
X97466632Y-95366525D01*
X97292240Y-95250000D01*
X97466632Y-95133475D01*
X97673475Y-94926632D01*
X97835990Y-94683411D01*
X97947932Y-94413158D01*
X98005000Y-94126260D01*
X98005000Y-93833740D01*
X97947932Y-93546842D01*
X97835990Y-93276589D01*
X97673475Y-93033368D01*
X97466632Y-92826525D01*
X97292240Y-92710000D01*
X97466632Y-92593475D01*
X97673475Y-92386632D01*
X97835990Y-92143411D01*
X97947932Y-91873158D01*
X98005000Y-91586260D01*
X98005000Y-91293740D01*
X97947932Y-91006842D01*
X97835990Y-90736589D01*
X97673475Y-90493368D01*
X97466632Y-90286525D01*
X97292240Y-90170000D01*
X97466632Y-90053475D01*
X97673475Y-89846632D01*
X97835990Y-89603411D01*
X97947932Y-89333158D01*
X98005000Y-89046260D01*
X98005000Y-88753740D01*
X97947932Y-88466842D01*
X97835990Y-88196589D01*
X97673475Y-87953368D01*
X97466632Y-87746525D01*
X97292240Y-87630000D01*
X97466632Y-87513475D01*
X97673475Y-87306632D01*
X97835990Y-87063411D01*
X97947932Y-86793158D01*
X98005000Y-86506260D01*
X98005000Y-86213740D01*
X97947932Y-85926842D01*
X97835990Y-85656589D01*
X97673475Y-85413368D01*
X97466632Y-85206525D01*
X97292240Y-85090000D01*
X97466632Y-84973475D01*
X97673475Y-84766632D01*
X97835990Y-84523411D01*
X97947932Y-84253158D01*
X98005000Y-83966260D01*
X98005000Y-83673740D01*
X97947932Y-83386842D01*
X97835990Y-83116589D01*
X97673475Y-82873368D01*
X97466632Y-82666525D01*
X97292240Y-82550000D01*
X97466632Y-82433475D01*
X97673475Y-82226632D01*
X97835990Y-81983411D01*
X97947932Y-81713158D01*
X98005000Y-81426260D01*
X98005000Y-81133740D01*
X97947932Y-80846842D01*
X97835990Y-80576589D01*
X97673475Y-80333368D01*
X97466632Y-80126525D01*
X97292240Y-80010000D01*
X97466632Y-79893475D01*
X97673475Y-79686632D01*
X97835990Y-79443411D01*
X97947932Y-79173158D01*
X98005000Y-78886260D01*
X98005000Y-78593740D01*
X97947932Y-78306842D01*
X97835990Y-78036589D01*
X97673475Y-77793368D01*
X97466632Y-77586525D01*
X97292240Y-77470000D01*
X97466632Y-77353475D01*
X97673475Y-77146632D01*
X97835990Y-76903411D01*
X97947932Y-76633158D01*
X98005000Y-76346260D01*
X98005000Y-76053740D01*
X97947932Y-75766842D01*
X97835990Y-75496589D01*
X97673475Y-75253368D01*
X97466632Y-75046525D01*
X97292240Y-74930000D01*
X97466632Y-74813475D01*
X97673475Y-74606632D01*
X97835990Y-74363411D01*
X97947932Y-74093158D01*
X98005000Y-73806260D01*
X98005000Y-73513740D01*
X97947932Y-73226842D01*
X97835990Y-72956589D01*
X97673475Y-72713368D01*
X97466632Y-72506525D01*
X97292240Y-72390000D01*
X97466632Y-72273475D01*
X97673475Y-72066632D01*
X97835990Y-71823411D01*
X97947932Y-71553158D01*
X98005000Y-71266260D01*
X98005000Y-70973740D01*
X97947932Y-70686842D01*
X97835990Y-70416589D01*
X97673475Y-70173368D01*
X97466632Y-69966525D01*
X97292240Y-69850000D01*
X97466632Y-69733475D01*
X97673475Y-69526632D01*
X97835990Y-69283411D01*
X97947932Y-69013158D01*
X98005000Y-68726260D01*
X98005000Y-68433740D01*
X97947932Y-68146842D01*
X97835990Y-67876589D01*
X97673475Y-67633368D01*
X97466632Y-67426525D01*
X97284466Y-67304805D01*
X97401355Y-67235178D01*
X97617588Y-67040269D01*
X97791641Y-66806920D01*
X97916825Y-66544099D01*
X97961476Y-66396890D01*
X97840155Y-66167000D01*
X96647000Y-66167000D01*
X96647000Y-66187000D01*
X96393000Y-66187000D01*
X96393000Y-66167000D01*
X95199845Y-66167000D01*
X95078524Y-66396890D01*
X95123175Y-66544099D01*
X95248359Y-66806920D01*
X95422412Y-67040269D01*
X95638645Y-67235178D01*
X95755534Y-67304805D01*
X95573368Y-67426525D01*
X95366525Y-67633368D01*
X95204010Y-67876589D01*
X95092068Y-68146842D01*
X95035000Y-68433740D01*
X95035000Y-68726260D01*
X95092068Y-69013158D01*
X95204010Y-69283411D01*
X95366525Y-69526632D01*
X95573368Y-69733475D01*
X95747760Y-69850000D01*
X95573368Y-69966525D01*
X95366525Y-70173368D01*
X95204010Y-70416589D01*
X95092068Y-70686842D01*
X95035000Y-70973740D01*
X95035000Y-71266260D01*
X95092068Y-71553158D01*
X95204010Y-71823411D01*
X95366525Y-72066632D01*
X95573368Y-72273475D01*
X95747760Y-72390000D01*
X95573368Y-72506525D01*
X95366525Y-72713368D01*
X95204010Y-72956589D01*
X95092068Y-73226842D01*
X95035000Y-73513740D01*
X95035000Y-73806260D01*
X95092068Y-74093158D01*
X95204010Y-74363411D01*
X95366525Y-74606632D01*
X95573368Y-74813475D01*
X95747760Y-74930000D01*
X95573368Y-75046525D01*
X95366525Y-75253368D01*
X95204010Y-75496589D01*
X95092068Y-75766842D01*
X95035000Y-76053740D01*
X95035000Y-76346260D01*
X95092068Y-76633158D01*
X95204010Y-76903411D01*
X95366525Y-77146632D01*
X95573368Y-77353475D01*
X95747760Y-77470000D01*
X95573368Y-77586525D01*
X95366525Y-77793368D01*
X95204010Y-78036589D01*
X95092068Y-78306842D01*
X95035000Y-78593740D01*
X95035000Y-78886260D01*
X95092068Y-79173158D01*
X95204010Y-79443411D01*
X95366525Y-79686632D01*
X95573368Y-79893475D01*
X95747760Y-80010000D01*
X95573368Y-80126525D01*
X95366525Y-80333368D01*
X95204010Y-80576589D01*
X95092068Y-80846842D01*
X95035000Y-81133740D01*
X95035000Y-81426260D01*
X95092068Y-81713158D01*
X95204010Y-81983411D01*
X95366525Y-82226632D01*
X95573368Y-82433475D01*
X95747760Y-82550000D01*
X95573368Y-82666525D01*
X95366525Y-82873368D01*
X95204010Y-83116589D01*
X95092068Y-83386842D01*
X95035000Y-83673740D01*
X95035000Y-83966260D01*
X95092068Y-84253158D01*
X95204010Y-84523411D01*
X95366525Y-84766632D01*
X95573368Y-84973475D01*
X95747760Y-85090000D01*
X95573368Y-85206525D01*
X95366525Y-85413368D01*
X95204010Y-85656589D01*
X95092068Y-85926842D01*
X95035000Y-86213740D01*
X95035000Y-86506260D01*
X95092068Y-86793158D01*
X95204010Y-87063411D01*
X95366525Y-87306632D01*
X95573368Y-87513475D01*
X95747760Y-87630000D01*
X95573368Y-87746525D01*
X95366525Y-87953368D01*
X95204010Y-88196589D01*
X95092068Y-88466842D01*
X95035000Y-88753740D01*
X95035000Y-89046260D01*
X95092068Y-89333158D01*
X95204010Y-89603411D01*
X95366525Y-89846632D01*
X95573368Y-90053475D01*
X95747760Y-90170000D01*
X95573368Y-90286525D01*
X95366525Y-90493368D01*
X95204010Y-90736589D01*
X95092068Y-91006842D01*
X95035000Y-91293740D01*
X95035000Y-91586260D01*
X95092068Y-91873158D01*
X95204010Y-92143411D01*
X95366525Y-92386632D01*
X95573368Y-92593475D01*
X95747760Y-92710000D01*
X95573368Y-92826525D01*
X95366525Y-93033368D01*
X95204010Y-93276589D01*
X95092068Y-93546842D01*
X95035000Y-93833740D01*
X95035000Y-94126260D01*
X95092068Y-94413158D01*
X95204010Y-94683411D01*
X95366525Y-94926632D01*
X95573368Y-95133475D01*
X95747760Y-95250000D01*
X95573368Y-95366525D01*
X95366525Y-95573368D01*
X95204010Y-95816589D01*
X95092068Y-96086842D01*
X95035000Y-96373740D01*
X95035000Y-96666260D01*
X95092068Y-96953158D01*
X95204010Y-97223411D01*
X95366525Y-97466632D01*
X95498380Y-97598487D01*
X95425820Y-97620498D01*
X95315506Y-97679463D01*
X95218815Y-97758815D01*
X95139463Y-97855506D01*
X95080498Y-97965820D01*
X95044188Y-98085518D01*
X95031928Y-98210000D01*
X90118043Y-98210000D01*
X90053475Y-98113368D01*
X89846632Y-97906525D01*
X89603411Y-97744010D01*
X89333158Y-97632068D01*
X89046260Y-97575000D01*
X88753740Y-97575000D01*
X88466842Y-97632068D01*
X88196589Y-97744010D01*
X87953368Y-97906525D01*
X87746525Y-98113368D01*
X87630000Y-98287760D01*
X87513475Y-98113368D01*
X87306632Y-97906525D01*
X87063411Y-97744010D01*
X86793158Y-97632068D01*
X86506260Y-97575000D01*
X86213740Y-97575000D01*
X85926842Y-97632068D01*
X85656589Y-97744010D01*
X85413368Y-97906525D01*
X85206525Y-98113368D01*
X85090000Y-98287760D01*
X84973475Y-98113368D01*
X84766632Y-97906525D01*
X84523411Y-97744010D01*
X84253158Y-97632068D01*
X83966260Y-97575000D01*
X83673740Y-97575000D01*
X83386842Y-97632068D01*
X83116589Y-97744010D01*
X82873368Y-97906525D01*
X82666525Y-98113368D01*
X82550000Y-98287760D01*
X82433475Y-98113368D01*
X82226632Y-97906525D01*
X81983411Y-97744010D01*
X81713158Y-97632068D01*
X81426260Y-97575000D01*
X81133740Y-97575000D01*
X80846842Y-97632068D01*
X80576589Y-97744010D01*
X80333368Y-97906525D01*
X80126525Y-98113368D01*
X80010000Y-98287760D01*
X79893475Y-98113368D01*
X79686632Y-97906525D01*
X79443411Y-97744010D01*
X79173158Y-97632068D01*
X78886260Y-97575000D01*
X78593740Y-97575000D01*
X78306842Y-97632068D01*
X78036589Y-97744010D01*
X77793368Y-97906525D01*
X77586525Y-98113368D01*
X77470000Y-98287760D01*
X77353475Y-98113368D01*
X77146632Y-97906525D01*
X76903411Y-97744010D01*
X76633158Y-97632068D01*
X76346260Y-97575000D01*
X76053740Y-97575000D01*
X75766842Y-97632068D01*
X75496589Y-97744010D01*
X75253368Y-97906525D01*
X75046525Y-98113368D01*
X74930000Y-98287760D01*
X74813475Y-98113368D01*
X74606632Y-97906525D01*
X74363411Y-97744010D01*
X74093158Y-97632068D01*
X73806260Y-97575000D01*
X73513740Y-97575000D01*
X73226842Y-97632068D01*
X72956589Y-97744010D01*
X72713368Y-97906525D01*
X72506525Y-98113368D01*
X72390000Y-98287760D01*
X72273475Y-98113368D01*
X72066632Y-97906525D01*
X71823411Y-97744010D01*
X71553158Y-97632068D01*
X71266260Y-97575000D01*
X70973740Y-97575000D01*
X70686842Y-97632068D01*
X70416589Y-97744010D01*
X70173368Y-97906525D01*
X69966525Y-98113368D01*
X69850000Y-98287760D01*
X69733475Y-98113368D01*
X69526632Y-97906525D01*
X69283411Y-97744010D01*
X69013158Y-97632068D01*
X68726260Y-97575000D01*
X68433740Y-97575000D01*
X68146842Y-97632068D01*
X67876589Y-97744010D01*
X67633368Y-97906525D01*
X67501513Y-98038380D01*
X67479502Y-97965820D01*
X67420537Y-97855506D01*
X67341185Y-97758815D01*
X67244494Y-97679463D01*
X67134180Y-97620498D01*
X67014482Y-97584188D01*
X66890000Y-97571928D01*
X66325750Y-97575000D01*
X66167000Y-97733750D01*
X65913000Y-97733750D01*
X65754250Y-97575000D01*
X65190000Y-97571928D01*
X65065518Y-97584188D01*
X64945820Y-97620498D01*
X64835506Y-97679463D01*
X64738815Y-97758815D01*
X64659463Y-97855506D01*
X64600498Y-97965820D01*
X64564188Y-98085518D01*
X64551928Y-98210000D01*
X59638043Y-98210000D01*
X59573475Y-98113368D01*
X59366632Y-97906525D01*
X59192240Y-97790000D01*
X59366632Y-97673475D01*
X59573475Y-97466632D01*
X59735990Y-97223411D01*
X59847932Y-96953158D01*
X59905000Y-96666260D01*
X59905000Y-96373740D01*
X59847932Y-96086842D01*
X59735990Y-95816589D01*
X59573475Y-95573368D01*
X59366632Y-95366525D01*
X59192240Y-95250000D01*
X59366632Y-95133475D01*
X59573475Y-94926632D01*
X59735990Y-94683411D01*
X59847932Y-94413158D01*
X59905000Y-94126260D01*
X59905000Y-93833740D01*
X59847932Y-93546842D01*
X59735990Y-93276589D01*
X59573475Y-93033368D01*
X59366632Y-92826525D01*
X59192240Y-92710000D01*
X59366632Y-92593475D01*
X59573475Y-92386632D01*
X59735990Y-92143411D01*
X59847932Y-91873158D01*
X59905000Y-91586260D01*
X59905000Y-91293740D01*
X59847932Y-91006842D01*
X59735990Y-90736589D01*
X59573475Y-90493368D01*
X59366632Y-90286525D01*
X59192240Y-90170000D01*
X59366632Y-90053475D01*
X59573475Y-89846632D01*
X59735990Y-89603411D01*
X59847932Y-89333158D01*
X59905000Y-89046260D01*
X59905000Y-88753740D01*
X59847932Y-88466842D01*
X59735990Y-88196589D01*
X59573475Y-87953368D01*
X59366632Y-87746525D01*
X59192240Y-87630000D01*
X59366632Y-87513475D01*
X59573475Y-87306632D01*
X59735990Y-87063411D01*
X59847932Y-86793158D01*
X59905000Y-86506260D01*
X59905000Y-86213740D01*
X59847932Y-85926842D01*
X59735990Y-85656589D01*
X59573475Y-85413368D01*
X59366632Y-85206525D01*
X59192240Y-85090000D01*
X59366632Y-84973475D01*
X59573475Y-84766632D01*
X59735990Y-84523411D01*
X59847932Y-84253158D01*
X59905000Y-83966260D01*
X59905000Y-83673740D01*
X59847932Y-83386842D01*
X59735990Y-83116589D01*
X59573475Y-82873368D01*
X59366632Y-82666525D01*
X59192240Y-82550000D01*
X59366632Y-82433475D01*
X59573475Y-82226632D01*
X59735990Y-81983411D01*
X59847932Y-81713158D01*
X59886353Y-81520000D01*
X64471928Y-81520000D01*
X64484188Y-81644482D01*
X64520498Y-81764180D01*
X64579463Y-81874494D01*
X64658815Y-81971185D01*
X64755506Y-82050537D01*
X64865820Y-82109502D01*
X64985518Y-82145812D01*
X65110000Y-82158072D01*
X65536750Y-82155000D01*
X65695500Y-81996250D01*
X65695500Y-80772000D01*
X65949500Y-80772000D01*
X65949500Y-81996250D01*
X66108250Y-82155000D01*
X66535000Y-82158072D01*
X66659482Y-82145812D01*
X66779180Y-82109502D01*
X66889494Y-82050537D01*
X66986185Y-81971185D01*
X67065537Y-81874494D01*
X67124502Y-81764180D01*
X67160812Y-81644482D01*
X67173072Y-81520000D01*
X67170000Y-80930750D01*
X67011250Y-80772000D01*
X65949500Y-80772000D01*
X65695500Y-80772000D01*
X64633750Y-80772000D01*
X64475000Y-80930750D01*
X64471928Y-81520000D01*
X59886353Y-81520000D01*
X59905000Y-81426260D01*
X59905000Y-81133740D01*
X59847932Y-80846842D01*
X59735990Y-80576589D01*
X59573475Y-80333368D01*
X59366632Y-80126525D01*
X59192240Y-80010000D01*
X59366632Y-79893475D01*
X59573475Y-79686632D01*
X59735990Y-79443411D01*
X59847932Y-79173158D01*
X59886353Y-78980000D01*
X64471928Y-78980000D01*
X64484188Y-79104482D01*
X64520498Y-79224180D01*
X64579463Y-79334494D01*
X64612705Y-79375000D01*
X64579463Y-79415506D01*
X64520498Y-79525820D01*
X64484188Y-79645518D01*
X64471928Y-79770000D01*
X64475000Y-80359250D01*
X64633750Y-80518000D01*
X65695500Y-80518000D01*
X65695500Y-78232000D01*
X65949500Y-78232000D01*
X65949500Y-80518000D01*
X67011250Y-80518000D01*
X67170000Y-80359250D01*
X67173072Y-79770000D01*
X67160812Y-79645518D01*
X67124502Y-79525820D01*
X67065537Y-79415506D01*
X67032295Y-79375000D01*
X67065537Y-79334494D01*
X67124502Y-79224180D01*
X67160812Y-79104482D01*
X67173072Y-78980000D01*
X67170000Y-78390750D01*
X67011250Y-78232000D01*
X65949500Y-78232000D01*
X65695500Y-78232000D01*
X64633750Y-78232000D01*
X64475000Y-78390750D01*
X64471928Y-78980000D01*
X59886353Y-78980000D01*
X59905000Y-78886260D01*
X59905000Y-78593740D01*
X59847932Y-78306842D01*
X59735990Y-78036589D01*
X59573475Y-77793368D01*
X59366632Y-77586525D01*
X59192240Y-77470000D01*
X59366632Y-77353475D01*
X59573475Y-77146632D01*
X59735990Y-76903411D01*
X59847932Y-76633158D01*
X59905000Y-76346260D01*
X59905000Y-76053740D01*
X59847932Y-75766842D01*
X59735990Y-75496589D01*
X59573475Y-75253368D01*
X59366632Y-75046525D01*
X59192240Y-74930000D01*
X59366632Y-74813475D01*
X59573475Y-74606632D01*
X59735990Y-74363411D01*
X59847932Y-74093158D01*
X59905000Y-73806260D01*
X59905000Y-73513740D01*
X59847932Y-73226842D01*
X59735990Y-72956589D01*
X59573475Y-72713368D01*
X59366632Y-72506525D01*
X59192240Y-72390000D01*
X59366632Y-72273475D01*
X59573475Y-72066632D01*
X59735990Y-71823411D01*
X59847932Y-71553158D01*
X59905000Y-71266260D01*
X59905000Y-70973740D01*
X59847932Y-70686842D01*
X59735990Y-70416589D01*
X59573475Y-70173368D01*
X59366632Y-69966525D01*
X59192240Y-69850000D01*
X59366632Y-69733475D01*
X59573475Y-69526632D01*
X59735990Y-69283411D01*
X59847932Y-69013158D01*
X59905000Y-68726260D01*
X59905000Y-68433740D01*
X59847932Y-68146842D01*
X59735990Y-67876589D01*
X59573475Y-67633368D01*
X59441620Y-67501513D01*
X59514180Y-67479502D01*
X59624494Y-67420537D01*
X59721185Y-67341185D01*
X59800537Y-67244494D01*
X59859502Y-67134180D01*
X59895812Y-67014482D01*
X59908072Y-66890000D01*
X59905000Y-66325750D01*
X59746250Y-66167000D01*
X58547000Y-66167000D01*
X58547000Y-66187000D01*
X58293000Y-66187000D01*
X58293000Y-66167000D01*
X57093750Y-66167000D01*
X56935000Y-66325750D01*
X56931928Y-66890000D01*
X56540000Y-66890000D01*
X56540000Y-65190000D01*
X56931928Y-65190000D01*
X56935000Y-65754250D01*
X57093750Y-65913000D01*
X58293000Y-65913000D01*
X58293000Y-64713750D01*
X58547000Y-64713750D01*
X58547000Y-65913000D01*
X59746250Y-65913000D01*
X59905000Y-65754250D01*
X59908072Y-65190000D01*
X59895812Y-65065518D01*
X59859502Y-64945820D01*
X59800537Y-64835506D01*
X59746778Y-64770000D01*
X62738000Y-64770000D01*
X62738000Y-76835000D01*
X62740440Y-76859776D01*
X62747667Y-76883601D01*
X62759403Y-76905557D01*
X62775197Y-76924803D01*
X62794443Y-76940597D01*
X62816399Y-76952333D01*
X62840224Y-76959560D01*
X62865000Y-76962000D01*
X64533230Y-76962000D01*
X64520498Y-76985820D01*
X64484188Y-77105518D01*
X64471928Y-77230000D01*
X64475000Y-77819250D01*
X64633750Y-77978000D01*
X65695500Y-77978000D01*
X65695500Y-77958000D01*
X65949500Y-77958000D01*
X65949500Y-77978000D01*
X67011250Y-77978000D01*
X67170000Y-77819250D01*
X67173072Y-77230000D01*
X67160812Y-77105518D01*
X67124502Y-76985820D01*
X67111770Y-76962000D01*
X67616795Y-76962000D01*
X67596595Y-76986614D01*
X67514528Y-77140150D01*
X67463992Y-77306746D01*
X67446928Y-77480000D01*
X67446928Y-78730000D01*
X67463992Y-78903254D01*
X67514528Y-79069850D01*
X67596595Y-79223386D01*
X67707038Y-79357962D01*
X67727799Y-79375000D01*
X67707038Y-79392038D01*
X67596595Y-79526614D01*
X67514528Y-79680150D01*
X67463992Y-79846746D01*
X67446928Y-80020000D01*
X67446928Y-81270000D01*
X67463992Y-81443254D01*
X67514528Y-81609850D01*
X67596595Y-81763386D01*
X67707038Y-81897962D01*
X67841614Y-82008405D01*
X67995150Y-82090472D01*
X68161746Y-82141008D01*
X68335000Y-82158072D01*
X69260000Y-82158072D01*
X69433254Y-82141008D01*
X69599850Y-82090472D01*
X69753386Y-82008405D01*
X69887962Y-81897962D01*
X69998405Y-81763386D01*
X70080472Y-81609850D01*
X70108587Y-81517166D01*
X70275315Y-81466589D01*
X70407320Y-81396031D01*
X70460226Y-81448937D01*
X70629744Y-81562205D01*
X70818102Y-81640226D01*
X70916193Y-81659737D01*
X70971595Y-81763386D01*
X71082038Y-81897962D01*
X71216614Y-82008405D01*
X71370150Y-82090472D01*
X71536746Y-82141008D01*
X71710000Y-82158072D01*
X72635000Y-82158072D01*
X72808254Y-82141008D01*
X72974850Y-82090472D01*
X73128386Y-82008405D01*
X73262962Y-81897962D01*
X73373405Y-81763386D01*
X73455472Y-81609850D01*
X73482727Y-81520000D01*
X73796928Y-81520000D01*
X73809188Y-81644482D01*
X73845498Y-81764180D01*
X73904463Y-81874494D01*
X73983815Y-81971185D01*
X74080506Y-82050537D01*
X74190820Y-82109502D01*
X74310518Y-82145812D01*
X74435000Y-82158072D01*
X74861750Y-82155000D01*
X75020500Y-81996250D01*
X75020500Y-80772000D01*
X75274500Y-80772000D01*
X75274500Y-81996250D01*
X75433250Y-82155000D01*
X75860000Y-82158072D01*
X75984482Y-82145812D01*
X76104180Y-82109502D01*
X76214494Y-82050537D01*
X76311185Y-81971185D01*
X76390537Y-81874494D01*
X76449502Y-81764180D01*
X76485812Y-81644482D01*
X76498072Y-81520000D01*
X76495000Y-80930750D01*
X76336250Y-80772000D01*
X75274500Y-80772000D01*
X75020500Y-80772000D01*
X73958750Y-80772000D01*
X73800000Y-80930750D01*
X73796928Y-81520000D01*
X73482727Y-81520000D01*
X73506008Y-81443254D01*
X73523072Y-81270000D01*
X73523072Y-80020000D01*
X73506008Y-79846746D01*
X73455472Y-79680150D01*
X73373405Y-79526614D01*
X73262962Y-79392038D01*
X73242201Y-79375000D01*
X73262962Y-79357962D01*
X73373405Y-79223386D01*
X73455472Y-79069850D01*
X73482727Y-78980000D01*
X73796928Y-78980000D01*
X73809188Y-79104482D01*
X73845498Y-79224180D01*
X73904463Y-79334494D01*
X73937705Y-79375000D01*
X73904463Y-79415506D01*
X73845498Y-79525820D01*
X73809188Y-79645518D01*
X73796928Y-79770000D01*
X73800000Y-80359250D01*
X73958750Y-80518000D01*
X75020500Y-80518000D01*
X75020500Y-78232000D01*
X75274500Y-78232000D01*
X75274500Y-80518000D01*
X76336250Y-80518000D01*
X76495000Y-80359250D01*
X76498072Y-79770000D01*
X76485812Y-79645518D01*
X76449502Y-79525820D01*
X76390537Y-79415506D01*
X76357295Y-79375000D01*
X76390537Y-79334494D01*
X76449502Y-79224180D01*
X76485812Y-79104482D01*
X76498072Y-78980000D01*
X76495000Y-78390750D01*
X76336250Y-78232000D01*
X75274500Y-78232000D01*
X75020500Y-78232000D01*
X73958750Y-78232000D01*
X73800000Y-78390750D01*
X73796928Y-78980000D01*
X73482727Y-78980000D01*
X73506008Y-78903254D01*
X73523072Y-78730000D01*
X73523072Y-77480000D01*
X73506008Y-77306746D01*
X73455472Y-77140150D01*
X73373405Y-76986614D01*
X73353205Y-76962000D01*
X73858230Y-76962000D01*
X73845498Y-76985820D01*
X73809188Y-77105518D01*
X73796928Y-77230000D01*
X73800000Y-77819250D01*
X73958750Y-77978000D01*
X75020500Y-77978000D01*
X75020500Y-77958000D01*
X75274500Y-77958000D01*
X75274500Y-77978000D01*
X76336250Y-77978000D01*
X76495000Y-77819250D01*
X76498072Y-77230000D01*
X76485812Y-77105518D01*
X76449502Y-76985820D01*
X76436770Y-76962000D01*
X92075000Y-76962000D01*
X92099776Y-76959560D01*
X92123601Y-76952333D01*
X92145557Y-76940597D01*
X92164803Y-76924803D01*
X92180597Y-76905557D01*
X92192333Y-76883601D01*
X92199560Y-76859776D01*
X92202000Y-76835000D01*
X92202000Y-65683110D01*
X95078524Y-65683110D01*
X95199845Y-65913000D01*
X96393000Y-65913000D01*
X96393000Y-64719186D01*
X96647000Y-64719186D01*
X96647000Y-65913000D01*
X97840155Y-65913000D01*
X97961476Y-65683110D01*
X97916825Y-65535901D01*
X97791641Y-65273080D01*
X97617588Y-65039731D01*
X97401355Y-64844822D01*
X97151252Y-64695843D01*
X96876891Y-64598519D01*
X96647000Y-64719186D01*
X96393000Y-64719186D01*
X96163109Y-64598519D01*
X95888748Y-64695843D01*
X95638645Y-64844822D01*
X95422412Y-65039731D01*
X95248359Y-65273080D01*
X95123175Y-65535901D01*
X95078524Y-65683110D01*
X92202000Y-65683110D01*
X92202000Y-64770000D01*
X92199560Y-64745224D01*
X92192333Y-64721399D01*
X92180597Y-64699443D01*
X92164803Y-64680197D01*
X92145557Y-64664403D01*
X92123601Y-64652667D01*
X92099776Y-64645440D01*
X92075000Y-64643000D01*
X62865000Y-64643000D01*
X62840224Y-64645440D01*
X62816399Y-64652667D01*
X62794443Y-64664403D01*
X62775197Y-64680197D01*
X62759403Y-64699443D01*
X62747667Y-64721399D01*
X62740440Y-64745224D01*
X62738000Y-64770000D01*
X59746778Y-64770000D01*
X59721185Y-64738815D01*
X59624494Y-64659463D01*
X59514180Y-64600498D01*
X59394482Y-64564188D01*
X59270000Y-64551928D01*
X58705750Y-64555000D01*
X58547000Y-64713750D01*
X58293000Y-64713750D01*
X58134250Y-64555000D01*
X57570000Y-64551928D01*
X57445518Y-64564188D01*
X57325820Y-64600498D01*
X57215506Y-64659463D01*
X57118815Y-64738815D01*
X57039463Y-64835506D01*
X56980498Y-64945820D01*
X56944188Y-65065518D01*
X56931928Y-65190000D01*
X56540000Y-65190000D01*
X56540000Y-64160000D01*
X98400000Y-64160000D01*
X98400001Y-100940000D01*
G37*
X98400001Y-100940000D02*
X56540000Y-100940000D01*
X56540000Y-66890000D01*
X56931928Y-66890000D01*
X56944188Y-67014482D01*
X56980498Y-67134180D01*
X57039463Y-67244494D01*
X57118815Y-67341185D01*
X57215506Y-67420537D01*
X57325820Y-67479502D01*
X57398380Y-67501513D01*
X57266525Y-67633368D01*
X57104010Y-67876589D01*
X56992068Y-68146842D01*
X56935000Y-68433740D01*
X56935000Y-68726260D01*
X56992068Y-69013158D01*
X57104010Y-69283411D01*
X57266525Y-69526632D01*
X57473368Y-69733475D01*
X57647760Y-69850000D01*
X57473368Y-69966525D01*
X57266525Y-70173368D01*
X57104010Y-70416589D01*
X56992068Y-70686842D01*
X56935000Y-70973740D01*
X56935000Y-71266260D01*
X56992068Y-71553158D01*
X57104010Y-71823411D01*
X57266525Y-72066632D01*
X57473368Y-72273475D01*
X57647760Y-72390000D01*
X57473368Y-72506525D01*
X57266525Y-72713368D01*
X57104010Y-72956589D01*
X56992068Y-73226842D01*
X56935000Y-73513740D01*
X56935000Y-73806260D01*
X56992068Y-74093158D01*
X57104010Y-74363411D01*
X57266525Y-74606632D01*
X57473368Y-74813475D01*
X57647760Y-74930000D01*
X57473368Y-75046525D01*
X57266525Y-75253368D01*
X57104010Y-75496589D01*
X56992068Y-75766842D01*
X56935000Y-76053740D01*
X56935000Y-76346260D01*
X56992068Y-76633158D01*
X57104010Y-76903411D01*
X57266525Y-77146632D01*
X57473368Y-77353475D01*
X57647760Y-77470000D01*
X57473368Y-77586525D01*
X57266525Y-77793368D01*
X57104010Y-78036589D01*
X56992068Y-78306842D01*
X56935000Y-78593740D01*
X56935000Y-78886260D01*
X56992068Y-79173158D01*
X57104010Y-79443411D01*
X57266525Y-79686632D01*
X57473368Y-79893475D01*
X57647760Y-80010000D01*
X57473368Y-80126525D01*
X57266525Y-80333368D01*
X57104010Y-80576589D01*
X56992068Y-80846842D01*
X56935000Y-81133740D01*
X56935000Y-81426260D01*
X56992068Y-81713158D01*
X57104010Y-81983411D01*
X57266525Y-82226632D01*
X57473368Y-82433475D01*
X57647760Y-82550000D01*
X57473368Y-82666525D01*
X57266525Y-82873368D01*
X57104010Y-83116589D01*
X56992068Y-83386842D01*
X56935000Y-83673740D01*
X56935000Y-83966260D01*
X56992068Y-84253158D01*
X57104010Y-84523411D01*
X57266525Y-84766632D01*
X57473368Y-84973475D01*
X57647760Y-85090000D01*
X57473368Y-85206525D01*
X57266525Y-85413368D01*
X57104010Y-85656589D01*
X56992068Y-85926842D01*
X56935000Y-86213740D01*
X56935000Y-86506260D01*
X56992068Y-86793158D01*
X57104010Y-87063411D01*
X57266525Y-87306632D01*
X57473368Y-87513475D01*
X57647760Y-87630000D01*
X57473368Y-87746525D01*
X57266525Y-87953368D01*
X57104010Y-88196589D01*
X56992068Y-88466842D01*
X56935000Y-88753740D01*
X56935000Y-89046260D01*
X56992068Y-89333158D01*
X57104010Y-89603411D01*
X57266525Y-89846632D01*
X57473368Y-90053475D01*
X57647760Y-90170000D01*
X57473368Y-90286525D01*
X57266525Y-90493368D01*
X57104010Y-90736589D01*
X56992068Y-91006842D01*
X56935000Y-91293740D01*
X56935000Y-91586260D01*
X56992068Y-91873158D01*
X57104010Y-92143411D01*
X57266525Y-92386632D01*
X57473368Y-92593475D01*
X57647760Y-92710000D01*
X57473368Y-92826525D01*
X57266525Y-93033368D01*
X57104010Y-93276589D01*
X56992068Y-93546842D01*
X56935000Y-93833740D01*
X56935000Y-94126260D01*
X56992068Y-94413158D01*
X57104010Y-94683411D01*
X57266525Y-94926632D01*
X57473368Y-95133475D01*
X57647760Y-95250000D01*
X57473368Y-95366525D01*
X57266525Y-95573368D01*
X57104010Y-95816589D01*
X56992068Y-96086842D01*
X56935000Y-96373740D01*
X56935000Y-96666260D01*
X56992068Y-96953158D01*
X57104010Y-97223411D01*
X57266525Y-97466632D01*
X57473368Y-97673475D01*
X57647760Y-97790000D01*
X57473368Y-97906525D01*
X57266525Y-98113368D01*
X57104010Y-98356589D01*
X56992068Y-98626842D01*
X56935000Y-98913740D01*
X56935000Y-99206260D01*
X56992068Y-99493158D01*
X57104010Y-99763411D01*
X57266525Y-100006632D01*
X57473368Y-100213475D01*
X57716589Y-100375990D01*
X57986842Y-100487932D01*
X58273740Y-100545000D01*
X58566260Y-100545000D01*
X58853158Y-100487932D01*
X59123411Y-100375990D01*
X59366632Y-100213475D01*
X59573475Y-100006632D01*
X59638042Y-99910000D01*
X64551928Y-99910000D01*
X64564188Y-100034482D01*
X64600498Y-100154180D01*
X64659463Y-100264494D01*
X64738815Y-100361185D01*
X64835506Y-100440537D01*
X64945820Y-100499502D01*
X65065518Y-100535812D01*
X65190000Y-100548072D01*
X65754250Y-100545000D01*
X65913000Y-100386250D01*
X65913000Y-99187000D01*
X64713750Y-99187000D01*
X64555000Y-99345750D01*
X64551928Y-99910000D01*
X59638042Y-99910000D01*
X59735990Y-99763411D01*
X59847932Y-99493158D01*
X59905000Y-99206260D01*
X59905000Y-98913740D01*
X59847932Y-98626842D01*
X59735990Y-98356589D01*
X59638043Y-98210000D01*
X64551928Y-98210000D01*
X64555000Y-98774250D01*
X64713750Y-98933000D01*
X65913000Y-98933000D01*
X65913000Y-97733750D01*
X66167000Y-97733750D01*
X66167000Y-98933000D01*
X66187000Y-98933000D01*
X66187000Y-99187000D01*
X66167000Y-99187000D01*
X66167000Y-100386250D01*
X66325750Y-100545000D01*
X66890000Y-100548072D01*
X67014482Y-100535812D01*
X67134180Y-100499502D01*
X67244494Y-100440537D01*
X67341185Y-100361185D01*
X67420537Y-100264494D01*
X67479502Y-100154180D01*
X67501513Y-100081620D01*
X67633368Y-100213475D01*
X67876589Y-100375990D01*
X68146842Y-100487932D01*
X68433740Y-100545000D01*
X68726260Y-100545000D01*
X69013158Y-100487932D01*
X69283411Y-100375990D01*
X69526632Y-100213475D01*
X69733475Y-100006632D01*
X69850000Y-99832240D01*
X69966525Y-100006632D01*
X70173368Y-100213475D01*
X70416589Y-100375990D01*
X70686842Y-100487932D01*
X70973740Y-100545000D01*
X71266260Y-100545000D01*
X71553158Y-100487932D01*
X71823411Y-100375990D01*
X72066632Y-100213475D01*
X72273475Y-100006632D01*
X72390000Y-99832240D01*
X72506525Y-100006632D01*
X72713368Y-100213475D01*
X72956589Y-100375990D01*
X73226842Y-100487932D01*
X73513740Y-100545000D01*
X73806260Y-100545000D01*
X74093158Y-100487932D01*
X74363411Y-100375990D01*
X74606632Y-100213475D01*
X74813475Y-100006632D01*
X74930000Y-99832240D01*
X75046525Y-100006632D01*
X75253368Y-100213475D01*
X75496589Y-100375990D01*
X75766842Y-100487932D01*
X76053740Y-100545000D01*
X76346260Y-100545000D01*
X76633158Y-100487932D01*
X76903411Y-100375990D01*
X77146632Y-100213475D01*
X77353475Y-100006632D01*
X77470000Y-99832240D01*
X77586525Y-100006632D01*
X77793368Y-100213475D01*
X78036589Y-100375990D01*
X78306842Y-100487932D01*
X78593740Y-100545000D01*
X78886260Y-100545000D01*
X79173158Y-100487932D01*
X79443411Y-100375990D01*
X79686632Y-100213475D01*
X79893475Y-100006632D01*
X80010000Y-99832240D01*
X80126525Y-100006632D01*
X80333368Y-100213475D01*
X80576589Y-100375990D01*
X80846842Y-100487932D01*
X81133740Y-100545000D01*
X81426260Y-100545000D01*
X81713158Y-100487932D01*
X81983411Y-100375990D01*
X82226632Y-100213475D01*
X82433475Y-100006632D01*
X82550000Y-99832240D01*
X82666525Y-100006632D01*
X82873368Y-100213475D01*
X83116589Y-100375990D01*
X83386842Y-100487932D01*
X83673740Y-100545000D01*
X83966260Y-100545000D01*
X84253158Y-100487932D01*
X84523411Y-100375990D01*
X84766632Y-100213475D01*
X84973475Y-100006632D01*
X85090000Y-99832240D01*
X85206525Y-100006632D01*
X85413368Y-100213475D01*
X85656589Y-100375990D01*
X85926842Y-100487932D01*
X86213740Y-100545000D01*
X86506260Y-100545000D01*
X86793158Y-100487932D01*
X87063411Y-100375990D01*
X87306632Y-100213475D01*
X87513475Y-100006632D01*
X87630000Y-99832240D01*
X87746525Y-100006632D01*
X87953368Y-100213475D01*
X88196589Y-100375990D01*
X88466842Y-100487932D01*
X88753740Y-100545000D01*
X89046260Y-100545000D01*
X89333158Y-100487932D01*
X89603411Y-100375990D01*
X89846632Y-100213475D01*
X90053475Y-100006632D01*
X90215990Y-99763411D01*
X90327932Y-99493158D01*
X90385000Y-99206260D01*
X90385000Y-98913740D01*
X90327932Y-98626842D01*
X90215990Y-98356589D01*
X90118043Y-98210000D01*
X95031928Y-98210000D01*
X95031928Y-99910000D01*
X95044188Y-100034482D01*
X95080498Y-100154180D01*
X95139463Y-100264494D01*
X95218815Y-100361185D01*
X95315506Y-100440537D01*
X95425820Y-100499502D01*
X95545518Y-100535812D01*
X95670000Y-100548072D01*
X97370000Y-100548072D01*
X97494482Y-100535812D01*
X97614180Y-100499502D01*
X97724494Y-100440537D01*
X97821185Y-100361185D01*
X97900537Y-100264494D01*
X97959502Y-100154180D01*
X97995812Y-100034482D01*
X98008072Y-99910000D01*
X98008072Y-98210000D01*
X97995812Y-98085518D01*
X97959502Y-97965820D01*
X97900537Y-97855506D01*
X97821185Y-97758815D01*
X97724494Y-97679463D01*
X97614180Y-97620498D01*
X97541620Y-97598487D01*
X97673475Y-97466632D01*
X97835990Y-97223411D01*
X97947932Y-96953158D01*
X98005000Y-96666260D01*
X98005000Y-96373740D01*
X97947932Y-96086842D01*
X97835990Y-95816589D01*
X97673475Y-95573368D01*
X97466632Y-95366525D01*
X97292240Y-95250000D01*
X97466632Y-95133475D01*
X97673475Y-94926632D01*
X97835990Y-94683411D01*
X97947932Y-94413158D01*
X98005000Y-94126260D01*
X98005000Y-93833740D01*
X97947932Y-93546842D01*
X97835990Y-93276589D01*
X97673475Y-93033368D01*
X97466632Y-92826525D01*
X97292240Y-92710000D01*
X97466632Y-92593475D01*
X97673475Y-92386632D01*
X97835990Y-92143411D01*
X97947932Y-91873158D01*
X98005000Y-91586260D01*
X98005000Y-91293740D01*
X97947932Y-91006842D01*
X97835990Y-90736589D01*
X97673475Y-90493368D01*
X97466632Y-90286525D01*
X97292240Y-90170000D01*
X97466632Y-90053475D01*
X97673475Y-89846632D01*
X97835990Y-89603411D01*
X97947932Y-89333158D01*
X98005000Y-89046260D01*
X98005000Y-88753740D01*
X97947932Y-88466842D01*
X97835990Y-88196589D01*
X97673475Y-87953368D01*
X97466632Y-87746525D01*
X97292240Y-87630000D01*
X97466632Y-87513475D01*
X97673475Y-87306632D01*
X97835990Y-87063411D01*
X97947932Y-86793158D01*
X98005000Y-86506260D01*
X98005000Y-86213740D01*
X97947932Y-85926842D01*
X97835990Y-85656589D01*
X97673475Y-85413368D01*
X97466632Y-85206525D01*
X97292240Y-85090000D01*
X97466632Y-84973475D01*
X97673475Y-84766632D01*
X97835990Y-84523411D01*
X97947932Y-84253158D01*
X98005000Y-83966260D01*
X98005000Y-83673740D01*
X97947932Y-83386842D01*
X97835990Y-83116589D01*
X97673475Y-82873368D01*
X97466632Y-82666525D01*
X97292240Y-82550000D01*
X97466632Y-82433475D01*
X97673475Y-82226632D01*
X97835990Y-81983411D01*
X97947932Y-81713158D01*
X98005000Y-81426260D01*
X98005000Y-81133740D01*
X97947932Y-80846842D01*
X97835990Y-80576589D01*
X97673475Y-80333368D01*
X97466632Y-80126525D01*
X97292240Y-80010000D01*
X97466632Y-79893475D01*
X97673475Y-79686632D01*
X97835990Y-79443411D01*
X97947932Y-79173158D01*
X98005000Y-78886260D01*
X98005000Y-78593740D01*
X97947932Y-78306842D01*
X97835990Y-78036589D01*
X97673475Y-77793368D01*
X97466632Y-77586525D01*
X97292240Y-77470000D01*
X97466632Y-77353475D01*
X97673475Y-77146632D01*
X97835990Y-76903411D01*
X97947932Y-76633158D01*
X98005000Y-76346260D01*
X98005000Y-76053740D01*
X97947932Y-75766842D01*
X97835990Y-75496589D01*
X97673475Y-75253368D01*
X97466632Y-75046525D01*
X97292240Y-74930000D01*
X97466632Y-74813475D01*
X97673475Y-74606632D01*
X97835990Y-74363411D01*
X97947932Y-74093158D01*
X98005000Y-73806260D01*
X98005000Y-73513740D01*
X97947932Y-73226842D01*
X97835990Y-72956589D01*
X97673475Y-72713368D01*
X97466632Y-72506525D01*
X97292240Y-72390000D01*
X97466632Y-72273475D01*
X97673475Y-72066632D01*
X97835990Y-71823411D01*
X97947932Y-71553158D01*
X98005000Y-71266260D01*
X98005000Y-70973740D01*
X97947932Y-70686842D01*
X97835990Y-70416589D01*
X97673475Y-70173368D01*
X97466632Y-69966525D01*
X97292240Y-69850000D01*
X97466632Y-69733475D01*
X97673475Y-69526632D01*
X97835990Y-69283411D01*
X97947932Y-69013158D01*
X98005000Y-68726260D01*
X98005000Y-68433740D01*
X97947932Y-68146842D01*
X97835990Y-67876589D01*
X97673475Y-67633368D01*
X97466632Y-67426525D01*
X97284466Y-67304805D01*
X97401355Y-67235178D01*
X97617588Y-67040269D01*
X97791641Y-66806920D01*
X97916825Y-66544099D01*
X97961476Y-66396890D01*
X97840155Y-66167000D01*
X96647000Y-66167000D01*
X96647000Y-66187000D01*
X96393000Y-66187000D01*
X96393000Y-66167000D01*
X95199845Y-66167000D01*
X95078524Y-66396890D01*
X95123175Y-66544099D01*
X95248359Y-66806920D01*
X95422412Y-67040269D01*
X95638645Y-67235178D01*
X95755534Y-67304805D01*
X95573368Y-67426525D01*
X95366525Y-67633368D01*
X95204010Y-67876589D01*
X95092068Y-68146842D01*
X95035000Y-68433740D01*
X95035000Y-68726260D01*
X95092068Y-69013158D01*
X95204010Y-69283411D01*
X95366525Y-69526632D01*
X95573368Y-69733475D01*
X95747760Y-69850000D01*
X95573368Y-69966525D01*
X95366525Y-70173368D01*
X95204010Y-70416589D01*
X95092068Y-70686842D01*
X95035000Y-70973740D01*
X95035000Y-71266260D01*
X95092068Y-71553158D01*
X95204010Y-71823411D01*
X95366525Y-72066632D01*
X95573368Y-72273475D01*
X95747760Y-72390000D01*
X95573368Y-72506525D01*
X95366525Y-72713368D01*
X95204010Y-72956589D01*
X95092068Y-73226842D01*
X95035000Y-73513740D01*
X95035000Y-73806260D01*
X95092068Y-74093158D01*
X95204010Y-74363411D01*
X95366525Y-74606632D01*
X95573368Y-74813475D01*
X95747760Y-74930000D01*
X95573368Y-75046525D01*
X95366525Y-75253368D01*
X95204010Y-75496589D01*
X95092068Y-75766842D01*
X95035000Y-76053740D01*
X95035000Y-76346260D01*
X95092068Y-76633158D01*
X95204010Y-76903411D01*
X95366525Y-77146632D01*
X95573368Y-77353475D01*
X95747760Y-77470000D01*
X95573368Y-77586525D01*
X95366525Y-77793368D01*
X95204010Y-78036589D01*
X95092068Y-78306842D01*
X95035000Y-78593740D01*
X95035000Y-78886260D01*
X95092068Y-79173158D01*
X95204010Y-79443411D01*
X95366525Y-79686632D01*
X95573368Y-79893475D01*
X95747760Y-80010000D01*
X95573368Y-80126525D01*
X95366525Y-80333368D01*
X95204010Y-80576589D01*
X95092068Y-80846842D01*
X95035000Y-81133740D01*
X95035000Y-81426260D01*
X95092068Y-81713158D01*
X95204010Y-81983411D01*
X95366525Y-82226632D01*
X95573368Y-82433475D01*
X95747760Y-82550000D01*
X95573368Y-82666525D01*
X95366525Y-82873368D01*
X95204010Y-83116589D01*
X95092068Y-83386842D01*
X95035000Y-83673740D01*
X95035000Y-83966260D01*
X95092068Y-84253158D01*
X95204010Y-84523411D01*
X95366525Y-84766632D01*
X95573368Y-84973475D01*
X95747760Y-85090000D01*
X95573368Y-85206525D01*
X95366525Y-85413368D01*
X95204010Y-85656589D01*
X95092068Y-85926842D01*
X95035000Y-86213740D01*
X95035000Y-86506260D01*
X95092068Y-86793158D01*
X95204010Y-87063411D01*
X95366525Y-87306632D01*
X95573368Y-87513475D01*
X95747760Y-87630000D01*
X95573368Y-87746525D01*
X95366525Y-87953368D01*
X95204010Y-88196589D01*
X95092068Y-88466842D01*
X95035000Y-88753740D01*
X95035000Y-89046260D01*
X95092068Y-89333158D01*
X95204010Y-89603411D01*
X95366525Y-89846632D01*
X95573368Y-90053475D01*
X95747760Y-90170000D01*
X95573368Y-90286525D01*
X95366525Y-90493368D01*
X95204010Y-90736589D01*
X95092068Y-91006842D01*
X95035000Y-91293740D01*
X95035000Y-91586260D01*
X95092068Y-91873158D01*
X95204010Y-92143411D01*
X95366525Y-92386632D01*
X95573368Y-92593475D01*
X95747760Y-92710000D01*
X95573368Y-92826525D01*
X95366525Y-93033368D01*
X95204010Y-93276589D01*
X95092068Y-93546842D01*
X95035000Y-93833740D01*
X95035000Y-94126260D01*
X95092068Y-94413158D01*
X95204010Y-94683411D01*
X95366525Y-94926632D01*
X95573368Y-95133475D01*
X95747760Y-95250000D01*
X95573368Y-95366525D01*
X95366525Y-95573368D01*
X95204010Y-95816589D01*
X95092068Y-96086842D01*
X95035000Y-96373740D01*
X95035000Y-96666260D01*
X95092068Y-96953158D01*
X95204010Y-97223411D01*
X95366525Y-97466632D01*
X95498380Y-97598487D01*
X95425820Y-97620498D01*
X95315506Y-97679463D01*
X95218815Y-97758815D01*
X95139463Y-97855506D01*
X95080498Y-97965820D01*
X95044188Y-98085518D01*
X95031928Y-98210000D01*
X90118043Y-98210000D01*
X90053475Y-98113368D01*
X89846632Y-97906525D01*
X89603411Y-97744010D01*
X89333158Y-97632068D01*
X89046260Y-97575000D01*
X88753740Y-97575000D01*
X88466842Y-97632068D01*
X88196589Y-97744010D01*
X87953368Y-97906525D01*
X87746525Y-98113368D01*
X87630000Y-98287760D01*
X87513475Y-98113368D01*
X87306632Y-97906525D01*
X87063411Y-97744010D01*
X86793158Y-97632068D01*
X86506260Y-97575000D01*
X86213740Y-97575000D01*
X85926842Y-97632068D01*
X85656589Y-97744010D01*
X85413368Y-97906525D01*
X85206525Y-98113368D01*
X85090000Y-98287760D01*
X84973475Y-98113368D01*
X84766632Y-97906525D01*
X84523411Y-97744010D01*
X84253158Y-97632068D01*
X83966260Y-97575000D01*
X83673740Y-97575000D01*
X83386842Y-97632068D01*
X83116589Y-97744010D01*
X82873368Y-97906525D01*
X82666525Y-98113368D01*
X82550000Y-98287760D01*
X82433475Y-98113368D01*
X82226632Y-97906525D01*
X81983411Y-97744010D01*
X81713158Y-97632068D01*
X81426260Y-97575000D01*
X81133740Y-97575000D01*
X80846842Y-97632068D01*
X80576589Y-97744010D01*
X80333368Y-97906525D01*
X80126525Y-98113368D01*
X80010000Y-98287760D01*
X79893475Y-98113368D01*
X79686632Y-97906525D01*
X79443411Y-97744010D01*
X79173158Y-97632068D01*
X78886260Y-97575000D01*
X78593740Y-97575000D01*
X78306842Y-97632068D01*
X78036589Y-97744010D01*
X77793368Y-97906525D01*
X77586525Y-98113368D01*
X77470000Y-98287760D01*
X77353475Y-98113368D01*
X77146632Y-97906525D01*
X76903411Y-97744010D01*
X76633158Y-97632068D01*
X76346260Y-97575000D01*
X76053740Y-97575000D01*
X75766842Y-97632068D01*
X75496589Y-97744010D01*
X75253368Y-97906525D01*
X75046525Y-98113368D01*
X74930000Y-98287760D01*
X74813475Y-98113368D01*
X74606632Y-97906525D01*
X74363411Y-97744010D01*
X74093158Y-97632068D01*
X73806260Y-97575000D01*
X73513740Y-97575000D01*
X73226842Y-97632068D01*
X72956589Y-97744010D01*
X72713368Y-97906525D01*
X72506525Y-98113368D01*
X72390000Y-98287760D01*
X72273475Y-98113368D01*
X72066632Y-97906525D01*
X71823411Y-97744010D01*
X71553158Y-97632068D01*
X71266260Y-97575000D01*
X70973740Y-97575000D01*
X70686842Y-97632068D01*
X70416589Y-97744010D01*
X70173368Y-97906525D01*
X69966525Y-98113368D01*
X69850000Y-98287760D01*
X69733475Y-98113368D01*
X69526632Y-97906525D01*
X69283411Y-97744010D01*
X69013158Y-97632068D01*
X68726260Y-97575000D01*
X68433740Y-97575000D01*
X68146842Y-97632068D01*
X67876589Y-97744010D01*
X67633368Y-97906525D01*
X67501513Y-98038380D01*
X67479502Y-97965820D01*
X67420537Y-97855506D01*
X67341185Y-97758815D01*
X67244494Y-97679463D01*
X67134180Y-97620498D01*
X67014482Y-97584188D01*
X66890000Y-97571928D01*
X66325750Y-97575000D01*
X66167000Y-97733750D01*
X65913000Y-97733750D01*
X65754250Y-97575000D01*
X65190000Y-97571928D01*
X65065518Y-97584188D01*
X64945820Y-97620498D01*
X64835506Y-97679463D01*
X64738815Y-97758815D01*
X64659463Y-97855506D01*
X64600498Y-97965820D01*
X64564188Y-98085518D01*
X64551928Y-98210000D01*
X59638043Y-98210000D01*
X59573475Y-98113368D01*
X59366632Y-97906525D01*
X59192240Y-97790000D01*
X59366632Y-97673475D01*
X59573475Y-97466632D01*
X59735990Y-97223411D01*
X59847932Y-96953158D01*
X59905000Y-96666260D01*
X59905000Y-96373740D01*
X59847932Y-96086842D01*
X59735990Y-95816589D01*
X59573475Y-95573368D01*
X59366632Y-95366525D01*
X59192240Y-95250000D01*
X59366632Y-95133475D01*
X59573475Y-94926632D01*
X59735990Y-94683411D01*
X59847932Y-94413158D01*
X59905000Y-94126260D01*
X59905000Y-93833740D01*
X59847932Y-93546842D01*
X59735990Y-93276589D01*
X59573475Y-93033368D01*
X59366632Y-92826525D01*
X59192240Y-92710000D01*
X59366632Y-92593475D01*
X59573475Y-92386632D01*
X59735990Y-92143411D01*
X59847932Y-91873158D01*
X59905000Y-91586260D01*
X59905000Y-91293740D01*
X59847932Y-91006842D01*
X59735990Y-90736589D01*
X59573475Y-90493368D01*
X59366632Y-90286525D01*
X59192240Y-90170000D01*
X59366632Y-90053475D01*
X59573475Y-89846632D01*
X59735990Y-89603411D01*
X59847932Y-89333158D01*
X59905000Y-89046260D01*
X59905000Y-88753740D01*
X59847932Y-88466842D01*
X59735990Y-88196589D01*
X59573475Y-87953368D01*
X59366632Y-87746525D01*
X59192240Y-87630000D01*
X59366632Y-87513475D01*
X59573475Y-87306632D01*
X59735990Y-87063411D01*
X59847932Y-86793158D01*
X59905000Y-86506260D01*
X59905000Y-86213740D01*
X59847932Y-85926842D01*
X59735990Y-85656589D01*
X59573475Y-85413368D01*
X59366632Y-85206525D01*
X59192240Y-85090000D01*
X59366632Y-84973475D01*
X59573475Y-84766632D01*
X59735990Y-84523411D01*
X59847932Y-84253158D01*
X59905000Y-83966260D01*
X59905000Y-83673740D01*
X59847932Y-83386842D01*
X59735990Y-83116589D01*
X59573475Y-82873368D01*
X59366632Y-82666525D01*
X59192240Y-82550000D01*
X59366632Y-82433475D01*
X59573475Y-82226632D01*
X59735990Y-81983411D01*
X59847932Y-81713158D01*
X59886353Y-81520000D01*
X64471928Y-81520000D01*
X64484188Y-81644482D01*
X64520498Y-81764180D01*
X64579463Y-81874494D01*
X64658815Y-81971185D01*
X64755506Y-82050537D01*
X64865820Y-82109502D01*
X64985518Y-82145812D01*
X65110000Y-82158072D01*
X65536750Y-82155000D01*
X65695500Y-81996250D01*
X65695500Y-80772000D01*
X65949500Y-80772000D01*
X65949500Y-81996250D01*
X66108250Y-82155000D01*
X66535000Y-82158072D01*
X66659482Y-82145812D01*
X66779180Y-82109502D01*
X66889494Y-82050537D01*
X66986185Y-81971185D01*
X67065537Y-81874494D01*
X67124502Y-81764180D01*
X67160812Y-81644482D01*
X67173072Y-81520000D01*
X67170000Y-80930750D01*
X67011250Y-80772000D01*
X65949500Y-80772000D01*
X65695500Y-80772000D01*
X64633750Y-80772000D01*
X64475000Y-80930750D01*
X64471928Y-81520000D01*
X59886353Y-81520000D01*
X59905000Y-81426260D01*
X59905000Y-81133740D01*
X59847932Y-80846842D01*
X59735990Y-80576589D01*
X59573475Y-80333368D01*
X59366632Y-80126525D01*
X59192240Y-80010000D01*
X59366632Y-79893475D01*
X59573475Y-79686632D01*
X59735990Y-79443411D01*
X59847932Y-79173158D01*
X59886353Y-78980000D01*
X64471928Y-78980000D01*
X64484188Y-79104482D01*
X64520498Y-79224180D01*
X64579463Y-79334494D01*
X64612705Y-79375000D01*
X64579463Y-79415506D01*
X64520498Y-79525820D01*
X64484188Y-79645518D01*
X64471928Y-79770000D01*
X64475000Y-80359250D01*
X64633750Y-80518000D01*
X65695500Y-80518000D01*
X65695500Y-78232000D01*
X65949500Y-78232000D01*
X65949500Y-80518000D01*
X67011250Y-80518000D01*
X67170000Y-80359250D01*
X67173072Y-79770000D01*
X67160812Y-79645518D01*
X67124502Y-79525820D01*
X67065537Y-79415506D01*
X67032295Y-79375000D01*
X67065537Y-79334494D01*
X67124502Y-79224180D01*
X67160812Y-79104482D01*
X67173072Y-78980000D01*
X67170000Y-78390750D01*
X67011250Y-78232000D01*
X65949500Y-78232000D01*
X65695500Y-78232000D01*
X64633750Y-78232000D01*
X64475000Y-78390750D01*
X64471928Y-78980000D01*
X59886353Y-78980000D01*
X59905000Y-78886260D01*
X59905000Y-78593740D01*
X59847932Y-78306842D01*
X59735990Y-78036589D01*
X59573475Y-77793368D01*
X59366632Y-77586525D01*
X59192240Y-77470000D01*
X59366632Y-77353475D01*
X59573475Y-77146632D01*
X59735990Y-76903411D01*
X59847932Y-76633158D01*
X59905000Y-76346260D01*
X59905000Y-76053740D01*
X59847932Y-75766842D01*
X59735990Y-75496589D01*
X59573475Y-75253368D01*
X59366632Y-75046525D01*
X59192240Y-74930000D01*
X59366632Y-74813475D01*
X59573475Y-74606632D01*
X59735990Y-74363411D01*
X59847932Y-74093158D01*
X59905000Y-73806260D01*
X59905000Y-73513740D01*
X59847932Y-73226842D01*
X59735990Y-72956589D01*
X59573475Y-72713368D01*
X59366632Y-72506525D01*
X59192240Y-72390000D01*
X59366632Y-72273475D01*
X59573475Y-72066632D01*
X59735990Y-71823411D01*
X59847932Y-71553158D01*
X59905000Y-71266260D01*
X59905000Y-70973740D01*
X59847932Y-70686842D01*
X59735990Y-70416589D01*
X59573475Y-70173368D01*
X59366632Y-69966525D01*
X59192240Y-69850000D01*
X59366632Y-69733475D01*
X59573475Y-69526632D01*
X59735990Y-69283411D01*
X59847932Y-69013158D01*
X59905000Y-68726260D01*
X59905000Y-68433740D01*
X59847932Y-68146842D01*
X59735990Y-67876589D01*
X59573475Y-67633368D01*
X59441620Y-67501513D01*
X59514180Y-67479502D01*
X59624494Y-67420537D01*
X59721185Y-67341185D01*
X59800537Y-67244494D01*
X59859502Y-67134180D01*
X59895812Y-67014482D01*
X59908072Y-66890000D01*
X59905000Y-66325750D01*
X59746250Y-66167000D01*
X58547000Y-66167000D01*
X58547000Y-66187000D01*
X58293000Y-66187000D01*
X58293000Y-66167000D01*
X57093750Y-66167000D01*
X56935000Y-66325750D01*
X56931928Y-66890000D01*
X56540000Y-66890000D01*
X56540000Y-65190000D01*
X56931928Y-65190000D01*
X56935000Y-65754250D01*
X57093750Y-65913000D01*
X58293000Y-65913000D01*
X58293000Y-64713750D01*
X58547000Y-64713750D01*
X58547000Y-65913000D01*
X59746250Y-65913000D01*
X59905000Y-65754250D01*
X59908072Y-65190000D01*
X59895812Y-65065518D01*
X59859502Y-64945820D01*
X59800537Y-64835506D01*
X59746778Y-64770000D01*
X62738000Y-64770000D01*
X62738000Y-76835000D01*
X62740440Y-76859776D01*
X62747667Y-76883601D01*
X62759403Y-76905557D01*
X62775197Y-76924803D01*
X62794443Y-76940597D01*
X62816399Y-76952333D01*
X62840224Y-76959560D01*
X62865000Y-76962000D01*
X64533230Y-76962000D01*
X64520498Y-76985820D01*
X64484188Y-77105518D01*
X64471928Y-77230000D01*
X64475000Y-77819250D01*
X64633750Y-77978000D01*
X65695500Y-77978000D01*
X65695500Y-77958000D01*
X65949500Y-77958000D01*
X65949500Y-77978000D01*
X67011250Y-77978000D01*
X67170000Y-77819250D01*
X67173072Y-77230000D01*
X67160812Y-77105518D01*
X67124502Y-76985820D01*
X67111770Y-76962000D01*
X67616795Y-76962000D01*
X67596595Y-76986614D01*
X67514528Y-77140150D01*
X67463992Y-77306746D01*
X67446928Y-77480000D01*
X67446928Y-78730000D01*
X67463992Y-78903254D01*
X67514528Y-79069850D01*
X67596595Y-79223386D01*
X67707038Y-79357962D01*
X67727799Y-79375000D01*
X67707038Y-79392038D01*
X67596595Y-79526614D01*
X67514528Y-79680150D01*
X67463992Y-79846746D01*
X67446928Y-80020000D01*
X67446928Y-81270000D01*
X67463992Y-81443254D01*
X67514528Y-81609850D01*
X67596595Y-81763386D01*
X67707038Y-81897962D01*
X67841614Y-82008405D01*
X67995150Y-82090472D01*
X68161746Y-82141008D01*
X68335000Y-82158072D01*
X69260000Y-82158072D01*
X69433254Y-82141008D01*
X69599850Y-82090472D01*
X69753386Y-82008405D01*
X69887962Y-81897962D01*
X69998405Y-81763386D01*
X70080472Y-81609850D01*
X70108587Y-81517166D01*
X70275315Y-81466589D01*
X70407320Y-81396031D01*
X70460226Y-81448937D01*
X70629744Y-81562205D01*
X70818102Y-81640226D01*
X70916193Y-81659737D01*
X70971595Y-81763386D01*
X71082038Y-81897962D01*
X71216614Y-82008405D01*
X71370150Y-82090472D01*
X71536746Y-82141008D01*
X71710000Y-82158072D01*
X72635000Y-82158072D01*
X72808254Y-82141008D01*
X72974850Y-82090472D01*
X73128386Y-82008405D01*
X73262962Y-81897962D01*
X73373405Y-81763386D01*
X73455472Y-81609850D01*
X73482727Y-81520000D01*
X73796928Y-81520000D01*
X73809188Y-81644482D01*
X73845498Y-81764180D01*
X73904463Y-81874494D01*
X73983815Y-81971185D01*
X74080506Y-82050537D01*
X74190820Y-82109502D01*
X74310518Y-82145812D01*
X74435000Y-82158072D01*
X74861750Y-82155000D01*
X75020500Y-81996250D01*
X75020500Y-80772000D01*
X75274500Y-80772000D01*
X75274500Y-81996250D01*
X75433250Y-82155000D01*
X75860000Y-82158072D01*
X75984482Y-82145812D01*
X76104180Y-82109502D01*
X76214494Y-82050537D01*
X76311185Y-81971185D01*
X76390537Y-81874494D01*
X76449502Y-81764180D01*
X76485812Y-81644482D01*
X76498072Y-81520000D01*
X76495000Y-80930750D01*
X76336250Y-80772000D01*
X75274500Y-80772000D01*
X75020500Y-80772000D01*
X73958750Y-80772000D01*
X73800000Y-80930750D01*
X73796928Y-81520000D01*
X73482727Y-81520000D01*
X73506008Y-81443254D01*
X73523072Y-81270000D01*
X73523072Y-80020000D01*
X73506008Y-79846746D01*
X73455472Y-79680150D01*
X73373405Y-79526614D01*
X73262962Y-79392038D01*
X73242201Y-79375000D01*
X73262962Y-79357962D01*
X73373405Y-79223386D01*
X73455472Y-79069850D01*
X73482727Y-78980000D01*
X73796928Y-78980000D01*
X73809188Y-79104482D01*
X73845498Y-79224180D01*
X73904463Y-79334494D01*
X73937705Y-79375000D01*
X73904463Y-79415506D01*
X73845498Y-79525820D01*
X73809188Y-79645518D01*
X73796928Y-79770000D01*
X73800000Y-80359250D01*
X73958750Y-80518000D01*
X75020500Y-80518000D01*
X75020500Y-78232000D01*
X75274500Y-78232000D01*
X75274500Y-80518000D01*
X76336250Y-80518000D01*
X76495000Y-80359250D01*
X76498072Y-79770000D01*
X76485812Y-79645518D01*
X76449502Y-79525820D01*
X76390537Y-79415506D01*
X76357295Y-79375000D01*
X76390537Y-79334494D01*
X76449502Y-79224180D01*
X76485812Y-79104482D01*
X76498072Y-78980000D01*
X76495000Y-78390750D01*
X76336250Y-78232000D01*
X75274500Y-78232000D01*
X75020500Y-78232000D01*
X73958750Y-78232000D01*
X73800000Y-78390750D01*
X73796928Y-78980000D01*
X73482727Y-78980000D01*
X73506008Y-78903254D01*
X73523072Y-78730000D01*
X73523072Y-77480000D01*
X73506008Y-77306746D01*
X73455472Y-77140150D01*
X73373405Y-76986614D01*
X73353205Y-76962000D01*
X73858230Y-76962000D01*
X73845498Y-76985820D01*
X73809188Y-77105518D01*
X73796928Y-77230000D01*
X73800000Y-77819250D01*
X73958750Y-77978000D01*
X75020500Y-77978000D01*
X75020500Y-77958000D01*
X75274500Y-77958000D01*
X75274500Y-77978000D01*
X76336250Y-77978000D01*
X76495000Y-77819250D01*
X76498072Y-77230000D01*
X76485812Y-77105518D01*
X76449502Y-76985820D01*
X76436770Y-76962000D01*
X92075000Y-76962000D01*
X92099776Y-76959560D01*
X92123601Y-76952333D01*
X92145557Y-76940597D01*
X92164803Y-76924803D01*
X92180597Y-76905557D01*
X92192333Y-76883601D01*
X92199560Y-76859776D01*
X92202000Y-76835000D01*
X92202000Y-65683110D01*
X95078524Y-65683110D01*
X95199845Y-65913000D01*
X96393000Y-65913000D01*
X96393000Y-64719186D01*
X96647000Y-64719186D01*
X96647000Y-65913000D01*
X97840155Y-65913000D01*
X97961476Y-65683110D01*
X97916825Y-65535901D01*
X97791641Y-65273080D01*
X97617588Y-65039731D01*
X97401355Y-64844822D01*
X97151252Y-64695843D01*
X96876891Y-64598519D01*
X96647000Y-64719186D01*
X96393000Y-64719186D01*
X96163109Y-64598519D01*
X95888748Y-64695843D01*
X95638645Y-64844822D01*
X95422412Y-65039731D01*
X95248359Y-65273080D01*
X95123175Y-65535901D01*
X95078524Y-65683110D01*
X92202000Y-65683110D01*
X92202000Y-64770000D01*
X92199560Y-64745224D01*
X92192333Y-64721399D01*
X92180597Y-64699443D01*
X92164803Y-64680197D01*
X92145557Y-64664403D01*
X92123601Y-64652667D01*
X92099776Y-64645440D01*
X92075000Y-64643000D01*
X62865000Y-64643000D01*
X62840224Y-64645440D01*
X62816399Y-64652667D01*
X62794443Y-64664403D01*
X62775197Y-64680197D01*
X62759403Y-64699443D01*
X62747667Y-64721399D01*
X62740440Y-64745224D01*
X62738000Y-64770000D01*
X59746778Y-64770000D01*
X59721185Y-64738815D01*
X59624494Y-64659463D01*
X59514180Y-64600498D01*
X59394482Y-64564188D01*
X59270000Y-64551928D01*
X58705750Y-64555000D01*
X58547000Y-64713750D01*
X58293000Y-64713750D01*
X58134250Y-64555000D01*
X57570000Y-64551928D01*
X57445518Y-64564188D01*
X57325820Y-64600498D01*
X57215506Y-64659463D01*
X57118815Y-64738815D01*
X57039463Y-64835506D01*
X56980498Y-64945820D01*
X56944188Y-65065518D01*
X56931928Y-65190000D01*
X56540000Y-65190000D01*
X56540000Y-64160000D01*
X98400000Y-64160000D01*
X98400001Y-100940000D01*
M02*
