G04 #@! TF.GenerationSoftware,KiCad,Pcbnew,5.1.5-52549c5~84~ubuntu18.04.1*
G04 #@! TF.CreationDate,2020-03-18T13:42:57+01:00*
G04 #@! TF.ProjectId,esp32_breakout,65737033-325f-4627-9265-616b6f75742e,rev?*
G04 #@! TF.SameCoordinates,Original*
G04 #@! TF.FileFunction,Legend,Bot*
G04 #@! TF.FilePolarity,Positive*
%FSLAX46Y46*%
G04 Gerber Fmt 4.6, Leading zero omitted, Abs format (unit mm)*
G04 Created by KiCad (PCBNEW 5.1.5-52549c5~84~ubuntu18.04.1) date 2020-03-18 13:42:57*
%MOMM*%
%LPD*%
G04 APERTURE LIST*
%ADD10C,0.120000*%
%ADD11C,0.150000*%
G04 APERTURE END LIST*
D10*
X67912064Y-81555000D02*
X66707936Y-81555000D01*
X67912064Y-79735000D02*
X66707936Y-79735000D01*
X67912064Y-79015000D02*
X66707936Y-79015000D01*
X67912064Y-77195000D02*
X66707936Y-77195000D01*
X64710000Y-97730000D02*
X64710000Y-99060000D01*
X66040000Y-97730000D02*
X64710000Y-97730000D01*
X67310000Y-97730000D02*
X67310000Y-100390000D01*
X67310000Y-100390000D02*
X90230000Y-100390000D01*
X67310000Y-97730000D02*
X90230000Y-97730000D01*
X90230000Y-97730000D02*
X90230000Y-100390000D01*
X95190000Y-100390000D02*
X96520000Y-100390000D01*
X95190000Y-99060000D02*
X95190000Y-100390000D01*
X95190000Y-97790000D02*
X97850000Y-97790000D01*
X97850000Y-97790000D02*
X97850000Y-64710000D01*
X95190000Y-97790000D02*
X95190000Y-64710000D01*
X95190000Y-64710000D02*
X97850000Y-64710000D01*
X59750000Y-64710000D02*
X58420000Y-64710000D01*
X59750000Y-66040000D02*
X59750000Y-64710000D01*
X59750000Y-67310000D02*
X57090000Y-67310000D01*
X57090000Y-67310000D02*
X57090000Y-100390000D01*
X59750000Y-67310000D02*
X59750000Y-100390000D01*
X59750000Y-100390000D02*
X57090000Y-100390000D01*
X73057936Y-77195000D02*
X74262064Y-77195000D01*
X73057936Y-79015000D02*
X74262064Y-79015000D01*
X73057936Y-79735000D02*
X74262064Y-79735000D01*
X73057936Y-81555000D02*
X74262064Y-81555000D01*
D11*
X64166666Y-81002142D02*
X64214285Y-81049761D01*
X64357142Y-81097380D01*
X64452380Y-81097380D01*
X64595238Y-81049761D01*
X64690476Y-80954523D01*
X64738095Y-80859285D01*
X64785714Y-80668809D01*
X64785714Y-80525952D01*
X64738095Y-80335476D01*
X64690476Y-80240238D01*
X64595238Y-80145000D01*
X64452380Y-80097380D01*
X64357142Y-80097380D01*
X64214285Y-80145000D01*
X64166666Y-80192619D01*
X63309523Y-80430714D02*
X63309523Y-81097380D01*
X63547619Y-80049761D02*
X63785714Y-80764047D01*
X63166666Y-80764047D01*
X64166666Y-78462142D02*
X64214285Y-78509761D01*
X64357142Y-78557380D01*
X64452380Y-78557380D01*
X64595238Y-78509761D01*
X64690476Y-78414523D01*
X64738095Y-78319285D01*
X64785714Y-78128809D01*
X64785714Y-77985952D01*
X64738095Y-77795476D01*
X64690476Y-77700238D01*
X64595238Y-77605000D01*
X64452380Y-77557380D01*
X64357142Y-77557380D01*
X64214285Y-77605000D01*
X64166666Y-77652619D01*
X63833333Y-77557380D02*
X63214285Y-77557380D01*
X63547619Y-77938333D01*
X63404761Y-77938333D01*
X63309523Y-77985952D01*
X63261904Y-78033571D01*
X63214285Y-78128809D01*
X63214285Y-78366904D01*
X63261904Y-78462142D01*
X63309523Y-78509761D01*
X63404761Y-78557380D01*
X63690476Y-78557380D01*
X63785714Y-78509761D01*
X63833333Y-78462142D01*
X77166666Y-78462142D02*
X77214285Y-78509761D01*
X77357142Y-78557380D01*
X77452380Y-78557380D01*
X77595238Y-78509761D01*
X77690476Y-78414523D01*
X77738095Y-78319285D01*
X77785714Y-78128809D01*
X77785714Y-77985952D01*
X77738095Y-77795476D01*
X77690476Y-77700238D01*
X77595238Y-77605000D01*
X77452380Y-77557380D01*
X77357142Y-77557380D01*
X77214285Y-77605000D01*
X77166666Y-77652619D01*
X76785714Y-77652619D02*
X76738095Y-77605000D01*
X76642857Y-77557380D01*
X76404761Y-77557380D01*
X76309523Y-77605000D01*
X76261904Y-77652619D01*
X76214285Y-77747857D01*
X76214285Y-77843095D01*
X76261904Y-77985952D01*
X76833333Y-78557380D01*
X76214285Y-78557380D01*
X77166666Y-81002142D02*
X77214285Y-81049761D01*
X77357142Y-81097380D01*
X77452380Y-81097380D01*
X77595238Y-81049761D01*
X77690476Y-80954523D01*
X77738095Y-80859285D01*
X77785714Y-80668809D01*
X77785714Y-80525952D01*
X77738095Y-80335476D01*
X77690476Y-80240238D01*
X77595238Y-80145000D01*
X77452380Y-80097380D01*
X77357142Y-80097380D01*
X77214285Y-80145000D01*
X77166666Y-80192619D01*
X76214285Y-81097380D02*
X76785714Y-81097380D01*
X76500000Y-81097380D02*
X76500000Y-80097380D01*
X76595238Y-80240238D01*
X76690476Y-80335476D01*
X76785714Y-80383095D01*
M02*
